G04 VIA FILL IDENTIFICATION ONLY - NOT COPPER OR DRILL DATA*
%TF.FileFunction,Other,ViaFilling*%
%TF.FilePolarity,Positive*%
%TF.SameCoordinates,Original*%
%FSLAX46Y46*%
%MOMM*%
%LPD*%
%ADD10C,0.200*%
%ADD11C,0.300*%
%ADD12C,0.400*%
D10*
X7775000Y45710000D03*
X15800000Y49400000D03*
X16562000Y53850000D03*
X19800000Y89225000D03*
X20000000Y44500000D03*
X21400000Y90000000D03*
X22000000Y89400000D03*
X22100000Y90500000D03*
X24188000Y86612000D03*
X25188000Y86612000D03*
X25688000Y86013000D03*
X26188000Y86612000D03*
X26688000Y86013000D03*
X27188000Y86612000D03*
X27688000Y86013000D03*
X29775000Y88500000D03*
X29850000Y91350000D03*
X30000000Y90700000D03*
X43400000Y61910000D03*
X51675000Y43200000D03*
X46600000Y53450000D03*
X46600000Y52350000D03*
X47150000Y54000000D03*
X47150000Y52900000D03*
X47150000Y51800000D03*
X47700000Y53450000D03*
X47700000Y52350000D03*
X48250000Y54000000D03*
X48250000Y52900000D03*
X48250000Y51800000D03*
X48800000Y53450000D03*
X48800000Y52350000D03*
D11*
X822000Y72528000D03*
X2000000Y107000000D03*
X2000000Y103000000D03*
X2000000Y67000000D03*
X2000000Y63000000D03*
X2000000Y55000000D03*
X2000000Y47000000D03*
X2000000Y39000000D03*
X2000000Y31000000D03*
X2000000Y27000000D03*
X2000000Y23000000D03*
X2000000Y19000000D03*
X2000000Y11000000D03*
X2000000Y3000000D03*
X2150000Y77000000D03*
X2275000Y95050000D03*
X2651000Y88626000D03*
X3562000Y97766000D03*
X3562000Y90165000D03*
X3925000Y16350000D03*
X3925000Y15080000D03*
X3925000Y13810000D03*
X3925000Y7460000D03*
X3950000Y60100000D03*
X4850000Y87000000D03*
X6000000Y107000000D03*
X6000000Y103000000D03*
X6000000Y39000000D03*
X6000000Y31000000D03*
X6000000Y27000000D03*
X6000000Y23000000D03*
X6000000Y19000000D03*
X6000000Y3000000D03*
X6014000Y54155000D03*
X6335000Y68287000D03*
X6475000Y96825000D03*
X6475000Y74325000D03*
X6500000Y66750000D03*
X6673000Y57078000D03*
X6842000Y10625000D03*
X6843000Y67607000D03*
X6848000Y9331000D03*
X6866000Y11871000D03*
X7067000Y8061000D03*
X8105000Y65918000D03*
X8154000Y50397000D03*
X8200000Y51310000D03*
X8200000Y44910000D03*
X8238000Y95913000D03*
X8311000Y57039000D03*
X8639000Y75199000D03*
X8650000Y48000000D03*
X8800000Y91600000D03*
X8800000Y90650000D03*
X8800000Y88900000D03*
X8800000Y88050000D03*
X8800000Y86350000D03*
X10000000Y63000000D03*
X10000000Y31000000D03*
X10000000Y27000000D03*
X10000000Y23000000D03*
X10000000Y19000000D03*
X10000000Y15000000D03*
X10000000Y11000000D03*
X10000000Y7000000D03*
X10400000Y55000000D03*
X11775000Y51250000D03*
X11775000Y44750000D03*
X12196000Y58500000D03*
X12501000Y43070000D03*
X13005000Y56731000D03*
X13200000Y49700000D03*
X13200000Y47350000D03*
X13225000Y45575000D03*
X13350000Y62750000D03*
X13425000Y58500000D03*
X13796000Y53170000D03*
X13867000Y42196000D03*
X14000000Y31000000D03*
X14000000Y27000000D03*
X14000000Y23000000D03*
X14000000Y3000000D03*
X14240000Y46602000D03*
X14637000Y60259000D03*
X14800000Y6625000D03*
X14946000Y17321000D03*
X15300000Y91600000D03*
X15300000Y90650000D03*
X15300000Y89750000D03*
X15300000Y88900000D03*
X15300000Y88050000D03*
X15300000Y87200000D03*
X15300000Y86350000D03*
X16151000Y9331000D03*
X16168000Y8061000D03*
X16250000Y42734000D03*
X16500000Y60275000D03*
X16503000Y55982000D03*
X16765000Y11871000D03*
X18000000Y31000000D03*
X18000000Y27000000D03*
X18070000Y54687000D03*
X18225000Y46825000D03*
X18350000Y51750000D03*
X18400000Y60500000D03*
X18675000Y18500000D03*
X18775000Y49000000D03*
X18883000Y85225000D03*
X18900000Y21500000D03*
X19101000Y88675000D03*
X19304000Y11502000D03*
X19325000Y16483000D03*
X19691000Y55700000D03*
X20095000Y19511000D03*
X20200000Y93853000D03*
X20510000Y91769000D03*
X20695000Y87736000D03*
X20733000Y63468000D03*
X21000000Y46998000D03*
X21120000Y76000000D03*
X21576000Y74751000D03*
X21729000Y45184000D03*
X21772000Y96453000D03*
X21776000Y79721000D03*
X22000000Y59000000D03*
X22000000Y31000000D03*
X22000000Y27000000D03*
X22000000Y15000000D03*
X22000000Y11000000D03*
X22044000Y83894000D03*
X22060000Y88594000D03*
X23000000Y87360000D03*
X23550000Y49300000D03*
X23671000Y82678000D03*
X23879000Y75176000D03*
X23900000Y66100000D03*
X24172000Y80474000D03*
X24275000Y46450000D03*
X24750000Y50654000D03*
X25250000Y48080000D03*
X25899000Y95951000D03*
X26000000Y19000000D03*
X26000000Y15000000D03*
X26000000Y11000000D03*
X26230000Y46486000D03*
X26310000Y78735000D03*
X26581000Y48129000D03*
X26839000Y64964000D03*
X27101000Y42794000D03*
X27150000Y62500000D03*
X27550000Y49300000D03*
X28349000Y96333000D03*
X28525000Y45700000D03*
X28840000Y87312000D03*
X29208000Y47736000D03*
X29620000Y79579000D03*
X29801000Y60713000D03*
X30000000Y55000000D03*
X30000000Y23000000D03*
X30000000Y19000000D03*
X30000000Y15000000D03*
X30000000Y11000000D03*
X30133000Y87069000D03*
X30250000Y47951000D03*
X30750000Y50700000D03*
X31025000Y58275000D03*
X31475000Y65325000D03*
X31500000Y79500000D03*
X32400000Y47450000D03*
X32525000Y48100000D03*
X32867000Y56256000D03*
X32872000Y88912000D03*
X33700000Y79500000D03*
X33750000Y50682000D03*
X33950000Y86644000D03*
X34000000Y63000000D03*
X34000000Y27000000D03*
X34000000Y23000000D03*
X34000000Y19000000D03*
X34000000Y15000000D03*
X34000000Y11000000D03*
X34000000Y7000000D03*
X35342000Y91408000D03*
X35525000Y58775000D03*
X35550000Y49300000D03*
X36425000Y56268000D03*
X36459000Y41307000D03*
X36975000Y41950000D03*
X37100000Y45700000D03*
X37688000Y43939000D03*
X38000000Y63000000D03*
X38000000Y31000000D03*
X38000000Y27000000D03*
X38000000Y23000000D03*
X38000000Y19000000D03*
X38000000Y15000000D03*
X38000000Y11000000D03*
X38000000Y7000000D03*
X38075000Y58275000D03*
X38993000Y66068000D03*
X40000000Y79500000D03*
X40734000Y43432000D03*
X40748000Y58586000D03*
X40752000Y66077000D03*
X40900000Y62610000D03*
X41150000Y42200000D03*
X41467000Y64202000D03*
X41900000Y46370000D03*
X42000000Y51000000D03*
X42000000Y31000000D03*
X42000000Y27000000D03*
X42000000Y23000000D03*
X42000000Y19000000D03*
X42000000Y15000000D03*
X42000000Y11000000D03*
X42000000Y7000000D03*
X42200000Y79500000D03*
X42663000Y43430000D03*
X43199000Y61358000D03*
X43225000Y67525000D03*
X43475000Y43275000D03*
X43550000Y74150000D03*
X44900000Y63866000D03*
X45250000Y93900000D03*
X45550000Y40675000D03*
X45700000Y52900000D03*
X46000000Y59000000D03*
X46000000Y47000000D03*
X46000000Y31000000D03*
X46000000Y27000000D03*
X46000000Y23000000D03*
X46000000Y19000000D03*
X46000000Y15000000D03*
X46000000Y11000000D03*
X46000000Y7000000D03*
X46000000Y3000000D03*
X46229000Y63872000D03*
X46400000Y40900000D03*
X47400000Y64800000D03*
X47900000Y63883000D03*
X47900000Y40900000D03*
X48825000Y40275000D03*
X49400000Y61352000D03*
X49400000Y46370000D03*
X50000000Y31000000D03*
X50000000Y27000000D03*
X50000000Y23000000D03*
X50000000Y19000000D03*
X50000000Y15000000D03*
X50000000Y11000000D03*
X50000000Y7000000D03*
X50000000Y3000000D03*
X50670000Y66970000D03*
X50700000Y63952000D03*
X50811000Y40966000D03*
X50900000Y61345000D03*
X50970000Y46440000D03*
X52025000Y40275000D03*
X52369000Y43858000D03*
X52600000Y65500000D03*
X52725000Y69275000D03*
X52725000Y40825000D03*
X53475000Y73498000D03*
X54000000Y107000000D03*
X54000000Y103000000D03*
X54000000Y99000000D03*
X54000000Y95000000D03*
X54000000Y91000000D03*
X54000000Y87000000D03*
X54000000Y59000000D03*
X54000000Y55000000D03*
X54000000Y51000000D03*
X54000000Y47000000D03*
X54000000Y31000000D03*
X54000000Y27000000D03*
X54000000Y23000000D03*
X54000000Y19000000D03*
X54000000Y15000000D03*
X54000000Y11000000D03*
X54000000Y7000000D03*
X54000000Y3000000D03*
X54764000Y70089000D03*
X55100000Y82700000D03*
X55100000Y77700000D03*
X56655000Y71506000D03*
X58000000Y107000000D03*
X58000000Y103000000D03*
X58000000Y99000000D03*
X58000000Y95000000D03*
X58000000Y91000000D03*
X58000000Y87000000D03*
X58000000Y83000000D03*
X58000000Y39000000D03*
X58000000Y31000000D03*
X58000000Y27000000D03*
X58000000Y23000000D03*
X58000000Y19000000D03*
X58000000Y15000000D03*
X58000000Y11000000D03*
X58000000Y7000000D03*
X58000000Y3000000D03*
D12*
X45250000Y90500000D03*
X51350000Y90500000D03*
M02*
