%TF.GenerationSoftware,KiCad,Pcbnew,10.0.6*%
%TF.CreationDate,2026-09-21T21:24:03+02:00*%
%TF.ProjectId,nucula-v2,6e756375-6c61-42d7-9632-2e6b69636164,rev?*%
%TF.SameCoordinates,Original*%
%TF.FileFunction,Soldermask,Bot*%
%TF.FilePolarity,Negative*%
%FSLAX46Y46*%
G04 Gerber Fmt 4.6, Leading zero omitted, Abs format (unit mm)*
G04 Created by KiCad (PCBNEW 10.0.6) date 2026-09-21 21:24:03*
%MOMM*%
%LPD*%
G01*
G04 APERTURE LIST*
%ADD10C,0.600000*%
%ADD11R,1.700000X1.700000*%
%ADD12C,1.700000*%
%ADD13C,0.650000*%
%ADD14O,2.100000X1.000000*%
%ADD15O,1.800000X1.000000*%
G04 APERTURE END LIST*
D10*
%TO.C,MB2*%
X45000000Y37300000D03*
X45000000Y34700000D03*
X46000000Y37300000D03*
X46000000Y34700000D03*
X47000000Y37300000D03*
X47000000Y34700000D03*
X48000000Y37300000D03*
X48000000Y34700000D03*
X49000000Y37300000D03*
X49000000Y34700000D03*
X50000000Y37300000D03*
X50000000Y34700000D03*
X51000000Y37300000D03*
X51000000Y34700000D03*
%TD*%
D11*
%TO.C,J4*%
X24920000Y41000000D03*
D12*
X27460000Y41000000D03*
X30000000Y41000000D03*
X32540000Y41000000D03*
X35080000Y41000000D03*
%TD*%
D11*
%TO.C,J3*%
X19840000Y2500000D03*
D12*
X22380000Y2500000D03*
X24920000Y2500000D03*
X27460000Y2500000D03*
X30000000Y2500000D03*
X32540000Y2500000D03*
X35080000Y2500000D03*
X37620000Y2500000D03*
X40160000Y2500000D03*
%TD*%
D13*
%TO.C,J1*%
X6000000Y51000000D03*
X6000000Y45220000D03*
D14*
X6500000Y52430000D03*
D15*
X2320000Y52430000D03*
D14*
X6500000Y43790000D03*
D15*
X2320000Y43790000D03*
%TD*%
D11*
%TO.C,J5*%
X24920000Y30000000D03*
D12*
X27460000Y30000000D03*
X30000000Y30000000D03*
X32540000Y30000000D03*
X35080000Y30000000D03*
%TD*%
D10*
%TO.C,MB1*%
X9000000Y37300000D03*
X9000000Y34700000D03*
X10000000Y37300000D03*
X10000000Y34700000D03*
X11000000Y37300000D03*
X11000000Y34700000D03*
X12000000Y37300000D03*
X12000000Y34700000D03*
X13000000Y37300000D03*
X13000000Y34700000D03*
X14000000Y37300000D03*
X14000000Y34700000D03*
X15000000Y37300000D03*
X15000000Y34700000D03*
%TD*%
M02*
