%TF.GenerationSoftware,KiCad,Pcbnew,10.0.6*%
%TF.CreationDate,2026-09-21T21:24:03+02:00*%
%TF.ProjectId,nucula-v2,6e756375-6c61-42d7-9632-2e6b69636164,rev?*%
%TF.SameCoordinates,Original*%
%TF.FileFunction,Legend,Bot*%
%TF.FilePolarity,Positive*%
%FSLAX46Y46*%
G04 Gerber Fmt 4.6, Leading zero omitted, Abs format (unit mm)*
G04 Created by KiCad (PCBNEW 10.0.6) date 2026-09-21 21:24:03*
%MOMM*%
%LPD*%
G01*
G04 APERTURE LIST*
%ADD10C,0.000000*%
%ADD11C,0.600000*%
%ADD12R,1.700000X1.700000*%
%ADD13C,1.700000*%
%ADD14C,0.650000*%
%ADD15O,2.100000X1.000000*%
%ADD16O,1.800000X1.000000*%
G04 APERTURE END LIST*
D10*
G36*
X54875866Y89257419D02*
G01*
X54217583Y89088085D01*
X54217583Y89257419D01*
X54875866Y89532520D01*
X54875866Y89257419D01*
G37*
G36*
X50547283Y76233371D02*
G01*
X49000000Y76233371D01*
X49000000Y76459854D01*
X49662517Y76459854D01*
X49662517Y77111788D01*
X49874184Y77111788D01*
X49874184Y76455621D01*
X50335617Y76455621D01*
X50335617Y77166821D01*
X50547283Y77166821D01*
X50547283Y76233371D01*
G37*
G36*
X55720416Y94776427D02*
G01*
X54937250Y94524547D01*
X54868458Y94503941D01*
X54801783Y94484329D01*
X54702300Y94454694D01*
X54722009Y94449837D01*
X54745161Y94443615D01*
X54771752Y94436054D01*
X54801783Y94427179D01*
X54834856Y94417402D01*
X54868458Y94407104D01*
X54902589Y94396260D01*
X54937250Y94384845D01*
X55720416Y94126611D01*
X55720416Y93931878D01*
X54556250Y94321346D01*
X54556250Y94579578D01*
X55720416Y94969045D01*
X55720416Y94776427D01*
G37*
G36*
X56101416Y97117990D02*
G01*
X56101416Y96861875D01*
X55127750Y96608454D01*
X54556250Y96459707D01*
X54556250Y96654441D01*
X54966883Y96756042D01*
X54966883Y96794141D01*
X55127750Y96794141D01*
X55606116Y96912673D01*
X55670145Y96928700D01*
X55728883Y96942853D01*
X55782329Y96955145D01*
X55830483Y96965591D01*
X55872023Y96974196D01*
X55905625Y96980953D01*
X55931289Y96985850D01*
X55941145Y96987597D01*
X55949016Y96988874D01*
X55931289Y96991897D01*
X55905625Y96996794D01*
X55872023Y97003552D01*
X55830483Y97012157D01*
X55782196Y97022602D01*
X55728354Y97034895D01*
X55668955Y97049048D01*
X55604000Y97065074D01*
X55127750Y97183606D01*
X55127750Y96794141D01*
X54966883Y96794141D01*
X54966883Y97223825D01*
X54556250Y97325425D01*
X54556250Y97518041D01*
X56101416Y97117990D01*
G37*
G36*
X50164167Y99546205D02*
G01*
X50492250Y99546205D01*
X50492250Y99317603D01*
X50164167Y99317603D01*
X50164167Y98995872D01*
X49956733Y98995872D01*
X49956733Y99317603D01*
X49328083Y99317603D01*
X49309032Y99317951D01*
X49290511Y99318992D01*
X49272519Y99320729D01*
X49255056Y99323159D01*
X49238122Y99326285D01*
X49221718Y99330105D01*
X49205843Y99334619D01*
X49190497Y99339828D01*
X49175680Y99345732D01*
X49161393Y99352330D01*
X49147635Y99359623D01*
X49134406Y99367610D01*
X49121706Y99376292D01*
X49109536Y99385668D01*
X49097895Y99395739D01*
X49086784Y99406505D01*
X49076275Y99417890D01*
X49066445Y99429821D01*
X49057292Y99442298D01*
X49048818Y99455320D01*
X49041021Y99468889D01*
X49033902Y99483002D01*
X49027461Y99497662D01*
X49021698Y99512867D01*
X49016612Y99528618D01*
X49012205Y99544914D01*
X49008476Y99561757D01*
X49005425Y99579145D01*
X49003051Y99597079D01*
X49001356Y99615558D01*
X49000339Y99634584D01*
X49000000Y99654155D01*
X49000000Y99980121D01*
X49207433Y99980121D01*
X49207433Y99662620D01*
X49207551Y99655465D01*
X49207905Y99648537D01*
X49208494Y99641835D01*
X49209318Y99635360D01*
X49210379Y99629112D01*
X49211675Y99623089D01*
X49213207Y99617294D01*
X49214974Y99611725D01*
X49216977Y99606383D01*
X49219216Y99601268D01*
X49221690Y99596380D01*
X49224400Y99591718D01*
X49227345Y99587283D01*
X49230527Y99583076D01*
X49233943Y99579095D01*
X49237596Y99575341D01*
X49241484Y99571815D01*
X49245608Y99568516D01*
X49249967Y99565444D01*
X49254562Y99562599D01*
X49259393Y99559981D01*
X49264459Y99557591D01*
X49269761Y99555428D01*
X49275299Y99553493D01*
X49281072Y99551785D01*
X49287081Y99550305D01*
X49293326Y99549052D01*
X49299806Y99548027D01*
X49306522Y99547230D01*
X49313473Y99546660D01*
X49328083Y99546205D01*
X49956733Y99546205D01*
X49956733Y100001287D01*
X50164167Y100001287D01*
X50164167Y99546205D01*
G37*
G36*
X50164167Y90662026D02*
G01*
X50492250Y90662026D01*
X50492250Y90433425D01*
X50164167Y90433425D01*
X50164167Y90111692D01*
X49956733Y90111692D01*
X49956733Y90433425D01*
X49328083Y90433425D01*
X49309032Y90433772D01*
X49290511Y90434814D01*
X49272519Y90436551D01*
X49255056Y90438982D01*
X49238122Y90442107D01*
X49221718Y90445927D01*
X49205843Y90450442D01*
X49190497Y90455651D01*
X49175680Y90461554D01*
X49161393Y90468152D01*
X49147635Y90475445D01*
X49134406Y90483432D01*
X49121706Y90492114D01*
X49109536Y90501490D01*
X49097895Y90511561D01*
X49086784Y90522326D01*
X49076275Y90533711D01*
X49066445Y90545642D01*
X49057292Y90558119D01*
X49048818Y90571141D01*
X49041021Y90584709D01*
X49033902Y90598823D01*
X49027461Y90613483D01*
X49021698Y90628688D01*
X49016612Y90644439D01*
X49012205Y90660736D01*
X49008476Y90677578D01*
X49005425Y90694966D01*
X49003051Y90712900D01*
X49001356Y90731380D01*
X49000339Y90750405D01*
X49000000Y90769976D01*
X49000000Y91095942D01*
X49207433Y91095942D01*
X49207433Y90778442D01*
X49207551Y90771287D01*
X49207905Y90764359D01*
X49208494Y90757657D01*
X49209318Y90751182D01*
X49210379Y90744933D01*
X49211675Y90738911D01*
X49213207Y90733116D01*
X49214974Y90727547D01*
X49216977Y90722205D01*
X49219216Y90717090D01*
X49221690Y90712201D01*
X49224400Y90707539D01*
X49227345Y90703105D01*
X49230527Y90698897D01*
X49233943Y90694916D01*
X49237596Y90691163D01*
X49241484Y90687636D01*
X49245608Y90684337D01*
X49249967Y90681265D01*
X49254562Y90678420D01*
X49259393Y90675802D01*
X49264459Y90673412D01*
X49269761Y90671249D01*
X49275299Y90669314D01*
X49281072Y90667606D01*
X49287081Y90666126D01*
X49293326Y90664873D01*
X49299806Y90663848D01*
X49306522Y90663051D01*
X49313473Y90662481D01*
X49328083Y90662026D01*
X49956733Y90662026D01*
X49956733Y91117110D01*
X50164167Y91117110D01*
X50164167Y90662026D01*
G37*
G36*
X50164167Y86854539D02*
G01*
X50492250Y86854539D01*
X50492250Y86625939D01*
X50164167Y86625939D01*
X50164167Y86304206D01*
X49956733Y86304206D01*
X49956733Y86625939D01*
X49328083Y86625939D01*
X49309032Y86626286D01*
X49290511Y86627328D01*
X49272519Y86629064D01*
X49255056Y86631495D01*
X49238122Y86634620D01*
X49221718Y86638440D01*
X49205843Y86642955D01*
X49190497Y86648164D01*
X49175680Y86654067D01*
X49161393Y86660665D01*
X49147635Y86667958D01*
X49134406Y86675945D01*
X49121706Y86684627D01*
X49109536Y86694003D01*
X49097895Y86704074D01*
X49086784Y86714839D01*
X49076275Y86726225D01*
X49066445Y86738156D01*
X49057292Y86750633D01*
X49048818Y86763655D01*
X49041021Y86777223D01*
X49033902Y86791337D01*
X49027461Y86805997D01*
X49021698Y86821202D01*
X49016612Y86836953D01*
X49012205Y86853249D01*
X49008476Y86870092D01*
X49005425Y86887480D01*
X49003051Y86905413D01*
X49001356Y86923893D01*
X49000339Y86942918D01*
X49000000Y86962488D01*
X49000000Y87288456D01*
X49207433Y87288456D01*
X49207433Y86970956D01*
X49207551Y86963793D01*
X49207905Y86956858D01*
X49208494Y86950150D01*
X49209318Y86943670D01*
X49210379Y86937417D01*
X49211675Y86931391D01*
X49213207Y86925593D01*
X49214974Y86920022D01*
X49216977Y86914678D01*
X49219216Y86909562D01*
X49221690Y86904674D01*
X49224400Y86900013D01*
X49227345Y86895579D01*
X49230527Y86891372D01*
X49233943Y86887393D01*
X49237596Y86883642D01*
X49241484Y86880117D01*
X49245608Y86876821D01*
X49249967Y86873751D01*
X49254562Y86870909D01*
X49259393Y86868294D01*
X49264459Y86865907D01*
X49269761Y86863747D01*
X49275299Y86861815D01*
X49281072Y86860109D01*
X49287081Y86858632D01*
X49293326Y86857381D01*
X49299806Y86856358D01*
X49306522Y86855562D01*
X49313473Y86854994D01*
X49328083Y86854539D01*
X49956733Y86854539D01*
X49956733Y87309622D01*
X50164167Y87309622D01*
X50164167Y86854539D01*
G37*
G36*
X54729816Y81917546D02*
G01*
X54729973Y81909188D01*
X54730445Y81901045D01*
X54731230Y81893116D01*
X54732329Y81885402D01*
X54733743Y81877903D01*
X54735471Y81870619D01*
X54737513Y81863550D01*
X54739869Y81856696D01*
X54742539Y81850056D01*
X54745524Y81843632D01*
X54748823Y81837422D01*
X54752436Y81831427D01*
X54756364Y81825647D01*
X54760606Y81820082D01*
X54765162Y81814732D01*
X54770033Y81809597D01*
X54775440Y81804726D01*
X54781078Y81800170D01*
X54786948Y81795928D01*
X54793050Y81792000D01*
X54799383Y81788387D01*
X54805948Y81785088D01*
X54812745Y81782103D01*
X54819773Y81779433D01*
X54827033Y81777077D01*
X54834524Y81775035D01*
X54842247Y81773307D01*
X54850201Y81771893D01*
X54858387Y81770794D01*
X54866804Y81770009D01*
X54875453Y81769537D01*
X54884333Y81769380D01*
X56101416Y81769380D01*
X56101416Y81187297D01*
X55927850Y81187297D01*
X55927850Y81578881D01*
X54884333Y81578881D01*
X54871997Y81579046D01*
X54859859Y81579542D01*
X54847920Y81580369D01*
X54836178Y81581527D01*
X54824636Y81583015D01*
X54813291Y81584835D01*
X54802146Y81586985D01*
X54791198Y81589465D01*
X54780449Y81592277D01*
X54769899Y81595419D01*
X54759547Y81598891D01*
X54749394Y81602695D01*
X54739439Y81606828D01*
X54729683Y81611293D01*
X54720125Y81616088D01*
X54710766Y81621214D01*
X54701639Y81626637D01*
X54692776Y81632325D01*
X54684178Y81638278D01*
X54675844Y81644495D01*
X54667775Y81650977D01*
X54659970Y81657724D01*
X54652429Y81664736D01*
X54645153Y81672012D01*
X54638142Y81679553D01*
X54631395Y81687358D01*
X54624912Y81695428D01*
X54618694Y81703763D01*
X54612740Y81712362D01*
X54607051Y81721226D01*
X54601627Y81730354D01*
X54596466Y81739747D01*
X54591596Y81749371D01*
X54587039Y81759194D01*
X54582797Y81769215D01*
X54578870Y81779434D01*
X54575256Y81789852D01*
X54571957Y81800469D01*
X54568973Y81811283D01*
X54566302Y81822297D01*
X54563946Y81833508D01*
X54561904Y81844919D01*
X54560176Y81856527D01*
X54558763Y81868334D01*
X54557663Y81880340D01*
X54556878Y81892544D01*
X54556407Y81904946D01*
X54556250Y81917546D01*
X54556250Y82287963D01*
X54729816Y82287963D01*
X54729816Y81917546D01*
G37*
G36*
X49173690Y100982427D02*
G01*
X49184115Y100981832D01*
X49194260Y100980839D01*
X49204124Y100979451D01*
X49213707Y100977665D01*
X49223009Y100975482D01*
X49232029Y100972903D01*
X49240769Y100969926D01*
X49249228Y100966553D01*
X49257405Y100962783D01*
X49265302Y100958616D01*
X49272917Y100954052D01*
X49280251Y100949092D01*
X49287304Y100943734D01*
X49294076Y100937980D01*
X49300567Y100931829D01*
X49306975Y100925602D01*
X49312970Y100919078D01*
X49318552Y100912256D01*
X49323720Y100905135D01*
X49328474Y100897717D01*
X49332815Y100889999D01*
X49336742Y100881983D01*
X49340256Y100873668D01*
X49343356Y100865054D01*
X49346043Y100856140D01*
X49348317Y100846927D01*
X49350177Y100837414D01*
X49351623Y100827601D01*
X49352657Y100817488D01*
X49353277Y100807075D01*
X49353483Y100796361D01*
X49353277Y100785924D01*
X49352657Y100775748D01*
X49351623Y100765834D01*
X49350177Y100756181D01*
X49348317Y100746790D01*
X49346043Y100737661D01*
X49343356Y100728796D01*
X49340256Y100720193D01*
X49336742Y100711854D01*
X49332815Y100703779D01*
X49328474Y100695969D01*
X49323720Y100688423D01*
X49318552Y100681142D01*
X49312970Y100674126D01*
X49306975Y100667377D01*
X49300567Y100660894D01*
X49294076Y100654742D01*
X49287304Y100648987D01*
X49280251Y100643629D01*
X49272917Y100638669D01*
X49265302Y100634104D01*
X49257405Y100629937D01*
X49249228Y100626167D01*
X49240769Y100622793D01*
X49232029Y100619817D01*
X49223009Y100617237D01*
X49213707Y100615054D01*
X49204124Y100613268D01*
X49194260Y100611879D01*
X49184115Y100610887D01*
X49173690Y100610292D01*
X49162983Y100610093D01*
X49152531Y100610292D01*
X49142344Y100610887D01*
X49132422Y100611879D01*
X49122765Y100613268D01*
X49113372Y100615054D01*
X49104244Y100617237D01*
X49095380Y100619817D01*
X49086782Y100622793D01*
X49078448Y100626167D01*
X49070378Y100629937D01*
X49062573Y100634104D01*
X49055033Y100638669D01*
X49047757Y100643629D01*
X49040746Y100648987D01*
X49033999Y100654742D01*
X49027517Y100660894D01*
X49021622Y100667377D01*
X49016108Y100674126D01*
X49010974Y100681142D01*
X49006220Y100688423D01*
X49001846Y100695969D01*
X48997852Y100703779D01*
X48994239Y100711854D01*
X48991006Y100720193D01*
X48988153Y100728796D01*
X48985681Y100737661D01*
X48983588Y100746790D01*
X48981877Y100756181D01*
X48980545Y100765834D01*
X48979594Y100775748D01*
X48979023Y100785924D01*
X48978833Y100796361D01*
X48979023Y100807075D01*
X48979594Y100817488D01*
X48980545Y100827601D01*
X48981877Y100837414D01*
X48983588Y100846927D01*
X48985681Y100856140D01*
X48988153Y100865054D01*
X48991006Y100873668D01*
X48994239Y100881983D01*
X48997852Y100889999D01*
X49001846Y100897717D01*
X49006220Y100905135D01*
X49010974Y100912256D01*
X49016108Y100919078D01*
X49021622Y100925602D01*
X49027517Y100931829D01*
X49033999Y100937980D01*
X49040746Y100943734D01*
X49047757Y100949092D01*
X49055033Y100954052D01*
X49062573Y100958616D01*
X49070378Y100962783D01*
X49078448Y100966553D01*
X49086782Y100969926D01*
X49095380Y100972903D01*
X49104244Y100975482D01*
X49113372Y100977665D01*
X49122765Y100979451D01*
X49132422Y100980839D01*
X49142344Y100981832D01*
X49152531Y100982427D01*
X49162983Y100982625D01*
X49173690Y100982427D01*
G37*
G36*
X54716720Y87010982D02*
G01*
X54726641Y87010412D01*
X54736299Y87009461D01*
X54745691Y87008129D01*
X54754820Y87006417D01*
X54763683Y87004325D01*
X54772282Y87001853D01*
X54780617Y86999000D01*
X54788686Y86995767D01*
X54796492Y86992153D01*
X54804032Y86988160D01*
X54811308Y86983786D01*
X54818320Y86979032D01*
X54825067Y86973897D01*
X54831549Y86968383D01*
X54837766Y86962488D01*
X54843662Y86956535D01*
X54849176Y86950316D01*
X54854311Y86943834D01*
X54859065Y86937086D01*
X54863439Y86930075D01*
X54867433Y86922798D01*
X54871046Y86915258D01*
X54874279Y86907452D01*
X54877131Y86899383D01*
X54879604Y86891048D01*
X54881695Y86882450D01*
X54883407Y86873586D01*
X54884738Y86864459D01*
X54885689Y86855066D01*
X54886260Y86845410D01*
X54886450Y86835489D01*
X54886260Y86825559D01*
X54885689Y86815878D01*
X54884738Y86806444D01*
X54883407Y86797258D01*
X54881695Y86788320D01*
X54879604Y86779630D01*
X54877131Y86771188D01*
X54874279Y86762994D01*
X54871046Y86755047D01*
X54867433Y86747349D01*
X54863439Y86739899D01*
X54859065Y86732698D01*
X54854311Y86725744D01*
X54849176Y86719038D01*
X54843662Y86712581D01*
X54837766Y86706372D01*
X54831549Y86700733D01*
X54825067Y86695457D01*
X54818320Y86690546D01*
X54811308Y86685998D01*
X54804032Y86681814D01*
X54796492Y86677994D01*
X54788686Y86674538D01*
X54780617Y86671446D01*
X54772282Y86668718D01*
X54763683Y86666354D01*
X54754820Y86664353D01*
X54745691Y86662716D01*
X54736299Y86661443D01*
X54726641Y86660534D01*
X54716720Y86659988D01*
X54706533Y86659806D01*
X54696867Y86659988D01*
X54687449Y86660534D01*
X54678279Y86661443D01*
X54669358Y86662716D01*
X54660685Y86664353D01*
X54652260Y86666354D01*
X54644083Y86668718D01*
X54636154Y86671446D01*
X54628473Y86674538D01*
X54621040Y86677994D01*
X54613856Y86681814D01*
X54606919Y86685998D01*
X54600230Y86690546D01*
X54593789Y86695457D01*
X54587595Y86700733D01*
X54581650Y86706372D01*
X54576010Y86712581D01*
X54570734Y86719038D01*
X54565823Y86725744D01*
X54561275Y86732698D01*
X54557091Y86739899D01*
X54553271Y86747349D01*
X54549815Y86755047D01*
X54546723Y86762994D01*
X54543995Y86771188D01*
X54541630Y86779630D01*
X54539630Y86788320D01*
X54537993Y86797258D01*
X54536720Y86806444D01*
X54535811Y86815878D01*
X54535265Y86825559D01*
X54535083Y86835489D01*
X54535265Y86845410D01*
X54535811Y86855066D01*
X54536720Y86864459D01*
X54537993Y86873586D01*
X54539630Y86882450D01*
X54541630Y86891048D01*
X54543995Y86899383D01*
X54546723Y86907452D01*
X54549815Y86915258D01*
X54553271Y86922798D01*
X54557091Y86930075D01*
X54561275Y86937086D01*
X54565823Y86943834D01*
X54570734Y86950316D01*
X54576010Y86956535D01*
X54581650Y86962488D01*
X54587595Y86968383D01*
X54593789Y86973897D01*
X54600230Y86979032D01*
X54606919Y86983786D01*
X54613856Y86988160D01*
X54621040Y86992153D01*
X54628473Y86995767D01*
X54636154Y86999000D01*
X54644083Y87001853D01*
X54652260Y87004325D01*
X54660685Y87006417D01*
X54669358Y87008129D01*
X54678279Y87009461D01*
X54687449Y87010412D01*
X54696867Y87010982D01*
X54706533Y87011173D01*
X54716720Y87010982D01*
G37*
G36*
X55342236Y85693170D02*
G01*
X55349107Y85692748D01*
X55355796Y85692046D01*
X55362303Y85691062D01*
X55368628Y85689798D01*
X55374771Y85688252D01*
X55380733Y85686425D01*
X55386512Y85684317D01*
X55392110Y85681928D01*
X55397525Y85679258D01*
X55402759Y85676306D01*
X55407811Y85673073D01*
X55412681Y85669558D01*
X55417369Y85665762D01*
X55421875Y85661685D01*
X55426200Y85657326D01*
X55430557Y85653003D01*
X55434633Y85648498D01*
X55438428Y85643811D01*
X55441942Y85638941D01*
X55445175Y85633890D01*
X55448127Y85628656D01*
X55450797Y85623240D01*
X55453187Y85617642D01*
X55455295Y85611862D01*
X55457123Y85605900D01*
X55458669Y85599756D01*
X55459934Y85593431D01*
X55460918Y85586923D01*
X55461621Y85580234D01*
X55462042Y85573363D01*
X55462183Y85566310D01*
X55462042Y85559249D01*
X55461621Y85552354D01*
X55460918Y85545624D01*
X55459934Y85539059D01*
X55458669Y85532660D01*
X55457123Y85526426D01*
X55455295Y85520358D01*
X55453187Y85514455D01*
X55450797Y85508717D01*
X55448127Y85503144D01*
X55445175Y85497737D01*
X55441942Y85492494D01*
X55438428Y85487417D01*
X55434633Y85482505D01*
X55430557Y85477758D01*
X55426200Y85473176D01*
X55421875Y85469077D01*
X55417369Y85465241D01*
X55412681Y85461670D01*
X55407811Y85458364D01*
X55402759Y85455321D01*
X55397525Y85452543D01*
X55392110Y85450029D01*
X55386512Y85447780D01*
X55380733Y85445795D01*
X55374771Y85444075D01*
X55368628Y85442619D01*
X55362303Y85441428D01*
X55355796Y85440502D01*
X55349107Y85439840D01*
X55342236Y85439443D01*
X55335183Y85439310D01*
X55327866Y85439443D01*
X55320730Y85439840D01*
X55313776Y85440502D01*
X55307005Y85441428D01*
X55300415Y85442619D01*
X55294007Y85444075D01*
X55287781Y85445795D01*
X55281737Y85447780D01*
X55275875Y85450029D01*
X55270194Y85452543D01*
X55264696Y85455321D01*
X55259380Y85458364D01*
X55254245Y85461670D01*
X55249293Y85465241D01*
X55244522Y85469077D01*
X55239933Y85473176D01*
X55235576Y85477758D01*
X55231500Y85482505D01*
X55227704Y85487417D01*
X55224191Y85492494D01*
X55220958Y85497737D01*
X55218006Y85503144D01*
X55215335Y85508717D01*
X55212946Y85514455D01*
X55210837Y85520358D01*
X55209010Y85526426D01*
X55207464Y85532660D01*
X55206199Y85539059D01*
X55205215Y85545624D01*
X55204512Y85552354D01*
X55204090Y85559249D01*
X55203950Y85566310D01*
X55204090Y85573363D01*
X55204512Y85580234D01*
X55205215Y85586923D01*
X55206199Y85593431D01*
X55207464Y85599756D01*
X55209010Y85605900D01*
X55210837Y85611862D01*
X55212946Y85617642D01*
X55215335Y85623240D01*
X55218006Y85628656D01*
X55220958Y85633890D01*
X55224191Y85638941D01*
X55227704Y85643811D01*
X55231500Y85648498D01*
X55235576Y85653003D01*
X55239933Y85657326D01*
X55244522Y85661685D01*
X55249293Y85665762D01*
X55254245Y85669558D01*
X55259380Y85673073D01*
X55264696Y85676306D01*
X55270194Y85679258D01*
X55275875Y85681928D01*
X55281737Y85684317D01*
X55287781Y85686425D01*
X55294007Y85688252D01*
X55300415Y85689798D01*
X55307005Y85691062D01*
X55313776Y85692046D01*
X55320730Y85692748D01*
X55327866Y85693170D01*
X55335183Y85693310D01*
X55342236Y85693170D01*
G37*
G36*
X55338300Y92407052D02*
G01*
X55361939Y92405763D01*
X55384933Y92403616D01*
X55407282Y92400609D01*
X55428986Y92396742D01*
X55450045Y92392015D01*
X55470460Y92386429D01*
X55490229Y92379982D01*
X55509353Y92372675D01*
X55527833Y92364507D01*
X55545667Y92355478D01*
X55562857Y92345588D01*
X55579402Y92334838D01*
X55595302Y92323225D01*
X55610556Y92310752D01*
X55625166Y92297416D01*
X55639264Y92283624D01*
X55652452Y92269238D01*
X55664730Y92254256D01*
X55676099Y92238678D01*
X55686558Y92222505D01*
X55696108Y92205737D01*
X55704748Y92188374D01*
X55712479Y92170415D01*
X55719300Y92151861D01*
X55725212Y92132712D01*
X55730214Y92112967D01*
X55734307Y92092628D01*
X55737490Y92071692D01*
X55739764Y92050162D01*
X55741128Y92028036D01*
X55741583Y92005315D01*
X55741203Y91985505D01*
X55740062Y91966309D01*
X55738160Y91947727D01*
X55735498Y91929758D01*
X55732075Y91912402D01*
X55727891Y91895659D01*
X55722947Y91879529D01*
X55717242Y91864011D01*
X55710776Y91849105D01*
X55703549Y91834812D01*
X55695562Y91821131D01*
X55686814Y91808062D01*
X55677306Y91795604D01*
X55667037Y91783757D01*
X55656007Y91772522D01*
X55644216Y91761898D01*
X55631946Y91752166D01*
X55618949Y91743059D01*
X55605223Y91734580D01*
X55590770Y91726727D01*
X55575590Y91719502D01*
X55559682Y91712904D01*
X55543046Y91706933D01*
X55525683Y91701590D01*
X55513439Y91698399D01*
X55720416Y91698399D01*
X55720416Y91512131D01*
X54556250Y91512131D01*
X54556250Y91702631D01*
X55297083Y91702631D01*
X55313777Y91702896D01*
X55329991Y91703691D01*
X55345725Y91705016D01*
X55360980Y91706871D01*
X55375756Y91709255D01*
X55390051Y91712168D01*
X55403868Y91715610D01*
X55417204Y91719581D01*
X55430061Y91724081D01*
X55442439Y91729109D01*
X55454337Y91734666D01*
X55465755Y91740750D01*
X55476694Y91747362D01*
X55487153Y91754503D01*
X55497133Y91762170D01*
X55506633Y91770365D01*
X55515604Y91779295D01*
X55523996Y91788621D01*
X55531810Y91798344D01*
X55539044Y91808465D01*
X55545700Y91818982D01*
X55551777Y91829896D01*
X55557276Y91841207D01*
X55562195Y91852915D01*
X55566536Y91865019D01*
X55570298Y91877521D01*
X55573482Y91890420D01*
X55576086Y91903715D01*
X55578112Y91917407D01*
X55579559Y91931496D01*
X55580427Y91945982D01*
X55580716Y91960865D01*
X55580427Y91975995D01*
X55579559Y91990675D01*
X55578112Y92004906D01*
X55576086Y92018689D01*
X55573482Y92032024D01*
X55570298Y92044911D01*
X55566536Y92057351D01*
X55562195Y92069344D01*
X55557276Y92080891D01*
X55551777Y92091991D01*
X55545700Y92102646D01*
X55539044Y92112856D01*
X55531810Y92122620D01*
X55523996Y92131940D01*
X55515604Y92140816D01*
X55506633Y92149248D01*
X55497381Y92157443D01*
X55487616Y92165111D01*
X55477338Y92172251D01*
X55466548Y92178863D01*
X55455246Y92184948D01*
X55443430Y92190504D01*
X55431102Y92195532D01*
X55418262Y92200032D01*
X55404909Y92204003D01*
X55391043Y92207445D01*
X55376664Y92210358D01*
X55361773Y92212742D01*
X55346370Y92214596D01*
X55330453Y92215921D01*
X55314025Y92216716D01*
X55297083Y92216981D01*
X55244166Y92216981D01*
X55244166Y92407481D01*
X55314016Y92407481D01*
X55338300Y92407052D01*
G37*
G36*
X49778329Y92430335D02*
G01*
X49802447Y92429046D01*
X49825887Y92426899D01*
X49848649Y92423892D01*
X49870734Y92420025D01*
X49892140Y92415298D01*
X49912869Y92409712D01*
X49932919Y92403265D01*
X49952292Y92395957D01*
X49970987Y92387790D01*
X49989004Y92378761D01*
X50006342Y92368871D01*
X50023003Y92358121D01*
X50038986Y92346508D01*
X50054290Y92334035D01*
X50068917Y92320699D01*
X50083015Y92306900D01*
X50096203Y92292489D01*
X50108482Y92277468D01*
X50119851Y92261835D01*
X50130310Y92245590D01*
X50139860Y92228734D01*
X50148500Y92211266D01*
X50156231Y92193185D01*
X50163052Y92174493D01*
X50168963Y92155187D01*
X50173965Y92135269D01*
X50178058Y92114738D01*
X50181241Y92093594D01*
X50183515Y92071837D01*
X50184879Y92049466D01*
X50185333Y92026481D01*
X50184953Y92006429D01*
X50183812Y91987005D01*
X50181911Y91968206D01*
X50179249Y91950035D01*
X50175826Y91932491D01*
X50171642Y91915574D01*
X50166698Y91899285D01*
X50160993Y91883623D01*
X50154528Y91868589D01*
X50147301Y91854183D01*
X50139314Y91840406D01*
X50130566Y91827257D01*
X50121058Y91814736D01*
X50110788Y91802845D01*
X50099758Y91791582D01*
X50087967Y91780949D01*
X50075696Y91770953D01*
X50062699Y91761601D01*
X50048973Y91752895D01*
X50034520Y91744833D01*
X50019339Y91737416D01*
X50003431Y91730645D01*
X49986795Y91724518D01*
X49969432Y91719036D01*
X49951341Y91714199D01*
X49946922Y91713215D01*
X50164167Y91713215D01*
X50164167Y91493081D01*
X49000000Y91493081D01*
X49000000Y91721682D01*
X49734484Y91721682D01*
X49749615Y91721922D01*
X49764317Y91722643D01*
X49778588Y91723844D01*
X49792430Y91725524D01*
X49805841Y91727685D01*
X49818822Y91730325D01*
X49831374Y91733445D01*
X49843495Y91737044D01*
X49855186Y91741122D01*
X49866447Y91745679D01*
X49877278Y91750714D01*
X49887680Y91756228D01*
X49897651Y91762221D01*
X49907192Y91768691D01*
X49916303Y91775639D01*
X49924984Y91783065D01*
X49933185Y91791193D01*
X49940857Y91799703D01*
X49948001Y91808593D01*
X49954615Y91817864D01*
X49960700Y91827516D01*
X49966257Y91837548D01*
X49971284Y91847960D01*
X49975782Y91858753D01*
X49979751Y91869925D01*
X49983191Y91881477D01*
X49986101Y91893408D01*
X49988483Y91905718D01*
X49990335Y91918408D01*
X49991658Y91931476D01*
X49992452Y91944923D01*
X49992717Y91958749D01*
X49992452Y91972567D01*
X49991658Y91985990D01*
X49990335Y91999019D01*
X49988483Y92011653D01*
X49986101Y92023892D01*
X49983191Y92035734D01*
X49979751Y92047181D01*
X49975782Y92058232D01*
X49971284Y92068885D01*
X49966257Y92079141D01*
X49960700Y92089000D01*
X49954615Y92098461D01*
X49948001Y92107523D01*
X49940857Y92116186D01*
X49933185Y92124450D01*
X49924984Y92132315D01*
X49916549Y92140004D01*
X49907652Y92147198D01*
X49898292Y92153895D01*
X49888469Y92160096D01*
X49878183Y92165801D01*
X49867434Y92171010D01*
X49856222Y92175723D01*
X49844547Y92179940D01*
X49832409Y92183661D01*
X49819809Y92186886D01*
X49806745Y92189614D01*
X49793219Y92191847D01*
X49779229Y92193583D01*
X49764777Y92194823D01*
X49749862Y92195567D01*
X49734484Y92195815D01*
X49675217Y92195815D01*
X49675217Y92430764D01*
X49753533Y92430764D01*
X49778329Y92430335D01*
G37*
G36*
X49778329Y78469424D02*
G01*
X49802447Y78468134D01*
X49825887Y78465985D01*
X49848649Y78462976D01*
X49870734Y78459106D01*
X49892140Y78454377D01*
X49912869Y78448788D01*
X49932919Y78442339D01*
X49952292Y78435030D01*
X49970987Y78426861D01*
X49989004Y78417832D01*
X50006342Y78407944D01*
X50023003Y78397195D01*
X50038986Y78385586D01*
X50054290Y78373117D01*
X50068917Y78359787D01*
X50083015Y78345988D01*
X50096203Y78331576D01*
X50108482Y78316553D01*
X50119851Y78300918D01*
X50130310Y78284671D01*
X50139860Y78267813D01*
X50148500Y78250342D01*
X50156231Y78232260D01*
X50163052Y78213566D01*
X50168963Y78194259D01*
X50173965Y78174341D01*
X50178058Y78153811D01*
X50181241Y78132669D01*
X50183515Y78110915D01*
X50184879Y78088549D01*
X50185333Y78065571D01*
X50184953Y78045513D01*
X50183812Y78026083D01*
X50181911Y78007281D01*
X50179249Y77989108D01*
X50175826Y77971563D01*
X50171642Y77954646D01*
X50166698Y77938358D01*
X50160993Y77922698D01*
X50154528Y77907666D01*
X50147301Y77893262D01*
X50139314Y77879487D01*
X50130566Y77866340D01*
X50121058Y77853822D01*
X50110788Y77841932D01*
X50099758Y77830670D01*
X50087967Y77820037D01*
X50075696Y77810041D01*
X50062699Y77800690D01*
X50048973Y77791983D01*
X50034520Y77783922D01*
X50019339Y77776505D01*
X50003431Y77769734D01*
X49986795Y77763607D01*
X49969432Y77758125D01*
X49951341Y77753288D01*
X49946924Y77752304D01*
X50164167Y77752304D01*
X50164167Y77532177D01*
X49000000Y77532177D01*
X49000000Y77760771D01*
X49734484Y77760771D01*
X49749615Y77761011D01*
X49764317Y77761730D01*
X49778588Y77762929D01*
X49792430Y77764608D01*
X49805841Y77766766D01*
X49818822Y77769404D01*
X49831374Y77772521D01*
X49843495Y77776118D01*
X49855186Y77780195D01*
X49866447Y77784751D01*
X49877278Y77789786D01*
X49887680Y77795301D01*
X49897651Y77801295D01*
X49907192Y77807769D01*
X49916303Y77814722D01*
X49924984Y77822154D01*
X49933185Y77830282D01*
X49940857Y77838790D01*
X49948001Y77847679D01*
X49954615Y77856947D01*
X49960700Y77866597D01*
X49966257Y77876626D01*
X49971284Y77887036D01*
X49975782Y77897827D01*
X49979751Y77908997D01*
X49983191Y77920548D01*
X49986101Y77932479D01*
X49988483Y77944790D01*
X49990335Y77957482D01*
X49991658Y77970554D01*
X49992452Y77984005D01*
X49992717Y77997837D01*
X49992452Y78011663D01*
X49991658Y78025092D01*
X49990335Y78038124D01*
X49988483Y78050758D01*
X49986101Y78062996D01*
X49983191Y78074836D01*
X49979751Y78086279D01*
X49975782Y78097326D01*
X49971284Y78107975D01*
X49966257Y78118227D01*
X49960700Y78128082D01*
X49954615Y78137541D01*
X49948001Y78146602D01*
X49940857Y78155266D01*
X49933185Y78163534D01*
X49924984Y78171404D01*
X49916549Y78179094D01*
X49907652Y78186287D01*
X49898292Y78192984D01*
X49888469Y78199185D01*
X49878183Y78204890D01*
X49867434Y78210099D01*
X49856222Y78214812D01*
X49844547Y78219029D01*
X49832409Y78222750D01*
X49819809Y78225974D01*
X49806745Y78228703D01*
X49793219Y78230935D01*
X49779229Y78232672D01*
X49764777Y78233912D01*
X49749862Y78234656D01*
X49734484Y78234904D01*
X49675217Y78234904D01*
X49675217Y78469854D01*
X49753533Y78469854D01*
X49778329Y78469424D01*
G37*
G36*
X49797941Y94911490D02*
G01*
X49820571Y94910276D01*
X49842588Y94908252D01*
X49863994Y94905419D01*
X49884789Y94901775D01*
X49904971Y94897321D01*
X49924542Y94892057D01*
X49943501Y94885982D01*
X49961848Y94879097D01*
X49979584Y94871400D01*
X49996707Y94862892D01*
X50013219Y94853573D01*
X50029120Y94843442D01*
X50044408Y94832500D01*
X50059085Y94820746D01*
X50073150Y94808179D01*
X50086734Y94794956D01*
X50099442Y94781185D01*
X50111273Y94766866D01*
X50122228Y94751998D01*
X50132307Y94736582D01*
X50141510Y94720618D01*
X50149836Y94704107D01*
X50157286Y94687048D01*
X50163859Y94669442D01*
X50169556Y94651290D01*
X50174377Y94632590D01*
X50178321Y94613343D01*
X50181389Y94593550D01*
X50183580Y94573211D01*
X50184895Y94552326D01*
X50185333Y94530894D01*
X50185027Y94512886D01*
X50184110Y94495374D01*
X50182580Y94478358D01*
X50180439Y94461838D01*
X50177686Y94445815D01*
X50174321Y94430287D01*
X50170344Y94415255D01*
X50165756Y94400720D01*
X50160555Y94386680D01*
X50154743Y94373137D01*
X50148318Y94360090D01*
X50141282Y94347538D01*
X50133634Y94335483D01*
X50125373Y94323924D01*
X50116501Y94312862D01*
X50107017Y94302295D01*
X50096987Y94292299D01*
X50086477Y94282948D01*
X50075488Y94274241D01*
X50064020Y94266180D01*
X50052072Y94258763D01*
X50039645Y94251992D01*
X50026739Y94245865D01*
X50013353Y94240384D01*
X49999487Y94235547D01*
X49985142Y94231355D01*
X49970317Y94227808D01*
X49955013Y94224906D01*
X49941917Y94223033D01*
X49941917Y94219747D01*
X50164167Y94219747D01*
X50164167Y93993263D01*
X49000000Y93993263D01*
X49000000Y94221862D01*
X49734484Y94221862D01*
X49749599Y94222102D01*
X49764250Y94222823D01*
X49778439Y94224024D01*
X49792164Y94225705D01*
X49805427Y94227865D01*
X49818226Y94230505D01*
X49830562Y94233625D01*
X49842435Y94237224D01*
X49853845Y94241302D01*
X49864792Y94245859D01*
X49875275Y94250895D01*
X49885296Y94256409D01*
X49894854Y94262401D01*
X49903949Y94268872D01*
X49912581Y94275820D01*
X49920750Y94283246D01*
X49928696Y94291357D01*
X49936130Y94299815D01*
X49943051Y94308621D01*
X49949459Y94317773D01*
X49955354Y94327273D01*
X49960737Y94337121D01*
X49965607Y94347315D01*
X49969964Y94357857D01*
X49973809Y94368746D01*
X49977141Y94379983D01*
X49979960Y94391566D01*
X49982266Y94403497D01*
X49984060Y94415776D01*
X49985342Y94428401D01*
X49986111Y94441374D01*
X49986367Y94454694D01*
X49986127Y94467765D01*
X49985408Y94480486D01*
X49984208Y94492856D01*
X49982530Y94504877D01*
X49980371Y94516548D01*
X49977734Y94527870D01*
X49974616Y94538842D01*
X49971019Y94549466D01*
X49966943Y94559740D01*
X49962387Y94569666D01*
X49957352Y94579243D01*
X49951837Y94588473D01*
X49945843Y94597354D01*
X49939369Y94605887D01*
X49932416Y94614073D01*
X49924984Y94621911D01*
X49917105Y94629359D01*
X49908812Y94636323D01*
X49900106Y94642805D01*
X49890986Y94648804D01*
X49881453Y94654320D01*
X49871507Y94659356D01*
X49861146Y94663909D01*
X49850373Y94667982D01*
X49839185Y94671574D01*
X49827585Y94674686D01*
X49815571Y94677318D01*
X49803143Y94679471D01*
X49790303Y94681145D01*
X49777048Y94682340D01*
X49763381Y94683057D01*
X49749300Y94683295D01*
X49000000Y94683295D01*
X49000000Y94911895D01*
X49774700Y94911895D01*
X49797941Y94911490D01*
G37*
G36*
X55720416Y80743617D02*
G01*
X54979583Y80743617D01*
X54963402Y80743344D01*
X54947668Y80742526D01*
X54932380Y80741162D01*
X54917538Y80739252D01*
X54903143Y80736796D01*
X54889195Y80733794D01*
X54875693Y80730247D01*
X54862637Y80726155D01*
X54850028Y80721516D01*
X54837866Y80716332D01*
X54826149Y80710602D01*
X54814880Y80704326D01*
X54804057Y80697505D01*
X54793680Y80690138D01*
X54783750Y80682226D01*
X54774266Y80673767D01*
X54765551Y80665103D01*
X54757398Y80656042D01*
X54749807Y80646584D01*
X54742779Y80636729D01*
X54736313Y80626477D01*
X54730410Y80615828D01*
X54725069Y80604782D01*
X54720290Y80593339D01*
X54716073Y80581499D01*
X54712419Y80569262D01*
X54709327Y80556628D01*
X54706797Y80543596D01*
X54704829Y80530168D01*
X54703424Y80516343D01*
X54702581Y80502120D01*
X54702300Y80487500D01*
X54702581Y80473140D01*
X54703424Y80459160D01*
X54704829Y80445560D01*
X54706797Y80432340D01*
X54709327Y80419500D01*
X54712419Y80407040D01*
X54716073Y80394961D01*
X54720290Y80383261D01*
X54725069Y80371942D01*
X54730410Y80361003D01*
X54736313Y80350444D01*
X54742779Y80340265D01*
X54749807Y80330466D01*
X54757398Y80321047D01*
X54765551Y80312009D01*
X54774266Y80303350D01*
X54783750Y80295149D01*
X54793680Y80287477D01*
X54804057Y80280333D01*
X54814880Y80273719D01*
X54826149Y80267634D01*
X54837866Y80262077D01*
X54850028Y80257050D01*
X54862637Y80252552D01*
X54875693Y80248583D01*
X54889195Y80245143D01*
X54903143Y80242232D01*
X54917538Y80239851D01*
X54932380Y80237999D01*
X54947668Y80236675D01*
X54963402Y80235882D01*
X54979583Y80235617D01*
X55720416Y80235617D01*
X55720416Y80045117D01*
X54979583Y80045117D01*
X54954249Y80045588D01*
X54929577Y80047002D01*
X54905566Y80049359D01*
X54882216Y80052658D01*
X54859528Y80056899D01*
X54837502Y80062084D01*
X54816136Y80068210D01*
X54795433Y80075280D01*
X54775391Y80083292D01*
X54756010Y80092246D01*
X54737291Y80102143D01*
X54719233Y80112983D01*
X54701837Y80124765D01*
X54685102Y80137490D01*
X54669028Y80151157D01*
X54653616Y80165767D01*
X54639263Y80181163D01*
X54625836Y80197187D01*
X54613335Y80213839D01*
X54601760Y80231120D01*
X54591111Y80249029D01*
X54581387Y80267567D01*
X54572590Y80286733D01*
X54564718Y80306527D01*
X54557773Y80326950D01*
X54551753Y80348001D01*
X54546660Y80369680D01*
X54542492Y80391988D01*
X54539251Y80414923D01*
X54536935Y80438488D01*
X54535546Y80462680D01*
X54535083Y80487500D01*
X54535546Y80512331D01*
X54536935Y80536550D01*
X54539251Y80560157D01*
X54542492Y80583152D01*
X54546660Y80605535D01*
X54551753Y80627306D01*
X54557773Y80648464D01*
X54564718Y80669011D01*
X54572590Y80688946D01*
X54581387Y80708268D01*
X54591111Y80726979D01*
X54601760Y80745077D01*
X54613335Y80762564D01*
X54625836Y80779438D01*
X54639263Y80795700D01*
X54653616Y80811351D01*
X54669028Y80826218D01*
X54685102Y80840125D01*
X54701837Y80853074D01*
X54719233Y80865063D01*
X54737291Y80876093D01*
X54756010Y80886163D01*
X54775391Y80895275D01*
X54795433Y80903427D01*
X54816136Y80910620D01*
X54837502Y80916854D01*
X54859528Y80922129D01*
X54882216Y80926445D01*
X54905566Y80929801D01*
X54929577Y80932199D01*
X54954249Y80933638D01*
X54979583Y80934117D01*
X55720416Y80934117D01*
X55720416Y80743617D01*
G37*
G36*
X55720416Y78205271D02*
G01*
X54979583Y78205271D01*
X54963402Y78204998D01*
X54947668Y78204179D01*
X54932380Y78202815D01*
X54917538Y78200905D01*
X54903143Y78198449D01*
X54889195Y78195448D01*
X54875693Y78191901D01*
X54862637Y78187808D01*
X54850028Y78183170D01*
X54837866Y78177986D01*
X54826149Y78172256D01*
X54814880Y78165980D01*
X54804057Y78159159D01*
X54793680Y78151792D01*
X54783750Y78143879D01*
X54774266Y78135421D01*
X54765551Y78126757D01*
X54757398Y78117695D01*
X54749807Y78108237D01*
X54742779Y78098382D01*
X54736313Y78088130D01*
X54730410Y78077481D01*
X54725069Y78066435D01*
X54720290Y78054992D01*
X54716073Y78043152D01*
X54712419Y78030915D01*
X54709327Y78018281D01*
X54706797Y78005250D01*
X54704829Y77991822D01*
X54703424Y77977996D01*
X54702581Y77963774D01*
X54702300Y77949154D01*
X54702581Y77934794D01*
X54703424Y77920814D01*
X54704829Y77907213D01*
X54706797Y77893993D01*
X54709327Y77881154D01*
X54712419Y77868694D01*
X54716073Y77856614D01*
X54720290Y77844915D01*
X54725069Y77833596D01*
X54730410Y77822656D01*
X54736313Y77812097D01*
X54742779Y77801918D01*
X54749807Y77792120D01*
X54757398Y77782701D01*
X54765551Y77773663D01*
X54774266Y77765004D01*
X54783750Y77756803D01*
X54793680Y77749130D01*
X54804057Y77741987D01*
X54814880Y77735373D01*
X54826149Y77729287D01*
X54837866Y77723731D01*
X54850028Y77718704D01*
X54862637Y77714206D01*
X54875693Y77710237D01*
X54889195Y77706797D01*
X54903143Y77703886D01*
X54917538Y77701505D01*
X54932380Y77699652D01*
X54947668Y77698329D01*
X54963402Y77697535D01*
X54979583Y77697271D01*
X55720416Y77697271D01*
X55720416Y77506777D01*
X54979583Y77506777D01*
X54954249Y77507249D01*
X54929577Y77508663D01*
X54905566Y77511019D01*
X54882216Y77514318D01*
X54859528Y77518559D01*
X54837502Y77523743D01*
X54816136Y77529870D01*
X54795433Y77536939D01*
X54775391Y77544951D01*
X54756010Y77553905D01*
X54737291Y77563801D01*
X54719233Y77574640D01*
X54701837Y77586422D01*
X54685102Y77599146D01*
X54669028Y77612812D01*
X54653616Y77627421D01*
X54639263Y77642816D01*
X54625836Y77658840D01*
X54613335Y77675493D01*
X54601760Y77692774D01*
X54591111Y77710683D01*
X54581387Y77729220D01*
X54572590Y77748386D01*
X54564718Y77768181D01*
X54557773Y77788604D01*
X54551753Y77809655D01*
X54546660Y77831334D01*
X54542492Y77853641D01*
X54539251Y77876577D01*
X54536935Y77900141D01*
X54535546Y77924334D01*
X54535083Y77949154D01*
X54535546Y77973985D01*
X54536935Y77998204D01*
X54539251Y78021811D01*
X54542492Y78044806D01*
X54546660Y78067189D01*
X54551753Y78088960D01*
X54557773Y78110118D01*
X54564718Y78130665D01*
X54572590Y78150600D01*
X54581387Y78169922D01*
X54591111Y78188633D01*
X54601760Y78206731D01*
X54613335Y78224217D01*
X54625836Y78241092D01*
X54639263Y78257354D01*
X54653616Y78273004D01*
X54669028Y78287871D01*
X54685102Y78301779D01*
X54701837Y78314727D01*
X54719233Y78326716D01*
X54737291Y78337746D01*
X54756010Y78347817D01*
X54775391Y78356928D01*
X54795433Y78365081D01*
X54816136Y78372274D01*
X54837502Y78378508D01*
X54859528Y78383783D01*
X54882216Y78388098D01*
X54905566Y78391455D01*
X54929577Y78393853D01*
X54954249Y78395291D01*
X54979583Y78395771D01*
X55720416Y78395771D01*
X55720416Y78205271D01*
G37*
G36*
X55362394Y77126199D02*
G01*
X55384759Y77124984D01*
X55406513Y77122958D01*
X55427655Y77120122D01*
X55448185Y77116476D01*
X55468103Y77112019D01*
X55487410Y77106752D01*
X55506104Y77100675D01*
X55524187Y77093788D01*
X55541657Y77086090D01*
X55558516Y77077582D01*
X55574763Y77068264D01*
X55590398Y77058135D01*
X55605422Y77047196D01*
X55619833Y77035447D01*
X55633633Y77022888D01*
X55646705Y77009642D01*
X55658934Y76995834D01*
X55670319Y76981464D01*
X55680861Y76966531D01*
X55690560Y76951036D01*
X55699415Y76934980D01*
X55707427Y76918360D01*
X55714596Y76901179D01*
X55720921Y76883435D01*
X55726403Y76865130D01*
X55731041Y76846261D01*
X55734836Y76826831D01*
X55737788Y76806839D01*
X55739896Y76786284D01*
X55741161Y76765167D01*
X55741583Y76743488D01*
X55741285Y76725479D01*
X55740392Y76707967D01*
X55738904Y76690951D01*
X55736821Y76674431D01*
X55734142Y76658408D01*
X55730867Y76642880D01*
X55726998Y76627848D01*
X55722533Y76613313D01*
X55717473Y76599273D01*
X55711817Y76585730D01*
X55705567Y76572683D01*
X55698721Y76560131D01*
X55691279Y76548076D01*
X55683242Y76536517D01*
X55674610Y76525454D01*
X55665383Y76514888D01*
X55655875Y76504891D01*
X55645870Y76495540D01*
X55635369Y76486834D01*
X55624373Y76478772D01*
X55612880Y76471355D01*
X55600891Y76464584D01*
X55588406Y76458457D01*
X55575425Y76452975D01*
X55561947Y76448138D01*
X55547974Y76443946D01*
X55533505Y76440399D01*
X55518539Y76437497D01*
X55503078Y76435240D01*
X55498166Y76434744D01*
X55498166Y76432338D01*
X55720416Y76432338D01*
X55720416Y76241838D01*
X54556250Y76241838D01*
X54556250Y76432338D01*
X55297083Y76432338D01*
X55313768Y76432602D01*
X55329958Y76433396D01*
X55345651Y76434719D01*
X55360848Y76436571D01*
X55375549Y76438952D01*
X55389753Y76441863D01*
X55403462Y76445302D01*
X55416675Y76449271D01*
X55429391Y76453769D01*
X55441612Y76458796D01*
X55453336Y76464352D01*
X55464564Y76470438D01*
X55475296Y76477052D01*
X55485532Y76484196D01*
X55495272Y76491869D01*
X55504516Y76500071D01*
X55513231Y76508992D01*
X55521384Y76518294D01*
X55528974Y76527976D01*
X55536002Y76538039D01*
X55542468Y76548482D01*
X55548371Y76559305D01*
X55553713Y76570508D01*
X55558492Y76582092D01*
X55562708Y76594056D01*
X55566363Y76606401D01*
X55569455Y76619125D01*
X55571985Y76632231D01*
X55573953Y76645716D01*
X55575359Y76659582D01*
X55576202Y76673828D01*
X55576483Y76688454D01*
X55576218Y76702552D01*
X55575425Y76716269D01*
X55574102Y76729605D01*
X55572250Y76742562D01*
X55569868Y76755137D01*
X55566958Y76767333D01*
X55563518Y76779148D01*
X55559550Y76790583D01*
X55555052Y76801638D01*
X55550025Y76812312D01*
X55544468Y76822606D01*
X55538383Y76832520D01*
X55531768Y76842053D01*
X55524625Y76851206D01*
X55516952Y76859979D01*
X55508750Y76868371D01*
X55500316Y76876573D01*
X55491419Y76884246D01*
X55482060Y76891390D01*
X55472237Y76898004D01*
X55461951Y76904090D01*
X55451203Y76909646D01*
X55439991Y76914673D01*
X55428316Y76919171D01*
X55416178Y76923140D01*
X55403578Y76926579D01*
X55390514Y76929490D01*
X55376987Y76931871D01*
X55362997Y76933723D01*
X55348544Y76935046D01*
X55333629Y76935840D01*
X55318250Y76936104D01*
X54556250Y76936104D01*
X54556250Y77126604D01*
X55339416Y77126604D01*
X55362394Y77126199D01*
G37*
G36*
X54729816Y87878172D02*
G01*
X55123516Y88259173D01*
X55164229Y88297471D01*
X55203817Y88332991D01*
X55242281Y88365733D01*
X55279620Y88395698D01*
X55297868Y88409638D01*
X55315835Y88422884D01*
X55333521Y88435435D01*
X55350926Y88447291D01*
X55368049Y88458453D01*
X55384892Y88468921D01*
X55401453Y88478694D01*
X55417733Y88487772D01*
X55433881Y88496231D01*
X55450045Y88504143D01*
X55466226Y88511510D01*
X55482424Y88518332D01*
X55498638Y88524607D01*
X55514869Y88530337D01*
X55531116Y88535521D01*
X55547379Y88540160D01*
X55563659Y88544253D01*
X55579956Y88547800D01*
X55596269Y88550801D01*
X55612599Y88553257D01*
X55628945Y88555167D01*
X55645308Y88556531D01*
X55661687Y88557349D01*
X55678083Y88557622D01*
X55695132Y88557407D01*
X55711883Y88556763D01*
X55728337Y88555688D01*
X55744493Y88554184D01*
X55760352Y88552250D01*
X55775913Y88549885D01*
X55791176Y88547091D01*
X55806141Y88543867D01*
X55820809Y88540213D01*
X55835179Y88536129D01*
X55849252Y88531614D01*
X55863027Y88526670D01*
X55876504Y88521295D01*
X55889684Y88515490D01*
X55902566Y88509254D01*
X55915150Y88502588D01*
X55927403Y88495520D01*
X55939293Y88488071D01*
X55950819Y88480242D01*
X55961981Y88472032D01*
X55972779Y88463442D01*
X55983214Y88454471D01*
X55993284Y88445120D01*
X56002991Y88435388D01*
X56012334Y88425276D01*
X56021314Y88414783D01*
X56029929Y88403911D01*
X56038181Y88392657D01*
X56046069Y88381023D01*
X56053593Y88369009D01*
X56060753Y88356614D01*
X56067550Y88343839D01*
X56074214Y88330990D01*
X56080448Y88317844D01*
X56086253Y88304400D01*
X56091627Y88290658D01*
X56096571Y88276618D01*
X56101086Y88262281D01*
X56105170Y88247647D01*
X56108825Y88232714D01*
X56112049Y88217484D01*
X56114844Y88201956D01*
X56117209Y88186131D01*
X56119143Y88170008D01*
X56120648Y88153587D01*
X56121723Y88136869D01*
X56122368Y88119853D01*
X56122583Y88102539D01*
X56122368Y88084946D01*
X56121723Y88067616D01*
X56120648Y88050551D01*
X56119143Y88033751D01*
X56117209Y88017215D01*
X56114844Y88000943D01*
X56112049Y87984935D01*
X56108825Y87969192D01*
X56105170Y87953714D01*
X56101086Y87938500D01*
X56096571Y87923550D01*
X56091627Y87908865D01*
X56086253Y87894445D01*
X56080448Y87880290D01*
X56074214Y87866399D01*
X56067550Y87852773D01*
X56060480Y87839718D01*
X56053031Y87827011D01*
X56045201Y87814650D01*
X56036990Y87802637D01*
X56028400Y87790971D01*
X56019429Y87779652D01*
X56010077Y87768681D01*
X56000346Y87758056D01*
X55990234Y87747779D01*
X55979741Y87737849D01*
X55968869Y87728266D01*
X55957615Y87719030D01*
X55945982Y87710141D01*
X55933968Y87701599D01*
X55921574Y87693404D01*
X55908800Y87685556D01*
X55895951Y87678364D01*
X55882804Y87671602D01*
X55869360Y87665269D01*
X55855618Y87659367D01*
X55841579Y87653894D01*
X55827242Y87648851D01*
X55812607Y87644237D01*
X55797675Y87640054D01*
X55782445Y87636300D01*
X55766917Y87632976D01*
X55751091Y87630081D01*
X55734968Y87627617D01*
X55718548Y87625582D01*
X55701829Y87623976D01*
X55684813Y87622801D01*
X55667500Y87622055D01*
X55667500Y87812556D01*
X55683945Y87812854D01*
X55699944Y87813747D01*
X55715497Y87815235D01*
X55730603Y87817319D01*
X55745262Y87819998D01*
X55759475Y87823272D01*
X55773242Y87827142D01*
X55786562Y87831606D01*
X55799436Y87836666D01*
X55811863Y87842322D01*
X55823844Y87848573D01*
X55835378Y87855418D01*
X55846465Y87862860D01*
X55857107Y87870896D01*
X55867301Y87879528D01*
X55877050Y87888755D01*
X55886277Y87898769D01*
X55894909Y87909229D01*
X55902946Y87920135D01*
X55910387Y87931489D01*
X55917233Y87943288D01*
X55923484Y87955534D01*
X55929140Y87968226D01*
X55934200Y87981365D01*
X55938665Y87994949D01*
X55942534Y88008981D01*
X55945808Y88023458D01*
X55948487Y88038382D01*
X55950571Y88053752D01*
X55952059Y88069568D01*
X55952952Y88085831D01*
X55953250Y88102539D01*
X55952960Y88117679D01*
X55952092Y88132405D01*
X55950645Y88146718D01*
X55948619Y88160617D01*
X55946015Y88174103D01*
X55942832Y88187175D01*
X55939070Y88199833D01*
X55934729Y88212078D01*
X55929809Y88223910D01*
X55924311Y88235328D01*
X55918234Y88246333D01*
X55911578Y88256924D01*
X55904343Y88267102D01*
X55896529Y88276867D01*
X55888137Y88286218D01*
X55879166Y88295156D01*
X55869691Y88303871D01*
X55859786Y88312024D01*
X55849451Y88319615D01*
X55838685Y88326643D01*
X55827490Y88333109D01*
X55815865Y88339013D01*
X55803810Y88344354D01*
X55791325Y88349133D01*
X55778410Y88353349D01*
X55765065Y88357004D01*
X55751290Y88360096D01*
X55737085Y88362626D01*
X55722451Y88364593D01*
X55707386Y88365999D01*
X55691891Y88366842D01*
X55675966Y88367123D01*
X55664292Y88366908D01*
X55652551Y88366263D01*
X55640744Y88365189D01*
X55628871Y88363684D01*
X55616931Y88361750D01*
X55604926Y88359386D01*
X55592854Y88356592D01*
X55580717Y88353368D01*
X55568513Y88349713D01*
X55556243Y88345629D01*
X55543906Y88341115D01*
X55531504Y88336170D01*
X55519035Y88330795D01*
X55506501Y88324990D01*
X55493900Y88318755D01*
X55481233Y88312089D01*
X55468682Y88304954D01*
X55455899Y88297307D01*
X55429640Y88280473D01*
X55402454Y88261589D01*
X55374342Y88240653D01*
X55345304Y88217667D01*
X55315340Y88192630D01*
X55284449Y88165543D01*
X55252633Y88136406D01*
X54750983Y87664389D01*
X54556250Y87664389D01*
X54556250Y88583022D01*
X54729816Y88583022D01*
X54729816Y87878172D01*
G37*
G36*
X49903602Y84807020D02*
G01*
X49919892Y84806300D01*
X49935751Y84805101D01*
X49951179Y84803423D01*
X49966178Y84801264D01*
X49980747Y84798626D01*
X49994886Y84795509D01*
X50008595Y84791912D01*
X50021874Y84787836D01*
X50034722Y84783280D01*
X50047141Y84778244D01*
X50059129Y84772729D01*
X50070688Y84766735D01*
X50081816Y84760261D01*
X50092515Y84753308D01*
X50102783Y84745876D01*
X50112780Y84738022D01*
X50122131Y84729804D01*
X50130837Y84721222D01*
X50138899Y84712276D01*
X50146315Y84702966D01*
X50153087Y84693292D01*
X50159214Y84683254D01*
X50164696Y84672853D01*
X50169533Y84662087D01*
X50173725Y84650958D01*
X50177272Y84639465D01*
X50180174Y84627608D01*
X50182431Y84615387D01*
X50184044Y84602803D01*
X50185011Y84589855D01*
X50185333Y84576543D01*
X50185102Y84565306D01*
X50184407Y84554350D01*
X50183250Y84543675D01*
X50181630Y84533281D01*
X50179546Y84523169D01*
X50177000Y84513338D01*
X50173991Y84503788D01*
X50170518Y84494519D01*
X50166583Y84485531D01*
X50162184Y84476825D01*
X50157323Y84468400D01*
X50151998Y84460256D01*
X50146210Y84452394D01*
X50139959Y84444813D01*
X50133244Y84437512D01*
X50126067Y84430494D01*
X50118766Y84424085D01*
X50111151Y84418090D01*
X50103222Y84412508D01*
X50094979Y84407340D01*
X50086421Y84402586D01*
X50077550Y84398245D01*
X50068364Y84394318D01*
X50058864Y84390804D01*
X50049050Y84387703D01*
X50038922Y84385016D01*
X50028479Y84382743D01*
X50017722Y84380883D01*
X50016000Y84380658D01*
X50016000Y84370361D01*
X50023412Y84368582D01*
X50035897Y84365068D01*
X50047952Y84361141D01*
X50059576Y84356800D01*
X50070771Y84352046D01*
X50081536Y84346878D01*
X50091871Y84341297D01*
X50101775Y84335302D01*
X50111250Y84328893D01*
X50120220Y84322369D01*
X50128612Y84315498D01*
X50136425Y84308280D01*
X50143660Y84300715D01*
X50150315Y84292802D01*
X50156393Y84284542D01*
X50161891Y84275935D01*
X50166811Y84266980D01*
X50171152Y84257679D01*
X50174914Y84248030D01*
X50178098Y84238033D01*
X50180703Y84227690D01*
X50182728Y84216999D01*
X50184176Y84205961D01*
X50185044Y84194576D01*
X50185333Y84182843D01*
X50185102Y84171871D01*
X50184407Y84161180D01*
X50183250Y84150771D01*
X50181630Y84140643D01*
X50179546Y84130795D01*
X50177000Y84121229D01*
X50173991Y84111944D01*
X50170518Y84102940D01*
X50166583Y84094218D01*
X50162184Y84085776D01*
X50157323Y84077615D01*
X50151998Y84069735D01*
X50146210Y84062137D01*
X50139959Y84054819D01*
X50133244Y84047782D01*
X50126067Y84041026D01*
X50118766Y84034618D01*
X50111151Y84028623D01*
X50103222Y84023041D01*
X50094979Y84017873D01*
X50086421Y84013119D01*
X50077550Y84008778D01*
X50068364Y84004851D01*
X50058864Y84001337D01*
X50049050Y83998237D01*
X50038922Y83995550D01*
X50028479Y83993277D01*
X50017722Y83991416D01*
X50016000Y83991191D01*
X50016000Y83977526D01*
X50164167Y83977526D01*
X50164167Y83787026D01*
X49000000Y83787026D01*
X49000000Y83992343D01*
X49882650Y83992343D01*
X49890729Y83992442D01*
X49898559Y83992740D01*
X49906141Y83993236D01*
X49913475Y83993931D01*
X49920561Y83994824D01*
X49927398Y83995915D01*
X49933988Y83997205D01*
X49940329Y83998693D01*
X49946422Y84000380D01*
X49952268Y84002265D01*
X49957865Y84004349D01*
X49963214Y84006631D01*
X49968316Y84009111D01*
X49973170Y84011790D01*
X49977775Y84014667D01*
X49982133Y84017743D01*
X49986490Y84021282D01*
X49990566Y84025020D01*
X49994361Y84028956D01*
X49997874Y84033090D01*
X50001107Y84037422D01*
X50004059Y84041953D01*
X50006729Y84046682D01*
X50009119Y84051610D01*
X50011228Y84056736D01*
X50013055Y84062060D01*
X50014602Y84067583D01*
X50015867Y84073304D01*
X50016851Y84079224D01*
X50017554Y84085343D01*
X50017976Y84091660D01*
X50018117Y84098176D01*
X50017976Y84104956D01*
X50017554Y84111537D01*
X50016851Y84117920D01*
X50015867Y84124104D01*
X50014602Y84130091D01*
X50013055Y84135879D01*
X50011228Y84141468D01*
X50009119Y84146860D01*
X50006729Y84152052D01*
X50004059Y84157047D01*
X50001107Y84161843D01*
X49997874Y84166440D01*
X49994361Y84170839D01*
X49990566Y84175039D01*
X49986490Y84179040D01*
X49982133Y84182843D01*
X49977767Y84186431D01*
X49973136Y84189787D01*
X49968241Y84192912D01*
X49963081Y84195806D01*
X49957657Y84198468D01*
X49951968Y84200899D01*
X49946014Y84203098D01*
X49939797Y84205066D01*
X49933314Y84206803D01*
X49926568Y84208308D01*
X49919557Y84209581D01*
X49912281Y84210623D01*
X49904741Y84211434D01*
X49896936Y84212013D01*
X49888867Y84212360D01*
X49880534Y84212476D01*
X49000000Y84212476D01*
X49000000Y84383927D01*
X49882650Y84383927D01*
X49890729Y84384034D01*
X49898559Y84384356D01*
X49906141Y84384894D01*
X49913475Y84385646D01*
X49920561Y84386613D01*
X49927398Y84387795D01*
X49933988Y84389192D01*
X49940329Y84390804D01*
X49946422Y84392631D01*
X49952268Y84394673D01*
X49957865Y84396930D01*
X49963214Y84399403D01*
X49968316Y84402090D01*
X49973170Y84404993D01*
X49977775Y84408110D01*
X49982133Y84411443D01*
X49986490Y84415237D01*
X49990566Y84419214D01*
X49994361Y84423372D01*
X49997874Y84427713D01*
X50001107Y84432235D01*
X50004059Y84436939D01*
X50006729Y84441826D01*
X50009119Y84446894D01*
X50011228Y84452144D01*
X50013055Y84457577D01*
X50014602Y84463191D01*
X50015867Y84468987D01*
X50016851Y84474966D01*
X50017554Y84481126D01*
X50017976Y84487469D01*
X50018117Y84493993D01*
X50017976Y84500509D01*
X50017554Y84506826D01*
X50016851Y84512945D01*
X50015867Y84518865D01*
X50014602Y84524586D01*
X50013055Y84530109D01*
X50011228Y84535434D01*
X50009119Y84540560D01*
X50006729Y84545487D01*
X50004059Y84550216D01*
X50001107Y84554747D01*
X49997874Y84559079D01*
X49994361Y84563213D01*
X49990566Y84567149D01*
X49986490Y84570886D01*
X49982133Y84574426D01*
X49977521Y84578014D01*
X49972676Y84581370D01*
X49967600Y84584495D01*
X49962292Y84587389D01*
X49956753Y84590051D01*
X49950982Y84592482D01*
X49944979Y84594681D01*
X49938745Y84596650D01*
X49932279Y84598386D01*
X49925582Y84599891D01*
X49918653Y84601165D01*
X49911492Y84602207D01*
X49904100Y84603017D01*
X49896476Y84603596D01*
X49888621Y84603944D01*
X49880534Y84604059D01*
X49000000Y84604059D01*
X49000000Y84807260D01*
X49886883Y84807260D01*
X49903602Y84807020D01*
G37*
G36*
X50545167Y81987396D02*
G01*
X50212850Y81987396D01*
X49941917Y81993746D01*
X49941917Y81986031D01*
X49954085Y81984222D01*
X49969199Y81981246D01*
X49983850Y81977608D01*
X49998038Y81973309D01*
X50011763Y81968348D01*
X50025026Y81962726D01*
X50037825Y81956442D01*
X50050161Y81949497D01*
X50062035Y81941890D01*
X50073446Y81933622D01*
X50084393Y81924691D01*
X50094878Y81915100D01*
X50104900Y81904846D01*
X50114639Y81894031D01*
X50123750Y81882752D01*
X50132233Y81871011D01*
X50140088Y81858807D01*
X50147314Y81846139D01*
X50153912Y81833009D01*
X50159882Y81819416D01*
X50165223Y81805360D01*
X50169936Y81790841D01*
X50174021Y81775859D01*
X50177478Y81760415D01*
X50180306Y81744507D01*
X50182505Y81728136D01*
X50184076Y81711303D01*
X50185019Y81694006D01*
X50185333Y81676247D01*
X50184870Y81654560D01*
X50183481Y81633419D01*
X50181166Y81612823D01*
X50177924Y81592772D01*
X50173757Y81573267D01*
X50168663Y81554308D01*
X50162644Y81535894D01*
X50155698Y81518026D01*
X50147827Y81500704D01*
X50139029Y81483927D01*
X50129306Y81467696D01*
X50118656Y81452011D01*
X50107081Y81436872D01*
X50094580Y81422279D01*
X50081153Y81408231D01*
X50066800Y81394730D01*
X50051653Y81381915D01*
X50035845Y81369926D01*
X50019375Y81358765D01*
X50002244Y81348430D01*
X49984451Y81338921D01*
X49965996Y81330240D01*
X49946880Y81322385D01*
X49927102Y81315357D01*
X49906663Y81309155D01*
X49885562Y81303781D01*
X49863800Y81299233D01*
X49841376Y81295512D01*
X49818291Y81292618D01*
X49794544Y81290551D01*
X49770136Y81289310D01*
X49745067Y81288897D01*
X49734484Y81288897D01*
X49416983Y81288897D01*
X49392171Y81289310D01*
X49368003Y81290551D01*
X49344480Y81292618D01*
X49321602Y81295512D01*
X49299369Y81299233D01*
X49277780Y81303781D01*
X49256836Y81309155D01*
X49236537Y81315357D01*
X49216883Y81322385D01*
X49197874Y81330240D01*
X49179510Y81338921D01*
X49161792Y81348430D01*
X49144718Y81358765D01*
X49128289Y81369926D01*
X49112505Y81381915D01*
X49097367Y81394730D01*
X49083014Y81408231D01*
X49069587Y81422279D01*
X49057086Y81436872D01*
X49045510Y81452011D01*
X49034861Y81467696D01*
X49025137Y81483927D01*
X49016340Y81500704D01*
X49008468Y81518026D01*
X49001523Y81535894D01*
X48995503Y81554308D01*
X48990410Y81573267D01*
X48986242Y81592772D01*
X48983001Y81612823D01*
X48980686Y81633419D01*
X48979296Y81654560D01*
X48978833Y81676247D01*
X48979139Y81694006D01*
X48980057Y81711303D01*
X48981586Y81728136D01*
X48983727Y81744507D01*
X48985467Y81754564D01*
X49177800Y81754564D01*
X49178048Y81740731D01*
X49178792Y81727280D01*
X49180033Y81714208D01*
X49181769Y81701516D01*
X49184001Y81689205D01*
X49186730Y81677274D01*
X49189955Y81665723D01*
X49193675Y81654553D01*
X49197892Y81643762D01*
X49202605Y81633353D01*
X49207814Y81623323D01*
X49213519Y81613674D01*
X49219720Y81604405D01*
X49226417Y81595516D01*
X49233611Y81587008D01*
X49241300Y81578881D01*
X49249726Y81571191D01*
X49258598Y81563998D01*
X49267917Y81557300D01*
X49277682Y81551099D01*
X49287893Y81545394D01*
X49298550Y81540185D01*
X49309654Y81535472D01*
X49321204Y81531255D01*
X49333201Y81527534D01*
X49345644Y81524310D01*
X49358534Y81521581D01*
X49371871Y81519349D01*
X49385654Y81517612D01*
X49399883Y81516372D01*
X49414560Y81515628D01*
X49429683Y81515380D01*
X49734484Y81515380D01*
X49749599Y81515628D01*
X49764250Y81516372D01*
X49778439Y81517612D01*
X49792164Y81519349D01*
X49805427Y81521581D01*
X49818226Y81524310D01*
X49830562Y81527534D01*
X49842435Y81531255D01*
X49853845Y81535472D01*
X49864792Y81540185D01*
X49875275Y81545394D01*
X49885296Y81551099D01*
X49894854Y81557300D01*
X49903949Y81563998D01*
X49912581Y81571191D01*
X49920750Y81578881D01*
X49928696Y81587008D01*
X49936130Y81595516D01*
X49943051Y81604405D01*
X49949459Y81613674D01*
X49955354Y81623323D01*
X49960737Y81633353D01*
X49965607Y81643762D01*
X49969964Y81654553D01*
X49973809Y81665723D01*
X49977141Y81677274D01*
X49979960Y81689205D01*
X49982266Y81701516D01*
X49984060Y81714208D01*
X49985342Y81727280D01*
X49986111Y81740731D01*
X49986367Y81754564D01*
X49986102Y81767875D01*
X49985308Y81780824D01*
X49983985Y81793408D01*
X49982133Y81805629D01*
X49979751Y81817486D01*
X49976841Y81828979D01*
X49973401Y81840108D01*
X49969432Y81850874D01*
X49964934Y81861275D01*
X49959907Y81871313D01*
X49954350Y81880987D01*
X49948265Y81890297D01*
X49941651Y81899242D01*
X49934507Y81907824D01*
X49926835Y81916043D01*
X49918634Y81923897D01*
X49910224Y81931586D01*
X49901401Y81938779D01*
X49892165Y81945477D01*
X49882515Y81951678D01*
X49872453Y81957383D01*
X49861976Y81962592D01*
X49851087Y81967305D01*
X49839784Y81971522D01*
X49828068Y81975242D01*
X49815939Y81978467D01*
X49803396Y81981195D01*
X49790440Y81983428D01*
X49777071Y81985164D01*
X49763289Y81986404D01*
X49749093Y81987148D01*
X49734484Y81987396D01*
X49429683Y81987396D01*
X49415066Y81987148D01*
X49400845Y81986404D01*
X49387021Y81985164D01*
X49373593Y81983428D01*
X49360562Y81981195D01*
X49347928Y81978467D01*
X49335691Y81975242D01*
X49323850Y81971522D01*
X49312407Y81967305D01*
X49301360Y81962592D01*
X49290710Y81957383D01*
X49280457Y81951678D01*
X49270602Y81945477D01*
X49261143Y81938779D01*
X49252081Y81931586D01*
X49243417Y81923897D01*
X49235470Y81916043D01*
X49228037Y81907824D01*
X49221116Y81899242D01*
X49214708Y81890297D01*
X49208812Y81880987D01*
X49203430Y81871313D01*
X49198560Y81861275D01*
X49194203Y81850874D01*
X49190358Y81840108D01*
X49187026Y81828979D01*
X49184207Y81817486D01*
X49181901Y81805629D01*
X49180107Y81793408D01*
X49178825Y81780824D01*
X49178057Y81767875D01*
X49177800Y81754564D01*
X48985467Y81754564D01*
X48986480Y81760415D01*
X48989845Y81775859D01*
X48993822Y81790841D01*
X48998411Y81805360D01*
X49003611Y81819416D01*
X49009424Y81833009D01*
X49015848Y81846139D01*
X49022885Y81858807D01*
X49030533Y81871011D01*
X49038793Y81882752D01*
X49047666Y81894031D01*
X49057150Y81904846D01*
X49067427Y81915100D01*
X49078150Y81924691D01*
X49089320Y81933622D01*
X49100937Y81941890D01*
X49113001Y81949497D01*
X49125511Y81956442D01*
X49138468Y81962726D01*
X49151871Y81968348D01*
X49165721Y81973309D01*
X49180017Y81977608D01*
X49194759Y81981246D01*
X49209948Y81984222D01*
X49222250Y81986044D01*
X49222250Y81989514D01*
X49000000Y81989514D01*
X49000000Y82215996D01*
X50545167Y82215996D01*
X50545167Y81987396D01*
G37*
G36*
X49798198Y98735183D02*
G01*
X49821068Y98732975D01*
X49843309Y98729825D01*
X49864922Y98725732D01*
X49885907Y98720697D01*
X49906263Y98714718D01*
X49925991Y98707798D01*
X49945090Y98699934D01*
X49963561Y98691129D01*
X49981404Y98681380D01*
X49998618Y98670689D01*
X50015204Y98659055D01*
X50031162Y98646479D01*
X50046492Y98632960D01*
X50061193Y98618499D01*
X50075266Y98603095D01*
X50088596Y98586898D01*
X50101065Y98570056D01*
X50112674Y98552569D01*
X50123423Y98534437D01*
X50133312Y98515660D01*
X50142340Y98496238D01*
X50150509Y98476171D01*
X50157818Y98455459D01*
X50164267Y98434103D01*
X50169856Y98412101D01*
X50174586Y98389454D01*
X50178455Y98366163D01*
X50181464Y98342226D01*
X50183614Y98317645D01*
X50184903Y98292419D01*
X50185333Y98266547D01*
X50185118Y98248673D01*
X50184473Y98231065D01*
X50183398Y98213723D01*
X50181893Y98196648D01*
X50179958Y98179840D01*
X50177593Y98163299D01*
X50174798Y98147024D01*
X50171573Y98131015D01*
X50167919Y98115274D01*
X50163834Y98099799D01*
X50159319Y98084590D01*
X50154375Y98069648D01*
X50149001Y98054973D01*
X50143197Y98040565D01*
X50136963Y98026423D01*
X50130300Y98012548D01*
X50123494Y97999243D01*
X50116309Y97986317D01*
X50108743Y97973770D01*
X50100797Y97961602D01*
X50092471Y97949815D01*
X50083764Y97938407D01*
X50074678Y97927380D01*
X50065211Y97916735D01*
X50055364Y97906470D01*
X50045136Y97896588D01*
X50034528Y97887087D01*
X50023540Y97877969D01*
X50012172Y97869234D01*
X50000423Y97860882D01*
X49988293Y97852914D01*
X49975783Y97845330D01*
X49962935Y97838410D01*
X49949788Y97831936D01*
X49936344Y97825909D01*
X49922602Y97820328D01*
X49908563Y97815193D01*
X49894225Y97810505D01*
X49879591Y97806263D01*
X49864658Y97802468D01*
X49849428Y97799120D01*
X49833901Y97796217D01*
X49818075Y97793762D01*
X49801952Y97791753D01*
X49785532Y97790190D01*
X49768813Y97789074D01*
X49751797Y97788404D01*
X49734484Y97788181D01*
X49429683Y97788181D01*
X49412618Y97788404D01*
X49395818Y97789074D01*
X49379282Y97790190D01*
X49363011Y97791753D01*
X49347004Y97793762D01*
X49331261Y97796217D01*
X49315783Y97799120D01*
X49300570Y97802468D01*
X49285621Y97806263D01*
X49270936Y97810505D01*
X49256516Y97815193D01*
X49242361Y97820328D01*
X49228470Y97825909D01*
X49214843Y97831936D01*
X49201481Y97838410D01*
X49188383Y97845330D01*
X49175865Y97852914D01*
X49163711Y97860882D01*
X49151920Y97869234D01*
X49140493Y97877969D01*
X49129430Y97887087D01*
X49118731Y97896588D01*
X49108395Y97906470D01*
X49098423Y97916735D01*
X49088815Y97927380D01*
X49079571Y97938407D01*
X49070691Y97949815D01*
X49062175Y97961602D01*
X49054023Y97973770D01*
X49046235Y97986317D01*
X49038811Y97999243D01*
X49031750Y98012548D01*
X49025342Y98026423D01*
X49019347Y98040565D01*
X49013765Y98054973D01*
X49008597Y98069648D01*
X49003843Y98084590D01*
X48999502Y98099799D01*
X48995575Y98115274D01*
X48992061Y98131015D01*
X48988961Y98147024D01*
X48986274Y98163299D01*
X48984000Y98179840D01*
X48982140Y98196648D01*
X48980693Y98213723D01*
X48979660Y98231065D01*
X48979040Y98248673D01*
X48978833Y98266547D01*
X48979263Y98292419D01*
X48980553Y98317645D01*
X48982702Y98342226D01*
X48985712Y98366163D01*
X48989581Y98389454D01*
X48994310Y98412101D01*
X48999899Y98434103D01*
X49006349Y98455459D01*
X49013657Y98476171D01*
X49021826Y98496238D01*
X49030855Y98515660D01*
X49040744Y98534437D01*
X49051493Y98552569D01*
X49063102Y98570056D01*
X49075571Y98586898D01*
X49088900Y98603095D01*
X49102973Y98618499D01*
X49117675Y98632960D01*
X49133004Y98646479D01*
X49148962Y98659055D01*
X49165549Y98670689D01*
X49182763Y98681380D01*
X49200606Y98691129D01*
X49219077Y98699934D01*
X49238176Y98707798D01*
X49257904Y98714718D01*
X49278260Y98720697D01*
X49299245Y98725732D01*
X49320857Y98729825D01*
X49343099Y98732975D01*
X49365969Y98735183D01*
X49389467Y98736448D01*
X49389467Y98507846D01*
X49377206Y98506829D01*
X49365292Y98505366D01*
X49353724Y98503456D01*
X49342504Y98501100D01*
X49331631Y98498297D01*
X49321106Y98495048D01*
X49310927Y98491352D01*
X49301096Y98487209D01*
X49291612Y98482620D01*
X49282475Y98477585D01*
X49273686Y98472103D01*
X49265243Y98466175D01*
X49257149Y98459799D01*
X49249402Y98452978D01*
X49242002Y98445710D01*
X49234950Y98437995D01*
X49228287Y98429884D01*
X49222053Y98421426D01*
X49216249Y98412621D01*
X49210875Y98403468D01*
X49205931Y98393968D01*
X49201416Y98384121D01*
X49197332Y98373926D01*
X49193677Y98363384D01*
X49190452Y98352495D01*
X49187657Y98341259D01*
X49185292Y98329675D01*
X49183357Y98317744D01*
X49181852Y98305466D01*
X49180777Y98292840D01*
X49180132Y98279867D01*
X49179917Y98266547D01*
X49180173Y98252178D01*
X49180942Y98238189D01*
X49182223Y98224582D01*
X49184017Y98211357D01*
X49186324Y98198512D01*
X49189143Y98186049D01*
X49192475Y98173968D01*
X49196319Y98162268D01*
X49200676Y98150949D01*
X49205546Y98140012D01*
X49210929Y98129456D01*
X49216824Y98119281D01*
X49223232Y98109488D01*
X49230153Y98100076D01*
X49237587Y98091046D01*
X49245533Y98082397D01*
X49253943Y98074180D01*
X49262766Y98066496D01*
X49272002Y98059345D01*
X49281651Y98052726D01*
X49291714Y98046639D01*
X49302190Y98041083D01*
X49313080Y98036058D01*
X49324382Y98031563D01*
X49336098Y98027599D01*
X49348228Y98024165D01*
X49360770Y98021260D01*
X49373726Y98018884D01*
X49387096Y98017037D01*
X49400878Y98015718D01*
X49415074Y98014927D01*
X49429683Y98014663D01*
X49736600Y98014663D01*
X49751201Y98014927D01*
X49765372Y98015718D01*
X49779114Y98017037D01*
X49792425Y98018884D01*
X49805307Y98021260D01*
X49817759Y98024165D01*
X49829781Y98027599D01*
X49841373Y98031563D01*
X49852536Y98036058D01*
X49863268Y98041083D01*
X49873571Y98046639D01*
X49883443Y98052726D01*
X49892886Y98059345D01*
X49901898Y98066496D01*
X49910481Y98074180D01*
X49918634Y98082397D01*
X49926580Y98091046D01*
X49934014Y98100076D01*
X49940935Y98109488D01*
X49947343Y98119281D01*
X49953238Y98129456D01*
X49958620Y98140012D01*
X49963490Y98150949D01*
X49967847Y98162268D01*
X49971692Y98173968D01*
X49975024Y98186049D01*
X49977843Y98198512D01*
X49980149Y98211357D01*
X49981943Y98224582D01*
X49983225Y98238189D01*
X49983993Y98252178D01*
X49984250Y98266547D01*
X49984035Y98279867D01*
X49983390Y98292840D01*
X49982315Y98305466D01*
X49980810Y98317744D01*
X49978874Y98329675D01*
X49976509Y98341259D01*
X49973715Y98352495D01*
X49970490Y98363384D01*
X49966835Y98373926D01*
X49962750Y98384121D01*
X49958236Y98393968D01*
X49953292Y98403468D01*
X49947918Y98412621D01*
X49942114Y98421426D01*
X49935880Y98429884D01*
X49929216Y98437995D01*
X49922164Y98445710D01*
X49914765Y98452978D01*
X49907018Y98459799D01*
X49898923Y98466175D01*
X49890481Y98472103D01*
X49881692Y98477585D01*
X49872555Y98482620D01*
X49863071Y98487209D01*
X49853240Y98491352D01*
X49843061Y98495048D01*
X49832535Y98498297D01*
X49821662Y98501100D01*
X49810442Y98503456D01*
X49798875Y98505366D01*
X49786961Y98506829D01*
X49774700Y98507846D01*
X49774700Y98736448D01*
X49798198Y98735183D01*
G37*
G36*
X55362394Y79680635D02*
G01*
X55384759Y79678477D01*
X55406513Y79675410D01*
X55427655Y79671433D01*
X55448185Y79666547D01*
X55468103Y79660751D01*
X55487410Y79654046D01*
X55506104Y79646431D01*
X55524187Y79637907D01*
X55541657Y79628473D01*
X55558516Y79618129D01*
X55574763Y79606876D01*
X55590398Y79594713D01*
X55605422Y79581641D01*
X55619833Y79567659D01*
X55633633Y79552767D01*
X55646705Y79537114D01*
X55658934Y79520850D01*
X55670319Y79503974D01*
X55680861Y79486486D01*
X55690560Y79468387D01*
X55699415Y79449676D01*
X55707427Y79430353D01*
X55714596Y79410418D01*
X55720921Y79389871D01*
X55726403Y79368713D01*
X55731041Y79346943D01*
X55734836Y79324561D01*
X55737788Y79301568D01*
X55739896Y79277963D01*
X55741161Y79253746D01*
X55741583Y79228917D01*
X55741376Y79211587D01*
X55740756Y79194521D01*
X55739723Y79177720D01*
X55738276Y79161183D01*
X55736415Y79144911D01*
X55734142Y79128904D01*
X55731455Y79113161D01*
X55728354Y79097682D01*
X55724840Y79082468D01*
X55720913Y79067519D01*
X55716572Y79052835D01*
X55711818Y79038415D01*
X55706650Y79024260D01*
X55701069Y79010370D01*
X55695074Y78996745D01*
X55688666Y78983384D01*
X55681870Y78970600D01*
X55674709Y78958181D01*
X55667185Y78946126D01*
X55659297Y78934434D01*
X55651046Y78923106D01*
X55642430Y78912143D01*
X55633451Y78901543D01*
X55624108Y78891307D01*
X55614401Y78881435D01*
X55604330Y78871927D01*
X55593896Y78862783D01*
X55583097Y78854002D01*
X55571935Y78845585D01*
X55560409Y78837532D01*
X55548520Y78829843D01*
X55536266Y78822517D01*
X55523674Y78815597D01*
X55510767Y78809123D01*
X55497546Y78803095D01*
X55484011Y78797514D01*
X55470162Y78792380D01*
X55455999Y78787692D01*
X55441521Y78783450D01*
X55426729Y78779655D01*
X55411623Y78776306D01*
X55396203Y78773404D01*
X55380468Y78770948D01*
X55364420Y78768939D01*
X55348057Y78767376D01*
X55331380Y78766260D01*
X55314388Y78765591D01*
X55297083Y78765367D01*
X54979583Y78765367D01*
X54962526Y78765591D01*
X54945750Y78766260D01*
X54929254Y78767376D01*
X54913040Y78768939D01*
X54897108Y78770948D01*
X54881456Y78773404D01*
X54866085Y78776306D01*
X54850996Y78779655D01*
X54836187Y78783450D01*
X54821660Y78787692D01*
X54807414Y78792380D01*
X54793449Y78797514D01*
X54779765Y78803095D01*
X54766362Y78809123D01*
X54753240Y78815597D01*
X54740400Y78822517D01*
X54728147Y78829843D01*
X54716258Y78837532D01*
X54704733Y78845585D01*
X54693571Y78854002D01*
X54682773Y78862783D01*
X54672339Y78871927D01*
X54662268Y78881435D01*
X54652561Y78891307D01*
X54643218Y78901543D01*
X54634239Y78912143D01*
X54625623Y78923106D01*
X54617371Y78934434D01*
X54609483Y78946126D01*
X54601958Y78958181D01*
X54594797Y78970600D01*
X54588000Y78983384D01*
X54581591Y78996745D01*
X54575596Y79010370D01*
X54570015Y79024260D01*
X54564847Y79038415D01*
X54560093Y79052835D01*
X54555752Y79067519D01*
X54551824Y79082468D01*
X54548311Y79097682D01*
X54545210Y79113161D01*
X54542523Y79128904D01*
X54540250Y79144911D01*
X54538390Y79161183D01*
X54536943Y79177720D01*
X54535910Y79194521D01*
X54535290Y79211587D01*
X54535083Y79228917D01*
X54535505Y79253746D01*
X54536770Y79277963D01*
X54538878Y79301568D01*
X54541830Y79324561D01*
X54545625Y79346943D01*
X54550264Y79368713D01*
X54555745Y79389871D01*
X54562071Y79410418D01*
X54569239Y79430353D01*
X54577251Y79449676D01*
X54586106Y79468387D01*
X54595805Y79486486D01*
X54606347Y79503974D01*
X54617732Y79520850D01*
X54629961Y79537114D01*
X54643033Y79552767D01*
X54656833Y79567659D01*
X54671244Y79581641D01*
X54686268Y79594713D01*
X54701903Y79606876D01*
X54718150Y79618129D01*
X54735009Y79628473D01*
X54752479Y79637907D01*
X54770562Y79646431D01*
X54789256Y79654046D01*
X54808563Y79660751D01*
X54828481Y79666547D01*
X54849011Y79671433D01*
X54870153Y79675410D01*
X54891907Y79678477D01*
X54914272Y79680635D01*
X54937250Y79681884D01*
X54937250Y79491384D01*
X54923681Y79490342D01*
X54910494Y79488804D01*
X54897686Y79486770D01*
X54885259Y79484240D01*
X54873212Y79481214D01*
X54861546Y79477692D01*
X54850259Y79473673D01*
X54839354Y79469159D01*
X54828828Y79464148D01*
X54818683Y79458642D01*
X54808918Y79452639D01*
X54799534Y79446140D01*
X54790530Y79439145D01*
X54781906Y79431654D01*
X54773663Y79423667D01*
X54765800Y79415184D01*
X54758367Y79406520D01*
X54751414Y79397458D01*
X54744941Y79387999D01*
X54738946Y79378143D01*
X54733432Y79367891D01*
X54728396Y79357241D01*
X54723840Y79346194D01*
X54719764Y79334751D01*
X54716167Y79322910D01*
X54713050Y79310673D01*
X54710412Y79298039D01*
X54708253Y79285008D01*
X54706575Y79271580D01*
X54705376Y79257756D01*
X54704656Y79243535D01*
X54704416Y79228917D01*
X54704697Y79213506D01*
X54705541Y79198491D01*
X54706946Y79183873D01*
X54708914Y79169652D01*
X54711443Y79155827D01*
X54714536Y79142399D01*
X54718190Y79129368D01*
X54722406Y79116734D01*
X54727185Y79104496D01*
X54732526Y79092656D01*
X54738430Y79081212D01*
X54744896Y79070166D01*
X54751924Y79059516D01*
X54759515Y79049264D01*
X54767668Y79039409D01*
X54776383Y79029951D01*
X54785611Y79020980D01*
X54795301Y79012589D01*
X54805454Y79004775D01*
X54816071Y78997541D01*
X54827150Y78990885D01*
X54838693Y78984808D01*
X54850698Y78979309D01*
X54863167Y78974390D01*
X54876098Y78970049D01*
X54889493Y78966286D01*
X54903350Y78963103D01*
X54917671Y78960498D01*
X54932454Y78958472D01*
X54947701Y78957025D01*
X54963410Y78956157D01*
X54979583Y78955867D01*
X55299200Y78955867D01*
X55315364Y78956157D01*
X55331049Y78957025D01*
X55346254Y78958472D01*
X55360980Y78960498D01*
X55375226Y78963103D01*
X55388992Y78966286D01*
X55402280Y78970049D01*
X55415087Y78974390D01*
X55427415Y78979309D01*
X55439263Y78984808D01*
X55450632Y78990885D01*
X55461522Y78997541D01*
X55471931Y79004775D01*
X55481861Y79012589D01*
X55491312Y79020980D01*
X55500283Y79029951D01*
X55508998Y79039409D01*
X55517150Y79049264D01*
X55524741Y79059516D01*
X55531769Y79070166D01*
X55538234Y79081212D01*
X55544138Y79092656D01*
X55549479Y79104496D01*
X55554258Y79116734D01*
X55558475Y79129368D01*
X55562130Y79142399D01*
X55565222Y79155827D01*
X55567752Y79169652D01*
X55569720Y79183873D01*
X55571125Y79198491D01*
X55571969Y79213506D01*
X55572250Y79228917D01*
X55572010Y79243535D01*
X55571291Y79257756D01*
X55570092Y79271580D01*
X55568413Y79285008D01*
X55566255Y79298039D01*
X55563618Y79310673D01*
X55560500Y79322910D01*
X55556904Y79334751D01*
X55552827Y79346194D01*
X55548272Y79357241D01*
X55543236Y79367891D01*
X55537721Y79378143D01*
X55531727Y79387999D01*
X55525253Y79397458D01*
X55518299Y79406520D01*
X55510866Y79415184D01*
X55503251Y79423667D01*
X55495223Y79431654D01*
X55486781Y79439145D01*
X55477925Y79446140D01*
X55468657Y79452639D01*
X55458975Y79458642D01*
X55448879Y79464148D01*
X55438370Y79469159D01*
X55427448Y79473673D01*
X55416112Y79477692D01*
X55404363Y79481214D01*
X55392200Y79484240D01*
X55379625Y79486770D01*
X55366635Y79488804D01*
X55353232Y79490342D01*
X55339416Y79491384D01*
X55339416Y79681884D01*
X55362394Y79680635D01*
G37*
G36*
X49751532Y80959294D02*
G01*
X49768283Y80958624D01*
X49784737Y80957508D01*
X49800893Y80955945D01*
X49816751Y80953936D01*
X49832312Y80951480D01*
X49847576Y80948578D01*
X49862542Y80945230D01*
X49877210Y80941435D01*
X49891581Y80937193D01*
X49905653Y80932505D01*
X49919428Y80927370D01*
X49932906Y80921789D01*
X49946085Y80915762D01*
X49958967Y80909288D01*
X49971550Y80902367D01*
X49984068Y80895033D01*
X49996223Y80887319D01*
X50008013Y80879225D01*
X50019440Y80870751D01*
X50030503Y80861896D01*
X50041203Y80852661D01*
X50051538Y80843045D01*
X50061510Y80833050D01*
X50071118Y80822673D01*
X50080362Y80811916D01*
X50089242Y80800779D01*
X50097758Y80789261D01*
X50105910Y80777363D01*
X50113699Y80765084D01*
X50121123Y80752424D01*
X50128183Y80739383D01*
X50135104Y80726006D01*
X50141578Y80712332D01*
X50147606Y80698359D01*
X50153187Y80684089D01*
X50158321Y80669521D01*
X50163009Y80654655D01*
X50167251Y80639492D01*
X50171046Y80624030D01*
X50174395Y80608271D01*
X50177297Y80592214D01*
X50179752Y80575860D01*
X50181762Y80559207D01*
X50183324Y80542256D01*
X50184440Y80525008D01*
X50185110Y80507461D01*
X50185333Y80489617D01*
X50185110Y80472024D01*
X50184440Y80454695D01*
X50183324Y80437630D01*
X50181762Y80420829D01*
X50179752Y80404293D01*
X50177297Y80388021D01*
X50174395Y80372013D01*
X50171046Y80356270D01*
X50167251Y80340792D01*
X50163009Y80325578D01*
X50158321Y80310628D01*
X50153187Y80295943D01*
X50147606Y80281523D01*
X50141578Y80267367D01*
X50135104Y80253476D01*
X50128183Y80239850D01*
X50121123Y80226812D01*
X50113699Y80214154D01*
X50105910Y80201876D01*
X50097758Y80189978D01*
X50089242Y80178461D01*
X50080362Y80167323D01*
X50071118Y80156566D01*
X50061510Y80146189D01*
X50051538Y80136193D01*
X50041203Y80126577D01*
X50030503Y80117341D01*
X50019440Y80108485D01*
X50008013Y80100010D01*
X49996223Y80091915D01*
X49984068Y80084201D01*
X49971550Y80076867D01*
X49958967Y80069947D01*
X49946085Y80063473D01*
X49932906Y80057445D01*
X49919428Y80051864D01*
X49905653Y80046729D01*
X49891581Y80042041D01*
X49877210Y80037800D01*
X49862542Y80034005D01*
X49847576Y80030656D01*
X49832312Y80027754D01*
X49816751Y80025298D01*
X49800893Y80023289D01*
X49784737Y80021726D01*
X49768283Y80020610D01*
X49751532Y80019940D01*
X49734484Y80019717D01*
X49429683Y80019717D01*
X49412882Y80019940D01*
X49396345Y80020610D01*
X49380072Y80021726D01*
X49364065Y80023289D01*
X49348322Y80025298D01*
X49332844Y80027754D01*
X49317630Y80030656D01*
X49302682Y80034005D01*
X49287998Y80037800D01*
X49273578Y80042041D01*
X49259423Y80046729D01*
X49245533Y80051864D01*
X49231907Y80057445D01*
X49218546Y80063473D01*
X49205449Y80069947D01*
X49192617Y80076867D01*
X49180091Y80084201D01*
X49167911Y80091915D01*
X49156080Y80100010D01*
X49144595Y80108485D01*
X49133458Y80117341D01*
X49122668Y80126577D01*
X49112225Y80136193D01*
X49102129Y80146189D01*
X49092381Y80156566D01*
X49082980Y80167323D01*
X49073926Y80178461D01*
X49065220Y80189978D01*
X49056861Y80201876D01*
X49048849Y80214154D01*
X49041184Y80226812D01*
X49033867Y80239850D01*
X49027203Y80253476D01*
X49020970Y80267367D01*
X49015166Y80281523D01*
X49009791Y80295943D01*
X49004847Y80310628D01*
X49000333Y80325578D01*
X48996248Y80340792D01*
X48992593Y80356270D01*
X48989368Y80372013D01*
X48986573Y80388021D01*
X48984209Y80404293D01*
X48982273Y80420829D01*
X48980768Y80437630D01*
X48979693Y80454695D01*
X48979048Y80472024D01*
X48978833Y80489617D01*
X48979172Y80512670D01*
X48980189Y80535259D01*
X48981885Y80557385D01*
X48984258Y80579048D01*
X48987309Y80600248D01*
X48991038Y80620985D01*
X48995446Y80641258D01*
X49000531Y80661069D01*
X49006294Y80680416D01*
X49012735Y80699300D01*
X49019854Y80717722D01*
X49027651Y80735680D01*
X49036125Y80753175D01*
X49045278Y80770208D01*
X49055108Y80786777D01*
X49065617Y80802883D01*
X49076961Y80818362D01*
X49088768Y80833046D01*
X49101037Y80846937D01*
X49113770Y80860033D01*
X49126966Y80872337D01*
X49140625Y80883846D01*
X49154747Y80894562D01*
X49169332Y80904484D01*
X49184380Y80913612D01*
X49199891Y80921946D01*
X49215865Y80929487D01*
X49232302Y80936234D01*
X49249203Y80942187D01*
X49266567Y80947346D01*
X49284393Y80951712D01*
X49302683Y80955283D01*
X49302683Y80728801D01*
X49294341Y80726768D01*
X49286247Y80724372D01*
X49278401Y80721611D01*
X49270802Y80718487D01*
X49263452Y80714998D01*
X49256349Y80711146D01*
X49249494Y80706929D01*
X49242888Y80702349D01*
X49236529Y80697404D01*
X49230418Y80692096D01*
X49224556Y80686423D01*
X49218942Y80680387D01*
X49213576Y80673986D01*
X49208458Y80667222D01*
X49203588Y80660093D01*
X49198967Y80652601D01*
X49194865Y80644780D01*
X49191028Y80636661D01*
X49187456Y80628245D01*
X49184148Y80619531D01*
X49181106Y80610519D01*
X49178327Y80601209D01*
X49175814Y80591602D01*
X49173565Y80581697D01*
X49171581Y80571494D01*
X49169862Y80560993D01*
X49168407Y80550195D01*
X49167216Y80539098D01*
X49166290Y80527704D01*
X49165629Y80516012D01*
X49165232Y80504022D01*
X49165100Y80491734D01*
X49165365Y80476613D01*
X49166159Y80461938D01*
X49167482Y80447709D01*
X49169334Y80433927D01*
X49171716Y80420590D01*
X49174626Y80407700D01*
X49178066Y80395257D01*
X49182035Y80383259D01*
X49186533Y80371708D01*
X49191560Y80360604D01*
X49197116Y80349945D01*
X49203202Y80339734D01*
X49209816Y80329968D01*
X49216959Y80320649D01*
X49224632Y80311776D01*
X49232833Y80303350D01*
X49241539Y80295661D01*
X49250724Y80288467D01*
X49260389Y80281770D01*
X49270534Y80275569D01*
X49281158Y80269864D01*
X49292262Y80264655D01*
X49303846Y80259942D01*
X49315909Y80255725D01*
X49328452Y80252005D01*
X49341475Y80248780D01*
X49354977Y80246051D01*
X49368959Y80243819D01*
X49383421Y80242083D01*
X49398362Y80240842D01*
X49413783Y80240098D01*
X49429683Y80239850D01*
X49527050Y80239850D01*
X49681567Y80239850D01*
X49734484Y80239850D01*
X49750393Y80240098D01*
X49765838Y80240842D01*
X49780820Y80242083D01*
X49795340Y80243819D01*
X49809396Y80246051D01*
X49822989Y80248780D01*
X49836118Y80252005D01*
X49848785Y80255725D01*
X49860989Y80259942D01*
X49872729Y80264655D01*
X49884007Y80269864D01*
X49894821Y80275569D01*
X49905173Y80281770D01*
X49915062Y80288467D01*
X49924487Y80295661D01*
X49933450Y80303350D01*
X49941908Y80311768D01*
X49949821Y80320616D01*
X49957188Y80329893D01*
X49964009Y80339600D01*
X49970285Y80349737D01*
X49976015Y80360304D01*
X49981199Y80371300D01*
X49985837Y80382727D01*
X49989930Y80394583D01*
X49993477Y80406870D01*
X49996479Y80419586D01*
X49998934Y80432732D01*
X50000844Y80446308D01*
X50002208Y80460315D01*
X50003027Y80474751D01*
X50003300Y80489617D01*
X50003027Y80504732D01*
X50002208Y80519384D01*
X50000844Y80533573D01*
X49998934Y80547298D01*
X49996479Y80560561D01*
X49993477Y80573360D01*
X49989930Y80585696D01*
X49985837Y80597569D01*
X49981199Y80608979D01*
X49976015Y80619926D01*
X49970285Y80630409D01*
X49964009Y80640430D01*
X49957188Y80649988D01*
X49949821Y80659083D01*
X49941908Y80667715D01*
X49933450Y80675884D01*
X49924495Y80683573D01*
X49915094Y80690766D01*
X49905247Y80697464D01*
X49894953Y80703665D01*
X49884213Y80709370D01*
X49873026Y80714579D01*
X49861392Y80719292D01*
X49849313Y80723509D01*
X49836786Y80727229D01*
X49823813Y80730454D01*
X49810394Y80733182D01*
X49796528Y80735415D01*
X49782216Y80737151D01*
X49767457Y80738391D01*
X49752252Y80739135D01*
X49736600Y80739383D01*
X49683614Y80739383D01*
X49681567Y80239850D01*
X49527050Y80239850D01*
X49527050Y80959517D01*
X49734484Y80959517D01*
X49751532Y80959294D01*
G37*
G36*
X49751532Y79690127D02*
G01*
X49768283Y79689458D01*
X49784737Y79688341D01*
X49800893Y79686779D01*
X49816751Y79684769D01*
X49832312Y79682314D01*
X49847576Y79679412D01*
X49862542Y79676063D01*
X49877210Y79672268D01*
X49891581Y79668026D01*
X49905653Y79663338D01*
X49919428Y79658204D01*
X49932906Y79652622D01*
X49946085Y79646595D01*
X49958967Y79640121D01*
X49971550Y79633200D01*
X49984068Y79625866D01*
X49996223Y79618152D01*
X50008013Y79610057D01*
X50019440Y79601582D01*
X50030503Y79592727D01*
X50041203Y79583491D01*
X50051538Y79573875D01*
X50061510Y79563878D01*
X50071118Y79553501D01*
X50080362Y79542744D01*
X50089242Y79531607D01*
X50097758Y79520089D01*
X50105910Y79508191D01*
X50113699Y79495914D01*
X50121123Y79483255D01*
X50128183Y79470217D01*
X50135104Y79456840D01*
X50141578Y79443165D01*
X50147606Y79429192D01*
X50153187Y79414921D01*
X50158321Y79400352D01*
X50163009Y79385485D01*
X50167251Y79370321D01*
X50171046Y79354859D01*
X50174395Y79339099D01*
X50177297Y79323042D01*
X50179752Y79306687D01*
X50181762Y79290035D01*
X50183324Y79273085D01*
X50184440Y79255838D01*
X50185110Y79238293D01*
X50185333Y79220451D01*
X50185110Y79202855D01*
X50184440Y79185524D01*
X50183324Y79168458D01*
X50181762Y79151657D01*
X50179752Y79135121D01*
X50177297Y79118849D01*
X50174395Y79102841D01*
X50171046Y79087099D01*
X50167251Y79071621D01*
X50163009Y79056408D01*
X50158321Y79041459D01*
X50153187Y79026775D01*
X50147606Y79012355D01*
X50141578Y78998200D01*
X50135104Y78984310D01*
X50128183Y78970684D01*
X50121123Y78957646D01*
X50113699Y78944987D01*
X50105910Y78932709D01*
X50097758Y78920812D01*
X50089242Y78909294D01*
X50080362Y78898157D01*
X50071118Y78887400D01*
X50061510Y78877023D01*
X50051538Y78867026D01*
X50041203Y78857410D01*
X50030503Y78848174D01*
X50019440Y78839319D01*
X50008013Y78830844D01*
X49996223Y78822749D01*
X49984068Y78815034D01*
X49971550Y78807700D01*
X49958967Y78800780D01*
X49946085Y78794306D01*
X49932906Y78788278D01*
X49919428Y78782697D01*
X49905653Y78777563D01*
X49891581Y78772875D01*
X49877210Y78768633D01*
X49862542Y78764838D01*
X49847576Y78761489D01*
X49832312Y78758587D01*
X49816751Y78756132D01*
X49800893Y78754122D01*
X49784737Y78752560D01*
X49768283Y78751443D01*
X49751532Y78750774D01*
X49734484Y78750550D01*
X49429683Y78750550D01*
X49412882Y78750774D01*
X49396345Y78751443D01*
X49380072Y78752560D01*
X49364065Y78754122D01*
X49348322Y78756132D01*
X49332844Y78758587D01*
X49317630Y78761489D01*
X49302682Y78764838D01*
X49287998Y78768633D01*
X49273578Y78772875D01*
X49259423Y78777563D01*
X49245533Y78782697D01*
X49231907Y78788278D01*
X49218546Y78794306D01*
X49205449Y78800780D01*
X49192617Y78807700D01*
X49180091Y78815034D01*
X49167911Y78822749D01*
X49156080Y78830844D01*
X49144595Y78839319D01*
X49133458Y78848174D01*
X49122668Y78857410D01*
X49112225Y78867026D01*
X49102129Y78877023D01*
X49092381Y78887400D01*
X49082980Y78898157D01*
X49073926Y78909294D01*
X49065220Y78920812D01*
X49056861Y78932709D01*
X49048849Y78944987D01*
X49041184Y78957646D01*
X49033867Y78970684D01*
X49027203Y78984310D01*
X49020970Y78998200D01*
X49015166Y79012355D01*
X49009791Y79026775D01*
X49004847Y79041459D01*
X49000333Y79056408D01*
X48996248Y79071621D01*
X48992593Y79087099D01*
X48989368Y79102841D01*
X48986573Y79118849D01*
X48984209Y79135121D01*
X48982273Y79151657D01*
X48980768Y79168458D01*
X48979693Y79185524D01*
X48979048Y79202855D01*
X48978833Y79220451D01*
X48979172Y79243503D01*
X48980189Y79266092D01*
X48981885Y79288219D01*
X48984258Y79309882D01*
X48987309Y79331081D01*
X48991038Y79351818D01*
X48995446Y79372092D01*
X49000531Y79391902D01*
X49006294Y79411250D01*
X49012735Y79430134D01*
X49019854Y79448555D01*
X49027651Y79466514D01*
X49036125Y79484009D01*
X49045278Y79501041D01*
X49055108Y79517611D01*
X49065617Y79533717D01*
X49076961Y79549195D01*
X49088768Y79563880D01*
X49101037Y79577770D01*
X49113770Y79590867D01*
X49126966Y79603170D01*
X49140625Y79614680D01*
X49154747Y79625395D01*
X49169332Y79635317D01*
X49184380Y79644445D01*
X49199891Y79652780D01*
X49215865Y79660320D01*
X49232302Y79667067D01*
X49249203Y79673020D01*
X49266567Y79678180D01*
X49284393Y79682545D01*
X49302683Y79686117D01*
X49302683Y79459634D01*
X49294341Y79457599D01*
X49286247Y79455201D01*
X49278401Y79452439D01*
X49270802Y79449313D01*
X49263452Y79445823D01*
X49256349Y79441970D01*
X49249494Y79437753D01*
X49242888Y79433172D01*
X49236529Y79428228D01*
X49230418Y79422920D01*
X49224556Y79417248D01*
X49218942Y79411213D01*
X49213576Y79404814D01*
X49208458Y79398051D01*
X49203588Y79390924D01*
X49198967Y79383434D01*
X49194865Y79375613D01*
X49191028Y79367494D01*
X49187456Y79359077D01*
X49184148Y79350362D01*
X49181106Y79341350D01*
X49178327Y79332039D01*
X49175814Y79322431D01*
X49173565Y79312526D01*
X49171581Y79302322D01*
X49169862Y79291821D01*
X49168407Y79281023D01*
X49167216Y79269926D01*
X49166290Y79258533D01*
X49165629Y79246842D01*
X49165232Y79234853D01*
X49165100Y79222567D01*
X49165365Y79207444D01*
X49166159Y79192768D01*
X49167482Y79178538D01*
X49169334Y79164755D01*
X49171716Y79151418D01*
X49174626Y79138528D01*
X49178066Y79126085D01*
X49182035Y79114088D01*
X49186533Y79102538D01*
X49191560Y79091434D01*
X49197116Y79080776D01*
X49203202Y79070565D01*
X49209816Y79060800D01*
X49216959Y79051482D01*
X49224632Y79042610D01*
X49232833Y79034184D01*
X49241539Y79026494D01*
X49250724Y79019301D01*
X49260389Y79012604D01*
X49270534Y79006403D01*
X49281158Y79000698D01*
X49292262Y78995489D01*
X49303846Y78990776D01*
X49315909Y78986559D01*
X49328452Y78982838D01*
X49341475Y78979614D01*
X49354977Y78976885D01*
X49368959Y78974653D01*
X49383421Y78972916D01*
X49398362Y78971676D01*
X49413783Y78970932D01*
X49429683Y78970684D01*
X49527050Y78970684D01*
X49681567Y78970684D01*
X49734484Y78970684D01*
X49750393Y78970932D01*
X49765838Y78971676D01*
X49780820Y78972916D01*
X49795340Y78974653D01*
X49809396Y78976885D01*
X49822989Y78979614D01*
X49836118Y78982838D01*
X49848785Y78986559D01*
X49860989Y78990776D01*
X49872729Y78995489D01*
X49884007Y79000698D01*
X49894821Y79006403D01*
X49905173Y79012604D01*
X49915062Y79019301D01*
X49924487Y79026494D01*
X49933450Y79034184D01*
X49941908Y79042602D01*
X49949821Y79051449D01*
X49957188Y79060726D01*
X49964009Y79070434D01*
X49970285Y79080570D01*
X49976015Y79091137D01*
X49981199Y79102134D01*
X49985837Y79113560D01*
X49989930Y79125417D01*
X49993477Y79137703D01*
X49996479Y79150420D01*
X49998934Y79163566D01*
X50000844Y79177142D01*
X50002208Y79191148D01*
X50003027Y79205584D01*
X50003300Y79220451D01*
X50003027Y79235566D01*
X50002208Y79250218D01*
X50000844Y79264406D01*
X49998934Y79278132D01*
X49996479Y79291394D01*
X49993477Y79304193D01*
X49989930Y79316529D01*
X49985837Y79328402D01*
X49981199Y79339812D01*
X49976015Y79350759D01*
X49970285Y79361243D01*
X49964009Y79371264D01*
X49957188Y79380821D01*
X49949821Y79389916D01*
X49941908Y79398548D01*
X49933450Y79406717D01*
X49924495Y79414407D01*
X49915094Y79421600D01*
X49905247Y79428297D01*
X49894953Y79434498D01*
X49884213Y79440204D01*
X49873026Y79445413D01*
X49861392Y79450125D01*
X49849313Y79454342D01*
X49836786Y79458063D01*
X49823813Y79461288D01*
X49810394Y79464016D01*
X49796528Y79466248D01*
X49782216Y79467985D01*
X49767457Y79469225D01*
X49752252Y79469969D01*
X49736600Y79470217D01*
X49683614Y79470217D01*
X49681567Y78970684D01*
X49527050Y78970684D01*
X49527050Y79690351D01*
X49734484Y79690351D01*
X49751532Y79690127D01*
G37*
G36*
X55313876Y93636247D02*
G01*
X55330388Y93635577D01*
X55346618Y93634461D01*
X55362568Y93632898D01*
X55378236Y93630889D01*
X55393623Y93628434D01*
X55408729Y93625532D01*
X55423554Y93622183D01*
X55438098Y93618388D01*
X55452361Y93614147D01*
X55466342Y93609459D01*
X55480043Y93604325D01*
X55493462Y93598744D01*
X55506600Y93592716D01*
X55519457Y93586242D01*
X55532033Y93579322D01*
X55544295Y93572237D01*
X55556209Y93564774D01*
X55567776Y93556932D01*
X55578996Y93548713D01*
X55589869Y93540115D01*
X55600395Y93531138D01*
X55610573Y93521784D01*
X55620404Y93512051D01*
X55629888Y93501940D01*
X55639024Y93491451D01*
X55647813Y93480583D01*
X55656255Y93469337D01*
X55664350Y93457713D01*
X55672097Y93445711D01*
X55679497Y93433330D01*
X55686550Y93420572D01*
X55693214Y93407730D01*
X55699448Y93394607D01*
X55705252Y93381203D01*
X55710627Y93367516D01*
X55715571Y93353548D01*
X55720085Y93339300D01*
X55724170Y93324770D01*
X55727825Y93309959D01*
X55731049Y93294868D01*
X55733844Y93279496D01*
X55736209Y93263844D01*
X55738143Y93247912D01*
X55739648Y93231700D01*
X55740723Y93215208D01*
X55741368Y93198437D01*
X55741583Y93181386D01*
X55741368Y93164305D01*
X55740723Y93147491D01*
X55739648Y93130944D01*
X55738143Y93114663D01*
X55736209Y93098648D01*
X55733844Y93082900D01*
X55731049Y93067419D01*
X55727825Y93052205D01*
X55724170Y93037257D01*
X55720085Y93022575D01*
X55715571Y93008161D01*
X55710627Y92994013D01*
X55705252Y92980131D01*
X55699448Y92966517D01*
X55693214Y92953169D01*
X55686550Y92940088D01*
X55679497Y92927561D01*
X55672097Y92915382D01*
X55664350Y92903550D01*
X55656255Y92892066D01*
X55647813Y92880928D01*
X55639024Y92870138D01*
X55629888Y92859696D01*
X55620404Y92849600D01*
X55610573Y92839852D01*
X55600395Y92830451D01*
X55589869Y92821397D01*
X55578996Y92812691D01*
X55567776Y92804331D01*
X55556209Y92796319D01*
X55544295Y92788655D01*
X55532033Y92781337D01*
X55519457Y92774659D01*
X55506600Y92768414D01*
X55493462Y92762602D01*
X55480043Y92757223D01*
X55466342Y92752277D01*
X55452361Y92747763D01*
X55438098Y92743681D01*
X55423554Y92740030D01*
X55408729Y92736810D01*
X55393623Y92734020D01*
X55378236Y92731661D01*
X55362568Y92729732D01*
X55346618Y92728232D01*
X55330388Y92727161D01*
X55313876Y92726518D01*
X55297083Y92726304D01*
X54979583Y92726304D01*
X54963038Y92726518D01*
X54946742Y92727161D01*
X54930693Y92728232D01*
X54914892Y92729732D01*
X54899340Y92731661D01*
X54884035Y92734020D01*
X54868979Y92736810D01*
X54854171Y92740030D01*
X54839610Y92743681D01*
X54825298Y92747763D01*
X54811234Y92752277D01*
X54797417Y92757223D01*
X54783849Y92762602D01*
X54770529Y92768414D01*
X54757457Y92774659D01*
X54744633Y92781337D01*
X54732372Y92788655D01*
X54720458Y92796319D01*
X54708891Y92804331D01*
X54697671Y92812691D01*
X54686798Y92821397D01*
X54676272Y92830451D01*
X54666094Y92839852D01*
X54656262Y92849600D01*
X54646778Y92859696D01*
X54637641Y92870138D01*
X54628852Y92880928D01*
X54620410Y92892066D01*
X54612315Y92903550D01*
X54604568Y92915382D01*
X54597169Y92927561D01*
X54590116Y92940088D01*
X54583453Y92953169D01*
X54577219Y92966517D01*
X54571415Y92980131D01*
X54566041Y92994013D01*
X54561097Y93008161D01*
X54556582Y93022575D01*
X54552498Y93037257D01*
X54548843Y93052205D01*
X54545618Y93067419D01*
X54542823Y93082900D01*
X54540458Y93098648D01*
X54538523Y93114663D01*
X54537018Y93130944D01*
X54535943Y93147491D01*
X54535298Y93164305D01*
X54535083Y93181386D01*
X54535414Y93204165D01*
X54536406Y93226463D01*
X54538059Y93248281D01*
X54540374Y93269619D01*
X54543350Y93290478D01*
X54546988Y93310856D01*
X54551287Y93330755D01*
X54556248Y93350175D01*
X54561870Y93369116D01*
X54568154Y93387578D01*
X54575099Y93405561D01*
X54582706Y93423066D01*
X54590975Y93440093D01*
X54599905Y93456641D01*
X54609496Y93472712D01*
X54619750Y93488305D01*
X54630828Y93503495D01*
X54642370Y93517859D01*
X54654375Y93531399D01*
X54666844Y93544113D01*
X54679775Y93556002D01*
X54693170Y93567065D01*
X54707027Y93577302D01*
X54721348Y93586713D01*
X54736132Y93595298D01*
X54751379Y93603056D01*
X54767089Y93609988D01*
X54783262Y93616092D01*
X54799897Y93621370D01*
X54816996Y93625820D01*
X54834558Y93629443D01*
X54852583Y93632238D01*
X54852583Y93441737D01*
X54842942Y93439671D01*
X54833599Y93437192D01*
X54824554Y93434301D01*
X54815806Y93430997D01*
X54807357Y93427281D01*
X54799204Y93423153D01*
X54791350Y93418612D01*
X54783793Y93413659D01*
X54776534Y93408293D01*
X54769572Y93402515D01*
X54762908Y93396325D01*
X54756541Y93389722D01*
X54750472Y93382707D01*
X54744700Y93375280D01*
X54739226Y93367440D01*
X54734050Y93359187D01*
X54729436Y93350540D01*
X54725120Y93341564D01*
X54721102Y93332259D01*
X54717381Y93322626D01*
X54713958Y93312663D01*
X54710832Y93302373D01*
X54708005Y93291753D01*
X54705475Y93280805D01*
X54703242Y93269528D01*
X54701307Y93257922D01*
X54699670Y93245988D01*
X54698331Y93233725D01*
X54697289Y93221133D01*
X54696545Y93208213D01*
X54696098Y93194964D01*
X54695950Y93181386D01*
X54696231Y93165471D01*
X54697074Y93150021D01*
X54698479Y93135035D01*
X54700447Y93120514D01*
X54702977Y93106457D01*
X54706069Y93092865D01*
X54709723Y93079736D01*
X54713940Y93067071D01*
X54718719Y93054869D01*
X54724060Y93043131D01*
X54729963Y93031856D01*
X54736429Y93021044D01*
X54743457Y93010694D01*
X54751048Y93000808D01*
X54759201Y92991383D01*
X54767916Y92982421D01*
X54777425Y92973963D01*
X54787429Y92966050D01*
X54797930Y92958683D01*
X54808927Y92951861D01*
X54820420Y92945586D01*
X54832409Y92939856D01*
X54844894Y92934672D01*
X54857875Y92930034D01*
X54871352Y92925941D01*
X54885325Y92922394D01*
X54899795Y92919393D01*
X54914760Y92916937D01*
X54930222Y92915028D01*
X54946179Y92913663D01*
X54962633Y92912845D01*
X54979583Y92912572D01*
X55091766Y92912572D01*
X55235700Y92912572D01*
X55297083Y92912572D01*
X55314033Y92912845D01*
X55330487Y92913663D01*
X55346444Y92915028D01*
X55361906Y92916937D01*
X55376871Y92919393D01*
X55391341Y92922394D01*
X55405314Y92925941D01*
X55418791Y92930034D01*
X55431773Y92934672D01*
X55444258Y92939856D01*
X55456247Y92945586D01*
X55467739Y92951861D01*
X55478736Y92958683D01*
X55489237Y92966050D01*
X55499241Y92973963D01*
X55508750Y92982421D01*
X55517721Y92991383D01*
X55526113Y93000808D01*
X55533926Y93010694D01*
X55541161Y93021044D01*
X55547817Y93031856D01*
X55553894Y93043131D01*
X55559392Y93054869D01*
X55564312Y93067071D01*
X55568653Y93079736D01*
X55572415Y93092865D01*
X55575598Y93106457D01*
X55578203Y93120514D01*
X55580228Y93135035D01*
X55581675Y93150021D01*
X55582544Y93165471D01*
X55582833Y93181386D01*
X55582544Y93197534D01*
X55581675Y93213187D01*
X55580228Y93228343D01*
X55578203Y93243004D01*
X55575598Y93257170D01*
X55572415Y93270840D01*
X55568653Y93284016D01*
X55564312Y93296696D01*
X55559392Y93308883D01*
X55553894Y93320574D01*
X55547817Y93331772D01*
X55541161Y93342476D01*
X55533926Y93352686D01*
X55526113Y93362402D01*
X55517721Y93371625D01*
X55508750Y93380355D01*
X55499241Y93388813D01*
X55489237Y93396726D01*
X55478736Y93404093D01*
X55467739Y93410914D01*
X55456247Y93417190D01*
X55444258Y93422920D01*
X55431773Y93428104D01*
X55418791Y93432743D01*
X55405314Y93436836D01*
X55391341Y93440383D01*
X55376871Y93443384D01*
X55361906Y93445840D01*
X55346444Y93447750D01*
X55330487Y93449115D01*
X55314033Y93449933D01*
X55297083Y93450206D01*
X55235700Y93450206D01*
X55235700Y92912572D01*
X55091766Y92912572D01*
X55091766Y93636470D01*
X55297083Y93636470D01*
X55313876Y93636247D01*
G37*
G36*
X49749672Y88574332D02*
G01*
X49766663Y88573663D01*
X49783341Y88572546D01*
X49799704Y88570984D01*
X49815753Y88568975D01*
X49831488Y88566519D01*
X49846908Y88563617D01*
X49862014Y88560268D01*
X49876806Y88556473D01*
X49891284Y88552232D01*
X49905448Y88547544D01*
X49919297Y88542409D01*
X49932832Y88536828D01*
X49946052Y88530800D01*
X49958958Y88524326D01*
X49971550Y88517406D01*
X49984068Y88510072D01*
X49996223Y88502358D01*
X50008013Y88494264D01*
X50019440Y88485789D01*
X50030503Y88476935D01*
X50041203Y88467700D01*
X50051538Y88458084D01*
X50061510Y88448088D01*
X50071118Y88437712D01*
X50080362Y88426955D01*
X50089242Y88415818D01*
X50097758Y88404300D01*
X50105910Y88392402D01*
X50113699Y88380123D01*
X50121123Y88367463D01*
X50128183Y88354423D01*
X50134847Y88341045D01*
X50141081Y88327371D01*
X50146885Y88313398D01*
X50152259Y88299128D01*
X50157203Y88284560D01*
X50161717Y88269694D01*
X50165802Y88254530D01*
X50169457Y88239069D01*
X50172682Y88223310D01*
X50175476Y88207253D01*
X50177841Y88190898D01*
X50179776Y88174246D01*
X50181282Y88157295D01*
X50182357Y88140047D01*
X50183002Y88122501D01*
X50183217Y88104656D01*
X50183002Y88086814D01*
X50182357Y88069270D01*
X50181282Y88052023D01*
X50179776Y88035074D01*
X50177841Y88018422D01*
X50175476Y88002068D01*
X50172682Y87986011D01*
X50169457Y87970252D01*
X50165802Y87954791D01*
X50161717Y87939627D01*
X50157203Y87924760D01*
X50152259Y87910191D01*
X50146885Y87895920D01*
X50141081Y87881945D01*
X50134847Y87868269D01*
X50128183Y87854889D01*
X50121123Y87841851D01*
X50113699Y87829193D01*
X50105910Y87816915D01*
X50097758Y87805017D01*
X50089242Y87793500D01*
X50080362Y87782362D01*
X50071118Y87771605D01*
X50061510Y87761228D01*
X50051538Y87751232D01*
X50041203Y87741615D01*
X50030503Y87732379D01*
X50019440Y87723524D01*
X50008013Y87715049D01*
X49996223Y87706954D01*
X49984068Y87699239D01*
X49971550Y87691905D01*
X49958958Y87684985D01*
X49946052Y87678511D01*
X49932832Y87672483D01*
X49919297Y87666902D01*
X49905448Y87661767D01*
X49891284Y87657079D01*
X49876806Y87652838D01*
X49862014Y87649043D01*
X49846908Y87645694D01*
X49831488Y87642792D01*
X49815753Y87640336D01*
X49799704Y87638327D01*
X49783341Y87636765D01*
X49766663Y87635648D01*
X49749672Y87634979D01*
X49732367Y87634755D01*
X49431800Y87634755D01*
X49414743Y87634979D01*
X49397968Y87635648D01*
X49381473Y87636765D01*
X49365259Y87638327D01*
X49349326Y87640336D01*
X49333675Y87642792D01*
X49318304Y87645694D01*
X49303214Y87649043D01*
X49288406Y87652838D01*
X49273878Y87657079D01*
X49259632Y87661767D01*
X49245666Y87666902D01*
X49231982Y87672483D01*
X49218579Y87678511D01*
X49205458Y87684985D01*
X49192617Y87691905D01*
X49180099Y87699239D01*
X49167944Y87706954D01*
X49156154Y87715049D01*
X49144727Y87723524D01*
X49133663Y87732379D01*
X49122964Y87741615D01*
X49112629Y87751232D01*
X49102657Y87761228D01*
X49093049Y87771605D01*
X49083805Y87782362D01*
X49074925Y87793500D01*
X49066409Y87805017D01*
X49058256Y87816915D01*
X49050468Y87829193D01*
X49043044Y87841851D01*
X49035983Y87854889D01*
X49029320Y87868269D01*
X49023086Y87881945D01*
X49017282Y87895920D01*
X49011908Y87910191D01*
X49006964Y87924760D01*
X49002449Y87939627D01*
X48998365Y87954791D01*
X48994710Y87970252D01*
X48991485Y87986011D01*
X48988690Y88002068D01*
X48986325Y88018422D01*
X48984390Y88035074D01*
X48982885Y88052023D01*
X48981810Y88069270D01*
X48981165Y88086814D01*
X48980950Y88104656D01*
X49182033Y88104656D01*
X49182281Y88090559D01*
X49183025Y88076842D01*
X49184266Y88063506D01*
X49186002Y88050549D01*
X49188234Y88037974D01*
X49190963Y88025778D01*
X49194187Y88013963D01*
X49197908Y88002528D01*
X49202125Y87991474D01*
X49206838Y87980800D01*
X49212047Y87970506D01*
X49217752Y87960592D01*
X49223953Y87951059D01*
X49230650Y87941905D01*
X49237844Y87933132D01*
X49245533Y87924739D01*
X49253951Y87917050D01*
X49262798Y87909856D01*
X49272076Y87903159D01*
X49281783Y87896958D01*
X49291920Y87891253D01*
X49302487Y87886044D01*
X49313483Y87881331D01*
X49324910Y87877114D01*
X49336766Y87873393D01*
X49349053Y87870169D01*
X49361769Y87867440D01*
X49374915Y87865208D01*
X49388492Y87863471D01*
X49402498Y87862231D01*
X49416934Y87861487D01*
X49431800Y87861239D01*
X49732367Y87861239D01*
X49747482Y87861487D01*
X49762134Y87862231D01*
X49776322Y87863471D01*
X49790048Y87865208D01*
X49803310Y87867440D01*
X49816109Y87870169D01*
X49828445Y87873393D01*
X49840318Y87877114D01*
X49851728Y87881331D01*
X49862675Y87886044D01*
X49873159Y87891253D01*
X49883180Y87896958D01*
X49892738Y87903159D01*
X49901833Y87909856D01*
X49910465Y87917050D01*
X49918634Y87924739D01*
X49926323Y87933132D01*
X49933516Y87941905D01*
X49940214Y87951059D01*
X49946415Y87960592D01*
X49952120Y87970506D01*
X49957329Y87980800D01*
X49962042Y87991474D01*
X49966258Y88002528D01*
X49969979Y88013963D01*
X49973204Y88025778D01*
X49975932Y88037974D01*
X49978165Y88050549D01*
X49979901Y88063506D01*
X49981141Y88076842D01*
X49981885Y88090559D01*
X49982133Y88104656D01*
X49981885Y88119002D01*
X49981141Y88132935D01*
X49979901Y88146454D01*
X49978165Y88159559D01*
X49975932Y88172251D01*
X49973204Y88184529D01*
X49969979Y88196394D01*
X49966258Y88207845D01*
X49962042Y88218883D01*
X49957329Y88229507D01*
X49952120Y88239718D01*
X49946415Y88249516D01*
X49940214Y88258900D01*
X49933516Y88267871D01*
X49926323Y88276429D01*
X49918634Y88284573D01*
X49910465Y88292262D01*
X49901833Y88299456D01*
X49892738Y88306153D01*
X49883180Y88312354D01*
X49873159Y88318059D01*
X49862675Y88323268D01*
X49851728Y88327981D01*
X49840318Y88332198D01*
X49828445Y88335918D01*
X49816109Y88339143D01*
X49803310Y88341871D01*
X49790048Y88344104D01*
X49776322Y88345840D01*
X49762134Y88347080D01*
X49747482Y88347824D01*
X49732367Y88348072D01*
X49431800Y88348072D01*
X49416934Y88347824D01*
X49402498Y88347080D01*
X49388492Y88345840D01*
X49374915Y88344104D01*
X49361769Y88341871D01*
X49349053Y88339143D01*
X49336766Y88335918D01*
X49324910Y88332198D01*
X49313483Y88327981D01*
X49302487Y88323268D01*
X49291920Y88318059D01*
X49281783Y88312354D01*
X49272076Y88306153D01*
X49262798Y88299456D01*
X49253951Y88292262D01*
X49245533Y88284573D01*
X49237844Y88276429D01*
X49230650Y88267871D01*
X49223953Y88258900D01*
X49217752Y88249516D01*
X49212047Y88239718D01*
X49206838Y88229507D01*
X49202125Y88218883D01*
X49197908Y88207845D01*
X49194187Y88196394D01*
X49190963Y88184529D01*
X49188234Y88172251D01*
X49186002Y88159559D01*
X49184266Y88146454D01*
X49183025Y88132935D01*
X49182281Y88119002D01*
X49182033Y88104656D01*
X48980950Y88104656D01*
X48981165Y88122501D01*
X48981810Y88140047D01*
X48982885Y88157295D01*
X48984390Y88174246D01*
X48986325Y88190898D01*
X48988690Y88207253D01*
X48991485Y88223310D01*
X48994710Y88239069D01*
X48998365Y88254530D01*
X49002449Y88269694D01*
X49006964Y88284560D01*
X49011908Y88299128D01*
X49017282Y88313398D01*
X49023086Y88327371D01*
X49029320Y88341045D01*
X49035983Y88354423D01*
X49043044Y88367463D01*
X49050468Y88380123D01*
X49058256Y88392402D01*
X49066409Y88404300D01*
X49074925Y88415818D01*
X49083805Y88426955D01*
X49093049Y88437712D01*
X49102657Y88448088D01*
X49112629Y88458084D01*
X49122964Y88467700D01*
X49133663Y88476935D01*
X49144727Y88485789D01*
X49156154Y88494264D01*
X49167944Y88502358D01*
X49180099Y88510072D01*
X49192617Y88517406D01*
X49205458Y88524326D01*
X49218579Y88530800D01*
X49231982Y88536828D01*
X49245666Y88542409D01*
X49259632Y88547544D01*
X49273878Y88552232D01*
X49288406Y88556473D01*
X49303214Y88560268D01*
X49318304Y88563617D01*
X49333675Y88566519D01*
X49349326Y88568975D01*
X49365259Y88570984D01*
X49381473Y88572546D01*
X49397968Y88573663D01*
X49414743Y88574332D01*
X49431800Y88574556D01*
X49732367Y88574556D01*
X49749672Y88574332D01*
G37*
G36*
X49749672Y83497640D02*
G01*
X49766663Y83496971D01*
X49783341Y83495854D01*
X49799704Y83494292D01*
X49815753Y83492282D01*
X49831488Y83489827D01*
X49846908Y83486925D01*
X49862014Y83483576D01*
X49876806Y83479781D01*
X49891284Y83475539D01*
X49905448Y83470851D01*
X49919297Y83465717D01*
X49932832Y83460136D01*
X49946052Y83454108D01*
X49958958Y83447634D01*
X49971550Y83440714D01*
X49984068Y83433380D01*
X49996223Y83425666D01*
X50008013Y83417571D01*
X50019440Y83409097D01*
X50030503Y83400242D01*
X50041203Y83391007D01*
X50051538Y83381392D01*
X50061510Y83371396D01*
X50071118Y83361020D01*
X50080362Y83350263D01*
X50089242Y83339125D01*
X50097758Y83327608D01*
X50105910Y83315709D01*
X50113699Y83303430D01*
X50121123Y83290770D01*
X50128183Y83277730D01*
X50134847Y83264353D01*
X50141081Y83250678D01*
X50146885Y83236705D01*
X50152259Y83222435D01*
X50157203Y83207867D01*
X50161717Y83193001D01*
X50165802Y83177838D01*
X50169457Y83162377D01*
X50172682Y83146617D01*
X50175476Y83130560D01*
X50177841Y83114206D01*
X50179776Y83097553D01*
X50181282Y83080602D01*
X50182357Y83063354D01*
X50183002Y83045807D01*
X50183217Y83027963D01*
X50183002Y83010121D01*
X50182357Y82992577D01*
X50181282Y82975330D01*
X50179776Y82958381D01*
X50177841Y82941729D01*
X50175476Y82925375D01*
X50172682Y82909319D01*
X50169457Y82893560D01*
X50165802Y82878098D01*
X50161717Y82862934D01*
X50157203Y82848068D01*
X50152259Y82833499D01*
X50146885Y82819227D01*
X50141081Y82805253D01*
X50134847Y82791576D01*
X50128183Y82778197D01*
X50121123Y82765158D01*
X50113699Y82752500D01*
X50105910Y82740222D01*
X50097758Y82728325D01*
X50089242Y82716807D01*
X50080362Y82705670D01*
X50071118Y82694913D01*
X50061510Y82684536D01*
X50051538Y82674539D01*
X50041203Y82664923D01*
X50030503Y82655687D01*
X50019440Y82646832D01*
X50008013Y82638356D01*
X49996223Y82630262D01*
X49984068Y82622547D01*
X49971550Y82615213D01*
X49958958Y82608293D01*
X49946052Y82601819D01*
X49932832Y82595791D01*
X49919297Y82590210D01*
X49905448Y82585076D01*
X49891284Y82580388D01*
X49876806Y82576146D01*
X49862014Y82572351D01*
X49846908Y82569002D01*
X49831488Y82566100D01*
X49815753Y82563644D01*
X49799704Y82561635D01*
X49783341Y82560072D01*
X49766663Y82558956D01*
X49749672Y82558286D01*
X49732367Y82558063D01*
X49431800Y82558063D01*
X49414743Y82558286D01*
X49397968Y82558956D01*
X49381473Y82560072D01*
X49365259Y82561635D01*
X49349326Y82563644D01*
X49333675Y82566100D01*
X49318304Y82569002D01*
X49303214Y82572351D01*
X49288406Y82576146D01*
X49273878Y82580388D01*
X49259632Y82585076D01*
X49245666Y82590210D01*
X49231982Y82595791D01*
X49218579Y82601819D01*
X49205458Y82608293D01*
X49192617Y82615213D01*
X49180099Y82622547D01*
X49167944Y82630262D01*
X49156154Y82638356D01*
X49144727Y82646832D01*
X49133663Y82655687D01*
X49122964Y82664923D01*
X49112629Y82674539D01*
X49102657Y82684536D01*
X49093049Y82694913D01*
X49083805Y82705670D01*
X49074925Y82716807D01*
X49066409Y82728325D01*
X49058256Y82740222D01*
X49050468Y82752500D01*
X49043044Y82765158D01*
X49035983Y82778197D01*
X49029320Y82791576D01*
X49023086Y82805253D01*
X49017282Y82819227D01*
X49011908Y82833499D01*
X49006964Y82848068D01*
X49002449Y82862934D01*
X48998365Y82878098D01*
X48994710Y82893560D01*
X48991485Y82909319D01*
X48988690Y82925375D01*
X48986325Y82941729D01*
X48984390Y82958381D01*
X48982885Y82975330D01*
X48981810Y82992577D01*
X48981165Y83010121D01*
X48980950Y83027963D01*
X49182033Y83027963D01*
X49182281Y83013866D01*
X49183025Y83000149D01*
X49184266Y82986812D01*
X49186002Y82973856D01*
X49188234Y82961281D01*
X49190963Y82949085D01*
X49194187Y82937270D01*
X49197908Y82925836D01*
X49202125Y82914781D01*
X49206838Y82904107D01*
X49212047Y82893813D01*
X49217752Y82883900D01*
X49223953Y82874366D01*
X49230650Y82865213D01*
X49237844Y82856440D01*
X49245533Y82848047D01*
X49253951Y82840357D01*
X49262798Y82833164D01*
X49272076Y82826467D01*
X49281783Y82820265D01*
X49291920Y82814560D01*
X49302487Y82809351D01*
X49313483Y82804638D01*
X49324910Y82800422D01*
X49336766Y82796701D01*
X49349053Y82793476D01*
X49361769Y82790748D01*
X49374915Y82788515D01*
X49388492Y82786779D01*
X49402498Y82785539D01*
X49416934Y82784795D01*
X49431800Y82784547D01*
X49732367Y82784547D01*
X49747482Y82784795D01*
X49762134Y82785539D01*
X49776322Y82786779D01*
X49790048Y82788515D01*
X49803310Y82790748D01*
X49816109Y82793476D01*
X49828445Y82796701D01*
X49840318Y82800422D01*
X49851728Y82804638D01*
X49862675Y82809351D01*
X49873159Y82814560D01*
X49883180Y82820265D01*
X49892738Y82826467D01*
X49901833Y82833164D01*
X49910465Y82840357D01*
X49918634Y82848047D01*
X49926323Y82856440D01*
X49933516Y82865213D01*
X49940214Y82874366D01*
X49946415Y82883900D01*
X49952120Y82893813D01*
X49957329Y82904107D01*
X49962042Y82914781D01*
X49966258Y82925836D01*
X49969979Y82937270D01*
X49973204Y82949085D01*
X49975932Y82961281D01*
X49978165Y82973856D01*
X49979901Y82986812D01*
X49981141Y83000149D01*
X49981885Y83013866D01*
X49982133Y83027963D01*
X49981885Y83042309D01*
X49981141Y83056242D01*
X49979901Y83069761D01*
X49978165Y83082866D01*
X49975932Y83095558D01*
X49973204Y83107836D01*
X49969979Y83119701D01*
X49966258Y83131152D01*
X49962042Y83142190D01*
X49957329Y83152815D01*
X49952120Y83163026D01*
X49946415Y83172823D01*
X49940214Y83182207D01*
X49933516Y83191178D01*
X49926323Y83199736D01*
X49918634Y83207880D01*
X49910465Y83215569D01*
X49901833Y83222763D01*
X49892738Y83229460D01*
X49883180Y83235661D01*
X49873159Y83241366D01*
X49862675Y83246575D01*
X49851728Y83251288D01*
X49840318Y83255505D01*
X49828445Y83259225D01*
X49816109Y83262450D01*
X49803310Y83265178D01*
X49790048Y83267411D01*
X49776322Y83269147D01*
X49762134Y83270388D01*
X49747482Y83271132D01*
X49732367Y83271380D01*
X49431800Y83271380D01*
X49416934Y83271132D01*
X49402498Y83270388D01*
X49388492Y83269147D01*
X49374915Y83267411D01*
X49361769Y83265178D01*
X49349053Y83262450D01*
X49336766Y83259225D01*
X49324910Y83255505D01*
X49313483Y83251288D01*
X49302487Y83246575D01*
X49291920Y83241366D01*
X49281783Y83235661D01*
X49272076Y83229460D01*
X49262798Y83222763D01*
X49253951Y83215569D01*
X49245533Y83207880D01*
X49237844Y83199736D01*
X49230650Y83191178D01*
X49223953Y83182207D01*
X49217752Y83172823D01*
X49212047Y83163026D01*
X49206838Y83152815D01*
X49202125Y83142190D01*
X49197908Y83131152D01*
X49194187Y83119701D01*
X49190963Y83107836D01*
X49188234Y83095558D01*
X49186002Y83082866D01*
X49184266Y83069761D01*
X49183025Y83056242D01*
X49182281Y83042309D01*
X49182033Y83027963D01*
X48980950Y83027963D01*
X48981165Y83045807D01*
X48981810Y83063354D01*
X48982885Y83080602D01*
X48984390Y83097553D01*
X48986325Y83114206D01*
X48988690Y83130560D01*
X48991485Y83146617D01*
X48994710Y83162377D01*
X48998365Y83177838D01*
X49002449Y83193001D01*
X49006964Y83207867D01*
X49011908Y83222435D01*
X49017282Y83236705D01*
X49023086Y83250678D01*
X49029320Y83264353D01*
X49035983Y83277730D01*
X49043044Y83290770D01*
X49050468Y83303430D01*
X49058256Y83315709D01*
X49066409Y83327608D01*
X49074925Y83339125D01*
X49083805Y83350263D01*
X49093049Y83361020D01*
X49102657Y83371396D01*
X49112629Y83381392D01*
X49122964Y83391007D01*
X49133663Y83400242D01*
X49144727Y83409097D01*
X49156154Y83417571D01*
X49167944Y83425666D01*
X49180099Y83433380D01*
X49192617Y83440714D01*
X49205458Y83447634D01*
X49218579Y83454108D01*
X49231982Y83460136D01*
X49245666Y83465717D01*
X49259632Y83470851D01*
X49273878Y83475539D01*
X49288406Y83479781D01*
X49303214Y83483576D01*
X49318304Y83486925D01*
X49333675Y83489827D01*
X49349326Y83492282D01*
X49365259Y83494292D01*
X49381473Y83495854D01*
X49397968Y83496971D01*
X49414743Y83497640D01*
X49431800Y83497864D01*
X49732367Y83497864D01*
X49749672Y83497640D01*
G37*
G36*
X55684813Y86031753D02*
G01*
X55701829Y86031083D01*
X55718548Y86029967D01*
X55734968Y86028404D01*
X55751091Y86026395D01*
X55766917Y86023939D01*
X55782445Y86021037D01*
X55797675Y86017689D01*
X55812607Y86013894D01*
X55827242Y86009652D01*
X55841579Y86004964D01*
X55855618Y85999829D01*
X55869360Y85994248D01*
X55882804Y85988221D01*
X55895951Y85981747D01*
X55908800Y85974826D01*
X55921318Y85967500D01*
X55933472Y85959811D01*
X55945263Y85951758D01*
X55956689Y85943341D01*
X55967752Y85934561D01*
X55978451Y85925416D01*
X55988787Y85915908D01*
X55998758Y85906036D01*
X56008366Y85895800D01*
X56017610Y85885200D01*
X56026490Y85874237D01*
X56035006Y85862909D01*
X56043158Y85851218D01*
X56050947Y85839162D01*
X56058372Y85826743D01*
X56065433Y85813959D01*
X56072354Y85800839D01*
X56078828Y85787405D01*
X56084855Y85773656D01*
X56090436Y85759592D01*
X56095571Y85745215D01*
X56100259Y85730523D01*
X56104500Y85715516D01*
X56108296Y85700195D01*
X56111644Y85684560D01*
X56114546Y85668610D01*
X56117002Y85652346D01*
X56119011Y85635768D01*
X56120574Y85618875D01*
X56121690Y85601668D01*
X56122360Y85584146D01*
X56122583Y85566310D01*
X56122360Y85548725D01*
X56121690Y85531421D01*
X56120574Y85514398D01*
X56119011Y85497656D01*
X56117002Y85481194D01*
X56114546Y85465014D01*
X56111644Y85449114D01*
X56108296Y85433496D01*
X56104500Y85418158D01*
X56100259Y85403101D01*
X56095571Y85388325D01*
X56090436Y85373831D01*
X56084855Y85359617D01*
X56078828Y85345683D01*
X56072354Y85332031D01*
X56065433Y85318660D01*
X56058372Y85305879D01*
X56050947Y85293461D01*
X56043158Y85281407D01*
X56035006Y85269716D01*
X56026490Y85258388D01*
X56017610Y85247425D01*
X56008366Y85236824D01*
X55998758Y85226588D01*
X55988787Y85216715D01*
X55978451Y85207206D01*
X55967752Y85198061D01*
X55956689Y85189279D01*
X55945263Y85180862D01*
X55933472Y85172808D01*
X55921318Y85165118D01*
X55908800Y85157792D01*
X55895951Y85150872D01*
X55882804Y85144398D01*
X55869360Y85138371D01*
X55855618Y85132790D01*
X55841579Y85127655D01*
X55827242Y85122967D01*
X55812607Y85118725D01*
X55797675Y85114930D01*
X55782445Y85111581D01*
X55766917Y85108679D01*
X55751091Y85106224D01*
X55734968Y85104214D01*
X55718548Y85102652D01*
X55701829Y85101535D01*
X55684813Y85100866D01*
X55667500Y85100642D01*
X54990166Y85100642D01*
X54973101Y85100866D01*
X54956300Y85101535D01*
X54939763Y85102652D01*
X54923492Y85104214D01*
X54907484Y85106224D01*
X54891742Y85108679D01*
X54876264Y85111581D01*
X54861050Y85114930D01*
X54846101Y85118725D01*
X54831417Y85122967D01*
X54816997Y85127655D01*
X54802842Y85132790D01*
X54788951Y85138371D01*
X54775325Y85144398D01*
X54761963Y85150872D01*
X54748866Y85157792D01*
X54736340Y85165118D01*
X54724161Y85172808D01*
X54712329Y85180862D01*
X54700845Y85189279D01*
X54689707Y85198061D01*
X54678917Y85207206D01*
X54668474Y85216715D01*
X54658379Y85226588D01*
X54648631Y85236824D01*
X54639230Y85247425D01*
X54630176Y85258388D01*
X54621470Y85269716D01*
X54613110Y85281407D01*
X54605099Y85293461D01*
X54597434Y85305879D01*
X54590116Y85318660D01*
X54583453Y85332031D01*
X54577219Y85345683D01*
X54571415Y85359617D01*
X54566041Y85373831D01*
X54561097Y85388325D01*
X54556582Y85403101D01*
X54552498Y85418158D01*
X54548843Y85433496D01*
X54545618Y85449114D01*
X54542823Y85465014D01*
X54540458Y85481194D01*
X54538523Y85497656D01*
X54537018Y85514398D01*
X54535943Y85531421D01*
X54535298Y85548725D01*
X54535083Y85566310D01*
X54698066Y85566310D01*
X54698381Y85550625D01*
X54699323Y85535321D01*
X54700895Y85520397D01*
X54703094Y85505853D01*
X54705922Y85491690D01*
X54709379Y85477907D01*
X54713463Y85464504D01*
X54718176Y85451482D01*
X54723518Y85438840D01*
X54729488Y85426578D01*
X54736086Y85414697D01*
X54743312Y85403196D01*
X54751167Y85392075D01*
X54759650Y85381334D01*
X54768761Y85370973D01*
X54778500Y85360993D01*
X54789000Y85351765D01*
X54799865Y85343133D01*
X54811093Y85335096D01*
X54822685Y85327655D01*
X54834641Y85320809D01*
X54846961Y85314558D01*
X54859644Y85308902D01*
X54872691Y85303842D01*
X54886102Y85299377D01*
X54899877Y85295508D01*
X54914016Y85292234D01*
X54928518Y85289555D01*
X54943385Y85287471D01*
X54958615Y85285983D01*
X54974209Y85285090D01*
X54990166Y85284792D01*
X55667500Y85284792D01*
X55683449Y85285090D01*
X55699018Y85285983D01*
X55714207Y85287471D01*
X55729016Y85289555D01*
X55743444Y85292234D01*
X55757491Y85295508D01*
X55771159Y85299377D01*
X55784446Y85303842D01*
X55797353Y85308902D01*
X55809879Y85314558D01*
X55822025Y85320809D01*
X55833791Y85327655D01*
X55845176Y85335096D01*
X55856181Y85343133D01*
X55866805Y85351765D01*
X55877050Y85360993D01*
X55887046Y85370973D01*
X55896397Y85381334D01*
X55905104Y85392075D01*
X55913165Y85403196D01*
X55920582Y85414697D01*
X55927354Y85426578D01*
X55933480Y85438840D01*
X55938962Y85451482D01*
X55943799Y85464504D01*
X55947991Y85477907D01*
X55951538Y85491690D01*
X55954440Y85505853D01*
X55956698Y85520397D01*
X55958310Y85535321D01*
X55959277Y85550625D01*
X55959600Y85566310D01*
X55959277Y85581987D01*
X55958310Y85597266D01*
X55956698Y85612149D01*
X55954440Y85626635D01*
X55951538Y85640724D01*
X55947991Y85654416D01*
X55943799Y85667712D01*
X55938962Y85680610D01*
X55933480Y85693111D01*
X55927354Y85705216D01*
X55920582Y85716924D01*
X55913165Y85728235D01*
X55905104Y85739149D01*
X55896397Y85749666D01*
X55887046Y85759786D01*
X55877050Y85769510D01*
X55866805Y85778994D01*
X55856181Y85787866D01*
X55845176Y85796126D01*
X55833791Y85803775D01*
X55822025Y85810811D01*
X55809879Y85817235D01*
X55797353Y85823048D01*
X55784446Y85828248D01*
X55771159Y85832837D01*
X55757491Y85836814D01*
X55743444Y85840179D01*
X55729016Y85842932D01*
X55714207Y85845073D01*
X55699018Y85846603D01*
X55683449Y85847520D01*
X55667500Y85847826D01*
X54990166Y85847826D01*
X54974209Y85847520D01*
X54958615Y85846603D01*
X54943385Y85845073D01*
X54928518Y85842932D01*
X54914016Y85840179D01*
X54899877Y85836814D01*
X54886102Y85832837D01*
X54872691Y85828248D01*
X54859644Y85823048D01*
X54846961Y85817235D01*
X54834641Y85810811D01*
X54822685Y85803775D01*
X54811093Y85796126D01*
X54799865Y85787866D01*
X54789000Y85778994D01*
X54778500Y85769510D01*
X54768761Y85759786D01*
X54759650Y85749666D01*
X54751167Y85739149D01*
X54743312Y85728235D01*
X54736086Y85716924D01*
X54729488Y85705216D01*
X54723518Y85693111D01*
X54718176Y85680610D01*
X54713463Y85667712D01*
X54709379Y85654416D01*
X54705922Y85640724D01*
X54703094Y85626635D01*
X54700895Y85612149D01*
X54699323Y85597266D01*
X54698381Y85581987D01*
X54698066Y85566310D01*
X54535083Y85566310D01*
X54535298Y85583889D01*
X54535943Y85601170D01*
X54537018Y85618154D01*
X54538523Y85634840D01*
X54540458Y85651228D01*
X54542823Y85667319D01*
X54545618Y85683111D01*
X54548843Y85698606D01*
X54552498Y85713803D01*
X54556582Y85728703D01*
X54561097Y85743304D01*
X54566041Y85757607D01*
X54571415Y85771613D01*
X54577219Y85785321D01*
X54583453Y85798730D01*
X54590116Y85811842D01*
X54597434Y85824883D01*
X54605099Y85837543D01*
X54613110Y85849822D01*
X54621470Y85861720D01*
X54630176Y85873238D01*
X54639230Y85884375D01*
X54648631Y85895132D01*
X54658379Y85905509D01*
X54668474Y85915504D01*
X54678917Y85925120D01*
X54689707Y85934355D01*
X54700845Y85943210D01*
X54712329Y85951684D01*
X54724161Y85959778D01*
X54736340Y85967492D01*
X54748866Y85974826D01*
X54761963Y85981747D01*
X54775325Y85988221D01*
X54788951Y85994248D01*
X54802842Y85999829D01*
X54816997Y86004964D01*
X54831417Y86009652D01*
X54846101Y86013894D01*
X54861050Y86017689D01*
X54876264Y86021037D01*
X54891742Y86023939D01*
X54907484Y86026395D01*
X54923492Y86028404D01*
X54939763Y86029967D01*
X54956300Y86031083D01*
X54973101Y86031753D01*
X54990166Y86031976D01*
X55667500Y86031976D01*
X55684813Y86031753D01*
G37*
G36*
X49818059Y97449836D02*
G01*
X49839656Y97448422D01*
X49860658Y97446066D01*
X49881064Y97442767D01*
X49900874Y97438525D01*
X49920089Y97433341D01*
X49938709Y97427214D01*
X49956733Y97420145D01*
X49974162Y97412133D01*
X49990996Y97403178D01*
X50007234Y97393281D01*
X50022878Y97382442D01*
X50037926Y97370660D01*
X50052379Y97357935D01*
X50066237Y97344268D01*
X50079500Y97329658D01*
X50092315Y97314237D01*
X50104303Y97298138D01*
X50115465Y97281359D01*
X50125800Y97263903D01*
X50135308Y97245768D01*
X50143990Y97226955D01*
X50151845Y97207464D01*
X50158873Y97187296D01*
X50165075Y97166450D01*
X50170449Y97144926D01*
X50174997Y97122726D01*
X50178718Y97099849D01*
X50181612Y97076295D01*
X50183679Y97052064D01*
X50184920Y97027158D01*
X50185333Y97001575D01*
X50184969Y96977747D01*
X50183878Y96954433D01*
X50182059Y96931634D01*
X50179512Y96909349D01*
X50176237Y96887577D01*
X50172235Y96866320D01*
X50167506Y96845576D01*
X50162048Y96825346D01*
X50155864Y96805628D01*
X50148951Y96786424D01*
X50141311Y96767732D01*
X50132944Y96749553D01*
X50123849Y96731887D01*
X50114027Y96714732D01*
X50103477Y96698089D01*
X50092200Y96681958D01*
X50080311Y96666768D01*
X50067926Y96652403D01*
X50055044Y96638863D01*
X50041666Y96626149D01*
X50027792Y96614260D01*
X50013421Y96603197D01*
X49998554Y96592960D01*
X49983192Y96583549D01*
X49967333Y96574964D01*
X49950978Y96567206D01*
X49934127Y96560275D01*
X49916780Y96554170D01*
X49898937Y96548893D01*
X49880598Y96544442D01*
X49861764Y96540819D01*
X49842434Y96538024D01*
X49842434Y96762389D01*
X49850792Y96763912D01*
X49858935Y96765850D01*
X49866864Y96768203D01*
X49874578Y96770971D01*
X49882077Y96774153D01*
X49889361Y96777750D01*
X49896430Y96781762D01*
X49903284Y96786187D01*
X49909924Y96791026D01*
X49916348Y96796279D01*
X49922558Y96801946D01*
X49928553Y96808026D01*
X49934333Y96814519D01*
X49939898Y96821425D01*
X49945248Y96828743D01*
X49950384Y96836475D01*
X49955509Y96844536D01*
X49960304Y96852845D01*
X49964769Y96861403D01*
X49968902Y96870208D01*
X49972706Y96879262D01*
X49976178Y96888564D01*
X49979320Y96898114D01*
X49982132Y96907912D01*
X49984613Y96917958D01*
X49986763Y96928252D01*
X49988582Y96938794D01*
X49990070Y96949584D01*
X49991228Y96960623D01*
X49992055Y96971909D01*
X49992551Y96983443D01*
X49992717Y96995225D01*
X49992510Y97008528D01*
X49991890Y97021449D01*
X49990857Y97033990D01*
X49989410Y97046150D01*
X49987550Y97057930D01*
X49985277Y97069329D01*
X49982590Y97080348D01*
X49979489Y97090986D01*
X49975976Y97101246D01*
X49972048Y97111125D01*
X49967707Y97120625D01*
X49962953Y97129746D01*
X49957785Y97138488D01*
X49952204Y97146851D01*
X49946209Y97154835D01*
X49939800Y97162441D01*
X49933019Y97169625D01*
X49925908Y97176344D01*
X49918466Y97182599D01*
X49910694Y97188389D01*
X49902591Y97193714D01*
X49894157Y97198576D01*
X49885393Y97202973D01*
X49876298Y97206907D01*
X49866873Y97210377D01*
X49857117Y97213384D01*
X49847030Y97215927D01*
X49836612Y97218008D01*
X49825864Y97219626D01*
X49814785Y97220782D01*
X49803375Y97221475D01*
X49791634Y97221706D01*
X49683683Y97221706D01*
X49683683Y96897857D01*
X49683311Y96873845D01*
X49682195Y96850475D01*
X49680334Y96827748D01*
X49677730Y96805663D01*
X49674381Y96784222D01*
X49670289Y96763425D01*
X49665452Y96743271D01*
X49659871Y96723763D01*
X49653545Y96704899D01*
X49646476Y96686680D01*
X49638663Y96669107D01*
X49630105Y96652181D01*
X49620803Y96635900D01*
X49610758Y96620267D01*
X49599968Y96605280D01*
X49588433Y96590942D01*
X49576511Y96577606D01*
X49564027Y96565132D01*
X49550980Y96553519D01*
X49537371Y96542768D01*
X49523199Y96532878D01*
X49508465Y96523850D01*
X49493169Y96515682D01*
X49477310Y96508374D01*
X49460889Y96501927D01*
X49443906Y96496341D01*
X49426360Y96491614D01*
X49408253Y96487747D01*
X49389583Y96484740D01*
X49370351Y96482592D01*
X49350556Y96481304D01*
X49347133Y96481232D01*
X49330200Y96480874D01*
X49310092Y96481279D01*
X49290514Y96482493D01*
X49271464Y96484517D01*
X49252944Y96487350D01*
X49234952Y96490994D01*
X49217490Y96495448D01*
X49200556Y96500712D01*
X49184152Y96506787D01*
X49168277Y96513673D01*
X49152930Y96521369D01*
X49138113Y96529877D01*
X49123826Y96539196D01*
X49110067Y96549327D01*
X49096838Y96560269D01*
X49084138Y96572024D01*
X49071967Y96584590D01*
X49060690Y96598110D01*
X49050140Y96612229D01*
X49040318Y96626944D01*
X49031223Y96642258D01*
X49022855Y96658167D01*
X49015215Y96674674D01*
X49008303Y96691776D01*
X49002118Y96709474D01*
X48996661Y96727767D01*
X48991931Y96746656D01*
X48987929Y96766138D01*
X48984655Y96786215D01*
X48982108Y96806886D01*
X48980289Y96828150D01*
X48979197Y96850007D01*
X48978833Y96872457D01*
X48979123Y96892324D01*
X48979991Y96911692D01*
X48981438Y96930562D01*
X48982500Y96940191D01*
X49154517Y96940191D01*
X49154715Y96926878D01*
X49155311Y96913929D01*
X49156303Y96901343D01*
X49157692Y96889120D01*
X49159478Y96877260D01*
X49161661Y96865765D01*
X49164240Y96854633D01*
X49167217Y96843866D01*
X49170590Y96833462D01*
X49174361Y96823424D01*
X49178528Y96813750D01*
X49183092Y96804441D01*
X49188053Y96795497D01*
X49193411Y96786918D01*
X49199166Y96778705D01*
X49205317Y96770858D01*
X49212073Y96763432D01*
X49219110Y96756484D01*
X49226427Y96750014D01*
X49234026Y96744021D01*
X49241906Y96738507D01*
X49250066Y96733472D01*
X49258508Y96728915D01*
X49267231Y96724837D01*
X49276235Y96721238D01*
X49285520Y96718118D01*
X49295086Y96715477D01*
X49304933Y96713317D01*
X49315061Y96711636D01*
X49325471Y96710435D01*
X49336161Y96709714D01*
X49347133Y96709474D01*
X49357577Y96709672D01*
X49367739Y96710268D01*
X49377620Y96711260D01*
X49387220Y96712649D01*
X49396539Y96714435D01*
X49405576Y96716618D01*
X49414332Y96719197D01*
X49422807Y96722174D01*
X49431001Y96725547D01*
X49438914Y96729318D01*
X49446545Y96733485D01*
X49453895Y96738049D01*
X49460964Y96743010D01*
X49467752Y96748368D01*
X49474258Y96754123D01*
X49480483Y96760274D01*
X49486378Y96767037D01*
X49491892Y96774078D01*
X49497026Y96781399D01*
X49501780Y96789000D01*
X49506154Y96796881D01*
X49510148Y96805041D01*
X49513761Y96813482D01*
X49516994Y96822203D01*
X49519847Y96831205D01*
X49522319Y96840487D01*
X49524412Y96850051D01*
X49526123Y96859895D01*
X49527455Y96870021D01*
X49528406Y96880429D01*
X49528977Y96891118D01*
X49529167Y96902089D01*
X49529167Y97221706D01*
X49376767Y97221706D01*
X49364727Y97221391D01*
X49352953Y97220447D01*
X49341443Y97218874D01*
X49330198Y97216673D01*
X49319218Y97213842D01*
X49308502Y97210384D01*
X49298051Y97206297D01*
X49287865Y97201582D01*
X49277943Y97196239D01*
X49268286Y97190268D01*
X49258894Y97183670D01*
X49249766Y97176445D01*
X49240903Y97168593D01*
X49232304Y97160113D01*
X49223970Y97151007D01*
X49215900Y97141275D01*
X49208468Y97131305D01*
X49201515Y97120990D01*
X49195041Y97110331D01*
X49189047Y97099326D01*
X49183532Y97087975D01*
X49178496Y97076279D01*
X49173941Y97064236D01*
X49169864Y97051846D01*
X49166267Y97039108D01*
X49163150Y97026023D01*
X49160512Y97012590D01*
X49158354Y96998809D01*
X49156675Y96984679D01*
X49155476Y96970199D01*
X49154757Y96955370D01*
X49154517Y96940191D01*
X48982500Y96940191D01*
X48983464Y96948934D01*
X48986069Y96966808D01*
X48989252Y96984185D01*
X48993015Y97001065D01*
X48997356Y97017449D01*
X49002276Y97033336D01*
X49007774Y97048728D01*
X49013851Y97063625D01*
X49020507Y97078026D01*
X49027742Y97091933D01*
X49035555Y97105346D01*
X49043947Y97118265D01*
X49052917Y97130691D01*
X49062641Y97142488D01*
X49072761Y97153524D01*
X49083278Y97163796D01*
X49094192Y97173307D01*
X49105503Y97182056D01*
X49117211Y97190043D01*
X49129315Y97197268D01*
X49141817Y97203732D01*
X49154715Y97209435D01*
X49168011Y97214377D01*
X49181703Y97218558D01*
X49195792Y97221978D01*
X49210278Y97224638D01*
X49213783Y97225085D01*
X49213783Y97228057D01*
X49000000Y97228057D01*
X49000000Y97450307D01*
X49795867Y97450307D01*
X49818059Y97449836D01*
G37*
G36*
X49818059Y93642350D02*
G01*
X49839656Y93640936D01*
X49860658Y93638580D01*
X49881064Y93635281D01*
X49900874Y93631039D01*
X49920089Y93625855D01*
X49938709Y93619728D01*
X49956733Y93612659D01*
X49974162Y93604647D01*
X49990996Y93595692D01*
X50007234Y93585795D01*
X50022878Y93574955D01*
X50037926Y93563173D01*
X50052379Y93550448D01*
X50066237Y93536781D01*
X50079500Y93522170D01*
X50092315Y93506750D01*
X50104303Y93490650D01*
X50115465Y93473872D01*
X50125800Y93456415D01*
X50135308Y93438280D01*
X50143990Y93419468D01*
X50151845Y93399977D01*
X50158873Y93379808D01*
X50165075Y93358962D01*
X50170449Y93337439D01*
X50174997Y93315239D01*
X50178718Y93292361D01*
X50181612Y93268807D01*
X50183679Y93244577D01*
X50184920Y93219670D01*
X50185333Y93194087D01*
X50184969Y93170259D01*
X50183878Y93146946D01*
X50182059Y93124147D01*
X50179512Y93101862D01*
X50176237Y93080091D01*
X50172235Y93058833D01*
X50167506Y93038090D01*
X50162048Y93017859D01*
X50155864Y92998142D01*
X50148951Y92978937D01*
X50141311Y92960245D01*
X50132944Y92942066D01*
X50123849Y92924399D01*
X50114027Y92907245D01*
X50103477Y92890602D01*
X50092200Y92874471D01*
X50080311Y92859259D01*
X50067926Y92844878D01*
X50055044Y92831328D01*
X50041666Y92818607D01*
X50027792Y92806715D01*
X50013421Y92795653D01*
X49998554Y92785419D01*
X49983192Y92776013D01*
X49967333Y92767435D01*
X49950978Y92759685D01*
X49934127Y92752762D01*
X49916780Y92746665D01*
X49898937Y92741395D01*
X49880598Y92736951D01*
X49861764Y92733332D01*
X49842434Y92730539D01*
X49842434Y92954904D01*
X49850792Y92956426D01*
X49858935Y92958364D01*
X49866864Y92960717D01*
X49874578Y92963485D01*
X49882077Y92966667D01*
X49889361Y92970264D01*
X49896430Y92974275D01*
X49903284Y92978700D01*
X49909924Y92983539D01*
X49916348Y92988792D01*
X49922558Y92994459D01*
X49928553Y93000538D01*
X49934333Y93007031D01*
X49939898Y93013937D01*
X49945248Y93021256D01*
X49950384Y93028987D01*
X49955509Y93037049D01*
X49960304Y93045358D01*
X49964769Y93053916D01*
X49968902Y93062722D01*
X49972706Y93071776D01*
X49976178Y93081077D01*
X49979320Y93090627D01*
X49982132Y93100425D01*
X49984613Y93110471D01*
X49986763Y93120765D01*
X49988582Y93131307D01*
X49990070Y93142097D01*
X49991228Y93153135D01*
X49992055Y93164421D01*
X49992551Y93175956D01*
X49992717Y93187738D01*
X49992510Y93201041D01*
X49991890Y93213963D01*
X49990857Y93226504D01*
X49989410Y93238664D01*
X49987550Y93250444D01*
X49985277Y93261843D01*
X49982590Y93272862D01*
X49979489Y93283501D01*
X49975976Y93293760D01*
X49972048Y93303639D01*
X49967707Y93313139D01*
X49962953Y93322260D01*
X49957785Y93331002D01*
X49952204Y93339365D01*
X49946209Y93347349D01*
X49939800Y93354955D01*
X49933019Y93362117D01*
X49925908Y93368820D01*
X49918466Y93375063D01*
X49910694Y93380846D01*
X49902591Y93386169D01*
X49894157Y93391031D01*
X49885393Y93395432D01*
X49876298Y93399371D01*
X49866873Y93402849D01*
X49857117Y93405864D01*
X49847030Y93408416D01*
X49836612Y93410505D01*
X49825864Y93412131D01*
X49814785Y93413292D01*
X49803375Y93413989D01*
X49791634Y93414222D01*
X49683683Y93414222D01*
X49683683Y93090371D01*
X49683311Y93066337D01*
X49682195Y93042951D01*
X49680334Y93020212D01*
X49677730Y92998121D01*
X49674381Y92976677D01*
X49670289Y92955880D01*
X49665452Y92935730D01*
X49659871Y92916226D01*
X49653545Y92897369D01*
X49646476Y92879158D01*
X49638663Y92861593D01*
X49630105Y92844675D01*
X49620803Y92828401D01*
X49610758Y92812774D01*
X49599968Y92797791D01*
X49588433Y92783454D01*
X49576511Y92770119D01*
X49564027Y92757645D01*
X49550980Y92746033D01*
X49537371Y92735282D01*
X49523199Y92725392D01*
X49508465Y92716363D01*
X49493169Y92708196D01*
X49477310Y92700888D01*
X49460889Y92694442D01*
X49443906Y92688855D01*
X49426360Y92684128D01*
X49408253Y92680262D01*
X49389583Y92677254D01*
X49370351Y92675107D01*
X49350556Y92673818D01*
X49347133Y92673746D01*
X49330200Y92673389D01*
X49310092Y92673793D01*
X49290514Y92675007D01*
X49271464Y92677031D01*
X49252944Y92679865D01*
X49234952Y92683508D01*
X49217490Y92687962D01*
X49200556Y92693226D01*
X49184152Y92699301D01*
X49168277Y92706186D01*
X49152930Y92713883D01*
X49138113Y92722391D01*
X49123826Y92731710D01*
X49110067Y92741841D01*
X49096838Y92752783D01*
X49084138Y92764538D01*
X49071967Y92777105D01*
X49060690Y92790623D01*
X49050140Y92804737D01*
X49040318Y92819447D01*
X49031223Y92834753D01*
X49022855Y92850654D01*
X49015215Y92867153D01*
X49008303Y92884247D01*
X49002118Y92901938D01*
X48996661Y92920227D01*
X48991931Y92939112D01*
X48987929Y92958594D01*
X48984655Y92978674D01*
X48982108Y92999351D01*
X48980289Y93020627D01*
X48979197Y93042500D01*
X48978833Y93064971D01*
X48979123Y93084817D01*
X48979991Y93104169D01*
X48981438Y93123027D01*
X48982505Y93132703D01*
X49154517Y93132703D01*
X49154715Y93119391D01*
X49155311Y93106442D01*
X49156303Y93093855D01*
X49157692Y93081633D01*
X49159478Y93069773D01*
X49161661Y93058278D01*
X49164240Y93047146D01*
X49167217Y93036379D01*
X49170590Y93025976D01*
X49174361Y93015937D01*
X49178528Y93006263D01*
X49183092Y92996954D01*
X49188053Y92988010D01*
X49193411Y92979431D01*
X49199166Y92971218D01*
X49205317Y92963371D01*
X49212073Y92955923D01*
X49219110Y92948959D01*
X49226427Y92942477D01*
X49234026Y92936479D01*
X49241906Y92930962D01*
X49250066Y92925927D01*
X49258508Y92921373D01*
X49267231Y92917301D01*
X49276235Y92913709D01*
X49285520Y92910597D01*
X49295086Y92907965D01*
X49304933Y92905812D01*
X49315061Y92904139D01*
X49325471Y92902944D01*
X49336161Y92902227D01*
X49347133Y92901988D01*
X49357577Y92902187D01*
X49367739Y92902782D01*
X49377620Y92903774D01*
X49387220Y92905163D01*
X49396539Y92906949D01*
X49405576Y92909132D01*
X49414332Y92911712D01*
X49422807Y92914688D01*
X49431001Y92918062D01*
X49438914Y92921832D01*
X49446545Y92925999D01*
X49453895Y92930563D01*
X49460964Y92935524D01*
X49467752Y92940882D01*
X49474258Y92946637D01*
X49480483Y92952789D01*
X49486378Y92959529D01*
X49491892Y92966554D01*
X49497026Y92973864D01*
X49501780Y92981458D01*
X49506154Y92989336D01*
X49510148Y92997497D01*
X49513761Y93005941D01*
X49516994Y93014668D01*
X49519847Y93023676D01*
X49522319Y93032967D01*
X49524412Y93042539D01*
X49526123Y93052392D01*
X49527455Y93062525D01*
X49528406Y93072939D01*
X49528977Y93083633D01*
X49529167Y93094606D01*
X49529167Y93414222D01*
X49376767Y93414222D01*
X49364727Y93413907D01*
X49352953Y93412963D01*
X49341443Y93411390D01*
X49330198Y93409189D01*
X49319218Y93406358D01*
X49308502Y93402899D01*
X49298051Y93398812D01*
X49287865Y93394097D01*
X49277943Y93388754D01*
X49268286Y93382783D01*
X49258894Y93376185D01*
X49249766Y93368959D01*
X49240903Y93361106D01*
X49232304Y93352626D01*
X49223970Y93343520D01*
X49215900Y93333787D01*
X49208468Y93323816D01*
X49201515Y93313497D01*
X49195041Y93302832D01*
X49189047Y93291819D01*
X49183532Y93280461D01*
X49178496Y93268756D01*
X49173941Y93256705D01*
X49169864Y93244308D01*
X49166267Y93231565D01*
X49163150Y93218477D01*
X49160512Y93205044D01*
X49158354Y93191265D01*
X49156675Y93177141D01*
X49155476Y93162673D01*
X49154757Y93147860D01*
X49154517Y93132703D01*
X48982505Y93132703D01*
X48983464Y93141392D01*
X48986069Y93159264D01*
X48989252Y93176641D01*
X48993015Y93193524D01*
X48997356Y93209913D01*
X49002276Y93225808D01*
X49007774Y93241207D01*
X49013851Y93256112D01*
X49020507Y93270521D01*
X49027742Y93284436D01*
X49035555Y93297855D01*
X49043947Y93310778D01*
X49052917Y93323205D01*
X49062641Y93334981D01*
X49072761Y93346000D01*
X49083278Y93356262D01*
X49094192Y93365766D01*
X49105503Y93374512D01*
X49117211Y93382499D01*
X49129315Y93389728D01*
X49141817Y93396197D01*
X49154715Y93401907D01*
X49168011Y93406856D01*
X49181703Y93411045D01*
X49195792Y93414474D01*
X49210278Y93417141D01*
X49213783Y93417590D01*
X49213783Y93420572D01*
X49000000Y93420572D01*
X49000000Y93642822D01*
X49795867Y93642822D01*
X49818059Y93642350D01*
G37*
G36*
X55378285Y83472009D02*
G01*
X55399642Y83470644D01*
X55420420Y83468371D01*
X55440619Y83465188D01*
X55460240Y83461095D01*
X55479282Y83456093D01*
X55497745Y83450182D01*
X55515629Y83443361D01*
X55532934Y83435630D01*
X55549661Y83426990D01*
X55565809Y83417440D01*
X55581378Y83406980D01*
X55596368Y83395611D01*
X55610780Y83383333D01*
X55624612Y83370144D01*
X55637866Y83356046D01*
X55650426Y83341165D01*
X55662175Y83325622D01*
X55673114Y83309418D01*
X55683243Y83292552D01*
X55692561Y83275024D01*
X55701069Y83256834D01*
X55708767Y83237983D01*
X55715654Y83218470D01*
X55721731Y83198295D01*
X55726998Y83177459D01*
X55731455Y83155961D01*
X55735101Y83133802D01*
X55737937Y83110980D01*
X55739962Y83087498D01*
X55741178Y83063353D01*
X55741583Y83038547D01*
X55741236Y83015768D01*
X55740194Y82993468D01*
X55738458Y82971649D01*
X55736027Y82950309D01*
X55732901Y82929448D01*
X55729081Y82909067D01*
X55724567Y82889166D01*
X55719358Y82869744D01*
X55713454Y82850802D01*
X55706856Y82832339D01*
X55699564Y82814355D01*
X55691577Y82796852D01*
X55682895Y82779827D01*
X55673519Y82763282D01*
X55663448Y82747216D01*
X55652683Y82731630D01*
X55641331Y82716691D01*
X55629499Y82702562D01*
X55617187Y82689242D01*
X55604397Y82676733D01*
X55591126Y82665033D01*
X55577376Y82654144D01*
X55563146Y82644065D01*
X55548437Y82634796D01*
X55533248Y82626337D01*
X55517580Y82618688D01*
X55501432Y82611850D01*
X55484805Y82605822D01*
X55467698Y82600604D01*
X55450111Y82596196D01*
X55432045Y82592599D01*
X55413500Y82589813D01*
X55413500Y82780313D01*
X55422636Y82781869D01*
X55431524Y82783888D01*
X55440165Y82786369D01*
X55448557Y82789313D01*
X55456701Y82792720D01*
X55464597Y82796589D01*
X55472245Y82800921D01*
X55479646Y82805717D01*
X55486798Y82810975D01*
X55493702Y82816696D01*
X55500358Y82822880D01*
X55506765Y82829527D01*
X55512925Y82836637D01*
X55518837Y82844211D01*
X55524501Y82852247D01*
X55529916Y82860747D01*
X55535299Y82869610D01*
X55540334Y82878739D01*
X55545022Y82888132D01*
X55549363Y82897789D01*
X55553357Y82907712D01*
X55557003Y82917899D01*
X55560302Y82928350D01*
X55563254Y82939067D01*
X55565858Y82950047D01*
X55568116Y82961292D01*
X55570026Y82972801D01*
X55571588Y82984575D01*
X55572804Y82996613D01*
X55573672Y83008916D01*
X55574193Y83021482D01*
X55574366Y83034313D01*
X55574135Y83048916D01*
X55573440Y83063089D01*
X55572283Y83076832D01*
X55570662Y83090144D01*
X55568579Y83103026D01*
X55566032Y83115478D01*
X55563022Y83127500D01*
X55559550Y83139091D01*
X55555614Y83150253D01*
X55551216Y83160985D01*
X55546354Y83171286D01*
X55541029Y83181158D01*
X55535241Y83190600D01*
X55528990Y83199612D01*
X55522277Y83208194D01*
X55515100Y83216346D01*
X55507757Y83224293D01*
X55500018Y83231727D01*
X55491882Y83238648D01*
X55483350Y83245056D01*
X55474420Y83250951D01*
X55465093Y83256334D01*
X55455370Y83261203D01*
X55445250Y83265561D01*
X55434732Y83269405D01*
X55423818Y83272737D01*
X55412507Y83275556D01*
X55400800Y83277863D01*
X55388695Y83279657D01*
X55376193Y83280938D01*
X55363295Y83281707D01*
X55350000Y83281963D01*
X55233583Y83281963D01*
X55233583Y82922130D01*
X55233219Y82899931D01*
X55232128Y82878311D01*
X55230309Y82857270D01*
X55227762Y82836807D01*
X55224488Y82816922D01*
X55220486Y82797617D01*
X55215757Y82778889D01*
X55210300Y82760741D01*
X55204115Y82743171D01*
X55197203Y82726179D01*
X55189563Y82709766D01*
X55181195Y82693932D01*
X55172100Y82678676D01*
X55162278Y82663999D01*
X55151728Y82649900D01*
X55140450Y82636380D01*
X55128535Y82623565D01*
X55116075Y82611577D01*
X55103069Y82600415D01*
X55089518Y82590080D01*
X55075420Y82580572D01*
X55060777Y82571890D01*
X55045588Y82564035D01*
X55029854Y82557007D01*
X55013574Y82550805D01*
X54996748Y82545431D01*
X54979376Y82540883D01*
X54961459Y82537162D01*
X54942996Y82534268D01*
X54923987Y82532201D01*
X54904433Y82530960D01*
X54894916Y82530765D01*
X54884333Y82530547D01*
X54864480Y82530960D01*
X54845140Y82532201D01*
X54826313Y82534268D01*
X54807999Y82537162D01*
X54790197Y82540883D01*
X54772908Y82545431D01*
X54756132Y82550805D01*
X54739869Y82557007D01*
X54724118Y82564035D01*
X54708880Y82571890D01*
X54694155Y82580572D01*
X54679942Y82590080D01*
X54666242Y82600415D01*
X54653054Y82611577D01*
X54640379Y82623565D01*
X54628216Y82636380D01*
X54616939Y82649917D01*
X54606390Y82664065D01*
X54596567Y82678824D01*
X54587472Y82694195D01*
X54579105Y82710178D01*
X54571465Y82726772D01*
X54564553Y82743978D01*
X54558368Y82761796D01*
X54552911Y82780225D01*
X54548181Y82799267D01*
X54544179Y82818920D01*
X54540905Y82839184D01*
X54538358Y82860061D01*
X54536539Y82881550D01*
X54535447Y82903651D01*
X54535083Y82926363D01*
X54535373Y82946481D01*
X54536241Y82966087D01*
X54536760Y82972930D01*
X54685366Y82972930D01*
X54685581Y82958312D01*
X54686226Y82944092D01*
X54687302Y82930268D01*
X54688807Y82916841D01*
X54690742Y82903811D01*
X54693107Y82891178D01*
X54695902Y82878941D01*
X54699126Y82867102D01*
X54702781Y82855659D01*
X54706866Y82844612D01*
X54711380Y82833962D01*
X54716325Y82823709D01*
X54721699Y82813853D01*
X54727503Y82804393D01*
X54733736Y82795330D01*
X54740400Y82786663D01*
X54747701Y82778719D01*
X54755316Y82771287D01*
X54763245Y82764367D01*
X54771488Y82757960D01*
X54780046Y82752065D01*
X54788918Y82746682D01*
X54798104Y82741812D01*
X54807604Y82737454D01*
X54817418Y82733609D01*
X54827547Y82730276D01*
X54837989Y82727456D01*
X54848746Y82725149D01*
X54859818Y82723354D01*
X54871203Y82722072D01*
X54882903Y82721303D01*
X54894916Y82721047D01*
X54906145Y82721262D01*
X54917075Y82721907D01*
X54927708Y82722982D01*
X54938044Y82724487D01*
X54948081Y82726422D01*
X54957821Y82728787D01*
X54967263Y82731582D01*
X54976408Y82734807D01*
X54985255Y82738462D01*
X54993804Y82742546D01*
X55002056Y82747061D01*
X55010010Y82752005D01*
X55017666Y82757379D01*
X55025025Y82763183D01*
X55032086Y82769416D01*
X55038850Y82776080D01*
X55045258Y82783118D01*
X55051252Y82790469D01*
X55056833Y82798135D01*
X55062001Y82806114D01*
X55066755Y82814407D01*
X55071096Y82823014D01*
X55075023Y82831936D01*
X55078537Y82841171D01*
X55081638Y82850720D01*
X55084325Y82860584D01*
X55086599Y82870761D01*
X55088459Y82881253D01*
X55089906Y82892059D01*
X55090940Y82903179D01*
X55091560Y82914614D01*
X55091766Y82926363D01*
X55091766Y83281963D01*
X54926666Y83281963D01*
X54913586Y83281624D01*
X54900803Y83280607D01*
X54888318Y83278913D01*
X54876131Y83276540D01*
X54864241Y83273490D01*
X54852648Y83269762D01*
X54841354Y83265355D01*
X54830357Y83260271D01*
X54819657Y83254508D01*
X54809256Y83248067D01*
X54799152Y83240948D01*
X54789346Y83233151D01*
X54779838Y83224676D01*
X54770627Y83215522D01*
X54761714Y83205690D01*
X54753100Y83195180D01*
X54744898Y83184142D01*
X54737226Y83172725D01*
X54730083Y83160927D01*
X54723468Y83148748D01*
X54717383Y83136189D01*
X54711827Y83123249D01*
X54706799Y83109929D01*
X54702301Y83096229D01*
X54698332Y83082148D01*
X54694893Y83067687D01*
X54691982Y83052845D01*
X54689600Y83037623D01*
X54687748Y83022020D01*
X54686425Y83006037D01*
X54685631Y82989674D01*
X54685366Y82972930D01*
X54536760Y82972930D01*
X54537688Y82985179D01*
X54539714Y83003759D01*
X54542319Y83021826D01*
X54545502Y83039380D01*
X54549265Y83056421D01*
X54553606Y83072949D01*
X54558525Y83088964D01*
X54564024Y83104467D01*
X54570101Y83119457D01*
X54576757Y83133934D01*
X54583991Y83147898D01*
X54591804Y83161349D01*
X54600196Y83174287D01*
X54609166Y83186713D01*
X54618633Y83198761D01*
X54628513Y83210032D01*
X54638806Y83220525D01*
X54649514Y83230241D01*
X54660634Y83239179D01*
X54672168Y83247340D01*
X54684116Y83254723D01*
X54696477Y83261329D01*
X54709252Y83267158D01*
X54722440Y83272209D01*
X54736042Y83276483D01*
X54750056Y83279980D01*
X54764485Y83282700D01*
X54778500Y83284534D01*
X54778500Y83286196D01*
X54556250Y83286196D01*
X54556250Y83472463D01*
X55356350Y83472463D01*
X55378285Y83472009D01*
G37*
G36*
X49353459Y96204022D02*
G01*
X49371906Y96202933D01*
X49389775Y96201118D01*
X49407064Y96198577D01*
X49423774Y96195308D01*
X49439906Y96191311D01*
X49455459Y96186587D01*
X49470433Y96181135D01*
X49484828Y96174954D01*
X49498644Y96168043D01*
X49511881Y96160404D01*
X49524539Y96152034D01*
X49536618Y96142935D01*
X49548119Y96133105D01*
X49559041Y96122544D01*
X49569383Y96111251D01*
X49579487Y96099475D01*
X49589161Y96086869D01*
X49598404Y96073432D01*
X49607218Y96059166D01*
X49615602Y96044070D01*
X49623556Y96028145D01*
X49631079Y96011391D01*
X49638173Y95993809D01*
X49644837Y95975400D01*
X49651072Y95956163D01*
X49656876Y95936098D01*
X49662250Y95915207D01*
X49667195Y95893490D01*
X49671710Y95870947D01*
X49675795Y95847578D01*
X49679450Y95823385D01*
X49704850Y95668868D01*
X49706512Y95658474D01*
X49708323Y95648423D01*
X49710282Y95638717D01*
X49712391Y95629356D01*
X49714648Y95620340D01*
X49717054Y95611669D01*
X49719609Y95603344D01*
X49722313Y95595364D01*
X49725165Y95587729D01*
X49728167Y95580441D01*
X49731317Y95573498D01*
X49734616Y95566902D01*
X49738064Y95560653D01*
X49741660Y95554750D01*
X49745406Y95549194D01*
X49749300Y95543985D01*
X49753393Y95539129D01*
X49757734Y95534584D01*
X49762323Y95530350D01*
X49767159Y95526427D01*
X49772244Y95522816D01*
X49777577Y95519517D01*
X49783158Y95516530D01*
X49788988Y95513856D01*
X49795065Y95511495D01*
X49801390Y95509447D01*
X49807963Y95507714D01*
X49814784Y95506294D01*
X49821854Y95505190D01*
X49829171Y95504400D01*
X49836736Y95503926D01*
X49844550Y95503768D01*
X49853406Y95503942D01*
X49861981Y95504463D01*
X49870274Y95505331D01*
X49878287Y95506546D01*
X49886018Y95508109D01*
X49893468Y95510019D01*
X49900637Y95512276D01*
X49907524Y95514880D01*
X49914130Y95517832D01*
X49920455Y95521131D01*
X49926499Y95524777D01*
X49932262Y95528771D01*
X49937743Y95533111D01*
X49942943Y95537799D01*
X49947862Y95542835D01*
X49952500Y95548217D01*
X49957114Y95554253D01*
X49961430Y95560700D01*
X49965448Y95567561D01*
X49969169Y95574833D01*
X49972592Y95582518D01*
X49975717Y95590615D01*
X49978545Y95599125D01*
X49981075Y95608047D01*
X49983307Y95617381D01*
X49985242Y95627128D01*
X49986879Y95637287D01*
X49988218Y95647859D01*
X49989260Y95658843D01*
X49990004Y95670239D01*
X49990451Y95682047D01*
X49990600Y95694268D01*
X49990600Y95774701D01*
X49990476Y95784881D01*
X49990104Y95794781D01*
X49989484Y95804401D01*
X49988615Y95813740D01*
X49987499Y95822799D01*
X49986135Y95831577D01*
X49984523Y95840074D01*
X49982662Y95848289D01*
X49980554Y95856221D01*
X49978198Y95863872D01*
X49975593Y95871239D01*
X49972741Y95878323D01*
X49969640Y95885123D01*
X49966291Y95891639D01*
X49962695Y95897871D01*
X49958850Y95903817D01*
X49954807Y95909761D01*
X49950615Y95915389D01*
X49946274Y95920701D01*
X49941785Y95925696D01*
X49937146Y95930375D01*
X49932359Y95934737D01*
X49927423Y95938783D01*
X49922338Y95942513D01*
X49917104Y95945927D01*
X49911721Y95949024D01*
X49906190Y95951805D01*
X49900509Y95954270D01*
X49894680Y95956419D01*
X49888702Y95958251D01*
X49882576Y95959767D01*
X49876300Y95960967D01*
X49876300Y96189569D01*
X49893539Y96187359D01*
X49910332Y96184403D01*
X49926678Y96180700D01*
X49942578Y96176250D01*
X49958031Y96171054D01*
X49973038Y96165112D01*
X49987599Y96158423D01*
X50001713Y96150989D01*
X50015380Y96142808D01*
X50028601Y96133883D01*
X50041375Y96124212D01*
X50053703Y96113796D01*
X50065585Y96102635D01*
X50077020Y96090730D01*
X50088008Y96078080D01*
X50098550Y96064685D01*
X50108803Y96050903D01*
X50118395Y96036543D01*
X50127325Y96021606D01*
X50135593Y96006092D01*
X50143200Y95989999D01*
X50150146Y95973327D01*
X50156429Y95956077D01*
X50162052Y95938247D01*
X50167012Y95919837D01*
X50171312Y95900847D01*
X50174949Y95881277D01*
X50177926Y95861125D01*
X50180240Y95840392D01*
X50181894Y95819078D01*
X50182886Y95797181D01*
X50183217Y95774701D01*
X50183217Y95694268D01*
X50182869Y95669008D01*
X50181828Y95644523D01*
X50180091Y95620812D01*
X50177660Y95597877D01*
X50174535Y95575717D01*
X50170715Y95554333D01*
X50166201Y95533723D01*
X50160992Y95513888D01*
X50155088Y95494829D01*
X50148490Y95476545D01*
X50141198Y95459035D01*
X50133210Y95442301D01*
X50124529Y95426343D01*
X50115153Y95411159D01*
X50105082Y95396750D01*
X50094317Y95383117D01*
X50083180Y95370572D01*
X50071465Y95358834D01*
X50059170Y95347903D01*
X50046297Y95337779D01*
X50032845Y95328462D01*
X50018814Y95319954D01*
X50004205Y95312254D01*
X49989016Y95305363D01*
X49973248Y95299281D01*
X49956902Y95294009D01*
X49939977Y95289547D01*
X49922472Y95285896D01*
X49904389Y95283055D01*
X49885727Y95281025D01*
X49866487Y95279807D01*
X49846667Y95279401D01*
X49827906Y95279741D01*
X49809725Y95280759D01*
X49792122Y95282456D01*
X49775098Y95284831D01*
X49758652Y95287885D01*
X49742786Y95291616D01*
X49727498Y95296026D01*
X49712789Y95301113D01*
X49698659Y95306878D01*
X49685108Y95313320D01*
X49672135Y95320439D01*
X49659741Y95328235D01*
X49647925Y95336708D01*
X49636688Y95345858D01*
X49626030Y95355683D01*
X49615950Y95366185D01*
X49606607Y95377679D01*
X49597628Y95389935D01*
X49589012Y95402954D01*
X49580760Y95416733D01*
X49572872Y95431274D01*
X49565347Y95446576D01*
X49558187Y95462638D01*
X49551390Y95479460D01*
X49544957Y95497042D01*
X49538888Y95515383D01*
X49533183Y95534483D01*
X49527842Y95554341D01*
X49522865Y95574957D01*
X49518251Y95596331D01*
X49514002Y95618463D01*
X49510117Y95641351D01*
X49486833Y95791635D01*
X49485138Y95803110D01*
X49483229Y95814219D01*
X49481104Y95824962D01*
X49478764Y95835340D01*
X49476210Y95845352D01*
X49473440Y95854998D01*
X49470455Y95864278D01*
X49467256Y95873192D01*
X49463841Y95881740D01*
X49460212Y95889923D01*
X49456367Y95897740D01*
X49452307Y95905190D01*
X49448032Y95912275D01*
X49443542Y95918994D01*
X49438837Y95925347D01*
X49433917Y95931335D01*
X49429038Y95937244D01*
X49423929Y95942770D01*
X49418587Y95947912D01*
X49413014Y95952671D01*
X49407209Y95957046D01*
X49401173Y95961040D01*
X49394906Y95964651D01*
X49388407Y95967880D01*
X49381676Y95970728D01*
X49374714Y95973195D01*
X49367521Y95975281D01*
X49360096Y95976988D01*
X49352440Y95978314D01*
X49344552Y95979261D01*
X49336433Y95979829D01*
X49328083Y95980018D01*
X49319459Y95979812D01*
X49311050Y95979193D01*
X49302856Y95978161D01*
X49294877Y95976717D01*
X49287113Y95974859D01*
X49279564Y95972588D01*
X49272230Y95969903D01*
X49265111Y95966805D01*
X49258207Y95963293D01*
X49251518Y95959366D01*
X49245044Y95955026D01*
X49238785Y95950270D01*
X49232741Y95945100D01*
X49226912Y95939516D01*
X49221298Y95933516D01*
X49215900Y95927100D01*
X49210774Y95920303D01*
X49205979Y95913105D01*
X49201515Y95905508D01*
X49197381Y95897511D01*
X49193578Y95889115D01*
X49190105Y95880320D01*
X49186963Y95871126D01*
X49184152Y95861534D01*
X49181671Y95851543D01*
X49179521Y95841154D01*
X49177702Y95830367D01*
X49176213Y95819183D01*
X49175056Y95807600D01*
X49174229Y95795620D01*
X49173732Y95783243D01*
X49173567Y95770469D01*
X49173567Y95679452D01*
X49173699Y95668744D01*
X49174096Y95658300D01*
X49174757Y95648119D01*
X49175683Y95638202D01*
X49176873Y95628548D01*
X49178328Y95619158D01*
X49180048Y95610031D01*
X49182032Y95601168D01*
X49184281Y95592568D01*
X49186794Y95584232D01*
X49189572Y95576160D01*
X49192615Y95568351D01*
X49195922Y95560806D01*
X49199495Y95553525D01*
X49203332Y95546507D01*
X49207433Y95539752D01*
X49212013Y95533326D01*
X49216759Y95527244D01*
X49221670Y95521507D01*
X49226746Y95516115D01*
X49231988Y95511067D01*
X49237396Y95506365D01*
X49242969Y95502008D01*
X49248707Y95497997D01*
X49254611Y95494331D01*
X49260680Y95491011D01*
X49266914Y95488037D01*
X49273314Y95485410D01*
X49279879Y95483129D01*
X49286610Y95481195D01*
X49293506Y95479608D01*
X49300567Y95478368D01*
X49300567Y95249768D01*
X49288494Y95251009D01*
X49276621Y95252596D01*
X49264946Y95254530D01*
X49253470Y95256811D01*
X49242192Y95259438D01*
X49231113Y95262412D01*
X49220232Y95265731D01*
X49209550Y95269397D01*
X49199066Y95273408D01*
X49188781Y95277765D01*
X49178694Y95282468D01*
X49168806Y95287515D01*
X49159115Y95292908D01*
X49149623Y95298645D01*
X49140329Y95304727D01*
X49131233Y95311153D01*
X49122618Y95318195D01*
X49114234Y95325533D01*
X49106082Y95333165D01*
X49098161Y95341093D01*
X49090472Y95349316D01*
X49083014Y95357834D01*
X49075788Y95366648D01*
X49068793Y95375759D01*
X49062030Y95385165D01*
X49055498Y95394868D01*
X49049198Y95404867D01*
X49043129Y95415163D01*
X49037292Y95425755D01*
X49031685Y95436645D01*
X49026310Y95447833D01*
X49021167Y95459317D01*
X49016296Y95471340D01*
X49011740Y95483595D01*
X49007498Y95496082D01*
X49003570Y95508801D01*
X48999957Y95521751D01*
X48996658Y95534934D01*
X48993673Y95548348D01*
X48991002Y95561993D01*
X48988646Y95575869D01*
X48986604Y95589975D01*
X48984876Y95604313D01*
X48983463Y95618881D01*
X48982363Y95633679D01*
X48981578Y95648707D01*
X48981107Y95663965D01*
X48980950Y95679452D01*
X48980950Y95770469D01*
X48981314Y95797035D01*
X48982405Y95822757D01*
X48984225Y95847636D01*
X48986771Y95871672D01*
X48990046Y95894864D01*
X48994048Y95917213D01*
X48998778Y95938718D01*
X49004235Y95959381D01*
X49010420Y95979199D01*
X49017332Y95998175D01*
X49024972Y96016307D01*
X49033340Y96033596D01*
X49042434Y96050041D01*
X49052257Y96065644D01*
X49062806Y96080402D01*
X49074083Y96094318D01*
X49086014Y96107653D01*
X49098523Y96120127D01*
X49111611Y96131739D01*
X49125278Y96142490D01*
X49139524Y96152380D01*
X49154348Y96161409D01*
X49169752Y96169577D01*
X49185734Y96176884D01*
X49202296Y96183331D01*
X49219436Y96188918D01*
X49237155Y96193645D01*
X49255453Y96197512D01*
X49274329Y96200519D01*
X49293785Y96202667D01*
X49313820Y96203956D01*
X49334433Y96204385D01*
X49353459Y96204022D01*
G37*
%LPC*%
D11*
%TO.C,MB2*%
X45000000Y37300000D03*
X45000000Y34700000D03*
X46000000Y37300000D03*
X46000000Y34700000D03*
X47000000Y37300000D03*
X47000000Y34700000D03*
X48000000Y37300000D03*
X48000000Y34700000D03*
X49000000Y37300000D03*
X49000000Y34700000D03*
X50000000Y37300000D03*
X50000000Y34700000D03*
X51000000Y37300000D03*
X51000000Y34700000D03*
%TD*%
D12*
%TO.C,J4*%
X24920000Y41000000D03*
D13*
X27460000Y41000000D03*
X30000000Y41000000D03*
X32540000Y41000000D03*
X35080000Y41000000D03*
%TD*%
D12*
%TO.C,J3*%
X19840000Y2500000D03*
D13*
X22380000Y2500000D03*
X24920000Y2500000D03*
X27460000Y2500000D03*
X30000000Y2500000D03*
X32540000Y2500000D03*
X35080000Y2500000D03*
X37620000Y2500000D03*
X40160000Y2500000D03*
%TD*%
D14*
%TO.C,J1*%
X6000000Y51000000D03*
X6000000Y45220000D03*
D15*
X6500000Y52430000D03*
D16*
X2320000Y52430000D03*
D15*
X6500000Y43790000D03*
D16*
X2320000Y43790000D03*
%TD*%
D12*
%TO.C,J5*%
X24920000Y30000000D03*
D13*
X27460000Y30000000D03*
X30000000Y30000000D03*
X32540000Y30000000D03*
X35080000Y30000000D03*
%TD*%
D11*
%TO.C,MB1*%
X9000000Y37300000D03*
X9000000Y34700000D03*
X10000000Y37300000D03*
X10000000Y34700000D03*
X11000000Y37300000D03*
X11000000Y34700000D03*
X12000000Y37300000D03*
X12000000Y34700000D03*
X13000000Y37300000D03*
X13000000Y34700000D03*
X14000000Y37300000D03*
X14000000Y34700000D03*
X15000000Y37300000D03*
X15000000Y34700000D03*
%TD*%
%LPD*%
M02*
