%TF.GenerationSoftware,KiCad,Pcbnew,10.0.6*%
%TF.CreationDate,2026-09-21T21:24:03+02:00*%
%TF.ProjectId,nucula-v2,6e756375-6c61-42d7-9632-2e6b69636164,rev?*%
%TF.SameCoordinates,Original*%
%TF.FileFunction,Copper,L2,Inr*%
%TF.FilePolarity,Positive*%
%FSLAX46Y46*%
G04 Gerber Fmt 4.6, Leading zero omitted, Abs format (unit mm)*
G04 Created by KiCad (PCBNEW 10.0.6) date 2026-09-21 21:24:03*
%MOMM*%
%LPD*%
G01*
G04 APERTURE LIST*
%TA.AperFunction,ComponentPad*%
%ADD10R,1.700000X1.700000*%
%TD*%
%TA.AperFunction,ComponentPad*%
%ADD11C,1.700000*%
%TD*%
%TA.AperFunction,ComponentPad*%
%ADD12O,2.100000X1.000000*%
%TD*%
%TA.AperFunction,ComponentPad*%
%ADD13O,1.800000X1.000000*%
%TD*%
%TA.AperFunction,HeatsinkPad*%
%ADD14C,0.600000*%
%TD*%
%TA.AperFunction,ComponentPad*%
%ADD15C,0.800000*%
%TD*%
%TA.AperFunction,ViaPad*%
%ADD16C,0.600000*%
%TD*%
%TA.AperFunction,ViaPad*%
%ADD17C,0.450000*%
%TD*%
%TA.AperFunction,Conductor*%
%ADD18C,0.500000*%
%TD*%
%TA.AperFunction,Conductor*%
%ADD19C,0.250000*%
%TD*%
%TA.AperFunction,Conductor*%
%ADD20C,0.200000*%
%TD*%
%TA.AperFunction,Conductor*%
%ADD21C,0.150000*%
%TD*%
%TA.AperFunction,Conductor*%
%ADD22C,0.300000*%
%TD*%
%TA.AperFunction,Conductor*%
%ADD23C,0.750000*%
%TD*%
%TA.AperFunction,Conductor*%
%ADD24C,0.350000*%
%TD*%
G04 APERTURE END LIST*
D10*
%TO.N,/+3V3*%
%TO.C,J4*%
X24920000Y41000000D03*
D11*
%TO.N,GND*%
X27460000Y41000000D03*
%TO.N,/I2C_SDA*%
X30000000Y41000000D03*
%TO.N,/I2C_SCL*%
X32540000Y41000000D03*
%TO.N,/KEY_INT_N*%
X35080000Y41000000D03*
%TD*%
D10*
%TO.N,unconnected-(J3-Pin_1-Pad1)*%
%TO.C,J3*%
X19840000Y2500000D03*
D11*
%TO.N,/Keyboard {slash} breakaway {slash} 0x20/KEY_P0*%
X22380000Y2500000D03*
%TO.N,/Keyboard {slash} breakaway {slash} 0x20/KEY_P1*%
X24920000Y2500000D03*
%TO.N,/Keyboard {slash} breakaway {slash} 0x20/KEY_P2*%
X27460000Y2500000D03*
%TO.N,/Keyboard {slash} breakaway {slash} 0x20/KEY_P3*%
X30000000Y2500000D03*
%TO.N,/Keyboard {slash} breakaway {slash} 0x20/KEY_P4*%
X32540000Y2500000D03*
%TO.N,/Keyboard {slash} breakaway {slash} 0x20/KEY_P5*%
X35080000Y2500000D03*
%TO.N,/Keyboard {slash} breakaway {slash} 0x20/KEY_P6*%
X37620000Y2500000D03*
%TO.N,unconnected-(J3-Pin_9-Pad9)*%
X40160000Y2500000D03*
%TD*%
D12*
%TO.N,GND*%
%TO.C,J1*%
X6500000Y52430000D03*
D13*
X2320000Y52430000D03*
D12*
X6500000Y43790000D03*
D13*
X2320000Y43790000D03*
%TD*%
D14*
%TO.N,GND*%
%TO.C,U3*%
X48250000Y54000000D03*
X47150000Y54000000D03*
X48800000Y53450000D03*
X47700000Y53450000D03*
X46600000Y53450000D03*
X48250000Y52900000D03*
X47150000Y52900000D03*
X48800000Y52350000D03*
X47700000Y52350000D03*
X46600000Y52350000D03*
X48250000Y51800000D03*
X47150000Y51800000D03*
%TD*%
D10*
%TO.N,/+3V3*%
%TO.C,J5*%
X24920000Y30000000D03*
D11*
%TO.N,GND*%
X27460000Y30000000D03*
%TO.N,/I2C_SDA*%
X30000000Y30000000D03*
%TO.N,/I2C_SCL*%
X32540000Y30000000D03*
%TO.N,/KEY_INT_N*%
X35080000Y30000000D03*
%TD*%
D15*
%TO.N,Net-(A1-LOOP_A)*%
%TO.C,A1*%
X51350000Y90500000D03*
X45250000Y90500000D03*
%TD*%
D16*
%TO.N,/+3V3*%
X37687500Y43939000D03*
D17*
X21400000Y90000000D03*
D16*
X15300000Y89750000D03*
X41467200Y64201600D03*
X2650900Y88626500D03*
X14945900Y17321000D03*
X20733000Y63467800D03*
X19303800Y11502000D03*
X50670000Y66970400D03*
D17*
X19800000Y89225000D03*
D16*
%TO.N,/Power + ESP32-C3/ESP_EN*%
X50700000Y63952100D03*
X54764000Y70089100D03*
%TO.N,GND*%
X6000000Y39000000D03*
X50000000Y19000000D03*
X34000000Y23000000D03*
X46000000Y3000000D03*
X58000000Y15000000D03*
X52600000Y65500000D03*
X54000000Y19000000D03*
X50000000Y3000000D03*
X45700000Y52900000D03*
X2000000Y19000000D03*
X38000000Y19000000D03*
X54000000Y31000000D03*
X54000000Y107000000D03*
X46000000Y59000000D03*
X42000000Y15000000D03*
X10000000Y11000000D03*
X58000000Y7000000D03*
X35525000Y58775000D03*
X30000000Y23000000D03*
X28840300Y87312500D03*
X50000000Y7000000D03*
X2000000Y47000000D03*
X30000000Y19000000D03*
X11775000Y44750000D03*
X52725000Y69275000D03*
X43475000Y43275000D03*
X38000000Y15000000D03*
X38000000Y23000000D03*
X58000000Y31000000D03*
X10000000Y23000000D03*
X29620500Y79579200D03*
X2275000Y95050000D03*
X38000000Y31000000D03*
X18775000Y49000000D03*
X27550000Y49300000D03*
X46000000Y15000000D03*
X2000000Y23000000D03*
X33700000Y79500000D03*
X42000000Y7000000D03*
X22000000Y27000000D03*
X8650000Y48000000D03*
X58000000Y23000000D03*
X52025000Y40275000D03*
X31475000Y65325000D03*
X14000000Y23000000D03*
X22000000Y59000000D03*
X6000000Y3000000D03*
X31500000Y79500000D03*
X18225000Y46825000D03*
X2000000Y63000000D03*
X22000000Y15000000D03*
X4850000Y87000000D03*
X58000000Y103000000D03*
X2000000Y55000000D03*
X58000000Y99000000D03*
X50000000Y27000000D03*
X20510400Y91768800D03*
X31025000Y58275000D03*
X42000000Y11000000D03*
X38075000Y58275000D03*
X46000000Y23000000D03*
X48825000Y40275000D03*
X2000000Y27000000D03*
X26000000Y11000000D03*
X15300000Y91600000D03*
X14000000Y27000000D03*
X6475000Y96825000D03*
X58000000Y39000000D03*
X38000000Y7000000D03*
X26310200Y78735200D03*
X20694800Y87736400D03*
X32871600Y88911800D03*
X34000000Y63000000D03*
X10400000Y55000000D03*
X38000000Y11000000D03*
X18900000Y21500000D03*
X2000000Y39000000D03*
X54000000Y59000000D03*
X23900000Y66100000D03*
X54000000Y99000000D03*
X55100000Y82700000D03*
X3925000Y7460000D03*
X58000000Y91000000D03*
X46000000Y31000000D03*
X37100000Y45700000D03*
X50000000Y11000000D03*
X13225000Y45575000D03*
X6000000Y23000000D03*
X13350000Y62750000D03*
X46000000Y27000000D03*
X18000000Y31000000D03*
X55100000Y77700000D03*
X6000000Y103000000D03*
X3925000Y16350000D03*
X42200000Y79500000D03*
X10000000Y7000000D03*
X34000000Y19000000D03*
X46000000Y19000000D03*
X8200000Y51310000D03*
X58000000Y87000000D03*
X3925000Y15080000D03*
X14000000Y31000000D03*
X54000000Y3000000D03*
X18400000Y60500000D03*
X10000000Y27000000D03*
X18000000Y27000000D03*
X54000000Y91000000D03*
X2000000Y3000000D03*
X46000000Y7000000D03*
X3925000Y13810000D03*
X54000000Y7000000D03*
X38000000Y63000000D03*
X6000000Y31000000D03*
X18675000Y18500000D03*
X32525000Y48100000D03*
X42000000Y23000000D03*
X10000000Y63000000D03*
X10000000Y15000000D03*
X23550000Y49300000D03*
X58000000Y19000000D03*
X26000000Y19000000D03*
X40900000Y62610000D03*
X34000000Y11000000D03*
X13425000Y58500000D03*
X54000000Y23000000D03*
X54000000Y47000000D03*
X52725000Y40825000D03*
X42000000Y51000000D03*
X50811000Y40966000D03*
X34000000Y15000000D03*
X54000000Y15000000D03*
X54000000Y103000000D03*
X54000000Y87000000D03*
X58000000Y83000000D03*
X54000000Y27000000D03*
X10000000Y31000000D03*
X46000000Y11000000D03*
X54000000Y55000000D03*
X35550000Y49300000D03*
X58000000Y27000000D03*
X10000000Y19000000D03*
X38000000Y27000000D03*
X21120500Y76000100D03*
X8800000Y91600000D03*
X50000000Y31000000D03*
X3950000Y60100000D03*
X2000000Y103000000D03*
X22000000Y11000000D03*
X58000000Y3000000D03*
X2000000Y11000000D03*
X16500000Y60275000D03*
X6000000Y107000000D03*
X24275000Y46450000D03*
X30000000Y11000000D03*
X2000000Y67000000D03*
X6475000Y74325000D03*
X14000000Y3000000D03*
X46000000Y47000000D03*
X42000000Y19000000D03*
X43225000Y67525000D03*
X58000000Y107000000D03*
X42000000Y27000000D03*
X2150000Y77000000D03*
X53475000Y73498400D03*
X54000000Y51000000D03*
X50000000Y23000000D03*
X18350000Y51750000D03*
X58000000Y11000000D03*
X6000000Y19000000D03*
X2000000Y31000000D03*
X50000000Y15000000D03*
X58000000Y95000000D03*
X36975000Y41950000D03*
X6500000Y66750000D03*
X34000000Y27000000D03*
X47400000Y64800000D03*
X6000000Y27000000D03*
X32400000Y47450000D03*
X30750000Y50700000D03*
X40000000Y79500000D03*
X30000000Y55000000D03*
X22000000Y31000000D03*
X27150000Y62500000D03*
X34000000Y7000000D03*
X11775000Y51250000D03*
X41150000Y42200000D03*
X8200000Y44910000D03*
X42000000Y31000000D03*
X54000000Y95000000D03*
X30000000Y15000000D03*
X26000000Y15000000D03*
X54000000Y11000000D03*
X28525000Y45700000D03*
X2000000Y107000000D03*
%TO.N,/OLED {slash} SSD1309 {slash} 0x3C/OLED_FB*%
X822200Y72527900D03*
X6335400Y68286500D03*
%TO.N,/VSYS*%
X3562500Y90164800D03*
D17*
X29850000Y91350000D03*
D16*
X29801000Y60713500D03*
X18883300Y85225000D03*
D17*
X20000000Y44500000D03*
D16*
X8800000Y90650000D03*
X19691200Y55700000D03*
X15300000Y90650000D03*
D17*
X24187500Y86612500D03*
D16*
X26839200Y64964200D03*
X16250000Y42734000D03*
%TO.N,/Power + ESP32-C3/USB_5V*%
X18069900Y54687000D03*
X12195900Y58500000D03*
X12501400Y43070000D03*
%TO.N,/I2C_SDA*%
X29208500Y47736000D03*
D17*
X22100000Y90500000D03*
D16*
X6843500Y67606900D03*
X50900000Y61345300D03*
X15300000Y88900000D03*
X8800000Y88900000D03*
X19101100Y88674600D03*
X19325000Y16483000D03*
%TO.N,/I2C_SCL*%
X15300000Y88050000D03*
X30250000Y47951000D03*
D17*
X22000000Y89400000D03*
D16*
X49400000Y61351700D03*
X21000000Y46998000D03*
X20095500Y19511000D03*
X6673400Y57078000D03*
X8800000Y88050000D03*
%TO.N,/KEY_INT_N*%
X42663200Y43430000D03*
X16765200Y11871000D03*
%TO.N,/NFC {slash} PN7160 {slash} 0x28/NFC_VMID*%
X24172300Y80473800D03*
D17*
X26687500Y86012500D03*
D16*
%TO.N,/OLED {slash} SSD1309 {slash} 0x3C/OLED_12V5*%
X8638900Y75198600D03*
X24750000Y50654000D03*
D17*
X15800000Y49400000D03*
D16*
%TO.N,/Power + ESP32-C3/VBUS*%
X13867400Y42196000D03*
D17*
X7775000Y45710000D03*
D16*
X45550000Y40674800D03*
X14239600Y46602400D03*
X8154000Y50397000D03*
%TO.N,/NFC {slash} PN7160 {slash} 0x28/NFC_VDD18*%
X28348900Y96333200D03*
D17*
X30000000Y90700000D03*
D16*
X35342300Y91407700D03*
%TO.N,/+3V0*%
X32867100Y56256000D03*
X27100500Y42794000D03*
X33750000Y50682000D03*
X36458700Y41307000D03*
%TO.N,/Power + ESP32-C3/USB_PRESENT_N*%
X40733600Y43432000D03*
X52369000Y43858000D03*
%TO.N,/Power + ESP32-C3/VBAT*%
X13795700Y53170000D03*
D17*
X51675000Y43200000D03*
D16*
X8310800Y57039000D03*
D17*
X16562500Y53850000D03*
D16*
X14637500Y60259200D03*
%TO.N,Net-(U1-PROG)*%
X13005500Y56731000D03*
X16503500Y55982000D03*
%TO.N,Net-(A1-LOOP_B)*%
X43550000Y74150000D03*
X45250000Y93900000D03*
%TO.N,/OLED_RESET*%
X36425000Y56268000D03*
X41900000Y46370000D03*
%TO.N,/Keyboard {slash} breakaway {slash} 0x20/KEY_P0*%
X6866100Y11871000D03*
%TO.N,/Keyboard {slash} breakaway {slash} 0x20/KEY_P1*%
X6842100Y10625000D03*
%TO.N,/Keyboard {slash} breakaway {slash} 0x20/KEY_P2*%
X6847800Y9331000D03*
%TO.N,/Keyboard {slash} breakaway {slash} 0x20/KEY_P3*%
X7066800Y8061000D03*
%TO.N,/Keyboard {slash} breakaway {slash} 0x20/KEY_P4*%
X14800000Y6625000D03*
%TO.N,/Keyboard {slash} breakaway {slash} 0x20/KEY_P5*%
X16167500Y8061000D03*
%TO.N,/Keyboard {slash} breakaway {slash} 0x20/KEY_P6*%
X16151100Y9331000D03*
%TO.N,/Power + ESP32-C3/BOOT_N*%
X56655000Y71506100D03*
D17*
X43400000Y61910000D03*
D16*
X38993400Y66068400D03*
X43199300Y61357600D03*
%TO.N,/OLED_PWR_EN*%
X3562500Y97765900D03*
X6014300Y54155000D03*
X49400000Y46370000D03*
X8238300Y95913300D03*
%TO.N,/NFC {slash} PN7160 {slash} 0x28/NFC_RXP*%
X21776400Y79721100D03*
D17*
X26187500Y86612500D03*
D16*
%TO.N,/NFC {slash} PN7160 {slash} 0x28/NFC_TVDD*%
X25899200Y95950800D03*
D17*
X25187500Y86612500D03*
D16*
X33950000Y86644000D03*
D17*
X27187500Y86612500D03*
X29775000Y88500000D03*
D16*
%TO.N,/NFC {slash} PN7160 {slash} 0x28/NFC_ADR1*%
X21771600Y96453400D03*
X20200000Y93853300D03*
%TO.N,/NFC_IRQ*%
X22060200Y88594000D03*
X15300000Y87200000D03*
X47900000Y63882500D03*
%TO.N,/NFC_VEN*%
X8105200Y65918000D03*
X15300000Y86350000D03*
X23000000Y87360200D03*
X8800000Y86350000D03*
X21576000Y74751000D03*
X46229400Y63872000D03*
%TO.N,/NFC {slash} PN7160 {slash} 0x28/NFC_RXN*%
X23670900Y82677900D03*
D17*
X25687500Y86012500D03*
D16*
%TO.N,/NFC {slash} PN7160 {slash} 0x28/NFC_TX2*%
X23878900Y75175800D03*
D17*
X27687500Y86012500D03*
D16*
%TO.N,/NFC {slash} PN7160 {slash} 0x28/NFC_TX1*%
X22044100Y83894100D03*
X30132500Y87068800D03*
%TO.N,/OLED {slash} SSD1309 {slash} 0x3C/OLED_IREF*%
X21729100Y45184000D03*
X26581400Y48129000D03*
%TO.N,/OLED {slash} SSD1309 {slash} 0x3C/OLED_VCOMH*%
X25250000Y48080000D03*
X26229600Y46486000D03*
%TO.N,/Power + ESP32-C3/USB_ESD_D+*%
X47900000Y40900000D03*
X13200000Y47350000D03*
%TO.N,/Power + ESP32-C3/USB_ESD_D-*%
X46400000Y40900000D03*
X13200000Y49700000D03*
%TO.N,/Power + ESP32-C3/STRAP_GPIO8*%
X40752300Y66077300D03*
X44900000Y63866100D03*
%TO.N,/Power + ESP32-C3/STRAP_GPIO2*%
X50970000Y46440000D03*
X40748300Y58586000D03*
%TD*%
%TO.N,/+3V3*%
D18*
X24920000Y41000000D02*
X24920000Y42302000D01*
X46331000Y66970400D02*
X43562200Y64201600D01*
X24920000Y42302000D02*
X26557700Y43939000D01*
X20133500Y64067300D02*
X11639500Y64067300D01*
X24920000Y28698000D02*
X14945900Y18724000D01*
X1356200Y87331800D02*
X2650900Y88626500D01*
X26557700Y43939000D02*
X37687500Y43939000D01*
X43562200Y64201600D02*
X41467200Y64201600D01*
X11639500Y64067300D02*
X1356200Y74350600D01*
X24920000Y30000000D02*
X24920000Y28698000D01*
X1356200Y74350600D02*
X1356200Y87331800D01*
D19*
X20575000Y90000000D02*
X21400000Y90000000D01*
D18*
X20733000Y63467800D02*
X20133500Y64067300D01*
X50670000Y66970400D02*
X46331000Y66970400D01*
X14945900Y18724000D02*
X14945900Y17321000D01*
D19*
X19800000Y89225000D02*
X20575000Y90000000D01*
%TO.N,/Power + ESP32-C3/ESP_EN*%
D20*
X50700000Y65930700D02*
X54764000Y69995300D01*
X50700000Y63952100D02*
X50700000Y65930700D01*
X54764000Y69995300D02*
X54764000Y70089100D01*
%TO.N,GND*%
D21*
X29300000Y87400000D02*
X29200000Y87300000D01*
D22*
X26310200Y78735200D02*
X27074900Y79499900D01*
X20510400Y91768800D02*
X24384000Y91768800D01*
D21*
X30300000Y88600000D02*
X30300000Y88200000D01*
X30400000Y88700000D02*
X30300000Y88600000D01*
D22*
X26310200Y78735200D02*
X23855600Y78735200D01*
X40000000Y79500000D02*
X42200000Y79500000D01*
X29620500Y79500000D02*
X29620500Y79579200D01*
X43225000Y65826800D02*
X43225000Y67525000D01*
X29620500Y79499900D02*
X29620500Y79500000D01*
X24384000Y91768800D02*
X28840300Y87312500D01*
X53507000Y70056700D02*
X52725000Y69275000D01*
X27074900Y79499900D02*
X29620500Y79499900D01*
X33700000Y79500000D02*
X31500000Y79500000D01*
D21*
X30300000Y88200000D02*
X29500000Y87400000D01*
D22*
X32871600Y88911800D02*
X30439600Y88911800D01*
X29620500Y79500000D02*
X31500000Y79500000D01*
X7754000Y92646000D02*
X8800000Y91600000D01*
X23855600Y78735200D02*
X21120500Y76000100D01*
D21*
X29500000Y87400000D02*
X29300000Y87400000D01*
%TO.N,/OLED {slash} SSD1309 {slash} 0x3C/OLED_FB*%
D20*
X822200Y72527900D02*
X2094000Y72527900D01*
X2094000Y72527900D02*
X6335400Y68286500D01*
%TO.N,/VSYS*%
D23*
X11955700Y64964200D02*
X3562500Y73357400D01*
D24*
X19531600Y85873300D02*
X18883300Y85225000D01*
D19*
X16800000Y43000000D02*
X16700000Y42900000D01*
D24*
X24187500Y86612500D02*
X23448300Y85873300D01*
D23*
X29801000Y60713500D02*
X24787500Y55700000D01*
D19*
X17000000Y43000000D02*
X16800000Y43000000D01*
X20000000Y44500000D02*
X18900000Y43400000D01*
D23*
X26839200Y64964200D02*
X29801000Y62002400D01*
D19*
X17500000Y43300000D02*
X17400000Y43200000D01*
D23*
X29801000Y62002400D02*
X29801000Y60713500D01*
X4047700Y90650000D02*
X3562500Y90164800D01*
D24*
X23448300Y85873300D02*
X19531600Y85873300D01*
D19*
X17100000Y43100000D02*
X17000000Y43000000D01*
X16700000Y42900000D02*
X16600000Y42900000D01*
D23*
X3562500Y73357400D02*
X3562500Y90164800D01*
D19*
X17700000Y43400000D02*
X17600000Y43300000D01*
X17400000Y43200000D02*
X17300000Y43200000D01*
D23*
X8800000Y90650000D02*
X4047700Y90650000D01*
D19*
X17600000Y43300000D02*
X17500000Y43300000D01*
D23*
X26839200Y64964200D02*
X11955700Y64964200D01*
D19*
X17200000Y43100000D02*
X17100000Y43100000D01*
X18900000Y43400000D02*
X17700000Y43400000D01*
D23*
X24787500Y55700000D02*
X19691200Y55700000D01*
D19*
X17300000Y43200000D02*
X17200000Y43100000D01*
%TO.N,/Power + ESP32-C3/USB_5V*%
D23*
X18069900Y54687000D02*
X13759900Y54687000D01*
X12127100Y58431000D02*
X12195900Y58500000D01*
X12127100Y56320000D02*
X12127100Y58431000D01*
X13759900Y54687000D02*
X12127100Y56320000D01*
%TO.N,/I2C_SDA*%
D20*
X15525400Y88674600D02*
X15300000Y88900000D01*
X7426400Y56917000D02*
X7426400Y67024000D01*
X30000000Y30000000D02*
X29720800Y30000000D01*
X19101100Y88674600D02*
X15525400Y88674600D01*
X29720800Y30000000D02*
X19325000Y19604000D01*
X38629200Y59746000D02*
X29208500Y50326000D01*
X29208500Y50326000D02*
X27076200Y52458000D01*
X29208500Y50326000D02*
X29208500Y47736000D01*
X7426400Y67024000D02*
X6843500Y67606900D01*
X49300900Y59746000D02*
X38629200Y59746000D01*
X50900000Y61345300D02*
X49300900Y59746000D01*
X11886000Y52458000D02*
X7426400Y56917000D01*
X19325000Y19604000D02*
X19325000Y16483000D01*
X27076200Y52458000D02*
X11886000Y52458000D01*
%TO.N,/I2C_SCL*%
X20095500Y19511000D02*
X22051400Y19511000D01*
X22056200Y89500000D02*
X21607600Y89500000D01*
X12177900Y51954000D02*
X11797300Y51954000D01*
X22051400Y19511000D02*
X32540000Y30000000D01*
X20206500Y46204000D02*
X17142700Y46204000D01*
X21000000Y46998000D02*
X20206500Y46204000D01*
X20157600Y88050000D02*
X15300000Y88050000D01*
X11797300Y51954000D02*
X6673400Y57078000D01*
X21607600Y89500000D02*
X20157600Y88050000D01*
X14884700Y49247000D02*
X12177900Y51954000D01*
X17142700Y46204000D02*
X14884700Y48462000D01*
X14884700Y48462000D02*
X14884700Y49247000D01*
%TO.N,/KEY_INT_N*%
X35080000Y41000000D02*
X35458500Y40622000D01*
X35458500Y40622000D02*
X37412700Y40622000D01*
X42034900Y42802000D02*
X42663200Y43430000D01*
X35080000Y30000000D02*
X16950800Y11871000D01*
X39592900Y42802000D02*
X42034900Y42802000D01*
X16950800Y11871000D02*
X16765200Y11871000D01*
X37412700Y40622000D02*
X39592900Y42802000D01*
%TO.N,/OLED {slash} SSD1309 {slash} 0x3C/OLED_12V5*%
D21*
X16600000Y48600000D02*
X16000000Y49200000D01*
D20*
X18859500Y50654000D02*
X24750000Y50654000D01*
X16702621Y48497367D02*
X18859500Y50654000D01*
%TO.N,/Power + ESP32-C3/VBUS*%
D24*
X12076200Y45474700D02*
X13203900Y46602400D01*
X12076200Y45474700D02*
X11840800Y45710000D01*
X16291100Y39772300D02*
X13867400Y42196000D01*
X44647500Y39772300D02*
X16291100Y39772300D01*
X13867400Y43683400D02*
X12076200Y45474700D01*
X45550000Y40674800D02*
X44647500Y39772300D01*
X13867400Y42196000D02*
X13867400Y43683400D01*
X11840800Y45710000D02*
X7775000Y45710000D01*
X13203900Y46602400D02*
X14239600Y46602400D01*
%TO.N,/NFC {slash} PN7160 {slash} 0x28/NFC_VDD18*%
D21*
X30000000Y90700000D02*
X30200000Y90900000D01*
X31800000Y92400000D02*
X31800000Y92500000D01*
D20*
X33274400Y91407700D02*
X35342300Y91407700D01*
D21*
X31800000Y92500000D02*
X31900000Y92600000D01*
X30200000Y90900000D02*
X30300000Y90900000D01*
X30300000Y90900000D02*
X31800000Y92400000D01*
D20*
X28348900Y96333200D02*
X33274400Y91407700D01*
%TO.N,/+3V0*%
X37576700Y42199000D02*
X36982000Y42794000D01*
X36458700Y41307000D02*
X37183300Y41307000D01*
X37576700Y41701000D02*
X37576700Y42199000D01*
X36982000Y42794000D02*
X27100500Y42794000D01*
X37183300Y41307000D02*
X37576700Y41701000D01*
%TO.N,/Power + ESP32-C3/USB_PRESENT_N*%
X41374500Y44072000D02*
X40733600Y43432000D01*
X52369000Y43858000D02*
X52155000Y44072000D01*
X52155000Y44072000D02*
X41374500Y44072000D01*
%TO.N,/Power + ESP32-C3/VBAT*%
D23*
X9926900Y57039000D02*
X8310800Y57039000D01*
X13795700Y53170000D02*
X9926900Y57039000D01*
%TO.N,Net-(U1-PROG)*%
D20*
X13754100Y55982000D02*
X13005500Y56731000D01*
X16503500Y55982000D02*
X13754100Y55982000D01*
%TO.N,/OLED_RESET*%
X36425000Y56268000D02*
X36425000Y51845000D01*
X36425000Y51845000D02*
X41900000Y46370000D01*
%TO.N,/Keyboard {slash} breakaway {slash} 0x20/KEY_P0*%
X11709400Y1348000D02*
X5571500Y7486000D01*
X5571500Y10576000D02*
X6866100Y11871000D01*
X5571500Y7486000D02*
X5571500Y10576000D01*
X22380000Y2500000D02*
X21228300Y1348000D01*
X21228300Y1348000D02*
X11709400Y1348000D01*
%TO.N,/Keyboard {slash} breakaway {slash} 0x20/KEY_P1*%
X6027700Y7601000D02*
X6027700Y9811000D01*
X6027700Y9811000D02*
X6842100Y10625000D01*
X24920000Y2500000D02*
X23768300Y3652000D01*
X23768300Y3652000D02*
X9976600Y3652000D01*
X9976600Y3652000D02*
X6027700Y7601000D01*
%TO.N,/Keyboard {slash} breakaway {slash} 0x20/KEY_P2*%
X10179400Y4078000D02*
X6457200Y7800000D01*
X25881800Y4078000D02*
X10179400Y4078000D01*
X27460000Y2500000D02*
X25881800Y4078000D01*
X6457200Y8940000D02*
X6847800Y9331000D01*
X6457200Y7800000D02*
X6457200Y8940000D01*
%TO.N,/Keyboard {slash} breakaway {slash} 0x20/KEY_P3*%
X27879600Y4620000D02*
X30000000Y2500000D01*
X10507200Y4620000D02*
X27879600Y4620000D01*
X7066800Y8061000D02*
X10507200Y4620000D01*
%TO.N,/Keyboard {slash} breakaway {slash} 0x20/KEY_P4*%
X14800000Y6625000D02*
X28414600Y6625000D01*
X28414600Y6625000D02*
X32540000Y2500000D01*
%TO.N,/Keyboard {slash} breakaway {slash} 0x20/KEY_P5*%
X29519200Y8061000D02*
X35080000Y2500000D01*
X16167500Y8061000D02*
X29519200Y8061000D01*
%TO.N,/Keyboard {slash} breakaway {slash} 0x20/KEY_P6*%
X16151100Y9331000D02*
X30789200Y9331000D01*
X30789200Y9331000D02*
X37620000Y2500000D01*
%TO.N,/Power + ESP32-C3/BOOT_N*%
X38993400Y65563500D02*
X43199300Y61357600D01*
X38993400Y66068400D02*
X38993400Y65563500D01*
%TO.N,/OLED_PWR_EN*%
X48070800Y41930000D02*
X47289200Y41148400D01*
X3562500Y97765900D02*
X6385700Y97765900D01*
X5089400Y48949000D02*
X5089400Y53230000D01*
X5089400Y48949000D02*
X5089400Y43515600D01*
X52511000Y44603000D02*
X53022000Y44092000D01*
X53022000Y44092000D02*
X53022000Y43607000D01*
X5089400Y53230000D02*
X6014300Y54155000D01*
X6385700Y97765900D02*
X8238300Y95913300D01*
X53022000Y43607000D02*
X51344000Y41930000D01*
X47289200Y40073000D02*
X45892200Y38676000D01*
X47289200Y41148400D02*
X47289200Y40073000D01*
X51167000Y44603000D02*
X52511000Y44603000D01*
X9929000Y38676000D02*
X15362200Y38676000D01*
X45892200Y38676000D02*
X15362200Y38676000D01*
X49400000Y46370000D02*
X51167000Y44603000D01*
X5089400Y43515600D02*
X9929000Y38676000D01*
X49145700Y41930000D02*
X48070800Y41930000D01*
X51344000Y41930000D02*
X49145700Y41930000D01*
%TO.N,/NFC {slash} PN7160 {slash} 0x28/NFC_TVDD*%
X33950000Y88730200D02*
X32895700Y89784500D01*
X25899200Y93797100D02*
X25899200Y95950800D01*
X25187500Y87163400D02*
X25187500Y86612500D01*
X25187500Y87163400D02*
X26636600Y87163400D01*
X26636600Y87163400D02*
X27187500Y86612500D01*
X29911800Y89784500D02*
X25899200Y93797100D01*
X33950000Y86644000D02*
X33950000Y88730200D01*
X32895700Y89784500D02*
X29911800Y89784500D01*
%TO.N,/NFC {slash} PN7160 {slash} 0x28/NFC_ADR1*%
X21771600Y95424900D02*
X21771600Y96453400D01*
X20200000Y93853300D02*
X21771600Y95424900D01*
%TO.N,/NFC_IRQ*%
X22060200Y88250900D02*
X22060200Y88594000D01*
X15365300Y87134700D02*
X20944000Y87134700D01*
X20944000Y87134700D02*
X22060200Y88250900D01*
X15300000Y87200000D02*
X15365300Y87134700D01*
%TO.N,/NFC_VEN*%
X46229400Y63528700D02*
X46229400Y63872000D01*
X19006400Y55017000D02*
X26766600Y55017000D01*
X23000000Y87360200D02*
X21989800Y86350000D01*
X32483800Y60734000D02*
X43434700Y60734000D01*
X8105200Y65918000D02*
X19006400Y55017000D01*
X21989800Y86350000D02*
X15300000Y86350000D01*
X43434700Y60734000D02*
X46229400Y63528700D01*
X26766600Y55017000D02*
X32483800Y60734000D01*
%TO.N,/NFC {slash} PN7160 {slash} 0x28/NFC_TX2*%
D24*
X27687500Y86012500D02*
X27687500Y86142100D01*
X27687500Y86142100D02*
X27687500Y86012500D01*
%TO.N,/NFC {slash} PN7160 {slash} 0x28/NFC_TX1*%
X26957800Y83894100D02*
X22044100Y83894100D01*
X30132500Y87068800D02*
X26957800Y83894100D01*
%TO.N,/OLED {slash} SSD1309 {slash} 0x3C/OLED_IREF*%
D20*
X26581400Y48012000D02*
X25987900Y47418000D01*
X24163200Y47418000D02*
X21729100Y45184000D01*
X25987900Y47418000D02*
X24163200Y47418000D01*
X26581400Y48129000D02*
X26581400Y48012000D01*
%TO.N,/Power + ESP32-C3/STRAP_GPIO2*%
X40748300Y56662000D02*
X50970000Y46440000D01*
X40748300Y58586000D02*
X40748300Y56662000D01*
%TD*%
%TA.AperFunction,Conductor*%
%TO.N,GND*%
G36*
X18698691Y3282593D02*
G01*
X18734655Y3233093D01*
X18739500Y3202500D01*
X18739500Y1797500D01*
X18720593Y1739309D01*
X18671093Y1703345D01*
X18640500Y1698500D01*
X11895590Y1698500D01*
X11837399Y1717407D01*
X11825586Y1727497D01*
X11813774Y1739309D01*
X10420608Y3132498D01*
X10392832Y3187014D01*
X10402404Y3247446D01*
X10445669Y3290710D01*
X10490613Y3301500D01*
X18640500Y3301500D01*
X18698691Y3282593D01*
G37*
%TD.AperFunction*%
%TA.AperFunction,Conductor*%
G36*
X59458691Y33881093D02*
G01*
X59494655Y33831593D01*
X59499500Y33801000D01*
X59499500Y4002436D01*
X59499381Y3997578D01*
X59482887Y3661839D01*
X59481934Y3652171D01*
X59432972Y3322097D01*
X59431077Y3312568D01*
X59349995Y2988869D01*
X59347175Y2979572D01*
X59234754Y2665379D01*
X59231036Y2656403D01*
X59088361Y2354742D01*
X59083781Y2346174D01*
X58912226Y2059951D01*
X58906828Y2051873D01*
X58708048Y1783850D01*
X58701885Y1776340D01*
X58477786Y1529084D01*
X58470916Y1522214D01*
X58223660Y1298115D01*
X58216150Y1291952D01*
X57948127Y1093172D01*
X57940049Y1087774D01*
X57653826Y916219D01*
X57645258Y911639D01*
X57343597Y768964D01*
X57334621Y765246D01*
X57020428Y652825D01*
X57011131Y650005D01*
X56687432Y568923D01*
X56677903Y567028D01*
X56347829Y518066D01*
X56338161Y517113D01*
X56002422Y500619D01*
X55997564Y500500D01*
X4002436Y500500D01*
X3997578Y500619D01*
X3661838Y517113D01*
X3652170Y518066D01*
X3322096Y567028D01*
X3312567Y568923D01*
X2988868Y650005D01*
X2979571Y652825D01*
X2665378Y765246D01*
X2656402Y768964D01*
X2354741Y911639D01*
X2346173Y916219D01*
X2059950Y1087774D01*
X2051872Y1093172D01*
X1783849Y1291952D01*
X1776339Y1298115D01*
X1593829Y1463532D01*
X1529078Y1522219D01*
X1522218Y1529079D01*
X1351528Y1717407D01*
X1298114Y1776340D01*
X1291951Y1783850D01*
X1093171Y2051873D01*
X1087773Y2059951D01*
X1077217Y2077562D01*
X916216Y2346177D01*
X911638Y2354742D01*
X883901Y2413386D01*
X768961Y2656406D01*
X765245Y2665379D01*
X652820Y2979585D01*
X650008Y2988856D01*
X568919Y3312579D01*
X567029Y3322085D01*
X518063Y3652185D01*
X517113Y3661827D01*
X500619Y3997579D01*
X500500Y4002436D01*
X500500Y10622101D01*
X5220993Y10622101D01*
X5220993Y10622091D01*
X5220993Y10622090D01*
X5221000Y10579023D01*
X5221000Y7439856D01*
X5236924Y7380427D01*
X5244886Y7350711D01*
X5262310Y7320532D01*
X5291029Y7270789D01*
X11494185Y1067532D01*
X11494189Y1067529D01*
X11574106Y1021388D01*
X11574108Y1021388D01*
X11574109Y1021387D01*
X11574110Y1021387D01*
X11574111Y1021387D01*
X11574112Y1021386D01*
X11663256Y997500D01*
X11755541Y997500D01*
X21175788Y997500D01*
X21175880Y997495D01*
X21182199Y997496D01*
X21182202Y997495D01*
X21220655Y997500D01*
X21274444Y997500D01*
X21274446Y997501D01*
X21274473Y997505D01*
X21274480Y997507D01*
X21274489Y997507D01*
X21312683Y1007747D01*
X21362565Y1021112D01*
X21363624Y1021380D01*
X21363634Y1021385D01*
X21364726Y1022037D01*
X21405645Y1045669D01*
X21405646Y1045667D01*
X21405652Y1045674D01*
X21442640Y1067028D01*
X21443584Y1067556D01*
X21443594Y1067564D01*
X21444659Y1068669D01*
X21463759Y1087774D01*
X21481940Y1105959D01*
X21481944Y1105965D01*
X21508769Y1132788D01*
X21508770Y1132791D01*
X21513960Y1137980D01*
X21514013Y1138043D01*
X21839418Y1463533D01*
X21893931Y1491317D01*
X21954360Y1481755D01*
X21957555Y1480127D01*
X21957563Y1480125D01*
X21957566Y1480123D01*
X22122293Y1426599D01*
X22122297Y1426598D01*
X22293386Y1399500D01*
X22293389Y1399500D01*
X22466614Y1399500D01*
X22637702Y1426598D01*
X22637706Y1426599D01*
X22802438Y1480124D01*
X22802440Y1480126D01*
X22802445Y1480127D01*
X22956788Y1558768D01*
X23096928Y1660586D01*
X23219414Y1783072D01*
X23321232Y1923212D01*
X23399873Y2077555D01*
X23399874Y2077560D01*
X23399876Y2077562D01*
X23453401Y2242294D01*
X23453402Y2242298D01*
X23480500Y2413386D01*
X23480500Y2586615D01*
X23453402Y2757703D01*
X23453401Y2757707D01*
X23399876Y2922439D01*
X23399874Y2922442D01*
X23399873Y2922443D01*
X23399873Y2922445D01*
X23321232Y3076788D01*
X23272175Y3144309D01*
X23253267Y3202499D01*
X23272174Y3260690D01*
X23321674Y3296654D01*
X23352267Y3301500D01*
X23582076Y3301500D01*
X23640267Y3282593D01*
X23652084Y3272499D01*
X23883689Y3040833D01*
X23911458Y2986315D01*
X23901889Y2925905D01*
X23900129Y2922451D01*
X23900122Y2922436D01*
X23846598Y2757707D01*
X23846597Y2757703D01*
X23819500Y2586615D01*
X23819500Y2413386D01*
X23846597Y2242298D01*
X23846598Y2242294D01*
X23900123Y2077562D01*
X23900125Y2077559D01*
X23913212Y2051873D01*
X23978768Y1923212D01*
X24080586Y1783072D01*
X24203072Y1660586D01*
X24343212Y1558768D01*
X24497555Y1480127D01*
X24497557Y1480127D01*
X24497558Y1480126D01*
X24497561Y1480124D01*
X24662293Y1426599D01*
X24662297Y1426598D01*
X24833386Y1399500D01*
X24833389Y1399500D01*
X25006614Y1399500D01*
X25177702Y1426598D01*
X25177706Y1426599D01*
X25342438Y1480124D01*
X25342440Y1480126D01*
X25342445Y1480127D01*
X25496788Y1558768D01*
X25636928Y1660586D01*
X25759414Y1783072D01*
X25861232Y1923212D01*
X25939873Y2077555D01*
X25939874Y2077560D01*
X25939876Y2077562D01*
X25993401Y2242294D01*
X25993402Y2242298D01*
X26020500Y2413386D01*
X26020500Y2586615D01*
X25993402Y2757703D01*
X25993401Y2757707D01*
X25939876Y2922439D01*
X25939874Y2922442D01*
X25939873Y2922443D01*
X25939873Y2922445D01*
X25861232Y3076788D01*
X25759414Y3216928D01*
X25636928Y3339414D01*
X25496788Y3441232D01*
X25496787Y3441233D01*
X25496785Y3441234D01*
X25342441Y3519875D01*
X25342438Y3519877D01*
X25297905Y3534346D01*
X25248405Y3570310D01*
X25229498Y3628500D01*
X25248406Y3686691D01*
X25297906Y3722655D01*
X25328498Y3727500D01*
X25695628Y3727500D01*
X25753819Y3708593D01*
X25765624Y3698511D01*
X26277185Y3187014D01*
X26423571Y3040647D01*
X26451352Y2986132D01*
X26441784Y2925700D01*
X26441784Y2925699D01*
X26440128Y2922451D01*
X26440123Y2922439D01*
X26386598Y2757707D01*
X26386597Y2757703D01*
X26359500Y2586615D01*
X26359500Y2413386D01*
X26386597Y2242298D01*
X26386598Y2242294D01*
X26440123Y2077562D01*
X26440125Y2077559D01*
X26453212Y2051873D01*
X26518768Y1923212D01*
X26620586Y1783072D01*
X26743072Y1660586D01*
X26883212Y1558768D01*
X27037555Y1480127D01*
X27037557Y1480127D01*
X27037558Y1480126D01*
X27037561Y1480124D01*
X27202293Y1426599D01*
X27202297Y1426598D01*
X27373386Y1399500D01*
X27373389Y1399500D01*
X27546614Y1399500D01*
X27717702Y1426598D01*
X27717706Y1426599D01*
X27882438Y1480124D01*
X27882440Y1480126D01*
X27882445Y1480127D01*
X28036788Y1558768D01*
X28176928Y1660586D01*
X28299414Y1783072D01*
X28401232Y1923212D01*
X28479873Y2077555D01*
X28479874Y2077560D01*
X28479876Y2077562D01*
X28533401Y2242294D01*
X28533402Y2242298D01*
X28560500Y2413386D01*
X28560500Y2586615D01*
X28533402Y2757703D01*
X28533401Y2757707D01*
X28479876Y2922439D01*
X28479874Y2922442D01*
X28479873Y2922443D01*
X28479873Y2922445D01*
X28401232Y3076788D01*
X28299414Y3216928D01*
X28176928Y3339414D01*
X28036788Y3441232D01*
X28036787Y3441233D01*
X28036785Y3441234D01*
X27882441Y3519875D01*
X27882438Y3519877D01*
X27717706Y3573402D01*
X27717702Y3573403D01*
X27546614Y3600500D01*
X27546611Y3600500D01*
X27373389Y3600500D01*
X27373386Y3600500D01*
X27202297Y3573403D01*
X27202293Y3573402D01*
X27037564Y3519878D01*
X27037545Y3519870D01*
X27034165Y3518147D01*
X26973733Y3508580D01*
X26919230Y3536352D01*
X26457944Y3997579D01*
X26355018Y4100492D01*
X26327237Y4155007D01*
X26336805Y4215440D01*
X26380066Y4258707D01*
X26425017Y4269500D01*
X27693436Y4269500D01*
X27751627Y4250593D01*
X27763433Y4240510D01*
X28963553Y3040617D01*
X28991336Y2986103D01*
X28981770Y2925670D01*
X28981769Y2925669D01*
X28980128Y2922449D01*
X28980122Y2922436D01*
X28926598Y2757707D01*
X28926597Y2757703D01*
X28899500Y2586615D01*
X28899500Y2413386D01*
X28926597Y2242298D01*
X28926598Y2242294D01*
X28980123Y2077562D01*
X28980125Y2077559D01*
X28993212Y2051873D01*
X29058768Y1923212D01*
X29160586Y1783072D01*
X29283072Y1660586D01*
X29423212Y1558768D01*
X29577555Y1480127D01*
X29577557Y1480127D01*
X29577558Y1480126D01*
X29577561Y1480124D01*
X29742293Y1426599D01*
X29742297Y1426598D01*
X29913386Y1399500D01*
X29913389Y1399500D01*
X30086614Y1399500D01*
X30257702Y1426598D01*
X30257706Y1426599D01*
X30422438Y1480124D01*
X30422440Y1480126D01*
X30422445Y1480127D01*
X30576788Y1558768D01*
X30716928Y1660586D01*
X30839414Y1783072D01*
X30941232Y1923212D01*
X31019873Y2077555D01*
X31019874Y2077560D01*
X31019876Y2077562D01*
X31073401Y2242294D01*
X31073402Y2242298D01*
X31100500Y2413386D01*
X31100500Y2586615D01*
X31073402Y2757703D01*
X31073401Y2757707D01*
X31019876Y2922439D01*
X31019874Y2922442D01*
X31019873Y2922443D01*
X31019873Y2922445D01*
X30941232Y3076788D01*
X30839414Y3216928D01*
X30716928Y3339414D01*
X30576788Y3441232D01*
X30576787Y3441233D01*
X30576785Y3441234D01*
X30422441Y3519875D01*
X30422438Y3519877D01*
X30257706Y3573402D01*
X30257702Y3573403D01*
X30086614Y3600500D01*
X30086611Y3600500D01*
X29913389Y3600500D01*
X29913386Y3600500D01*
X29742297Y3573403D01*
X29742293Y3573402D01*
X29577561Y3519877D01*
X29577546Y3519870D01*
X29574129Y3518129D01*
X29513696Y3508565D01*
X29459198Y3536334D01*
X29343339Y3652171D01*
X28121316Y4873965D01*
X28121313Y4873970D01*
X28121313Y4873969D01*
X28094807Y4900474D01*
X28094782Y4900493D01*
X28050818Y4925871D01*
X28050812Y4925874D01*
X28014873Y4946623D01*
X27970979Y4958380D01*
X27970973Y4958382D01*
X27925740Y4970501D01*
X27925713Y4970505D01*
X27884694Y4970500D01*
X10693412Y4970500D01*
X10635221Y4989407D01*
X10623402Y4999503D01*
X8925727Y6697475D01*
X14249500Y6697475D01*
X14249500Y6552526D01*
X14287017Y6412511D01*
X14359487Y6286990D01*
X14359489Y6286988D01*
X14359491Y6286985D01*
X14461985Y6184491D01*
X14461987Y6184490D01*
X14461989Y6184488D01*
X14587511Y6112018D01*
X14587512Y6112018D01*
X14587515Y6112016D01*
X14727525Y6074500D01*
X14727526Y6074500D01*
X14872474Y6074500D01*
X14872475Y6074500D01*
X15012485Y6112016D01*
X15012487Y6112018D01*
X15012489Y6112018D01*
X15138010Y6184488D01*
X15138010Y6184489D01*
X15138015Y6184491D01*
X15168522Y6214998D01*
X15199029Y6245504D01*
X15253546Y6273281D01*
X15269032Y6274500D01*
X28228424Y6274500D01*
X28286615Y6255593D01*
X28298422Y6245509D01*
X30541713Y4002436D01*
X31503580Y3040662D01*
X31531360Y2986147D01*
X31521793Y2925716D01*
X31520126Y2922446D01*
X31520123Y2922439D01*
X31466598Y2757707D01*
X31466597Y2757703D01*
X31439500Y2586615D01*
X31439500Y2413386D01*
X31466597Y2242298D01*
X31466598Y2242294D01*
X31520123Y2077562D01*
X31520125Y2077559D01*
X31533212Y2051873D01*
X31598768Y1923212D01*
X31700586Y1783072D01*
X31823072Y1660586D01*
X31963212Y1558768D01*
X32117555Y1480127D01*
X32117557Y1480127D01*
X32117558Y1480126D01*
X32117561Y1480124D01*
X32282293Y1426599D01*
X32282297Y1426598D01*
X32453386Y1399500D01*
X32453389Y1399500D01*
X32626614Y1399500D01*
X32797702Y1426598D01*
X32797706Y1426599D01*
X32962438Y1480124D01*
X32962440Y1480126D01*
X32962445Y1480127D01*
X33116788Y1558768D01*
X33256928Y1660586D01*
X33379414Y1783072D01*
X33481232Y1923212D01*
X33559873Y2077555D01*
X33559874Y2077560D01*
X33559876Y2077562D01*
X33613401Y2242294D01*
X33613402Y2242298D01*
X33640500Y2413386D01*
X33640500Y2586615D01*
X33613402Y2757703D01*
X33613401Y2757707D01*
X33559876Y2922439D01*
X33559874Y2922442D01*
X33559873Y2922443D01*
X33559873Y2922445D01*
X33481232Y3076788D01*
X33379414Y3216928D01*
X33256928Y3339414D01*
X33116788Y3441232D01*
X33116787Y3441233D01*
X33116785Y3441234D01*
X32962441Y3519875D01*
X32962438Y3519877D01*
X32797706Y3573402D01*
X32797702Y3573403D01*
X32626614Y3600500D01*
X32626611Y3600500D01*
X32453389Y3600500D01*
X32453386Y3600500D01*
X32282297Y3573403D01*
X32282293Y3573402D01*
X32117561Y3519877D01*
X32117546Y3519870D01*
X32114178Y3518154D01*
X32053745Y3508590D01*
X31999244Y3536362D01*
X28650445Y6884836D01*
X28650444Y6884838D01*
X28629804Y6905477D01*
X28581075Y6933608D01*
X28581075Y6933610D01*
X28581068Y6933612D01*
X28564699Y6943063D01*
X28551323Y6950786D01*
X28549980Y6951593D01*
X28549943Y6951609D01*
X28549226Y6951794D01*
X28503969Y6963918D01*
X28503966Y6963920D01*
X28503966Y6963919D01*
X28461382Y6975329D01*
X28460769Y6975499D01*
X28460747Y6975502D01*
X28460727Y6975502D01*
X28423812Y6975500D01*
X15269032Y6975500D01*
X15210841Y6994407D01*
X15199029Y7004496D01*
X15138015Y7065509D01*
X15138010Y7065513D01*
X15012488Y7137983D01*
X15012489Y7137983D01*
X14982896Y7145913D01*
X14872475Y7175500D01*
X14727525Y7175500D01*
X14665790Y7158959D01*
X14587510Y7137983D01*
X14461989Y7065513D01*
X14359487Y6963011D01*
X14287017Y6837490D01*
X14249500Y6697475D01*
X8925727Y6697475D01*
X7646290Y7977135D01*
X7618517Y8031654D01*
X7617300Y8047132D01*
X7617300Y8133475D01*
X7579784Y8273485D01*
X7579782Y8273488D01*
X7579782Y8273490D01*
X7507312Y8399011D01*
X7507310Y8399013D01*
X7507309Y8399015D01*
X7404815Y8501509D01*
X7404812Y8501511D01*
X7404810Y8501513D01*
X7279288Y8573983D01*
X7279289Y8573983D01*
X7249696Y8581913D01*
X7139275Y8611500D01*
X7041537Y8611500D01*
X6983346Y8630407D01*
X6947382Y8679907D01*
X6947382Y8741093D01*
X6983346Y8790593D01*
X7015910Y8806126D01*
X7060285Y8818016D01*
X7185815Y8890491D01*
X7288309Y8992985D01*
X7360784Y9118515D01*
X7398300Y9258525D01*
X7398300Y9403475D01*
X15600600Y9403475D01*
X15600600Y9258526D01*
X15638117Y9118511D01*
X15710587Y8992990D01*
X15710589Y8992988D01*
X15710591Y8992985D01*
X15813085Y8890491D01*
X15813087Y8890490D01*
X15813089Y8890488D01*
X15938611Y8818018D01*
X15938612Y8818018D01*
X15938615Y8818016D01*
X16045301Y8789430D01*
X16096615Y8756106D01*
X16118541Y8698984D01*
X16102705Y8639884D01*
X16055155Y8601378D01*
X16045301Y8598177D01*
X15955015Y8573985D01*
X15955011Y8573983D01*
X15829489Y8501513D01*
X15726987Y8399011D01*
X15654517Y8273490D01*
X15617000Y8133475D01*
X15617000Y7988526D01*
X15654517Y7848511D01*
X15726987Y7722990D01*
X15726989Y7722988D01*
X15726991Y7722985D01*
X15829485Y7620491D01*
X15829487Y7620490D01*
X15829489Y7620488D01*
X15955011Y7548018D01*
X15955012Y7548018D01*
X15955015Y7548016D01*
X16095025Y7510500D01*
X16095026Y7510500D01*
X16239974Y7510500D01*
X16239975Y7510500D01*
X16379985Y7548016D01*
X16379987Y7548018D01*
X16379989Y7548018D01*
X16505510Y7620488D01*
X16505510Y7620489D01*
X16505515Y7620491D01*
X16536022Y7650998D01*
X16566529Y7681504D01*
X16621046Y7709281D01*
X16636532Y7710500D01*
X29333006Y7710500D01*
X29391197Y7691593D01*
X29403009Y7681504D01*
X33801762Y3282593D01*
X34043620Y3040727D01*
X34071396Y2986210D01*
X34061831Y2925793D01*
X34060130Y2922456D01*
X34060123Y2922439D01*
X34006598Y2757707D01*
X34006597Y2757703D01*
X33979500Y2586615D01*
X33979500Y2413386D01*
X34006597Y2242298D01*
X34006598Y2242294D01*
X34060123Y2077562D01*
X34060125Y2077559D01*
X34073212Y2051873D01*
X34138768Y1923212D01*
X34240586Y1783072D01*
X34363072Y1660586D01*
X34503212Y1558768D01*
X34657555Y1480127D01*
X34657557Y1480127D01*
X34657558Y1480126D01*
X34657561Y1480124D01*
X34822293Y1426599D01*
X34822297Y1426598D01*
X34993386Y1399500D01*
X34993389Y1399500D01*
X35166614Y1399500D01*
X35337702Y1426598D01*
X35337706Y1426599D01*
X35502438Y1480124D01*
X35502440Y1480126D01*
X35502445Y1480127D01*
X35656788Y1558768D01*
X35796928Y1660586D01*
X35919414Y1783072D01*
X36021232Y1923212D01*
X36099873Y2077555D01*
X36099874Y2077560D01*
X36099876Y2077562D01*
X36153401Y2242294D01*
X36153402Y2242298D01*
X36180500Y2413386D01*
X36180500Y2586615D01*
X36153402Y2757703D01*
X36153401Y2757707D01*
X36099876Y2922439D01*
X36099874Y2922442D01*
X36099873Y2922443D01*
X36099873Y2922445D01*
X36021232Y3076788D01*
X35919414Y3216928D01*
X35796928Y3339414D01*
X35656788Y3441232D01*
X35656787Y3441233D01*
X35656785Y3441234D01*
X35502441Y3519875D01*
X35502438Y3519877D01*
X35337706Y3573402D01*
X35337702Y3573403D01*
X35166614Y3600500D01*
X35166611Y3600500D01*
X34993389Y3600500D01*
X34993386Y3600500D01*
X34822297Y3573403D01*
X34822293Y3573402D01*
X34657561Y3519877D01*
X34657557Y3519875D01*
X34654249Y3518189D01*
X34593815Y3508625D01*
X34539308Y3536402D01*
X29734420Y8341464D01*
X29734417Y8341466D01*
X29654494Y8387612D01*
X29654489Y8387614D01*
X29654484Y8387616D01*
X29653724Y8387920D01*
X29651072Y8388530D01*
X29611940Y8399015D01*
X29611940Y8399016D01*
X29611936Y8399016D01*
X29568226Y8410729D01*
X29566020Y8411392D01*
X29565349Y8411500D01*
X29565347Y8411500D01*
X29565344Y8411500D01*
X16636532Y8411500D01*
X16578341Y8430407D01*
X16566529Y8440496D01*
X16505515Y8501509D01*
X16505510Y8501513D01*
X16379988Y8573983D01*
X16379984Y8573985D01*
X16273298Y8602572D01*
X16221984Y8635896D01*
X16200058Y8693018D01*
X16215894Y8752118D01*
X16263444Y8790623D01*
X16273275Y8793818D01*
X16363585Y8818016D01*
X16363587Y8818018D01*
X16363589Y8818018D01*
X16489110Y8890488D01*
X16489110Y8890489D01*
X16489115Y8890491D01*
X16519622Y8920998D01*
X16550129Y8951504D01*
X16604646Y8979281D01*
X16620132Y8980500D01*
X30603006Y8980500D01*
X30661197Y8961593D01*
X30673011Y8951503D01*
X36583618Y3040723D01*
X36611394Y2986206D01*
X36601829Y2925788D01*
X36600130Y2922453D01*
X36600122Y2922436D01*
X36546598Y2757707D01*
X36546597Y2757703D01*
X36519500Y2586615D01*
X36519500Y2413386D01*
X36546597Y2242298D01*
X36546598Y2242294D01*
X36600123Y2077562D01*
X36600125Y2077559D01*
X36613212Y2051873D01*
X36678768Y1923212D01*
X36780586Y1783072D01*
X36903072Y1660586D01*
X37043212Y1558768D01*
X37197555Y1480127D01*
X37197557Y1480127D01*
X37197558Y1480126D01*
X37197561Y1480124D01*
X37362293Y1426599D01*
X37362297Y1426598D01*
X37533386Y1399500D01*
X37533389Y1399500D01*
X37706614Y1399500D01*
X37877702Y1426598D01*
X37877706Y1426599D01*
X38042438Y1480124D01*
X38042440Y1480126D01*
X38042445Y1480127D01*
X38196788Y1558768D01*
X38336928Y1660586D01*
X38459414Y1783072D01*
X38561232Y1923212D01*
X38639873Y2077555D01*
X38639874Y2077560D01*
X38639876Y2077562D01*
X38693401Y2242294D01*
X38693402Y2242298D01*
X38720500Y2413386D01*
X38720500Y2586615D01*
X39059500Y2586615D01*
X39059500Y2413386D01*
X39086597Y2242298D01*
X39086598Y2242294D01*
X39140123Y2077562D01*
X39140125Y2077559D01*
X39153212Y2051873D01*
X39218768Y1923212D01*
X39320586Y1783072D01*
X39443072Y1660586D01*
X39583212Y1558768D01*
X39737555Y1480127D01*
X39737557Y1480127D01*
X39737558Y1480126D01*
X39737561Y1480124D01*
X39902293Y1426599D01*
X39902297Y1426598D01*
X40073386Y1399500D01*
X40073389Y1399500D01*
X40246614Y1399500D01*
X40417702Y1426598D01*
X40417706Y1426599D01*
X40582438Y1480124D01*
X40582440Y1480126D01*
X40582445Y1480127D01*
X40736788Y1558768D01*
X40876928Y1660586D01*
X40999414Y1783072D01*
X41101232Y1923212D01*
X41179873Y2077555D01*
X41179874Y2077560D01*
X41179876Y2077562D01*
X41233401Y2242294D01*
X41233402Y2242298D01*
X41260500Y2413386D01*
X41260500Y2586615D01*
X41233402Y2757703D01*
X41233401Y2757707D01*
X41179876Y2922439D01*
X41179874Y2922442D01*
X41179873Y2922443D01*
X41179873Y2922445D01*
X41101232Y3076788D01*
X40999414Y3216928D01*
X40876928Y3339414D01*
X40736788Y3441232D01*
X40736787Y3441233D01*
X40736785Y3441234D01*
X40582441Y3519875D01*
X40582438Y3519877D01*
X40417706Y3573402D01*
X40417702Y3573403D01*
X40246614Y3600500D01*
X40246611Y3600500D01*
X40073389Y3600500D01*
X40073386Y3600500D01*
X39902297Y3573403D01*
X39902293Y3573402D01*
X39737561Y3519877D01*
X39737558Y3519875D01*
X39583214Y3441234D01*
X39443073Y3339415D01*
X39320585Y3216927D01*
X39218766Y3076786D01*
X39140125Y2922442D01*
X39140123Y2922439D01*
X39086598Y2757707D01*
X39086597Y2757703D01*
X39059500Y2586615D01*
X38720500Y2586615D01*
X38693402Y2757703D01*
X38693401Y2757707D01*
X38639876Y2922439D01*
X38639874Y2922442D01*
X38639873Y2922443D01*
X38639873Y2922445D01*
X38561232Y3076788D01*
X38459414Y3216928D01*
X38336928Y3339414D01*
X38196788Y3441232D01*
X38196787Y3441233D01*
X38196785Y3441234D01*
X38042441Y3519875D01*
X38042438Y3519877D01*
X37877706Y3573402D01*
X37877702Y3573403D01*
X37706614Y3600500D01*
X37706611Y3600500D01*
X37533389Y3600500D01*
X37533386Y3600500D01*
X37362297Y3573403D01*
X37362293Y3573402D01*
X37197564Y3519878D01*
X37197552Y3519872D01*
X37194251Y3518190D01*
X37133819Y3508622D01*
X37079306Y3536399D01*
X37045396Y3570310D01*
X31004416Y9611467D01*
X30992012Y9618629D01*
X30924490Y9657614D01*
X30856647Y9675792D01*
X30856647Y9675793D01*
X30856644Y9675793D01*
X30845031Y9678905D01*
X30842875Y9679723D01*
X30835348Y9681500D01*
X30835347Y9681500D01*
X30835344Y9681500D01*
X16620132Y9681500D01*
X16561941Y9700407D01*
X16550129Y9710496D01*
X16489115Y9771509D01*
X16489110Y9771513D01*
X16363588Y9843983D01*
X16363589Y9843983D01*
X16333996Y9851913D01*
X16223575Y9881500D01*
X16078625Y9881500D01*
X16016890Y9864959D01*
X15938610Y9843983D01*
X15813089Y9771513D01*
X15710587Y9669011D01*
X15638117Y9543490D01*
X15600600Y9403475D01*
X7398300Y9403475D01*
X7360784Y9543485D01*
X7360782Y9543488D01*
X7360782Y9543490D01*
X7288312Y9669011D01*
X7288310Y9669013D01*
X7288309Y9669015D01*
X7185815Y9771509D01*
X7185812Y9771511D01*
X7185810Y9771513D01*
X7060290Y9843982D01*
X7060287Y9843983D01*
X7060285Y9843984D01*
X6920275Y9881500D01*
X6920273Y9881500D01*
X6914164Y9883137D01*
X6862850Y9916462D01*
X6840924Y9973583D01*
X6856760Y10032684D01*
X6904310Y10071189D01*
X6914165Y10074391D01*
X6914572Y10074500D01*
X6914575Y10074500D01*
X7054585Y10112016D01*
X7054587Y10112018D01*
X7054589Y10112018D01*
X7180110Y10184488D01*
X7180110Y10184489D01*
X7180115Y10184491D01*
X7282609Y10286985D01*
X7355084Y10412515D01*
X7392600Y10552525D01*
X7392600Y10697475D01*
X7355084Y10837485D01*
X7355082Y10837488D01*
X7355082Y10837490D01*
X7282612Y10963011D01*
X7282610Y10963013D01*
X7282609Y10963015D01*
X7180115Y11065509D01*
X7180112Y11065511D01*
X7180110Y11065513D01*
X7054588Y11137983D01*
X7054584Y11137985D01*
X7012882Y11149159D01*
X6961568Y11182483D01*
X6939642Y11239605D01*
X6955478Y11298705D01*
X7003028Y11337210D01*
X7012865Y11340407D01*
X7078585Y11358016D01*
X7078587Y11358018D01*
X7078589Y11358018D01*
X7204110Y11430488D01*
X7204110Y11430489D01*
X7204115Y11430491D01*
X7306609Y11532985D01*
X7306612Y11532990D01*
X7379082Y11658511D01*
X7379082Y11658513D01*
X7379084Y11658515D01*
X7416600Y11798525D01*
X7416600Y11943475D01*
X16214700Y11943475D01*
X16214700Y11798525D01*
X16237217Y11714490D01*
X16252217Y11658511D01*
X16324687Y11532990D01*
X16324689Y11532988D01*
X16324691Y11532985D01*
X16427185Y11430491D01*
X16427187Y11430490D01*
X16427189Y11430488D01*
X16552711Y11358018D01*
X16552712Y11358018D01*
X16552715Y11358016D01*
X16692725Y11320500D01*
X16692726Y11320500D01*
X16837674Y11320500D01*
X16837675Y11320500D01*
X16977685Y11358016D01*
X16977687Y11358018D01*
X16977689Y11358018D01*
X17103210Y11430488D01*
X17103210Y11430489D01*
X17103215Y11430491D01*
X17205709Y11532985D01*
X17205712Y11532990D01*
X17229664Y11574475D01*
X18753300Y11574475D01*
X18753300Y11429525D01*
X18782887Y11319104D01*
X18790817Y11289511D01*
X18863287Y11163990D01*
X18863289Y11163988D01*
X18863291Y11163985D01*
X18965785Y11061491D01*
X18965787Y11061490D01*
X18965789Y11061488D01*
X19091311Y10989018D01*
X19091312Y10989018D01*
X19091315Y10989016D01*
X19231325Y10951500D01*
X19231326Y10951500D01*
X19376274Y10951500D01*
X19376275Y10951500D01*
X19516285Y10989016D01*
X19516287Y10989018D01*
X19516289Y10989018D01*
X19641810Y11061488D01*
X19641810Y11061489D01*
X19641815Y11061491D01*
X19744309Y11163985D01*
X19754989Y11182483D01*
X19816782Y11289511D01*
X19816782Y11289513D01*
X19816784Y11289515D01*
X19854300Y11429525D01*
X19854300Y11574475D01*
X19816784Y11714485D01*
X19816782Y11714488D01*
X19816782Y11714490D01*
X19744312Y11840011D01*
X19744310Y11840013D01*
X19744309Y11840015D01*
X19641815Y11942509D01*
X19641812Y11942511D01*
X19641810Y11942513D01*
X19516288Y12014983D01*
X19516289Y12014983D01*
X19486696Y12022913D01*
X19376275Y12052500D01*
X19231325Y12052500D01*
X19169590Y12035959D01*
X19091310Y12014983D01*
X18965789Y11942513D01*
X18863287Y11840011D01*
X18790817Y11714490D01*
X18766738Y11624627D01*
X18753300Y11574475D01*
X17229664Y11574475D01*
X17258619Y11624627D01*
X17258619Y11624629D01*
X17278184Y11658515D01*
X17289107Y11699281D01*
X17291466Y11705057D01*
X17300425Y11715654D01*
X17313115Y11737632D01*
X17415499Y11840015D01*
X34539287Y28963617D01*
X34593802Y28991392D01*
X34654231Y28981821D01*
X34657555Y28980127D01*
X34657560Y28980126D01*
X34657561Y28980125D01*
X34657563Y28980124D01*
X34822293Y28926599D01*
X34822297Y28926598D01*
X34993386Y28899500D01*
X34993389Y28899500D01*
X35166614Y28899500D01*
X35337702Y28926598D01*
X35337706Y28926599D01*
X35502438Y28980124D01*
X35502440Y28980126D01*
X35502445Y28980127D01*
X35656788Y29058768D01*
X35796928Y29160586D01*
X35919414Y29283072D01*
X36021232Y29423212D01*
X36099873Y29577555D01*
X36099874Y29577560D01*
X36099876Y29577562D01*
X36153401Y29742294D01*
X36153402Y29742298D01*
X36180500Y29913386D01*
X36180500Y30086615D01*
X36153402Y30257703D01*
X36153401Y30257707D01*
X36099876Y30422439D01*
X36099874Y30422442D01*
X36099873Y30422443D01*
X36099873Y30422445D01*
X36021232Y30576788D01*
X35919414Y30716928D01*
X35796928Y30839414D01*
X35656788Y30941232D01*
X35656787Y30941233D01*
X35656785Y30941234D01*
X35502441Y31019875D01*
X35502438Y31019877D01*
X35337706Y31073402D01*
X35337702Y31073403D01*
X35166614Y31100500D01*
X35166611Y31100500D01*
X34993389Y31100500D01*
X34993386Y31100500D01*
X34822297Y31073403D01*
X34822293Y31073402D01*
X34657561Y31019877D01*
X34657558Y31019875D01*
X34503214Y30941234D01*
X34363073Y30839415D01*
X34240585Y30716927D01*
X34138766Y30576786D01*
X34060125Y30422442D01*
X34060123Y30422439D01*
X34006598Y30257707D01*
X34006597Y30257703D01*
X33979500Y30086615D01*
X33979500Y29913386D01*
X34006597Y29742298D01*
X34006598Y29742294D01*
X34060123Y29577562D01*
X34060128Y29577550D01*
X34061814Y29574242D01*
X34071382Y29513809D01*
X34043605Y29459298D01*
X17010545Y12426426D01*
X16956028Y12398649D01*
X16914920Y12400803D01*
X16857634Y12416152D01*
X16837675Y12421500D01*
X16692725Y12421500D01*
X16630990Y12404959D01*
X16552710Y12383983D01*
X16427189Y12311513D01*
X16324687Y12209011D01*
X16252217Y12083490D01*
X16252216Y12083485D01*
X16214700Y11943475D01*
X7416600Y11943475D01*
X7379084Y12083485D01*
X7379082Y12083488D01*
X7379082Y12083490D01*
X7306612Y12209011D01*
X7306610Y12209013D01*
X7306609Y12209015D01*
X7204115Y12311509D01*
X7204112Y12311511D01*
X7204110Y12311513D01*
X7078588Y12383983D01*
X7078589Y12383983D01*
X7015816Y12400803D01*
X6938575Y12421500D01*
X6793625Y12421500D01*
X6731890Y12404959D01*
X6653610Y12383983D01*
X6528089Y12311513D01*
X6425587Y12209011D01*
X6353117Y12083490D01*
X6315600Y11943475D01*
X6315600Y11857088D01*
X6296693Y11798897D01*
X6286614Y11787095D01*
X5338733Y10838921D01*
X5320136Y10820318D01*
X5291031Y10791212D01*
X5291008Y10791189D01*
X5280079Y10772255D01*
X5266977Y10749552D01*
X5244873Y10711266D01*
X5234110Y10671072D01*
X5234106Y10671058D01*
X5220997Y10622133D01*
X5220993Y10622101D01*
X500500Y10622101D01*
X500500Y16555475D01*
X18774500Y16555475D01*
X18774500Y16410526D01*
X18812017Y16270511D01*
X18884487Y16144990D01*
X18884489Y16144988D01*
X18884491Y16144985D01*
X18986985Y16042491D01*
X18986987Y16042490D01*
X18986989Y16042488D01*
X19112511Y15970018D01*
X19112512Y15970018D01*
X19112515Y15970016D01*
X19252525Y15932500D01*
X19252526Y15932500D01*
X19397474Y15932500D01*
X19397475Y15932500D01*
X19537485Y15970016D01*
X19537487Y15970018D01*
X19537489Y15970018D01*
X19663010Y16042488D01*
X19663010Y16042489D01*
X19663015Y16042491D01*
X19765509Y16144985D01*
X19837984Y16270515D01*
X19875500Y16410525D01*
X19875500Y16555475D01*
X19837984Y16695485D01*
X19837982Y16695488D01*
X19837982Y16695490D01*
X19765512Y16821011D01*
X19765508Y16821016D01*
X19704496Y16882029D01*
X19676719Y16936546D01*
X19675500Y16952032D01*
X19675500Y18946352D01*
X19694407Y19004543D01*
X19743907Y19040507D01*
X19805093Y19040507D01*
X19823999Y19032089D01*
X19883015Y18998016D01*
X20023025Y18960500D01*
X20023026Y18960500D01*
X20167974Y18960500D01*
X20167975Y18960500D01*
X20307985Y18998016D01*
X20307987Y18998018D01*
X20307989Y18998018D01*
X20433510Y19070488D01*
X20433510Y19070489D01*
X20433515Y19070491D01*
X20464022Y19100998D01*
X20494529Y19131504D01*
X20549046Y19159281D01*
X20564532Y19160500D01*
X22097690Y19160500D01*
X22098006Y19160547D01*
X22100384Y19161261D01*
X22124632Y19167759D01*
X22124635Y19167759D01*
X22124635Y19167760D01*
X22124636Y19167760D01*
X22186688Y19184386D01*
X22186689Y19184388D01*
X22187226Y19184531D01*
X22188902Y19185421D01*
X22191833Y19187356D01*
X22200157Y19192163D01*
X22266618Y19230534D01*
X31999310Y28963600D01*
X32053825Y28991378D01*
X32114255Y28981809D01*
X32117555Y28980127D01*
X32117561Y28980124D01*
X32282293Y28926599D01*
X32282297Y28926598D01*
X32453386Y28899500D01*
X32453389Y28899500D01*
X32626614Y28899500D01*
X32797702Y28926598D01*
X32797706Y28926599D01*
X32962438Y28980124D01*
X32962440Y28980126D01*
X32962445Y28980127D01*
X33116788Y29058768D01*
X33256928Y29160586D01*
X33379414Y29283072D01*
X33481232Y29423212D01*
X33559873Y29577555D01*
X33559874Y29577560D01*
X33559876Y29577562D01*
X33613401Y29742294D01*
X33613402Y29742298D01*
X33640500Y29913386D01*
X33640500Y30086615D01*
X33613402Y30257703D01*
X33613401Y30257707D01*
X33559876Y30422439D01*
X33559874Y30422442D01*
X33559873Y30422443D01*
X33559873Y30422445D01*
X33481232Y30576788D01*
X33379414Y30716928D01*
X33256928Y30839414D01*
X33116788Y30941232D01*
X33116787Y30941233D01*
X33116785Y30941234D01*
X32962441Y31019875D01*
X32962438Y31019877D01*
X32797706Y31073402D01*
X32797702Y31073403D01*
X32626614Y31100500D01*
X32626611Y31100500D01*
X32453389Y31100500D01*
X32453386Y31100500D01*
X32282297Y31073403D01*
X32282293Y31073402D01*
X32117561Y31019877D01*
X32117558Y31019875D01*
X31963214Y30941234D01*
X31823073Y30839415D01*
X31700585Y30716927D01*
X31598766Y30576786D01*
X31520125Y30422442D01*
X31520123Y30422439D01*
X31466598Y30257707D01*
X31466597Y30257703D01*
X31439500Y30086615D01*
X31439500Y29913386D01*
X31466597Y29742298D01*
X31466598Y29742294D01*
X31520123Y29577562D01*
X31520127Y29577554D01*
X31521829Y29574213D01*
X31531395Y29513780D01*
X31503620Y29459274D01*
X21935211Y19890498D01*
X21880695Y19862719D01*
X21865206Y19861500D01*
X20564532Y19861500D01*
X20506341Y19880407D01*
X20494529Y19890496D01*
X20433515Y19951509D01*
X20433513Y19951511D01*
X20377029Y19984122D01*
X20336089Y20029592D01*
X20329694Y20090442D01*
X20356524Y20139859D01*
X29277733Y29061240D01*
X29332247Y29089016D01*
X29392679Y29079445D01*
X29405920Y29071331D01*
X29423212Y29058768D01*
X29577555Y28980127D01*
X29577557Y28980127D01*
X29577558Y28980126D01*
X29577561Y28980124D01*
X29742293Y28926599D01*
X29742297Y28926598D01*
X29913386Y28899500D01*
X29913389Y28899500D01*
X30086614Y28899500D01*
X30257702Y28926598D01*
X30257706Y28926599D01*
X30422438Y28980124D01*
X30422440Y28980126D01*
X30422445Y28980127D01*
X30576788Y29058768D01*
X30716928Y29160586D01*
X30839414Y29283072D01*
X30941232Y29423212D01*
X31019873Y29577555D01*
X31019874Y29577560D01*
X31019876Y29577562D01*
X31073401Y29742294D01*
X31073402Y29742298D01*
X31100500Y29913386D01*
X31100500Y30086615D01*
X31073402Y30257703D01*
X31073401Y30257707D01*
X31019876Y30422439D01*
X31019874Y30422442D01*
X31019873Y30422443D01*
X31019873Y30422445D01*
X30941232Y30576788D01*
X30839414Y30716928D01*
X30716928Y30839414D01*
X30576788Y30941232D01*
X30576787Y30941233D01*
X30576785Y30941234D01*
X30422441Y31019875D01*
X30422438Y31019877D01*
X30257706Y31073402D01*
X30257702Y31073403D01*
X30086614Y31100500D01*
X30086611Y31100500D01*
X29913389Y31100500D01*
X29913386Y31100500D01*
X29742297Y31073403D01*
X29742293Y31073402D01*
X29577561Y31019877D01*
X29577558Y31019875D01*
X29423214Y30941234D01*
X29283073Y30839415D01*
X29160585Y30716927D01*
X29058766Y30576786D01*
X28980125Y30422442D01*
X28980123Y30422439D01*
X28926598Y30257707D01*
X28926597Y30257703D01*
X28899500Y30086615D01*
X28899500Y29913386D01*
X28924289Y29756875D01*
X28914718Y29696443D01*
X28896512Y29671385D01*
X19044529Y19819211D01*
X19044528Y19819209D01*
X19028513Y19791469D01*
X19015229Y19768462D01*
X18998387Y19739291D01*
X18974500Y19650143D01*
X18974500Y16952032D01*
X18955593Y16893841D01*
X18945504Y16882029D01*
X18884491Y16821016D01*
X18884487Y16821011D01*
X18812017Y16695490D01*
X18774500Y16555475D01*
X500500Y16555475D01*
X500500Y17393475D01*
X14395400Y17393475D01*
X14395400Y17386590D01*
X14395400Y17248526D01*
X14432917Y17108511D01*
X14505387Y16982990D01*
X14505389Y16982988D01*
X14505391Y16982985D01*
X14607885Y16880491D01*
X14607887Y16880490D01*
X14607889Y16880488D01*
X14733411Y16808018D01*
X14733412Y16808018D01*
X14733415Y16808016D01*
X14873425Y16770500D01*
X14873426Y16770500D01*
X15018374Y16770500D01*
X15018375Y16770500D01*
X15158385Y16808016D01*
X15158387Y16808018D01*
X15158389Y16808018D01*
X15283910Y16880488D01*
X15283910Y16880489D01*
X15283915Y16880491D01*
X15386409Y16982985D01*
X15458884Y17108515D01*
X15496400Y17248525D01*
X15496400Y17393475D01*
X15458884Y17533485D01*
X15458883Y17533487D01*
X15456401Y17539479D01*
X15457565Y17539962D01*
X15446400Y17581635D01*
X15446400Y18475679D01*
X15465307Y18533870D01*
X15475397Y18545683D01*
X25227311Y28297499D01*
X25227314Y28297500D01*
X25320500Y28390686D01*
X25386392Y28504814D01*
X25398875Y28551406D01*
X25420500Y28632105D01*
X25420501Y28763890D01*
X25420500Y28763894D01*
X25420500Y28800500D01*
X25439407Y28858691D01*
X25488907Y28894655D01*
X25519500Y28899500D01*
X25794673Y28899500D01*
X25794674Y28899500D01*
X25867740Y28914034D01*
X25950601Y28969399D01*
X26005966Y29052260D01*
X26020500Y29125326D01*
X26020500Y30874674D01*
X26005966Y30947740D01*
X25957768Y31019875D01*
X25950602Y31030600D01*
X25950599Y31030603D01*
X25867742Y31085965D01*
X25867740Y31085966D01*
X25867737Y31085967D01*
X25867736Y31085967D01*
X25794684Y31100499D01*
X25794674Y31100500D01*
X24045326Y31100500D01*
X24045325Y31100500D01*
X24045315Y31100499D01*
X23972263Y31085967D01*
X23972257Y31085965D01*
X23889400Y31030603D01*
X23889397Y31030600D01*
X23834035Y30947743D01*
X23834033Y30947737D01*
X23819501Y30874685D01*
X23819500Y30874673D01*
X23819500Y29125328D01*
X23819501Y29125316D01*
X23834033Y29052264D01*
X23834035Y29052258D01*
X23889397Y28969401D01*
X23889400Y28969398D01*
X23898079Y28963599D01*
X23972260Y28914034D01*
X24027808Y28902985D01*
X24045315Y28899502D01*
X24045320Y28899502D01*
X24045326Y28899500D01*
X24174676Y28899500D01*
X24232867Y28880593D01*
X24268831Y28831093D01*
X24268831Y28769907D01*
X24244679Y28730496D01*
X14638588Y19124502D01*
X14638582Y19124498D01*
X14545400Y19031315D01*
X14545396Y19031310D01*
X14489701Y18934845D01*
X14489702Y18934844D01*
X14479510Y18917192D01*
X14479507Y18917185D01*
X14445400Y18789898D01*
X14445400Y17581635D01*
X14441343Y17566494D01*
X14441851Y17555365D01*
X14438482Y17543128D01*
X14432916Y17533485D01*
X14395400Y17393475D01*
X500500Y17393475D01*
X500500Y33801000D01*
X519407Y33859191D01*
X568907Y33895155D01*
X599500Y33900000D01*
X59400500Y33900000D01*
X59458691Y33881093D01*
G37*
%TD.AperFunction*%
%TA.AperFunction,Conductor*%
G36*
X26534463Y43111388D02*
G01*
X26577718Y43068114D01*
X26587277Y43007680D01*
X26585126Y42997568D01*
X26550000Y42866475D01*
X26550000Y42721525D01*
X26566077Y42661526D01*
X26587517Y42581511D01*
X26659987Y42455990D01*
X26659989Y42455988D01*
X26659991Y42455985D01*
X26762485Y42353491D01*
X26762487Y42353490D01*
X26762489Y42353488D01*
X26888011Y42281018D01*
X26888012Y42281018D01*
X26888015Y42281016D01*
X27028025Y42243500D01*
X27028026Y42243500D01*
X27172974Y42243500D01*
X27172975Y42243500D01*
X27312985Y42281016D01*
X27312987Y42281018D01*
X27312989Y42281018D01*
X27438510Y42353488D01*
X27438510Y42353489D01*
X27438515Y42353491D01*
X27481014Y42395990D01*
X27499529Y42414504D01*
X27554046Y42442281D01*
X27569532Y42443500D01*
X36795745Y42443500D01*
X36853936Y42424593D01*
X36865766Y42414486D01*
X36989089Y42291101D01*
X37194122Y42085965D01*
X37197221Y42082865D01*
X37224985Y42028342D01*
X37226200Y42012879D01*
X37226200Y41886989D01*
X37207293Y41828798D01*
X37197256Y41817039D01*
X37080346Y41699949D01*
X37066967Y41686550D01*
X37012472Y41658731D01*
X36996910Y41657500D01*
X36927732Y41657500D01*
X36869541Y41676407D01*
X36857729Y41686496D01*
X36796715Y41747509D01*
X36796710Y41747513D01*
X36671188Y41819983D01*
X36671189Y41819983D01*
X36598668Y41839415D01*
X36531175Y41857500D01*
X36386225Y41857500D01*
X36343404Y41846026D01*
X36246210Y41819983D01*
X36120689Y41747513D01*
X36120683Y41747508D01*
X36073203Y41700029D01*
X36018686Y41672253D01*
X35958254Y41681825D01*
X35923109Y41711843D01*
X35919418Y41716923D01*
X35919416Y41716925D01*
X35919414Y41716928D01*
X35796928Y41839414D01*
X35656788Y41941232D01*
X35656787Y41941233D01*
X35656785Y41941234D01*
X35502441Y42019875D01*
X35502438Y42019877D01*
X35337706Y42073402D01*
X35337702Y42073403D01*
X35166614Y42100500D01*
X35166611Y42100500D01*
X34993389Y42100500D01*
X34993386Y42100500D01*
X34822297Y42073403D01*
X34822293Y42073402D01*
X34657561Y42019877D01*
X34657558Y42019875D01*
X34503214Y41941234D01*
X34363073Y41839415D01*
X34240585Y41716927D01*
X34138766Y41576786D01*
X34060125Y41422442D01*
X34060123Y41422439D01*
X34006598Y41257707D01*
X34006597Y41257703D01*
X33979500Y41086615D01*
X33979500Y40913386D01*
X34006597Y40742298D01*
X34006598Y40742294D01*
X34060123Y40577562D01*
X34060125Y40577559D01*
X34120284Y40459488D01*
X34138768Y40423212D01*
X34148175Y40410264D01*
X34188334Y40354991D01*
X34207241Y40296800D01*
X34188334Y40238609D01*
X34138834Y40202645D01*
X34108241Y40197800D01*
X33511759Y40197800D01*
X33453568Y40216707D01*
X33417604Y40266207D01*
X33417604Y40327393D01*
X33431666Y40354991D01*
X33438912Y40364964D01*
X33481232Y40423212D01*
X33559873Y40577555D01*
X33559874Y40577560D01*
X33559876Y40577562D01*
X33613401Y40742294D01*
X33613402Y40742298D01*
X33640500Y40913386D01*
X33640500Y41086615D01*
X33613402Y41257703D01*
X33613401Y41257707D01*
X33559876Y41422439D01*
X33559874Y41422442D01*
X33559873Y41422443D01*
X33559873Y41422445D01*
X33481232Y41576788D01*
X33379414Y41716928D01*
X33256928Y41839414D01*
X33116788Y41941232D01*
X33116787Y41941233D01*
X33116785Y41941234D01*
X32962441Y42019875D01*
X32962438Y42019877D01*
X32797706Y42073402D01*
X32797702Y42073403D01*
X32626614Y42100500D01*
X32626611Y42100500D01*
X32453389Y42100500D01*
X32453386Y42100500D01*
X32282297Y42073403D01*
X32282293Y42073402D01*
X32117561Y42019877D01*
X32117558Y42019875D01*
X31963214Y41941234D01*
X31823073Y41839415D01*
X31700585Y41716927D01*
X31598766Y41576786D01*
X31520125Y41422442D01*
X31520123Y41422439D01*
X31466598Y41257707D01*
X31466597Y41257703D01*
X31439500Y41086615D01*
X31439500Y40913386D01*
X31466597Y40742298D01*
X31466598Y40742294D01*
X31520123Y40577562D01*
X31520125Y40577559D01*
X31580284Y40459488D01*
X31598768Y40423212D01*
X31608175Y40410264D01*
X31648334Y40354991D01*
X31667241Y40296800D01*
X31648334Y40238609D01*
X31598834Y40202645D01*
X31568241Y40197800D01*
X30971759Y40197800D01*
X30913568Y40216707D01*
X30877604Y40266207D01*
X30877604Y40327393D01*
X30891666Y40354991D01*
X30898912Y40364964D01*
X30941232Y40423212D01*
X31019873Y40577555D01*
X31019874Y40577560D01*
X31019876Y40577562D01*
X31073401Y40742294D01*
X31073402Y40742298D01*
X31100500Y40913386D01*
X31100500Y41086615D01*
X31073402Y41257703D01*
X31073401Y41257707D01*
X31019876Y41422439D01*
X31019874Y41422442D01*
X31019873Y41422443D01*
X31019873Y41422445D01*
X30941232Y41576788D01*
X30839414Y41716928D01*
X30716928Y41839414D01*
X30576788Y41941232D01*
X30576787Y41941233D01*
X30576785Y41941234D01*
X30422441Y42019875D01*
X30422438Y42019877D01*
X30257706Y42073402D01*
X30257702Y42073403D01*
X30086614Y42100500D01*
X30086611Y42100500D01*
X29913389Y42100500D01*
X29913386Y42100500D01*
X29742297Y42073403D01*
X29742293Y42073402D01*
X29577561Y42019877D01*
X29577558Y42019875D01*
X29423214Y41941234D01*
X29283073Y41839415D01*
X29160585Y41716927D01*
X29058766Y41576786D01*
X28980125Y41422442D01*
X28980123Y41422439D01*
X28926598Y41257707D01*
X28926597Y41257703D01*
X28899500Y41086615D01*
X28899500Y40913386D01*
X28926597Y40742298D01*
X28926598Y40742294D01*
X28980123Y40577562D01*
X28980125Y40577559D01*
X29040284Y40459488D01*
X29058768Y40423212D01*
X29068175Y40410264D01*
X29108334Y40354991D01*
X29127241Y40296800D01*
X29108334Y40238609D01*
X29058834Y40202645D01*
X29028241Y40197800D01*
X26119500Y40197800D01*
X26061309Y40216707D01*
X26025345Y40266207D01*
X26020500Y40296800D01*
X26020500Y41874673D01*
X26020498Y41874685D01*
X26017015Y41892192D01*
X26005966Y41947740D01*
X25982062Y41983515D01*
X25950602Y42030600D01*
X25950599Y42030603D01*
X25867742Y42085965D01*
X25867740Y42085966D01*
X25867737Y42085967D01*
X25867736Y42085967D01*
X25794684Y42100499D01*
X25794674Y42100500D01*
X25794673Y42100500D01*
X25665459Y42100500D01*
X25607268Y42119407D01*
X25571304Y42168907D01*
X25571304Y42230093D01*
X25595470Y42269519D01*
X25617061Y42291101D01*
X26419510Y43093208D01*
X26474033Y43120972D01*
X26534463Y43111388D01*
G37*
%TD.AperFunction*%
%TA.AperFunction,Conductor*%
G36*
X51343225Y43702593D02*
G01*
X51379189Y43653093D01*
X51379189Y43591907D01*
X51355039Y43552499D01*
X51322553Y43520012D01*
X51294505Y43491964D01*
X51231905Y43383537D01*
X51221935Y43346328D01*
X51199500Y43262601D01*
X51199500Y43137399D01*
X51231905Y43016464D01*
X51294505Y42908036D01*
X51383036Y42819505D01*
X51491464Y42756905D01*
X51491466Y42756905D01*
X51496386Y42754064D01*
X51537328Y42708595D01*
X51543724Y42647745D01*
X51516870Y42598303D01*
X51227872Y42309476D01*
X51173347Y42281714D01*
X51157889Y42280500D01*
X49191844Y42280500D01*
X48024656Y42280500D01*
X47935512Y42256614D01*
X47935511Y42256614D01*
X47935509Y42256613D01*
X47855590Y42210471D01*
X47008729Y41363611D01*
X46965694Y41289072D01*
X46920224Y41248132D01*
X46859374Y41241737D01*
X46809956Y41268568D01*
X46738015Y41340509D01*
X46738012Y41340511D01*
X46738010Y41340513D01*
X46612488Y41412983D01*
X46612489Y41412983D01*
X46533650Y41434108D01*
X46472475Y41450500D01*
X46327525Y41450500D01*
X46266357Y41434110D01*
X46187510Y41412983D01*
X46061989Y41340513D01*
X45959489Y41238013D01*
X45937988Y41200772D01*
X45892518Y41159832D01*
X45831668Y41153437D01*
X45802752Y41164536D01*
X45762486Y41187784D01*
X45692480Y41206542D01*
X45622475Y41225300D01*
X45477525Y41225300D01*
X45415790Y41208759D01*
X45337510Y41187783D01*
X45211989Y41115313D01*
X45109487Y41012811D01*
X45037017Y40887289D01*
X45037015Y40887285D01*
X44998595Y40743902D01*
X44972973Y40699523D01*
X44500248Y40226797D01*
X44445731Y40199019D01*
X44430244Y40197800D01*
X37723187Y40197800D01*
X37664996Y40216707D01*
X37629032Y40266207D01*
X37629032Y40327393D01*
X37653187Y40366807D01*
X37701008Y40414623D01*
X39709077Y42422508D01*
X39763595Y42450282D01*
X39779077Y42451500D01*
X42039011Y42451500D01*
X42080960Y42451490D01*
X42080960Y42451491D01*
X42080961Y42451490D01*
X42081036Y42451500D01*
X42081044Y42451500D01*
X42128192Y42464134D01*
X42170110Y42475354D01*
X42170114Y42475357D01*
X42170145Y42475365D01*
X42170161Y42475371D01*
X42170185Y42475386D01*
X42170188Y42475386D01*
X42209648Y42498170D01*
X42209649Y42498171D01*
X42209653Y42498164D01*
X42209671Y42498184D01*
X42250045Y42521479D01*
X42250045Y42521480D01*
X42250072Y42521495D01*
X42250080Y42521501D01*
X42250107Y42521529D01*
X42250112Y42521531D01*
X42281475Y42552895D01*
X42579243Y42850521D01*
X42633766Y42878285D01*
X42649230Y42879500D01*
X42735674Y42879500D01*
X42735675Y42879500D01*
X42875685Y42917016D01*
X42875687Y42917018D01*
X42875689Y42917018D01*
X43001210Y42989488D01*
X43001210Y42989489D01*
X43001215Y42989491D01*
X43103709Y43091985D01*
X43113835Y43109523D01*
X43176182Y43217511D01*
X43176182Y43217513D01*
X43176184Y43217515D01*
X43213700Y43357525D01*
X43213700Y43502475D01*
X43188405Y43596877D01*
X43191606Y43657978D01*
X43230111Y43705528D01*
X43284031Y43721500D01*
X51285034Y43721500D01*
X51343225Y43702593D01*
G37*
%TD.AperFunction*%
%TA.AperFunction,Conductor*%
G36*
X56002421Y109499381D02*
G01*
X56031158Y109497970D01*
X56338173Y109482887D01*
X56347815Y109481937D01*
X56677915Y109432971D01*
X56687421Y109431081D01*
X57011144Y109349992D01*
X57020415Y109347180D01*
X57334625Y109234754D01*
X57343594Y109231039D01*
X57645263Y109088360D01*
X57653826Y109083782D01*
X57940049Y108912227D01*
X57948127Y108906829D01*
X58216150Y108708049D01*
X58223660Y108701886D01*
X58470921Y108477782D01*
X58477781Y108470922D01*
X58603484Y108332230D01*
X58701885Y108223661D01*
X58708048Y108216151D01*
X58906828Y107948128D01*
X58912226Y107940050D01*
X59083781Y107653827D01*
X59088361Y107645259D01*
X59231036Y107343598D01*
X59234754Y107334622D01*
X59347175Y107020429D01*
X59349995Y107011132D01*
X59431077Y106687433D01*
X59432972Y106677904D01*
X59481934Y106347830D01*
X59482887Y106338162D01*
X59499381Y106002423D01*
X59499500Y105997565D01*
X59499500Y67959000D01*
X59480593Y67900809D01*
X59431093Y67864845D01*
X59400500Y67860000D01*
X55000000Y67860000D01*
X55000000Y67859999D01*
X55000000Y66594121D01*
X54981093Y66535930D01*
X54931593Y66499966D01*
X54926637Y66498499D01*
X54891973Y66489210D01*
X54806809Y66466391D01*
X54692690Y66400504D01*
X54599496Y66307310D01*
X54533609Y66193191D01*
X54533608Y66193186D01*
X54499500Y66065892D01*
X54499500Y41565892D01*
X54499500Y41434108D01*
X54524580Y41340509D01*
X54533609Y41306810D01*
X54599496Y41192691D01*
X54599498Y41192689D01*
X54599500Y41192686D01*
X54692686Y41099500D01*
X54692688Y41099499D01*
X54692690Y41099497D01*
X54806810Y41033610D01*
X54806811Y41033610D01*
X54806814Y41033608D01*
X54926625Y41001506D01*
X54977937Y40968183D01*
X54999864Y40911062D01*
X55000000Y40905880D01*
X55000000Y39860000D01*
X59400500Y39860000D01*
X59458691Y39841093D01*
X59494655Y39791593D01*
X59499500Y39761000D01*
X59499500Y38199000D01*
X59480593Y38140809D01*
X59431093Y38104845D01*
X59400500Y38100000D01*
X599500Y38100000D01*
X541309Y38118907D01*
X505345Y38168407D01*
X500500Y38199000D01*
X500500Y53276138D01*
X4738898Y53276138D01*
X4738898Y53276126D01*
X4738898Y53276125D01*
X4738900Y53242475D01*
X4738900Y48995144D01*
X4738900Y43469456D01*
X4740709Y43462706D01*
X4760591Y43388503D01*
X4762786Y43380310D01*
X4762787Y43380309D01*
X4796596Y43321751D01*
X4808930Y43300388D01*
X9713788Y38395530D01*
X9793712Y38349386D01*
X9882856Y38325500D01*
X9882858Y38325500D01*
X45938342Y38325500D01*
X45938344Y38325500D01*
X46027488Y38349386D01*
X46107412Y38395530D01*
X47569669Y39857788D01*
X47615814Y39937712D01*
X47618859Y39949078D01*
X47627180Y39980128D01*
X47631762Y39997232D01*
X47639700Y40026856D01*
X47639700Y40270809D01*
X47658607Y40329000D01*
X47708107Y40364964D01*
X47764323Y40366435D01*
X47827522Y40349501D01*
X47827524Y40349500D01*
X47827525Y40349500D01*
X47972474Y40349500D01*
X47972475Y40349500D01*
X48112485Y40387016D01*
X48112487Y40387018D01*
X48112489Y40387018D01*
X48238010Y40459488D01*
X48238010Y40459489D01*
X48238015Y40459491D01*
X48340509Y40561985D01*
X48340512Y40561990D01*
X48412982Y40687511D01*
X48412982Y40687513D01*
X48412984Y40687515D01*
X48450500Y40827525D01*
X48450500Y40972475D01*
X48412984Y41112485D01*
X48412982Y41112488D01*
X48412982Y41112490D01*
X48340512Y41238011D01*
X48340510Y41238013D01*
X48340509Y41238015D01*
X48238015Y41340509D01*
X48238012Y41340511D01*
X48238010Y41340513D01*
X48184266Y41371542D01*
X48143325Y41417011D01*
X48136929Y41477862D01*
X48163764Y41527283D01*
X48186987Y41550505D01*
X48241504Y41578281D01*
X48256989Y41579500D01*
X49099556Y41579500D01*
X51345605Y41579500D01*
X51390039Y41579487D01*
X51390039Y41579488D01*
X51390040Y41579487D01*
X51390138Y41579500D01*
X51390144Y41579500D01*
X51436305Y41591870D01*
X51436335Y41591869D01*
X51436333Y41591877D01*
X51439562Y41592742D01*
X51479191Y41603346D01*
X51479198Y41603351D01*
X51479238Y41603361D01*
X51479253Y41603367D01*
X51479284Y41603386D01*
X51479288Y41603386D01*
X51514626Y41623789D01*
X51517862Y41625657D01*
X51517865Y41625651D01*
X51517884Y41625671D01*
X51559129Y41649466D01*
X51559134Y41649472D01*
X51559154Y41649483D01*
X51559185Y41649506D01*
X51559207Y41649529D01*
X51559212Y41649531D01*
X51581934Y41672253D01*
X51589891Y41680209D01*
X51589892Y41680208D01*
X51589903Y41680223D01*
X53232269Y43321612D01*
X53232430Y43321751D01*
X53237207Y43326529D01*
X53237212Y43326531D01*
X53268815Y43358135D01*
X53302405Y43391704D01*
X53302406Y43391707D01*
X53302418Y43391718D01*
X53302453Y43391763D01*
X53302465Y43391785D01*
X53302469Y43391788D01*
X53325429Y43431557D01*
X53348573Y43471614D01*
X53348574Y43471620D01*
X53348589Y43471645D01*
X53348608Y43471691D01*
X53349031Y43473267D01*
X53356857Y43502475D01*
X53361550Y43519986D01*
X53361554Y43519985D01*
X53361556Y43520012D01*
X53365887Y43536157D01*
X53372485Y43560752D01*
X53372485Y43560756D01*
X53372497Y43560849D01*
X53372500Y43560856D01*
X53372500Y43610192D01*
X53372513Y43653039D01*
X53372512Y43653042D01*
X53372514Y43659328D01*
X53372500Y43659560D01*
X53372500Y44138143D01*
X53368924Y44151490D01*
X53348614Y44227288D01*
X53334057Y44252501D01*
X53334057Y44252502D01*
X53302471Y44307210D01*
X53302470Y44307212D01*
X52726212Y44883470D01*
X52646288Y44929614D01*
X52557144Y44953500D01*
X52557142Y44953500D01*
X51353189Y44953500D01*
X51294998Y44972407D01*
X51283185Y44982496D01*
X49979496Y46286186D01*
X49951719Y46340703D01*
X49950500Y46356190D01*
X49950500Y46442475D01*
X49912984Y46582485D01*
X49912982Y46582488D01*
X49912982Y46582490D01*
X49840512Y46708011D01*
X49840510Y46708013D01*
X49840509Y46708015D01*
X49738015Y46810509D01*
X49738012Y46810511D01*
X49738010Y46810513D01*
X49612488Y46882983D01*
X49612489Y46882983D01*
X49543943Y46901350D01*
X49472475Y46920500D01*
X49327525Y46920500D01*
X49265790Y46903959D01*
X49187510Y46882983D01*
X49061989Y46810513D01*
X48959487Y46708011D01*
X48887017Y46582490D01*
X48863528Y46494827D01*
X48849500Y46442475D01*
X48849500Y46297525D01*
X48879087Y46187104D01*
X48887017Y46157511D01*
X48959487Y46031990D01*
X48959489Y46031988D01*
X48959491Y46031985D01*
X49061985Y45929491D01*
X49061987Y45929490D01*
X49061989Y45929488D01*
X49187511Y45857018D01*
X49187512Y45857018D01*
X49187515Y45857016D01*
X49327525Y45819500D01*
X49413810Y45819500D01*
X49472001Y45800593D01*
X49483814Y45790504D01*
X50130084Y45144234D01*
X50682815Y44591504D01*
X50710592Y44536987D01*
X50701021Y44476555D01*
X50657756Y44433290D01*
X50612811Y44422500D01*
X41374036Y44422500D01*
X41374002Y44422501D01*
X41328598Y44422533D01*
X41328550Y44422526D01*
X41328465Y44422515D01*
X41328362Y44422502D01*
X41283905Y44410590D01*
X41283841Y44410573D01*
X41239414Y44398702D01*
X41239233Y44398627D01*
X41207901Y44380537D01*
X41200016Y44375984D01*
X41159485Y44352621D01*
X41159468Y44352611D01*
X41159300Y44352482D01*
X41127464Y44320647D01*
X41127417Y44320599D01*
X40863354Y44056905D01*
X40817832Y44011447D01*
X40763296Y43983708D01*
X40747877Y43982500D01*
X40661125Y43982500D01*
X40599390Y43965959D01*
X40521110Y43944983D01*
X40395589Y43872513D01*
X40293087Y43770011D01*
X40220617Y43644490D01*
X40195967Y43552496D01*
X40183100Y43504475D01*
X40183100Y43359525D01*
X40201187Y43292024D01*
X40205180Y43277123D01*
X40201978Y43216022D01*
X40163472Y43168472D01*
X40109553Y43152500D01*
X39583687Y43152500D01*
X39546772Y43152502D01*
X39546771Y43152502D01*
X39546750Y43152502D01*
X39546728Y43152499D01*
X39546102Y43152325D01*
X39499001Y43139705D01*
X39475109Y43133304D01*
X39457627Y43128620D01*
X39457623Y43128619D01*
X39457615Y43128616D01*
X39457607Y43128612D01*
X39424546Y43109523D01*
X39424540Y43109520D01*
X39377707Y43082485D01*
X39377693Y43082475D01*
X39359927Y43064709D01*
X38096200Y41801098D01*
X38041683Y41773323D01*
X37981251Y41782897D01*
X37937988Y41826164D01*
X37927200Y41871105D01*
X37927200Y42200918D01*
X37927211Y42245054D01*
X37927210Y42245064D01*
X37927199Y42245148D01*
X37924127Y42256613D01*
X37914893Y42291073D01*
X37914894Y42291101D01*
X37914887Y42291098D01*
X37903343Y42334223D01*
X37903322Y42334276D01*
X37880846Y42373203D01*
X37880832Y42373226D01*
X37857224Y42414141D01*
X37857221Y42414144D01*
X37857217Y42414151D01*
X37857201Y42414172D01*
X37857177Y42414203D01*
X37857170Y42414210D01*
X37857169Y42414212D01*
X37825515Y42445866D01*
X37825514Y42445868D01*
X37825515Y42445869D01*
X37825497Y42445884D01*
X37722409Y42549024D01*
X37267222Y43004440D01*
X37267107Y43004573D01*
X37262470Y43009210D01*
X37262469Y43009212D01*
X37230973Y43040708D01*
X37230972Y43040710D01*
X37230973Y43040711D01*
X37230955Y43040726D01*
X37197282Y43074416D01*
X37197216Y43074466D01*
X37197213Y43074468D01*
X37197212Y43074469D01*
X37157855Y43097192D01*
X37157840Y43097209D01*
X37157837Y43097203D01*
X37117372Y43120579D01*
X37117288Y43120614D01*
X37071973Y43132757D01*
X37071955Y43132769D01*
X37071954Y43132762D01*
X37028187Y43144500D01*
X37028144Y43144500D01*
X36980082Y43144500D01*
X36929566Y43144513D01*
X36929368Y43144500D01*
X27569532Y43144500D01*
X27511341Y43163407D01*
X27499529Y43173496D01*
X27438515Y43234509D01*
X27438510Y43234513D01*
X27405166Y43253764D01*
X27364225Y43299233D01*
X27357829Y43360084D01*
X27388422Y43413072D01*
X27444318Y43437958D01*
X27454666Y43438500D01*
X37426865Y43438500D01*
X37468538Y43427335D01*
X37469021Y43428499D01*
X37475013Y43426017D01*
X37475015Y43426016D01*
X37615025Y43388500D01*
X37615026Y43388500D01*
X37759974Y43388500D01*
X37759975Y43388500D01*
X37899985Y43426016D01*
X37899987Y43426018D01*
X37899989Y43426018D01*
X38025510Y43498488D01*
X38025510Y43498489D01*
X38025515Y43498491D01*
X38128009Y43600985D01*
X38153127Y43644490D01*
X38200482Y43726511D01*
X38200482Y43726513D01*
X38200484Y43726515D01*
X38238000Y43866525D01*
X38238000Y44011475D01*
X38200484Y44151485D01*
X38200482Y44151488D01*
X38200482Y44151490D01*
X38128012Y44277011D01*
X38128010Y44277013D01*
X38128009Y44277015D01*
X38025515Y44379509D01*
X38025512Y44379511D01*
X38025510Y44379513D01*
X37899988Y44451983D01*
X37899989Y44451983D01*
X37870396Y44459913D01*
X37759975Y44489500D01*
X37615025Y44489500D01*
X37568355Y44476995D01*
X37475013Y44451984D01*
X37469021Y44449501D01*
X37468538Y44450666D01*
X37426865Y44439500D01*
X26557808Y44439500D01*
X26491915Y44439514D01*
X26491805Y44439500D01*
X26429422Y44422785D01*
X26429404Y44422780D01*
X26364580Y44405426D01*
X26364549Y44405413D01*
X26308648Y44373139D01*
X26308632Y44373130D01*
X26250437Y44339547D01*
X26250416Y44339531D01*
X26203703Y44292819D01*
X26203690Y44292805D01*
X24616940Y42706736D01*
X24616764Y42706579D01*
X24566347Y42656162D01*
X24519538Y42609373D01*
X24519519Y42609348D01*
X24487003Y42553029D01*
X24486993Y42553012D01*
X24453639Y42495270D01*
X24453612Y42495205D01*
X24436855Y42432668D01*
X24436850Y42432670D01*
X24436851Y42432649D01*
X24419500Y42367948D01*
X24419500Y42367892D01*
X24419500Y42302107D01*
X24419489Y42247248D01*
X24419485Y42229826D01*
X24419500Y42229599D01*
X24419500Y42199500D01*
X24400593Y42141309D01*
X24351093Y42105345D01*
X24320500Y42100500D01*
X24045326Y42100500D01*
X24045325Y42100500D01*
X24045315Y42100499D01*
X23972263Y42085967D01*
X23972257Y42085965D01*
X23889400Y42030603D01*
X23889397Y42030600D01*
X23834035Y41947743D01*
X23834033Y41947737D01*
X23819501Y41874685D01*
X23819500Y41874673D01*
X23819500Y40296800D01*
X23800593Y40238609D01*
X23751093Y40202645D01*
X23720500Y40197800D01*
X16508356Y40197800D01*
X16450165Y40216707D01*
X16438352Y40226796D01*
X14444426Y42220722D01*
X14418803Y42265103D01*
X14417900Y42268473D01*
X14417900Y42268475D01*
X14380384Y42408485D01*
X14380382Y42408488D01*
X14380382Y42408490D01*
X14306164Y42537039D01*
X14292900Y42586539D01*
X14292900Y42806475D01*
X15699500Y42806475D01*
X15699500Y42661525D01*
X15719593Y42586539D01*
X15737017Y42521511D01*
X15809487Y42395990D01*
X15809489Y42395988D01*
X15809491Y42395985D01*
X15911985Y42293491D01*
X15911987Y42293490D01*
X15911989Y42293488D01*
X16037511Y42221018D01*
X16037512Y42221018D01*
X16037515Y42221016D01*
X16177525Y42183500D01*
X16177526Y42183500D01*
X16322474Y42183500D01*
X16322475Y42183500D01*
X16462485Y42221016D01*
X16462487Y42221018D01*
X16462489Y42221018D01*
X16588010Y42293488D01*
X16588010Y42293489D01*
X16588015Y42293491D01*
X16690509Y42395985D01*
X16746999Y42493830D01*
X16792468Y42534769D01*
X16807107Y42539954D01*
X16844938Y42550090D01*
X16930562Y42599525D01*
X16930564Y42599527D01*
X16935712Y42603476D01*
X16937531Y42601105D01*
X16981057Y42623281D01*
X16996544Y42624500D01*
X17049435Y42624500D01*
X17049436Y42624500D01*
X17105091Y42639413D01*
X17144938Y42650090D01*
X17230562Y42699525D01*
X17239011Y42707975D01*
X17283395Y42733600D01*
X17297186Y42737295D01*
X17344938Y42750090D01*
X17430562Y42799525D01*
X17439011Y42807975D01*
X17483393Y42833600D01*
X17507819Y42840144D01*
X17544938Y42850090D01*
X17630562Y42899525D01*
X17639011Y42907975D01*
X17683393Y42933600D01*
X17697451Y42937366D01*
X17744938Y42950090D01*
X17830562Y42999525D01*
X17830564Y42999527D01*
X17835712Y43003476D01*
X17837531Y43001105D01*
X17881057Y43023281D01*
X17896544Y43024500D01*
X18949435Y43024500D01*
X18949436Y43024500D01*
X19006957Y43039913D01*
X19044938Y43050090D01*
X19130562Y43099525D01*
X19200475Y43169438D01*
X20034196Y44003160D01*
X20078572Y44028780D01*
X20183536Y44056905D01*
X20291964Y44119505D01*
X20380495Y44208036D01*
X20443095Y44316464D01*
X20475500Y44437399D01*
X20475500Y44562601D01*
X20443095Y44683536D01*
X20380495Y44791964D01*
X20291964Y44880495D01*
X20183536Y44943095D01*
X20062601Y44975500D01*
X19937399Y44975500D01*
X19856775Y44953897D01*
X19816463Y44943095D01*
X19708036Y44880495D01*
X19619505Y44791964D01*
X19556904Y44683534D01*
X19556903Y44683533D01*
X19528779Y44578575D01*
X19503157Y44534195D01*
X18773459Y43804496D01*
X18718942Y43776719D01*
X18703455Y43775500D01*
X17749436Y43775500D01*
X17650564Y43775500D01*
X17612819Y43765386D01*
X17612818Y43765387D01*
X17555062Y43749911D01*
X17555058Y43749909D01*
X17469436Y43700475D01*
X17469429Y43700467D01*
X17460981Y43692020D01*
X17416608Y43666402D01*
X17402816Y43662706D01*
X17402814Y43662706D01*
X17355062Y43649911D01*
X17355058Y43649909D01*
X17269436Y43600475D01*
X17269437Y43600474D01*
X17260987Y43592024D01*
X17216607Y43566402D01*
X17155062Y43549911D01*
X17155058Y43549909D01*
X17069436Y43500475D01*
X17069429Y43500467D01*
X17060981Y43492020D01*
X17016608Y43466402D01*
X17002816Y43462706D01*
X17002814Y43462706D01*
X16955062Y43449911D01*
X16955058Y43449909D01*
X16869436Y43400475D01*
X16864288Y43396524D01*
X16862468Y43398896D01*
X16818943Y43376719D01*
X16803456Y43375500D01*
X16750564Y43375500D01*
X16702813Y43362705D01*
X16702812Y43362706D01*
X16655062Y43349911D01*
X16655058Y43349909D01*
X16569436Y43300475D01*
X16569437Y43300474D01*
X16560987Y43292024D01*
X16516605Y43266401D01*
X16478936Y43256308D01*
X16427692Y43256308D01*
X16360630Y43274277D01*
X16322475Y43284500D01*
X16177525Y43284500D01*
X16115790Y43267959D01*
X16037510Y43246983D01*
X15911989Y43174513D01*
X15809487Y43072011D01*
X15737017Y42946490D01*
X15715577Y42866475D01*
X15699500Y42806475D01*
X14292900Y42806475D01*
X14292900Y43693087D01*
X14292900Y43702593D01*
X14292902Y43739407D01*
X14292900Y43739415D01*
X14292900Y43739418D01*
X14283232Y43775500D01*
X14264060Y43847057D01*
X14263921Y43847594D01*
X14263906Y43847632D01*
X14239921Y43889174D01*
X14239920Y43889176D01*
X14236129Y43895742D01*
X14209343Y43942139D01*
X14208178Y43944305D01*
X14207991Y43944557D01*
X14170048Y43982501D01*
X14170046Y43982502D01*
X12959654Y45192962D01*
X12896145Y45256475D01*
X21178600Y45256475D01*
X21178600Y45111526D01*
X21216117Y44971511D01*
X21288587Y44845990D01*
X21288589Y44845988D01*
X21288591Y44845985D01*
X21391085Y44743491D01*
X21391087Y44743490D01*
X21391089Y44743488D01*
X21516611Y44671018D01*
X21516612Y44671018D01*
X21516615Y44671016D01*
X21656625Y44633500D01*
X21656626Y44633500D01*
X21801574Y44633500D01*
X21801575Y44633500D01*
X21941585Y44671016D01*
X21941587Y44671018D01*
X21941589Y44671018D01*
X22067110Y44743488D01*
X22067110Y44743489D01*
X22067115Y44743491D01*
X22169609Y44845985D01*
X22181534Y44866640D01*
X22242082Y44971511D01*
X22242082Y44971513D01*
X22242084Y44971515D01*
X22279600Y45111525D01*
X22279600Y45169989D01*
X22298507Y45228180D01*
X22311656Y45242924D01*
X23587109Y46413525D01*
X24271264Y47041437D01*
X24326920Y47066855D01*
X24338205Y47067500D01*
X25793569Y47067500D01*
X25851760Y47048593D01*
X25887724Y46999093D01*
X25887724Y46937907D01*
X25863574Y46898499D01*
X25805994Y46840918D01*
X25789088Y46824012D01*
X25789087Y46824011D01*
X25716617Y46698490D01*
X25683101Y46573407D01*
X25679100Y46558475D01*
X25679100Y46413525D01*
X25687062Y46383811D01*
X25716617Y46273511D01*
X25789087Y46147990D01*
X25789089Y46147988D01*
X25789091Y46147985D01*
X25891585Y46045491D01*
X25891587Y46045490D01*
X25891589Y46045488D01*
X26017111Y45973018D01*
X26017112Y45973018D01*
X26017115Y45973016D01*
X26157125Y45935500D01*
X26157126Y45935500D01*
X26302074Y45935500D01*
X26302075Y45935500D01*
X26442085Y45973016D01*
X26442087Y45973018D01*
X26442089Y45973018D01*
X26567610Y46045488D01*
X26567610Y46045489D01*
X26567615Y46045491D01*
X26670109Y46147985D01*
X26686803Y46176900D01*
X26742582Y46273511D01*
X26742582Y46273513D01*
X26742584Y46273515D01*
X26780100Y46413525D01*
X26780100Y46558475D01*
X26742584Y46698485D01*
X26742582Y46698488D01*
X26742582Y46698490D01*
X26670112Y46824011D01*
X26670110Y46824013D01*
X26670109Y46824015D01*
X26567615Y46926509D01*
X26567612Y46926511D01*
X26567610Y46926513D01*
X26442088Y46998983D01*
X26442089Y46998983D01*
X26393565Y47011985D01*
X26309972Y47034384D01*
X26258659Y47067708D01*
X26236733Y47124829D01*
X26252569Y47183930D01*
X26265594Y47200014D01*
X26268369Y47202788D01*
X26268370Y47202791D01*
X26273007Y47207427D01*
X26273217Y47207669D01*
X26621268Y47556012D01*
X26665673Y47581662D01*
X26793885Y47616016D01*
X26793887Y47616018D01*
X26793889Y47616018D01*
X26919410Y47688488D01*
X26919410Y47688489D01*
X26919415Y47688491D01*
X27021909Y47790985D01*
X27063478Y47862984D01*
X27094382Y47916511D01*
X27094382Y47916513D01*
X27094384Y47916515D01*
X27131900Y48056525D01*
X27131900Y48201475D01*
X27094384Y48341485D01*
X27094382Y48341488D01*
X27094382Y48341490D01*
X27021912Y48467011D01*
X27021910Y48467013D01*
X27021909Y48467015D01*
X26919415Y48569509D01*
X26919412Y48569511D01*
X26919410Y48569513D01*
X26793888Y48641983D01*
X26793889Y48641983D01*
X26764296Y48649913D01*
X26653875Y48679500D01*
X26508925Y48679500D01*
X26447190Y48662959D01*
X26368910Y48641983D01*
X26243389Y48569513D01*
X26140887Y48467011D01*
X26068417Y48341490D01*
X26030900Y48201475D01*
X26030900Y48056523D01*
X26037157Y48033171D01*
X26033954Y47972070D01*
X26011563Y47937576D01*
X25958911Y47884879D01*
X25904407Y47857078D01*
X25843971Y47866624D01*
X25800688Y47909870D01*
X25791090Y47970298D01*
X25793248Y47980462D01*
X25800500Y48007525D01*
X25800500Y48152475D01*
X25762984Y48292485D01*
X25762982Y48292488D01*
X25762982Y48292490D01*
X25690512Y48418011D01*
X25690510Y48418013D01*
X25690509Y48418015D01*
X25588015Y48520509D01*
X25588012Y48520511D01*
X25588010Y48520513D01*
X25462488Y48592983D01*
X25462489Y48592983D01*
X25409498Y48607182D01*
X25322475Y48630500D01*
X25177525Y48630500D01*
X25115790Y48613959D01*
X25037510Y48592983D01*
X24911989Y48520513D01*
X24809487Y48418011D01*
X24737017Y48292490D01*
X24699500Y48152475D01*
X24699500Y48007523D01*
X24730154Y47893124D01*
X24726953Y47832022D01*
X24688448Y47784472D01*
X24634528Y47768500D01*
X24172807Y47768500D01*
X24168566Y47768591D01*
X24132111Y47770154D01*
X24132110Y47770154D01*
X24132109Y47770154D01*
X24132107Y47770154D01*
X24125643Y47769583D01*
X24125623Y47769801D01*
X24123461Y47769563D01*
X24123490Y47769347D01*
X24117053Y47768500D01*
X24081765Y47759045D01*
X24077650Y47758036D01*
X24042021Y47750108D01*
X24035927Y47747884D01*
X24035853Y47748087D01*
X24033820Y47747295D01*
X24033903Y47747095D01*
X24027907Y47744612D01*
X23996291Y47726359D01*
X23992579Y47724321D01*
X23960197Y47707431D01*
X23954886Y47703705D01*
X23954762Y47703881D01*
X23953002Y47702589D01*
X23953133Y47702418D01*
X23947989Y47698471D01*
X23922176Y47672659D01*
X23919116Y47669728D01*
X21838948Y45760563D01*
X21783292Y45735145D01*
X21772007Y45734500D01*
X21656625Y45734500D01*
X21594890Y45717959D01*
X21516610Y45696983D01*
X21391089Y45624513D01*
X21288587Y45522011D01*
X21216117Y45396490D01*
X21178600Y45256475D01*
X12896145Y45256475D01*
X12747939Y45404689D01*
X12720163Y45459207D01*
X12729737Y45519639D01*
X12747942Y45544695D01*
X13351153Y46147904D01*
X13405669Y46175681D01*
X13421156Y46176900D01*
X13849061Y46176900D01*
X13898561Y46163636D01*
X14027111Y46089418D01*
X14027112Y46089418D01*
X14027115Y46089416D01*
X14167125Y46051900D01*
X14167126Y46051900D01*
X14312074Y46051900D01*
X14312075Y46051900D01*
X14452085Y46089416D01*
X14452087Y46089418D01*
X14452089Y46089418D01*
X14577610Y46161888D01*
X14577610Y46161889D01*
X14577615Y46161891D01*
X14680109Y46264385D01*
X14692696Y46286186D01*
X14752582Y46389911D01*
X14752582Y46389913D01*
X14752584Y46389915D01*
X14790100Y46529925D01*
X14790100Y46674875D01*
X14752584Y46814885D01*
X14752582Y46814888D01*
X14752582Y46814890D01*
X14680112Y46940411D01*
X14680110Y46940413D01*
X14680109Y46940415D01*
X14577615Y47042909D01*
X14577612Y47042911D01*
X14577610Y47042913D01*
X14452088Y47115383D01*
X14452089Y47115383D01*
X14416836Y47124829D01*
X14312075Y47152900D01*
X14167125Y47152900D01*
X14110104Y47137621D01*
X14027110Y47115383D01*
X13898561Y47041164D01*
X13849061Y47027900D01*
X13812632Y47027900D01*
X13754441Y47046807D01*
X13718477Y47096307D01*
X13717005Y47152523D01*
X13725842Y47185500D01*
X13750500Y47277525D01*
X13750500Y47422475D01*
X13712984Y47562485D01*
X13712982Y47562488D01*
X13712982Y47562490D01*
X13640512Y47688011D01*
X13640510Y47688013D01*
X13640509Y47688015D01*
X13538015Y47790509D01*
X13538012Y47790511D01*
X13538010Y47790513D01*
X13412488Y47862983D01*
X13412489Y47862983D01*
X13354482Y47878526D01*
X13272475Y47900500D01*
X13127525Y47900500D01*
X13099998Y47893124D01*
X12987510Y47862983D01*
X12861989Y47790513D01*
X12759487Y47688011D01*
X12687017Y47562490D01*
X12649500Y47422475D01*
X12649500Y47277526D01*
X12687017Y47137511D01*
X12759487Y47011990D01*
X12759489Y47011988D01*
X12759491Y47011985D01*
X12815611Y46955865D01*
X12843387Y46901350D01*
X12833816Y46840918D01*
X12815610Y46815859D01*
X12122921Y46123171D01*
X12068404Y46095394D01*
X12020180Y46103032D01*
X12020147Y46102837D01*
X12011056Y46104417D01*
X12010915Y46104075D01*
X12010552Y46104225D01*
X12010546Y46104208D01*
X12010380Y46104278D01*
X12010156Y46104389D01*
X12009385Y46104707D01*
X12007615Y46105015D01*
X12005037Y46106503D01*
X12004993Y46106515D01*
X12004953Y46106538D01*
X11950011Y46121248D01*
X11896818Y46135500D01*
X11896773Y46135500D01*
X11896728Y46135512D01*
X11840709Y46135500D01*
X8015538Y46135500D01*
X7966038Y46148764D01*
X7958539Y46153094D01*
X7958536Y46153095D01*
X7837601Y46185500D01*
X7712399Y46185500D01*
X7631775Y46163897D01*
X7591463Y46153095D01*
X7483036Y46090495D01*
X7394505Y46001964D01*
X7331905Y45893537D01*
X7324289Y45865113D01*
X7299500Y45772601D01*
X7299500Y45647399D01*
X7331905Y45526464D01*
X7394505Y45418036D01*
X7483036Y45329505D01*
X7591464Y45266905D01*
X7712399Y45234500D01*
X7712401Y45234500D01*
X7837599Y45234500D01*
X7837601Y45234500D01*
X7958536Y45266905D01*
X7966038Y45271236D01*
X8015538Y45284500D01*
X11623610Y45284500D01*
X11681801Y45265593D01*
X11693599Y45255518D01*
X11735633Y45213502D01*
X11774697Y45174454D01*
X13399153Y43549909D01*
X13412905Y43536157D01*
X13440682Y43481639D01*
X13441900Y43466155D01*
X13441900Y42586539D01*
X13428636Y42537039D01*
X13354417Y42408490D01*
X13334523Y42334245D01*
X13316900Y42268475D01*
X13316900Y42123525D01*
X13342405Y42028342D01*
X13354417Y41983511D01*
X13426887Y41857990D01*
X13426889Y41857988D01*
X13426891Y41857985D01*
X13529385Y41755491D01*
X13529387Y41755490D01*
X13529389Y41755488D01*
X13654911Y41683018D01*
X13654912Y41683018D01*
X13654915Y41683016D01*
X13794925Y41645500D01*
X13794927Y41645500D01*
X13798297Y41644597D01*
X13842678Y41618974D01*
X15950615Y39511037D01*
X15950614Y39511037D01*
X16029837Y39431815D01*
X16126859Y39375799D01*
X16126857Y39375799D01*
X16126861Y39375798D01*
X16126863Y39375797D01*
X16235081Y39346800D01*
X16235082Y39346800D01*
X16235083Y39346800D01*
X44703516Y39346800D01*
X44703518Y39346800D01*
X44811737Y39375797D01*
X44811739Y39375799D01*
X44811741Y39375799D01*
X44840564Y39392441D01*
X44908763Y39431815D01*
X45574723Y40097776D01*
X45619102Y40123397D01*
X45622472Y40124300D01*
X45622475Y40124300D01*
X45762485Y40161816D01*
X45762487Y40161818D01*
X45762489Y40161818D01*
X45888010Y40234288D01*
X45888010Y40234289D01*
X45888015Y40234291D01*
X45990509Y40336785D01*
X46012010Y40374028D01*
X46057479Y40414969D01*
X46118330Y40421365D01*
X46147247Y40410264D01*
X46187511Y40387018D01*
X46187512Y40387018D01*
X46187515Y40387016D01*
X46327525Y40349500D01*
X46327526Y40349500D01*
X46472474Y40349500D01*
X46472475Y40349500D01*
X46612485Y40387016D01*
X46612487Y40387018D01*
X46612489Y40387018D01*
X46738010Y40459488D01*
X46738010Y40459489D01*
X46738015Y40459491D01*
X46769698Y40491175D01*
X46824213Y40518950D01*
X46884645Y40509379D01*
X46927910Y40466114D01*
X46938700Y40421169D01*
X46938700Y40259190D01*
X46919793Y40200999D01*
X46909704Y40189186D01*
X45776014Y39055496D01*
X45721497Y39027719D01*
X45706010Y39026500D01*
X10115190Y39026500D01*
X10056999Y39045407D01*
X10045186Y39055496D01*
X5958207Y43142475D01*
X11950900Y43142475D01*
X11950900Y42997525D01*
X11967020Y42937366D01*
X11988417Y42857511D01*
X12060887Y42731990D01*
X12060889Y42731988D01*
X12060891Y42731985D01*
X12163385Y42629491D01*
X12163387Y42629490D01*
X12163389Y42629488D01*
X12288911Y42557018D01*
X12288912Y42557018D01*
X12288915Y42557016D01*
X12428925Y42519500D01*
X12428926Y42519500D01*
X12573874Y42519500D01*
X12573875Y42519500D01*
X12713885Y42557016D01*
X12713887Y42557018D01*
X12713889Y42557018D01*
X12839410Y42629488D01*
X12839410Y42629489D01*
X12839415Y42629491D01*
X12941909Y42731985D01*
X12952363Y42750091D01*
X13014382Y42857511D01*
X13014382Y42857513D01*
X13014384Y42857515D01*
X13051900Y42997525D01*
X13051900Y43142475D01*
X13014384Y43282485D01*
X13014382Y43282488D01*
X13014382Y43282490D01*
X12941912Y43408011D01*
X12941910Y43408013D01*
X12941909Y43408015D01*
X12839415Y43510509D01*
X12839412Y43510511D01*
X12839410Y43510513D01*
X12713888Y43582983D01*
X12713889Y43582983D01*
X12646686Y43600990D01*
X12573875Y43620500D01*
X12428925Y43620500D01*
X12367190Y43603959D01*
X12288910Y43582983D01*
X12163389Y43510513D01*
X12060887Y43408011D01*
X11988417Y43282490D01*
X11974769Y43231555D01*
X11950900Y43142475D01*
X5958207Y43142475D01*
X5468896Y43631786D01*
X5441119Y43686303D01*
X5439900Y43701790D01*
X5439900Y44727213D01*
X5458807Y44785404D01*
X5508307Y44821368D01*
X5569493Y44821368D01*
X5608901Y44797219D01*
X5646635Y44759485D01*
X5646637Y44759484D01*
X5646639Y44759482D01*
X5777861Y44683721D01*
X5777859Y44683721D01*
X5777863Y44683720D01*
X5777865Y44683719D01*
X5924234Y44644500D01*
X5924236Y44644500D01*
X6075764Y44644500D01*
X6075766Y44644500D01*
X6222135Y44683719D01*
X6222137Y44683721D01*
X6222139Y44683721D01*
X6353360Y44759482D01*
X6353360Y44759483D01*
X6353365Y44759485D01*
X6460515Y44866635D01*
X6496876Y44929614D01*
X6536279Y44997861D01*
X6536279Y44997863D01*
X6536281Y44997865D01*
X6575500Y45144234D01*
X6575500Y45295766D01*
X6536281Y45442135D01*
X6536279Y45442138D01*
X6536279Y45442140D01*
X6460518Y45573361D01*
X6460516Y45573363D01*
X6460515Y45573365D01*
X6353365Y45680515D01*
X6353362Y45680517D01*
X6353360Y45680519D01*
X6222138Y45756280D01*
X6222140Y45756280D01*
X6161227Y45772601D01*
X6075766Y45795500D01*
X5924234Y45795500D01*
X5838773Y45772601D01*
X5777860Y45756280D01*
X5646639Y45680519D01*
X5646638Y45680518D01*
X5646635Y45680516D01*
X5646635Y45680515D01*
X5608901Y45642782D01*
X5554387Y45615006D01*
X5493955Y45624577D01*
X5450690Y45667842D01*
X5439900Y45712787D01*
X5439900Y50507213D01*
X5458807Y50565404D01*
X5508307Y50601368D01*
X5569493Y50601368D01*
X5608901Y50577219D01*
X5646635Y50539485D01*
X5646637Y50539484D01*
X5646639Y50539482D01*
X5777861Y50463721D01*
X5777859Y50463721D01*
X5777863Y50463720D01*
X5777865Y50463719D01*
X5924234Y50424500D01*
X5924236Y50424500D01*
X6075764Y50424500D01*
X6075766Y50424500D01*
X6222135Y50463719D01*
X6222137Y50463721D01*
X6222139Y50463721D01*
X6232105Y50469475D01*
X7603500Y50469475D01*
X7603500Y50324525D01*
X7608852Y50304552D01*
X7641017Y50184511D01*
X7713487Y50058990D01*
X7713489Y50058988D01*
X7713491Y50058985D01*
X7815985Y49956491D01*
X7815987Y49956490D01*
X7815989Y49956488D01*
X7941511Y49884018D01*
X7941512Y49884018D01*
X7941515Y49884016D01*
X8081525Y49846500D01*
X8081526Y49846500D01*
X8226474Y49846500D01*
X8226475Y49846500D01*
X8366485Y49884016D01*
X8366487Y49884018D01*
X8366489Y49884018D01*
X8492010Y49956488D01*
X8492010Y49956489D01*
X8492015Y49956491D01*
X8594509Y50058985D01*
X8641163Y50139792D01*
X8666982Y50184511D01*
X8666982Y50184513D01*
X8666984Y50184515D01*
X8704500Y50324525D01*
X8704500Y50469475D01*
X8666984Y50609485D01*
X8666982Y50609488D01*
X8666982Y50609490D01*
X8594512Y50735011D01*
X8594510Y50735013D01*
X8594509Y50735015D01*
X8492015Y50837509D01*
X8492012Y50837511D01*
X8492010Y50837513D01*
X8366489Y50909983D01*
X8313296Y50924236D01*
X8226475Y50947500D01*
X8081525Y50947500D01*
X8032942Y50934482D01*
X7941510Y50909983D01*
X7815989Y50837513D01*
X7713487Y50735011D01*
X7641017Y50609490D01*
X7613612Y50507213D01*
X7603500Y50469475D01*
X6232105Y50469475D01*
X6353360Y50539482D01*
X6353360Y50539483D01*
X6353365Y50539485D01*
X6460515Y50646635D01*
X6511539Y50735011D01*
X6536279Y50777861D01*
X6536279Y50777863D01*
X6536281Y50777865D01*
X6575500Y50924234D01*
X6575500Y51075766D01*
X6536281Y51222135D01*
X6536279Y51222138D01*
X6536279Y51222140D01*
X6460518Y51353361D01*
X6460516Y51353363D01*
X6460515Y51353365D01*
X6353365Y51460515D01*
X6353362Y51460517D01*
X6353360Y51460519D01*
X6222138Y51536280D01*
X6222140Y51536280D01*
X6165347Y51551497D01*
X6075766Y51575500D01*
X5924234Y51575500D01*
X5834652Y51551497D01*
X5777860Y51536280D01*
X5646639Y51460519D01*
X5646638Y51460518D01*
X5646635Y51460516D01*
X5646635Y51460515D01*
X5608901Y51422782D01*
X5554387Y51395006D01*
X5493955Y51404577D01*
X5450690Y51447842D01*
X5439900Y51492787D01*
X5439900Y53043827D01*
X5458807Y53102018D01*
X5468887Y53113821D01*
X5930517Y53575501D01*
X5985032Y53603280D01*
X6000524Y53604500D01*
X6086774Y53604500D01*
X6086775Y53604500D01*
X6226785Y53642016D01*
X6226787Y53642018D01*
X6226789Y53642018D01*
X6352310Y53714488D01*
X6352310Y53714489D01*
X6352315Y53714491D01*
X6454809Y53816985D01*
X6527284Y53942515D01*
X6564800Y54082525D01*
X6564800Y54227475D01*
X6527284Y54367485D01*
X6527282Y54367488D01*
X6527282Y54367490D01*
X6454812Y54493011D01*
X6454810Y54493013D01*
X6454809Y54493015D01*
X6352315Y54595509D01*
X6352312Y54595511D01*
X6352310Y54595513D01*
X6226788Y54667983D01*
X6226789Y54667983D01*
X6160676Y54685698D01*
X6086775Y54705500D01*
X5941825Y54705500D01*
X5885416Y54690385D01*
X5801810Y54667983D01*
X5676289Y54595513D01*
X5573787Y54493011D01*
X5501317Y54367490D01*
X5463800Y54227475D01*
X5463800Y54141153D01*
X5444893Y54082962D01*
X5434807Y54071153D01*
X4836682Y53472964D01*
X4836680Y53472962D01*
X4808926Y53445209D01*
X4808920Y53445200D01*
X4786817Y53406910D01*
X4786814Y53406906D01*
X4762781Y53365281D01*
X4752911Y53328436D01*
X4752910Y53328432D01*
X4738898Y53276138D01*
X500500Y53276138D01*
X500500Y71915161D01*
X519407Y71973352D01*
X568907Y72009316D01*
X625121Y72010788D01*
X749725Y71977400D01*
X749727Y71977400D01*
X894674Y71977400D01*
X894675Y71977400D01*
X1034685Y72014916D01*
X1034687Y72014918D01*
X1034689Y72014918D01*
X1160210Y72087388D01*
X1160210Y72087389D01*
X1160215Y72087391D01*
X1190722Y72117898D01*
X1221229Y72148404D01*
X1275746Y72176181D01*
X1291232Y72177400D01*
X1907810Y72177400D01*
X1966001Y72158493D01*
X1977814Y72148404D01*
X5755904Y68370315D01*
X5783681Y68315798D01*
X5784900Y68300311D01*
X5784900Y68214026D01*
X5822417Y68074011D01*
X5894887Y67948490D01*
X5894889Y67948488D01*
X5894891Y67948485D01*
X5997385Y67845991D01*
X5997387Y67845990D01*
X5997389Y67845988D01*
X6122911Y67773518D01*
X6122909Y67773518D01*
X6122913Y67773517D01*
X6122915Y67773516D01*
X6219625Y67747603D01*
X6270937Y67714280D01*
X6292864Y67657159D01*
X6293000Y67651977D01*
X6293000Y67534426D01*
X6330517Y67394411D01*
X6402987Y67268890D01*
X6402989Y67268888D01*
X6402991Y67268885D01*
X6505485Y67166391D01*
X6505487Y67166390D01*
X6505489Y67166388D01*
X6631011Y67093918D01*
X6631012Y67093918D01*
X6631015Y67093916D01*
X6771025Y67056400D01*
X6857310Y67056400D01*
X6915501Y67037493D01*
X6927314Y67027404D01*
X7046904Y66907814D01*
X7074681Y66853297D01*
X7075900Y66837810D01*
X7075900Y57652753D01*
X7056993Y57594562D01*
X7007493Y57558598D01*
X6946307Y57558598D01*
X6927401Y57567016D01*
X6885888Y57590983D01*
X6885885Y57590984D01*
X6745875Y57628500D01*
X6600925Y57628500D01*
X6568300Y57619758D01*
X6460910Y57590983D01*
X6335389Y57518513D01*
X6232887Y57416011D01*
X6160417Y57290490D01*
X6141704Y57220651D01*
X6122900Y57150475D01*
X6122900Y57005525D01*
X6139524Y56943485D01*
X6160417Y56865511D01*
X6232887Y56739990D01*
X6232889Y56739988D01*
X6232891Y56739985D01*
X6335385Y56637491D01*
X6335387Y56637490D01*
X6335389Y56637488D01*
X6460911Y56565018D01*
X6460912Y56565018D01*
X6460915Y56565016D01*
X6600925Y56527500D01*
X6687204Y56527500D01*
X6745395Y56508593D01*
X6757208Y56498503D01*
X11582085Y51673532D01*
X11582089Y51673529D01*
X11662006Y51627388D01*
X11662008Y51627388D01*
X11662009Y51627387D01*
X11662010Y51627387D01*
X11662011Y51627387D01*
X11662012Y51627386D01*
X11751156Y51603500D01*
X11843441Y51603500D01*
X11991701Y51603500D01*
X12049892Y51584593D01*
X12061707Y51574501D01*
X13216622Y50419501D01*
X13244398Y50364983D01*
X13234824Y50304552D01*
X13191558Y50261289D01*
X13146616Y50250500D01*
X13127525Y50250500D01*
X13065790Y50233959D01*
X12987510Y50212983D01*
X12861989Y50140513D01*
X12759487Y50038011D01*
X12687017Y49912490D01*
X12677106Y49875500D01*
X12649500Y49772475D01*
X12649500Y49627525D01*
X12661288Y49583533D01*
X12687017Y49487511D01*
X12759487Y49361990D01*
X12759489Y49361988D01*
X12759491Y49361985D01*
X12861985Y49259491D01*
X12861987Y49259490D01*
X12861989Y49259488D01*
X12987511Y49187018D01*
X12987512Y49187018D01*
X12987515Y49187016D01*
X13127525Y49149500D01*
X13127526Y49149500D01*
X13272474Y49149500D01*
X13272475Y49149500D01*
X13412485Y49187016D01*
X13412487Y49187018D01*
X13412489Y49187018D01*
X13538010Y49259488D01*
X13538010Y49259489D01*
X13538015Y49259491D01*
X13640509Y49361985D01*
X13653697Y49384827D01*
X13712982Y49487511D01*
X13712982Y49487513D01*
X13712984Y49487515D01*
X13750500Y49627525D01*
X13750500Y49646564D01*
X13769407Y49704755D01*
X13818907Y49740719D01*
X13880093Y49740719D01*
X13919505Y49716566D01*
X14505206Y49130822D01*
X14532982Y49076306D01*
X14534200Y49060822D01*
X14534200Y48415857D01*
X14551443Y48351502D01*
X14558086Y48326711D01*
X14558087Y48326709D01*
X14604228Y48246791D01*
X14604230Y48246788D01*
X16927488Y45923530D01*
X16953476Y45908526D01*
X16986427Y45889501D01*
X16986432Y45889499D01*
X17007408Y45877388D01*
X17007409Y45877388D01*
X17007412Y45877386D01*
X17096556Y45853500D01*
X20153851Y45853500D01*
X20154093Y45853485D01*
X20160463Y45853487D01*
X20160467Y45853486D01*
X20205019Y45853500D01*
X20252644Y45853500D01*
X20252644Y45853501D01*
X20252703Y45853508D01*
X20252749Y45853515D01*
X20252754Y45853515D01*
X20295939Y45865102D01*
X20295939Y45865101D01*
X20295950Y45865106D01*
X20341788Y45877386D01*
X20341793Y45877390D01*
X20341807Y45877393D01*
X20341876Y45877422D01*
X20341885Y45877428D01*
X20341891Y45877429D01*
X20382908Y45901128D01*
X20421712Y45923531D01*
X20421716Y45923536D01*
X20421733Y45923545D01*
X20421788Y45923587D01*
X20421796Y45923596D01*
X20421801Y45923598D01*
X20456657Y45958477D01*
X20486969Y45988788D01*
X20486971Y45988793D01*
X20491621Y45993442D01*
X20491765Y45993607D01*
X20916374Y46418482D01*
X20970881Y46446276D01*
X20986399Y46447500D01*
X21072474Y46447500D01*
X21072475Y46447500D01*
X21212485Y46485016D01*
X21212487Y46485018D01*
X21212489Y46485018D01*
X21338010Y46557488D01*
X21338010Y46557489D01*
X21338015Y46557491D01*
X21440509Y46659985D01*
X21512984Y46785515D01*
X21550500Y46925525D01*
X21550500Y47070475D01*
X21512984Y47210485D01*
X21512982Y47210488D01*
X21512982Y47210490D01*
X21440512Y47336011D01*
X21440510Y47336013D01*
X21440509Y47336015D01*
X21338015Y47438509D01*
X21338012Y47438511D01*
X21338010Y47438513D01*
X21212488Y47510983D01*
X21212489Y47510983D01*
X21162801Y47524297D01*
X21072475Y47548500D01*
X20927525Y47548500D01*
X20865790Y47531959D01*
X20787510Y47510983D01*
X20661989Y47438513D01*
X20559487Y47336011D01*
X20487017Y47210490D01*
X20449500Y47070475D01*
X20449500Y46983981D01*
X20430593Y46925790D01*
X20420526Y46914000D01*
X20090255Y46583519D01*
X20035747Y46555724D01*
X20020229Y46554500D01*
X17328890Y46554500D01*
X17270699Y46573407D01*
X17258886Y46583496D01*
X15264196Y48578186D01*
X15236419Y48632703D01*
X15235200Y48648190D01*
X15235200Y49057790D01*
X15254107Y49115981D01*
X15303607Y49151945D01*
X15364793Y49151945D01*
X15414293Y49115981D01*
X15419161Y49108484D01*
X15419499Y49108043D01*
X15419503Y49108039D01*
X15419505Y49108036D01*
X15508036Y49019505D01*
X15616464Y48956905D01*
X15737399Y48924500D01*
X15774165Y48924500D01*
X15832356Y48905593D01*
X15844169Y48895504D01*
X16364630Y48375043D01*
X16380365Y48354534D01*
X16422137Y48282173D01*
X16422139Y48282171D01*
X16487393Y48216910D01*
X16567314Y48170761D01*
X16656457Y48146870D01*
X16748745Y48146865D01*
X16837890Y48170745D01*
X16917817Y48216885D01*
X18804648Y50103500D01*
X18975676Y50274508D01*
X19030195Y50302282D01*
X19045676Y50303500D01*
X24280968Y50303500D01*
X24339159Y50284593D01*
X24350971Y50274504D01*
X24411984Y50213492D01*
X24411989Y50213488D01*
X24537511Y50141018D01*
X24537512Y50141018D01*
X24537515Y50141016D01*
X24677525Y50103500D01*
X24677526Y50103500D01*
X24822474Y50103500D01*
X24822475Y50103500D01*
X24962485Y50141016D01*
X24962487Y50141018D01*
X24962489Y50141018D01*
X25088010Y50213488D01*
X25088010Y50213489D01*
X25088015Y50213491D01*
X25190509Y50315985D01*
X25250274Y50419501D01*
X25262982Y50441511D01*
X25262982Y50441513D01*
X25262984Y50441515D01*
X25300500Y50581525D01*
X25300500Y50726475D01*
X25262984Y50866485D01*
X25262982Y50866488D01*
X25262982Y50866490D01*
X25190512Y50992011D01*
X25190510Y50992013D01*
X25190509Y50992015D01*
X25088015Y51094509D01*
X25088012Y51094511D01*
X25088010Y51094513D01*
X24962488Y51166983D01*
X24962489Y51166983D01*
X24932896Y51174913D01*
X24822475Y51204500D01*
X24677525Y51204500D01*
X24615790Y51187959D01*
X24537510Y51166983D01*
X24411989Y51094513D01*
X24411984Y51094509D01*
X24350971Y51033496D01*
X24296454Y51005719D01*
X24280968Y51004500D01*
X18850292Y51004500D01*
X18813377Y51004502D01*
X18813376Y51004502D01*
X18813360Y51004502D01*
X18813323Y51004497D01*
X18812772Y51004344D01*
X18784342Y50996727D01*
X18763907Y50991251D01*
X18724221Y50980620D01*
X18688974Y50960270D01*
X18688972Y50960269D01*
X18644296Y50934478D01*
X18619805Y50909987D01*
X18619803Y50909984D01*
X16754966Y49045361D01*
X16700447Y49017587D01*
X16640016Y49027162D01*
X16614962Y49045365D01*
X16304496Y49355831D01*
X16276719Y49410348D01*
X16275500Y49425835D01*
X16275500Y49462599D01*
X16275500Y49462601D01*
X16243095Y49583536D01*
X16180495Y49691964D01*
X16091964Y49780495D01*
X15983536Y49843095D01*
X15862601Y49875500D01*
X15737399Y49875500D01*
X15656775Y49853897D01*
X15616463Y49843095D01*
X15508036Y49780495D01*
X15419505Y49691964D01*
X15356904Y49583534D01*
X15356903Y49583533D01*
X15335127Y49502263D01*
X15301803Y49450949D01*
X15244681Y49429023D01*
X15185581Y49444859D01*
X15169495Y49457885D01*
X15165169Y49462211D01*
X15165169Y49462212D01*
X15151655Y49475726D01*
X15151653Y49475729D01*
X15151652Y49475729D01*
X14568434Y50058990D01*
X12689063Y51938500D01*
X12661288Y51993017D01*
X12670862Y52053448D01*
X12714128Y52096711D01*
X12759070Y52107500D01*
X26890028Y52107500D01*
X26948219Y52088593D01*
X26960027Y52078509D01*
X27077367Y51961186D01*
X28825816Y50212983D01*
X28828999Y50209801D01*
X28856780Y50155286D01*
X28858000Y50139792D01*
X28858000Y48205032D01*
X28839093Y48146841D01*
X28829004Y48135029D01*
X28767991Y48074016D01*
X28767987Y48074011D01*
X28695517Y47948490D01*
X28658000Y47808475D01*
X28658000Y47663526D01*
X28695517Y47523511D01*
X28767987Y47397990D01*
X28767989Y47397988D01*
X28767991Y47397985D01*
X28870485Y47295491D01*
X28870487Y47295490D01*
X28870489Y47295488D01*
X28996011Y47223018D01*
X28996012Y47223018D01*
X28996015Y47223016D01*
X29136025Y47185500D01*
X29136026Y47185500D01*
X29280974Y47185500D01*
X29280975Y47185500D01*
X29420985Y47223016D01*
X29420987Y47223018D01*
X29420989Y47223018D01*
X29546510Y47295488D01*
X29546510Y47295489D01*
X29546515Y47295491D01*
X29649009Y47397985D01*
X29721484Y47523515D01*
X29721484Y47523517D01*
X29721935Y47524297D01*
X29767405Y47565238D01*
X29828255Y47571634D01*
X29877673Y47544803D01*
X29911985Y47510491D01*
X29911987Y47510490D01*
X29911989Y47510488D01*
X30037511Y47438018D01*
X30037512Y47438018D01*
X30037515Y47438016D01*
X30177525Y47400500D01*
X30177526Y47400500D01*
X30322474Y47400500D01*
X30322475Y47400500D01*
X30462485Y47438016D01*
X30462487Y47438018D01*
X30462489Y47438018D01*
X30588010Y47510488D01*
X30588010Y47510489D01*
X30588015Y47510491D01*
X30690509Y47612985D01*
X30692260Y47616018D01*
X30762982Y47738511D01*
X30762982Y47738513D01*
X30762984Y47738515D01*
X30800500Y47878525D01*
X30800500Y48023475D01*
X30762984Y48163485D01*
X30762982Y48163488D01*
X30762982Y48163490D01*
X30690512Y48289011D01*
X30690510Y48289013D01*
X30690509Y48289015D01*
X30588015Y48391509D01*
X30588012Y48391511D01*
X30588010Y48391513D01*
X30462488Y48463983D01*
X30462489Y48463983D01*
X30432896Y48471913D01*
X30322475Y48501500D01*
X30177525Y48501500D01*
X30115790Y48484959D01*
X30037510Y48463983D01*
X29911989Y48391513D01*
X29809487Y48289011D01*
X29743736Y48175126D01*
X29698267Y48134185D01*
X29637416Y48127789D01*
X29584428Y48158382D01*
X29559542Y48214278D01*
X29559000Y48224626D01*
X29559000Y50139801D01*
X29577907Y50197992D01*
X29587999Y50209807D01*
X29694190Y50315990D01*
X30132707Y50754475D01*
X33199500Y50754475D01*
X33199500Y50609525D01*
X33207003Y50581525D01*
X33237017Y50469511D01*
X33309487Y50343990D01*
X33309489Y50343988D01*
X33309491Y50343985D01*
X33411985Y50241491D01*
X33411987Y50241490D01*
X33411989Y50241488D01*
X33537511Y50169018D01*
X33537512Y50169018D01*
X33537515Y50169016D01*
X33677525Y50131500D01*
X33677526Y50131500D01*
X33822474Y50131500D01*
X33822475Y50131500D01*
X33962485Y50169016D01*
X33962487Y50169018D01*
X33962489Y50169018D01*
X34088010Y50241488D01*
X34088010Y50241489D01*
X34088015Y50241491D01*
X34190509Y50343985D01*
X34202632Y50364983D01*
X34262982Y50469511D01*
X34262982Y50469513D01*
X34262984Y50469515D01*
X34300500Y50609525D01*
X34300500Y50754475D01*
X34262984Y50894485D01*
X34262982Y50894488D01*
X34262982Y50894490D01*
X34190512Y51020011D01*
X34190510Y51020013D01*
X34190509Y51020015D01*
X34088015Y51122509D01*
X34088012Y51122511D01*
X34088010Y51122513D01*
X33962488Y51194983D01*
X33962489Y51194983D01*
X33861157Y51222135D01*
X33822475Y51232500D01*
X33677525Y51232500D01*
X33638843Y51222135D01*
X33537510Y51194983D01*
X33411989Y51122513D01*
X33309487Y51020011D01*
X33237017Y50894490D01*
X33221750Y50837513D01*
X33199500Y50754475D01*
X30132707Y50754475D01*
X35705499Y56326855D01*
X35760017Y56354630D01*
X35820448Y56345056D01*
X35863711Y56301790D01*
X35874500Y56256848D01*
X35874500Y56195525D01*
X35900435Y56098737D01*
X35912017Y56055511D01*
X35984487Y55929990D01*
X35984489Y55929988D01*
X35984491Y55929985D01*
X36045505Y55868971D01*
X36073281Y55814456D01*
X36074500Y55798969D01*
X36074500Y51798857D01*
X36090594Y51738790D01*
X36098386Y51709711D01*
X36098387Y51709709D01*
X36119274Y51673532D01*
X36144530Y51629788D01*
X38747157Y49027162D01*
X41320504Y46453815D01*
X41348281Y46399298D01*
X41349500Y46383811D01*
X41349500Y46297525D01*
X41379087Y46187104D01*
X41387017Y46157511D01*
X41459487Y46031990D01*
X41459489Y46031988D01*
X41459491Y46031985D01*
X41561985Y45929491D01*
X41561987Y45929490D01*
X41561989Y45929488D01*
X41687511Y45857018D01*
X41687512Y45857018D01*
X41687515Y45857016D01*
X41827525Y45819500D01*
X41827526Y45819500D01*
X41972474Y45819500D01*
X41972475Y45819500D01*
X42112485Y45857016D01*
X42112487Y45857018D01*
X42112489Y45857018D01*
X42238010Y45929488D01*
X42238010Y45929489D01*
X42238015Y45929491D01*
X42340509Y46031985D01*
X42374290Y46090495D01*
X42412982Y46157511D01*
X42412982Y46157513D01*
X42412984Y46157515D01*
X42450500Y46297525D01*
X42450500Y46442475D01*
X42412984Y46582485D01*
X42412982Y46582488D01*
X42412982Y46582490D01*
X42340512Y46708011D01*
X42340510Y46708013D01*
X42340509Y46708015D01*
X42238015Y46810509D01*
X42238012Y46810511D01*
X42238010Y46810513D01*
X42112488Y46882983D01*
X42112489Y46882983D01*
X42043943Y46901350D01*
X41972475Y46920500D01*
X41972474Y46920500D01*
X41886189Y46920500D01*
X41827998Y46939407D01*
X41816185Y46949496D01*
X36804496Y51961186D01*
X36776719Y52015703D01*
X36775500Y52031190D01*
X36775500Y55798969D01*
X36794407Y55857160D01*
X36804490Y55868967D01*
X36865509Y55929985D01*
X36903788Y55996286D01*
X36937982Y56055511D01*
X36937982Y56055513D01*
X36937984Y56055515D01*
X36975500Y56195525D01*
X36975500Y56340475D01*
X36937984Y56480485D01*
X36937982Y56480488D01*
X36937982Y56480490D01*
X36865512Y56606011D01*
X36865510Y56606013D01*
X36865509Y56606015D01*
X36763015Y56708509D01*
X36763012Y56708511D01*
X36763010Y56708513D01*
X36637488Y56780983D01*
X36637489Y56780983D01*
X36553548Y56803475D01*
X36497475Y56818500D01*
X36436201Y56818500D01*
X36378010Y56837407D01*
X36342046Y56886907D01*
X36342046Y56948093D01*
X36366200Y56987506D01*
X38037294Y58658475D01*
X40197800Y58658475D01*
X40197800Y58513525D01*
X40217689Y58439299D01*
X40235317Y58373511D01*
X40307787Y58247990D01*
X40307789Y58247988D01*
X40307791Y58247985D01*
X40368805Y58186971D01*
X40396581Y58132456D01*
X40397800Y58116969D01*
X40397800Y56615857D01*
X40408351Y56576479D01*
X40421685Y56526713D01*
X40426414Y56518524D01*
X40426416Y56518514D01*
X40426419Y56518515D01*
X40437972Y56498503D01*
X40467827Y56446792D01*
X50103823Y46810513D01*
X50390505Y46523823D01*
X50418281Y46469306D01*
X50419500Y46453820D01*
X50419500Y46367525D01*
X50438256Y46297526D01*
X50457017Y46227511D01*
X50529487Y46101990D01*
X50529489Y46101988D01*
X50529491Y46101985D01*
X50631985Y45999491D01*
X50631987Y45999490D01*
X50631989Y45999488D01*
X50757511Y45927018D01*
X50757512Y45927018D01*
X50757515Y45927016D01*
X50897525Y45889500D01*
X50897526Y45889500D01*
X51042474Y45889500D01*
X51042475Y45889500D01*
X51182485Y45927016D01*
X51182487Y45927018D01*
X51182489Y45927018D01*
X51308010Y45999488D01*
X51308010Y45999489D01*
X51308015Y45999491D01*
X51410509Y46101985D01*
X51411001Y46102837D01*
X51482982Y46227511D01*
X51482982Y46227513D01*
X51482984Y46227515D01*
X51520500Y46367525D01*
X51520500Y46512475D01*
X51482984Y46652485D01*
X51482982Y46652488D01*
X51482982Y46652490D01*
X51410512Y46778011D01*
X51410510Y46778013D01*
X51410509Y46778015D01*
X51308015Y46880509D01*
X51308012Y46880511D01*
X51308010Y46880513D01*
X51182488Y46952983D01*
X51182489Y46952983D01*
X51152896Y46960913D01*
X51042475Y46990500D01*
X51042474Y46990500D01*
X50956200Y46990500D01*
X50898009Y47009407D01*
X50886195Y47019497D01*
X41127795Y56778185D01*
X41100019Y56832702D01*
X41098800Y56848188D01*
X41098800Y58116969D01*
X41117707Y58175160D01*
X41127790Y58186967D01*
X41188809Y58247985D01*
X41261284Y58373515D01*
X41298800Y58513525D01*
X41298800Y58658475D01*
X41261284Y58798485D01*
X41261282Y58798488D01*
X41261282Y58798490D01*
X41188812Y58924011D01*
X41188810Y58924013D01*
X41188809Y58924015D01*
X41086315Y59026509D01*
X41086312Y59026511D01*
X41086310Y59026513D01*
X40960788Y59098983D01*
X40960789Y59098983D01*
X40931196Y59106913D01*
X40820775Y59136500D01*
X40675825Y59136500D01*
X40635105Y59125589D01*
X40535810Y59098983D01*
X40410289Y59026513D01*
X40307787Y58924011D01*
X40235317Y58798490D01*
X40216022Y58726481D01*
X40197800Y58658475D01*
X38037294Y58658475D01*
X38113795Y58734970D01*
X38745378Y59366506D01*
X38799896Y59394282D01*
X38815379Y59395500D01*
X49247869Y59395500D01*
X49247897Y59395499D01*
X49254773Y59395500D01*
X49254778Y59395498D01*
X49291693Y59395500D01*
X49347044Y59395500D01*
X49347053Y59395503D01*
X49347056Y59395503D01*
X49347066Y59395503D01*
X49393680Y59407997D01*
X49436188Y59419386D01*
X49436196Y59419391D01*
X49436208Y59419394D01*
X49482270Y59445993D01*
X49516112Y59465531D01*
X49516118Y59465538D01*
X49516130Y59465544D01*
X49556138Y59505558D01*
X49581369Y59530788D01*
X49581369Y59530789D01*
X49586989Y59536408D01*
X49587014Y59536438D01*
X50647660Y60597215D01*
X50816223Y60765799D01*
X50870738Y60793580D01*
X50886231Y60794800D01*
X50972474Y60794800D01*
X50972475Y60794800D01*
X51112485Y60832316D01*
X51112487Y60832318D01*
X51112489Y60832318D01*
X51238010Y60904788D01*
X51238010Y60904789D01*
X51238015Y60904791D01*
X51340509Y61007285D01*
X51340512Y61007290D01*
X51412982Y61132811D01*
X51412982Y61132813D01*
X51412984Y61132815D01*
X51450500Y61272825D01*
X51450500Y61417775D01*
X51412984Y61557785D01*
X51412982Y61557788D01*
X51412982Y61557790D01*
X51340512Y61683311D01*
X51340510Y61683313D01*
X51340509Y61683315D01*
X51238015Y61785809D01*
X51238012Y61785811D01*
X51238010Y61785813D01*
X51112488Y61858283D01*
X51112489Y61858283D01*
X51082896Y61866213D01*
X50972475Y61895800D01*
X50827525Y61895800D01*
X50765790Y61879259D01*
X50687510Y61858283D01*
X50561989Y61785813D01*
X50459487Y61683311D01*
X50387017Y61557790D01*
X50349500Y61417775D01*
X50349500Y61331449D01*
X50330593Y61273258D01*
X50320508Y61261450D01*
X50054960Y60995869D01*
X50000445Y60968088D01*
X49940012Y60977656D01*
X49896745Y61020917D01*
X49887170Y61081349D01*
X49899214Y61115366D01*
X49912984Y61139215D01*
X49950500Y61279225D01*
X49950500Y61424175D01*
X49912984Y61564185D01*
X49912982Y61564188D01*
X49912982Y61564190D01*
X49840512Y61689711D01*
X49840510Y61689713D01*
X49840509Y61689715D01*
X49738015Y61792209D01*
X49738012Y61792211D01*
X49738010Y61792213D01*
X49612488Y61864683D01*
X49612489Y61864683D01*
X49582896Y61872613D01*
X49472475Y61902200D01*
X49327525Y61902200D01*
X49265790Y61885659D01*
X49187510Y61864683D01*
X49061989Y61792213D01*
X48959487Y61689711D01*
X48887017Y61564190D01*
X48849500Y61424175D01*
X48849500Y61279226D01*
X48887017Y61139211D01*
X48959487Y61013690D01*
X48959489Y61013688D01*
X48959491Y61013685D01*
X49061985Y60911191D01*
X49061987Y60911190D01*
X49061989Y60911188D01*
X49187511Y60838718D01*
X49187512Y60838718D01*
X49187515Y60838716D01*
X49327525Y60801200D01*
X49327526Y60801200D01*
X49472474Y60801200D01*
X49472475Y60801200D01*
X49612485Y60838716D01*
X49636421Y60852536D01*
X49696266Y60865258D01*
X49752162Y60840374D01*
X49782757Y60787387D01*
X49776363Y60726536D01*
X49755929Y60696801D01*
X49184702Y60125501D01*
X49130187Y60097720D01*
X49114694Y60096500D01*
X38613832Y60096500D01*
X38583070Y60096501D01*
X38583069Y60096501D01*
X38583059Y60096501D01*
X38528997Y60082016D01*
X38493918Y60072618D01*
X38464023Y60055360D01*
X38464024Y60055359D01*
X38414000Y60026480D01*
X38413998Y60026479D01*
X38413990Y60026472D01*
X38413958Y60026439D01*
X38400806Y60013287D01*
X38400803Y60013285D01*
X29278490Y50891650D01*
X29223972Y50863874D01*
X29163541Y50873448D01*
X29138490Y50891648D01*
X27319839Y52710043D01*
X27319835Y52710046D01*
X27291412Y52738469D01*
X27291409Y52738471D01*
X27291399Y52738481D01*
X27291394Y52738485D01*
X27245363Y52765057D01*
X27245363Y52765058D01*
X27245356Y52765060D01*
X27211485Y52784616D01*
X27211470Y52784622D01*
X27211467Y52784623D01*
X27211465Y52784624D01*
X27166040Y52796792D01*
X27166034Y52796796D01*
X27166034Y52796794D01*
X27122340Y52808502D01*
X27122329Y52808504D01*
X27082771Y52808501D01*
X27082767Y52808500D01*
X14471163Y52808500D01*
X14412972Y52827407D01*
X14377008Y52876907D01*
X14377008Y52938093D01*
X14379699Y52945386D01*
X14397158Y52987533D01*
X14421199Y53108377D01*
X14421202Y53231590D01*
X14397168Y53352436D01*
X14350019Y53466271D01*
X14281568Y53568721D01*
X13957807Y53892499D01*
X13930031Y53947016D01*
X13939605Y54007447D01*
X13982870Y54050711D01*
X14027813Y54061500D01*
X15997878Y54061500D01*
X16056069Y54042593D01*
X16092033Y53993093D01*
X16093504Y53936878D01*
X16087000Y53912601D01*
X16087000Y53787399D01*
X16119405Y53666464D01*
X16182005Y53558036D01*
X16270536Y53469505D01*
X16378964Y53406905D01*
X16499899Y53374500D01*
X16499901Y53374500D01*
X16625099Y53374500D01*
X16625101Y53374500D01*
X16746036Y53406905D01*
X16854464Y53469505D01*
X16942995Y53558036D01*
X17005595Y53666464D01*
X17038000Y53787399D01*
X17038000Y53912601D01*
X17031495Y53936878D01*
X17034698Y53997978D01*
X17073203Y54045528D01*
X17127122Y54061500D01*
X18131504Y54061500D01*
X18131506Y54061500D01*
X18252352Y54085537D01*
X18366186Y54132689D01*
X18468633Y54201142D01*
X18555758Y54288267D01*
X18624211Y54390714D01*
X18671363Y54504548D01*
X18695400Y54625394D01*
X18695400Y54625405D01*
X18695860Y54630068D01*
X18720377Y54686127D01*
X18773162Y54717069D01*
X18834053Y54711075D01*
X18843885Y54706106D01*
X18859830Y54696900D01*
X18860453Y54696422D01*
X18870643Y54690653D01*
X18871132Y54690374D01*
X18871898Y54690175D01*
X18890639Y54685154D01*
X18960256Y54666500D01*
X18960257Y54666500D01*
X26812744Y54666500D01*
X26884389Y54685698D01*
X26884392Y54685698D01*
X26898822Y54689564D01*
X26901580Y54690209D01*
X26901885Y54690386D01*
X26901888Y54690386D01*
X26947286Y54716598D01*
X26973138Y54731523D01*
X26975227Y54732462D01*
X26980505Y54735724D01*
X26981834Y54736519D01*
X26982995Y54737642D01*
X26987205Y54741590D01*
X26988726Y54743446D01*
X27010292Y54765012D01*
X27672291Y55426988D01*
X28573810Y56328475D01*
X32316600Y56328475D01*
X32316600Y56183526D01*
X32354117Y56043511D01*
X32426587Y55917990D01*
X32426589Y55917988D01*
X32426591Y55917985D01*
X32529085Y55815491D01*
X32529087Y55815490D01*
X32529089Y55815488D01*
X32654611Y55743018D01*
X32654612Y55743018D01*
X32654615Y55743016D01*
X32794625Y55705500D01*
X32794626Y55705500D01*
X32939574Y55705500D01*
X32939575Y55705500D01*
X33079585Y55743016D01*
X33079587Y55743018D01*
X33079589Y55743018D01*
X33205110Y55815488D01*
X33205110Y55815489D01*
X33205115Y55815491D01*
X33307609Y55917985D01*
X33380084Y56043515D01*
X33417600Y56183525D01*
X33417600Y56328475D01*
X33380084Y56468485D01*
X33380082Y56468488D01*
X33380082Y56468490D01*
X33307612Y56594011D01*
X33307610Y56594013D01*
X33307609Y56594015D01*
X33205115Y56696509D01*
X33205112Y56696511D01*
X33205110Y56696513D01*
X33079588Y56768983D01*
X33079589Y56768983D01*
X33034801Y56780984D01*
X32939575Y56806500D01*
X32794625Y56806500D01*
X32783336Y56803475D01*
X32654610Y56768983D01*
X32529089Y56696513D01*
X32426587Y56594011D01*
X32354117Y56468490D01*
X32316600Y56328475D01*
X28573810Y56328475D01*
X28650307Y56404969D01*
X32599982Y60354505D01*
X32654499Y60382281D01*
X32669984Y60383500D01*
X43480842Y60383500D01*
X43480844Y60383500D01*
X43569988Y60407386D01*
X43569991Y60407388D01*
X43581074Y60413786D01*
X43599518Y60424436D01*
X43649912Y60453530D01*
X46509870Y63313488D01*
X46556014Y63393412D01*
X46558911Y63404227D01*
X46584534Y63448611D01*
X46669909Y63533985D01*
X46682137Y63555164D01*
X46742382Y63659511D01*
X46742383Y63659514D01*
X46742384Y63659515D01*
X46779900Y63799525D01*
X46779900Y63944475D01*
X46777087Y63954975D01*
X47349500Y63954975D01*
X47349500Y63810025D01*
X47362907Y63759989D01*
X47387017Y63670011D01*
X47459487Y63544490D01*
X47459489Y63544488D01*
X47459491Y63544485D01*
X47561985Y63441991D01*
X47561987Y63441990D01*
X47561989Y63441988D01*
X47687511Y63369518D01*
X47687512Y63369518D01*
X47687515Y63369516D01*
X47827525Y63332000D01*
X47827526Y63332000D01*
X47972474Y63332000D01*
X47972475Y63332000D01*
X48112485Y63369516D01*
X48112487Y63369518D01*
X48112489Y63369518D01*
X48238010Y63441988D01*
X48238010Y63441989D01*
X48238015Y63441991D01*
X48340509Y63544485D01*
X48384216Y63620187D01*
X48412982Y63670011D01*
X48412982Y63670013D01*
X48412984Y63670015D01*
X48450500Y63810025D01*
X48450500Y63954975D01*
X48412984Y64094985D01*
X48412982Y64094988D01*
X48412982Y64094990D01*
X48340512Y64220511D01*
X48340510Y64220513D01*
X48340509Y64220515D01*
X48238015Y64323009D01*
X48238012Y64323011D01*
X48238010Y64323013D01*
X48112488Y64395483D01*
X48112489Y64395483D01*
X48043051Y64414089D01*
X47972475Y64433000D01*
X47827525Y64433000D01*
X47788339Y64422500D01*
X47687510Y64395483D01*
X47561989Y64323013D01*
X47459487Y64220511D01*
X47387017Y64094990D01*
X47357081Y63983267D01*
X47349500Y63954975D01*
X46777087Y63954975D01*
X46742384Y64084485D01*
X46742382Y64084488D01*
X46742382Y64084490D01*
X46669912Y64210011D01*
X46669910Y64210013D01*
X46669909Y64210015D01*
X46567415Y64312509D01*
X46567412Y64312511D01*
X46567410Y64312513D01*
X46441888Y64384983D01*
X46441889Y64384983D01*
X46364774Y64405646D01*
X46301875Y64422500D01*
X46156925Y64422500D01*
X46095190Y64405959D01*
X46016910Y64384983D01*
X45891389Y64312513D01*
X45788887Y64210011D01*
X45716417Y64084490D01*
X45678900Y63944475D01*
X45678900Y63799526D01*
X45716416Y63659514D01*
X45732647Y63631401D01*
X45745367Y63571552D01*
X45720480Y63515657D01*
X45716914Y63511898D01*
X44044504Y61839487D01*
X43989987Y61811710D01*
X43929555Y61821281D01*
X43886290Y61864546D01*
X43875500Y61909491D01*
X43875500Y61972599D01*
X43875500Y61972601D01*
X43843095Y62093536D01*
X43780495Y62201964D01*
X43691964Y62290495D01*
X43583536Y62353095D01*
X43462601Y62385500D01*
X43337399Y62385500D01*
X43256775Y62363897D01*
X43216463Y62353095D01*
X43108036Y62290495D01*
X43019502Y62201961D01*
X43015554Y62196815D01*
X43013263Y62198573D01*
X42976683Y62165668D01*
X42915830Y62159303D01*
X42866457Y62186125D01*
X41551935Y63500647D01*
X41524158Y63555164D01*
X41533729Y63615596D01*
X41576994Y63658861D01*
X41596308Y63666275D01*
X41679685Y63688616D01*
X41679692Y63688621D01*
X41685679Y63691099D01*
X41686161Y63689935D01*
X41727835Y63701100D01*
X43628090Y63701100D01*
X43628092Y63701100D01*
X43755386Y63735208D01*
X43755388Y63735210D01*
X43755390Y63735210D01*
X43869509Y63801097D01*
X43869509Y63801098D01*
X43869514Y63801100D01*
X44213613Y64145200D01*
X44268128Y64172975D01*
X44328560Y64163404D01*
X44371825Y64120139D01*
X44381396Y64059707D01*
X44379243Y64049578D01*
X44349500Y63938575D01*
X44349500Y63793625D01*
X44365153Y63735208D01*
X44387017Y63653611D01*
X44459487Y63528090D01*
X44459489Y63528088D01*
X44459491Y63528085D01*
X44561985Y63425591D01*
X44561987Y63425590D01*
X44561989Y63425588D01*
X44687511Y63353118D01*
X44687512Y63353118D01*
X44687515Y63353116D01*
X44827525Y63315600D01*
X44827526Y63315600D01*
X44972474Y63315600D01*
X44972475Y63315600D01*
X45112485Y63353116D01*
X45112487Y63353118D01*
X45112489Y63353118D01*
X45238010Y63425588D01*
X45238010Y63425589D01*
X45238015Y63425591D01*
X45340509Y63528085D01*
X45349978Y63544485D01*
X45412982Y63653611D01*
X45412982Y63653613D01*
X45412984Y63653615D01*
X45450500Y63793625D01*
X45450500Y63938575D01*
X45412984Y64078585D01*
X45412982Y64078588D01*
X45412982Y64078590D01*
X45340512Y64204111D01*
X45340510Y64204113D01*
X45340509Y64204115D01*
X45238015Y64306609D01*
X45238012Y64306611D01*
X45238010Y64306613D01*
X45112488Y64379083D01*
X45112489Y64379083D01*
X45013355Y64405646D01*
X44972475Y64416600D01*
X44827525Y64416600D01*
X44794488Y64407748D01*
X44716529Y64386859D01*
X44655427Y64390062D01*
X44607877Y64428567D01*
X44592042Y64487668D01*
X44613969Y64544789D01*
X44620883Y64552470D01*
X46509318Y66440904D01*
X46563835Y66468681D01*
X46579322Y66469900D01*
X50409365Y66469900D01*
X50427736Y66463931D01*
X50450939Y66458495D01*
X50451521Y66459899D01*
X50457513Y66457417D01*
X50457515Y66457416D01*
X50507590Y66443999D01*
X50558904Y66410674D01*
X50580830Y66353553D01*
X50564994Y66294452D01*
X50551975Y66278374D01*
X50446591Y66172974D01*
X50419520Y66145903D01*
X50393755Y66101269D01*
X50393753Y66101266D01*
X50373378Y66065977D01*
X50362291Y66024581D01*
X50362289Y66024574D01*
X50349497Y65976834D01*
X50349500Y65937265D01*
X50349500Y64421132D01*
X50330593Y64362941D01*
X50320504Y64351129D01*
X50259491Y64290116D01*
X50259487Y64290111D01*
X50187017Y64164590D01*
X50165554Y64084490D01*
X50149500Y64024575D01*
X50149500Y63879625D01*
X50170542Y63801097D01*
X50187017Y63739611D01*
X50259487Y63614090D01*
X50259489Y63614088D01*
X50259491Y63614085D01*
X50361985Y63511591D01*
X50361987Y63511590D01*
X50361989Y63511588D01*
X50487511Y63439118D01*
X50487512Y63439118D01*
X50487515Y63439116D01*
X50627525Y63401600D01*
X50627526Y63401600D01*
X50772474Y63401600D01*
X50772475Y63401600D01*
X50912485Y63439116D01*
X50912487Y63439118D01*
X50912489Y63439118D01*
X51038010Y63511588D01*
X51038010Y63511589D01*
X51038015Y63511591D01*
X51140509Y63614085D01*
X51144033Y63620188D01*
X51212982Y63739611D01*
X51212982Y63739613D01*
X51212984Y63739615D01*
X51250500Y63879625D01*
X51250500Y64024575D01*
X51212984Y64164585D01*
X51212982Y64164588D01*
X51212982Y64164590D01*
X51140512Y64290111D01*
X51140508Y64290116D01*
X51079496Y64351129D01*
X51051719Y64405646D01*
X51050500Y64421132D01*
X51050500Y65744531D01*
X51069407Y65802722D01*
X51079486Y65814524D01*
X51735864Y66470999D01*
X51790379Y66498780D01*
X51805873Y66500000D01*
X53249999Y66500000D01*
X53250000Y66500000D01*
X53250000Y67944356D01*
X53268907Y68002547D01*
X53278986Y68014350D01*
X54774176Y69509760D01*
X54828691Y69537541D01*
X54831265Y69537914D01*
X54836471Y69538600D01*
X54836475Y69538600D01*
X54976485Y69576116D01*
X54976487Y69576118D01*
X54976489Y69576118D01*
X55102010Y69648588D01*
X55102010Y69648589D01*
X55102015Y69648591D01*
X55204509Y69751085D01*
X55276984Y69876615D01*
X55314500Y70016625D01*
X55314500Y70161575D01*
X55276984Y70301585D01*
X55276982Y70301588D01*
X55276982Y70301590D01*
X55204512Y70427111D01*
X55204510Y70427113D01*
X55204509Y70427115D01*
X55102015Y70529609D01*
X55102012Y70529611D01*
X55102010Y70529613D01*
X54976488Y70602083D01*
X54976489Y70602083D01*
X54946896Y70610013D01*
X54836475Y70639600D01*
X54691525Y70639600D01*
X54629790Y70623059D01*
X54551510Y70602083D01*
X54425989Y70529613D01*
X54323487Y70427111D01*
X54251017Y70301590D01*
X54213500Y70161575D01*
X54213500Y70016626D01*
X54213501Y70016618D01*
X54214808Y70011739D01*
X54211602Y69950638D01*
X54189189Y69916125D01*
X53419009Y69145831D01*
X53364494Y69118049D01*
X53304061Y69127616D01*
X53260794Y69170877D01*
X53250000Y69215829D01*
X53250000Y71578575D01*
X56104500Y71578575D01*
X56104500Y71433626D01*
X56142017Y71293611D01*
X56214487Y71168090D01*
X56214489Y71168088D01*
X56214491Y71168085D01*
X56316985Y71065591D01*
X56316987Y71065590D01*
X56316989Y71065588D01*
X56442511Y70993118D01*
X56442512Y70993118D01*
X56442515Y70993116D01*
X56582525Y70955600D01*
X56582526Y70955600D01*
X56727474Y70955600D01*
X56727475Y70955600D01*
X56867485Y70993116D01*
X56867487Y70993118D01*
X56867489Y70993118D01*
X56993010Y71065588D01*
X56993010Y71065589D01*
X56993015Y71065591D01*
X57095509Y71168085D01*
X57167984Y71293615D01*
X57205500Y71433625D01*
X57205500Y71578575D01*
X57167984Y71718585D01*
X57167982Y71718588D01*
X57167982Y71718590D01*
X57095512Y71844111D01*
X57095510Y71844113D01*
X57095509Y71844115D01*
X56993015Y71946609D01*
X56993012Y71946611D01*
X56993010Y71946613D01*
X56867488Y72019083D01*
X56867489Y72019083D01*
X56837896Y72027013D01*
X56727475Y72056600D01*
X56582525Y72056600D01*
X56520790Y72040059D01*
X56442510Y72019083D01*
X56316989Y71946613D01*
X56214487Y71844111D01*
X56142017Y71718590D01*
X56104500Y71578575D01*
X53250000Y71578575D01*
X53250000Y109400500D01*
X53268907Y109458691D01*
X53318407Y109494655D01*
X53349000Y109499500D01*
X55934108Y109499500D01*
X55997564Y109499500D01*
X56002421Y109499381D01*
G37*
%TD.AperFunction*%
%TA.AperFunction,Conductor*%
G36*
X9684982Y56394593D02*
G01*
X9696792Y56384505D01*
X13103620Y52977502D01*
X13131397Y52922984D01*
X13121823Y52862553D01*
X13078558Y52819289D01*
X13033615Y52808500D01*
X12072171Y52808500D01*
X12013980Y52827407D01*
X12002172Y52837492D01*
X11901557Y52938093D01*
X10171434Y54667984D01*
X8594714Y56244492D01*
X8566933Y56299006D01*
X8576500Y56359439D01*
X8619762Y56402707D01*
X8664713Y56413500D01*
X9626791Y56413500D01*
X9684982Y56394593D01*
G37*
%TD.AperFunction*%
%TA.AperFunction,Conductor*%
G36*
X38493640Y66481093D02*
G01*
X38529604Y66431593D01*
X38529604Y66370407D01*
X38521185Y66351500D01*
X38480417Y66280890D01*
X38465225Y66224193D01*
X38442900Y66140875D01*
X38442900Y65995925D01*
X38448017Y65976830D01*
X38480417Y65855911D01*
X38552887Y65730390D01*
X38552889Y65730388D01*
X38552891Y65730385D01*
X38613905Y65669371D01*
X38641681Y65614856D01*
X38642900Y65599369D01*
X38642900Y65517356D01*
X38655085Y65471883D01*
X38660933Y65450057D01*
X38660933Y65450055D01*
X38666783Y65428218D01*
X38666784Y65428216D01*
X38666785Y65428213D01*
X38666786Y65428212D01*
X38712930Y65348288D01*
X42619805Y61441413D01*
X42647581Y61386898D01*
X42648800Y61371411D01*
X42648800Y61285126D01*
X42669165Y61209123D01*
X42665962Y61148022D01*
X42627457Y61100472D01*
X42573538Y61084500D01*
X32437656Y61084500D01*
X32401830Y61074901D01*
X32366003Y61065301D01*
X32366002Y61065302D01*
X32349969Y61061005D01*
X32348608Y61060663D01*
X32348519Y61060618D01*
X32348499Y61060608D01*
X32311423Y61039203D01*
X32311424Y61039202D01*
X32268590Y61014472D01*
X26650418Y55396495D01*
X26595901Y55368719D01*
X26580416Y55367500D01*
X25578598Y55367500D01*
X25520407Y55386407D01*
X25484443Y55435907D01*
X25484443Y55497093D01*
X25508594Y55536504D01*
X27636592Y57664502D01*
X30286858Y60314767D01*
X30332784Y60383500D01*
X30355308Y60417208D01*
X30355309Y60417211D01*
X30355312Y60417215D01*
X30391720Y60505113D01*
X30402463Y60531048D01*
X30412557Y60581796D01*
X30415922Y60598711D01*
X30417677Y60607535D01*
X30426501Y60651894D01*
X30426501Y60775107D01*
X30426501Y60779184D01*
X30426500Y60779210D01*
X30426500Y62064004D01*
X30426499Y62064009D01*
X30407544Y62159303D01*
X30402463Y62184852D01*
X30381022Y62236614D01*
X30355312Y62298685D01*
X30286858Y62401133D01*
X27325059Y65362931D01*
X27325058Y65362933D01*
X27282975Y65405016D01*
X27237935Y65450057D01*
X27186709Y65484285D01*
X27137216Y65517356D01*
X27135486Y65518512D01*
X27046390Y65555416D01*
X27024899Y65564318D01*
X27021655Y65565662D01*
X27021653Y65565663D01*
X27021652Y65565663D01*
X26949648Y65579985D01*
X26900809Y65589700D01*
X26900807Y65589700D01*
X26900806Y65589700D01*
X12255798Y65589700D01*
X12197607Y65608607D01*
X12185794Y65618696D01*
X11473494Y66330996D01*
X11445717Y66385513D01*
X11455288Y66445945D01*
X11498553Y66489210D01*
X11543498Y66500000D01*
X38435449Y66500000D01*
X38493640Y66481093D01*
G37*
%TD.AperFunction*%
%TA.AperFunction,Conductor*%
G36*
X8780116Y66218103D02*
G01*
X8787818Y66211169D01*
X11238998Y63759989D01*
X11239000Y63759986D01*
X11332186Y63666800D01*
X11412922Y63620187D01*
X11446314Y63600908D01*
X11573607Y63566800D01*
X11573608Y63566800D01*
X19885178Y63566800D01*
X19943369Y63547893D01*
X19955182Y63537804D01*
X20194796Y63298190D01*
X20216370Y63260828D01*
X20217533Y63261309D01*
X20220017Y63255312D01*
X20292487Y63129790D01*
X20292489Y63129788D01*
X20292491Y63129785D01*
X20394985Y63027291D01*
X20394987Y63027290D01*
X20394989Y63027288D01*
X20520511Y62954818D01*
X20520512Y62954818D01*
X20520515Y62954816D01*
X20660525Y62917300D01*
X20660526Y62917300D01*
X20805474Y62917300D01*
X20805475Y62917300D01*
X20945485Y62954816D01*
X20945487Y62954818D01*
X20945489Y62954818D01*
X21071010Y63027288D01*
X21071010Y63027289D01*
X21071015Y63027291D01*
X21173509Y63129785D01*
X21245984Y63255315D01*
X21283500Y63395325D01*
X21283500Y63540275D01*
X21245984Y63680285D01*
X21245982Y63680288D01*
X21245982Y63680290D01*
X21173512Y63805811D01*
X21173510Y63805813D01*
X21173509Y63805815D01*
X21071015Y63908309D01*
X21071012Y63908311D01*
X21071010Y63908313D01*
X20945488Y63980783D01*
X20939491Y63983267D01*
X20939972Y63984430D01*
X20902610Y64006004D01*
X20738918Y64169696D01*
X20711141Y64224213D01*
X20720712Y64284645D01*
X20763977Y64327910D01*
X20808922Y64338700D01*
X26539102Y64338700D01*
X26597293Y64319793D01*
X26609106Y64309704D01*
X29146504Y61772306D01*
X29174281Y61717789D01*
X29175500Y61702302D01*
X29175500Y61013599D01*
X29156593Y60955408D01*
X29146504Y60943595D01*
X24557406Y56354496D01*
X24502889Y56326719D01*
X24487402Y56325500D01*
X19629591Y56325500D01*
X19508749Y56301464D01*
X19394914Y56254312D01*
X19292467Y56185858D01*
X19292463Y56185855D01*
X19205345Y56098737D01*
X19205342Y56098733D01*
X19136888Y55996286D01*
X19089736Y55882451D01*
X19065700Y55761609D01*
X19065700Y55692383D01*
X19046793Y55634192D01*
X18997293Y55598228D01*
X18936107Y55598228D01*
X18896697Y55622379D01*
X14892273Y59626729D01*
X14864495Y59681245D01*
X14874066Y59741677D01*
X14912775Y59782468D01*
X14975515Y59818691D01*
X15078009Y59921185D01*
X15131183Y60013285D01*
X15150482Y60046711D01*
X15150482Y60046713D01*
X15150484Y60046715D01*
X15188000Y60186725D01*
X15188000Y60331675D01*
X15150484Y60471685D01*
X15150482Y60471688D01*
X15150482Y60471690D01*
X15078012Y60597211D01*
X15078010Y60597213D01*
X15078009Y60597215D01*
X14975515Y60699709D01*
X14975512Y60699711D01*
X14975510Y60699713D01*
X14849988Y60772183D01*
X14849989Y60772183D01*
X14770135Y60793580D01*
X14709975Y60809700D01*
X14565025Y60809700D01*
X14533303Y60801200D01*
X14425010Y60772183D01*
X14299489Y60699713D01*
X14196989Y60597213D01*
X14160762Y60534466D01*
X14115292Y60493526D01*
X14054442Y60487131D01*
X14005023Y60513963D01*
X8684697Y65834193D01*
X8656919Y65888709D01*
X8655700Y65904197D01*
X8655700Y65990476D01*
X8655699Y65990478D01*
X8622188Y66115542D01*
X8625389Y66176643D01*
X8663894Y66224193D01*
X8722994Y66240029D01*
X8780116Y66218103D01*
G37*
%TD.AperFunction*%
%TA.AperFunction,Conductor*%
G36*
X8032722Y65367501D02*
G01*
X8032724Y65367500D01*
X8032725Y65367500D01*
X8119017Y65367500D01*
X8177208Y65348593D01*
X8189016Y65338507D01*
X16694979Y56832702D01*
X16933612Y56594073D01*
X16961390Y56539557D01*
X16951819Y56479125D01*
X16908555Y56435860D01*
X16848123Y56426288D01*
X16814109Y56438332D01*
X16715986Y56494984D01*
X16628167Y56518515D01*
X16575975Y56532500D01*
X16431025Y56532500D01*
X16378833Y56518515D01*
X16291010Y56494983D01*
X16165489Y56422513D01*
X16165484Y56422509D01*
X16104471Y56361496D01*
X16049954Y56333719D01*
X16034468Y56332500D01*
X13940359Y56332500D01*
X13882168Y56351407D01*
X13870337Y56361515D01*
X13584978Y56647027D01*
X13557215Y56701551D01*
X13556000Y56717012D01*
X13556000Y56803475D01*
X13551974Y56818500D01*
X13518484Y56943485D01*
X13518482Y56943488D01*
X13518482Y56943490D01*
X13446012Y57069011D01*
X13446010Y57069013D01*
X13446009Y57069015D01*
X13343515Y57171509D01*
X13343512Y57171511D01*
X13343510Y57171513D01*
X13217988Y57243983D01*
X13217989Y57243983D01*
X13188396Y57251913D01*
X13077975Y57281500D01*
X12933025Y57281500D01*
X12905417Y57274103D01*
X12877223Y57266548D01*
X12816121Y57269751D01*
X12768571Y57308256D01*
X12752600Y57362175D01*
X12752600Y58189652D01*
X12760080Y58227402D01*
X12797627Y58318422D01*
X12821489Y58439301D01*
X12821310Y58562514D01*
X12797097Y58683324D01*
X12749781Y58797089D01*
X12748845Y58798485D01*
X12681182Y58899432D01*
X12681178Y58899438D01*
X12681172Y58899444D01*
X12593928Y58986435D01*
X12533758Y59026513D01*
X12491380Y59054741D01*
X12459527Y59067881D01*
X12377483Y59101726D01*
X12377478Y59101727D01*
X12256598Y59125589D01*
X12133391Y59125411D01*
X12133387Y59125411D01*
X12133385Y59125410D01*
X12015220Y59101727D01*
X12012576Y59101197D01*
X12012572Y59101196D01*
X11898813Y59053883D01*
X11898810Y59053881D01*
X11796462Y58985278D01*
X11796459Y58985276D01*
X11796455Y58985272D01*
X11684540Y58873032D01*
X11641226Y58829718D01*
X11641029Y58829476D01*
X11640864Y58829274D01*
X11640671Y58829040D01*
X11619389Y58797089D01*
X11606662Y58777982D01*
X11589371Y58752105D01*
X11572777Y58727269D01*
X11572605Y58726944D01*
X11572491Y58726732D01*
X11572370Y58726508D01*
X11549043Y58669959D01*
X11548988Y58669827D01*
X11525633Y58613445D01*
X11525584Y58613280D01*
X11525531Y58613106D01*
X11525376Y58612599D01*
X11513586Y58552867D01*
X11513558Y58552727D01*
X11501598Y58492601D01*
X11501552Y58492120D01*
X11501540Y58491997D01*
X11501511Y58491703D01*
X11501600Y58430437D01*
X11501600Y56587849D01*
X11482693Y56529658D01*
X11433193Y56493694D01*
X11372007Y56493694D01*
X11332595Y56517847D01*
X11046981Y56803475D01*
X10415652Y57434837D01*
X10415635Y57434856D01*
X10364433Y57486059D01*
X10364427Y57486064D01*
X10325640Y57524853D01*
X10274870Y57558777D01*
X10274868Y57558778D01*
X10226673Y57590983D01*
X10225388Y57591842D01*
X10223557Y57593139D01*
X10223382Y57593235D01*
X10222701Y57593512D01*
X10166573Y57616761D01*
X10166571Y57616762D01*
X10109390Y57640450D01*
X10109358Y57640462D01*
X10109352Y57640463D01*
X10053959Y57651481D01*
X10053958Y57651482D01*
X10053954Y57651482D01*
X9988530Y57664498D01*
X9988516Y57664500D01*
X9988511Y57664500D01*
X9988506Y57664500D01*
X9947452Y57664500D01*
X9865309Y57664502D01*
X9865308Y57664502D01*
X9860441Y57664502D01*
X9860401Y57664500D01*
X8249191Y57664500D01*
X8128349Y57640464D01*
X8014514Y57593312D01*
X7930902Y57537443D01*
X7872013Y57520834D01*
X7814610Y57542012D01*
X7780617Y57592885D01*
X7776900Y57619758D01*
X7776900Y65307030D01*
X7795807Y65365221D01*
X7845307Y65401185D01*
X7901522Y65402656D01*
X8032722Y65367501D01*
G37*
%TD.AperFunction*%
%TA.AperFunction,Conductor*%
G36*
X40247401Y66481093D02*
G01*
X40283365Y66431593D01*
X40283365Y66370407D01*
X40274947Y66351500D01*
X40239316Y66289787D01*
X40213433Y66193191D01*
X40201800Y66149775D01*
X40201800Y66004825D01*
X40209305Y65976818D01*
X40239317Y65864811D01*
X40311787Y65739290D01*
X40311789Y65739288D01*
X40311791Y65739285D01*
X40414285Y65636791D01*
X40414287Y65636790D01*
X40414289Y65636788D01*
X40539811Y65564318D01*
X40539812Y65564318D01*
X40539815Y65564316D01*
X40679825Y65526800D01*
X40679826Y65526800D01*
X40824774Y65526800D01*
X40824775Y65526800D01*
X40964785Y65564316D01*
X40964787Y65564318D01*
X40964789Y65564318D01*
X41090310Y65636788D01*
X41090310Y65636789D01*
X41090315Y65636791D01*
X41192809Y65739285D01*
X41195838Y65744531D01*
X41265282Y65864811D01*
X41265282Y65864813D01*
X41265284Y65864815D01*
X41302800Y66004825D01*
X41302800Y66149775D01*
X41265284Y66289785D01*
X41265283Y66289787D01*
X41229653Y66351500D01*
X41216932Y66411349D01*
X41241819Y66467244D01*
X41294807Y66497837D01*
X41315390Y66500000D01*
X44913778Y66500000D01*
X44971969Y66481093D01*
X45007933Y66431593D01*
X45007933Y66370407D01*
X44983782Y66330996D01*
X43383882Y64731096D01*
X43329365Y64703319D01*
X43313878Y64702100D01*
X41727835Y64702100D01*
X41686161Y64713266D01*
X41685679Y64712101D01*
X41679686Y64714584D01*
X41609680Y64733342D01*
X41539675Y64752100D01*
X41394725Y64752100D01*
X41332990Y64735559D01*
X41254710Y64714583D01*
X41129189Y64642113D01*
X41026687Y64539611D01*
X40954217Y64414089D01*
X40954215Y64414085D01*
X40931876Y64330716D01*
X40898552Y64279402D01*
X40841430Y64257476D01*
X40782330Y64273312D01*
X40766246Y64286336D01*
X39446735Y65605847D01*
X39418958Y65660364D01*
X39428529Y65720796D01*
X39431003Y65725351D01*
X39506382Y65855911D01*
X39506382Y65855913D01*
X39506384Y65855915D01*
X39543900Y65995925D01*
X39543900Y66140875D01*
X39506384Y66280885D01*
X39506382Y66280888D01*
X39506382Y66280890D01*
X39465615Y66351500D01*
X39452893Y66411348D01*
X39477779Y66467244D01*
X39530767Y66497837D01*
X39551351Y66500000D01*
X40189210Y66500000D01*
X40247401Y66481093D01*
G37*
%TD.AperFunction*%
%TA.AperFunction,Conductor*%
G36*
X8209191Y90005593D02*
G01*
X8245155Y89956093D01*
X8250000Y89925500D01*
X8250000Y88982762D01*
X8249500Y88975131D01*
X8249500Y88824869D01*
X8250000Y88817239D01*
X8250000Y88132762D01*
X8249500Y88125131D01*
X8249500Y87974869D01*
X8250000Y87967239D01*
X8250000Y86432762D01*
X8249500Y86425131D01*
X8249500Y86274869D01*
X8250000Y86267239D01*
X8250000Y75629232D01*
X8231093Y75571041D01*
X8221005Y75559230D01*
X8198392Y75536617D01*
X8198387Y75536611D01*
X8125917Y75411090D01*
X8088400Y75271075D01*
X8088400Y75126126D01*
X8125917Y74986111D01*
X8198387Y74860590D01*
X8198389Y74860588D01*
X8198391Y74860585D01*
X8221005Y74837971D01*
X8248781Y74783456D01*
X8250000Y74767969D01*
X8250000Y69793498D01*
X8231093Y69735307D01*
X8181593Y69699343D01*
X8120407Y69699343D01*
X8080996Y69723494D01*
X4216996Y73587494D01*
X4189219Y73642011D01*
X4188000Y73657498D01*
X4188000Y89864703D01*
X4206907Y89922894D01*
X4216997Y89934707D01*
X4277795Y89995504D01*
X4332312Y90023281D01*
X4347798Y90024500D01*
X8151000Y90024500D01*
X8209191Y90005593D01*
G37*
%TD.AperFunction*%
%TA.AperFunction,Conductor*%
G36*
X8209191Y109480593D02*
G01*
X8245155Y109431093D01*
X8250000Y109400500D01*
X8250000Y96636290D01*
X8231093Y96578099D01*
X8181593Y96542135D01*
X8120407Y96542135D01*
X8080996Y96566286D01*
X7394364Y97252918D01*
X6600912Y98046370D01*
X6520988Y98092514D01*
X6431844Y98116400D01*
X6431842Y98116400D01*
X4031532Y98116400D01*
X3973341Y98135307D01*
X3961529Y98145396D01*
X3900515Y98206409D01*
X3900510Y98206413D01*
X3774988Y98278883D01*
X3774989Y98278883D01*
X3745396Y98286813D01*
X3634975Y98316400D01*
X3490025Y98316400D01*
X3428290Y98299859D01*
X3350010Y98278883D01*
X3224489Y98206413D01*
X3121987Y98103911D01*
X3049517Y97978390D01*
X3012000Y97838375D01*
X3012000Y97693426D01*
X3049517Y97553411D01*
X3121987Y97427890D01*
X3121989Y97427888D01*
X3121991Y97427885D01*
X3224485Y97325391D01*
X3224487Y97325390D01*
X3224489Y97325388D01*
X3350011Y97252918D01*
X3350012Y97252918D01*
X3350015Y97252916D01*
X3490025Y97215400D01*
X3490026Y97215400D01*
X3634974Y97215400D01*
X3634975Y97215400D01*
X3774985Y97252916D01*
X3774987Y97252918D01*
X3774989Y97252918D01*
X3900510Y97325388D01*
X3900510Y97325389D01*
X3900515Y97325391D01*
X3931022Y97355898D01*
X3961529Y97386404D01*
X4016046Y97414181D01*
X4031532Y97415400D01*
X6199510Y97415400D01*
X6257701Y97396493D01*
X6269514Y97386404D01*
X7658804Y95997114D01*
X7686581Y95942597D01*
X7687800Y95927110D01*
X7687800Y95840826D01*
X7725317Y95700811D01*
X7797787Y95575290D01*
X7797789Y95575288D01*
X7797791Y95575285D01*
X7900285Y95472791D01*
X7900287Y95472790D01*
X7900289Y95472788D01*
X8025811Y95400318D01*
X8025812Y95400318D01*
X8025815Y95400316D01*
X8165825Y95362800D01*
X8165826Y95362800D01*
X8172092Y95361121D01*
X8171623Y95359375D01*
X8219139Y95336718D01*
X8248340Y95282950D01*
X8250000Y95264898D01*
X8250000Y91374500D01*
X8231093Y91316309D01*
X8181593Y91280345D01*
X8151000Y91275500D01*
X3986088Y91275500D01*
X3873542Y91253113D01*
X3873541Y91253114D01*
X3865258Y91251466D01*
X3865244Y91251462D01*
X3751414Y91204312D01*
X3670882Y91150501D01*
X3670881Y91150500D01*
X3648966Y91135858D01*
X3163768Y90650661D01*
X3163769Y90650660D01*
X3163767Y90650658D01*
X3163766Y90650659D01*
X3076641Y90563533D01*
X3042415Y90512310D01*
X3028743Y90491849D01*
X3008189Y90461089D01*
X3008188Y90461087D01*
X2984578Y90404088D01*
X2984579Y90404087D01*
X2961036Y90347249D01*
X2954913Y90316463D01*
X2937829Y90230571D01*
X2937826Y90230557D01*
X2937000Y90226408D01*
X2937000Y89248779D01*
X2918093Y89190588D01*
X2868593Y89154624D01*
X2812377Y89153152D01*
X2766144Y89165540D01*
X2723375Y89177000D01*
X2578425Y89177000D01*
X2516690Y89160459D01*
X2438410Y89139483D01*
X2312889Y89067013D01*
X2210387Y88964511D01*
X2137917Y88838989D01*
X2135433Y88832991D01*
X2134271Y88833473D01*
X2112696Y88796111D01*
X1585439Y88268854D01*
X1048886Y87732301D01*
X1048886Y87732300D01*
X1048885Y87732301D01*
X955700Y87639115D01*
X955696Y87639110D01*
X889809Y87524991D01*
X889808Y87524986D01*
X855700Y87397692D01*
X855700Y74416492D01*
X855700Y74284708D01*
X885779Y74172449D01*
X889809Y74157410D01*
X955696Y74043291D01*
X955697Y74043290D01*
X955698Y74043289D01*
X955700Y74043286D01*
X1521372Y73477614D01*
X1951582Y73047404D01*
X1979359Y72992887D01*
X1969788Y72932455D01*
X1926523Y72889190D01*
X1881578Y72878400D01*
X1291232Y72878400D01*
X1233041Y72897307D01*
X1221229Y72907396D01*
X1160215Y72968409D01*
X1160210Y72968413D01*
X1034688Y73040883D01*
X1034689Y73040883D01*
X1005096Y73048813D01*
X894675Y73078400D01*
X749725Y73078400D01*
X699068Y73064827D01*
X625123Y73045013D01*
X564021Y73048216D01*
X516472Y73086721D01*
X500500Y73140640D01*
X500500Y105997565D01*
X500619Y106002422D01*
X510153Y106196496D01*
X517113Y106338176D01*
X518063Y106347814D01*
X567029Y106677920D01*
X568918Y106687418D01*
X650009Y107011151D01*
X652818Y107020410D01*
X765249Y107334633D01*
X768958Y107343588D01*
X911644Y107645272D01*
X916211Y107653815D01*
X1087780Y107940062D01*
X1093163Y107948117D01*
X1291957Y108216159D01*
X1298107Y108223654D01*
X1522228Y108470933D01*
X1529067Y108477772D01*
X1776346Y108701893D01*
X1783841Y108708043D01*
X2051883Y108906837D01*
X2059938Y108912220D01*
X2346185Y109083789D01*
X2354728Y109088356D01*
X2656412Y109231042D01*
X2665367Y109234751D01*
X2979590Y109347182D01*
X2988849Y109349991D01*
X3312582Y109431082D01*
X3322080Y109432971D01*
X3652186Y109481937D01*
X3661824Y109482887D01*
X3970606Y109498056D01*
X3997579Y109499381D01*
X4002436Y109499500D01*
X4065892Y109499500D01*
X8151000Y109499500D01*
X8209191Y109480593D01*
G37*
%TD.AperFunction*%
%TA.AperFunction,Conductor*%
G36*
X2882945Y88053990D02*
G01*
X2926210Y88010725D01*
X2937000Y87965780D01*
X2937000Y73716622D01*
X2918093Y73658431D01*
X2868593Y73622467D01*
X2807407Y73622467D01*
X2767996Y73646618D01*
X1885696Y74528918D01*
X1857919Y74583435D01*
X1856700Y74598922D01*
X1856700Y87083480D01*
X1875607Y87141671D01*
X1885690Y87153478D01*
X2767996Y88035785D01*
X2822513Y88063561D01*
X2882945Y88053990D01*
G37*
%TD.AperFunction*%
%TD*%
M02*
