%TF.GenerationSoftware,KiCad,Pcbnew,10.0.6*%
%TF.CreationDate,2026-09-21T21:24:03+02:00*%
%TF.ProjectId,nucula-v2,6e756375-6c61-42d7-9632-2e6b69636164,rev?*%
%TF.SameCoordinates,Original*%
%TF.FileFunction,Profile,NP*%
%FSLAX46Y46*%
G04 Gerber Fmt 4.6, Leading zero omitted, Abs format (unit mm)*
G04 Created by KiCad (PCBNEW 10.0.6) date 2026-09-21 21:24:03*
%MOMM*%
%LPD*%
G01*
G04 APERTURE LIST*
%TA.AperFunction,Profile*%
%ADD10C,0.050000*%
%TD*%
G04 APERTURE END LIST*
D10*
X0Y106000000D02*
G75*
G02*
X4000000Y110000000I4000000J0D01*
G01*
X0Y37000000D02*
X0Y106000000D01*
X0Y37000000D02*
X8750000Y37000000D01*
X0Y35000000D02*
X0Y4000000D01*
X4000000Y110000000D02*
X56000000Y110000000D01*
X4000000Y0D02*
G75*
G02*
X0Y4000000I0J4000000D01*
G01*
X8750000Y37000000D02*
G75*
G02*
X8750000Y35000000I0J-1000000D01*
G01*
X8750000Y35000000D02*
X0Y35000000D01*
X15250000Y37000000D02*
X27250000Y37000000D01*
X15250000Y35000000D02*
G75*
G02*
X15250000Y37000000I0J1000000D01*
G01*
X27250000Y37000000D02*
G75*
G02*
X27250000Y35000000I0J-1000000D01*
G01*
X27250000Y35000000D02*
X15250000Y35000000D01*
X32750000Y37000000D02*
X44750000Y37000000D01*
X32750000Y35000000D02*
G75*
G02*
X32750000Y37000000I0J1000000D01*
G01*
X44750000Y37000000D02*
G75*
G02*
X44750000Y35000000I0J-1000000D01*
G01*
X44750000Y35000000D02*
X32750000Y35000000D01*
X51250000Y37000000D02*
X60000000Y37000000D01*
X51250000Y35000000D02*
G75*
G02*
X51250000Y37000000I0J1000000D01*
G01*
X55000000Y41500000D02*
X55000000Y66000000D01*
X55000000Y41500000D02*
X60000000Y41500000D01*
X56000000Y110000000D02*
G75*
G02*
X60000000Y106000000I0J-4000000D01*
G01*
X56000000Y0D02*
X4000000Y0D01*
X60000000Y106000000D02*
X60000000Y66000000D01*
X60000000Y66000000D02*
X55000000Y66000000D01*
X60000000Y41500000D02*
X60000000Y37000000D01*
X60000000Y35000000D02*
X51250000Y35000000D01*
X60000000Y35000000D02*
X60000000Y4000000D01*
X60000000Y4000000D02*
G75*
G02*
X56000000Y0I-4000000J0D01*
G01*
M02*
