%TF.GenerationSoftware,KiCad,Pcbnew,10.0.6*%
%TF.CreationDate,2026-09-21T21:24:03+02:00*%
%TF.ProjectId,nucula-v2,6e756375-6c61-42d7-9632-2e6b69636164,rev?*%
%TF.SameCoordinates,Original*%
%TF.FileFunction,Copper,L3,Inr*%
%TF.FilePolarity,Positive*%
%FSLAX46Y46*%
G04 Gerber Fmt 4.6, Leading zero omitted, Abs format (unit mm)*
G04 Created by KiCad (PCBNEW 10.0.6) date 2026-09-21 21:24:03*
%MOMM*%
%LPD*%
G01*
G04 APERTURE LIST*
%TA.AperFunction,ComponentPad*%
%ADD10R,1.700000X1.700000*%
%TD*%
%TA.AperFunction,ComponentPad*%
%ADD11C,1.700000*%
%TD*%
%TA.AperFunction,ComponentPad*%
%ADD12O,2.100000X1.000000*%
%TD*%
%TA.AperFunction,ComponentPad*%
%ADD13O,1.800000X1.000000*%
%TD*%
%TA.AperFunction,HeatsinkPad*%
%ADD14C,0.600000*%
%TD*%
%TA.AperFunction,ComponentPad*%
%ADD15C,0.800000*%
%TD*%
%TA.AperFunction,ViaPad*%
%ADD16C,0.600000*%
%TD*%
%TA.AperFunction,ViaPad*%
%ADD17C,0.450000*%
%TD*%
%TA.AperFunction,Conductor*%
%ADD18C,0.500000*%
%TD*%
%TA.AperFunction,Conductor*%
%ADD19C,0.300000*%
%TD*%
%TA.AperFunction,Conductor*%
%ADD20C,0.150000*%
%TD*%
%TA.AperFunction,Conductor*%
%ADD21C,0.250000*%
%TD*%
%TA.AperFunction,Conductor*%
%ADD22C,0.750000*%
%TD*%
%TA.AperFunction,Conductor*%
%ADD23C,0.200000*%
%TD*%
%TA.AperFunction,Conductor*%
%ADD24C,0.350000*%
%TD*%
G04 APERTURE END LIST*
D10*
%TO.N,/+3V3*%
%TO.C,J4*%
X24920000Y41000000D03*
D11*
%TO.N,GND*%
X27460000Y41000000D03*
%TO.N,/I2C_SDA*%
X30000000Y41000000D03*
%TO.N,/I2C_SCL*%
X32540000Y41000000D03*
%TO.N,/KEY_INT_N*%
X35080000Y41000000D03*
%TD*%
D10*
%TO.N,unconnected-(J3-Pin_1-Pad1)*%
%TO.C,J3*%
X19840000Y2500000D03*
D11*
%TO.N,/Keyboard {slash} breakaway {slash} 0x20/KEY_P0*%
X22380000Y2500000D03*
%TO.N,/Keyboard {slash} breakaway {slash} 0x20/KEY_P1*%
X24920000Y2500000D03*
%TO.N,/Keyboard {slash} breakaway {slash} 0x20/KEY_P2*%
X27460000Y2500000D03*
%TO.N,/Keyboard {slash} breakaway {slash} 0x20/KEY_P3*%
X30000000Y2500000D03*
%TO.N,/Keyboard {slash} breakaway {slash} 0x20/KEY_P4*%
X32540000Y2500000D03*
%TO.N,/Keyboard {slash} breakaway {slash} 0x20/KEY_P5*%
X35080000Y2500000D03*
%TO.N,/Keyboard {slash} breakaway {slash} 0x20/KEY_P6*%
X37620000Y2500000D03*
%TO.N,unconnected-(J3-Pin_9-Pad9)*%
X40160000Y2500000D03*
%TD*%
D12*
%TO.N,GND*%
%TO.C,J1*%
X6500000Y52430000D03*
D13*
X2320000Y52430000D03*
D12*
X6500000Y43790000D03*
D13*
X2320000Y43790000D03*
%TD*%
D14*
%TO.N,GND*%
%TO.C,U3*%
X48250000Y54000000D03*
X47150000Y54000000D03*
X48800000Y53450000D03*
X47700000Y53450000D03*
X46600000Y53450000D03*
X48250000Y52900000D03*
X47150000Y52900000D03*
X48800000Y52350000D03*
X47700000Y52350000D03*
X46600000Y52350000D03*
X48250000Y51800000D03*
X47150000Y51800000D03*
%TD*%
D10*
%TO.N,/+3V3*%
%TO.C,J5*%
X24920000Y30000000D03*
D11*
%TO.N,GND*%
X27460000Y30000000D03*
%TO.N,/I2C_SDA*%
X30000000Y30000000D03*
%TO.N,/I2C_SCL*%
X32540000Y30000000D03*
%TO.N,/KEY_INT_N*%
X35080000Y30000000D03*
%TD*%
D15*
%TO.N,Net-(A1-LOOP_A)*%
%TO.C,A1*%
X51350000Y90500000D03*
X45250000Y90500000D03*
%TD*%
D16*
%TO.N,/+3V3*%
X37687500Y43939000D03*
D17*
X21400000Y90000000D03*
D16*
X15300000Y89750000D03*
X41467200Y64201600D03*
X2650900Y88626500D03*
X14945900Y17321000D03*
X20733000Y63467800D03*
X19303800Y11502000D03*
X50670000Y66970400D03*
D17*
X19800000Y89225000D03*
D16*
%TO.N,/Power + ESP32-C3/ESP_EN*%
X50700000Y63952100D03*
X54764000Y70089100D03*
%TO.N,GND*%
X6000000Y39000000D03*
X50000000Y19000000D03*
X34000000Y23000000D03*
X46000000Y3000000D03*
X58000000Y15000000D03*
X52600000Y65500000D03*
X54000000Y19000000D03*
X50000000Y3000000D03*
X45700000Y52900000D03*
X2000000Y19000000D03*
X38000000Y19000000D03*
X54000000Y31000000D03*
X54000000Y107000000D03*
X46000000Y59000000D03*
X42000000Y15000000D03*
X10000000Y11000000D03*
X58000000Y7000000D03*
X35525000Y58775000D03*
X30000000Y23000000D03*
X28840300Y87312500D03*
X50000000Y7000000D03*
X2000000Y47000000D03*
X30000000Y19000000D03*
X11775000Y44750000D03*
X52725000Y69275000D03*
X43475000Y43275000D03*
X38000000Y15000000D03*
X38000000Y23000000D03*
X58000000Y31000000D03*
X10000000Y23000000D03*
X29620500Y79579200D03*
X2275000Y95050000D03*
X38000000Y31000000D03*
X18775000Y49000000D03*
X27550000Y49300000D03*
X46000000Y15000000D03*
X2000000Y23000000D03*
X33700000Y79500000D03*
X42000000Y7000000D03*
X22000000Y27000000D03*
X8650000Y48000000D03*
X58000000Y23000000D03*
X52025000Y40275000D03*
X31475000Y65325000D03*
X14000000Y23000000D03*
X22000000Y59000000D03*
X6000000Y3000000D03*
X31500000Y79500000D03*
X18225000Y46825000D03*
X2000000Y63000000D03*
X22000000Y15000000D03*
X4850000Y87000000D03*
X58000000Y103000000D03*
X2000000Y55000000D03*
X58000000Y99000000D03*
X50000000Y27000000D03*
X20510400Y91768800D03*
X31025000Y58275000D03*
X42000000Y11000000D03*
X38075000Y58275000D03*
X46000000Y23000000D03*
X48825000Y40275000D03*
X2000000Y27000000D03*
X26000000Y11000000D03*
X15300000Y91600000D03*
X14000000Y27000000D03*
X6475000Y96825000D03*
X58000000Y39000000D03*
X38000000Y7000000D03*
X26310200Y78735200D03*
X20694800Y87736400D03*
X32871600Y88911800D03*
X34000000Y63000000D03*
X10400000Y55000000D03*
X38000000Y11000000D03*
X18900000Y21500000D03*
X2000000Y39000000D03*
X54000000Y59000000D03*
X23900000Y66100000D03*
X54000000Y99000000D03*
X55100000Y82700000D03*
X3925000Y7460000D03*
X58000000Y91000000D03*
X46000000Y31000000D03*
X37100000Y45700000D03*
X50000000Y11000000D03*
X13225000Y45575000D03*
X6000000Y23000000D03*
X13350000Y62750000D03*
X46000000Y27000000D03*
X18000000Y31000000D03*
X55100000Y77700000D03*
X6000000Y103000000D03*
X3925000Y16350000D03*
X42200000Y79500000D03*
X10000000Y7000000D03*
X34000000Y19000000D03*
X46000000Y19000000D03*
X8200000Y51310000D03*
X58000000Y87000000D03*
X3925000Y15080000D03*
X14000000Y31000000D03*
X54000000Y3000000D03*
X18400000Y60500000D03*
X10000000Y27000000D03*
X18000000Y27000000D03*
X54000000Y91000000D03*
X2000000Y3000000D03*
X46000000Y7000000D03*
X3925000Y13810000D03*
X54000000Y7000000D03*
X38000000Y63000000D03*
X6000000Y31000000D03*
X18675000Y18500000D03*
X32525000Y48100000D03*
X42000000Y23000000D03*
X10000000Y63000000D03*
X10000000Y15000000D03*
X23550000Y49300000D03*
X58000000Y19000000D03*
X26000000Y19000000D03*
X40900000Y62610000D03*
X34000000Y11000000D03*
X13425000Y58500000D03*
X54000000Y23000000D03*
X54000000Y47000000D03*
X52725000Y40825000D03*
X42000000Y51000000D03*
X50811000Y40966000D03*
X34000000Y15000000D03*
X54000000Y15000000D03*
X54000000Y103000000D03*
X54000000Y87000000D03*
X58000000Y83000000D03*
X54000000Y27000000D03*
X10000000Y31000000D03*
X46000000Y11000000D03*
X54000000Y55000000D03*
X35550000Y49300000D03*
X58000000Y27000000D03*
X10000000Y19000000D03*
X38000000Y27000000D03*
X21120500Y76000100D03*
X8800000Y91600000D03*
X50000000Y31000000D03*
X3950000Y60100000D03*
X2000000Y103000000D03*
X22000000Y11000000D03*
X58000000Y3000000D03*
X2000000Y11000000D03*
X16500000Y60275000D03*
X6000000Y107000000D03*
X24275000Y46450000D03*
X30000000Y11000000D03*
X2000000Y67000000D03*
X6475000Y74325000D03*
X14000000Y3000000D03*
X46000000Y47000000D03*
X42000000Y19000000D03*
X43225000Y67525000D03*
X58000000Y107000000D03*
X42000000Y27000000D03*
X2150000Y77000000D03*
X53475000Y73498400D03*
X54000000Y51000000D03*
X50000000Y23000000D03*
X18350000Y51750000D03*
X58000000Y11000000D03*
X6000000Y19000000D03*
X2000000Y31000000D03*
X50000000Y15000000D03*
X58000000Y95000000D03*
X36975000Y41950000D03*
X6500000Y66750000D03*
X34000000Y27000000D03*
X47400000Y64800000D03*
X6000000Y27000000D03*
X32400000Y47450000D03*
X30750000Y50700000D03*
X40000000Y79500000D03*
X30000000Y55000000D03*
X22000000Y31000000D03*
X27150000Y62500000D03*
X34000000Y7000000D03*
X11775000Y51250000D03*
X41150000Y42200000D03*
X8200000Y44910000D03*
X42000000Y31000000D03*
X54000000Y95000000D03*
X30000000Y15000000D03*
X26000000Y15000000D03*
X54000000Y11000000D03*
X28525000Y45700000D03*
X2000000Y107000000D03*
%TO.N,/OLED {slash} SSD1309 {slash} 0x3C/OLED_FB*%
X822200Y72527900D03*
X6335400Y68286500D03*
%TO.N,/VSYS*%
X3562500Y90164800D03*
D17*
X29850000Y91350000D03*
D16*
X29801000Y60713500D03*
X18883300Y85225000D03*
D17*
X20000000Y44500000D03*
D16*
X8800000Y90650000D03*
X19691200Y55700000D03*
X15300000Y90650000D03*
D17*
X24187500Y86612500D03*
D16*
X26839200Y64964200D03*
X16250000Y42734000D03*
%TO.N,/Power + ESP32-C3/USB_5V*%
X18069900Y54687000D03*
X12195900Y58500000D03*
X12501400Y43070000D03*
%TO.N,/I2C_SDA*%
X29208500Y47736000D03*
D17*
X22100000Y90500000D03*
D16*
X6843500Y67606900D03*
X50900000Y61345300D03*
X15300000Y88900000D03*
X8800000Y88900000D03*
X19101100Y88674600D03*
X19325000Y16483000D03*
%TO.N,/I2C_SCL*%
X15300000Y88050000D03*
X30250000Y47951000D03*
D17*
X22000000Y89400000D03*
D16*
X49400000Y61351700D03*
X21000000Y46998000D03*
X20095500Y19511000D03*
X6673400Y57078000D03*
X8800000Y88050000D03*
%TO.N,/KEY_INT_N*%
X42663200Y43430000D03*
X16765200Y11871000D03*
%TO.N,/NFC {slash} PN7160 {slash} 0x28/NFC_VMID*%
X24172300Y80473800D03*
D17*
X26687500Y86012500D03*
D16*
%TO.N,/OLED {slash} SSD1309 {slash} 0x3C/OLED_12V5*%
X8638900Y75198600D03*
X24750000Y50654000D03*
D17*
X15800000Y49400000D03*
D16*
%TO.N,/Power + ESP32-C3/VBUS*%
X13867400Y42196000D03*
D17*
X7775000Y45710000D03*
D16*
X45550000Y40674800D03*
X14239600Y46602400D03*
X8154000Y50397000D03*
%TO.N,/NFC {slash} PN7160 {slash} 0x28/NFC_VDD18*%
X28348900Y96333200D03*
D17*
X30000000Y90700000D03*
D16*
X35342300Y91407700D03*
%TO.N,/+3V0*%
X32867100Y56256000D03*
X27100500Y42794000D03*
X33750000Y50682000D03*
X36458700Y41307000D03*
%TO.N,/Power + ESP32-C3/USB_PRESENT_N*%
X40733600Y43432000D03*
X52369000Y43858000D03*
%TO.N,/Power + ESP32-C3/VBAT*%
X13795700Y53170000D03*
D17*
X51675000Y43200000D03*
D16*
X8310800Y57039000D03*
D17*
X16562500Y53850000D03*
D16*
X14637500Y60259200D03*
%TO.N,Net-(U1-PROG)*%
X13005500Y56731000D03*
X16503500Y55982000D03*
%TO.N,Net-(A1-LOOP_B)*%
X43550000Y74150000D03*
X45250000Y93900000D03*
%TO.N,/OLED_RESET*%
X36425000Y56268000D03*
X41900000Y46370000D03*
%TO.N,/Keyboard {slash} breakaway {slash} 0x20/KEY_P0*%
X6866100Y11871000D03*
%TO.N,/Keyboard {slash} breakaway {slash} 0x20/KEY_P1*%
X6842100Y10625000D03*
%TO.N,/Keyboard {slash} breakaway {slash} 0x20/KEY_P2*%
X6847800Y9331000D03*
%TO.N,/Keyboard {slash} breakaway {slash} 0x20/KEY_P3*%
X7066800Y8061000D03*
%TO.N,/Keyboard {slash} breakaway {slash} 0x20/KEY_P4*%
X14800000Y6625000D03*
%TO.N,/Keyboard {slash} breakaway {slash} 0x20/KEY_P5*%
X16167500Y8061000D03*
%TO.N,/Keyboard {slash} breakaway {slash} 0x20/KEY_P6*%
X16151100Y9331000D03*
%TO.N,/Power + ESP32-C3/BOOT_N*%
X56655000Y71506100D03*
D17*
X43400000Y61910000D03*
D16*
X38993400Y66068400D03*
X43199300Y61357600D03*
%TO.N,/OLED_PWR_EN*%
X3562500Y97765900D03*
X6014300Y54155000D03*
X49400000Y46370000D03*
X8238300Y95913300D03*
%TO.N,/NFC {slash} PN7160 {slash} 0x28/NFC_RXP*%
X21776400Y79721100D03*
D17*
X26187500Y86612500D03*
D16*
%TO.N,/NFC {slash} PN7160 {slash} 0x28/NFC_TVDD*%
X25899200Y95950800D03*
D17*
X25187500Y86612500D03*
D16*
X33950000Y86644000D03*
D17*
X27187500Y86612500D03*
X29775000Y88500000D03*
D16*
%TO.N,/NFC {slash} PN7160 {slash} 0x28/NFC_ADR1*%
X21771600Y96453400D03*
X20200000Y93853300D03*
%TO.N,/NFC_IRQ*%
X22060200Y88594000D03*
X15300000Y87200000D03*
X47900000Y63882500D03*
%TO.N,/NFC_VEN*%
X8105200Y65918000D03*
X15300000Y86350000D03*
X23000000Y87360200D03*
X8800000Y86350000D03*
X21576000Y74751000D03*
X46229400Y63872000D03*
%TO.N,/NFC {slash} PN7160 {slash} 0x28/NFC_RXN*%
X23670900Y82677900D03*
D17*
X25687500Y86012500D03*
D16*
%TO.N,/NFC {slash} PN7160 {slash} 0x28/NFC_TX2*%
X23878900Y75175800D03*
D17*
X27687500Y86012500D03*
D16*
%TO.N,/NFC {slash} PN7160 {slash} 0x28/NFC_TX1*%
X22044100Y83894100D03*
X30132500Y87068800D03*
%TO.N,/OLED {slash} SSD1309 {slash} 0x3C/OLED_IREF*%
X21729100Y45184000D03*
X26581400Y48129000D03*
%TO.N,/OLED {slash} SSD1309 {slash} 0x3C/OLED_VCOMH*%
X25250000Y48080000D03*
X26229600Y46486000D03*
%TO.N,/Power + ESP32-C3/USB_ESD_D+*%
X47900000Y40900000D03*
X13200000Y47350000D03*
%TO.N,/Power + ESP32-C3/USB_ESD_D-*%
X46400000Y40900000D03*
X13200000Y49700000D03*
%TO.N,/Power + ESP32-C3/STRAP_GPIO8*%
X40752300Y66077300D03*
X44900000Y63866100D03*
%TO.N,/Power + ESP32-C3/STRAP_GPIO2*%
X50970000Y46440000D03*
X40748300Y58586000D03*
%TD*%
%TO.N,/+3V3*%
D18*
X41374200Y64201600D02*
X39983400Y62810800D01*
X24920000Y41000000D02*
X24920000Y42302000D01*
X23129700Y44092000D02*
X24920000Y42302000D01*
X20733000Y48931000D02*
X23129700Y46534000D01*
X41467200Y64201600D02*
X41374200Y64201600D01*
X14945900Y17321000D02*
X19303800Y12963000D01*
X20733000Y63467800D02*
X20733000Y48931000D01*
X23129700Y46534000D02*
X23129700Y44092000D01*
X39983400Y46235000D02*
X37687500Y43939000D01*
X39983400Y62810800D02*
X39983400Y46235000D01*
X19303800Y12963000D02*
X19303800Y11502000D01*
%TO.N,GND*%
D19*
X20510400Y87920800D02*
X20694800Y87736400D01*
X20510400Y91768800D02*
X20510400Y87920800D01*
D20*
X43100000Y67200000D02*
X43100000Y66500000D01*
D19*
X29620500Y86532300D02*
X28840300Y87312500D01*
X29620500Y79579200D02*
X29620500Y86532300D01*
%TO.N,/VSYS*%
D21*
X19800000Y45700000D02*
X19800000Y44700000D01*
D22*
X19691200Y46176000D02*
X19691200Y55700000D01*
X18883300Y87434300D02*
X18883300Y85225000D01*
D21*
X19800000Y44700000D02*
X20000000Y44500000D01*
D22*
X15300000Y90650000D02*
X15667600Y90650000D01*
X15667600Y90650000D02*
X18883300Y87434300D01*
%TO.N,/Power + ESP32-C3/USB_5V*%
X12205200Y43070000D02*
X12501400Y43070000D01*
X10852800Y51736000D02*
X10852800Y44422000D01*
X12195900Y58500000D02*
X12020100Y58324000D01*
X10852800Y44422000D02*
X12205200Y43070000D01*
X12020100Y52903000D02*
X10852800Y51736000D01*
X12020100Y58324000D02*
X12020100Y52903000D01*
%TO.N,/I2C_SDA*%
D23*
X8716000Y88900000D02*
X7101700Y87285700D01*
X7101700Y87285700D02*
X7101700Y67865100D01*
X8800000Y88900000D02*
X8716000Y88900000D01*
X7101700Y67865100D02*
X6843500Y67606900D01*
X30000000Y47144000D02*
X29208500Y47736000D01*
X30000000Y41000000D02*
X30000000Y47144000D01*
%TO.N,/I2C_SCL*%
X7503400Y86760700D02*
X8792700Y88050000D01*
X8792700Y88050000D02*
X8800000Y88050000D01*
X7503400Y57908000D02*
X7503400Y86760700D01*
X32540000Y41000000D02*
X32540000Y45861000D01*
X32540000Y45861000D02*
X30250000Y47951000D01*
X6673400Y57078000D02*
X7503400Y57908000D01*
%TO.N,/NFC {slash} PN7160 {slash} 0x28/NFC_VMID*%
X26687500Y86012500D02*
X26687500Y82989000D01*
X26687500Y82989000D02*
X24172300Y80473800D01*
%TO.N,/OLED {slash} SSD1309 {slash} 0x3C/OLED_12V5*%
X8638900Y68670900D02*
X8638900Y75198600D01*
X15706700Y61603100D02*
X8638900Y68670900D01*
X15706700Y49400000D02*
X15706700Y61603100D01*
%TO.N,/Power + ESP32-C3/VBUS*%
D22*
X13867400Y42196000D02*
X14250000Y42578000D01*
D24*
X7775000Y50018000D02*
X8154000Y50397000D01*
X7775000Y45710000D02*
X7775000Y50018000D01*
%TO.N,/+3V0*%
D23*
X34250000Y43516000D02*
X34250000Y49682000D01*
X34250000Y49682000D02*
X33750000Y50182000D01*
X36458700Y41307000D02*
X34250000Y43516000D01*
X32867100Y52065000D02*
X33750000Y51182100D01*
X33750000Y50182000D02*
X33750000Y50682000D01*
X33750000Y51182100D02*
X33750000Y50682000D01*
X32867100Y56256000D02*
X32867100Y52065000D01*
%TO.N,/Power + ESP32-C3/VBAT*%
D22*
X13795700Y53170000D02*
X14637500Y54012000D01*
X14637500Y54012000D02*
X14637500Y60259200D01*
%TO.N,/Power + ESP32-C3/BOOT_N*%
D20*
X53200000Y67600000D02*
X53100000Y67600000D01*
X52300000Y67200000D02*
X52200000Y67200000D01*
X55400000Y70100000D02*
X55400000Y69800000D01*
X46500000Y63300000D02*
X46400000Y63200000D01*
X56500000Y71200000D02*
X55400000Y70100000D01*
X52800000Y67500000D02*
X52700000Y67400000D01*
X44700000Y63200000D02*
X43600000Y62100000D01*
X48300000Y63300000D02*
X46500000Y63300000D01*
X52700000Y67400000D02*
X52600000Y67400000D01*
X53100000Y67600000D02*
X53000000Y67500000D01*
X53000000Y67500000D02*
X52800000Y67500000D01*
X52500000Y67300000D02*
X52400000Y67300000D01*
X52200000Y67200000D02*
X48300000Y63300000D01*
X52600000Y67400000D02*
X52500000Y67300000D01*
X46400000Y63200000D02*
X44700000Y63200000D01*
X52400000Y67300000D02*
X52300000Y67200000D01*
X55400000Y69800000D02*
X53200000Y67600000D01*
%TO.N,/OLED_PWR_EN*%
D23*
X5618100Y93293100D02*
X8238300Y95913300D01*
X6014300Y54155000D02*
X5618100Y54551000D01*
X5618100Y54551000D02*
X5618100Y93293100D01*
%TO.N,/NFC {slash} PN7160 {slash} 0x28/NFC_RXP*%
X26187500Y86612500D02*
X24807700Y87992300D01*
X22736700Y87992300D02*
X21393500Y86649100D01*
X21393500Y80104000D02*
X21776400Y79721100D01*
X24807700Y87992300D02*
X22736700Y87992300D01*
X21393500Y86649100D02*
X21393500Y80104000D01*
%TO.N,/NFC {slash} PN7160 {slash} 0x28/NFC_TVDD*%
D20*
X29400000Y88300000D02*
X29500000Y88400000D01*
X27400000Y86800000D02*
X28900000Y88300000D01*
X28900000Y88300000D02*
X29400000Y88300000D01*
%TO.N,/NFC_VEN*%
D23*
X8005100Y85555100D02*
X8005100Y66018100D01*
X8800000Y86350000D02*
X8005100Y85555100D01*
X23000000Y76175000D02*
X23000000Y87360200D01*
X21576000Y74751000D02*
X23000000Y76175000D01*
X8005100Y66018100D02*
X8105200Y65918000D01*
%TO.N,/NFC {slash} PN7160 {slash} 0x28/NFC_RXN*%
X25653000Y84660000D02*
X25653000Y86012500D01*
X23670900Y82677900D02*
X25653000Y84660000D01*
%TO.N,/NFC {slash} PN7160 {slash} 0x28/NFC_TX2*%
D24*
X27687500Y86012500D02*
X27882800Y79179700D01*
X27882800Y79179700D02*
X23878900Y75175800D01*
%TO.N,/OLED {slash} SSD1309 {slash} 0x3C/OLED_VCOMH*%
D23*
X25750000Y46965000D02*
X26229600Y46486000D01*
X25250000Y48080000D02*
X25250000Y47465000D01*
X25250000Y47465000D02*
X25750000Y46965000D01*
%TD*%
%TA.AperFunction,Conductor*%
%TO.N,GND*%
G36*
X59458691Y33881093D02*
G01*
X59494655Y33831593D01*
X59499500Y33801000D01*
X59499500Y4002436D01*
X59499381Y3997578D01*
X59482887Y3661839D01*
X59481934Y3652171D01*
X59432972Y3322097D01*
X59431077Y3312568D01*
X59349995Y2988869D01*
X59347175Y2979572D01*
X59234754Y2665379D01*
X59231036Y2656403D01*
X59088361Y2354742D01*
X59083781Y2346174D01*
X58912226Y2059951D01*
X58906828Y2051873D01*
X58708048Y1783850D01*
X58701885Y1776340D01*
X58477786Y1529084D01*
X58470916Y1522214D01*
X58223660Y1298115D01*
X58216150Y1291952D01*
X57948127Y1093172D01*
X57940049Y1087774D01*
X57653826Y916219D01*
X57645258Y911639D01*
X57343597Y768964D01*
X57334621Y765246D01*
X57020428Y652825D01*
X57011131Y650005D01*
X56687432Y568923D01*
X56677903Y567028D01*
X56347829Y518066D01*
X56338161Y517113D01*
X56002422Y500619D01*
X55997564Y500500D01*
X4002436Y500500D01*
X3997578Y500619D01*
X3661838Y517113D01*
X3652170Y518066D01*
X3322096Y567028D01*
X3312567Y568923D01*
X2988868Y650005D01*
X2979571Y652825D01*
X2665378Y765246D01*
X2656402Y768964D01*
X2354741Y911639D01*
X2346173Y916219D01*
X2059950Y1087774D01*
X2051872Y1093172D01*
X1783849Y1291952D01*
X1776339Y1298115D01*
X1648442Y1414034D01*
X1529078Y1522219D01*
X1522218Y1529079D01*
X1298114Y1776340D01*
X1291951Y1783850D01*
X1093171Y2051873D01*
X1087773Y2059951D01*
X1077217Y2077562D01*
X916216Y2346177D01*
X911638Y2354742D01*
X883901Y2413386D01*
X768961Y2656406D01*
X765245Y2665379D01*
X652820Y2979585D01*
X650008Y2988856D01*
X568919Y3312579D01*
X567029Y3322081D01*
X559228Y3374673D01*
X18739500Y3374673D01*
X18739500Y1625328D01*
X18739501Y1625316D01*
X18754033Y1552264D01*
X18754035Y1552258D01*
X18809397Y1469401D01*
X18809399Y1469399D01*
X18892260Y1414034D01*
X18947808Y1402985D01*
X18965315Y1399502D01*
X18965320Y1399502D01*
X18965326Y1399500D01*
X18965327Y1399500D01*
X20714673Y1399500D01*
X20714674Y1399500D01*
X20787740Y1414034D01*
X20870601Y1469399D01*
X20925966Y1552260D01*
X20940500Y1625326D01*
X20940500Y2586615D01*
X21279500Y2586615D01*
X21279500Y2413386D01*
X21306597Y2242298D01*
X21306598Y2242294D01*
X21360123Y2077562D01*
X21360125Y2077559D01*
X21373212Y2051873D01*
X21438768Y1923212D01*
X21540586Y1783072D01*
X21663072Y1660586D01*
X21803212Y1558768D01*
X21957555Y1480127D01*
X21957557Y1480127D01*
X21957558Y1480126D01*
X21957561Y1480124D01*
X22122293Y1426599D01*
X22122297Y1426598D01*
X22293386Y1399500D01*
X22293389Y1399500D01*
X22466614Y1399500D01*
X22637702Y1426598D01*
X22637706Y1426599D01*
X22802438Y1480124D01*
X22802440Y1480126D01*
X22802445Y1480127D01*
X22956788Y1558768D01*
X23096928Y1660586D01*
X23219414Y1783072D01*
X23321232Y1923212D01*
X23399873Y2077555D01*
X23399874Y2077560D01*
X23399876Y2077562D01*
X23453401Y2242294D01*
X23453402Y2242298D01*
X23480500Y2413386D01*
X23480500Y2586615D01*
X23819500Y2586615D01*
X23819500Y2413386D01*
X23846597Y2242298D01*
X23846598Y2242294D01*
X23900123Y2077562D01*
X23900125Y2077559D01*
X23913212Y2051873D01*
X23978768Y1923212D01*
X24080586Y1783072D01*
X24203072Y1660586D01*
X24343212Y1558768D01*
X24497555Y1480127D01*
X24497557Y1480127D01*
X24497558Y1480126D01*
X24497561Y1480124D01*
X24662293Y1426599D01*
X24662297Y1426598D01*
X24833386Y1399500D01*
X24833389Y1399500D01*
X25006614Y1399500D01*
X25177702Y1426598D01*
X25177706Y1426599D01*
X25342438Y1480124D01*
X25342440Y1480126D01*
X25342445Y1480127D01*
X25496788Y1558768D01*
X25636928Y1660586D01*
X25759414Y1783072D01*
X25861232Y1923212D01*
X25939873Y2077555D01*
X25939874Y2077560D01*
X25939876Y2077562D01*
X25993401Y2242294D01*
X25993402Y2242298D01*
X26020500Y2413386D01*
X26020500Y2586615D01*
X26359500Y2586615D01*
X26359500Y2413386D01*
X26386597Y2242298D01*
X26386598Y2242294D01*
X26440123Y2077562D01*
X26440125Y2077559D01*
X26453212Y2051873D01*
X26518768Y1923212D01*
X26620586Y1783072D01*
X26743072Y1660586D01*
X26883212Y1558768D01*
X27037555Y1480127D01*
X27037557Y1480127D01*
X27037558Y1480126D01*
X27037561Y1480124D01*
X27202293Y1426599D01*
X27202297Y1426598D01*
X27373386Y1399500D01*
X27373389Y1399500D01*
X27546614Y1399500D01*
X27717702Y1426598D01*
X27717706Y1426599D01*
X27882438Y1480124D01*
X27882440Y1480126D01*
X27882445Y1480127D01*
X28036788Y1558768D01*
X28176928Y1660586D01*
X28299414Y1783072D01*
X28401232Y1923212D01*
X28479873Y2077555D01*
X28479874Y2077560D01*
X28479876Y2077562D01*
X28533401Y2242294D01*
X28533402Y2242298D01*
X28560500Y2413386D01*
X28560500Y2586615D01*
X28899500Y2586615D01*
X28899500Y2413386D01*
X28926597Y2242298D01*
X28926598Y2242294D01*
X28980123Y2077562D01*
X28980125Y2077559D01*
X28993212Y2051873D01*
X29058768Y1923212D01*
X29160586Y1783072D01*
X29283072Y1660586D01*
X29423212Y1558768D01*
X29577555Y1480127D01*
X29577557Y1480127D01*
X29577558Y1480126D01*
X29577561Y1480124D01*
X29742293Y1426599D01*
X29742297Y1426598D01*
X29913386Y1399500D01*
X29913389Y1399500D01*
X30086614Y1399500D01*
X30257702Y1426598D01*
X30257706Y1426599D01*
X30422438Y1480124D01*
X30422440Y1480126D01*
X30422445Y1480127D01*
X30576788Y1558768D01*
X30716928Y1660586D01*
X30839414Y1783072D01*
X30941232Y1923212D01*
X31019873Y2077555D01*
X31019874Y2077560D01*
X31019876Y2077562D01*
X31073401Y2242294D01*
X31073402Y2242298D01*
X31100500Y2413386D01*
X31100500Y2586615D01*
X31439500Y2586615D01*
X31439500Y2413386D01*
X31466597Y2242298D01*
X31466598Y2242294D01*
X31520123Y2077562D01*
X31520125Y2077559D01*
X31533212Y2051873D01*
X31598768Y1923212D01*
X31700586Y1783072D01*
X31823072Y1660586D01*
X31963212Y1558768D01*
X32117555Y1480127D01*
X32117557Y1480127D01*
X32117558Y1480126D01*
X32117561Y1480124D01*
X32282293Y1426599D01*
X32282297Y1426598D01*
X32453386Y1399500D01*
X32453389Y1399500D01*
X32626614Y1399500D01*
X32797702Y1426598D01*
X32797706Y1426599D01*
X32962438Y1480124D01*
X32962440Y1480126D01*
X32962445Y1480127D01*
X33116788Y1558768D01*
X33256928Y1660586D01*
X33379414Y1783072D01*
X33481232Y1923212D01*
X33559873Y2077555D01*
X33559874Y2077560D01*
X33559876Y2077562D01*
X33613401Y2242294D01*
X33613402Y2242298D01*
X33640500Y2413386D01*
X33640500Y2586615D01*
X33979500Y2586615D01*
X33979500Y2413386D01*
X34006597Y2242298D01*
X34006598Y2242294D01*
X34060123Y2077562D01*
X34060125Y2077559D01*
X34073212Y2051873D01*
X34138768Y1923212D01*
X34240586Y1783072D01*
X34363072Y1660586D01*
X34503212Y1558768D01*
X34657555Y1480127D01*
X34657557Y1480127D01*
X34657558Y1480126D01*
X34657561Y1480124D01*
X34822293Y1426599D01*
X34822297Y1426598D01*
X34993386Y1399500D01*
X34993389Y1399500D01*
X35166614Y1399500D01*
X35337702Y1426598D01*
X35337706Y1426599D01*
X35502438Y1480124D01*
X35502440Y1480126D01*
X35502445Y1480127D01*
X35656788Y1558768D01*
X35796928Y1660586D01*
X35919414Y1783072D01*
X36021232Y1923212D01*
X36099873Y2077555D01*
X36099874Y2077560D01*
X36099876Y2077562D01*
X36153401Y2242294D01*
X36153402Y2242298D01*
X36180500Y2413386D01*
X36180500Y2586615D01*
X36519500Y2586615D01*
X36519500Y2413386D01*
X36546597Y2242298D01*
X36546598Y2242294D01*
X36600123Y2077562D01*
X36600125Y2077559D01*
X36613212Y2051873D01*
X36678768Y1923212D01*
X36780586Y1783072D01*
X36903072Y1660586D01*
X37043212Y1558768D01*
X37197555Y1480127D01*
X37197557Y1480127D01*
X37197558Y1480126D01*
X37197561Y1480124D01*
X37362293Y1426599D01*
X37362297Y1426598D01*
X37533386Y1399500D01*
X37533389Y1399500D01*
X37706614Y1399500D01*
X37877702Y1426598D01*
X37877706Y1426599D01*
X38042438Y1480124D01*
X38042440Y1480126D01*
X38042445Y1480127D01*
X38196788Y1558768D01*
X38336928Y1660586D01*
X38459414Y1783072D01*
X38561232Y1923212D01*
X38639873Y2077555D01*
X38639874Y2077560D01*
X38639876Y2077562D01*
X38693401Y2242294D01*
X38693402Y2242298D01*
X38720500Y2413386D01*
X38720500Y2586615D01*
X39059500Y2586615D01*
X39059500Y2413386D01*
X39086597Y2242298D01*
X39086598Y2242294D01*
X39140123Y2077562D01*
X39140125Y2077559D01*
X39153212Y2051873D01*
X39218768Y1923212D01*
X39320586Y1783072D01*
X39443072Y1660586D01*
X39583212Y1558768D01*
X39737555Y1480127D01*
X39737557Y1480127D01*
X39737558Y1480126D01*
X39737561Y1480124D01*
X39902293Y1426599D01*
X39902297Y1426598D01*
X40073386Y1399500D01*
X40073389Y1399500D01*
X40246614Y1399500D01*
X40417702Y1426598D01*
X40417706Y1426599D01*
X40582438Y1480124D01*
X40582440Y1480126D01*
X40582445Y1480127D01*
X40736788Y1558768D01*
X40876928Y1660586D01*
X40999414Y1783072D01*
X41101232Y1923212D01*
X41179873Y2077555D01*
X41179874Y2077560D01*
X41179876Y2077562D01*
X41233401Y2242294D01*
X41233402Y2242298D01*
X41260500Y2413386D01*
X41260500Y2586615D01*
X41233402Y2757703D01*
X41233401Y2757707D01*
X41179876Y2922439D01*
X41179874Y2922442D01*
X41179873Y2922443D01*
X41179873Y2922445D01*
X41101232Y3076788D01*
X40999414Y3216928D01*
X40876928Y3339414D01*
X40736788Y3441232D01*
X40736787Y3441233D01*
X40736785Y3441234D01*
X40582441Y3519875D01*
X40582438Y3519877D01*
X40417706Y3573402D01*
X40417702Y3573403D01*
X40246614Y3600500D01*
X40246611Y3600500D01*
X40073389Y3600500D01*
X40073386Y3600500D01*
X39902297Y3573403D01*
X39902293Y3573402D01*
X39737561Y3519877D01*
X39737558Y3519875D01*
X39583214Y3441234D01*
X39443073Y3339415D01*
X39320585Y3216927D01*
X39218766Y3076786D01*
X39140125Y2922442D01*
X39140123Y2922439D01*
X39086598Y2757707D01*
X39086597Y2757703D01*
X39059500Y2586615D01*
X38720500Y2586615D01*
X38693402Y2757703D01*
X38693401Y2757707D01*
X38639876Y2922439D01*
X38639874Y2922442D01*
X38639873Y2922443D01*
X38639873Y2922445D01*
X38561232Y3076788D01*
X38459414Y3216928D01*
X38336928Y3339414D01*
X38196788Y3441232D01*
X38196787Y3441233D01*
X38196785Y3441234D01*
X38042441Y3519875D01*
X38042438Y3519877D01*
X37877706Y3573402D01*
X37877702Y3573403D01*
X37706614Y3600500D01*
X37706611Y3600500D01*
X37533389Y3600500D01*
X37533386Y3600500D01*
X37362297Y3573403D01*
X37362293Y3573402D01*
X37197561Y3519877D01*
X37197558Y3519875D01*
X37043214Y3441234D01*
X36903073Y3339415D01*
X36780585Y3216927D01*
X36678766Y3076786D01*
X36600125Y2922442D01*
X36600123Y2922439D01*
X36546598Y2757707D01*
X36546597Y2757703D01*
X36519500Y2586615D01*
X36180500Y2586615D01*
X36153402Y2757703D01*
X36153401Y2757707D01*
X36099876Y2922439D01*
X36099874Y2922442D01*
X36099873Y2922443D01*
X36099873Y2922445D01*
X36021232Y3076788D01*
X35919414Y3216928D01*
X35796928Y3339414D01*
X35656788Y3441232D01*
X35656787Y3441233D01*
X35656785Y3441234D01*
X35502441Y3519875D01*
X35502438Y3519877D01*
X35337706Y3573402D01*
X35337702Y3573403D01*
X35166614Y3600500D01*
X35166611Y3600500D01*
X34993389Y3600500D01*
X34993386Y3600500D01*
X34822297Y3573403D01*
X34822293Y3573402D01*
X34657561Y3519877D01*
X34657558Y3519875D01*
X34503214Y3441234D01*
X34363073Y3339415D01*
X34240585Y3216927D01*
X34138766Y3076786D01*
X34060125Y2922442D01*
X34060123Y2922439D01*
X34006598Y2757707D01*
X34006597Y2757703D01*
X33979500Y2586615D01*
X33640500Y2586615D01*
X33613402Y2757703D01*
X33613401Y2757707D01*
X33559876Y2922439D01*
X33559874Y2922442D01*
X33559873Y2922443D01*
X33559873Y2922445D01*
X33481232Y3076788D01*
X33379414Y3216928D01*
X33256928Y3339414D01*
X33116788Y3441232D01*
X33116787Y3441233D01*
X33116785Y3441234D01*
X32962441Y3519875D01*
X32962438Y3519877D01*
X32797706Y3573402D01*
X32797702Y3573403D01*
X32626614Y3600500D01*
X32626611Y3600500D01*
X32453389Y3600500D01*
X32453386Y3600500D01*
X32282297Y3573403D01*
X32282293Y3573402D01*
X32117561Y3519877D01*
X32117558Y3519875D01*
X31963214Y3441234D01*
X31823073Y3339415D01*
X31700585Y3216927D01*
X31598766Y3076786D01*
X31520125Y2922442D01*
X31520123Y2922439D01*
X31466598Y2757707D01*
X31466597Y2757703D01*
X31439500Y2586615D01*
X31100500Y2586615D01*
X31073402Y2757703D01*
X31073401Y2757707D01*
X31019876Y2922439D01*
X31019874Y2922442D01*
X31019873Y2922443D01*
X31019873Y2922445D01*
X30941232Y3076788D01*
X30839414Y3216928D01*
X30716928Y3339414D01*
X30576788Y3441232D01*
X30576787Y3441233D01*
X30576785Y3441234D01*
X30422441Y3519875D01*
X30422438Y3519877D01*
X30257706Y3573402D01*
X30257702Y3573403D01*
X30086614Y3600500D01*
X30086611Y3600500D01*
X29913389Y3600500D01*
X29913386Y3600500D01*
X29742297Y3573403D01*
X29742293Y3573402D01*
X29577561Y3519877D01*
X29577558Y3519875D01*
X29423214Y3441234D01*
X29283073Y3339415D01*
X29160585Y3216927D01*
X29058766Y3076786D01*
X28980125Y2922442D01*
X28980123Y2922439D01*
X28926598Y2757707D01*
X28926597Y2757703D01*
X28899500Y2586615D01*
X28560500Y2586615D01*
X28533402Y2757703D01*
X28533401Y2757707D01*
X28479876Y2922439D01*
X28479874Y2922442D01*
X28479873Y2922443D01*
X28479873Y2922445D01*
X28401232Y3076788D01*
X28299414Y3216928D01*
X28176928Y3339414D01*
X28036788Y3441232D01*
X28036787Y3441233D01*
X28036785Y3441234D01*
X27882441Y3519875D01*
X27882438Y3519877D01*
X27717706Y3573402D01*
X27717702Y3573403D01*
X27546614Y3600500D01*
X27546611Y3600500D01*
X27373389Y3600500D01*
X27373386Y3600500D01*
X27202297Y3573403D01*
X27202293Y3573402D01*
X27037561Y3519877D01*
X27037558Y3519875D01*
X26883214Y3441234D01*
X26743073Y3339415D01*
X26620585Y3216927D01*
X26518766Y3076786D01*
X26440125Y2922442D01*
X26440123Y2922439D01*
X26386598Y2757707D01*
X26386597Y2757703D01*
X26359500Y2586615D01*
X26020500Y2586615D01*
X25993402Y2757703D01*
X25993401Y2757707D01*
X25939876Y2922439D01*
X25939874Y2922442D01*
X25939873Y2922443D01*
X25939873Y2922445D01*
X25861232Y3076788D01*
X25759414Y3216928D01*
X25636928Y3339414D01*
X25496788Y3441232D01*
X25496787Y3441233D01*
X25496785Y3441234D01*
X25342441Y3519875D01*
X25342438Y3519877D01*
X25177706Y3573402D01*
X25177702Y3573403D01*
X25006614Y3600500D01*
X25006611Y3600500D01*
X24833389Y3600500D01*
X24833386Y3600500D01*
X24662297Y3573403D01*
X24662293Y3573402D01*
X24497561Y3519877D01*
X24497558Y3519875D01*
X24343214Y3441234D01*
X24203073Y3339415D01*
X24080585Y3216927D01*
X23978766Y3076786D01*
X23900125Y2922442D01*
X23900123Y2922439D01*
X23846598Y2757707D01*
X23846597Y2757703D01*
X23819500Y2586615D01*
X23480500Y2586615D01*
X23453402Y2757703D01*
X23453401Y2757707D01*
X23399876Y2922439D01*
X23399874Y2922442D01*
X23399873Y2922443D01*
X23399873Y2922445D01*
X23321232Y3076788D01*
X23219414Y3216928D01*
X23096928Y3339414D01*
X22956788Y3441232D01*
X22956787Y3441233D01*
X22956785Y3441234D01*
X22802441Y3519875D01*
X22802438Y3519877D01*
X22637706Y3573402D01*
X22637702Y3573403D01*
X22466614Y3600500D01*
X22466611Y3600500D01*
X22293389Y3600500D01*
X22293386Y3600500D01*
X22122297Y3573403D01*
X22122293Y3573402D01*
X21957561Y3519877D01*
X21957558Y3519875D01*
X21803214Y3441234D01*
X21663073Y3339415D01*
X21540585Y3216927D01*
X21438766Y3076786D01*
X21360125Y2922442D01*
X21360123Y2922439D01*
X21306598Y2757707D01*
X21306597Y2757703D01*
X21279500Y2586615D01*
X20940500Y2586615D01*
X20940500Y3374674D01*
X20925966Y3447740D01*
X20877768Y3519875D01*
X20870602Y3530600D01*
X20870599Y3530603D01*
X20787742Y3585965D01*
X20787740Y3585966D01*
X20787737Y3585967D01*
X20787736Y3585967D01*
X20714684Y3600499D01*
X20714674Y3600500D01*
X18965326Y3600500D01*
X18965325Y3600500D01*
X18965315Y3600499D01*
X18892263Y3585967D01*
X18892257Y3585965D01*
X18809400Y3530603D01*
X18809397Y3530600D01*
X18754035Y3447743D01*
X18754033Y3447737D01*
X18739501Y3374685D01*
X18739500Y3374673D01*
X559228Y3374673D01*
X518063Y3652185D01*
X517113Y3661827D01*
X500619Y3997579D01*
X500500Y4002436D01*
X500500Y6697475D01*
X14249500Y6697475D01*
X14249500Y6552526D01*
X14287017Y6412511D01*
X14359487Y6286990D01*
X14359489Y6286988D01*
X14359491Y6286985D01*
X14461985Y6184491D01*
X14461987Y6184490D01*
X14461989Y6184488D01*
X14587511Y6112018D01*
X14587512Y6112018D01*
X14587515Y6112016D01*
X14727525Y6074500D01*
X14727526Y6074500D01*
X14872474Y6074500D01*
X14872475Y6074500D01*
X15012485Y6112016D01*
X15012487Y6112018D01*
X15012489Y6112018D01*
X15138010Y6184488D01*
X15138010Y6184489D01*
X15138015Y6184491D01*
X15240509Y6286985D01*
X15312984Y6412515D01*
X15350500Y6552525D01*
X15350500Y6697475D01*
X15312984Y6837485D01*
X15312982Y6837488D01*
X15312982Y6837490D01*
X15240512Y6963011D01*
X15240510Y6963013D01*
X15240509Y6963015D01*
X15138015Y7065509D01*
X15138012Y7065511D01*
X15138010Y7065513D01*
X15012488Y7137983D01*
X15012489Y7137983D01*
X14982896Y7145913D01*
X14872475Y7175500D01*
X14727525Y7175500D01*
X14665790Y7158959D01*
X14587510Y7137983D01*
X14461989Y7065513D01*
X14359487Y6963011D01*
X14287017Y6837490D01*
X14249500Y6697475D01*
X500500Y6697475D01*
X500500Y8133475D01*
X6516300Y8133475D01*
X6516300Y7988526D01*
X6553817Y7848511D01*
X6626287Y7722990D01*
X6626289Y7722988D01*
X6626291Y7722985D01*
X6728785Y7620491D01*
X6728787Y7620490D01*
X6728789Y7620488D01*
X6854311Y7548018D01*
X6854312Y7548018D01*
X6854315Y7548016D01*
X6994325Y7510500D01*
X6994326Y7510500D01*
X7139274Y7510500D01*
X7139275Y7510500D01*
X7279285Y7548016D01*
X7279287Y7548018D01*
X7279289Y7548018D01*
X7404810Y7620488D01*
X7404810Y7620489D01*
X7404815Y7620491D01*
X7507309Y7722985D01*
X7579784Y7848515D01*
X7617300Y7988525D01*
X7617300Y8133475D01*
X7579784Y8273485D01*
X7579782Y8273488D01*
X7579782Y8273490D01*
X7507312Y8399011D01*
X7507310Y8399013D01*
X7507309Y8399015D01*
X7404815Y8501509D01*
X7404812Y8501511D01*
X7404810Y8501513D01*
X7279288Y8573983D01*
X7279289Y8573983D01*
X7239278Y8584704D01*
X7139275Y8611500D01*
X6994325Y8611500D01*
X6854315Y8573984D01*
X6854313Y8573984D01*
X6854309Y8573982D01*
X6728789Y8501513D01*
X6626287Y8399011D01*
X6553817Y8273490D01*
X6516300Y8133475D01*
X500500Y8133475D01*
X500500Y9403475D01*
X6297300Y9403475D01*
X6297300Y9258526D01*
X6334817Y9118511D01*
X6407287Y8992990D01*
X6407289Y8992988D01*
X6407291Y8992985D01*
X6509785Y8890491D01*
X6509787Y8890490D01*
X6509789Y8890488D01*
X6635311Y8818018D01*
X6635312Y8818018D01*
X6635315Y8818016D01*
X6775325Y8780500D01*
X6775326Y8780500D01*
X6864606Y8780500D01*
X6920275Y8780500D01*
X7060285Y8818016D01*
X7185815Y8890491D01*
X7288309Y8992985D01*
X7360784Y9118515D01*
X7398300Y9258525D01*
X7398300Y9403475D01*
X15600600Y9403475D01*
X15600600Y9258526D01*
X15638117Y9118511D01*
X15710587Y8992990D01*
X15710589Y8992988D01*
X15710591Y8992985D01*
X15813085Y8890491D01*
X15813087Y8890490D01*
X15813089Y8890488D01*
X15938611Y8818018D01*
X15938612Y8818018D01*
X15938615Y8818016D01*
X16045301Y8789430D01*
X16096615Y8756106D01*
X16118541Y8698984D01*
X16102705Y8639884D01*
X16055155Y8601378D01*
X16045301Y8598177D01*
X15955015Y8573985D01*
X15955011Y8573983D01*
X15829489Y8501513D01*
X15726987Y8399011D01*
X15654517Y8273490D01*
X15617000Y8133475D01*
X15617000Y7988526D01*
X15654517Y7848511D01*
X15726987Y7722990D01*
X15726989Y7722988D01*
X15726991Y7722985D01*
X15829485Y7620491D01*
X15829487Y7620490D01*
X15829489Y7620488D01*
X15955011Y7548018D01*
X15955012Y7548018D01*
X15955015Y7548016D01*
X16095025Y7510500D01*
X16095026Y7510500D01*
X16239974Y7510500D01*
X16239975Y7510500D01*
X16379985Y7548016D01*
X16379987Y7548018D01*
X16379989Y7548018D01*
X16505510Y7620488D01*
X16505510Y7620489D01*
X16505515Y7620491D01*
X16608009Y7722985D01*
X16680484Y7848515D01*
X16718000Y7988525D01*
X16718000Y8133475D01*
X16680484Y8273485D01*
X16680482Y8273488D01*
X16680482Y8273490D01*
X16608012Y8399011D01*
X16608010Y8399013D01*
X16608009Y8399015D01*
X16505515Y8501509D01*
X16505512Y8501511D01*
X16505510Y8501513D01*
X16379988Y8573983D01*
X16379984Y8573985D01*
X16273298Y8602572D01*
X16221984Y8635896D01*
X16200058Y8693018D01*
X16215894Y8752118D01*
X16263444Y8790623D01*
X16273275Y8793818D01*
X16363585Y8818016D01*
X16363587Y8818018D01*
X16363589Y8818018D01*
X16489110Y8890488D01*
X16489110Y8890489D01*
X16489115Y8890491D01*
X16591609Y8992985D01*
X16664084Y9118515D01*
X16701600Y9258525D01*
X16701600Y9403475D01*
X16664084Y9543485D01*
X16664082Y9543488D01*
X16664082Y9543490D01*
X16591612Y9669011D01*
X16591610Y9669013D01*
X16591609Y9669015D01*
X16489115Y9771509D01*
X16489112Y9771511D01*
X16489110Y9771513D01*
X16363588Y9843983D01*
X16363589Y9843983D01*
X16333996Y9851913D01*
X16223575Y9881500D01*
X16078625Y9881500D01*
X16016890Y9864959D01*
X15938610Y9843983D01*
X15813089Y9771513D01*
X15710587Y9669011D01*
X15638117Y9543490D01*
X15600600Y9403475D01*
X7398300Y9403475D01*
X7360784Y9543485D01*
X7360782Y9543488D01*
X7360782Y9543490D01*
X7288312Y9669011D01*
X7288310Y9669013D01*
X7288309Y9669015D01*
X7185815Y9771509D01*
X7185812Y9771511D01*
X7185810Y9771513D01*
X7060290Y9843982D01*
X7060287Y9843983D01*
X7060285Y9843984D01*
X6920275Y9881500D01*
X6775325Y9881500D01*
X6763539Y9878343D01*
X6763534Y9878342D01*
X6635315Y9843985D01*
X6635311Y9843983D01*
X6509789Y9771513D01*
X6407287Y9669011D01*
X6334817Y9543490D01*
X6297300Y9403475D01*
X500500Y9403475D01*
X500500Y10697475D01*
X6291600Y10697475D01*
X6291600Y10552526D01*
X6329117Y10412511D01*
X6401587Y10286990D01*
X6401589Y10286988D01*
X6401591Y10286985D01*
X6504085Y10184491D01*
X6504087Y10184490D01*
X6504089Y10184488D01*
X6629611Y10112018D01*
X6629609Y10112018D01*
X6629613Y10112017D01*
X6629615Y10112016D01*
X6769625Y10074500D01*
X6914575Y10074500D01*
X7054585Y10112016D01*
X7054587Y10112018D01*
X7054589Y10112018D01*
X7180110Y10184488D01*
X7180110Y10184489D01*
X7180115Y10184491D01*
X7282609Y10286985D01*
X7355084Y10412515D01*
X7392600Y10552525D01*
X7392600Y10697475D01*
X7355084Y10837485D01*
X7355082Y10837488D01*
X7355082Y10837490D01*
X7282612Y10963011D01*
X7282610Y10963013D01*
X7282609Y10963015D01*
X7180115Y11065509D01*
X7180112Y11065511D01*
X7180110Y11065513D01*
X7054588Y11137983D01*
X7054584Y11137985D01*
X7012882Y11149159D01*
X6961568Y11182483D01*
X6939642Y11239605D01*
X6955478Y11298705D01*
X7003028Y11337210D01*
X7012865Y11340407D01*
X7078585Y11358016D01*
X7078587Y11358018D01*
X7078589Y11358018D01*
X7204110Y11430488D01*
X7204110Y11430489D01*
X7204115Y11430491D01*
X7306609Y11532985D01*
X7306612Y11532990D01*
X7379082Y11658511D01*
X7379082Y11658513D01*
X7379084Y11658515D01*
X7416600Y11798525D01*
X7416600Y11943475D01*
X16214700Y11943475D01*
X16214700Y11798526D01*
X16252217Y11658511D01*
X16324687Y11532990D01*
X16324689Y11532988D01*
X16324691Y11532985D01*
X16427185Y11430491D01*
X16427187Y11430490D01*
X16427189Y11430488D01*
X16552711Y11358018D01*
X16552712Y11358018D01*
X16552715Y11358016D01*
X16692725Y11320500D01*
X16692726Y11320500D01*
X16837674Y11320500D01*
X16837675Y11320500D01*
X16977685Y11358016D01*
X16977687Y11358018D01*
X16977689Y11358018D01*
X17103210Y11430488D01*
X17103210Y11430489D01*
X17103215Y11430491D01*
X17205709Y11532985D01*
X17205712Y11532990D01*
X17278182Y11658511D01*
X17278182Y11658513D01*
X17278184Y11658515D01*
X17315700Y11798525D01*
X17315700Y11943475D01*
X17278184Y12083485D01*
X17278182Y12083488D01*
X17278182Y12083490D01*
X17205712Y12209011D01*
X17205710Y12209013D01*
X17205709Y12209015D01*
X17103215Y12311509D01*
X17103212Y12311511D01*
X17103210Y12311513D01*
X16977688Y12383983D01*
X16977689Y12383983D01*
X16948096Y12391913D01*
X16837675Y12421500D01*
X16692725Y12421500D01*
X16630990Y12404959D01*
X16552710Y12383983D01*
X16427189Y12311513D01*
X16324687Y12209011D01*
X16252217Y12083490D01*
X16214700Y11943475D01*
X7416600Y11943475D01*
X7379084Y12083485D01*
X7379082Y12083488D01*
X7379082Y12083490D01*
X7306612Y12209011D01*
X7306610Y12209013D01*
X7306609Y12209015D01*
X7204115Y12311509D01*
X7204112Y12311511D01*
X7204110Y12311513D01*
X7078588Y12383983D01*
X7078589Y12383983D01*
X7048996Y12391913D01*
X6938575Y12421500D01*
X6793625Y12421500D01*
X6731890Y12404959D01*
X6653610Y12383983D01*
X6528089Y12311513D01*
X6425587Y12209011D01*
X6353117Y12083490D01*
X6315600Y11943475D01*
X6315600Y11798526D01*
X6353117Y11658511D01*
X6425587Y11532990D01*
X6425589Y11532988D01*
X6425591Y11532985D01*
X6528085Y11430491D01*
X6528087Y11430490D01*
X6528089Y11430488D01*
X6653611Y11358018D01*
X6653609Y11358018D01*
X6653613Y11358017D01*
X6653615Y11358016D01*
X6695318Y11346842D01*
X6746630Y11313519D01*
X6768557Y11256398D01*
X6752722Y11197297D01*
X6705172Y11158792D01*
X6695317Y11155590D01*
X6629615Y11137985D01*
X6629611Y11137983D01*
X6504089Y11065513D01*
X6401587Y10963011D01*
X6329117Y10837490D01*
X6291600Y10697475D01*
X500500Y10697475D01*
X500500Y17393475D01*
X14395400Y17393475D01*
X14395400Y17248526D01*
X14432917Y17108511D01*
X14505387Y16982990D01*
X14505389Y16982988D01*
X14505391Y16982985D01*
X14607885Y16880491D01*
X14733415Y16808016D01*
X14733424Y16808014D01*
X14739413Y16805532D01*
X14738929Y16804364D01*
X14776285Y16782797D01*
X15589046Y15970018D01*
X18530110Y13028886D01*
X18774304Y12784687D01*
X18802081Y12730170D01*
X18803300Y12714684D01*
X18803300Y11762635D01*
X18792134Y11720962D01*
X18793299Y11720479D01*
X18790816Y11714487D01*
X18753300Y11574475D01*
X18753300Y11429525D01*
X18782887Y11319104D01*
X18790817Y11289511D01*
X18863287Y11163990D01*
X18863289Y11163988D01*
X18863291Y11163985D01*
X18965785Y11061491D01*
X18965787Y11061490D01*
X18965789Y11061488D01*
X19091311Y10989018D01*
X19091312Y10989018D01*
X19091315Y10989016D01*
X19231325Y10951500D01*
X19231326Y10951500D01*
X19376274Y10951500D01*
X19376275Y10951500D01*
X19516285Y10989016D01*
X19516287Y10989018D01*
X19516289Y10989018D01*
X19641810Y11061488D01*
X19641810Y11061489D01*
X19641815Y11061491D01*
X19744309Y11163985D01*
X19763542Y11197297D01*
X19816782Y11289511D01*
X19816782Y11289513D01*
X19816784Y11289515D01*
X19854300Y11429525D01*
X19854300Y11574475D01*
X19816784Y11714485D01*
X19816783Y11714487D01*
X19814301Y11720479D01*
X19815465Y11720962D01*
X19804300Y11762635D01*
X19804300Y12962995D01*
X19804301Y13028887D01*
X19770398Y13155420D01*
X19770205Y13156163D01*
X19770192Y13156186D01*
X19725421Y13233731D01*
X19705770Y13267769D01*
X19704593Y13269958D01*
X19704407Y13270207D01*
X19660669Y13313946D01*
X19660663Y13313951D01*
X16482726Y16491961D01*
X16419213Y16555475D01*
X18774500Y16555475D01*
X18774500Y16410526D01*
X18812017Y16270511D01*
X18884487Y16144990D01*
X18884489Y16144988D01*
X18884491Y16144985D01*
X18986985Y16042491D01*
X18986987Y16042490D01*
X18986989Y16042488D01*
X19112511Y15970018D01*
X19112512Y15970018D01*
X19112515Y15970016D01*
X19252525Y15932500D01*
X19252526Y15932500D01*
X19397474Y15932500D01*
X19397475Y15932500D01*
X19537485Y15970016D01*
X19537487Y15970018D01*
X19537489Y15970018D01*
X19663010Y16042488D01*
X19663010Y16042489D01*
X19663015Y16042491D01*
X19765509Y16144985D01*
X19837984Y16270515D01*
X19875500Y16410525D01*
X19875500Y16555475D01*
X19837984Y16695485D01*
X19837982Y16695488D01*
X19837982Y16695490D01*
X19765512Y16821011D01*
X19765510Y16821013D01*
X19765509Y16821015D01*
X19663015Y16923509D01*
X19663012Y16923511D01*
X19663010Y16923513D01*
X19537488Y16995983D01*
X19537489Y16995983D01*
X19507896Y17003913D01*
X19397475Y17033500D01*
X19252525Y17033500D01*
X19190790Y17016959D01*
X19112510Y16995983D01*
X18986989Y16923513D01*
X18884487Y16821011D01*
X18812017Y16695490D01*
X18774500Y16555475D01*
X16419213Y16555475D01*
X15484105Y17490605D01*
X15462534Y17527969D01*
X15461369Y17527486D01*
X15458885Y17533482D01*
X15458884Y17533483D01*
X15458884Y17533485D01*
X15386409Y17659015D01*
X15283915Y17761509D01*
X15283912Y17761511D01*
X15283910Y17761513D01*
X15158388Y17833983D01*
X15158389Y17833983D01*
X15128796Y17841913D01*
X15018375Y17871500D01*
X14873425Y17871500D01*
X14811690Y17854959D01*
X14733410Y17833983D01*
X14607889Y17761513D01*
X14505387Y17659011D01*
X14432917Y17533490D01*
X14395400Y17393475D01*
X500500Y17393475D01*
X500500Y19583475D01*
X19545000Y19583475D01*
X19545000Y19438526D01*
X19582517Y19298511D01*
X19654987Y19172990D01*
X19654989Y19172988D01*
X19654991Y19172985D01*
X19757485Y19070491D01*
X19757487Y19070490D01*
X19757489Y19070488D01*
X19883011Y18998018D01*
X19883012Y18998018D01*
X19883015Y18998016D01*
X20023025Y18960500D01*
X20023026Y18960500D01*
X20167974Y18960500D01*
X20167975Y18960500D01*
X20307985Y18998016D01*
X20307987Y18998018D01*
X20307989Y18998018D01*
X20433510Y19070488D01*
X20433510Y19070489D01*
X20433515Y19070491D01*
X20536009Y19172985D01*
X20608484Y19298515D01*
X20646000Y19438525D01*
X20646000Y19583475D01*
X20608484Y19723485D01*
X20608482Y19723488D01*
X20608482Y19723490D01*
X20536012Y19849011D01*
X20536010Y19849013D01*
X20536009Y19849015D01*
X20433515Y19951509D01*
X20433512Y19951511D01*
X20433510Y19951513D01*
X20307988Y20023983D01*
X20307989Y20023983D01*
X20278396Y20031913D01*
X20167975Y20061500D01*
X20023025Y20061500D01*
X19961290Y20044959D01*
X19883010Y20023983D01*
X19757489Y19951513D01*
X19654987Y19849011D01*
X19582517Y19723490D01*
X19545000Y19583475D01*
X500500Y19583475D01*
X500500Y30874673D01*
X23819500Y30874673D01*
X23819500Y29125328D01*
X23819501Y29125316D01*
X23834033Y29052264D01*
X23834035Y29052258D01*
X23889397Y28969401D01*
X23889399Y28969399D01*
X23972260Y28914034D01*
X24027808Y28902985D01*
X24045315Y28899502D01*
X24045320Y28899502D01*
X24045326Y28899500D01*
X24045327Y28899500D01*
X25794673Y28899500D01*
X25794674Y28899500D01*
X25867740Y28914034D01*
X25950601Y28969399D01*
X26005966Y29052260D01*
X26020500Y29125326D01*
X26020500Y30086615D01*
X28899500Y30086615D01*
X28899500Y29913386D01*
X28926597Y29742298D01*
X28926598Y29742294D01*
X28980123Y29577562D01*
X28980125Y29577559D01*
X28980126Y29577556D01*
X28980127Y29577555D01*
X29058768Y29423212D01*
X29160586Y29283072D01*
X29283072Y29160586D01*
X29423212Y29058768D01*
X29577555Y28980127D01*
X29577557Y28980127D01*
X29577558Y28980126D01*
X29577561Y28980124D01*
X29742293Y28926599D01*
X29742297Y28926598D01*
X29913386Y28899500D01*
X29913389Y28899500D01*
X30086614Y28899500D01*
X30257702Y28926598D01*
X30257706Y28926599D01*
X30422438Y28980124D01*
X30422440Y28980126D01*
X30422445Y28980127D01*
X30576788Y29058768D01*
X30716928Y29160586D01*
X30839414Y29283072D01*
X30941232Y29423212D01*
X31019873Y29577555D01*
X31019874Y29577560D01*
X31019876Y29577562D01*
X31073401Y29742294D01*
X31073402Y29742298D01*
X31100500Y29913386D01*
X31100500Y30086615D01*
X31439500Y30086615D01*
X31439500Y29913386D01*
X31466597Y29742298D01*
X31466598Y29742294D01*
X31520123Y29577562D01*
X31520125Y29577559D01*
X31520126Y29577556D01*
X31520127Y29577555D01*
X31598768Y29423212D01*
X31700586Y29283072D01*
X31823072Y29160586D01*
X31963212Y29058768D01*
X32117555Y28980127D01*
X32117557Y28980127D01*
X32117558Y28980126D01*
X32117561Y28980124D01*
X32282293Y28926599D01*
X32282297Y28926598D01*
X32453386Y28899500D01*
X32453389Y28899500D01*
X32626614Y28899500D01*
X32797702Y28926598D01*
X32797706Y28926599D01*
X32962438Y28980124D01*
X32962440Y28980126D01*
X32962445Y28980127D01*
X33116788Y29058768D01*
X33256928Y29160586D01*
X33379414Y29283072D01*
X33481232Y29423212D01*
X33559873Y29577555D01*
X33559874Y29577560D01*
X33559876Y29577562D01*
X33613401Y29742294D01*
X33613402Y29742298D01*
X33640500Y29913386D01*
X33640500Y30086615D01*
X33979500Y30086615D01*
X33979500Y29913386D01*
X34006597Y29742298D01*
X34006598Y29742294D01*
X34060123Y29577562D01*
X34060125Y29577559D01*
X34060126Y29577556D01*
X34060127Y29577555D01*
X34138768Y29423212D01*
X34240586Y29283072D01*
X34363072Y29160586D01*
X34503212Y29058768D01*
X34657555Y28980127D01*
X34657557Y28980127D01*
X34657558Y28980126D01*
X34657561Y28980124D01*
X34822293Y28926599D01*
X34822297Y28926598D01*
X34993386Y28899500D01*
X34993389Y28899500D01*
X35166614Y28899500D01*
X35337702Y28926598D01*
X35337706Y28926599D01*
X35502438Y28980124D01*
X35502440Y28980126D01*
X35502445Y28980127D01*
X35656788Y29058768D01*
X35796928Y29160586D01*
X35919414Y29283072D01*
X36021232Y29423212D01*
X36099873Y29577555D01*
X36099874Y29577560D01*
X36099876Y29577562D01*
X36153401Y29742294D01*
X36153402Y29742298D01*
X36180500Y29913386D01*
X36180500Y30086615D01*
X36153402Y30257703D01*
X36153401Y30257707D01*
X36099876Y30422439D01*
X36099874Y30422442D01*
X36099873Y30422443D01*
X36099873Y30422445D01*
X36021232Y30576788D01*
X35919414Y30716928D01*
X35796928Y30839414D01*
X35656788Y30941232D01*
X35656787Y30941233D01*
X35656785Y30941234D01*
X35502441Y31019875D01*
X35502438Y31019877D01*
X35337706Y31073402D01*
X35337702Y31073403D01*
X35166614Y31100500D01*
X35166611Y31100500D01*
X34993389Y31100500D01*
X34993386Y31100500D01*
X34822297Y31073403D01*
X34822293Y31073402D01*
X34657561Y31019877D01*
X34657558Y31019875D01*
X34503214Y30941234D01*
X34363073Y30839415D01*
X34240585Y30716927D01*
X34138766Y30576786D01*
X34060125Y30422442D01*
X34060123Y30422439D01*
X34006598Y30257707D01*
X34006597Y30257703D01*
X33979500Y30086615D01*
X33640500Y30086615D01*
X33613402Y30257703D01*
X33613401Y30257707D01*
X33559876Y30422439D01*
X33559874Y30422442D01*
X33559873Y30422443D01*
X33559873Y30422445D01*
X33481232Y30576788D01*
X33379414Y30716928D01*
X33256928Y30839414D01*
X33116788Y30941232D01*
X33116787Y30941233D01*
X33116785Y30941234D01*
X32962441Y31019875D01*
X32962438Y31019877D01*
X32797706Y31073402D01*
X32797702Y31073403D01*
X32626614Y31100500D01*
X32626611Y31100500D01*
X32453389Y31100500D01*
X32453386Y31100500D01*
X32282297Y31073403D01*
X32282293Y31073402D01*
X32117561Y31019877D01*
X32117558Y31019875D01*
X31963214Y30941234D01*
X31823073Y30839415D01*
X31700585Y30716927D01*
X31598766Y30576786D01*
X31520125Y30422442D01*
X31520123Y30422439D01*
X31466598Y30257707D01*
X31466597Y30257703D01*
X31439500Y30086615D01*
X31100500Y30086615D01*
X31073402Y30257703D01*
X31073401Y30257707D01*
X31019876Y30422439D01*
X31019874Y30422442D01*
X31019873Y30422443D01*
X31019873Y30422445D01*
X30941232Y30576788D01*
X30839414Y30716928D01*
X30716928Y30839414D01*
X30576788Y30941232D01*
X30576787Y30941233D01*
X30576785Y30941234D01*
X30422441Y31019875D01*
X30422438Y31019877D01*
X30257706Y31073402D01*
X30257702Y31073403D01*
X30086614Y31100500D01*
X30086611Y31100500D01*
X29913389Y31100500D01*
X29913386Y31100500D01*
X29742297Y31073403D01*
X29742293Y31073402D01*
X29577561Y31019877D01*
X29577558Y31019875D01*
X29423214Y30941234D01*
X29283073Y30839415D01*
X29160585Y30716927D01*
X29058766Y30576786D01*
X28980125Y30422442D01*
X28980123Y30422439D01*
X28926598Y30257707D01*
X28926597Y30257703D01*
X28899500Y30086615D01*
X26020500Y30086615D01*
X26020500Y30874674D01*
X26005966Y30947740D01*
X25957768Y31019875D01*
X25950602Y31030600D01*
X25950599Y31030603D01*
X25867742Y31085965D01*
X25867740Y31085966D01*
X25867737Y31085967D01*
X25867736Y31085967D01*
X25794684Y31100499D01*
X25794674Y31100500D01*
X24045326Y31100500D01*
X24045325Y31100500D01*
X24045315Y31100499D01*
X23972263Y31085967D01*
X23972257Y31085965D01*
X23889400Y31030603D01*
X23889397Y31030600D01*
X23834035Y30947743D01*
X23834033Y30947737D01*
X23819501Y30874685D01*
X23819500Y30874673D01*
X500500Y30874673D01*
X500500Y33801000D01*
X519407Y33859191D01*
X568907Y33895155D01*
X599500Y33900000D01*
X59400500Y33900000D01*
X59458691Y33881093D01*
G37*
%TD.AperFunction*%
%TA.AperFunction,Conductor*%
G36*
X8209191Y109480593D02*
G01*
X8245155Y109431093D01*
X8250000Y109400500D01*
X8250000Y96561703D01*
X8231093Y96503512D01*
X8181593Y96467548D01*
X8170140Y96464957D01*
X8025810Y96426283D01*
X7900289Y96353813D01*
X7797787Y96251311D01*
X7725317Y96125790D01*
X7687800Y95985775D01*
X7687800Y95899490D01*
X7668893Y95841299D01*
X7658804Y95829486D01*
X5337630Y93508312D01*
X5291486Y93428388D01*
X5267600Y93339243D01*
X5267600Y54603487D01*
X5267587Y54603283D01*
X5267600Y54552918D01*
X5267600Y54504813D01*
X5279338Y54461046D01*
X5279334Y54461046D01*
X5279343Y54461027D01*
X5291486Y54415712D01*
X5291521Y54415628D01*
X5314896Y54375164D01*
X5314903Y54375153D01*
X5337631Y54335788D01*
X5337632Y54335787D01*
X5337634Y54335784D01*
X5337684Y54335718D01*
X5371336Y54302083D01*
X5371347Y54302061D01*
X5371353Y54302066D01*
X5371354Y54302065D01*
X5402888Y54270531D01*
X5402890Y54270530D01*
X5407526Y54265894D01*
X5407659Y54265778D01*
X5434785Y54238666D01*
X5462577Y54184157D01*
X5463800Y54168645D01*
X5463800Y54082525D01*
X5476927Y54033536D01*
X5501317Y53942511D01*
X5573787Y53816990D01*
X5573789Y53816988D01*
X5573791Y53816985D01*
X5676285Y53714491D01*
X5676287Y53714490D01*
X5676289Y53714488D01*
X5801811Y53642018D01*
X5801812Y53642018D01*
X5801815Y53642016D01*
X5941825Y53604500D01*
X5941826Y53604500D01*
X6086774Y53604500D01*
X6086775Y53604500D01*
X6226785Y53642016D01*
X6226787Y53642018D01*
X6226789Y53642018D01*
X6352310Y53714488D01*
X6352310Y53714489D01*
X6352315Y53714491D01*
X6454809Y53816985D01*
X6527284Y53942515D01*
X6564800Y54082525D01*
X6564800Y54227475D01*
X6527284Y54367485D01*
X6527282Y54367488D01*
X6527282Y54367490D01*
X6454812Y54493011D01*
X6454810Y54493013D01*
X6454809Y54493015D01*
X6352315Y54595509D01*
X6352312Y54595511D01*
X6352310Y54595513D01*
X6226788Y54667983D01*
X6226789Y54667983D01*
X6197196Y54675913D01*
X6086775Y54705500D01*
X6086774Y54705500D01*
X6067600Y54705500D01*
X6009409Y54724407D01*
X5973445Y54773907D01*
X5968600Y54804500D01*
X5968600Y56830894D01*
X5987507Y56889085D01*
X6037007Y56925049D01*
X6098193Y56925049D01*
X6147693Y56889085D01*
X6159066Y56868774D01*
X6160417Y56865512D01*
X6232887Y56739990D01*
X6232889Y56739988D01*
X6232891Y56739985D01*
X6335385Y56637491D01*
X6335387Y56637490D01*
X6335389Y56637488D01*
X6460911Y56565018D01*
X6460912Y56565018D01*
X6460915Y56565016D01*
X6600925Y56527500D01*
X6600926Y56527500D01*
X6745874Y56527500D01*
X6745875Y56527500D01*
X6885885Y56565016D01*
X6885887Y56565018D01*
X6885889Y56565018D01*
X7011410Y56637488D01*
X7011410Y56637489D01*
X7011415Y56637491D01*
X7113909Y56739985D01*
X7163865Y56826511D01*
X7186382Y56865511D01*
X7186382Y56865513D01*
X7186384Y56865515D01*
X7223900Y57005525D01*
X7223900Y57091812D01*
X7230289Y57111475D01*
X7760300Y57111475D01*
X7760300Y56966526D01*
X7797817Y56826511D01*
X7870287Y56700990D01*
X7870289Y56700988D01*
X7870291Y56700985D01*
X7972785Y56598491D01*
X7972787Y56598490D01*
X7972789Y56598488D01*
X8098311Y56526018D01*
X8098312Y56526018D01*
X8098315Y56526016D01*
X8238325Y56488500D01*
X8238326Y56488500D01*
X8383274Y56488500D01*
X8383275Y56488500D01*
X8523285Y56526016D01*
X8523287Y56526018D01*
X8523289Y56526018D01*
X8648810Y56598488D01*
X8648810Y56598489D01*
X8648815Y56598491D01*
X8751309Y56700985D01*
X8790568Y56768983D01*
X8823782Y56826511D01*
X8823782Y56826513D01*
X8823784Y56826515D01*
X8861300Y56966525D01*
X8861300Y57111475D01*
X8823784Y57251485D01*
X8823782Y57251488D01*
X8823782Y57251490D01*
X8751312Y57377011D01*
X8751310Y57377013D01*
X8751309Y57377015D01*
X8648815Y57479509D01*
X8648812Y57479511D01*
X8648810Y57479513D01*
X8523288Y57551983D01*
X8523289Y57551983D01*
X8493696Y57559913D01*
X8383275Y57589500D01*
X8238325Y57589500D01*
X8176590Y57572959D01*
X8098310Y57551983D01*
X7972789Y57479513D01*
X7870287Y57377011D01*
X7797817Y57251490D01*
X7760300Y57111475D01*
X7230289Y57111475D01*
X7242807Y57150003D01*
X7252890Y57161810D01*
X7783869Y57692788D01*
X7830014Y57772712D01*
X7847485Y57837916D01*
X7853900Y57861856D01*
X7853900Y65286397D01*
X7872807Y65344588D01*
X7922307Y65380552D01*
X7978521Y65382024D01*
X8032725Y65367500D01*
X8032727Y65367500D01*
X8177674Y65367500D01*
X8177675Y65367500D01*
X8317685Y65405016D01*
X8317687Y65405018D01*
X8317689Y65405018D01*
X8443210Y65477488D01*
X8443210Y65477489D01*
X8443215Y65477491D01*
X8545709Y65579985D01*
X8573368Y65627891D01*
X8618182Y65705511D01*
X8618182Y65705513D01*
X8618184Y65705515D01*
X8655700Y65845525D01*
X8655700Y65990475D01*
X8618184Y66130485D01*
X8618182Y66130488D01*
X8618182Y66130490D01*
X8545712Y66256011D01*
X8545710Y66256013D01*
X8545709Y66256015D01*
X8470725Y66330999D01*
X8442950Y66385513D01*
X8452521Y66445945D01*
X8495786Y66489210D01*
X8540731Y66500000D01*
X10273110Y66500000D01*
X10331301Y66481093D01*
X10343114Y66471004D01*
X15327204Y61486914D01*
X15354981Y61432397D01*
X15356200Y61416910D01*
X15356200Y60635820D01*
X15337293Y60577629D01*
X15287793Y60541665D01*
X15226607Y60541665D01*
X15177107Y60577629D01*
X15174885Y60580818D01*
X15138133Y60635820D01*
X15123358Y60657933D01*
X15036233Y60745058D01*
X14933786Y60813511D01*
X14933787Y60813511D01*
X14933785Y60813512D01*
X14819950Y60860664D01*
X14699108Y60884700D01*
X14699106Y60884700D01*
X14575894Y60884700D01*
X14575891Y60884700D01*
X14455049Y60860664D01*
X14341214Y60813512D01*
X14238767Y60745058D01*
X14238763Y60745055D01*
X14151645Y60657937D01*
X14151642Y60657933D01*
X14083188Y60555486D01*
X14036036Y60441651D01*
X14012000Y60320809D01*
X14012000Y54312049D01*
X13993093Y54253858D01*
X13983012Y54242054D01*
X13309799Y53568681D01*
X13309797Y53568679D01*
X13309795Y53568676D01*
X13241354Y53466221D01*
X13241351Y53466217D01*
X13194215Y53352382D01*
X13194213Y53352373D01*
X13170192Y53231533D01*
X13170191Y53231526D01*
X13170207Y53108320D01*
X13170208Y53108310D01*
X13194257Y52987483D01*
X13194257Y52987482D01*
X13194258Y52987478D01*
X13194259Y52987477D01*
X13229295Y52902920D01*
X13241423Y52873652D01*
X13241424Y52873649D01*
X13309890Y52771208D01*
X13396919Y52684200D01*
X13397024Y52684095D01*
X13499480Y52615653D01*
X13613320Y52568515D01*
X13734168Y52544492D01*
X13734173Y52544493D01*
X13734174Y52544492D01*
X13734263Y52544493D01*
X13857381Y52544507D01*
X13978223Y52568559D01*
X14092051Y52615724D01*
X14194491Y52684190D01*
X15078760Y53568670D01*
X15078767Y53568673D01*
X15078766Y53568674D01*
X15100837Y53590747D01*
X15122959Y53612869D01*
X15123367Y53613268D01*
X15123404Y53613324D01*
X15158903Y53666464D01*
X15174885Y53690383D01*
X15222934Y53728262D01*
X15284072Y53730664D01*
X15334946Y53696672D01*
X15356124Y53639268D01*
X15356200Y53635381D01*
X15356200Y49593940D01*
X15352827Y49568318D01*
X15324500Y49462601D01*
X15324500Y49337399D01*
X15356905Y49216464D01*
X15419505Y49108036D01*
X15508036Y49019505D01*
X15616464Y48956905D01*
X15737399Y48924500D01*
X15737401Y48924500D01*
X15862599Y48924500D01*
X15862601Y48924500D01*
X15983536Y48956905D01*
X16091964Y49019505D01*
X16180495Y49108036D01*
X16243095Y49216464D01*
X16275500Y49337399D01*
X16275500Y49462601D01*
X16243095Y49583536D01*
X16180495Y49691964D01*
X16091964Y49780495D01*
X16091961Y49780497D01*
X16087375Y49785083D01*
X16089335Y49787044D01*
X16061272Y49827891D01*
X16057200Y49855992D01*
X16057200Y53443834D01*
X16076107Y53502025D01*
X16125607Y53537989D01*
X16186793Y53537989D01*
X16226201Y53513840D01*
X16270536Y53469505D01*
X16378964Y53406905D01*
X16499899Y53374500D01*
X16499901Y53374500D01*
X16625099Y53374500D01*
X16625101Y53374500D01*
X16746036Y53406905D01*
X16854464Y53469505D01*
X16942995Y53558036D01*
X17005595Y53666464D01*
X17038000Y53787399D01*
X17038000Y53912601D01*
X17005595Y54033536D01*
X16942995Y54141964D01*
X16854464Y54230495D01*
X16746036Y54293095D01*
X16625101Y54325500D01*
X16499899Y54325500D01*
X16419275Y54303897D01*
X16378963Y54293095D01*
X16270536Y54230495D01*
X16226201Y54186161D01*
X16171687Y54158385D01*
X16111255Y54167956D01*
X16067990Y54211221D01*
X16057200Y54256166D01*
X16057200Y54759475D01*
X17519400Y54759475D01*
X17519400Y54614525D01*
X17535908Y54552918D01*
X17556917Y54474511D01*
X17629387Y54348990D01*
X17629389Y54348988D01*
X17629391Y54348985D01*
X17731885Y54246491D01*
X17731887Y54246490D01*
X17731889Y54246488D01*
X17857411Y54174018D01*
X17857412Y54174018D01*
X17857415Y54174016D01*
X17997425Y54136500D01*
X17997426Y54136500D01*
X18142374Y54136500D01*
X18142375Y54136500D01*
X18282385Y54174016D01*
X18282387Y54174018D01*
X18282389Y54174018D01*
X18407910Y54246488D01*
X18407910Y54246489D01*
X18407915Y54246491D01*
X18510409Y54348985D01*
X18521093Y54367490D01*
X18582882Y54474511D01*
X18582882Y54474513D01*
X18582884Y54474515D01*
X18620400Y54614525D01*
X18620400Y54759475D01*
X18582884Y54899485D01*
X18582882Y54899488D01*
X18582882Y54899490D01*
X18510412Y55025011D01*
X18510410Y55025013D01*
X18510409Y55025015D01*
X18407915Y55127509D01*
X18407912Y55127511D01*
X18407910Y55127513D01*
X18282388Y55199983D01*
X18282389Y55199983D01*
X18252796Y55207913D01*
X18142375Y55237500D01*
X17997425Y55237500D01*
X17935690Y55220959D01*
X17857410Y55199983D01*
X17731889Y55127513D01*
X17629387Y55025011D01*
X17556917Y54899490D01*
X17523267Y54773907D01*
X17519400Y54759475D01*
X16057200Y54759475D01*
X16057200Y55432537D01*
X16076107Y55490728D01*
X16125607Y55526692D01*
X16186793Y55526692D01*
X16205695Y55518276D01*
X16291015Y55469016D01*
X16431025Y55431500D01*
X16431026Y55431500D01*
X16575974Y55431500D01*
X16575975Y55431500D01*
X16715985Y55469016D01*
X16715987Y55469018D01*
X16715989Y55469018D01*
X16841510Y55541488D01*
X16841510Y55541489D01*
X16841515Y55541491D01*
X16944009Y55643985D01*
X16944012Y55643990D01*
X17011920Y55761609D01*
X19065700Y55761609D01*
X19065700Y46114392D01*
X19089736Y45993550D01*
X19136888Y45879715D01*
X19136889Y45879714D01*
X19205342Y45777267D01*
X19292467Y45690142D01*
X19380502Y45631319D01*
X19418381Y45583269D01*
X19424500Y45549004D01*
X19424500Y44749436D01*
X19424500Y44650564D01*
X19436880Y44604362D01*
X19436879Y44604362D01*
X19450089Y44555063D01*
X19450091Y44555059D01*
X19499525Y44469437D01*
X19499526Y44469437D01*
X19503157Y44465806D01*
X19528779Y44421426D01*
X19556903Y44316468D01*
X19556904Y44316467D01*
X19556905Y44316464D01*
X19619505Y44208036D01*
X19708036Y44119505D01*
X19816464Y44056905D01*
X19937399Y44024500D01*
X19937401Y44024500D01*
X20062599Y44024500D01*
X20062601Y44024500D01*
X20183536Y44056905D01*
X20291964Y44119505D01*
X20380495Y44208036D01*
X20443095Y44316464D01*
X20475500Y44437399D01*
X20475500Y44562601D01*
X20443095Y44683536D01*
X20380495Y44791964D01*
X20291964Y44880495D01*
X20291961Y44880497D01*
X20225000Y44919157D01*
X20184059Y44964626D01*
X20175500Y45004893D01*
X20175500Y45256475D01*
X21178600Y45256475D01*
X21178600Y45111526D01*
X21216117Y44971511D01*
X21288587Y44845990D01*
X21288589Y44845988D01*
X21288591Y44845985D01*
X21391085Y44743491D01*
X21391087Y44743490D01*
X21391089Y44743488D01*
X21516611Y44671018D01*
X21516612Y44671018D01*
X21516615Y44671016D01*
X21656625Y44633500D01*
X21656626Y44633500D01*
X21801574Y44633500D01*
X21801575Y44633500D01*
X21941585Y44671016D01*
X21941587Y44671018D01*
X21941589Y44671018D01*
X22067110Y44743488D01*
X22067110Y44743489D01*
X22067115Y44743491D01*
X22169609Y44845985D01*
X22181534Y44866640D01*
X22242082Y44971511D01*
X22242082Y44971513D01*
X22242084Y44971515D01*
X22279600Y45111525D01*
X22279600Y45256475D01*
X22242084Y45396485D01*
X22242082Y45396488D01*
X22242082Y45396490D01*
X22169612Y45522011D01*
X22169610Y45522013D01*
X22169609Y45522015D01*
X22067115Y45624509D01*
X22067112Y45624511D01*
X22067110Y45624513D01*
X21941588Y45696983D01*
X21941589Y45696983D01*
X21906601Y45706358D01*
X21801575Y45734500D01*
X21656625Y45734500D01*
X21594890Y45717959D01*
X21516610Y45696983D01*
X21391089Y45624513D01*
X21288587Y45522011D01*
X21216117Y45396490D01*
X21178600Y45256475D01*
X20175500Y45256475D01*
X20175500Y45744905D01*
X20192184Y45799906D01*
X20245511Y45879714D01*
X20292663Y45993548D01*
X20316700Y46114394D01*
X20316700Y46711038D01*
X20335607Y46769229D01*
X20385107Y46805193D01*
X20446293Y46805193D01*
X20495793Y46769229D01*
X20501432Y46760545D01*
X20559491Y46659985D01*
X20661985Y46557491D01*
X20661987Y46557490D01*
X20661989Y46557488D01*
X20787511Y46485018D01*
X20787512Y46485018D01*
X20787515Y46485016D01*
X20927525Y46447500D01*
X20927526Y46447500D01*
X21072474Y46447500D01*
X21072475Y46447500D01*
X21212485Y46485016D01*
X21212487Y46485018D01*
X21212489Y46485018D01*
X21338010Y46557488D01*
X21338010Y46557489D01*
X21338015Y46557491D01*
X21440509Y46659985D01*
X21451937Y46679779D01*
X21512982Y46785511D01*
X21512982Y46785513D01*
X21512984Y46785515D01*
X21550500Y46925525D01*
X21550500Y47070475D01*
X21523490Y47171277D01*
X21526691Y47232376D01*
X21565196Y47279927D01*
X21624296Y47295763D01*
X21681418Y47273837D01*
X21689124Y47266898D01*
X22114655Y46841314D01*
X22530794Y46425123D01*
X22600208Y46355701D01*
X22627982Y46301183D01*
X22629200Y46285702D01*
X22629200Y44164224D01*
X22629193Y44164114D01*
X22629200Y44085970D01*
X22629200Y44026087D01*
X22629204Y44026069D01*
X22629205Y44026066D01*
X22629965Y44023232D01*
X22647281Y43958626D01*
X22647282Y43958620D01*
X22663307Y43898814D01*
X22663323Y43898775D01*
X22695746Y43842629D01*
X22695755Y43842615D01*
X22729201Y43784683D01*
X22729220Y43784659D01*
X22729224Y43784655D01*
X22729226Y43784652D01*
X22776904Y43736982D01*
X22776907Y43736977D01*
X22776908Y43736977D01*
X22827227Y43686659D01*
X22827294Y43686600D01*
X23711088Y42802955D01*
X24218076Y42296052D01*
X24244624Y42269509D01*
X24272406Y42214995D01*
X24262839Y42154562D01*
X24219578Y42111294D01*
X24174626Y42100500D01*
X24045326Y42100500D01*
X24045325Y42100500D01*
X24045315Y42100499D01*
X23972263Y42085967D01*
X23972257Y42085965D01*
X23889400Y42030603D01*
X23889397Y42030600D01*
X23834035Y41947743D01*
X23834033Y41947737D01*
X23819501Y41874685D01*
X23819500Y41874673D01*
X23819500Y40125328D01*
X23819501Y40125316D01*
X23834033Y40052264D01*
X23834035Y40052258D01*
X23889397Y39969401D01*
X23889399Y39969399D01*
X23972260Y39914034D01*
X24027808Y39902985D01*
X24045315Y39899502D01*
X24045320Y39899502D01*
X24045326Y39899500D01*
X24045327Y39899500D01*
X25794673Y39899500D01*
X25794674Y39899500D01*
X25867740Y39914034D01*
X25950601Y39969399D01*
X26005966Y40052260D01*
X26020500Y40125326D01*
X26020500Y41874674D01*
X26005966Y41947740D01*
X25957768Y42019875D01*
X25950602Y42030600D01*
X25950599Y42030603D01*
X25867742Y42085965D01*
X25867740Y42085966D01*
X25867737Y42085967D01*
X25867736Y42085967D01*
X25794684Y42100499D01*
X25794674Y42100500D01*
X25794673Y42100500D01*
X25519500Y42100500D01*
X25461309Y42119407D01*
X25425345Y42168907D01*
X25420500Y42199500D01*
X25420500Y42229396D01*
X25420505Y42229485D01*
X25420504Y42236149D01*
X25420505Y42236150D01*
X25420500Y42296053D01*
X25420500Y42367892D01*
X25420499Y42367896D01*
X25420496Y42367919D01*
X25420494Y42367932D01*
X25420494Y42367935D01*
X25403478Y42431417D01*
X25386685Y42494090D01*
X25386405Y42495198D01*
X25386402Y42495205D01*
X25385887Y42496072D01*
X25350698Y42557009D01*
X25350696Y42557016D01*
X25350695Y42557015D01*
X25320741Y42608896D01*
X25320510Y42609303D01*
X25320485Y42609336D01*
X25320475Y42609346D01*
X25320474Y42609348D01*
X25272793Y42657021D01*
X25272791Y42657025D01*
X25272791Y42657024D01*
X25222786Y42707028D01*
X25222714Y42707092D01*
X25126835Y42802955D01*
X25063304Y42866475D01*
X26550000Y42866475D01*
X26550000Y42721525D01*
X26574658Y42629502D01*
X26587517Y42581511D01*
X26659987Y42455990D01*
X26659989Y42455988D01*
X26659991Y42455985D01*
X26762485Y42353491D01*
X26762487Y42353490D01*
X26762489Y42353488D01*
X26888011Y42281018D01*
X26888012Y42281018D01*
X26888015Y42281016D01*
X27028025Y42243500D01*
X27028026Y42243500D01*
X27172974Y42243500D01*
X27172975Y42243500D01*
X27312985Y42281016D01*
X27312987Y42281018D01*
X27312989Y42281018D01*
X27438510Y42353488D01*
X27438510Y42353489D01*
X27438515Y42353491D01*
X27541009Y42455985D01*
X27548240Y42468510D01*
X27613482Y42581511D01*
X27613482Y42581513D01*
X27613484Y42581515D01*
X27651000Y42721525D01*
X27651000Y42866475D01*
X27613484Y43006485D01*
X27613482Y43006488D01*
X27613482Y43006490D01*
X27541012Y43132011D01*
X27541010Y43132013D01*
X27541009Y43132015D01*
X27438515Y43234509D01*
X27438512Y43234511D01*
X27438510Y43234513D01*
X27312988Y43306983D01*
X27312989Y43306983D01*
X27283396Y43314913D01*
X27172975Y43344500D01*
X27028025Y43344500D01*
X26966290Y43327959D01*
X26888010Y43306983D01*
X26762489Y43234513D01*
X26659987Y43132011D01*
X26587517Y43006490D01*
X26561137Y42908037D01*
X26550000Y42866475D01*
X25063304Y42866475D01*
X23659202Y44270342D01*
X23631420Y44324856D01*
X23630200Y44340351D01*
X23630200Y46538727D01*
X23630202Y46569444D01*
X23630204Y46599861D01*
X23630202Y46599867D01*
X23630200Y46599887D01*
X23630200Y46599892D01*
X23610109Y46674875D01*
X23596451Y46725859D01*
X23596122Y46727166D01*
X23595498Y46728214D01*
X23559536Y46790504D01*
X23559533Y46790509D01*
X23530220Y46841288D01*
X23530200Y46841314D01*
X23482182Y46889333D01*
X23482177Y46889337D01*
X22282699Y48088965D01*
X22219197Y48152475D01*
X24699500Y48152475D01*
X24699500Y48007526D01*
X24737017Y47867511D01*
X24809487Y47741990D01*
X24809489Y47741988D01*
X24809491Y47741985D01*
X24870505Y47680971D01*
X24898281Y47626456D01*
X24899500Y47610969D01*
X24899500Y47418857D01*
X24914521Y47362794D01*
X24923384Y47329716D01*
X24923385Y47329714D01*
X24923386Y47329712D01*
X24969530Y47249788D01*
X25220148Y46999170D01*
X25465008Y46754310D01*
X25465347Y46753924D01*
X25502377Y46716941D01*
X25502406Y46716883D01*
X25502421Y46716897D01*
X25502422Y46716896D01*
X25534788Y46684530D01*
X25534790Y46684529D01*
X25539226Y46680093D01*
X25539585Y46679779D01*
X25650059Y46569444D01*
X25677871Y46514945D01*
X25679100Y46499396D01*
X25679100Y46413525D01*
X25713350Y46285702D01*
X25716616Y46273515D01*
X25716617Y46273512D01*
X25789087Y46147990D01*
X25789089Y46147988D01*
X25789091Y46147985D01*
X25891585Y46045491D01*
X25891587Y46045490D01*
X25891589Y46045488D01*
X26017111Y45973018D01*
X26017112Y45973018D01*
X26017115Y45973016D01*
X26157125Y45935500D01*
X26157126Y45935500D01*
X26302074Y45935500D01*
X26302075Y45935500D01*
X26442085Y45973016D01*
X26442087Y45973018D01*
X26442089Y45973018D01*
X26567610Y46045488D01*
X26567610Y46045489D01*
X26567615Y46045491D01*
X26670109Y46147985D01*
X26742584Y46273515D01*
X26780100Y46413525D01*
X26780100Y46558475D01*
X26742584Y46698485D01*
X26742582Y46698488D01*
X26742582Y46698490D01*
X26670112Y46824011D01*
X26670110Y46824013D01*
X26670109Y46824015D01*
X26567615Y46926509D01*
X26567612Y46926511D01*
X26567610Y46926513D01*
X26442088Y46998983D01*
X26442089Y46998983D01*
X26393565Y47011985D01*
X26302075Y47036500D01*
X26302074Y47036500D01*
X26215374Y47036500D01*
X26157183Y47055407D01*
X26145414Y47065453D01*
X25997885Y47212797D01*
X25997855Y47212854D01*
X25997842Y47212840D01*
X25649606Y47561076D01*
X25621829Y47615593D01*
X25631400Y47676025D01*
X25649604Y47701081D01*
X25690509Y47741985D01*
X25690512Y47741990D01*
X25762982Y47867511D01*
X25762982Y47867513D01*
X25762984Y47867515D01*
X25800500Y48007525D01*
X25800500Y48152475D01*
X25787370Y48201475D01*
X26030900Y48201475D01*
X26030900Y48056525D01*
X26054945Y47966790D01*
X26068417Y47916511D01*
X26140887Y47790990D01*
X26140889Y47790988D01*
X26140891Y47790985D01*
X26243385Y47688491D01*
X26243387Y47688490D01*
X26243389Y47688488D01*
X26368911Y47616018D01*
X26368912Y47616018D01*
X26368915Y47616016D01*
X26508925Y47578500D01*
X26508926Y47578500D01*
X26653874Y47578500D01*
X26653875Y47578500D01*
X26793885Y47616016D01*
X26793887Y47616018D01*
X26793889Y47616018D01*
X26919410Y47688488D01*
X26919410Y47688489D01*
X26919415Y47688491D01*
X27021909Y47790985D01*
X27032007Y47808475D01*
X28658000Y47808475D01*
X28658000Y47663525D01*
X28680783Y47578500D01*
X28695517Y47523511D01*
X28767987Y47397990D01*
X28767989Y47397988D01*
X28767991Y47397985D01*
X28870485Y47295491D01*
X28870487Y47295490D01*
X28870489Y47295488D01*
X28996011Y47223018D01*
X28996012Y47223018D01*
X28996015Y47223016D01*
X29136025Y47185500D01*
X29136026Y47185500D01*
X29280976Y47185500D01*
X29280976Y47185501D01*
X29287681Y47187298D01*
X29292228Y47188515D01*
X29353329Y47185314D01*
X29377146Y47172168D01*
X29609796Y46998159D01*
X29645070Y46948168D01*
X29649500Y46918883D01*
X29649500Y42115177D01*
X29630593Y42056986D01*
X29581095Y42021024D01*
X29580117Y42020706D01*
X29577553Y42019873D01*
X29423214Y41941234D01*
X29283073Y41839415D01*
X29160585Y41716927D01*
X29058766Y41576786D01*
X28980125Y41422442D01*
X28980123Y41422439D01*
X28926598Y41257707D01*
X28926597Y41257703D01*
X28899500Y41086615D01*
X28899500Y40913386D01*
X28926597Y40742298D01*
X28926598Y40742294D01*
X28980123Y40577562D01*
X28980125Y40577559D01*
X29040284Y40459488D01*
X29058768Y40423212D01*
X29160586Y40283072D01*
X29283072Y40160586D01*
X29423212Y40058768D01*
X29577555Y39980127D01*
X29577557Y39980127D01*
X29577558Y39980126D01*
X29577561Y39980124D01*
X29742293Y39926599D01*
X29742297Y39926598D01*
X29913386Y39899500D01*
X29913389Y39899500D01*
X30086614Y39899500D01*
X30257702Y39926598D01*
X30257706Y39926599D01*
X30422438Y39980124D01*
X30422440Y39980126D01*
X30422445Y39980127D01*
X30576788Y40058768D01*
X30716928Y40160586D01*
X30839414Y40283072D01*
X30941232Y40423212D01*
X31019873Y40577555D01*
X31019874Y40577560D01*
X31019876Y40577562D01*
X31073401Y40742294D01*
X31073402Y40742298D01*
X31100500Y40913386D01*
X31100500Y41086615D01*
X31073402Y41257703D01*
X31073401Y41257707D01*
X31019876Y41422439D01*
X31019874Y41422442D01*
X31019873Y41422443D01*
X31019873Y41422445D01*
X30941232Y41576788D01*
X30839414Y41716928D01*
X30716928Y41839414D01*
X30576788Y41941232D01*
X30576787Y41941233D01*
X30576785Y41941234D01*
X30422446Y42019873D01*
X30420437Y42020526D01*
X30418904Y42021024D01*
X30369406Y42056989D01*
X30350500Y42115177D01*
X30350500Y47117321D01*
X30351195Y47129032D01*
X30352205Y47137511D01*
X30353497Y47148353D01*
X30353495Y47148361D01*
X30353417Y47154847D01*
X30356058Y47154880D01*
X30364562Y47204123D01*
X30408425Y47246781D01*
X30468984Y47255510D01*
X30518872Y47231080D01*
X32157238Y45735802D01*
X32187473Y45682610D01*
X32189500Y45662679D01*
X32189500Y42115177D01*
X32170593Y42056986D01*
X32121095Y42021024D01*
X32120117Y42020706D01*
X32117553Y42019873D01*
X31963214Y41941234D01*
X31823073Y41839415D01*
X31700585Y41716927D01*
X31598766Y41576786D01*
X31520125Y41422442D01*
X31520123Y41422439D01*
X31466598Y41257707D01*
X31466597Y41257703D01*
X31439500Y41086615D01*
X31439500Y40913386D01*
X31466597Y40742298D01*
X31466598Y40742294D01*
X31520123Y40577562D01*
X31520125Y40577559D01*
X31580284Y40459488D01*
X31598768Y40423212D01*
X31700586Y40283072D01*
X31823072Y40160586D01*
X31963212Y40058768D01*
X32117555Y39980127D01*
X32117557Y39980127D01*
X32117558Y39980126D01*
X32117561Y39980124D01*
X32282293Y39926599D01*
X32282297Y39926598D01*
X32453386Y39899500D01*
X32453389Y39899500D01*
X32626614Y39899500D01*
X32797702Y39926598D01*
X32797706Y39926599D01*
X32962438Y39980124D01*
X32962440Y39980126D01*
X32962445Y39980127D01*
X33116788Y40058768D01*
X33256928Y40160586D01*
X33379414Y40283072D01*
X33481232Y40423212D01*
X33559873Y40577555D01*
X33559874Y40577560D01*
X33559876Y40577562D01*
X33613401Y40742294D01*
X33613402Y40742298D01*
X33640500Y40913386D01*
X33640500Y41086615D01*
X33613402Y41257703D01*
X33613401Y41257707D01*
X33559876Y41422439D01*
X33559874Y41422442D01*
X33559873Y41422443D01*
X33559873Y41422445D01*
X33481232Y41576788D01*
X33379414Y41716928D01*
X33256928Y41839414D01*
X33116788Y41941232D01*
X33116787Y41941233D01*
X33116785Y41941234D01*
X32962446Y42019873D01*
X32960437Y42020526D01*
X32958904Y42021024D01*
X32909406Y42056989D01*
X32890500Y42115177D01*
X32890500Y45812224D01*
X32891822Y45824412D01*
X32891687Y45824423D01*
X32892238Y45830884D01*
X32892240Y45830892D01*
X32890603Y45866740D01*
X32890500Y45871256D01*
X32890500Y45907141D01*
X32889652Y45913580D01*
X32889789Y45913599D01*
X32889306Y45916720D01*
X32889169Y45916695D01*
X32888030Y45923077D01*
X32888030Y45923083D01*
X32877171Y45957287D01*
X32875903Y45961620D01*
X32866614Y45996288D01*
X32866613Y45996290D01*
X32864131Y46002281D01*
X32864258Y46002334D01*
X32862982Y46005227D01*
X32862858Y46005168D01*
X32860105Y46011041D01*
X32860103Y46011044D01*
X32860103Y46011045D01*
X32840747Y46041295D01*
X32838416Y46045127D01*
X32820469Y46076212D01*
X32820468Y46076213D01*
X32816520Y46081358D01*
X32816628Y46081441D01*
X32814646Y46083906D01*
X32814543Y46083818D01*
X32810358Y46088786D01*
X32783842Y46112986D01*
X32780578Y46116104D01*
X32755214Y46141467D01*
X32755212Y46141469D01*
X32755209Y46141471D01*
X32750064Y46145419D01*
X32750146Y46145527D01*
X32740257Y46152764D01*
X30832762Y47893666D01*
X30802527Y47946859D01*
X30800500Y47966790D01*
X30800500Y48023475D01*
X30786959Y48074011D01*
X30762984Y48163485D01*
X30762982Y48163488D01*
X30762982Y48163490D01*
X30690512Y48289011D01*
X30690510Y48289013D01*
X30690509Y48289015D01*
X30588015Y48391509D01*
X30588012Y48391511D01*
X30588010Y48391513D01*
X30462488Y48463983D01*
X30462489Y48463983D01*
X30348147Y48494621D01*
X30322475Y48501500D01*
X30177525Y48501500D01*
X30151853Y48494621D01*
X30037510Y48463983D01*
X29911989Y48391513D01*
X29809489Y48289013D01*
X29736563Y48162703D01*
X29691093Y48121763D01*
X29630243Y48115368D01*
X29580825Y48142199D01*
X29546515Y48176509D01*
X29546512Y48176511D01*
X29546510Y48176513D01*
X29420988Y48248983D01*
X29420989Y48248983D01*
X29391396Y48256913D01*
X29280975Y48286500D01*
X29136025Y48286500D01*
X29074290Y48269959D01*
X28996010Y48248983D01*
X28870489Y48176513D01*
X28767987Y48074011D01*
X28695517Y47948490D01*
X28658000Y47808475D01*
X27032007Y47808475D01*
X27064333Y47864464D01*
X27094382Y47916511D01*
X27094382Y47916513D01*
X27094384Y47916515D01*
X27131900Y48056525D01*
X27131900Y48201475D01*
X27094384Y48341485D01*
X27094382Y48341488D01*
X27094382Y48341490D01*
X27021912Y48467011D01*
X27021910Y48467013D01*
X27021909Y48467015D01*
X26919415Y48569509D01*
X26919412Y48569511D01*
X26919410Y48569513D01*
X26793888Y48641983D01*
X26793889Y48641983D01*
X26760054Y48651049D01*
X26653875Y48679500D01*
X26508925Y48679500D01*
X26447190Y48662959D01*
X26368910Y48641983D01*
X26243389Y48569513D01*
X26140887Y48467011D01*
X26068417Y48341490D01*
X26043630Y48248984D01*
X26030900Y48201475D01*
X25787370Y48201475D01*
X25762984Y48292485D01*
X25762982Y48292488D01*
X25762982Y48292490D01*
X25690512Y48418011D01*
X25690510Y48418013D01*
X25690509Y48418015D01*
X25588015Y48520509D01*
X25588012Y48520511D01*
X25588010Y48520513D01*
X25462488Y48592983D01*
X25462489Y48592983D01*
X25432896Y48600913D01*
X25322475Y48630500D01*
X25177525Y48630500D01*
X25115790Y48613959D01*
X25037510Y48592983D01*
X24911989Y48520513D01*
X24809487Y48418011D01*
X24737017Y48292490D01*
X24699500Y48152475D01*
X22219197Y48152475D01*
X21262492Y49109300D01*
X21234718Y49163818D01*
X21233500Y49179299D01*
X21233500Y50726475D01*
X24199500Y50726475D01*
X24199500Y50581526D01*
X24237017Y50441511D01*
X24309487Y50315990D01*
X24309489Y50315988D01*
X24309491Y50315985D01*
X24411985Y50213491D01*
X24411987Y50213490D01*
X24411989Y50213488D01*
X24537511Y50141018D01*
X24537512Y50141018D01*
X24537515Y50141016D01*
X24677525Y50103500D01*
X24677526Y50103500D01*
X24822474Y50103500D01*
X24822475Y50103500D01*
X24962485Y50141016D01*
X24962487Y50141018D01*
X24962489Y50141018D01*
X25088010Y50213488D01*
X25088010Y50213489D01*
X25088015Y50213491D01*
X25190509Y50315985D01*
X25195440Y50324526D01*
X25262982Y50441511D01*
X25262982Y50441513D01*
X25262984Y50441515D01*
X25300500Y50581525D01*
X25300500Y50726475D01*
X25262984Y50866485D01*
X25262982Y50866488D01*
X25262982Y50866490D01*
X25190512Y50992011D01*
X25190510Y50992013D01*
X25190509Y50992015D01*
X25088015Y51094509D01*
X25088012Y51094511D01*
X25088010Y51094513D01*
X24962488Y51166983D01*
X24962489Y51166983D01*
X24932896Y51174913D01*
X24822475Y51204500D01*
X24677525Y51204500D01*
X24615790Y51187959D01*
X24537510Y51166983D01*
X24411989Y51094513D01*
X24309487Y50992011D01*
X24237017Y50866490D01*
X24199500Y50726475D01*
X21233500Y50726475D01*
X21233500Y56328475D01*
X32316600Y56328475D01*
X32316600Y56183526D01*
X32354117Y56043511D01*
X32426587Y55917990D01*
X32426589Y55917988D01*
X32426591Y55917985D01*
X32487605Y55856971D01*
X32515381Y55802456D01*
X32516600Y55786969D01*
X32516600Y52018856D01*
X32540486Y51929712D01*
X32586630Y51849788D01*
X32942380Y51494038D01*
X33294907Y51141511D01*
X33322684Y51086994D01*
X33313113Y51026562D01*
X33310640Y51022007D01*
X33237016Y50894487D01*
X33229513Y50866485D01*
X33199500Y50754475D01*
X33199500Y50609525D01*
X33207003Y50581525D01*
X33237017Y50469511D01*
X33309487Y50343990D01*
X33309489Y50343988D01*
X33309491Y50343985D01*
X33370505Y50282971D01*
X33398281Y50228456D01*
X33399500Y50212969D01*
X33399500Y50135856D01*
X33423386Y50046712D01*
X33469530Y49966788D01*
X33870505Y49565813D01*
X33898281Y49511298D01*
X33899500Y49495811D01*
X33899500Y43510503D01*
X33899497Y43469870D01*
X33899498Y43469865D01*
X33911247Y43426016D01*
X33911245Y43426016D01*
X33911248Y43426011D01*
X33923379Y43380726D01*
X33923384Y43380717D01*
X33923386Y43380712D01*
X33945464Y43342473D01*
X33945466Y43342467D01*
X33969518Y43300802D01*
X33969529Y43300791D01*
X33969531Y43300788D01*
X33985819Y43284500D01*
X33998953Y43271366D01*
X33998952Y43271366D01*
X33998956Y43271363D01*
X35008192Y42261990D01*
X35035966Y42207471D01*
X35026391Y42147040D01*
X34983123Y42103778D01*
X34953671Y42094210D01*
X34822298Y42073403D01*
X34822293Y42073402D01*
X34657561Y42019877D01*
X34657558Y42019875D01*
X34503214Y41941234D01*
X34363073Y41839415D01*
X34240585Y41716927D01*
X34138766Y41576786D01*
X34060125Y41422442D01*
X34060123Y41422439D01*
X34006598Y41257707D01*
X34006597Y41257703D01*
X33979500Y41086615D01*
X33979500Y40913386D01*
X34006597Y40742298D01*
X34006598Y40742294D01*
X34060123Y40577562D01*
X34060125Y40577559D01*
X34120284Y40459488D01*
X34138768Y40423212D01*
X34240586Y40283072D01*
X34363072Y40160586D01*
X34503212Y40058768D01*
X34657555Y39980127D01*
X34657557Y39980127D01*
X34657558Y39980126D01*
X34657561Y39980124D01*
X34822293Y39926599D01*
X34822297Y39926598D01*
X34993386Y39899500D01*
X34993389Y39899500D01*
X35166614Y39899500D01*
X35337702Y39926598D01*
X35337706Y39926599D01*
X35502438Y39980124D01*
X35502440Y39980126D01*
X35502445Y39980127D01*
X35656788Y40058768D01*
X35796928Y40160586D01*
X35919414Y40283072D01*
X36021232Y40423212D01*
X36099873Y40577555D01*
X36147262Y40723405D01*
X36164605Y40747275D01*
X44999500Y40747275D01*
X44999500Y40602325D01*
X45006136Y40577559D01*
X45037017Y40462311D01*
X45109487Y40336790D01*
X45109489Y40336788D01*
X45109491Y40336785D01*
X45211985Y40234291D01*
X45211987Y40234290D01*
X45211989Y40234288D01*
X45337511Y40161818D01*
X45337512Y40161818D01*
X45337515Y40161816D01*
X45477525Y40124300D01*
X45477526Y40124300D01*
X45622474Y40124300D01*
X45622475Y40124300D01*
X45762485Y40161816D01*
X45762487Y40161818D01*
X45762489Y40161818D01*
X45888010Y40234288D01*
X45888010Y40234289D01*
X45888015Y40234291D01*
X45990509Y40336785D01*
X46012010Y40374028D01*
X46057479Y40414969D01*
X46118330Y40421365D01*
X46147247Y40410264D01*
X46187511Y40387018D01*
X46187512Y40387018D01*
X46187515Y40387016D01*
X46327525Y40349500D01*
X46327526Y40349500D01*
X46472474Y40349500D01*
X46472475Y40349500D01*
X46612485Y40387016D01*
X46612487Y40387018D01*
X46612489Y40387018D01*
X46738010Y40459488D01*
X46738010Y40459489D01*
X46738015Y40459491D01*
X46840509Y40561985D01*
X46840512Y40561990D01*
X46912982Y40687511D01*
X46912982Y40687513D01*
X46912984Y40687515D01*
X46950500Y40827525D01*
X46950500Y40972475D01*
X47349500Y40972475D01*
X47349500Y40827526D01*
X47387017Y40687511D01*
X47459487Y40561990D01*
X47459489Y40561988D01*
X47459491Y40561985D01*
X47561985Y40459491D01*
X47561987Y40459490D01*
X47561989Y40459488D01*
X47687511Y40387018D01*
X47687512Y40387018D01*
X47687515Y40387016D01*
X47827525Y40349500D01*
X47827526Y40349500D01*
X47972474Y40349500D01*
X47972475Y40349500D01*
X48112485Y40387016D01*
X48112487Y40387018D01*
X48112489Y40387018D01*
X48238010Y40459488D01*
X48238010Y40459489D01*
X48238015Y40459491D01*
X48340509Y40561985D01*
X48340512Y40561990D01*
X48412982Y40687511D01*
X48412982Y40687513D01*
X48412984Y40687515D01*
X48450500Y40827525D01*
X48450500Y40972475D01*
X48412984Y41112485D01*
X48412982Y41112488D01*
X48412982Y41112490D01*
X48340512Y41238011D01*
X48340510Y41238013D01*
X48340509Y41238015D01*
X48238015Y41340509D01*
X48238012Y41340511D01*
X48238010Y41340513D01*
X48112488Y41412983D01*
X48112489Y41412983D01*
X48033650Y41434108D01*
X47972475Y41450500D01*
X47827525Y41450500D01*
X47766357Y41434110D01*
X47687510Y41412983D01*
X47561989Y41340513D01*
X47459487Y41238011D01*
X47387017Y41112490D01*
X47349500Y40972475D01*
X46950500Y40972475D01*
X46912984Y41112485D01*
X46912982Y41112488D01*
X46912982Y41112490D01*
X46840512Y41238011D01*
X46840510Y41238013D01*
X46840509Y41238015D01*
X46738015Y41340509D01*
X46738012Y41340511D01*
X46738010Y41340513D01*
X46612488Y41412983D01*
X46612489Y41412983D01*
X46533650Y41434108D01*
X46472475Y41450500D01*
X46327525Y41450500D01*
X46266357Y41434110D01*
X46187510Y41412983D01*
X46061989Y41340513D01*
X45959489Y41238013D01*
X45937988Y41200772D01*
X45892518Y41159832D01*
X45831668Y41153437D01*
X45802752Y41164536D01*
X45762486Y41187784D01*
X45692480Y41206542D01*
X45622475Y41225300D01*
X45477525Y41225300D01*
X45415790Y41208759D01*
X45337510Y41187783D01*
X45211989Y41115313D01*
X45109487Y41012811D01*
X45037017Y40887290D01*
X45037016Y40887285D01*
X44999500Y40747275D01*
X36164605Y40747275D01*
X36183225Y40772902D01*
X36241416Y40791810D01*
X36267039Y40788437D01*
X36386222Y40756501D01*
X36386224Y40756500D01*
X36386225Y40756500D01*
X36531174Y40756500D01*
X36531175Y40756500D01*
X36671185Y40794016D01*
X36671187Y40794018D01*
X36671189Y40794018D01*
X36749967Y40839500D01*
X36796710Y40866488D01*
X36796710Y40866489D01*
X36796715Y40866491D01*
X36899209Y40968985D01*
X36924512Y41012811D01*
X36971682Y41094511D01*
X36971682Y41094513D01*
X36971684Y41094515D01*
X37009200Y41234525D01*
X37009200Y41379475D01*
X36971684Y41519485D01*
X36971682Y41519488D01*
X36971682Y41519490D01*
X36899212Y41645011D01*
X36899210Y41645013D01*
X36899209Y41645015D01*
X36796715Y41747509D01*
X36796712Y41747511D01*
X36796710Y41747513D01*
X36671188Y41819983D01*
X36671189Y41819983D01*
X36598668Y41839415D01*
X36531175Y41857500D01*
X36531174Y41857500D01*
X36444934Y41857500D01*
X36386743Y41876407D01*
X36374926Y41886501D01*
X34629492Y43632173D01*
X34601718Y43686692D01*
X34600500Y43702172D01*
X34600500Y44011475D01*
X37137000Y44011475D01*
X37137000Y43866526D01*
X37174517Y43726511D01*
X37246987Y43600990D01*
X37246989Y43600988D01*
X37246991Y43600985D01*
X37349485Y43498491D01*
X37349487Y43498490D01*
X37349489Y43498488D01*
X37475011Y43426018D01*
X37475012Y43426018D01*
X37475015Y43426016D01*
X37615025Y43388500D01*
X37615026Y43388500D01*
X37759974Y43388500D01*
X37759975Y43388500D01*
X37899985Y43426016D01*
X37899987Y43426018D01*
X37899989Y43426018D01*
X38025510Y43498488D01*
X38025510Y43498489D01*
X38025515Y43498491D01*
X38031499Y43504475D01*
X40183100Y43504475D01*
X40183100Y43359525D01*
X40197179Y43306983D01*
X40220617Y43219511D01*
X40293087Y43093990D01*
X40293089Y43093988D01*
X40293091Y43093985D01*
X40395585Y42991491D01*
X40395587Y42991490D01*
X40395589Y42991488D01*
X40521111Y42919018D01*
X40521112Y42919018D01*
X40521115Y42919016D01*
X40661125Y42881500D01*
X40661126Y42881500D01*
X40806074Y42881500D01*
X40806075Y42881500D01*
X40946085Y42919016D01*
X40946087Y42919018D01*
X40946089Y42919018D01*
X41071610Y42991488D01*
X41071610Y42991489D01*
X41071615Y42991491D01*
X41174109Y43093985D01*
X41174112Y43093990D01*
X41246582Y43219511D01*
X41246582Y43219513D01*
X41246584Y43219515D01*
X41284100Y43359525D01*
X41284100Y43502475D01*
X42112700Y43502475D01*
X42112700Y43357525D01*
X42116052Y43345016D01*
X42150217Y43217511D01*
X42222687Y43091990D01*
X42222689Y43091988D01*
X42222691Y43091985D01*
X42325185Y42989491D01*
X42325187Y42989490D01*
X42325189Y42989488D01*
X42450711Y42917018D01*
X42450712Y42917018D01*
X42450715Y42917016D01*
X42590725Y42879500D01*
X42590726Y42879500D01*
X42735674Y42879500D01*
X42735675Y42879500D01*
X42875685Y42917016D01*
X42875687Y42917018D01*
X42875689Y42917018D01*
X43001210Y42989488D01*
X43001210Y42989489D01*
X43001215Y42989491D01*
X43103709Y43091985D01*
X43126818Y43132011D01*
X43176182Y43217511D01*
X43176182Y43217513D01*
X43176184Y43217515D01*
X43188265Y43262601D01*
X51199500Y43262601D01*
X51199500Y43137399D01*
X51231905Y43016464D01*
X51294505Y42908036D01*
X51383036Y42819505D01*
X51491464Y42756905D01*
X51612399Y42724500D01*
X51612401Y42724500D01*
X51737599Y42724500D01*
X51737601Y42724500D01*
X51858536Y42756905D01*
X51966964Y42819505D01*
X52055495Y42908036D01*
X52118095Y43016464D01*
X52150500Y43137399D01*
X52150500Y43217609D01*
X52169407Y43275800D01*
X52218907Y43311764D01*
X52275122Y43313235D01*
X52296525Y43307500D01*
X52296527Y43307500D01*
X52441474Y43307500D01*
X52441475Y43307500D01*
X52581485Y43345016D01*
X52581487Y43345018D01*
X52581489Y43345018D01*
X52707010Y43417488D01*
X52707010Y43417489D01*
X52707015Y43417491D01*
X52809509Y43519985D01*
X52830219Y43555855D01*
X52881982Y43645511D01*
X52881982Y43645513D01*
X52881984Y43645515D01*
X52919500Y43785525D01*
X52919500Y43930475D01*
X52881984Y44070485D01*
X52881982Y44070488D01*
X52881982Y44070490D01*
X52809512Y44196011D01*
X52809510Y44196013D01*
X52809509Y44196015D01*
X52707015Y44298509D01*
X52707012Y44298511D01*
X52707010Y44298513D01*
X52581488Y44370983D01*
X52581489Y44370983D01*
X52549655Y44379513D01*
X52441475Y44408500D01*
X52296525Y44408500D01*
X52234790Y44391959D01*
X52156510Y44370983D01*
X52030989Y44298513D01*
X51928487Y44196011D01*
X51856017Y44070490D01*
X51818500Y43930475D01*
X51818500Y43779036D01*
X51816697Y43779036D01*
X51807098Y43727258D01*
X51762714Y43685142D01*
X51720097Y43675500D01*
X51612399Y43675500D01*
X51531775Y43653897D01*
X51491463Y43643095D01*
X51383036Y43580495D01*
X51294505Y43491964D01*
X51231905Y43383537D01*
X51224935Y43357525D01*
X51199500Y43262601D01*
X43188265Y43262601D01*
X43213700Y43357525D01*
X43213700Y43502475D01*
X43176184Y43642485D01*
X43176182Y43642488D01*
X43176182Y43642490D01*
X43103712Y43768011D01*
X43103710Y43768013D01*
X43103709Y43768015D01*
X43001215Y43870509D01*
X43001212Y43870511D01*
X43001210Y43870513D01*
X42875688Y43942983D01*
X42875689Y43942983D01*
X42817305Y43958627D01*
X42735675Y43980500D01*
X42590725Y43980500D01*
X42528990Y43963959D01*
X42450710Y43942983D01*
X42325189Y43870513D01*
X42222687Y43768011D01*
X42150217Y43642490D01*
X42127004Y43555858D01*
X42112700Y43502475D01*
X41284100Y43502475D01*
X41284100Y43504475D01*
X41246584Y43644485D01*
X41246582Y43644488D01*
X41246582Y43644490D01*
X41174112Y43770011D01*
X41174110Y43770013D01*
X41174109Y43770015D01*
X41071615Y43872509D01*
X41071612Y43872511D01*
X41071610Y43872513D01*
X40946088Y43944983D01*
X40946089Y43944983D01*
X40895169Y43958627D01*
X40806075Y43982500D01*
X40661125Y43982500D01*
X40599390Y43965959D01*
X40521110Y43944983D01*
X40395589Y43872513D01*
X40293087Y43770011D01*
X40220617Y43644490D01*
X40208960Y43600985D01*
X40183100Y43504475D01*
X38031499Y43504475D01*
X38128009Y43600985D01*
X38200484Y43726515D01*
X38200485Y43726521D01*
X38202967Y43732511D01*
X38204132Y43732029D01*
X38225703Y43769400D01*
X40345714Y45889500D01*
X40380058Y45923845D01*
X40382826Y45926322D01*
X40383825Y45927400D01*
X40385535Y45930167D01*
X40386042Y45930938D01*
X40387439Y45933814D01*
X40425925Y46000475D01*
X40448234Y46039116D01*
X40449884Y46041773D01*
X40449891Y46041789D01*
X40450601Y46044829D01*
X40474887Y46135472D01*
X40483733Y46168487D01*
X40483897Y46169079D01*
X40483901Y46169110D01*
X40483900Y46169116D01*
X40483902Y46169119D01*
X40483900Y46273515D01*
X40483900Y46442475D01*
X41349500Y46442475D01*
X41349500Y46297525D01*
X41379087Y46187104D01*
X41387017Y46157511D01*
X41459487Y46031990D01*
X41459489Y46031988D01*
X41459491Y46031985D01*
X41561985Y45929491D01*
X41561987Y45929490D01*
X41561989Y45929488D01*
X41687511Y45857018D01*
X41687512Y45857018D01*
X41687515Y45857016D01*
X41827525Y45819500D01*
X41827526Y45819500D01*
X41972474Y45819500D01*
X41972475Y45819500D01*
X42112485Y45857016D01*
X42112487Y45857018D01*
X42112489Y45857018D01*
X42238010Y45929488D01*
X42238010Y45929489D01*
X42238015Y45929491D01*
X42340509Y46031985D01*
X42388155Y46114510D01*
X42412982Y46157511D01*
X42412982Y46157513D01*
X42412984Y46157515D01*
X42450500Y46297525D01*
X42450500Y46442475D01*
X48849500Y46442475D01*
X48849500Y46297525D01*
X48879087Y46187104D01*
X48887017Y46157511D01*
X48959487Y46031990D01*
X48959489Y46031988D01*
X48959491Y46031985D01*
X49061985Y45929491D01*
X49061987Y45929490D01*
X49061989Y45929488D01*
X49187511Y45857018D01*
X49187512Y45857018D01*
X49187515Y45857016D01*
X49327525Y45819500D01*
X49327526Y45819500D01*
X49472474Y45819500D01*
X49472475Y45819500D01*
X49612485Y45857016D01*
X49612487Y45857018D01*
X49612489Y45857018D01*
X49738010Y45929488D01*
X49738010Y45929489D01*
X49738015Y45929491D01*
X49840509Y46031985D01*
X49888155Y46114510D01*
X49912982Y46157511D01*
X49912982Y46157513D01*
X49912984Y46157515D01*
X49950500Y46297525D01*
X49950500Y46442475D01*
X49931743Y46512475D01*
X50419500Y46512475D01*
X50419500Y46367525D01*
X50438256Y46297526D01*
X50457017Y46227511D01*
X50529487Y46101990D01*
X50529489Y46101988D01*
X50529491Y46101985D01*
X50631985Y45999491D01*
X50631987Y45999490D01*
X50631989Y45999488D01*
X50757511Y45927018D01*
X50757512Y45927018D01*
X50757515Y45927016D01*
X50897525Y45889500D01*
X50897526Y45889500D01*
X51042474Y45889500D01*
X51042475Y45889500D01*
X51182485Y45927016D01*
X51182487Y45927018D01*
X51182489Y45927018D01*
X51308010Y45999488D01*
X51308010Y45999489D01*
X51308015Y45999491D01*
X51410509Y46101985D01*
X51410512Y46101990D01*
X51482982Y46227511D01*
X51482982Y46227513D01*
X51482984Y46227515D01*
X51520500Y46367525D01*
X51520500Y46512475D01*
X51482984Y46652485D01*
X51482982Y46652488D01*
X51482982Y46652490D01*
X51410512Y46778011D01*
X51410510Y46778013D01*
X51410509Y46778015D01*
X51308015Y46880509D01*
X51308012Y46880511D01*
X51308010Y46880513D01*
X51182488Y46952983D01*
X51182489Y46952983D01*
X51113618Y46971437D01*
X51042475Y46990500D01*
X50897525Y46990500D01*
X50835790Y46973959D01*
X50757510Y46952983D01*
X50631989Y46880513D01*
X50529487Y46778011D01*
X50457017Y46652490D01*
X50442919Y46599876D01*
X50419500Y46512475D01*
X49931743Y46512475D01*
X49912984Y46582485D01*
X49912982Y46582488D01*
X49912982Y46582490D01*
X49840512Y46708011D01*
X49840510Y46708013D01*
X49840509Y46708015D01*
X49738015Y46810509D01*
X49738012Y46810511D01*
X49738010Y46810513D01*
X49612488Y46882983D01*
X49612489Y46882983D01*
X49582896Y46890913D01*
X49472475Y46920500D01*
X49327525Y46920500D01*
X49286428Y46909488D01*
X49187510Y46882983D01*
X49061989Y46810513D01*
X48959487Y46708011D01*
X48887017Y46582490D01*
X48864752Y46499396D01*
X48849500Y46442475D01*
X42450500Y46442475D01*
X42412984Y46582485D01*
X42412982Y46582488D01*
X42412982Y46582490D01*
X42340512Y46708011D01*
X42340510Y46708013D01*
X42340509Y46708015D01*
X42238015Y46810509D01*
X42238012Y46810511D01*
X42238010Y46810513D01*
X42112488Y46882983D01*
X42112489Y46882983D01*
X42082896Y46890913D01*
X41972475Y46920500D01*
X41827525Y46920500D01*
X41786428Y46909488D01*
X41687510Y46882983D01*
X41561989Y46810513D01*
X41459487Y46708011D01*
X41387017Y46582490D01*
X41364752Y46499396D01*
X41349500Y46442475D01*
X40483900Y46442475D01*
X40483900Y57957908D01*
X40502807Y58016099D01*
X40552307Y58052063D01*
X40608522Y58053534D01*
X40675825Y58035500D01*
X40820774Y58035500D01*
X40820775Y58035500D01*
X40960785Y58073016D01*
X40960787Y58073018D01*
X40960789Y58073018D01*
X41086310Y58145488D01*
X41086310Y58145489D01*
X41086315Y58145491D01*
X41188809Y58247985D01*
X41188812Y58247990D01*
X41261282Y58373511D01*
X41261282Y58373513D01*
X41261284Y58373515D01*
X41298800Y58513525D01*
X41298800Y58658475D01*
X41261284Y58798485D01*
X41261282Y58798488D01*
X41261282Y58798490D01*
X41188812Y58924011D01*
X41188810Y58924013D01*
X41188809Y58924015D01*
X41086315Y59026509D01*
X41086312Y59026511D01*
X41086310Y59026513D01*
X40960788Y59098983D01*
X40960789Y59098983D01*
X40876128Y59121668D01*
X40820775Y59136500D01*
X40675825Y59136500D01*
X40608522Y59118467D01*
X40547422Y59121668D01*
X40499872Y59160173D01*
X40483900Y59214093D01*
X40483900Y62562479D01*
X40502807Y62620670D01*
X40512896Y62632483D01*
X40998528Y63118115D01*
X41509770Y63629358D01*
X41554146Y63654978D01*
X41679685Y63688616D01*
X41679687Y63688618D01*
X41679689Y63688618D01*
X41805210Y63761088D01*
X41805210Y63761089D01*
X41805215Y63761091D01*
X41907709Y63863585D01*
X41916970Y63879626D01*
X41980182Y63989111D01*
X41980182Y63989113D01*
X41980184Y63989115D01*
X42017700Y64129125D01*
X42017700Y64274075D01*
X41980184Y64414085D01*
X41980182Y64414088D01*
X41980182Y64414090D01*
X41907712Y64539611D01*
X41907710Y64539613D01*
X41907709Y64539615D01*
X41805215Y64642109D01*
X41805212Y64642111D01*
X41805210Y64642113D01*
X41679688Y64714583D01*
X41679689Y64714583D01*
X41650096Y64722513D01*
X41539675Y64752100D01*
X41394725Y64752100D01*
X41332990Y64735559D01*
X41254710Y64714583D01*
X41129186Y64642111D01*
X41129182Y64642108D01*
X41128828Y64641753D01*
X41108341Y64626036D01*
X41066890Y64602104D01*
X41066885Y64602100D01*
X40973699Y64508915D01*
X40973700Y64508914D01*
X40973698Y64508912D01*
X39676086Y63211301D01*
X39676086Y63211300D01*
X39676085Y63211301D01*
X39582900Y63118115D01*
X39582896Y63118110D01*
X39517009Y63003991D01*
X39482900Y62876691D01*
X39482900Y46483314D01*
X39463993Y46425123D01*
X39453905Y46413312D01*
X37517879Y44477203D01*
X37480526Y44455633D01*
X37481009Y44454467D01*
X37475011Y44451983D01*
X37349489Y44379513D01*
X37246987Y44277011D01*
X37174517Y44151490D01*
X37137000Y44011475D01*
X34600500Y44011475D01*
X34600500Y49728143D01*
X34591006Y49763575D01*
X34576614Y49817288D01*
X34543005Y49875500D01*
X34530470Y49897212D01*
X34368692Y50058990D01*
X34205128Y50222555D01*
X34177351Y50277071D01*
X34186922Y50337503D01*
X34189396Y50342059D01*
X34190506Y50343983D01*
X34190509Y50343985D01*
X34262984Y50469515D01*
X34300500Y50609525D01*
X34300500Y50754475D01*
X34262984Y50894485D01*
X34262982Y50894488D01*
X34262982Y50894490D01*
X34190512Y51020011D01*
X34190508Y51020016D01*
X34129496Y51081029D01*
X34101719Y51135546D01*
X34100500Y51151032D01*
X34100500Y51228243D01*
X34100500Y51228244D01*
X34076614Y51317388D01*
X34065101Y51337329D01*
X34030470Y51397312D01*
X33246596Y52181186D01*
X33218819Y52235703D01*
X33217600Y52251190D01*
X33217600Y55786969D01*
X33236507Y55845160D01*
X33246590Y55856967D01*
X33307609Y55917985D01*
X33380084Y56043515D01*
X33417600Y56183525D01*
X33417600Y56328475D01*
X33414385Y56340475D01*
X35874500Y56340475D01*
X35874500Y56195525D01*
X35878526Y56180500D01*
X35912017Y56055511D01*
X35984487Y55929990D01*
X35984489Y55929988D01*
X35984491Y55929985D01*
X36086985Y55827491D01*
X36086987Y55827490D01*
X36086989Y55827488D01*
X36212511Y55755018D01*
X36212512Y55755018D01*
X36212515Y55755016D01*
X36352525Y55717500D01*
X36352526Y55717500D01*
X36497474Y55717500D01*
X36497475Y55717500D01*
X36637485Y55755016D01*
X36637487Y55755018D01*
X36637489Y55755018D01*
X36763010Y55827488D01*
X36763010Y55827489D01*
X36763015Y55827491D01*
X36865509Y55929985D01*
X36915031Y56015759D01*
X36937982Y56055511D01*
X36937982Y56055513D01*
X36937984Y56055515D01*
X36975500Y56195525D01*
X36975500Y56340475D01*
X36937984Y56480485D01*
X36937982Y56480488D01*
X36937982Y56480490D01*
X36865512Y56606011D01*
X36865510Y56606013D01*
X36865509Y56606015D01*
X36763015Y56708509D01*
X36763012Y56708511D01*
X36763010Y56708513D01*
X36637488Y56780983D01*
X36637489Y56780983D01*
X36553548Y56803475D01*
X36497475Y56818500D01*
X36352525Y56818500D01*
X36307741Y56806500D01*
X36212510Y56780983D01*
X36086989Y56708513D01*
X35984487Y56606011D01*
X35912017Y56480490D01*
X35888570Y56392985D01*
X35874500Y56340475D01*
X33414385Y56340475D01*
X33380084Y56468485D01*
X33380082Y56468488D01*
X33380082Y56468490D01*
X33307612Y56594011D01*
X33307610Y56594013D01*
X33307609Y56594015D01*
X33205115Y56696509D01*
X33205112Y56696511D01*
X33205110Y56696513D01*
X33079588Y56768983D01*
X33079589Y56768983D01*
X33034801Y56780984D01*
X32939575Y56806500D01*
X32794625Y56806500D01*
X32783336Y56803475D01*
X32654610Y56768983D01*
X32529089Y56696513D01*
X32426587Y56594011D01*
X32354117Y56468490D01*
X32316600Y56328475D01*
X21233500Y56328475D01*
X21233500Y60785975D01*
X29250500Y60785975D01*
X29250500Y60641026D01*
X29288017Y60501011D01*
X29360487Y60375490D01*
X29360489Y60375488D01*
X29360491Y60375485D01*
X29462985Y60272991D01*
X29462987Y60272990D01*
X29462989Y60272988D01*
X29588511Y60200518D01*
X29588512Y60200518D01*
X29588515Y60200516D01*
X29728525Y60163000D01*
X29728526Y60163000D01*
X29873474Y60163000D01*
X29873475Y60163000D01*
X30013485Y60200516D01*
X30013487Y60200518D01*
X30013489Y60200518D01*
X30139010Y60272988D01*
X30139010Y60272989D01*
X30139015Y60272991D01*
X30241509Y60375485D01*
X30313984Y60501015D01*
X30351500Y60641025D01*
X30351500Y60785975D01*
X30313984Y60925985D01*
X30313982Y60925988D01*
X30313982Y60925990D01*
X30241512Y61051511D01*
X30241510Y61051513D01*
X30241509Y61051515D01*
X30139015Y61154009D01*
X30139012Y61154011D01*
X30139010Y61154013D01*
X30013488Y61226483D01*
X30013489Y61226483D01*
X29983896Y61234413D01*
X29873475Y61264000D01*
X29728525Y61264000D01*
X29666790Y61247459D01*
X29588510Y61226483D01*
X29462989Y61154013D01*
X29360487Y61051511D01*
X29288017Y60925990D01*
X29250500Y60785975D01*
X21233500Y60785975D01*
X21233500Y63207166D01*
X21244666Y63248837D01*
X21243500Y63249320D01*
X21245977Y63255304D01*
X21245984Y63255315D01*
X21283500Y63395325D01*
X21283500Y63540275D01*
X21245984Y63680285D01*
X21245982Y63680288D01*
X21245982Y63680290D01*
X21173512Y63805811D01*
X21173510Y63805813D01*
X21173509Y63805815D01*
X21071015Y63908309D01*
X21071012Y63908311D01*
X21071010Y63908313D01*
X20945488Y63980783D01*
X20945489Y63980783D01*
X20822903Y64013630D01*
X20805475Y64018300D01*
X20660525Y64018300D01*
X20643097Y64013630D01*
X20520510Y63980783D01*
X20394989Y63908313D01*
X20292487Y63805811D01*
X20220017Y63680290D01*
X20196871Y63593907D01*
X20182500Y63540275D01*
X20182500Y63395325D01*
X20220016Y63255315D01*
X20220018Y63255310D01*
X20222500Y63249320D01*
X20221333Y63248837D01*
X20232500Y63207166D01*
X20232500Y56275814D01*
X20213593Y56217623D01*
X20164093Y56181659D01*
X20102907Y56181659D01*
X20078499Y56193498D01*
X20038939Y56219931D01*
X19987486Y56254311D01*
X19873652Y56301463D01*
X19873650Y56301464D01*
X19752808Y56325500D01*
X19752806Y56325500D01*
X19629594Y56325500D01*
X19629591Y56325500D01*
X19508749Y56301464D01*
X19394914Y56254312D01*
X19292467Y56185858D01*
X19292463Y56185855D01*
X19205345Y56098737D01*
X19205342Y56098733D01*
X19136888Y55996286D01*
X19089736Y55882451D01*
X19065700Y55761609D01*
X17011920Y55761609D01*
X17016482Y55769511D01*
X17016482Y55769513D01*
X17016484Y55769515D01*
X17054000Y55909525D01*
X17054000Y56054475D01*
X17016484Y56194485D01*
X17016482Y56194488D01*
X17016482Y56194490D01*
X16944012Y56320011D01*
X16944010Y56320013D01*
X16944009Y56320015D01*
X16841515Y56422509D01*
X16841512Y56422511D01*
X16841510Y56422513D01*
X16715988Y56494983D01*
X16715989Y56494983D01*
X16600173Y56526016D01*
X16575975Y56532500D01*
X16431025Y56532500D01*
X16406827Y56526016D01*
X16291010Y56494983D01*
X16205700Y56445728D01*
X16145852Y56433006D01*
X16089956Y56457893D01*
X16059363Y56510881D01*
X16057200Y56531464D01*
X16057200Y61649243D01*
X16057200Y61649244D01*
X16033314Y61738388D01*
X16029035Y61745800D01*
X15987170Y61818312D01*
X12768807Y65036675D01*
X26288700Y65036675D01*
X26288700Y64891726D01*
X26326217Y64751711D01*
X26398687Y64626190D01*
X26398689Y64626188D01*
X26398691Y64626185D01*
X26501185Y64523691D01*
X26501187Y64523690D01*
X26501189Y64523688D01*
X26626711Y64451218D01*
X26626712Y64451218D01*
X26626715Y64451216D01*
X26766725Y64413700D01*
X26766726Y64413700D01*
X26911674Y64413700D01*
X26911675Y64413700D01*
X27051685Y64451216D01*
X27051687Y64451218D01*
X27051689Y64451218D01*
X27177210Y64523688D01*
X27177210Y64523689D01*
X27177215Y64523691D01*
X27279709Y64626185D01*
X27330746Y64714583D01*
X27352182Y64751711D01*
X27352182Y64751713D01*
X27352184Y64751715D01*
X27389700Y64891725D01*
X27389700Y65036675D01*
X27352184Y65176685D01*
X27352182Y65176688D01*
X27352182Y65176690D01*
X27279712Y65302211D01*
X27279710Y65302213D01*
X27279709Y65302215D01*
X27177215Y65404709D01*
X27177212Y65404711D01*
X27177210Y65404713D01*
X27051688Y65477183D01*
X27051689Y65477183D01*
X27022096Y65485113D01*
X26911675Y65514700D01*
X26766725Y65514700D01*
X26704990Y65498159D01*
X26626710Y65477183D01*
X26501189Y65404713D01*
X26398687Y65302211D01*
X26326217Y65176690D01*
X26288700Y65036675D01*
X12768807Y65036675D01*
X11474486Y66330996D01*
X11446709Y66385513D01*
X11456280Y66445945D01*
X11499545Y66489210D01*
X11544490Y66500000D01*
X38435449Y66500000D01*
X38493640Y66481093D01*
X38529604Y66431593D01*
X38529604Y66370407D01*
X38521185Y66351500D01*
X38480417Y66280890D01*
X38480416Y66280885D01*
X38442900Y66140875D01*
X38442900Y65995925D01*
X38472487Y65885504D01*
X38480417Y65855911D01*
X38552887Y65730390D01*
X38552889Y65730388D01*
X38552891Y65730385D01*
X38655385Y65627891D01*
X38655387Y65627890D01*
X38655389Y65627888D01*
X38780911Y65555418D01*
X38780912Y65555418D01*
X38780915Y65555416D01*
X38920925Y65517900D01*
X38920926Y65517900D01*
X39065874Y65517900D01*
X39065875Y65517900D01*
X39205885Y65555416D01*
X39205887Y65555418D01*
X39205889Y65555418D01*
X39331410Y65627888D01*
X39331410Y65627889D01*
X39331415Y65627891D01*
X39433909Y65730385D01*
X39433912Y65730390D01*
X39506382Y65855911D01*
X39506382Y65855913D01*
X39506384Y65855915D01*
X39543900Y65995925D01*
X39543900Y66140875D01*
X39506384Y66280885D01*
X39506382Y66280888D01*
X39506382Y66280890D01*
X39465615Y66351500D01*
X39452893Y66411348D01*
X39477779Y66467244D01*
X39530767Y66497837D01*
X39551351Y66500000D01*
X40189210Y66500000D01*
X40247401Y66481093D01*
X40283365Y66431593D01*
X40283365Y66370407D01*
X40274947Y66351500D01*
X40239316Y66289787D01*
X40201800Y66149775D01*
X40201800Y66004826D01*
X40239317Y65864811D01*
X40311787Y65739290D01*
X40311789Y65739288D01*
X40311791Y65739285D01*
X40414285Y65636791D01*
X40414287Y65636790D01*
X40414289Y65636788D01*
X40539811Y65564318D01*
X40539812Y65564318D01*
X40539815Y65564316D01*
X40679825Y65526800D01*
X40679826Y65526800D01*
X40824774Y65526800D01*
X40824775Y65526800D01*
X40964785Y65564316D01*
X40964787Y65564318D01*
X40964789Y65564318D01*
X41090310Y65636788D01*
X41090310Y65636789D01*
X41090315Y65636791D01*
X41192809Y65739285D01*
X41254147Y65845525D01*
X41265282Y65864811D01*
X41265282Y65864813D01*
X41265284Y65864815D01*
X41302800Y66004825D01*
X41302800Y66149775D01*
X41265284Y66289785D01*
X41229653Y66351500D01*
X41216932Y66411349D01*
X41241819Y66467244D01*
X41294807Y66497837D01*
X41315390Y66500000D01*
X50357231Y66500000D01*
X50406731Y66486737D01*
X50457515Y66457416D01*
X50597525Y66419900D01*
X50597526Y66419900D01*
X50720565Y66419900D01*
X50778756Y66400993D01*
X50814720Y66351493D01*
X50814720Y66290307D01*
X50790569Y66250896D01*
X48581079Y64041407D01*
X48526562Y64013630D01*
X48466130Y64023201D01*
X48422865Y64066466D01*
X48415449Y64085787D01*
X48412984Y64094985D01*
X48412982Y64094989D01*
X48340512Y64220511D01*
X48340510Y64220513D01*
X48340509Y64220515D01*
X48238015Y64323009D01*
X48238012Y64323011D01*
X48238010Y64323013D01*
X48112488Y64395483D01*
X48112489Y64395483D01*
X48082896Y64403413D01*
X47972475Y64433000D01*
X47827525Y64433000D01*
X47788339Y64422500D01*
X47687510Y64395483D01*
X47561989Y64323013D01*
X47459487Y64220511D01*
X47387017Y64094990D01*
X47368149Y64024575D01*
X47349500Y63954975D01*
X47349500Y63810025D01*
X47362612Y63761091D01*
X47365551Y63750123D01*
X47362348Y63689022D01*
X47323843Y63641472D01*
X47269924Y63625500D01*
X46862289Y63625500D01*
X46804098Y63644407D01*
X46768134Y63693907D01*
X46766663Y63750124D01*
X46779899Y63799523D01*
X46779900Y63799525D01*
X46779900Y63944475D01*
X46742384Y64084485D01*
X46742382Y64084488D01*
X46742382Y64084490D01*
X46669912Y64210011D01*
X46669910Y64210013D01*
X46669909Y64210015D01*
X46567415Y64312509D01*
X46567412Y64312511D01*
X46567410Y64312513D01*
X46441888Y64384983D01*
X46441889Y64384983D01*
X46402699Y64395484D01*
X46301875Y64422500D01*
X46156925Y64422500D01*
X46095190Y64405959D01*
X46016910Y64384983D01*
X45891389Y64312513D01*
X45788887Y64210011D01*
X45716417Y64084490D01*
X45697430Y64013630D01*
X45678900Y63944475D01*
X45678900Y63799525D01*
X45710849Y63680290D01*
X45718096Y63653247D01*
X45715990Y63652683D01*
X45720028Y63601389D01*
X45688058Y63549220D01*
X45631530Y63525805D01*
X45623763Y63525500D01*
X45507675Y63525500D01*
X45449484Y63544407D01*
X45413520Y63593907D01*
X45412048Y63650123D01*
X45420132Y63680290D01*
X45450500Y63793625D01*
X45450500Y63938575D01*
X45412984Y64078585D01*
X45412982Y64078588D01*
X45412982Y64078590D01*
X45340512Y64204111D01*
X45340510Y64204113D01*
X45340509Y64204115D01*
X45238015Y64306609D01*
X45238012Y64306611D01*
X45238010Y64306613D01*
X45112488Y64379083D01*
X45112489Y64379083D01*
X45082896Y64387013D01*
X44972475Y64416600D01*
X44827525Y64416600D01*
X44765790Y64400059D01*
X44687510Y64379083D01*
X44561989Y64306613D01*
X44459487Y64204111D01*
X44387017Y64078590D01*
X44377054Y64041407D01*
X44349500Y63938575D01*
X44349500Y63793625D01*
X44363972Y63739615D01*
X44387016Y63653614D01*
X44461136Y63525235D01*
X44473857Y63465386D01*
X44448970Y63409491D01*
X44445403Y63405731D01*
X43454169Y62414496D01*
X43399652Y62386719D01*
X43384165Y62385500D01*
X43337399Y62385500D01*
X43256775Y62363897D01*
X43216463Y62353095D01*
X43108036Y62290495D01*
X43019505Y62201964D01*
X42956905Y62093537D01*
X42956905Y62093536D01*
X42924500Y61972601D01*
X42924500Y61972599D01*
X42924500Y61891765D01*
X42905593Y61833574D01*
X42875003Y61806030D01*
X42861283Y61798109D01*
X42758791Y61695616D01*
X42758787Y61695611D01*
X42686317Y61570090D01*
X42675850Y61531027D01*
X42648800Y61430075D01*
X42648800Y61285125D01*
X42664513Y61226484D01*
X42686317Y61145111D01*
X42758787Y61019590D01*
X42758789Y61019588D01*
X42758791Y61019585D01*
X42861285Y60917091D01*
X42861287Y60917090D01*
X42861289Y60917088D01*
X42986811Y60844618D01*
X42986812Y60844618D01*
X42986815Y60844616D01*
X43126825Y60807100D01*
X43126826Y60807100D01*
X43271774Y60807100D01*
X43271775Y60807100D01*
X43411785Y60844616D01*
X43411787Y60844618D01*
X43411789Y60844618D01*
X43537310Y60917088D01*
X43537310Y60917089D01*
X43537315Y60917091D01*
X43639809Y61019585D01*
X43658244Y61051515D01*
X43712282Y61145111D01*
X43712282Y61145113D01*
X43712284Y61145115D01*
X43749800Y61285125D01*
X43749800Y61424175D01*
X48849500Y61424175D01*
X48849500Y61279226D01*
X48887017Y61139211D01*
X48959487Y61013690D01*
X48959489Y61013688D01*
X48959491Y61013685D01*
X49061985Y60911191D01*
X49061987Y60911190D01*
X49061989Y60911188D01*
X49187511Y60838718D01*
X49187512Y60838718D01*
X49187515Y60838716D01*
X49327525Y60801200D01*
X49327526Y60801200D01*
X49472474Y60801200D01*
X49472475Y60801200D01*
X49612485Y60838716D01*
X49612487Y60838718D01*
X49612489Y60838718D01*
X49738010Y60911188D01*
X49738010Y60911189D01*
X49738015Y60911191D01*
X49840509Y61013685D01*
X49912984Y61139215D01*
X49950500Y61279225D01*
X49950500Y61417775D01*
X50349500Y61417775D01*
X50349500Y61272825D01*
X50379087Y61162404D01*
X50387017Y61132811D01*
X50459487Y61007290D01*
X50459489Y61007288D01*
X50459491Y61007285D01*
X50561985Y60904791D01*
X50561987Y60904790D01*
X50561989Y60904788D01*
X50687511Y60832318D01*
X50687512Y60832318D01*
X50687515Y60832316D01*
X50827525Y60794800D01*
X50827526Y60794800D01*
X50972474Y60794800D01*
X50972475Y60794800D01*
X51112485Y60832316D01*
X51112487Y60832318D01*
X51112489Y60832318D01*
X51238010Y60904788D01*
X51238010Y60904789D01*
X51238015Y60904791D01*
X51340509Y61007285D01*
X51344207Y61013690D01*
X51412982Y61132811D01*
X51412982Y61132813D01*
X51412984Y61132815D01*
X51450500Y61272825D01*
X51450500Y61417775D01*
X51412984Y61557785D01*
X51412982Y61557788D01*
X51412982Y61557790D01*
X51340512Y61683311D01*
X51340510Y61683313D01*
X51340509Y61683315D01*
X51238015Y61785809D01*
X51238012Y61785811D01*
X51238010Y61785813D01*
X51112488Y61858283D01*
X51112489Y61858283D01*
X51053217Y61874165D01*
X50972475Y61895800D01*
X50827525Y61895800D01*
X50765790Y61879259D01*
X50687510Y61858283D01*
X50561989Y61785813D01*
X50459487Y61683311D01*
X50387017Y61557790D01*
X50387016Y61557785D01*
X50349500Y61417775D01*
X49950500Y61417775D01*
X49950500Y61424175D01*
X49912984Y61564185D01*
X49912982Y61564188D01*
X49912982Y61564190D01*
X49840512Y61689711D01*
X49840510Y61689713D01*
X49840509Y61689715D01*
X49738015Y61792209D01*
X49738012Y61792211D01*
X49738010Y61792213D01*
X49612488Y61864683D01*
X49612489Y61864683D01*
X49577102Y61874165D01*
X49472475Y61902200D01*
X49327525Y61902200D01*
X49265790Y61885659D01*
X49187510Y61864683D01*
X49061989Y61792213D01*
X48959487Y61689711D01*
X48887017Y61564190D01*
X48849500Y61424175D01*
X43749800Y61424175D01*
X43749800Y61430075D01*
X43730923Y61500522D01*
X43730555Y61502107D01*
X43733042Y61531027D01*
X43734560Y61559997D01*
X43735682Y61561726D01*
X43735798Y61563067D01*
X43738812Y61566546D01*
X43756982Y61594525D01*
X43780495Y61618036D01*
X43843095Y61726464D01*
X43875500Y61847399D01*
X43875500Y61874165D01*
X43894407Y61932356D01*
X43904496Y61944169D01*
X44805831Y62845504D01*
X44860348Y62873281D01*
X44875835Y62874500D01*
X46442851Y62874500D01*
X46442853Y62874500D01*
X46525639Y62896682D01*
X46525641Y62896684D01*
X46525643Y62896684D01*
X46599857Y62939532D01*
X46599857Y62939533D01*
X46599862Y62939535D01*
X46605832Y62945506D01*
X46660347Y62973281D01*
X46675834Y62974500D01*
X48342851Y62974500D01*
X48342853Y62974500D01*
X48425639Y62996682D01*
X48425641Y62996684D01*
X48425643Y62996684D01*
X48499857Y63039532D01*
X48499857Y63039533D01*
X48499862Y63039535D01*
X49484902Y64024575D01*
X50149500Y64024575D01*
X50149500Y63879625D01*
X50169278Y63805815D01*
X50187017Y63739611D01*
X50259487Y63614090D01*
X50259489Y63614088D01*
X50259491Y63614085D01*
X50361985Y63511591D01*
X50361987Y63511590D01*
X50361989Y63511588D01*
X50487511Y63439118D01*
X50487512Y63439118D01*
X50487515Y63439116D01*
X50627525Y63401600D01*
X50627526Y63401600D01*
X50772474Y63401600D01*
X50772475Y63401600D01*
X50912485Y63439116D01*
X50912487Y63439118D01*
X50912489Y63439118D01*
X51038010Y63511588D01*
X51038010Y63511589D01*
X51038015Y63511591D01*
X51140509Y63614085D01*
X51140512Y63614090D01*
X51212982Y63739611D01*
X51212982Y63739613D01*
X51212984Y63739615D01*
X51250500Y63879625D01*
X51250500Y64024575D01*
X51212984Y64164585D01*
X51212982Y64164588D01*
X51212982Y64164590D01*
X51140512Y64290111D01*
X51140510Y64290113D01*
X51140509Y64290115D01*
X51038015Y64392609D01*
X51038012Y64392611D01*
X51038010Y64392613D01*
X50912488Y64465083D01*
X50912489Y64465083D01*
X50882896Y64473013D01*
X50772475Y64502600D01*
X50627525Y64502600D01*
X50565790Y64486059D01*
X50487510Y64465083D01*
X50361989Y64392613D01*
X50259487Y64290111D01*
X50187017Y64164590D01*
X50165902Y64085787D01*
X50149500Y64024575D01*
X49484902Y64024575D01*
X51931331Y66471004D01*
X51985848Y66498781D01*
X52001335Y66500000D01*
X53249999Y66500000D01*
X53250000Y66500000D01*
X53250000Y67200450D01*
X53268907Y67258641D01*
X53318407Y67294605D01*
X53323365Y67296073D01*
X53325639Y67296682D01*
X53399862Y67339535D01*
X55599859Y69539534D01*
X55599862Y69539535D01*
X55660465Y69600138D01*
X55679114Y69632440D01*
X55688439Y69648590D01*
X55691771Y69654364D01*
X55703318Y69674361D01*
X55725500Y69757147D01*
X55725500Y69842853D01*
X55725500Y69924165D01*
X55744407Y69982356D01*
X55754496Y69994169D01*
X56208101Y70447774D01*
X56692945Y70932619D01*
X56737320Y70958239D01*
X56867485Y70993116D01*
X56867487Y70993118D01*
X56867489Y70993118D01*
X56993010Y71065588D01*
X56993010Y71065589D01*
X56993015Y71065591D01*
X57095509Y71168085D01*
X57167984Y71293615D01*
X57205500Y71433625D01*
X57205500Y71578575D01*
X57167984Y71718585D01*
X57167982Y71718588D01*
X57167982Y71718590D01*
X57095512Y71844111D01*
X57095510Y71844113D01*
X57095509Y71844115D01*
X56993015Y71946609D01*
X56993012Y71946611D01*
X56993010Y71946613D01*
X56867488Y72019083D01*
X56867489Y72019083D01*
X56837896Y72027013D01*
X56727475Y72056600D01*
X56582525Y72056600D01*
X56520790Y72040059D01*
X56442510Y72019083D01*
X56316989Y71946613D01*
X56214487Y71844111D01*
X56142017Y71718590D01*
X56104500Y71578575D01*
X56104500Y71433626D01*
X56125377Y71355709D01*
X56122174Y71294608D01*
X56099754Y71260083D01*
X55305651Y70465980D01*
X55251134Y70438203D01*
X55190702Y70447774D01*
X55165646Y70465978D01*
X55102015Y70529609D01*
X55102012Y70529611D01*
X55102010Y70529613D01*
X54976488Y70602083D01*
X54976489Y70602083D01*
X54946896Y70610013D01*
X54836475Y70639600D01*
X54691525Y70639600D01*
X54629790Y70623059D01*
X54551510Y70602083D01*
X54425989Y70529613D01*
X54323487Y70427111D01*
X54251017Y70301590D01*
X54251016Y70301585D01*
X54213500Y70161575D01*
X54213500Y70016625D01*
X54227287Y69965173D01*
X54251017Y69876611D01*
X54323487Y69751090D01*
X54323489Y69751088D01*
X54323491Y69751085D01*
X54425985Y69648591D01*
X54425987Y69648590D01*
X54425989Y69648588D01*
X54543925Y69580497D01*
X54584866Y69535028D01*
X54591262Y69474177D01*
X54564429Y69424757D01*
X53419004Y68279331D01*
X53364487Y68251554D01*
X53304055Y68261125D01*
X53260790Y68304390D01*
X53250000Y68349335D01*
X53250000Y109400500D01*
X53268907Y109458691D01*
X53318407Y109494655D01*
X53349000Y109499500D01*
X55934108Y109499500D01*
X55997564Y109499500D01*
X56002421Y109499381D01*
X56031158Y109497970D01*
X56338173Y109482887D01*
X56347815Y109481937D01*
X56677915Y109432971D01*
X56687421Y109431081D01*
X57011144Y109349992D01*
X57020415Y109347180D01*
X57334625Y109234754D01*
X57343594Y109231039D01*
X57645263Y109088360D01*
X57653826Y109083782D01*
X57940049Y108912227D01*
X57948127Y108906829D01*
X58216150Y108708049D01*
X58223660Y108701886D01*
X58470921Y108477782D01*
X58477781Y108470922D01*
X58603484Y108332230D01*
X58701885Y108223661D01*
X58708048Y108216151D01*
X58906828Y107948128D01*
X58912226Y107940050D01*
X59083781Y107653827D01*
X59088361Y107645259D01*
X59231036Y107343598D01*
X59234754Y107334622D01*
X59347175Y107020429D01*
X59349995Y107011132D01*
X59431077Y106687433D01*
X59432972Y106677904D01*
X59481934Y106347830D01*
X59482887Y106338162D01*
X59499381Y106002423D01*
X59499500Y105997565D01*
X59499500Y67959000D01*
X59480593Y67900809D01*
X59431093Y67864845D01*
X59400500Y67860000D01*
X55000000Y67860000D01*
X55000000Y67859999D01*
X55000000Y66594121D01*
X54981093Y66535930D01*
X54931593Y66499966D01*
X54926637Y66498499D01*
X54891973Y66489210D01*
X54806809Y66466391D01*
X54692690Y66400504D01*
X54599496Y66307310D01*
X54533609Y66193191D01*
X54533608Y66193186D01*
X54499500Y66065892D01*
X54499500Y41565892D01*
X54499500Y41434108D01*
X54524580Y41340509D01*
X54533609Y41306810D01*
X54599496Y41192691D01*
X54599498Y41192689D01*
X54599500Y41192686D01*
X54692686Y41099500D01*
X54692688Y41099499D01*
X54692690Y41099497D01*
X54806810Y41033610D01*
X54806811Y41033610D01*
X54806814Y41033608D01*
X54926625Y41001506D01*
X54977937Y40968183D01*
X54999864Y40911062D01*
X55000000Y40905880D01*
X55000000Y39860000D01*
X59400500Y39860000D01*
X59458691Y39841093D01*
X59494655Y39791593D01*
X59499500Y39761000D01*
X59499500Y38199000D01*
X59480593Y38140809D01*
X59431093Y38104845D01*
X59400500Y38100000D01*
X599500Y38100000D01*
X541309Y38118907D01*
X505345Y38168407D01*
X500500Y38199000D01*
X500500Y42134888D01*
X13241851Y42134888D01*
X13241852Y42134882D01*
X13265794Y42014021D01*
X13312854Y41900154D01*
X13312859Y41900145D01*
X13328694Y41876407D01*
X13381230Y41797648D01*
X13468286Y41710456D01*
X13570680Y41641921D01*
X13684477Y41594680D01*
X13805302Y41570548D01*
X13928129Y41570453D01*
X13928512Y41570452D01*
X13928512Y41570453D01*
X13928516Y41570452D01*
X14049379Y41594394D01*
X14163250Y41641456D01*
X14265752Y41709830D01*
X14735544Y42178886D01*
X14804079Y42281280D01*
X14851320Y42395077D01*
X14875452Y42515902D01*
X14875548Y42639116D01*
X14851606Y42759979D01*
X14832390Y42806475D01*
X15699500Y42806475D01*
X15699500Y42661525D01*
X15708081Y42629502D01*
X15737017Y42521511D01*
X15809487Y42395990D01*
X15809489Y42395988D01*
X15809491Y42395985D01*
X15911985Y42293491D01*
X15911987Y42293490D01*
X15911989Y42293488D01*
X16037511Y42221018D01*
X16037512Y42221018D01*
X16037515Y42221016D01*
X16177525Y42183500D01*
X16177526Y42183500D01*
X16322474Y42183500D01*
X16322475Y42183500D01*
X16462485Y42221016D01*
X16462487Y42221018D01*
X16462489Y42221018D01*
X16588010Y42293488D01*
X16588010Y42293489D01*
X16588015Y42293491D01*
X16690509Y42395985D01*
X16710972Y42431427D01*
X16762982Y42521511D01*
X16762982Y42521513D01*
X16762984Y42521515D01*
X16800500Y42661525D01*
X16800500Y42806475D01*
X16762984Y42946485D01*
X16762982Y42946488D01*
X16762982Y42946490D01*
X16690512Y43072011D01*
X16690510Y43072013D01*
X16690509Y43072015D01*
X16588015Y43174509D01*
X16588012Y43174511D01*
X16588010Y43174513D01*
X16462488Y43246983D01*
X16462489Y43246983D01*
X16432896Y43254913D01*
X16322475Y43284500D01*
X16177525Y43284500D01*
X16145057Y43275800D01*
X16037510Y43246983D01*
X15911989Y43174513D01*
X15809487Y43072011D01*
X15737017Y42946490D01*
X15719603Y42881500D01*
X15699500Y42806475D01*
X14832390Y42806475D01*
X14804544Y42873850D01*
X14736170Y42976352D01*
X14649114Y43063544D01*
X14547427Y43131606D01*
X14546719Y43132080D01*
X14432926Y43179319D01*
X14432924Y43179320D01*
X14432923Y43179320D01*
X14312097Y43203452D01*
X14311807Y43203453D01*
X14188887Y43203549D01*
X14188881Y43203548D01*
X14068020Y43179606D01*
X13954153Y43132546D01*
X13954151Y43132545D01*
X13851646Y43064169D01*
X13381856Y42595114D01*
X13313320Y42492720D01*
X13266081Y42378927D01*
X13266080Y42378924D01*
X13266080Y42378923D01*
X13263877Y42367892D01*
X13241948Y42258098D01*
X13241948Y42258096D01*
X13241851Y42134888D01*
X500500Y42134888D01*
X500500Y44488186D01*
X10227290Y44488186D01*
X10227300Y44421909D01*
X10227300Y44360347D01*
X10239334Y44299889D01*
X10239335Y44299876D01*
X10239337Y44299876D01*
X10251339Y44239539D01*
X10251362Y44239464D01*
X10275474Y44181275D01*
X10275476Y44181264D01*
X10275478Y44181264D01*
X10298496Y44125696D01*
X10298525Y44125642D01*
X10332621Y44074631D01*
X10332629Y44074619D01*
X10366938Y44023272D01*
X10366945Y44023264D01*
X10366999Y44023198D01*
X10407636Y43982573D01*
X10407643Y43982560D01*
X10407646Y43982562D01*
X10457539Y43932670D01*
X10457694Y43932530D01*
X11761107Y42629502D01*
X11761114Y42629489D01*
X11761117Y42629491D01*
X11806462Y42584146D01*
X11806536Y42584086D01*
X11806539Y42584083D01*
X11858793Y42549179D01*
X11858801Y42549168D01*
X11858804Y42549171D01*
X11908914Y42515689D01*
X11908915Y42515689D01*
X11908916Y42515688D01*
X11909001Y42515642D01*
X11966827Y42491701D01*
X11966841Y42491689D01*
X11966844Y42491694D01*
X12022753Y42468535D01*
X12022830Y42468512D01*
X12022836Y42468511D01*
X12022838Y42468510D01*
X12044160Y42464272D01*
X12085854Y42455984D01*
X12085853Y42455983D01*
X12085863Y42455983D01*
X12143594Y42444500D01*
X12143595Y42444500D01*
X12143600Y42444499D01*
X12143680Y42444492D01*
X12143686Y42444490D01*
X12143691Y42444491D01*
X12143692Y42444490D01*
X12199270Y42444499D01*
X12208535Y42444500D01*
X12563006Y42444500D01*
X12683852Y42468537D01*
X12797686Y42515689D01*
X12900133Y42584142D01*
X12987258Y42671267D01*
X13055711Y42773714D01*
X13102863Y42887548D01*
X13126900Y43008394D01*
X13126900Y43131606D01*
X13102863Y43252452D01*
X13055711Y43366286D01*
X12987258Y43468733D01*
X12900133Y43555858D01*
X12797686Y43624311D01*
X12797687Y43624311D01*
X12797685Y43624312D01*
X12683850Y43671464D01*
X12563008Y43695500D01*
X12563006Y43695500D01*
X12505235Y43695500D01*
X12447044Y43714407D01*
X12435242Y43724486D01*
X12433216Y43726511D01*
X11788553Y44370984D01*
X11507307Y44652147D01*
X11479521Y44706660D01*
X11478300Y44722161D01*
X11478300Y47422475D01*
X12649500Y47422475D01*
X12649500Y47277525D01*
X12666844Y47212797D01*
X12687017Y47137511D01*
X12759487Y47011990D01*
X12759489Y47011988D01*
X12759491Y47011985D01*
X12861985Y46909491D01*
X12861987Y46909490D01*
X12861989Y46909488D01*
X12987511Y46837018D01*
X12987512Y46837018D01*
X12987515Y46837016D01*
X13127525Y46799500D01*
X13127526Y46799500D01*
X13272474Y46799500D01*
X13272475Y46799500D01*
X13412485Y46837016D01*
X13412487Y46837018D01*
X13412489Y46837018D01*
X13538010Y46909488D01*
X13538010Y46909489D01*
X13538015Y46909491D01*
X13581755Y46953232D01*
X13636269Y46981008D01*
X13696701Y46971437D01*
X13739966Y46928173D01*
X13749538Y46867741D01*
X13737494Y46833728D01*
X13726617Y46814889D01*
X13714382Y46769229D01*
X13689100Y46674875D01*
X13689100Y46529925D01*
X13701590Y46483314D01*
X13726617Y46389911D01*
X13799087Y46264390D01*
X13799089Y46264388D01*
X13799091Y46264385D01*
X13901585Y46161891D01*
X13901587Y46161890D01*
X13901589Y46161888D01*
X14027111Y46089418D01*
X14027112Y46089418D01*
X14027115Y46089416D01*
X14167125Y46051900D01*
X14167126Y46051900D01*
X14312074Y46051900D01*
X14312075Y46051900D01*
X14452085Y46089416D01*
X14452087Y46089418D01*
X14452089Y46089418D01*
X14577610Y46161888D01*
X14577610Y46161889D01*
X14577615Y46161891D01*
X14680109Y46264385D01*
X14680112Y46264390D01*
X14752582Y46389911D01*
X14752582Y46389913D01*
X14752584Y46389915D01*
X14790100Y46529925D01*
X14790100Y46674875D01*
X14752584Y46814885D01*
X14752582Y46814889D01*
X14752582Y46814890D01*
X14680112Y46940411D01*
X14680110Y46940413D01*
X14680109Y46940415D01*
X14577615Y47042909D01*
X14577612Y47042911D01*
X14577610Y47042913D01*
X14452088Y47115383D01*
X14452089Y47115383D01*
X14422496Y47123313D01*
X14312075Y47152900D01*
X14167125Y47152900D01*
X14150156Y47148353D01*
X14027110Y47115383D01*
X13901589Y47042913D01*
X13901583Y47042909D01*
X13857845Y46999170D01*
X13803328Y46971393D01*
X13742896Y46980965D01*
X13699632Y47024230D01*
X13690061Y47084662D01*
X13702105Y47118674D01*
X13712984Y47137515D01*
X13750500Y47277525D01*
X13750500Y47422475D01*
X13712984Y47562485D01*
X13712982Y47562488D01*
X13712982Y47562490D01*
X13640512Y47688011D01*
X13640510Y47688013D01*
X13640509Y47688015D01*
X13538015Y47790509D01*
X13538012Y47790511D01*
X13538010Y47790513D01*
X13412488Y47862983D01*
X13412489Y47862983D01*
X13382896Y47870913D01*
X13272475Y47900500D01*
X13127525Y47900500D01*
X13065790Y47883959D01*
X12987510Y47862983D01*
X12861989Y47790513D01*
X12759487Y47688011D01*
X12687017Y47562490D01*
X12678013Y47528886D01*
X12649500Y47422475D01*
X11478300Y47422475D01*
X11478300Y49772475D01*
X12649500Y49772475D01*
X12649500Y49627526D01*
X12687017Y49487511D01*
X12759487Y49361990D01*
X12759489Y49361988D01*
X12759491Y49361985D01*
X12861985Y49259491D01*
X12861987Y49259490D01*
X12861989Y49259488D01*
X12987511Y49187018D01*
X12987512Y49187018D01*
X12987515Y49187016D01*
X13127525Y49149500D01*
X13127526Y49149500D01*
X13272474Y49149500D01*
X13272475Y49149500D01*
X13412485Y49187016D01*
X13412487Y49187018D01*
X13412489Y49187018D01*
X13538010Y49259488D01*
X13538010Y49259489D01*
X13538015Y49259491D01*
X13640509Y49361985D01*
X13712984Y49487515D01*
X13750500Y49627525D01*
X13750500Y49772475D01*
X13712984Y49912485D01*
X13712982Y49912488D01*
X13712982Y49912490D01*
X13640512Y50038011D01*
X13640510Y50038013D01*
X13640509Y50038015D01*
X13538015Y50140509D01*
X13538012Y50140511D01*
X13538010Y50140513D01*
X13412488Y50212983D01*
X13412489Y50212983D01*
X13354743Y50228456D01*
X13272475Y50250500D01*
X13127525Y50250500D01*
X13065790Y50233959D01*
X12987510Y50212983D01*
X12861989Y50140513D01*
X12759487Y50038011D01*
X12687017Y49912490D01*
X12649500Y49772475D01*
X11478300Y49772475D01*
X11478300Y51435847D01*
X11497207Y51494038D01*
X11507305Y51505859D01*
X12414849Y52413172D01*
X12414972Y52413282D01*
X12418830Y52417141D01*
X12418833Y52417142D01*
X12463052Y52461362D01*
X12505850Y52504149D01*
X12505931Y52504228D01*
X12505932Y52504229D01*
X12505956Y52504266D01*
X12505958Y52504267D01*
X12532846Y52544508D01*
X12540953Y52556641D01*
X12540959Y52556651D01*
X12548888Y52568514D01*
X12574183Y52606360D01*
X12574393Y52606667D01*
X12574466Y52606849D01*
X12598951Y52665960D01*
X12621539Y52720471D01*
X12621541Y52720484D01*
X12621551Y52720507D01*
X12621559Y52720532D01*
X12621561Y52720545D01*
X12621563Y52720548D01*
X12633975Y52782953D01*
X12645592Y52841313D01*
X12645592Y52841327D01*
X12645598Y52841386D01*
X12645600Y52841394D01*
X12645600Y52902920D01*
X12645608Y52964526D01*
X12645607Y52964529D01*
X12645608Y52969196D01*
X12645600Y52969383D01*
X12645600Y56131653D01*
X12664507Y56189844D01*
X12714007Y56225808D01*
X12775193Y56225808D01*
X12788392Y56219931D01*
X12793010Y56218018D01*
X12793012Y56218018D01*
X12793015Y56218016D01*
X12933025Y56180500D01*
X12933026Y56180500D01*
X13077974Y56180500D01*
X13077975Y56180500D01*
X13217985Y56218016D01*
X13217987Y56218018D01*
X13217989Y56218018D01*
X13343510Y56290488D01*
X13343510Y56290489D01*
X13343515Y56290491D01*
X13446009Y56392985D01*
X13489602Y56468490D01*
X13518482Y56518511D01*
X13518482Y56518513D01*
X13518484Y56518515D01*
X13556000Y56658525D01*
X13556000Y56803475D01*
X13518484Y56943485D01*
X13518482Y56943488D01*
X13518482Y56943490D01*
X13446012Y57069011D01*
X13446010Y57069013D01*
X13446009Y57069015D01*
X13343515Y57171509D01*
X13343512Y57171511D01*
X13343510Y57171513D01*
X13217988Y57243983D01*
X13217989Y57243983D01*
X13170215Y57256784D01*
X13077975Y57281500D01*
X12933025Y57281500D01*
X12871290Y57264959D01*
X12793010Y57243983D01*
X12787017Y57241500D01*
X12786406Y57242974D01*
X12734240Y57231892D01*
X12678347Y57256784D01*
X12647761Y57309776D01*
X12645600Y57330348D01*
X12645600Y58024144D01*
X12664507Y58082335D01*
X12674558Y58094109D01*
X12674639Y58094190D01*
X12681984Y58101543D01*
X12750380Y58204030D01*
X12797466Y58317891D01*
X12821435Y58438749D01*
X12821365Y58561962D01*
X12797259Y58682793D01*
X12750043Y58796600D01*
X12748779Y58798490D01*
X12681532Y58899007D01*
X12681531Y58899008D01*
X12594360Y58986081D01*
X12594357Y58986084D01*
X12491870Y59054480D01*
X12491867Y59054482D01*
X12491866Y59054482D01*
X12384255Y59098983D01*
X12378009Y59101566D01*
X12378007Y59101567D01*
X12378006Y59101567D01*
X12257148Y59125536D01*
X12134220Y59125466D01*
X12133938Y59125465D01*
X12133937Y59125465D01*
X12013107Y59101359D01*
X12013106Y59101359D01*
X11899299Y59054144D01*
X11796892Y58985633D01*
X11796891Y58985633D01*
X11578013Y58766505D01*
X11534231Y58722723D01*
X11534057Y58722509D01*
X11534024Y58722470D01*
X11500077Y58671603D01*
X11500047Y58671559D01*
X11465783Y58620279D01*
X11465644Y58620017D01*
X11465625Y58619983D01*
X11442086Y58563065D01*
X11442066Y58563018D01*
X11418627Y58506429D01*
X11418537Y58506132D01*
X11412118Y58473767D01*
X11406521Y58445542D01*
X11405170Y58438751D01*
X11394597Y58385595D01*
X11394577Y58385385D01*
X11394574Y58385349D01*
X11394564Y58385256D01*
X11394600Y58323646D01*
X11394600Y53203154D01*
X11375693Y53144963D01*
X11365595Y53133141D01*
X10457111Y52224892D01*
X10456978Y52224770D01*
X10409715Y52177507D01*
X10366962Y52134764D01*
X10333669Y52084937D01*
X10333662Y52084927D01*
X10298506Y52032329D01*
X10275410Y51976570D01*
X10275406Y51976562D01*
X10251344Y51918491D01*
X10238924Y51856048D01*
X10227308Y51797687D01*
X10227307Y51797684D01*
X10227300Y51797644D01*
X10227300Y51738373D01*
X10227291Y51669685D01*
X10227300Y51669504D01*
X10227300Y44488393D01*
X10227290Y44488186D01*
X500500Y44488186D01*
X500500Y45295766D01*
X5424500Y45295766D01*
X5424500Y45144234D01*
X5459086Y45015153D01*
X5463720Y44997861D01*
X5539481Y44866640D01*
X5539483Y44866638D01*
X5539485Y44866635D01*
X5646635Y44759485D01*
X5646637Y44759484D01*
X5646639Y44759482D01*
X5777861Y44683721D01*
X5777859Y44683721D01*
X5777863Y44683720D01*
X5777865Y44683719D01*
X5924234Y44644500D01*
X5924236Y44644500D01*
X6075764Y44644500D01*
X6075766Y44644500D01*
X6222135Y44683719D01*
X6222137Y44683721D01*
X6222139Y44683721D01*
X6353360Y44759482D01*
X6353360Y44759483D01*
X6353365Y44759485D01*
X6460515Y44866635D01*
X6490839Y44919157D01*
X6536279Y44997861D01*
X6536279Y44997863D01*
X6536281Y44997865D01*
X6575500Y45144234D01*
X6575500Y45295766D01*
X6536281Y45442135D01*
X6536279Y45442138D01*
X6536279Y45442140D01*
X6460518Y45573361D01*
X6460516Y45573363D01*
X6460515Y45573365D01*
X6353365Y45680515D01*
X6353362Y45680517D01*
X6331128Y45693354D01*
X6331126Y45693356D01*
X6222138Y45756280D01*
X6222140Y45756280D01*
X6161227Y45772601D01*
X7299500Y45772601D01*
X7299500Y45647399D01*
X7331905Y45526464D01*
X7394505Y45418036D01*
X7483036Y45329505D01*
X7591464Y45266905D01*
X7712399Y45234500D01*
X7712401Y45234500D01*
X7837599Y45234500D01*
X7837601Y45234500D01*
X7958536Y45266905D01*
X8066964Y45329505D01*
X8155495Y45418036D01*
X8218095Y45526464D01*
X8250500Y45647399D01*
X8250500Y45772601D01*
X8218095Y45893536D01*
X8218093Y45893540D01*
X8213762Y45901042D01*
X8200500Y45950539D01*
X8200500Y49763575D01*
X8219407Y49821766D01*
X8268907Y49857730D01*
X8273858Y49859197D01*
X8366485Y49884016D01*
X8366487Y49884018D01*
X8366489Y49884018D01*
X8492010Y49956488D01*
X8492010Y49956489D01*
X8492015Y49956491D01*
X8594509Y50058985D01*
X8641577Y50140509D01*
X8666982Y50184511D01*
X8666982Y50184513D01*
X8666984Y50184515D01*
X8704500Y50324525D01*
X8704500Y50469475D01*
X8666984Y50609485D01*
X8666982Y50609489D01*
X8666982Y50609490D01*
X8594512Y50735011D01*
X8594510Y50735013D01*
X8594509Y50735015D01*
X8492015Y50837509D01*
X8492012Y50837511D01*
X8492010Y50837513D01*
X8366488Y50909983D01*
X8366489Y50909983D01*
X8313296Y50924236D01*
X8226475Y50947500D01*
X8081525Y50947500D01*
X8019790Y50930959D01*
X7941510Y50909983D01*
X7815989Y50837513D01*
X7713487Y50735011D01*
X7641017Y50609489D01*
X7641015Y50609485D01*
X7602595Y50466102D01*
X7576973Y50421723D01*
X7513737Y50358486D01*
X7434514Y50279263D01*
X7378498Y50182242D01*
X7349500Y50074017D01*
X7349500Y45950539D01*
X7345187Y45934444D01*
X7345541Y45922822D01*
X7342201Y45911370D01*
X7331905Y45893536D01*
X7299500Y45772601D01*
X6161227Y45772601D01*
X6143813Y45777267D01*
X6075766Y45795500D01*
X5924234Y45795500D01*
X5856187Y45777267D01*
X5777860Y45756280D01*
X5646639Y45680519D01*
X5539481Y45573361D01*
X5463720Y45442140D01*
X5451487Y45396485D01*
X5424500Y45295766D01*
X500500Y45295766D01*
X500500Y51075766D01*
X5424500Y51075766D01*
X5424500Y50924234D01*
X5439974Y50866485D01*
X5463720Y50777861D01*
X5539481Y50646640D01*
X5539483Y50646638D01*
X5539485Y50646635D01*
X5646635Y50539485D01*
X5646637Y50539484D01*
X5646639Y50539482D01*
X5777861Y50463721D01*
X5777859Y50463721D01*
X5777863Y50463720D01*
X5777865Y50463719D01*
X5924234Y50424500D01*
X5924236Y50424500D01*
X6075764Y50424500D01*
X6075766Y50424500D01*
X6222135Y50463719D01*
X6222137Y50463721D01*
X6222139Y50463721D01*
X6353360Y50539482D01*
X6353360Y50539483D01*
X6353365Y50539485D01*
X6460515Y50646635D01*
X6511539Y50735011D01*
X6536279Y50777861D01*
X6536279Y50777863D01*
X6536281Y50777865D01*
X6575500Y50924234D01*
X6575500Y51075766D01*
X6536281Y51222135D01*
X6536279Y51222138D01*
X6536279Y51222140D01*
X6460518Y51353361D01*
X6460516Y51353363D01*
X6460515Y51353365D01*
X6353365Y51460515D01*
X6353362Y51460517D01*
X6353360Y51460519D01*
X6222138Y51536280D01*
X6222140Y51536280D01*
X6165347Y51551497D01*
X6075766Y51575500D01*
X5924234Y51575500D01*
X5834652Y51551497D01*
X5777860Y51536280D01*
X5646639Y51460519D01*
X5539481Y51353361D01*
X5463720Y51222140D01*
X5448941Y51166983D01*
X5424500Y51075766D01*
X500500Y51075766D01*
X500500Y71915161D01*
X519407Y71973352D01*
X568907Y72009316D01*
X625121Y72010788D01*
X749725Y71977400D01*
X749727Y71977400D01*
X894674Y71977400D01*
X894675Y71977400D01*
X1034685Y72014916D01*
X1034687Y72014918D01*
X1034689Y72014918D01*
X1160210Y72087388D01*
X1160210Y72087389D01*
X1160215Y72087391D01*
X1262709Y72189885D01*
X1335184Y72315415D01*
X1372700Y72455425D01*
X1372700Y72600375D01*
X1335184Y72740385D01*
X1335182Y72740388D01*
X1335182Y72740390D01*
X1262712Y72865911D01*
X1262710Y72865913D01*
X1262709Y72865915D01*
X1160215Y72968409D01*
X1160212Y72968411D01*
X1160210Y72968413D01*
X1034688Y73040883D01*
X1034689Y73040883D01*
X1005096Y73048813D01*
X894675Y73078400D01*
X749725Y73078400D01*
X699068Y73064827D01*
X625123Y73045013D01*
X564021Y73048216D01*
X516472Y73086721D01*
X500500Y73140640D01*
X500500Y88698975D01*
X2100400Y88698975D01*
X2100400Y88554026D01*
X2137917Y88414011D01*
X2210387Y88288490D01*
X2210389Y88288488D01*
X2210391Y88288485D01*
X2312885Y88185991D01*
X2312887Y88185990D01*
X2312889Y88185988D01*
X2438411Y88113518D01*
X2438412Y88113518D01*
X2438415Y88113516D01*
X2578425Y88076000D01*
X2578426Y88076000D01*
X2723374Y88076000D01*
X2723375Y88076000D01*
X2863385Y88113516D01*
X2863387Y88113518D01*
X2863389Y88113518D01*
X2988910Y88185988D01*
X2988910Y88185989D01*
X2988915Y88185991D01*
X3091409Y88288485D01*
X3163884Y88414015D01*
X3201400Y88554025D01*
X3201400Y88698975D01*
X3163884Y88838985D01*
X3163882Y88838988D01*
X3163882Y88838990D01*
X3091412Y88964511D01*
X3091410Y88964513D01*
X3091409Y88964515D01*
X2988915Y89067009D01*
X2988912Y89067011D01*
X2988910Y89067013D01*
X2863388Y89139483D01*
X2863389Y89139483D01*
X2833796Y89147413D01*
X2723375Y89177000D01*
X2578425Y89177000D01*
X2516690Y89160459D01*
X2438410Y89139483D01*
X2312889Y89067013D01*
X2210387Y88964511D01*
X2137917Y88838990D01*
X2100400Y88698975D01*
X500500Y88698975D01*
X500500Y90237275D01*
X3012000Y90237275D01*
X3012000Y90092326D01*
X3049517Y89952311D01*
X3121987Y89826790D01*
X3121989Y89826788D01*
X3121991Y89826785D01*
X3224485Y89724291D01*
X3224487Y89724290D01*
X3224489Y89724288D01*
X3350011Y89651818D01*
X3350012Y89651818D01*
X3350015Y89651816D01*
X3490025Y89614300D01*
X3490026Y89614300D01*
X3634974Y89614300D01*
X3634975Y89614300D01*
X3774985Y89651816D01*
X3774987Y89651818D01*
X3774989Y89651818D01*
X3900510Y89724288D01*
X3900510Y89724289D01*
X3900515Y89724291D01*
X4003009Y89826785D01*
X4075484Y89952315D01*
X4113000Y90092325D01*
X4113000Y90237275D01*
X4075484Y90377285D01*
X4075482Y90377288D01*
X4075482Y90377290D01*
X4003012Y90502811D01*
X4003010Y90502813D01*
X4003009Y90502815D01*
X3900515Y90605309D01*
X3900512Y90605311D01*
X3900510Y90605313D01*
X3774988Y90677783D01*
X3774989Y90677783D01*
X3745396Y90685713D01*
X3634975Y90715300D01*
X3490025Y90715300D01*
X3428290Y90698759D01*
X3350010Y90677783D01*
X3224489Y90605313D01*
X3121987Y90502811D01*
X3049517Y90377290D01*
X3012000Y90237275D01*
X500500Y90237275D01*
X500500Y97838375D01*
X3012000Y97838375D01*
X3012000Y97693426D01*
X3049517Y97553411D01*
X3121987Y97427890D01*
X3121989Y97427888D01*
X3121991Y97427885D01*
X3224485Y97325391D01*
X3224487Y97325390D01*
X3224489Y97325388D01*
X3350011Y97252918D01*
X3350012Y97252918D01*
X3350015Y97252916D01*
X3490025Y97215400D01*
X3490026Y97215400D01*
X3634974Y97215400D01*
X3634975Y97215400D01*
X3774985Y97252916D01*
X3774987Y97252918D01*
X3774989Y97252918D01*
X3900510Y97325388D01*
X3900510Y97325389D01*
X3900515Y97325391D01*
X4003009Y97427885D01*
X4075484Y97553415D01*
X4113000Y97693425D01*
X4113000Y97838375D01*
X4075484Y97978385D01*
X4075482Y97978388D01*
X4075482Y97978390D01*
X4003012Y98103911D01*
X4003010Y98103913D01*
X4003009Y98103915D01*
X3900515Y98206409D01*
X3900512Y98206411D01*
X3900510Y98206413D01*
X3774988Y98278883D01*
X3774989Y98278883D01*
X3745396Y98286813D01*
X3634975Y98316400D01*
X3490025Y98316400D01*
X3428290Y98299859D01*
X3350010Y98278883D01*
X3224489Y98206413D01*
X3121987Y98103911D01*
X3049517Y97978390D01*
X3012000Y97838375D01*
X500500Y97838375D01*
X500500Y105997565D01*
X500619Y106002422D01*
X510153Y106196496D01*
X517113Y106338176D01*
X518063Y106347814D01*
X567029Y106677920D01*
X568918Y106687418D01*
X650009Y107011151D01*
X652818Y107020410D01*
X765249Y107334633D01*
X768958Y107343588D01*
X911644Y107645272D01*
X916211Y107653815D01*
X1087780Y107940062D01*
X1093163Y107948117D01*
X1291957Y108216159D01*
X1298107Y108223654D01*
X1522228Y108470933D01*
X1529067Y108477772D01*
X1776346Y108701893D01*
X1783841Y108708043D01*
X2051883Y108906837D01*
X2059938Y108912220D01*
X2346185Y109083789D01*
X2354728Y109088356D01*
X2656412Y109231042D01*
X2665367Y109234751D01*
X2979590Y109347182D01*
X2988849Y109349991D01*
X3312582Y109431082D01*
X3322080Y109432971D01*
X3652186Y109481937D01*
X3661824Y109482887D01*
X3970606Y109498056D01*
X3997579Y109499381D01*
X4002436Y109499500D01*
X4065892Y109499500D01*
X8151000Y109499500D01*
X8209191Y109480593D01*
G37*
%TD.AperFunction*%
%TA.AperFunction,Conductor*%
G36*
X6117099Y67776874D02*
G01*
X6122915Y67773516D01*
X6219625Y67747603D01*
X6270937Y67714280D01*
X6292864Y67657159D01*
X6293000Y67651977D01*
X6293000Y67534426D01*
X6330517Y67394411D01*
X6402987Y67268890D01*
X6402989Y67268888D01*
X6402991Y67268885D01*
X6505485Y67166391D01*
X6505487Y67166390D01*
X6505489Y67166388D01*
X6631011Y67093918D01*
X6631012Y67093918D01*
X6631015Y67093916D01*
X6771025Y67056400D01*
X6771026Y67056400D01*
X6915976Y67056400D01*
X6915976Y67056401D01*
X7028278Y67086492D01*
X7089377Y67083291D01*
X7136928Y67044786D01*
X7152900Y66990866D01*
X7152900Y58094190D01*
X7133993Y58035999D01*
X7123904Y58024186D01*
X6757214Y57657496D01*
X6702697Y57629719D01*
X6687210Y57628500D01*
X6600925Y57628500D01*
X6539190Y57611959D01*
X6460910Y57590983D01*
X6335389Y57518513D01*
X6232887Y57416011D01*
X6160418Y57290491D01*
X6159065Y57287223D01*
X6157419Y57285297D01*
X6157171Y57284866D01*
X6157091Y57284913D01*
X6119329Y57240697D01*
X6059834Y57226412D01*
X6003306Y57249826D01*
X5971336Y57301994D01*
X5968600Y57325107D01*
X5968600Y67691137D01*
X5987507Y67749328D01*
X6037007Y67785292D01*
X6098193Y67785292D01*
X6117099Y67776874D01*
G37*
%TD.AperFunction*%
%TA.AperFunction,Conductor*%
G36*
X8195945Y95278521D02*
G01*
X8239210Y95235256D01*
X8250000Y95190311D01*
X8250000Y90732762D01*
X8249500Y90725131D01*
X8249500Y90574869D01*
X8250000Y90567239D01*
X8250000Y88982762D01*
X8249500Y88975131D01*
X8249500Y88970190D01*
X8248993Y88968632D01*
X8248654Y88966049D01*
X8248175Y88966113D01*
X8230593Y88911999D01*
X8220504Y88900186D01*
X6821230Y87500912D01*
X6775086Y87420988D01*
X6751200Y87331843D01*
X6751200Y68853574D01*
X6732293Y68795383D01*
X6682793Y68759419D01*
X6621607Y68759419D01*
X6602701Y68767837D01*
X6547888Y68799483D01*
X6547885Y68799484D01*
X6407875Y68837000D01*
X6262925Y68837000D01*
X6122915Y68799484D01*
X6122914Y68799484D01*
X6122912Y68799483D01*
X6117098Y68796126D01*
X6057249Y68783407D01*
X6001354Y68808295D01*
X5970763Y68861283D01*
X5968600Y68881864D01*
X5968600Y93106911D01*
X5987507Y93165102D01*
X5997596Y93176915D01*
X8080996Y95260315D01*
X8135513Y95288092D01*
X8195945Y95278521D01*
G37*
%TD.AperFunction*%
%TD*%
M02*
