%TF.GenerationSoftware,KiCad,Pcbnew,10.0.6*%
%TF.CreationDate,2026-09-20T14:25:18+02:00*%
%TF.ProjectId,nfc-antenna,6e66632d-616e-4746-956e-6e612e6b6963,rev?*%
%TF.SameCoordinates,Original*%
%TF.FileFunction,Legend,Top*%
%TF.FilePolarity,Positive*%
%FSLAX46Y46*%
G04 Gerber Fmt 4.6, Leading zero omitted, Abs format (unit mm)*
G04 Created by KiCad (PCBNEW 10.0.6) date 2026-09-20 14:25:18*
%MOMM*%
%LPD*%
G01*
G04 APERTURE LIST*
%ADD10C,0.120000*%
%ADD11C,0.150000*%
%ADD12R,1.500000X2.000000*%
%ADD13C,1.500000*%
G04 APERTURE END LIST*
D10*
X13354762Y-26386987D02*
X13354762Y-25536987D01*
X13354762Y-25536987D02*
X13840477Y-26386987D01*
X13840477Y-26386987D02*
X13840477Y-25536987D01*
X14528572Y-25941749D02*
X14245238Y-25941749D01*
X14245238Y-26386987D02*
X14245238Y-25536987D01*
X14245238Y-25536987D02*
X14650000Y-25536987D01*
X15459524Y-26306034D02*
X15419048Y-26346511D01*
X15419048Y-26346511D02*
X15297619Y-26386987D01*
X15297619Y-26386987D02*
X15216667Y-26386987D01*
X15216667Y-26386987D02*
X15095238Y-26346511D01*
X15095238Y-26346511D02*
X15014286Y-26265558D01*
X15014286Y-26265558D02*
X14973809Y-26184606D01*
X14973809Y-26184606D02*
X14933333Y-26022701D01*
X14933333Y-26022701D02*
X14933333Y-25901272D01*
X14933333Y-25901272D02*
X14973809Y-25739368D01*
X14973809Y-25739368D02*
X15014286Y-25658415D01*
X15014286Y-25658415D02*
X15095238Y-25577463D01*
X15095238Y-25577463D02*
X15216667Y-25536987D01*
X15216667Y-25536987D02*
X15297619Y-25536987D01*
X15297619Y-25536987D02*
X15419048Y-25577463D01*
X15419048Y-25577463D02*
X15459524Y-25617939D01*
X16957143Y-26306034D02*
X16916667Y-26346511D01*
X16916667Y-26346511D02*
X16795238Y-26386987D01*
X16795238Y-26386987D02*
X16714286Y-26386987D01*
X16714286Y-26386987D02*
X16592857Y-26346511D01*
X16592857Y-26346511D02*
X16511905Y-26265558D01*
X16511905Y-26265558D02*
X16471428Y-26184606D01*
X16471428Y-26184606D02*
X16430952Y-26022701D01*
X16430952Y-26022701D02*
X16430952Y-25901272D01*
X16430952Y-25901272D02*
X16471428Y-25739368D01*
X16471428Y-25739368D02*
X16511905Y-25658415D01*
X16511905Y-25658415D02*
X16592857Y-25577463D01*
X16592857Y-25577463D02*
X16714286Y-25536987D01*
X16714286Y-25536987D02*
X16795238Y-25536987D01*
X16795238Y-25536987D02*
X16916667Y-25577463D01*
X16916667Y-25577463D02*
X16957143Y-25617939D01*
X17483333Y-25536987D02*
X17645238Y-25536987D01*
X17645238Y-25536987D02*
X17726190Y-25577463D01*
X17726190Y-25577463D02*
X17807143Y-25658415D01*
X17807143Y-25658415D02*
X17847619Y-25820320D01*
X17847619Y-25820320D02*
X17847619Y-26103653D01*
X17847619Y-26103653D02*
X17807143Y-26265558D01*
X17807143Y-26265558D02*
X17726190Y-26346511D01*
X17726190Y-26346511D02*
X17645238Y-26386987D01*
X17645238Y-26386987D02*
X17483333Y-26386987D01*
X17483333Y-26386987D02*
X17402381Y-26346511D01*
X17402381Y-26346511D02*
X17321428Y-26265558D01*
X17321428Y-26265558D02*
X17280952Y-26103653D01*
X17280952Y-26103653D02*
X17280952Y-25820320D01*
X17280952Y-25820320D02*
X17321428Y-25658415D01*
X17321428Y-25658415D02*
X17402381Y-25577463D01*
X17402381Y-25577463D02*
X17483333Y-25536987D01*
X18211904Y-26386987D02*
X18211904Y-25536987D01*
X19021428Y-26386987D02*
X18616666Y-26386987D01*
X18616666Y-26386987D02*
X18616666Y-25536987D01*
X19830952Y-25536987D02*
X20316666Y-25536987D01*
X20073809Y-26386987D02*
X20073809Y-25536987D01*
X20599999Y-25941749D02*
X20883333Y-25941749D01*
X21004761Y-26386987D02*
X20599999Y-26386987D01*
X20599999Y-26386987D02*
X20599999Y-25536987D01*
X20599999Y-25536987D02*
X21004761Y-25536987D01*
X21328571Y-26346511D02*
X21450000Y-26386987D01*
X21450000Y-26386987D02*
X21652381Y-26386987D01*
X21652381Y-26386987D02*
X21733333Y-26346511D01*
X21733333Y-26346511D02*
X21773809Y-26306034D01*
X21773809Y-26306034D02*
X21814286Y-26225082D01*
X21814286Y-26225082D02*
X21814286Y-26144130D01*
X21814286Y-26144130D02*
X21773809Y-26063177D01*
X21773809Y-26063177D02*
X21733333Y-26022701D01*
X21733333Y-26022701D02*
X21652381Y-25982225D01*
X21652381Y-25982225D02*
X21490476Y-25941749D01*
X21490476Y-25941749D02*
X21409524Y-25901272D01*
X21409524Y-25901272D02*
X21369047Y-25860796D01*
X21369047Y-25860796D02*
X21328571Y-25779844D01*
X21328571Y-25779844D02*
X21328571Y-25698891D01*
X21328571Y-25698891D02*
X21369047Y-25617939D01*
X21369047Y-25617939D02*
X21409524Y-25577463D01*
X21409524Y-25577463D02*
X21490476Y-25536987D01*
X21490476Y-25536987D02*
X21692857Y-25536987D01*
X21692857Y-25536987D02*
X21814286Y-25577463D01*
X22057143Y-25536987D02*
X22542857Y-25536987D01*
X22300000Y-26386987D02*
X22300000Y-25536987D01*
X24080952Y-25496511D02*
X23352381Y-26589368D01*
X25457143Y-26386987D02*
X24971428Y-26386987D01*
X25214285Y-26386987D02*
X25214285Y-25536987D01*
X25214285Y-25536987D02*
X25133333Y-25658415D01*
X25133333Y-25658415D02*
X25052381Y-25739368D01*
X25052381Y-25739368D02*
X24971428Y-25779844D01*
X26590476Y-26386987D02*
X26509524Y-26346511D01*
X26509524Y-26346511D02*
X26469047Y-26306034D01*
X26469047Y-26306034D02*
X26428571Y-26225082D01*
X26428571Y-26225082D02*
X26428571Y-25982225D01*
X26428571Y-25982225D02*
X26469047Y-25901272D01*
X26469047Y-25901272D02*
X26509524Y-25860796D01*
X26509524Y-25860796D02*
X26590476Y-25820320D01*
X26590476Y-25820320D02*
X26711905Y-25820320D01*
X26711905Y-25820320D02*
X26792857Y-25860796D01*
X26792857Y-25860796D02*
X26833333Y-25901272D01*
X26833333Y-25901272D02*
X26873809Y-25982225D01*
X26873809Y-25982225D02*
X26873809Y-26225082D01*
X26873809Y-26225082D02*
X26833333Y-26306034D01*
X26833333Y-26306034D02*
X26792857Y-26346511D01*
X26792857Y-26346511D02*
X26711905Y-26386987D01*
X26711905Y-26386987D02*
X26590476Y-26386987D01*
X27157143Y-25820320D02*
X27602381Y-25820320D01*
X27602381Y-25820320D02*
X27157143Y-26386987D01*
X27157143Y-26386987D02*
X27602381Y-26386987D01*
X29180952Y-25496511D02*
X28452381Y-26589368D01*
X30557143Y-26386987D02*
X30071428Y-26386987D01*
X30314285Y-26386987D02*
X30314285Y-25536987D01*
X30314285Y-25536987D02*
X30233333Y-25658415D01*
X30233333Y-25658415D02*
X30152381Y-25739368D01*
X30152381Y-25739368D02*
X30071428Y-25779844D01*
X30921428Y-26306034D02*
X30961905Y-26346511D01*
X30961905Y-26346511D02*
X30921428Y-26386987D01*
X30921428Y-26386987D02*
X30880952Y-26346511D01*
X30880952Y-26346511D02*
X30921428Y-26306034D01*
X30921428Y-26306034D02*
X30921428Y-26386987D01*
X31690476Y-25536987D02*
X31528571Y-25536987D01*
X31528571Y-25536987D02*
X31447619Y-25577463D01*
X31447619Y-25577463D02*
X31407143Y-25617939D01*
X31407143Y-25617939D02*
X31326190Y-25739368D01*
X31326190Y-25739368D02*
X31285714Y-25901272D01*
X31285714Y-25901272D02*
X31285714Y-26225082D01*
X31285714Y-26225082D02*
X31326190Y-26306034D01*
X31326190Y-26306034D02*
X31366667Y-26346511D01*
X31366667Y-26346511D02*
X31447619Y-26386987D01*
X31447619Y-26386987D02*
X31609524Y-26386987D01*
X31609524Y-26386987D02*
X31690476Y-26346511D01*
X31690476Y-26346511D02*
X31730952Y-26306034D01*
X31730952Y-26306034D02*
X31771429Y-26225082D01*
X31771429Y-26225082D02*
X31771429Y-26022701D01*
X31771429Y-26022701D02*
X31730952Y-25941749D01*
X31730952Y-25941749D02*
X31690476Y-25901272D01*
X31690476Y-25901272D02*
X31609524Y-25860796D01*
X31609524Y-25860796D02*
X31447619Y-25860796D01*
X31447619Y-25860796D02*
X31366667Y-25901272D01*
X31366667Y-25901272D02*
X31326190Y-25941749D01*
X31326190Y-25941749D02*
X31285714Y-26022701D01*
X32783333Y-26386987D02*
X32783333Y-25820320D01*
X32783333Y-25901272D02*
X32823810Y-25860796D01*
X32823810Y-25860796D02*
X32904762Y-25820320D01*
X32904762Y-25820320D02*
X33026191Y-25820320D01*
X33026191Y-25820320D02*
X33107143Y-25860796D01*
X33107143Y-25860796D02*
X33147619Y-25941749D01*
X33147619Y-25941749D02*
X33147619Y-26386987D01*
X33147619Y-25941749D02*
X33188095Y-25860796D01*
X33188095Y-25860796D02*
X33269048Y-25820320D01*
X33269048Y-25820320D02*
X33390476Y-25820320D01*
X33390476Y-25820320D02*
X33471429Y-25860796D01*
X33471429Y-25860796D02*
X33511905Y-25941749D01*
X33511905Y-25941749D02*
X33511905Y-26386987D01*
X33916666Y-26386987D02*
X33916666Y-25820320D01*
X33916666Y-25901272D02*
X33957143Y-25860796D01*
X33957143Y-25860796D02*
X34038095Y-25820320D01*
X34038095Y-25820320D02*
X34159524Y-25820320D01*
X34159524Y-25820320D02*
X34240476Y-25860796D01*
X34240476Y-25860796D02*
X34280952Y-25941749D01*
X34280952Y-25941749D02*
X34280952Y-26386987D01*
X34280952Y-25941749D02*
X34321428Y-25860796D01*
X34321428Y-25860796D02*
X34402381Y-25820320D01*
X34402381Y-25820320D02*
X34523809Y-25820320D01*
X34523809Y-25820320D02*
X34604762Y-25860796D01*
X34604762Y-25860796D02*
X34645238Y-25941749D01*
X34645238Y-25941749D02*
X34645238Y-26386987D01*
D11*
X23285714Y-48469104D02*
X23761904Y-48469104D01*
X23190476Y-48754819D02*
X23523809Y-47754819D01*
X23523809Y-47754819D02*
X23857142Y-48754819D01*
X24714285Y-48754819D02*
X24142857Y-48754819D01*
X24428571Y-48754819D02*
X24428571Y-47754819D01*
X24428571Y-47754819D02*
X24333333Y-47897676D01*
X24333333Y-47897676D02*
X24238095Y-47992914D01*
X24238095Y-47992914D02*
X24142857Y-48040533D01*
D10*
X22728571Y-2363855D02*
X22271428Y-2363855D01*
X22500000Y-2363855D02*
X22500000Y-1563855D01*
X22500000Y-1563855D02*
X22423809Y-1678140D01*
X22423809Y-1678140D02*
X22347619Y-1754331D01*
X22347619Y-1754331D02*
X22271428Y-1792426D01*
X25271428Y-1640045D02*
X25309524Y-1601950D01*
X25309524Y-1601950D02*
X25385714Y-1563855D01*
X25385714Y-1563855D02*
X25576190Y-1563855D01*
X25576190Y-1563855D02*
X25652381Y-1601950D01*
X25652381Y-1601950D02*
X25690476Y-1640045D01*
X25690476Y-1640045D02*
X25728571Y-1716236D01*
X25728571Y-1716236D02*
X25728571Y-1792426D01*
X25728571Y-1792426D02*
X25690476Y-1906712D01*
X25690476Y-1906712D02*
X25233333Y-2363855D01*
X25233333Y-2363855D02*
X25728571Y-2363855D01*
%LPC*%
D12*
%TO.C,A1*%
X22500000Y-4000000D03*
D13*
X25500000Y-4000000D03*
%TD*%
%LPD*%
M02*
