%TF.GenerationSoftware,KiCad,Pcbnew,10.0.6*%
%TF.CreationDate,2026-09-22T22:36:36+02:00*%
%TF.ProjectId,nucula-v2,6e756375-6c61-42d7-9632-2e6b69636164,rev?*%
%TF.SameCoordinates,Original*%
%TF.FileFunction,Copper,L2,Inr*%
%TF.FilePolarity,Positive*%
%FSLAX46Y46*%
G04 Gerber Fmt 4.6, Leading zero omitted, Abs format (unit mm)*
G04 Created by KiCad (PCBNEW 10.0.6) date 2026-09-22 22:36:36*
%MOMM*%
%LPD*%
G01*
G04 APERTURE LIST*
%TA.AperFunction,ComponentPad*%
%ADD10R,1.700000X1.700000*%
%TD*%
%TA.AperFunction,ComponentPad*%
%ADD11C,1.700000*%
%TD*%
%TA.AperFunction,ComponentPad*%
%ADD12O,2.300000X1.300000*%
%TD*%
%TA.AperFunction,ComponentPad*%
%ADD13O,2.000000X1.300000*%
%TD*%
%TA.AperFunction,ComponentPad*%
%ADD14C,0.800000*%
%TD*%
%TA.AperFunction,ViaPad*%
%ADD15C,0.700000*%
%TD*%
%TA.AperFunction,Conductor*%
%ADD16C,0.150000*%
%TD*%
%TA.AperFunction,Conductor*%
%ADD17C,0.500000*%
%TD*%
%TA.AperFunction,Conductor*%
%ADD18C,0.200000*%
%TD*%
%TA.AperFunction,Conductor*%
%ADD19C,0.300000*%
%TD*%
%TA.AperFunction,Conductor*%
%ADD20C,0.750000*%
%TD*%
%TA.AperFunction,Conductor*%
%ADD21C,0.350000*%
%TD*%
%TA.AperFunction,Conductor*%
%ADD22C,0.250000*%
%TD*%
G04 APERTURE END LIST*
D10*
%TO.N,/+3V3*%
%TO.C,J4*%
X24920000Y41000000D03*
D11*
%TO.N,GND*%
X27460000Y41000000D03*
%TO.N,/I2C_SDA*%
X30000000Y41000000D03*
%TO.N,/I2C_SCL*%
X32540000Y41000000D03*
%TO.N,/KEY_INT_N*%
X35080000Y41000000D03*
%TD*%
D10*
%TO.N,unconnected-(J3-Pin_1-Pad1)*%
%TO.C,J3*%
X19840000Y2500000D03*
D11*
%TO.N,/Keyboard {slash} breakaway {slash} 0x20/KEY_P0*%
X22380000Y2500000D03*
%TO.N,/Keyboard {slash} breakaway {slash} 0x20/KEY_P1*%
X24920000Y2500000D03*
%TO.N,/Keyboard {slash} breakaway {slash} 0x20/KEY_P2*%
X27460000Y2500000D03*
%TO.N,/Keyboard {slash} breakaway {slash} 0x20/KEY_P3*%
X30000000Y2500000D03*
%TO.N,/Keyboard {slash} breakaway {slash} 0x20/KEY_P4*%
X32540000Y2500000D03*
%TO.N,/Keyboard {slash} breakaway {slash} 0x20/KEY_P5*%
X35080000Y2500000D03*
%TO.N,/Keyboard {slash} breakaway {slash} 0x20/KEY_P6*%
X37620000Y2500000D03*
%TO.N,unconnected-(J3-Pin_9-Pad9)*%
X40160000Y2500000D03*
%TD*%
D12*
%TO.N,GND*%
%TO.C,J1*%
X6500000Y52430000D03*
D13*
X2320000Y52430000D03*
D12*
X6500000Y43790000D03*
D13*
X2320000Y43790000D03*
%TD*%
D10*
%TO.N,/+3V3*%
%TO.C,J5*%
X24920000Y30000000D03*
D11*
%TO.N,GND*%
X27460000Y30000000D03*
%TO.N,/I2C_SDA*%
X30000000Y30000000D03*
%TO.N,/I2C_SCL*%
X32540000Y30000000D03*
%TO.N,/KEY_INT_N*%
X35080000Y30000000D03*
%TD*%
D14*
%TO.N,Net-(A1-LOOP_A)*%
%TO.C,A1*%
X51350000Y90500000D03*
X45250000Y90500000D03*
%TD*%
D15*
%TO.N,/+3V3*%
X39050000Y58000000D03*
X37687500Y43889000D03*
X15850000Y89800000D03*
X21000000Y92100000D03*
X41467200Y64201600D03*
X20100000Y95980000D03*
X14945900Y17321000D03*
X17250000Y98750000D03*
X21000000Y63750000D03*
X19303800Y11552000D03*
X50670000Y66970400D03*
%TO.N,/Power + ESP32-C3/ESP_EN*%
X50700000Y63952100D03*
X54714000Y70039100D03*
%TO.N,GND*%
X6000000Y39000000D03*
X50000000Y19000000D03*
X34000000Y23000000D03*
X46000000Y3000000D03*
X58000000Y15000000D03*
X52600000Y65500000D03*
X54000000Y19000000D03*
X50000000Y3000000D03*
X45700000Y52900000D03*
X2000000Y19000000D03*
X38000000Y19000000D03*
X54000000Y31000000D03*
X54000000Y107000000D03*
X46000000Y59000000D03*
X42000000Y15000000D03*
X10000000Y11000000D03*
X58000000Y7000000D03*
X30000000Y23000000D03*
X28890300Y87312500D03*
X50000000Y7000000D03*
X2000000Y47000000D03*
X30000000Y19000000D03*
X10425000Y43500000D03*
X43475000Y43025000D03*
X38000000Y15000000D03*
X38000000Y23000000D03*
X58000000Y31000000D03*
X10000000Y23000000D03*
X29620500Y79579200D03*
X2275000Y95050000D03*
X15950000Y85650000D03*
X38000000Y31000000D03*
X18725000Y49550000D03*
X27550000Y50500000D03*
X46000000Y15000000D03*
X2000000Y23000000D03*
X32850000Y79500000D03*
X42000000Y7000000D03*
X22000000Y27000000D03*
X8650000Y48100000D03*
X58000000Y23000000D03*
X52025000Y40275000D03*
X6600000Y73300000D03*
X14000000Y23000000D03*
X6000000Y3000000D03*
X30650000Y79500000D03*
X18225000Y46875000D03*
X2000000Y63000000D03*
X22000000Y15000000D03*
X4800000Y87000000D03*
X58000000Y103000000D03*
X2000000Y55000000D03*
X58000000Y99000000D03*
X50000000Y27000000D03*
X42000000Y11000000D03*
X46000000Y23000000D03*
X48825000Y40275000D03*
X2000000Y27000000D03*
X26000000Y11000000D03*
X15300000Y91600000D03*
X14000000Y27000000D03*
X6425000Y96775000D03*
X58000000Y39000000D03*
X38000000Y7000000D03*
X26310200Y78685200D03*
X31121600Y88861800D03*
X10400000Y55000000D03*
X38000000Y11000000D03*
X18900000Y21500000D03*
X2000000Y39000000D03*
X54000000Y59000000D03*
X54000000Y99000000D03*
X55100000Y82700000D03*
X3925000Y7460000D03*
X58000000Y91000000D03*
X46000000Y31000000D03*
X37100000Y45650000D03*
X50000000Y11000000D03*
X13225000Y45575000D03*
X6000000Y23000000D03*
X13300000Y62750000D03*
X46000000Y27000000D03*
X18000000Y31000000D03*
X55100000Y77700000D03*
X6000000Y103000000D03*
X3925000Y16350000D03*
X41350000Y79500000D03*
X10000000Y7000000D03*
X22800000Y58700000D03*
X34000000Y19000000D03*
X46000000Y19000000D03*
X8200000Y51310000D03*
X58000000Y87000000D03*
X3925000Y15080000D03*
X14000000Y31000000D03*
X54000000Y3000000D03*
X10000000Y27000000D03*
X18000000Y27000000D03*
X54000000Y91000000D03*
X2000000Y3000000D03*
X46000000Y7000000D03*
X3925000Y13810000D03*
X54000000Y7000000D03*
X6000000Y31000000D03*
X18625000Y19050000D03*
X32525000Y48100000D03*
X42000000Y23000000D03*
X10000000Y63000000D03*
X10000000Y15000000D03*
X23550000Y49350000D03*
X58000000Y19000000D03*
X26000000Y19000000D03*
X40900000Y62560000D03*
X34000000Y11000000D03*
X13425000Y58500000D03*
X54000000Y23000000D03*
X54000000Y47000000D03*
X52725000Y40825000D03*
X42000000Y51000000D03*
X50511000Y40766000D03*
X34000000Y15000000D03*
X54000000Y15000000D03*
X54000000Y103000000D03*
X54000000Y87000000D03*
X58000000Y83000000D03*
X54000000Y27000000D03*
X10000000Y31000000D03*
X46000000Y11000000D03*
X54000000Y55000000D03*
X36450000Y49300000D03*
X58000000Y27000000D03*
X10000000Y19000000D03*
X38000000Y27000000D03*
X21120500Y76000100D03*
X8800000Y91600000D03*
X50000000Y31000000D03*
X3900000Y60100000D03*
X2000000Y103000000D03*
X22000000Y11000000D03*
X58000000Y3000000D03*
X2000000Y11000000D03*
X16500000Y60275000D03*
X6000000Y107000000D03*
X24275000Y46550000D03*
X30000000Y11000000D03*
X2000000Y67000000D03*
X14000000Y3000000D03*
X46000000Y47000000D03*
X42000000Y19000000D03*
X43225000Y67525000D03*
X58000000Y107000000D03*
X42000000Y27000000D03*
X2200000Y77450000D03*
X53475000Y73548400D03*
X54000000Y51000000D03*
X50000000Y23000000D03*
X18350000Y51750000D03*
X58000000Y11000000D03*
X6000000Y19000000D03*
X2000000Y31000000D03*
X50000000Y15000000D03*
X58000000Y95000000D03*
X37875000Y43000000D03*
X6550000Y66750000D03*
X34000000Y27000000D03*
X47400000Y64800000D03*
X6000000Y27000000D03*
X33150000Y46600000D03*
X30750000Y50700000D03*
X39150000Y79500000D03*
X30000000Y55000000D03*
X22000000Y31000000D03*
X34000000Y7050000D03*
X11825000Y51250000D03*
X41150000Y42150000D03*
X8200000Y44910000D03*
X42000000Y31000000D03*
X54000000Y95000000D03*
X30000000Y15000000D03*
X26000000Y15000000D03*
X54000000Y11000000D03*
X28375000Y46450000D03*
X2000000Y107000000D03*
%TO.N,/OLED {slash} SSD1309 {slash} 0x3C/OLED_FB*%
X872200Y72327900D03*
X4950000Y78800000D03*
X8700000Y78850000D03*
%TO.N,/VSYS*%
X3562500Y90164800D03*
X18883300Y86200000D03*
X21050000Y43450000D03*
X8800000Y90650000D03*
X22647500Y90900000D03*
X19741200Y55700000D03*
X15300000Y90650000D03*
X31400000Y98800000D03*
X28050000Y65850000D03*
X16250000Y42734000D03*
%TO.N,/Power + ESP32-C3/USB_5V*%
X17900000Y54800000D03*
X12195900Y58500000D03*
X12501400Y43070000D03*
%TO.N,/I2C_SDA*%
X29208500Y47786000D03*
X6843500Y67606900D03*
X50900000Y61295300D03*
X15200000Y88950000D03*
X20100000Y96920000D03*
X19051100Y88724600D03*
X19325000Y16533000D03*
%TO.N,/I2C_SCL*%
X30200000Y48001000D03*
X16000000Y88000000D03*
X49400000Y61301700D03*
X21000000Y47048000D03*
X8750000Y87950000D03*
X20145500Y19461000D03*
X6673400Y57028000D03*
X18650000Y92200000D03*
X16050000Y84750000D03*
%TO.N,/KEY_INT_N*%
X42613200Y43380000D03*
X16765200Y11871000D03*
%TO.N,/NFC {slash} PN7160 {slash} 0x28/NFC_VMID*%
X24122300Y80423800D03*
X27347500Y90900000D03*
%TO.N,/OLED {slash} SSD1309 {slash} 0x3C/OLED_12V5*%
X8688900Y75148600D03*
X24750000Y50654000D03*
X15400000Y49750000D03*
%TO.N,/Power + ESP32-C3/VBUS*%
X13867400Y42246000D03*
X5900000Y49450000D03*
X45500000Y40674800D03*
X14239600Y46602400D03*
X8204000Y50397000D03*
%TO.N,/NFC {slash} PN7160 {slash} 0x28/NFC_VDD18*%
X28187500Y100700000D03*
X31400000Y97860000D03*
X31400000Y96920000D03*
X35292300Y91407700D03*
%TO.N,/+3V0*%
X32867100Y56256000D03*
X27100500Y42744000D03*
X33750000Y50682000D03*
X36458700Y41307000D03*
%TO.N,/Power + ESP32-C3/USB_PRESENT_N*%
X52250000Y43800000D03*
X40783600Y43482000D03*
%TO.N,/Power + ESP32-C3/VBAT*%
X13795700Y53170000D03*
X51050000Y43400000D03*
X8310800Y57039000D03*
X16562500Y53750000D03*
X14637500Y60309200D03*
%TO.N,Net-(U1-PROG)*%
X13105500Y56731000D03*
X16503500Y55982000D03*
%TO.N,/NFC {slash} PN7160 {slash} 0x28/NFC_XTAL2*%
X32050000Y90800000D03*
X31400000Y99740000D03*
%TO.N,/Keyboard {slash} breakaway {slash} 0x20/KEY_P0*%
X6916100Y11871000D03*
%TO.N,/Keyboard {slash} breakaway {slash} 0x20/KEY_P1*%
X6892100Y10625000D03*
%TO.N,/Keyboard {slash} breakaway {slash} 0x20/KEY_P2*%
X6897800Y9381000D03*
%TO.N,/Keyboard {slash} breakaway {slash} 0x20/KEY_P3*%
X7116800Y8061000D03*
%TO.N,/Keyboard {slash} breakaway {slash} 0x20/KEY_P4*%
X14800000Y6575000D03*
%TO.N,/Keyboard {slash} breakaway {slash} 0x20/KEY_P5*%
X16217500Y8061000D03*
%TO.N,/Keyboard {slash} breakaway {slash} 0x20/KEY_P6*%
X16201100Y9381000D03*
%TO.N,/Power + ESP32-C3/BOOT_N*%
X41100000Y61400000D03*
X56655000Y71456100D03*
X38943400Y66068400D03*
%TO.N,/OLED_PWR_EN*%
X3562500Y97815900D03*
X6014300Y54155000D03*
X49400000Y46420000D03*
X8288300Y95963300D03*
%TO.N,/NFC {slash} PN7160 {slash} 0x28/NFC_RXP*%
X21776400Y79721100D03*
X25800000Y87150000D03*
%TO.N,/NFC {slash} PN7160 {slash} 0x28/NFC_TVDD*%
X26050000Y102200000D03*
X30300000Y93350000D03*
X24527500Y90900000D03*
X27600000Y87500000D03*
X28287500Y90900000D03*
X33950000Y86594000D03*
%TO.N,/NFC {slash} PN7160 {slash} 0x28/NFC_ADR1*%
X20100000Y98800000D03*
X18600000Y98150000D03*
%TO.N,/NFC_IRQ*%
X20100000Y94100000D03*
X15250000Y87250000D03*
X47900000Y63932500D03*
%TO.N,/NFC_VEN*%
X8155200Y65868000D03*
X15300000Y86350000D03*
X23000000Y87310200D03*
X8800000Y86350000D03*
X21576000Y74801000D03*
X46229400Y63922000D03*
%TO.N,/NFC {slash} PN7160 {slash} 0x28/NFC_RXN*%
X23750000Y83100000D03*
X25467500Y90900000D03*
%TO.N,/NFC {slash} PN7160 {slash} 0x28/NFC_TX2*%
X23878900Y75225800D03*
X27687500Y86012500D03*
X29227500Y90900000D03*
%TO.N,/NFC {slash} PN7160 {slash} 0x28/NFC_TX1*%
X22044100Y83844100D03*
X30400000Y92400000D03*
X30082500Y87068800D03*
%TO.N,/OLED {slash} SSD1309 {slash} 0x3C/OLED_IREF*%
X21779100Y45184000D03*
X26581400Y48079000D03*
%TO.N,/Power + ESP32-C3/USB_ESD_D+*%
X47950000Y40700000D03*
X15300000Y45450000D03*
%TO.N,/Power + ESP32-C3/USB_ESD_D-*%
X46550000Y40700000D03*
X13200000Y49700000D03*
%TO.N,/Power + ESP32-C3/STRAP_GPIO8*%
X40702300Y66077300D03*
X44900000Y63916100D03*
%TO.N,/Power + ESP32-C3/BUCK_FB*%
X31350000Y63550000D03*
X33150000Y65600000D03*
%TO.N,/Power + ESP32-C3/STRAP_GPIO2*%
X50970000Y46440000D03*
X40798300Y58586000D03*
%TD*%
%TO.N,/+3V3*%
D16*
X17250000Y96130000D02*
X17250000Y98750000D01*
D17*
X14945900Y30000000D02*
X24920000Y30000000D01*
X41467200Y64201600D02*
X44236000Y66970400D01*
X44236000Y66970400D02*
X50670000Y66970400D01*
X24920000Y41000000D02*
X24920000Y43889000D01*
X24920000Y43889000D02*
X37687500Y43889000D01*
X14945900Y17321000D02*
X14945900Y30000000D01*
D16*
X17400000Y95980000D02*
X17250000Y96130000D01*
X17400000Y95980000D02*
X20100000Y95980000D01*
%TO.N,/Power + ESP32-C3/ESP_EN*%
D18*
X50700000Y66025100D02*
X54714000Y70039100D01*
X50700000Y63952100D02*
X50700000Y66025100D01*
%TO.N,GND*%
D16*
X28890300Y87312500D02*
X28890300Y87362500D01*
D19*
X29620500Y79579200D02*
X30570800Y79579200D01*
X23625100Y76000100D02*
X26310200Y78685200D01*
D16*
X28890300Y87362500D02*
X30439600Y88911800D01*
D19*
X28726500Y78685200D02*
X29620500Y79579200D01*
X30570800Y79579200D02*
X30650000Y79500000D01*
X30439600Y88911800D02*
X31071600Y88911800D01*
X31071600Y88911800D02*
X31121600Y88861800D01*
X30650000Y79500000D02*
X32850000Y79500000D01*
X26310200Y78685200D02*
X28726500Y78685200D01*
X21120500Y76000100D02*
X23625100Y76000100D01*
X39150000Y79500000D02*
X41350000Y79500000D01*
%TO.N,/OLED {slash} SSD1309 {slash} 0x3C/OLED_FB*%
D16*
X4950000Y78800000D02*
X8650000Y78800000D01*
X8650000Y78800000D02*
X8700000Y78850000D01*
%TO.N,/VSYS*%
D20*
X8314800Y90164800D02*
X8800000Y90650000D01*
D21*
X26839200Y64964200D02*
X27164200Y64964200D01*
D20*
X3562500Y90164800D02*
X3562500Y73357400D01*
X24787500Y55700000D02*
X29801000Y60713500D01*
X19741200Y55700000D02*
X24787500Y55700000D01*
X3562500Y90164800D02*
X8314800Y90164800D01*
D21*
X29801000Y62002400D02*
X29801000Y60713500D01*
D22*
X20334000Y42734000D02*
X21050000Y43450000D01*
D20*
X3562500Y73357400D02*
X11955700Y64964200D01*
D22*
X16250000Y42734000D02*
X20334000Y42734000D01*
D21*
X27164200Y64964200D02*
X28050000Y65850000D01*
D20*
X11955700Y64964200D02*
X26839200Y64964200D01*
D21*
X26839200Y64964200D02*
X29801000Y62002400D01*
%TO.N,/Power + ESP32-C3/USB_5V*%
D20*
X12195900Y58500000D02*
X12127100Y58431200D01*
X12127100Y58431200D02*
X12127100Y56320000D01*
X13647100Y54800000D02*
X17900000Y54800000D01*
X12127100Y56320000D02*
X13647100Y54800000D01*
%TO.N,/I2C_SDA*%
D18*
X27076500Y52458000D02*
X29208500Y50326000D01*
X18825700Y88950000D02*
X19051100Y88724600D01*
X38628500Y59746000D02*
X49350700Y59746000D01*
X19325000Y19604000D02*
X29721000Y30000000D01*
X6843500Y67606900D02*
X7426400Y67024000D01*
X11886000Y52458000D02*
X27076500Y52458000D01*
X7426400Y56917600D02*
X11886000Y52458000D01*
X49350700Y59746000D02*
X50900000Y61295300D01*
X29208500Y50326000D02*
X38628500Y59746000D01*
X15200000Y88950000D02*
X18825700Y88950000D01*
X29721000Y30000000D02*
X30000000Y30000000D01*
X29208500Y50326000D02*
X29208500Y47786000D01*
X7426400Y67024000D02*
X7426400Y56917600D01*
X19325000Y16533000D02*
X19325000Y19604000D01*
%TO.N,/I2C_SCL*%
X20145500Y19461000D02*
X22001000Y19461000D01*
X19041950Y45089950D02*
X21000000Y47048000D01*
X12177900Y51954000D02*
X19041950Y45089950D01*
X6673400Y57028000D02*
X11747400Y51954000D01*
X11747400Y51954000D02*
X12177900Y51954000D01*
X22001000Y19461000D02*
X32540000Y30000000D01*
%TO.N,/KEY_INT_N*%
X37412700Y40622000D02*
X39592700Y42802000D01*
X35080000Y41000000D02*
X35458000Y40622000D01*
X42035200Y42802000D02*
X42613200Y43380000D01*
X16951000Y11871000D02*
X35080000Y30000000D01*
X16765200Y11871000D02*
X16951000Y11871000D01*
X39592700Y42802000D02*
X42035200Y42802000D01*
X35458000Y40622000D02*
X37412700Y40622000D01*
%TO.N,/OLED {slash} SSD1309 {slash} 0x3C/OLED_12V5*%
X18859254Y50654000D02*
X24750000Y50654000D01*
X16702621Y48497367D02*
X18859254Y50654000D01*
D16*
X15400000Y49750000D02*
X15449988Y49750000D01*
X15449988Y49750000D02*
X16702621Y48497367D01*
%TO.N,/Power + ESP32-C3/VBUS*%
D18*
X5900000Y49450000D02*
X7900000Y49450000D01*
D21*
X12076200Y45474700D02*
X13203900Y46602400D01*
X7900000Y49450000D02*
X7900000Y46050000D01*
D18*
X7900000Y46050000D02*
X11500800Y46050000D01*
X11500800Y46050000D02*
X11840800Y45710000D01*
D21*
X7900000Y49450000D02*
X7900000Y50093000D01*
X13867400Y42246000D02*
X16341100Y39772300D01*
X12076200Y45474700D02*
X13867400Y43683500D01*
X13867400Y43683500D02*
X13867400Y42246000D01*
X13203900Y46602400D02*
X14239600Y46602400D01*
X12076200Y45710000D02*
X12076200Y45474700D01*
X44597500Y39772300D02*
X45500000Y40674800D01*
X7900000Y50093000D02*
X8204000Y50397000D01*
X11840800Y45710000D02*
X12076200Y45710000D01*
X16341100Y39772300D02*
X44597500Y39772300D01*
%TO.N,/NFC {slash} PN7160 {slash} 0x28/NFC_VDD18*%
D16*
X31400000Y96920000D02*
X33274400Y95045600D01*
X33274400Y95045600D02*
X33274400Y91407700D01*
X28187500Y100700000D02*
X28560000Y100700000D01*
D18*
X33274400Y91407700D02*
X35292300Y91407700D01*
D16*
X28560000Y100700000D02*
X31400000Y97860000D01*
%TO.N,/+3V0*%
D18*
X35021700Y42744000D02*
X36458700Y41307000D01*
X27100500Y42744000D02*
X35021700Y42744000D01*
%TO.N,/Power + ESP32-C3/USB_PRESENT_N*%
X51978000Y44072000D02*
X52250000Y43800000D01*
X40783600Y43482000D02*
X41374500Y43482000D01*
X41374500Y44072000D02*
X51978000Y44072000D01*
X41374500Y43482000D02*
X41374500Y44072000D01*
%TO.N,/Power + ESP32-C3/VBAT*%
D20*
X9926700Y57039000D02*
X13795700Y53170000D01*
X8310800Y57039000D02*
X9926700Y57039000D01*
%TO.N,Net-(U1-PROG)*%
D18*
X15754500Y56731000D02*
X16503500Y55982000D01*
X13105500Y56731000D02*
X15754500Y56731000D01*
%TO.N,/Keyboard {slash} breakaway {slash} 0x20/KEY_P0*%
X5621100Y10576000D02*
X5621100Y7436300D01*
X11709400Y1348000D02*
X21228000Y1348000D01*
X5621100Y7436300D02*
X11709400Y1348000D01*
X21228000Y1348000D02*
X22380000Y2500000D01*
X6916100Y11871000D02*
X5621100Y10576000D01*
%TO.N,/Keyboard {slash} breakaway {slash} 0x20/KEY_P1*%
X23768000Y3652000D02*
X24920000Y2500000D01*
X6027700Y7600900D02*
X9976600Y3652000D01*
X9976600Y3652000D02*
X23768000Y3652000D01*
X6892100Y10625000D02*
X6027700Y9760600D01*
X6027700Y9760600D02*
X6027700Y7600900D01*
%TO.N,/Keyboard {slash} breakaway {slash} 0x20/KEY_P2*%
X6457200Y8940400D02*
X6457200Y7800200D01*
X10179400Y4078000D02*
X25882000Y4078000D01*
X6457200Y7800200D02*
X10179400Y4078000D01*
X6897800Y9381000D02*
X6457200Y8940400D01*
X25882000Y4078000D02*
X27460000Y2500000D01*
%TO.N,/Keyboard {slash} breakaway {slash} 0x20/KEY_P3*%
X7116800Y8061000D02*
X10557800Y4620000D01*
X27880000Y4620000D02*
X30000000Y2500000D01*
X10557800Y4620000D02*
X27880000Y4620000D01*
%TO.N,/Keyboard {slash} breakaway {slash} 0x20/KEY_P4*%
X28465000Y6575000D02*
X32540000Y2500000D01*
X14800000Y6575000D02*
X28465000Y6575000D01*
%TO.N,/Keyboard {slash} breakaway {slash} 0x20/KEY_P5*%
X16217500Y8061000D02*
X29519000Y8061000D01*
X29519000Y8061000D02*
X35080000Y2500000D01*
%TO.N,/Keyboard {slash} breakaway {slash} 0x20/KEY_P6*%
X16201100Y9381000D02*
X30739000Y9381000D01*
X30739000Y9381000D02*
X37620000Y2500000D01*
%TO.N,/Power + ESP32-C3/BOOT_N*%
X38943400Y66068400D02*
X38715950Y65840950D01*
D16*
X38993400Y63506600D02*
X41100000Y61400000D01*
X38993400Y65563500D02*
X38993400Y63506600D01*
D18*
X38715950Y65840950D02*
X38993400Y65563500D01*
%TO.N,/OLED_PWR_EN*%
X17400000Y44500000D02*
X37400000Y44500000D01*
X3562500Y97815900D02*
X6435700Y97815900D01*
X6014300Y54155000D02*
X7745000Y54155000D01*
X6435700Y97815900D02*
X8288300Y95963300D01*
X49280000Y46300000D02*
X49400000Y46420000D01*
X39200000Y46300000D02*
X49280000Y46300000D01*
X7745000Y54155000D02*
X17400000Y44500000D01*
X37400000Y44500000D02*
X39200000Y46300000D01*
%TO.N,/NFC {slash} PN7160 {slash} 0x28/NFC_TVDD*%
D16*
X28287500Y91408800D02*
X28287500Y90900000D01*
D22*
X28287500Y90900000D02*
X28287500Y91337500D01*
D16*
X25899200Y93797100D02*
X28287500Y91408800D01*
D22*
X28287500Y91337500D02*
X30300000Y93350000D01*
D16*
X25899200Y102049200D02*
X26050000Y102200000D01*
D18*
X25899200Y95900800D02*
X25899200Y93797100D01*
D16*
X24527500Y92425400D02*
X25899200Y93797100D01*
X24527500Y90900000D02*
X24527500Y92425400D01*
X25899200Y95900800D02*
X25899200Y102049200D01*
%TO.N,/NFC {slash} PN7160 {slash} 0x28/NFC_ADR1*%
X18600000Y98150000D02*
X19250000Y98800000D01*
X19250000Y98800000D02*
X20100000Y98800000D01*
%TO.N,/NFC_IRQ*%
X15250000Y87250000D02*
X20100000Y87250000D01*
X20100000Y87250000D02*
X20100000Y94100000D01*
%TO.N,/NFC_VEN*%
X23000000Y86850000D02*
X23000000Y87310200D01*
D18*
X32483600Y60734000D02*
X43041400Y60734000D01*
X8155200Y65868000D02*
X19006200Y55017000D01*
D16*
X15800000Y86850000D02*
X23000000Y86850000D01*
D18*
X19006200Y55017000D02*
X26766600Y55017000D01*
X43041400Y60734000D02*
X46229400Y63922000D01*
X26766600Y55017000D02*
X32483600Y60734000D01*
D16*
X15300000Y86350000D02*
X15800000Y86850000D01*
%TO.N,/NFC {slash} PN7160 {slash} 0x28/NFC_TX2*%
X28250000Y89922500D02*
X29227500Y90900000D01*
X28250000Y86575000D02*
X28250000Y89922500D01*
X27687500Y86012500D02*
X28250000Y86575000D01*
%TO.N,/NFC {slash} PN7160 {slash} 0x28/NFC_TX1*%
D21*
X22044100Y83844100D02*
X26857800Y83844100D01*
X26857800Y83844100D02*
X30082500Y87068800D01*
%TO.N,/OLED {slash} SSD1309 {slash} 0x3C/OLED_IREF*%
D18*
X24674100Y48079000D02*
X26581400Y48079000D01*
X21779100Y45184000D02*
X24674100Y48079000D01*
%TO.N,/Power + ESP32-C3/BUCK_FB*%
D16*
X31350000Y63550000D02*
X31350000Y63800000D01*
X31350000Y63800000D02*
X33150000Y65600000D01*
%TO.N,/Power + ESP32-C3/STRAP_GPIO2*%
D18*
X40798300Y58586000D02*
X40798300Y56611700D01*
X40798300Y56611700D02*
X50970000Y46440000D01*
%TD*%
%TA.AperFunction,Conductor*%
%TO.N,GND*%
G36*
X18698691Y3282593D02*
G01*
X18734655Y3233093D01*
X18739500Y3202500D01*
X18739500Y1797500D01*
X18720593Y1739309D01*
X18671093Y1703345D01*
X18640500Y1698500D01*
X11895589Y1698500D01*
X11837398Y1717407D01*
X11825585Y1727496D01*
X10420585Y3132496D01*
X10392808Y3187013D01*
X10402379Y3247445D01*
X10445644Y3290710D01*
X10490589Y3301500D01*
X18640500Y3301500D01*
X18698691Y3282593D01*
G37*
%TD.AperFunction*%
%TA.AperFunction,Conductor*%
G36*
X59458691Y33881093D02*
G01*
X59494655Y33831593D01*
X59499500Y33801000D01*
X59499500Y4002436D01*
X59499381Y3997578D01*
X59482887Y3661839D01*
X59481934Y3652171D01*
X59432972Y3322097D01*
X59431077Y3312568D01*
X59349995Y2988869D01*
X59347175Y2979572D01*
X59234754Y2665379D01*
X59231036Y2656403D01*
X59088361Y2354742D01*
X59083781Y2346174D01*
X58912226Y2059951D01*
X58906828Y2051873D01*
X58708048Y1783850D01*
X58701885Y1776340D01*
X58477786Y1529084D01*
X58470916Y1522214D01*
X58223660Y1298115D01*
X58216150Y1291952D01*
X57948127Y1093172D01*
X57940049Y1087774D01*
X57653826Y916219D01*
X57645258Y911639D01*
X57343597Y768964D01*
X57334621Y765246D01*
X57020428Y652825D01*
X57011131Y650005D01*
X56687432Y568923D01*
X56677903Y567028D01*
X56347829Y518066D01*
X56338161Y517113D01*
X56002422Y500619D01*
X55997564Y500500D01*
X4002436Y500500D01*
X3997578Y500619D01*
X3661838Y517113D01*
X3652170Y518066D01*
X3322096Y567028D01*
X3312567Y568923D01*
X2988868Y650005D01*
X2979571Y652825D01*
X2665378Y765246D01*
X2656402Y768964D01*
X2354741Y911639D01*
X2346173Y916219D01*
X2059950Y1087774D01*
X2051872Y1093172D01*
X1783849Y1291952D01*
X1776339Y1298115D01*
X1593743Y1463610D01*
X1529078Y1522219D01*
X1522218Y1529079D01*
X1342383Y1727496D01*
X1298114Y1776340D01*
X1291951Y1783850D01*
X1124113Y2010153D01*
X1093169Y2051875D01*
X1087773Y2059951D01*
X1077217Y2077562D01*
X916216Y2346177D01*
X911638Y2354742D01*
X883901Y2413386D01*
X768961Y2656406D01*
X765245Y2665379D01*
X652820Y2979585D01*
X650008Y2988856D01*
X568919Y3312579D01*
X567029Y3322085D01*
X518063Y3652185D01*
X517113Y3661827D01*
X500619Y3997579D01*
X500500Y4002436D01*
X500500Y10622143D01*
X5270600Y10622143D01*
X5270600Y7390157D01*
X5289283Y7320431D01*
X5289283Y7320429D01*
X5294483Y7301018D01*
X5294484Y7301016D01*
X5294485Y7301013D01*
X5294486Y7301012D01*
X5340630Y7221088D01*
X11428931Y1132788D01*
X11428930Y1132788D01*
X11494187Y1067532D01*
X11494189Y1067530D01*
X11543102Y1039290D01*
X11574112Y1021386D01*
X11663256Y997500D01*
X11663258Y997500D01*
X21274142Y997500D01*
X21274144Y997500D01*
X21363288Y1021386D01*
X21443212Y1067530D01*
X21839292Y1463612D01*
X21893807Y1491388D01*
X21954238Y1481817D01*
X21957555Y1480127D01*
X21957563Y1480124D01*
X22122293Y1426599D01*
X22122297Y1426598D01*
X22293386Y1399500D01*
X22293389Y1399500D01*
X22466614Y1399500D01*
X22637702Y1426598D01*
X22637706Y1426599D01*
X22802438Y1480124D01*
X22802440Y1480126D01*
X22802445Y1480127D01*
X22956788Y1558768D01*
X23096928Y1660586D01*
X23219414Y1783072D01*
X23321232Y1923212D01*
X23399873Y2077555D01*
X23399874Y2077560D01*
X23399876Y2077562D01*
X23453401Y2242294D01*
X23453402Y2242298D01*
X23480500Y2413386D01*
X23480500Y2586615D01*
X23453402Y2757703D01*
X23453401Y2757707D01*
X23399876Y2922439D01*
X23399874Y2922442D01*
X23399873Y2922443D01*
X23399873Y2922445D01*
X23321232Y3076788D01*
X23272175Y3144309D01*
X23253267Y3202499D01*
X23272174Y3260690D01*
X23321674Y3296654D01*
X23352267Y3301500D01*
X23581810Y3301500D01*
X23640001Y3282593D01*
X23651814Y3272504D01*
X23883609Y3040709D01*
X23911386Y2986192D01*
X23901820Y2925771D01*
X23900130Y2922454D01*
X23900123Y2922439D01*
X23846598Y2757707D01*
X23846597Y2757703D01*
X23819500Y2586615D01*
X23819500Y2413386D01*
X23846597Y2242298D01*
X23846598Y2242294D01*
X23900123Y2077562D01*
X23900125Y2077559D01*
X23913212Y2051873D01*
X23978768Y1923212D01*
X24080586Y1783072D01*
X24203072Y1660586D01*
X24343212Y1558768D01*
X24497555Y1480127D01*
X24497557Y1480127D01*
X24497558Y1480126D01*
X24497561Y1480124D01*
X24662293Y1426599D01*
X24662297Y1426598D01*
X24833386Y1399500D01*
X24833389Y1399500D01*
X25006614Y1399500D01*
X25177702Y1426598D01*
X25177706Y1426599D01*
X25342438Y1480124D01*
X25342440Y1480126D01*
X25342445Y1480127D01*
X25496788Y1558768D01*
X25636928Y1660586D01*
X25759414Y1783072D01*
X25861232Y1923212D01*
X25939873Y2077555D01*
X25939874Y2077560D01*
X25939876Y2077562D01*
X25993401Y2242294D01*
X25993402Y2242298D01*
X26020500Y2413386D01*
X26020500Y2586615D01*
X25993402Y2757703D01*
X25993401Y2757707D01*
X25939876Y2922439D01*
X25939874Y2922442D01*
X25939873Y2922443D01*
X25939873Y2922445D01*
X25861232Y3076788D01*
X25759414Y3216928D01*
X25636928Y3339414D01*
X25496788Y3441232D01*
X25496787Y3441233D01*
X25496785Y3441234D01*
X25342441Y3519875D01*
X25342438Y3519877D01*
X25297905Y3534346D01*
X25248405Y3570310D01*
X25229498Y3628500D01*
X25248406Y3686691D01*
X25297906Y3722655D01*
X25328498Y3727500D01*
X25695810Y3727500D01*
X25754001Y3708593D01*
X25765814Y3698504D01*
X26423609Y3040709D01*
X26451386Y2986192D01*
X26441820Y2925771D01*
X26440130Y2922454D01*
X26440123Y2922439D01*
X26386598Y2757707D01*
X26386597Y2757703D01*
X26359500Y2586615D01*
X26359500Y2413386D01*
X26386597Y2242298D01*
X26386598Y2242294D01*
X26440123Y2077562D01*
X26440125Y2077559D01*
X26453212Y2051873D01*
X26518768Y1923212D01*
X26620586Y1783072D01*
X26743072Y1660586D01*
X26883212Y1558768D01*
X27037555Y1480127D01*
X27037557Y1480127D01*
X27037558Y1480126D01*
X27037561Y1480124D01*
X27202293Y1426599D01*
X27202297Y1426598D01*
X27373386Y1399500D01*
X27373389Y1399500D01*
X27546614Y1399500D01*
X27717702Y1426598D01*
X27717706Y1426599D01*
X27882438Y1480124D01*
X27882440Y1480126D01*
X27882445Y1480127D01*
X28036788Y1558768D01*
X28176928Y1660586D01*
X28299414Y1783072D01*
X28401232Y1923212D01*
X28479873Y2077555D01*
X28479874Y2077560D01*
X28479876Y2077562D01*
X28533401Y2242294D01*
X28533402Y2242298D01*
X28560500Y2413386D01*
X28560500Y2586615D01*
X28533402Y2757703D01*
X28533401Y2757707D01*
X28479876Y2922439D01*
X28479874Y2922442D01*
X28479873Y2922443D01*
X28479873Y2922445D01*
X28401232Y3076788D01*
X28299414Y3216928D01*
X28176928Y3339414D01*
X28036788Y3441232D01*
X28036787Y3441233D01*
X28036785Y3441234D01*
X27882441Y3519875D01*
X27882438Y3519877D01*
X27717706Y3573402D01*
X27717702Y3573403D01*
X27546614Y3600500D01*
X27546611Y3600500D01*
X27373389Y3600500D01*
X27373386Y3600500D01*
X27202297Y3573403D01*
X27202293Y3573402D01*
X27037561Y3519877D01*
X27037546Y3519870D01*
X27034229Y3518180D01*
X26973795Y3508616D01*
X26919291Y3536391D01*
X26355186Y4100496D01*
X26327409Y4155013D01*
X26336980Y4215445D01*
X26380245Y4258710D01*
X26425190Y4269500D01*
X27693810Y4269500D01*
X27752001Y4250593D01*
X27763814Y4240504D01*
X28963609Y3040709D01*
X28991386Y2986192D01*
X28981820Y2925771D01*
X28980130Y2922454D01*
X28980123Y2922439D01*
X28926598Y2757707D01*
X28926597Y2757703D01*
X28899500Y2586615D01*
X28899500Y2413386D01*
X28926597Y2242298D01*
X28926598Y2242294D01*
X28980123Y2077562D01*
X28980125Y2077559D01*
X28993212Y2051873D01*
X29058768Y1923212D01*
X29160586Y1783072D01*
X29283072Y1660586D01*
X29423212Y1558768D01*
X29577555Y1480127D01*
X29577557Y1480127D01*
X29577558Y1480126D01*
X29577561Y1480124D01*
X29742293Y1426599D01*
X29742297Y1426598D01*
X29913386Y1399500D01*
X29913389Y1399500D01*
X30086614Y1399500D01*
X30257702Y1426598D01*
X30257706Y1426599D01*
X30422438Y1480124D01*
X30422440Y1480126D01*
X30422445Y1480127D01*
X30576788Y1558768D01*
X30716928Y1660586D01*
X30839414Y1783072D01*
X30941232Y1923212D01*
X31019873Y2077555D01*
X31019874Y2077560D01*
X31019876Y2077562D01*
X31073401Y2242294D01*
X31073402Y2242298D01*
X31100500Y2413386D01*
X31100500Y2586615D01*
X31073402Y2757703D01*
X31073401Y2757707D01*
X31019876Y2922439D01*
X31019874Y2922442D01*
X31019873Y2922443D01*
X31019873Y2922445D01*
X30941232Y3076788D01*
X30839414Y3216928D01*
X30716928Y3339414D01*
X30576788Y3441232D01*
X30576787Y3441233D01*
X30576785Y3441234D01*
X30422441Y3519875D01*
X30422438Y3519877D01*
X30257706Y3573402D01*
X30257702Y3573403D01*
X30086614Y3600500D01*
X30086611Y3600500D01*
X29913389Y3600500D01*
X29913386Y3600500D01*
X29742297Y3573403D01*
X29742293Y3573402D01*
X29577561Y3519877D01*
X29577546Y3519870D01*
X29574229Y3518180D01*
X29513795Y3508616D01*
X29459291Y3536391D01*
X28780237Y4215445D01*
X28095212Y4900470D01*
X28015288Y4946614D01*
X27926144Y4970500D01*
X27926142Y4970500D01*
X10743990Y4970500D01*
X10685799Y4989407D01*
X10673986Y4999496D01*
X9019425Y6654057D01*
X14199500Y6654057D01*
X14199500Y6495943D01*
X14240423Y6343216D01*
X14319480Y6206284D01*
X14431284Y6094480D01*
X14568216Y6015423D01*
X14720943Y5974500D01*
X14720945Y5974500D01*
X14879055Y5974500D01*
X14879057Y5974500D01*
X15031784Y6015423D01*
X15168716Y6094480D01*
X15269741Y6195506D01*
X15324256Y6223281D01*
X15339743Y6224500D01*
X28278810Y6224500D01*
X28337001Y6205593D01*
X28348814Y6195504D01*
X31503610Y3040709D01*
X31531387Y2986192D01*
X31521816Y2925761D01*
X31520127Y2922448D01*
X31520123Y2922439D01*
X31466598Y2757707D01*
X31466597Y2757703D01*
X31439500Y2586615D01*
X31439500Y2413386D01*
X31466597Y2242298D01*
X31466598Y2242294D01*
X31520123Y2077562D01*
X31520125Y2077559D01*
X31533212Y2051873D01*
X31598768Y1923212D01*
X31700586Y1783072D01*
X31823072Y1660586D01*
X31963212Y1558768D01*
X32117555Y1480127D01*
X32117557Y1480127D01*
X32117558Y1480126D01*
X32117561Y1480124D01*
X32282293Y1426599D01*
X32282297Y1426598D01*
X32453386Y1399500D01*
X32453389Y1399500D01*
X32626614Y1399500D01*
X32797702Y1426598D01*
X32797706Y1426599D01*
X32962438Y1480124D01*
X32962440Y1480126D01*
X32962445Y1480127D01*
X33116788Y1558768D01*
X33256928Y1660586D01*
X33379414Y1783072D01*
X33481232Y1923212D01*
X33559873Y2077555D01*
X33559874Y2077560D01*
X33559876Y2077562D01*
X33613401Y2242294D01*
X33613402Y2242298D01*
X33640500Y2413386D01*
X33640500Y2586615D01*
X33613402Y2757703D01*
X33613401Y2757707D01*
X33559876Y2922439D01*
X33559874Y2922442D01*
X33559873Y2922443D01*
X33559873Y2922445D01*
X33481232Y3076788D01*
X33379414Y3216928D01*
X33256928Y3339414D01*
X33116788Y3441232D01*
X33116787Y3441233D01*
X33116785Y3441234D01*
X32962441Y3519875D01*
X32962438Y3519877D01*
X32797706Y3573402D01*
X32797702Y3573403D01*
X32626614Y3600500D01*
X32626611Y3600500D01*
X32453389Y3600500D01*
X32453386Y3600500D01*
X32282297Y3573403D01*
X32282293Y3573402D01*
X32117561Y3519877D01*
X32117552Y3519873D01*
X32114239Y3518184D01*
X32053807Y3508613D01*
X31999291Y3536390D01*
X30536185Y4999496D01*
X28680212Y6855470D01*
X28600288Y6901614D01*
X28511144Y6925500D01*
X28511142Y6925500D01*
X15339743Y6925500D01*
X15281552Y6944407D01*
X15269745Y6954491D01*
X15168716Y7055520D01*
X15031784Y7134577D01*
X14879057Y7175500D01*
X14720943Y7175500D01*
X14568216Y7134577D01*
X14431284Y7055520D01*
X14319480Y6943716D01*
X14240423Y6806784D01*
X14199500Y6654057D01*
X9019425Y6654057D01*
X7746296Y7927186D01*
X7718519Y7981703D01*
X7717300Y7997190D01*
X7717300Y8140056D01*
X7717300Y8140057D01*
X7676377Y8292784D01*
X7597320Y8429716D01*
X7485516Y8541520D01*
X7348584Y8620577D01*
X7195857Y8661500D01*
X7192263Y8662463D01*
X7140948Y8695787D01*
X7119022Y8752909D01*
X7134858Y8812009D01*
X7168383Y8843824D01*
X7266516Y8900480D01*
X7378320Y9012284D01*
X7457377Y9149216D01*
X7498300Y9301943D01*
X7498300Y9460057D01*
X15600600Y9460057D01*
X15600600Y9301943D01*
X15641523Y9149216D01*
X15720580Y9012284D01*
X15832384Y8900480D01*
X15969316Y8821423D01*
X15995417Y8814430D01*
X16046730Y8781106D01*
X16068657Y8723984D01*
X16052821Y8664884D01*
X16005271Y8626379D01*
X15995418Y8623177D01*
X15985718Y8620578D01*
X15985716Y8620578D01*
X15985716Y8620577D01*
X15848784Y8541520D01*
X15736980Y8429716D01*
X15657923Y8292784D01*
X15617000Y8140057D01*
X15617000Y7981943D01*
X15657923Y7829216D01*
X15736980Y7692284D01*
X15848784Y7580480D01*
X15985716Y7501423D01*
X16138443Y7460500D01*
X16138445Y7460500D01*
X16296555Y7460500D01*
X16296557Y7460500D01*
X16449284Y7501423D01*
X16586216Y7580480D01*
X16687241Y7681506D01*
X16741756Y7709281D01*
X16757243Y7710500D01*
X29332810Y7710500D01*
X29391001Y7691593D01*
X29402814Y7681504D01*
X34043609Y3040709D01*
X34071386Y2986192D01*
X34061820Y2925771D01*
X34060130Y2922454D01*
X34060123Y2922439D01*
X34006598Y2757707D01*
X34006597Y2757703D01*
X33979500Y2586615D01*
X33979500Y2413386D01*
X34006597Y2242298D01*
X34006598Y2242294D01*
X34060123Y2077562D01*
X34060125Y2077559D01*
X34073212Y2051873D01*
X34138768Y1923212D01*
X34240586Y1783072D01*
X34363072Y1660586D01*
X34503212Y1558768D01*
X34657555Y1480127D01*
X34657557Y1480127D01*
X34657558Y1480126D01*
X34657561Y1480124D01*
X34822293Y1426599D01*
X34822297Y1426598D01*
X34993386Y1399500D01*
X34993389Y1399500D01*
X35166614Y1399500D01*
X35337702Y1426598D01*
X35337706Y1426599D01*
X35502438Y1480124D01*
X35502440Y1480126D01*
X35502445Y1480127D01*
X35656788Y1558768D01*
X35796928Y1660586D01*
X35919414Y1783072D01*
X36021232Y1923212D01*
X36099873Y2077555D01*
X36099874Y2077560D01*
X36099876Y2077562D01*
X36153401Y2242294D01*
X36153402Y2242298D01*
X36180500Y2413386D01*
X36180500Y2586615D01*
X36153402Y2757703D01*
X36153401Y2757707D01*
X36099876Y2922439D01*
X36099874Y2922442D01*
X36099873Y2922443D01*
X36099873Y2922445D01*
X36021232Y3076788D01*
X35919414Y3216928D01*
X35796928Y3339414D01*
X35656788Y3441232D01*
X35656787Y3441233D01*
X35656785Y3441234D01*
X35502441Y3519875D01*
X35502438Y3519877D01*
X35337706Y3573402D01*
X35337702Y3573403D01*
X35166614Y3600500D01*
X35166611Y3600500D01*
X34993389Y3600500D01*
X34993386Y3600500D01*
X34822297Y3573403D01*
X34822293Y3573402D01*
X34657561Y3519877D01*
X34657546Y3519870D01*
X34654229Y3518180D01*
X34593795Y3508616D01*
X34539291Y3536391D01*
X33076186Y4999496D01*
X29734212Y8341470D01*
X29654288Y8387614D01*
X29565144Y8411500D01*
X29565142Y8411500D01*
X16757243Y8411500D01*
X16699052Y8430407D01*
X16687245Y8440491D01*
X16586216Y8541520D01*
X16449284Y8620577D01*
X16449281Y8620578D01*
X16423181Y8627572D01*
X16371867Y8660897D01*
X16349942Y8718019D01*
X16365779Y8777119D01*
X16413330Y8815623D01*
X16423169Y8818821D01*
X16432884Y8821423D01*
X16569816Y8900480D01*
X16670841Y9001506D01*
X16725356Y9029281D01*
X16740843Y9030500D01*
X30552810Y9030500D01*
X30611001Y9011593D01*
X30622814Y9001504D01*
X36583609Y3040709D01*
X36611386Y2986192D01*
X36601820Y2925771D01*
X36600130Y2922454D01*
X36600123Y2922439D01*
X36546598Y2757707D01*
X36546597Y2757703D01*
X36519500Y2586615D01*
X36519500Y2413386D01*
X36546597Y2242298D01*
X36546598Y2242294D01*
X36600123Y2077562D01*
X36600125Y2077559D01*
X36613212Y2051873D01*
X36678768Y1923212D01*
X36780586Y1783072D01*
X36903072Y1660586D01*
X37043212Y1558768D01*
X37197555Y1480127D01*
X37197557Y1480127D01*
X37197558Y1480126D01*
X37197561Y1480124D01*
X37362293Y1426599D01*
X37362297Y1426598D01*
X37533386Y1399500D01*
X37533389Y1399500D01*
X37706614Y1399500D01*
X37877702Y1426598D01*
X37877706Y1426599D01*
X38042438Y1480124D01*
X38042440Y1480126D01*
X38042445Y1480127D01*
X38196788Y1558768D01*
X38336928Y1660586D01*
X38459414Y1783072D01*
X38561232Y1923212D01*
X38639873Y2077555D01*
X38639874Y2077560D01*
X38639876Y2077562D01*
X38693401Y2242294D01*
X38693402Y2242298D01*
X38720500Y2413386D01*
X38720500Y2586615D01*
X39059500Y2586615D01*
X39059500Y2413386D01*
X39086597Y2242298D01*
X39086598Y2242294D01*
X39140123Y2077562D01*
X39140125Y2077559D01*
X39153212Y2051873D01*
X39218768Y1923212D01*
X39320586Y1783072D01*
X39443072Y1660586D01*
X39583212Y1558768D01*
X39737555Y1480127D01*
X39737557Y1480127D01*
X39737558Y1480126D01*
X39737561Y1480124D01*
X39902293Y1426599D01*
X39902297Y1426598D01*
X40073386Y1399500D01*
X40073389Y1399500D01*
X40246614Y1399500D01*
X40417702Y1426598D01*
X40417706Y1426599D01*
X40582438Y1480124D01*
X40582440Y1480126D01*
X40582445Y1480127D01*
X40736788Y1558768D01*
X40876928Y1660586D01*
X40999414Y1783072D01*
X41101232Y1923212D01*
X41179873Y2077555D01*
X41179874Y2077560D01*
X41179876Y2077562D01*
X41233401Y2242294D01*
X41233402Y2242298D01*
X41260500Y2413386D01*
X41260500Y2586615D01*
X41233402Y2757703D01*
X41233401Y2757707D01*
X41179876Y2922439D01*
X41179874Y2922442D01*
X41179873Y2922443D01*
X41179873Y2922445D01*
X41101232Y3076788D01*
X40999414Y3216928D01*
X40876928Y3339414D01*
X40736788Y3441232D01*
X40736787Y3441233D01*
X40736785Y3441234D01*
X40582441Y3519875D01*
X40582438Y3519877D01*
X40417706Y3573402D01*
X40417702Y3573403D01*
X40246614Y3600500D01*
X40246611Y3600500D01*
X40073389Y3600500D01*
X40073386Y3600500D01*
X39902297Y3573403D01*
X39902293Y3573402D01*
X39737561Y3519877D01*
X39737558Y3519875D01*
X39583214Y3441234D01*
X39443073Y3339415D01*
X39320585Y3216927D01*
X39218766Y3076786D01*
X39140125Y2922442D01*
X39140123Y2922439D01*
X39086598Y2757707D01*
X39086597Y2757703D01*
X39059500Y2586615D01*
X38720500Y2586615D01*
X38693402Y2757703D01*
X38693401Y2757707D01*
X38639876Y2922439D01*
X38639874Y2922442D01*
X38639873Y2922443D01*
X38639873Y2922445D01*
X38561232Y3076788D01*
X38459414Y3216928D01*
X38336928Y3339414D01*
X38196788Y3441232D01*
X38196787Y3441233D01*
X38196785Y3441234D01*
X38042441Y3519875D01*
X38042438Y3519877D01*
X37877706Y3573402D01*
X37877702Y3573403D01*
X37706614Y3600500D01*
X37706611Y3600500D01*
X37533389Y3600500D01*
X37533386Y3600500D01*
X37362297Y3573403D01*
X37362293Y3573402D01*
X37197561Y3519877D01*
X37197546Y3519870D01*
X37194229Y3518180D01*
X37133795Y3508616D01*
X37079291Y3536391D01*
X34119737Y6495945D01*
X30954212Y9661470D01*
X30874288Y9707614D01*
X30785144Y9731500D01*
X30785142Y9731500D01*
X16740843Y9731500D01*
X16682652Y9750407D01*
X16670845Y9760491D01*
X16569816Y9861520D01*
X16432884Y9940577D01*
X16280157Y9981500D01*
X16122043Y9981500D01*
X15969316Y9940577D01*
X15832384Y9861520D01*
X15720580Y9749716D01*
X15641523Y9612784D01*
X15600600Y9460057D01*
X7498300Y9460057D01*
X7457377Y9612784D01*
X7378320Y9749716D01*
X7266516Y9861520D01*
X7266513Y9861522D01*
X7167114Y9918910D01*
X7126173Y9964379D01*
X7119777Y10025229D01*
X7150370Y10078217D01*
X7167109Y10090380D01*
X7260816Y10144480D01*
X7372620Y10256284D01*
X7451677Y10393216D01*
X7492600Y10545943D01*
X7492600Y10704057D01*
X7451677Y10856784D01*
X7372620Y10993716D01*
X7260816Y11105520D01*
X7174530Y11155337D01*
X7133591Y11200805D01*
X7127195Y11261655D01*
X7157788Y11314643D01*
X7174525Y11326805D01*
X7284816Y11390480D01*
X7396620Y11502284D01*
X7475677Y11639216D01*
X7516600Y11791943D01*
X7516600Y11950057D01*
X16164700Y11950057D01*
X16164700Y11791943D01*
X16205623Y11639216D01*
X16284680Y11502284D01*
X16396484Y11390480D01*
X16533416Y11311423D01*
X16686143Y11270500D01*
X16686145Y11270500D01*
X16844255Y11270500D01*
X16844257Y11270500D01*
X16996984Y11311423D01*
X17133916Y11390480D01*
X17245720Y11502284D01*
X17320066Y11631057D01*
X18703300Y11631057D01*
X18703300Y11472943D01*
X18744223Y11320216D01*
X18823280Y11183284D01*
X18935084Y11071480D01*
X19072016Y10992423D01*
X19224743Y10951500D01*
X19224745Y10951500D01*
X19382855Y10951500D01*
X19382857Y10951500D01*
X19535584Y10992423D01*
X19672516Y11071480D01*
X19784320Y11183284D01*
X19863377Y11320216D01*
X19904300Y11472943D01*
X19904300Y11631057D01*
X19863377Y11783784D01*
X19784320Y11920716D01*
X19672516Y12032520D01*
X19535584Y12111577D01*
X19382857Y12152500D01*
X19224743Y12152500D01*
X19072016Y12111577D01*
X18935084Y12032520D01*
X18823280Y11920716D01*
X18744223Y11783784D01*
X18703300Y11631057D01*
X17320066Y11631057D01*
X17324777Y11639216D01*
X17358129Y11763693D01*
X17383750Y11808070D01*
X34539293Y28963613D01*
X34593808Y28991388D01*
X34654237Y28981818D01*
X34654243Y28981815D01*
X34654244Y28981814D01*
X34657553Y28980128D01*
X34657563Y28980124D01*
X34822293Y28926599D01*
X34822297Y28926598D01*
X34993386Y28899500D01*
X34993389Y28899500D01*
X35166614Y28899500D01*
X35337702Y28926598D01*
X35337706Y28926599D01*
X35502438Y28980124D01*
X35502440Y28980126D01*
X35502445Y28980127D01*
X35656788Y29058768D01*
X35796928Y29160586D01*
X35919414Y29283072D01*
X36021232Y29423212D01*
X36099873Y29577555D01*
X36099874Y29577560D01*
X36099876Y29577562D01*
X36153401Y29742294D01*
X36153402Y29742298D01*
X36180500Y29913386D01*
X36180500Y30086615D01*
X36153402Y30257703D01*
X36153401Y30257707D01*
X36099876Y30422439D01*
X36099874Y30422442D01*
X36099873Y30422443D01*
X36099873Y30422445D01*
X36021232Y30576788D01*
X35919414Y30716928D01*
X35796928Y30839414D01*
X35656788Y30941232D01*
X35656787Y30941233D01*
X35656785Y30941234D01*
X35502441Y31019875D01*
X35502438Y31019877D01*
X35337706Y31073402D01*
X35337702Y31073403D01*
X35166614Y31100500D01*
X35166611Y31100500D01*
X34993389Y31100500D01*
X34993386Y31100500D01*
X34822297Y31073403D01*
X34822293Y31073402D01*
X34657561Y31019877D01*
X34657558Y31019875D01*
X34503214Y30941234D01*
X34363073Y30839415D01*
X34240585Y30716927D01*
X34138766Y30576786D01*
X34060125Y30422442D01*
X34060123Y30422439D01*
X34006598Y30257707D01*
X34006597Y30257703D01*
X33979500Y30086615D01*
X33979500Y29913386D01*
X34006597Y29742298D01*
X34006598Y29742294D01*
X34060123Y29577562D01*
X34060127Y29577553D01*
X34061815Y29574241D01*
X34071386Y29513809D01*
X34043609Y29459293D01*
X17051525Y12467209D01*
X16997008Y12439432D01*
X16955898Y12441586D01*
X16944655Y12444599D01*
X16844257Y12471500D01*
X16686143Y12471500D01*
X16533416Y12430577D01*
X16396484Y12351520D01*
X16284680Y12239716D01*
X16205623Y12102784D01*
X16164700Y11950057D01*
X7516600Y11950057D01*
X7475677Y12102784D01*
X7396620Y12239716D01*
X7284816Y12351520D01*
X7147884Y12430577D01*
X6995157Y12471500D01*
X6837043Y12471500D01*
X6684316Y12430577D01*
X6547384Y12351520D01*
X6435580Y12239716D01*
X6356523Y12102784D01*
X6315600Y11950056D01*
X6315600Y11807191D01*
X6296693Y11749000D01*
X6286604Y11737188D01*
X5340632Y10791215D01*
X5340630Y10791213D01*
X5340630Y10791212D01*
X5294486Y10711288D01*
X5270600Y10622143D01*
X500500Y10622143D01*
X500500Y16612057D01*
X18724500Y16612057D01*
X18724500Y16453943D01*
X18765423Y16301216D01*
X18844480Y16164284D01*
X18956284Y16052480D01*
X19093216Y15973423D01*
X19245943Y15932500D01*
X19245945Y15932500D01*
X19404055Y15932500D01*
X19404057Y15932500D01*
X19556784Y15973423D01*
X19693716Y16052480D01*
X19805520Y16164284D01*
X19884577Y16301216D01*
X19925500Y16453943D01*
X19925500Y16612057D01*
X19884577Y16764784D01*
X19805520Y16901716D01*
X19704494Y17002742D01*
X19676719Y17057256D01*
X19675500Y17072743D01*
X19675500Y18867484D01*
X19694407Y18925675D01*
X19743907Y18961639D01*
X19805093Y18961639D01*
X19823993Y18953225D01*
X19913716Y18901423D01*
X20066443Y18860500D01*
X20066445Y18860500D01*
X20224555Y18860500D01*
X20224557Y18860500D01*
X20377284Y18901423D01*
X20514216Y18980480D01*
X20615241Y19081506D01*
X20669756Y19109281D01*
X20685243Y19110500D01*
X22047142Y19110500D01*
X22047144Y19110500D01*
X22136288Y19134386D01*
X22146912Y19140520D01*
X22216212Y19180530D01*
X31999293Y28963613D01*
X32053808Y28991388D01*
X32114237Y28981818D01*
X32114243Y28981815D01*
X32114244Y28981814D01*
X32117553Y28980128D01*
X32117563Y28980124D01*
X32282293Y28926599D01*
X32282297Y28926598D01*
X32453386Y28899500D01*
X32453389Y28899500D01*
X32626614Y28899500D01*
X32797702Y28926598D01*
X32797706Y28926599D01*
X32962438Y28980124D01*
X32962440Y28980126D01*
X32962445Y28980127D01*
X33116788Y29058768D01*
X33256928Y29160586D01*
X33379414Y29283072D01*
X33481232Y29423212D01*
X33559873Y29577555D01*
X33559874Y29577560D01*
X33559876Y29577562D01*
X33613401Y29742294D01*
X33613402Y29742298D01*
X33640500Y29913386D01*
X33640500Y30086615D01*
X33613402Y30257703D01*
X33613401Y30257707D01*
X33559876Y30422439D01*
X33559874Y30422442D01*
X33559873Y30422443D01*
X33559873Y30422445D01*
X33481232Y30576788D01*
X33379414Y30716928D01*
X33256928Y30839414D01*
X33116788Y30941232D01*
X33116787Y30941233D01*
X33116785Y30941234D01*
X32962441Y31019875D01*
X32962438Y31019877D01*
X32797706Y31073402D01*
X32797702Y31073403D01*
X32626614Y31100500D01*
X32626611Y31100500D01*
X32453389Y31100500D01*
X32453386Y31100500D01*
X32282297Y31073403D01*
X32282293Y31073402D01*
X32117561Y31019877D01*
X32117558Y31019875D01*
X31963214Y30941234D01*
X31823073Y30839415D01*
X31700585Y30716927D01*
X31598766Y30576786D01*
X31520125Y30422442D01*
X31520123Y30422439D01*
X31466598Y30257707D01*
X31466597Y30257703D01*
X31439500Y30086615D01*
X31439500Y29913386D01*
X31466597Y29742298D01*
X31466598Y29742294D01*
X31520123Y29577562D01*
X31520127Y29577553D01*
X31521815Y29574241D01*
X31531386Y29513809D01*
X31503609Y29459293D01*
X21884814Y19840496D01*
X21830297Y19812719D01*
X21814810Y19811500D01*
X20685243Y19811500D01*
X20627052Y19830407D01*
X20615245Y19840491D01*
X20514216Y19941520D01*
X20400243Y20007322D01*
X20359304Y20052790D01*
X20352908Y20113640D01*
X20379739Y20163059D01*
X29277842Y29061162D01*
X29332357Y29088937D01*
X29392789Y29079366D01*
X29406031Y29071251D01*
X29423212Y29058768D01*
X29577555Y28980127D01*
X29577557Y28980127D01*
X29577558Y28980126D01*
X29577561Y28980124D01*
X29742293Y28926599D01*
X29742297Y28926598D01*
X29913386Y28899500D01*
X29913389Y28899500D01*
X30086614Y28899500D01*
X30257702Y28926598D01*
X30257706Y28926599D01*
X30422438Y28980124D01*
X30422440Y28980126D01*
X30422445Y28980127D01*
X30576788Y29058768D01*
X30716928Y29160586D01*
X30839414Y29283072D01*
X30941232Y29423212D01*
X31019873Y29577555D01*
X31019874Y29577560D01*
X31019876Y29577562D01*
X31073401Y29742294D01*
X31073402Y29742298D01*
X31100500Y29913386D01*
X31100500Y30086615D01*
X31073402Y30257703D01*
X31073401Y30257707D01*
X31019876Y30422439D01*
X31019874Y30422442D01*
X31019873Y30422443D01*
X31019873Y30422445D01*
X30941232Y30576788D01*
X30839414Y30716928D01*
X30716928Y30839414D01*
X30576788Y30941232D01*
X30576787Y30941233D01*
X30576785Y30941234D01*
X30422441Y31019875D01*
X30422438Y31019877D01*
X30257706Y31073402D01*
X30257702Y31073403D01*
X30086614Y31100500D01*
X30086611Y31100500D01*
X29913389Y31100500D01*
X29913386Y31100500D01*
X29742297Y31073403D01*
X29742293Y31073402D01*
X29577561Y31019877D01*
X29577558Y31019875D01*
X29423214Y30941234D01*
X29283073Y30839415D01*
X29160585Y30716927D01*
X29058766Y30576786D01*
X28980125Y30422442D01*
X28980123Y30422439D01*
X28926598Y30257707D01*
X28926597Y30257703D01*
X28899500Y30086615D01*
X28899500Y29913386D01*
X28924314Y29756712D01*
X28914742Y29696280D01*
X28896537Y29671221D01*
X19388379Y20163061D01*
X19044530Y19819212D01*
X18999645Y19741469D01*
X18999155Y19740622D01*
X18998386Y19739290D01*
X18998385Y19739285D01*
X18974500Y19650143D01*
X18974500Y17072743D01*
X18955593Y17014552D01*
X18945509Y17002746D01*
X18844480Y16901716D01*
X18765423Y16764784D01*
X18724500Y16612057D01*
X500500Y16612057D01*
X500500Y17400057D01*
X14345400Y17400057D01*
X14345400Y17241943D01*
X14386323Y17089216D01*
X14465380Y16952284D01*
X14577184Y16840480D01*
X14714116Y16761423D01*
X14866843Y16720500D01*
X14866845Y16720500D01*
X15024955Y16720500D01*
X15024957Y16720500D01*
X15177684Y16761423D01*
X15314616Y16840480D01*
X15426420Y16952284D01*
X15505477Y17089216D01*
X15546400Y17241943D01*
X15546400Y17400057D01*
X15505477Y17552784D01*
X15459663Y17632138D01*
X15446400Y17681637D01*
X15446400Y29400500D01*
X15465307Y29458691D01*
X15514807Y29494655D01*
X15545400Y29499500D01*
X23720500Y29499500D01*
X23778691Y29480593D01*
X23814655Y29431093D01*
X23819500Y29400500D01*
X23819500Y29125328D01*
X23819501Y29125316D01*
X23834033Y29052264D01*
X23834035Y29052258D01*
X23889397Y28969401D01*
X23889400Y28969398D01*
X23953455Y28926599D01*
X23972260Y28914034D01*
X24027808Y28902985D01*
X24045315Y28899502D01*
X24045320Y28899502D01*
X24045326Y28899500D01*
X24045327Y28899500D01*
X25794673Y28899500D01*
X25794674Y28899500D01*
X25867740Y28914034D01*
X25950601Y28969399D01*
X26005966Y29052260D01*
X26020500Y29125326D01*
X26020500Y30874674D01*
X26005966Y30947740D01*
X25957768Y31019875D01*
X25950602Y31030600D01*
X25950599Y31030603D01*
X25867742Y31085965D01*
X25867740Y31085966D01*
X25867737Y31085967D01*
X25867736Y31085967D01*
X25794684Y31100499D01*
X25794674Y31100500D01*
X24045326Y31100500D01*
X24045325Y31100500D01*
X24045315Y31100499D01*
X23972263Y31085967D01*
X23972257Y31085965D01*
X23889400Y31030603D01*
X23889397Y31030600D01*
X23834035Y30947743D01*
X23834033Y30947737D01*
X23819501Y30874685D01*
X23819500Y30874673D01*
X23819500Y30599500D01*
X23800593Y30541309D01*
X23751093Y30505345D01*
X23720500Y30500500D01*
X15011792Y30500500D01*
X14880008Y30500500D01*
X14802100Y30479625D01*
X14752709Y30466391D01*
X14638590Y30400504D01*
X14545396Y30307310D01*
X14479509Y30193191D01*
X14445400Y30065891D01*
X14445400Y17681637D01*
X14432137Y17632138D01*
X14386323Y17552786D01*
X14359041Y17450966D01*
X14345400Y17400057D01*
X500500Y17400057D01*
X500500Y33801000D01*
X519407Y33859191D01*
X568907Y33895155D01*
X599500Y33900000D01*
X59400500Y33900000D01*
X59458691Y33881093D01*
G37*
%TD.AperFunction*%
%TA.AperFunction,Conductor*%
G36*
X8209191Y109480593D02*
G01*
X8245155Y109431093D01*
X8250000Y109400500D01*
X8250000Y96736290D01*
X8231093Y96678099D01*
X8181593Y96642135D01*
X8120407Y96642135D01*
X8080996Y96666286D01*
X7411901Y97335381D01*
X6650912Y98096370D01*
X6570988Y98142514D01*
X6481844Y98166400D01*
X6481842Y98166400D01*
X4102243Y98166400D01*
X4044052Y98185307D01*
X4032245Y98195391D01*
X3931216Y98296420D01*
X3794284Y98375477D01*
X3641557Y98416400D01*
X3483443Y98416400D01*
X3330716Y98375477D01*
X3193784Y98296420D01*
X3081980Y98184616D01*
X3002923Y98047684D01*
X2962000Y97894957D01*
X2962000Y97736843D01*
X3002923Y97584116D01*
X3081980Y97447184D01*
X3193784Y97335380D01*
X3330716Y97256323D01*
X3483443Y97215400D01*
X3483445Y97215400D01*
X3641555Y97215400D01*
X3641557Y97215400D01*
X3794284Y97256323D01*
X3931216Y97335380D01*
X4032241Y97436406D01*
X4086756Y97464181D01*
X4102243Y97465400D01*
X6249510Y97465400D01*
X6307701Y97446493D01*
X6319514Y97436404D01*
X7658804Y96097114D01*
X7686581Y96042597D01*
X7687800Y96027110D01*
X7687800Y95884243D01*
X7728723Y95731516D01*
X7807780Y95594584D01*
X7919584Y95482780D01*
X8056516Y95403723D01*
X8176624Y95371541D01*
X8227937Y95338217D01*
X8249864Y95281095D01*
X8250000Y95275914D01*
X8250000Y91025598D01*
X8231093Y90967407D01*
X8221004Y90955595D01*
X8084707Y90819297D01*
X8030190Y90791519D01*
X8014703Y90790300D01*
X3500891Y90790300D01*
X3380049Y90766264D01*
X3266214Y90719112D01*
X3163767Y90650658D01*
X3163763Y90650655D01*
X3076645Y90563537D01*
X3076642Y90563533D01*
X3008188Y90461086D01*
X2961036Y90347251D01*
X2937000Y90226409D01*
X2937000Y73295791D01*
X2961037Y73174950D01*
X2961037Y73174948D01*
X3008186Y73061117D01*
X3042415Y73009891D01*
X3076643Y72958665D01*
X3163769Y72871540D01*
X3163770Y72871540D01*
X8221004Y67814306D01*
X8248781Y67759789D01*
X8250000Y67744302D01*
X8250000Y66567500D01*
X8231093Y66509309D01*
X8181593Y66473345D01*
X8151000Y66468500D01*
X8076143Y66468500D01*
X7923416Y66427577D01*
X7923414Y66427577D01*
X7923414Y66427576D01*
X7917422Y66425094D01*
X7916686Y66426870D01*
X7865547Y66416002D01*
X7809652Y66440891D01*
X7779062Y66493881D01*
X7776900Y66514459D01*
X7776900Y67070143D01*
X7776900Y67070144D01*
X7753014Y67159288D01*
X7728248Y67202184D01*
X7706870Y67239212D01*
X7706869Y67239213D01*
X7472996Y67473087D01*
X7445219Y67527603D01*
X7444000Y67543090D01*
X7444000Y67685956D01*
X7444000Y67685957D01*
X7403077Y67838684D01*
X7324020Y67975616D01*
X7212216Y68087420D01*
X7075284Y68166477D01*
X6922557Y68207400D01*
X6764443Y68207400D01*
X6611716Y68166477D01*
X6474784Y68087420D01*
X6362980Y67975616D01*
X6283923Y67838684D01*
X6243000Y67685957D01*
X6243000Y67527843D01*
X6283923Y67375116D01*
X6362980Y67238184D01*
X6474784Y67126380D01*
X6611716Y67047323D01*
X6764443Y67006400D01*
X6764445Y67006400D01*
X6907310Y67006400D01*
X6965501Y66987493D01*
X6977314Y66977404D01*
X7046904Y66907814D01*
X7074681Y66853297D01*
X7075900Y66837810D01*
X7075900Y57660487D01*
X7056993Y57602296D01*
X7007493Y57566332D01*
X6946307Y57566332D01*
X6927405Y57574748D01*
X6905184Y57587577D01*
X6752457Y57628500D01*
X6594343Y57628500D01*
X6441616Y57587577D01*
X6304684Y57508520D01*
X6192880Y57396716D01*
X6113823Y57259784D01*
X6072900Y57107057D01*
X6072900Y56948943D01*
X6113823Y56796216D01*
X6192880Y56659284D01*
X6304684Y56547480D01*
X6441616Y56468423D01*
X6594343Y56427500D01*
X6594345Y56427500D01*
X6737210Y56427500D01*
X6795401Y56408593D01*
X6807214Y56398504D01*
X11532188Y51673530D01*
X11612112Y51627386D01*
X11701256Y51603500D01*
X11701257Y51603500D01*
X11793544Y51603500D01*
X11991710Y51603500D01*
X12049901Y51584593D01*
X12061714Y51574504D01*
X13169080Y50467138D01*
X13196857Y50412621D01*
X13187286Y50352189D01*
X13144021Y50308924D01*
X13124700Y50301507D01*
X12968215Y50259577D01*
X12831284Y50180520D01*
X12719478Y50068714D01*
X12640319Y49931607D01*
X12594849Y49890666D01*
X12533999Y49884270D01*
X12484579Y49911103D01*
X10288182Y52107500D01*
X7960212Y54435470D01*
X7880288Y54481614D01*
X7791144Y54505500D01*
X7791142Y54505500D01*
X6554043Y54505500D01*
X6495852Y54524407D01*
X6484045Y54534491D01*
X6383016Y54635520D01*
X6246084Y54714577D01*
X6093357Y54755500D01*
X5935243Y54755500D01*
X5782516Y54714577D01*
X5645584Y54635520D01*
X5533780Y54523716D01*
X5454723Y54386784D01*
X5413800Y54234057D01*
X5413800Y54075943D01*
X5454723Y53923216D01*
X5533780Y53786284D01*
X5645584Y53674480D01*
X5782516Y53595423D01*
X5935243Y53554500D01*
X5935245Y53554500D01*
X6093355Y53554500D01*
X6093357Y53554500D01*
X6246084Y53595423D01*
X6383016Y53674480D01*
X6484041Y53775506D01*
X6538556Y53803281D01*
X6554043Y53804500D01*
X7558810Y53804500D01*
X7617001Y53785593D01*
X7628814Y53775504D01*
X14071530Y47332788D01*
X14099307Y47278271D01*
X14089736Y47217839D01*
X14046471Y47174574D01*
X14027150Y47167158D01*
X14007819Y47161979D01*
X14007818Y47161979D01*
X13870881Y47082918D01*
X13844858Y47056895D01*
X13790341Y47029119D01*
X13774856Y47027900D01*
X13259919Y47027900D01*
X13147882Y47027900D01*
X13081648Y47010153D01*
X13039658Y46998902D01*
X12942637Y46942886D01*
X12164246Y46164496D01*
X12109730Y46136719D01*
X12094243Y46135500D01*
X11951990Y46135500D01*
X11893799Y46154407D01*
X11881987Y46164496D01*
X11716014Y46330468D01*
X11716012Y46330470D01*
X11636088Y46376614D01*
X11546944Y46400500D01*
X11546942Y46400500D01*
X8424500Y46400500D01*
X8366309Y46419407D01*
X8330345Y46468907D01*
X8325500Y46499500D01*
X8325500Y49731908D01*
X8344407Y49790099D01*
X8393907Y49826063D01*
X8398850Y49827527D01*
X8435784Y49837423D01*
X8572716Y49916480D01*
X8684520Y50028284D01*
X8763577Y50165216D01*
X8804500Y50317943D01*
X8804500Y50476057D01*
X8763577Y50628784D01*
X8684520Y50765716D01*
X8572716Y50877520D01*
X8435784Y50956577D01*
X8283057Y50997500D01*
X8124943Y50997500D01*
X7972216Y50956577D01*
X7835284Y50877520D01*
X7723480Y50765716D01*
X7644423Y50628784D01*
X7620496Y50539485D01*
X7603500Y50476056D01*
X7603500Y50439256D01*
X7584593Y50381065D01*
X7574505Y50369254D01*
X7559514Y50354264D01*
X7503498Y50257242D01*
X7503497Y50257237D01*
X7478841Y50165217D01*
X7474500Y50149017D01*
X7474500Y49899500D01*
X7455593Y49841309D01*
X7406093Y49805345D01*
X7375500Y49800500D01*
X6439743Y49800500D01*
X6381552Y49819407D01*
X6369745Y49829491D01*
X6268716Y49930520D01*
X6131784Y50009577D01*
X5979057Y50050500D01*
X5820943Y50050500D01*
X5668216Y50009577D01*
X5531284Y49930520D01*
X5419480Y49818716D01*
X5340423Y49681784D01*
X5299500Y49529057D01*
X5299500Y49370943D01*
X5340423Y49218216D01*
X5419480Y49081284D01*
X5531284Y48969480D01*
X5668216Y48890423D01*
X5820943Y48849500D01*
X5820945Y48849500D01*
X5979055Y48849500D01*
X5979057Y48849500D01*
X6131784Y48890423D01*
X6268716Y48969480D01*
X6369741Y49070506D01*
X6424256Y49098281D01*
X6439743Y49099500D01*
X7375500Y49099500D01*
X7433691Y49080593D01*
X7469655Y49031093D01*
X7474500Y49000500D01*
X7474500Y45993982D01*
X7494188Y45920504D01*
X7503498Y45885759D01*
X7545220Y45813496D01*
X7559515Y45788737D01*
X7638737Y45709515D01*
X7671079Y45690843D01*
X7735759Y45653499D01*
X7735757Y45653499D01*
X7735761Y45653498D01*
X7735763Y45653497D01*
X7843982Y45624500D01*
X7843984Y45624500D01*
X7956016Y45624500D01*
X7956018Y45624500D01*
X8064237Y45653497D01*
X8120945Y45686237D01*
X8170444Y45699500D01*
X11314610Y45699500D01*
X11372801Y45680593D01*
X11384614Y45670504D01*
X11401727Y45653391D01*
X11427349Y45609011D01*
X11444296Y45545764D01*
X11444298Y45545760D01*
X11500313Y45448740D01*
X11500315Y45448737D01*
X11579537Y45369515D01*
X11594674Y45360776D01*
X11655663Y45325563D01*
X11691899Y45289328D01*
X11735715Y45213437D01*
X12589576Y44359577D01*
X13412904Y43536249D01*
X13440681Y43481732D01*
X13441900Y43466245D01*
X13441900Y42710744D01*
X13422993Y42652553D01*
X13412905Y42640742D01*
X13386882Y42614719D01*
X13386880Y42614717D01*
X13386880Y42614716D01*
X13307823Y42477784D01*
X13266900Y42325057D01*
X13266900Y42166943D01*
X13307823Y42014216D01*
X13386880Y41877284D01*
X13498684Y41765480D01*
X13635616Y41686423D01*
X13788343Y41645500D01*
X13825144Y41645500D01*
X13883335Y41626593D01*
X13895148Y41616504D01*
X16000615Y39511037D01*
X16000614Y39511037D01*
X16079837Y39431815D01*
X16176859Y39375799D01*
X16176857Y39375799D01*
X16176861Y39375798D01*
X16176863Y39375797D01*
X16285082Y39346800D01*
X16285084Y39346800D01*
X44653516Y39346800D01*
X44653518Y39346800D01*
X44761737Y39375797D01*
X44761739Y39375799D01*
X44761741Y39375799D01*
X44790564Y39392441D01*
X44858763Y39431815D01*
X45472252Y40045304D01*
X45526769Y40073081D01*
X45542256Y40074300D01*
X45579055Y40074300D01*
X45579057Y40074300D01*
X45731784Y40115223D01*
X45868716Y40194280D01*
X45967598Y40293163D01*
X46022113Y40320938D01*
X46082545Y40311367D01*
X46107600Y40293164D01*
X46181284Y40219480D01*
X46318216Y40140423D01*
X46470943Y40099500D01*
X46470945Y40099500D01*
X46629055Y40099500D01*
X46629057Y40099500D01*
X46781784Y40140423D01*
X46918716Y40219480D01*
X47030520Y40331284D01*
X47109577Y40468216D01*
X47150500Y40620943D01*
X47150500Y40779057D01*
X47349500Y40779057D01*
X47349500Y40620943D01*
X47390423Y40468216D01*
X47469480Y40331284D01*
X47581284Y40219480D01*
X47718216Y40140423D01*
X47870943Y40099500D01*
X47870945Y40099500D01*
X48029055Y40099500D01*
X48029057Y40099500D01*
X48181784Y40140423D01*
X48318716Y40219480D01*
X48430520Y40331284D01*
X48509577Y40468216D01*
X48550500Y40620943D01*
X48550500Y40779057D01*
X48509577Y40931784D01*
X48430520Y41068716D01*
X48318716Y41180520D01*
X48181784Y41259577D01*
X48029057Y41300500D01*
X47870943Y41300500D01*
X47718216Y41259577D01*
X47581284Y41180520D01*
X47469480Y41068716D01*
X47390423Y40931784D01*
X47349500Y40779057D01*
X47150500Y40779057D01*
X47109577Y40931784D01*
X47030520Y41068716D01*
X46918716Y41180520D01*
X46781784Y41259577D01*
X46629057Y41300500D01*
X46470943Y41300500D01*
X46318216Y41259577D01*
X46181284Y41180520D01*
X46082401Y41081638D01*
X46027887Y41053862D01*
X45967455Y41063433D01*
X45942399Y41081637D01*
X45868716Y41155320D01*
X45731784Y41234377D01*
X45579057Y41275300D01*
X45420943Y41275300D01*
X45268216Y41234377D01*
X45131284Y41155320D01*
X45019480Y41043516D01*
X44940423Y40906584D01*
X44906253Y40779057D01*
X44899500Y40753856D01*
X44899500Y40717056D01*
X44880593Y40658865D01*
X44870504Y40647052D01*
X44450248Y40226796D01*
X44395731Y40199019D01*
X44380244Y40197800D01*
X37723189Y40197800D01*
X37664998Y40216707D01*
X37629034Y40266207D01*
X37629034Y40327393D01*
X37653183Y40366802D01*
X39708886Y42422504D01*
X39763403Y42450281D01*
X39778890Y42451500D01*
X42081342Y42451500D01*
X42081344Y42451500D01*
X42170488Y42475386D01*
X42174633Y42477780D01*
X42174641Y42477782D01*
X42174641Y42477783D01*
X42231174Y42510423D01*
X42250412Y42521530D01*
X42479384Y42750504D01*
X42533901Y42778281D01*
X42549388Y42779500D01*
X42692255Y42779500D01*
X42692257Y42779500D01*
X42844984Y42820423D01*
X42981916Y42899480D01*
X43093720Y43011284D01*
X43172777Y43148216D01*
X43213700Y43300943D01*
X43213700Y43459057D01*
X43176771Y43596878D01*
X43179974Y43657979D01*
X43218479Y43705528D01*
X43272398Y43721500D01*
X50385443Y43721500D01*
X50443634Y43702593D01*
X50479598Y43653093D01*
X50481069Y43596878D01*
X50449500Y43479057D01*
X50449500Y43320943D01*
X50490423Y43168216D01*
X50569480Y43031284D01*
X50681284Y42919480D01*
X50818216Y42840423D01*
X50970943Y42799500D01*
X50970945Y42799500D01*
X51129055Y42799500D01*
X51129057Y42799500D01*
X51281784Y42840423D01*
X51418716Y42919480D01*
X51530520Y43031284D01*
X51609577Y43168216D01*
X51650500Y43320943D01*
X51650500Y43320946D01*
X51650975Y43324552D01*
X51652096Y43326904D01*
X51652179Y43327211D01*
X51652235Y43327196D01*
X51677316Y43379777D01*
X51731087Y43408971D01*
X51791749Y43400985D01*
X51819128Y43381636D01*
X51881284Y43319480D01*
X52018216Y43240423D01*
X52170943Y43199500D01*
X52170945Y43199500D01*
X52329055Y43199500D01*
X52329057Y43199500D01*
X52481784Y43240423D01*
X52618716Y43319480D01*
X52730520Y43431284D01*
X52809577Y43568216D01*
X52850500Y43720943D01*
X52850500Y43879057D01*
X52809577Y44031784D01*
X52730520Y44168716D01*
X52618716Y44280520D01*
X52481784Y44359577D01*
X52329057Y44400500D01*
X52170943Y44400500D01*
X52170941Y44400500D01*
X52170936Y44400499D01*
X52164209Y44398697D01*
X52112986Y44398696D01*
X52106261Y44400497D01*
X52106250Y44400505D01*
X52106249Y44400500D01*
X52024144Y44422500D01*
X41420644Y44422500D01*
X41328356Y44422500D01*
X41239212Y44398614D01*
X41239211Y44398614D01*
X41239209Y44398613D01*
X41159290Y44352471D01*
X41094029Y44287210D01*
X41047885Y44207288D01*
X41029903Y44140178D01*
X40996579Y44088864D01*
X40939457Y44066938D01*
X40908655Y44070175D01*
X40895795Y44073621D01*
X40862657Y44082500D01*
X40704543Y44082500D01*
X40551816Y44041577D01*
X40414884Y43962520D01*
X40303080Y43850716D01*
X40224023Y43713784D01*
X40183100Y43561057D01*
X40183100Y43402943D01*
X40216813Y43277121D01*
X40213611Y43216022D01*
X40175106Y43168472D01*
X40121187Y43152500D01*
X39546556Y43152500D01*
X39540247Y43150810D01*
X39516700Y43144501D01*
X39516700Y43144500D01*
X39494293Y43138496D01*
X39457411Y43128614D01*
X39377488Y43082470D01*
X37296514Y41001496D01*
X37241997Y40973719D01*
X37226510Y40972500D01*
X37119773Y40972500D01*
X37061582Y40991407D01*
X37025618Y41040907D01*
X37024146Y41097120D01*
X37059200Y41227943D01*
X37059200Y41386057D01*
X37018277Y41538784D01*
X36939220Y41675716D01*
X36827416Y41787520D01*
X36690484Y41866577D01*
X36537757Y41907500D01*
X36394890Y41907500D01*
X36336699Y41926407D01*
X36324886Y41936496D01*
X35783598Y42477784D01*
X35236912Y43024470D01*
X35156988Y43070614D01*
X35067844Y43094500D01*
X35067842Y43094500D01*
X27640243Y43094500D01*
X27582052Y43113407D01*
X27570245Y43123491D01*
X27474237Y43219499D01*
X27446462Y43274013D01*
X27456033Y43334445D01*
X27499298Y43377710D01*
X27544243Y43388500D01*
X37326864Y43388500D01*
X37376362Y43375238D01*
X37455716Y43329423D01*
X37608443Y43288500D01*
X37608445Y43288500D01*
X37766555Y43288500D01*
X37766557Y43288500D01*
X37919284Y43329423D01*
X38056216Y43408480D01*
X38168020Y43520284D01*
X38247077Y43657216D01*
X38288000Y43809943D01*
X38288000Y43968057D01*
X38247077Y44120784D01*
X38168020Y44257716D01*
X38056216Y44369520D01*
X37983452Y44411530D01*
X37942512Y44456997D01*
X37936116Y44517847D01*
X37962947Y44567267D01*
X39316185Y45920504D01*
X39370702Y45948281D01*
X39386189Y45949500D01*
X48987403Y45949500D01*
X49036899Y45936238D01*
X49168216Y45860423D01*
X49320943Y45819500D01*
X49320945Y45819500D01*
X49479055Y45819500D01*
X49479057Y45819500D01*
X49631784Y45860423D01*
X49768716Y45939480D01*
X49880520Y46051284D01*
X49959577Y46188216D01*
X50000500Y46340943D01*
X50000500Y46499057D01*
X49959577Y46651784D01*
X49921719Y46717356D01*
X49908999Y46777201D01*
X49933886Y46833097D01*
X49986874Y46863690D01*
X50047724Y46857294D01*
X50077460Y46836857D01*
X50340503Y46573815D01*
X50368281Y46519298D01*
X50369500Y46503811D01*
X50369500Y46360943D01*
X50410423Y46208216D01*
X50489480Y46071284D01*
X50601284Y45959480D01*
X50738216Y45880423D01*
X50890943Y45839500D01*
X50890945Y45839500D01*
X51049055Y45839500D01*
X51049057Y45839500D01*
X51201784Y45880423D01*
X51338716Y45959480D01*
X51450520Y46071284D01*
X51529577Y46208216D01*
X51570500Y46360943D01*
X51570500Y46519057D01*
X51529577Y46671784D01*
X51450520Y46808716D01*
X51338716Y46920520D01*
X51201784Y46999577D01*
X51049057Y47040500D01*
X50906190Y47040500D01*
X50847999Y47059407D01*
X50836186Y47069496D01*
X41177796Y56727886D01*
X41150019Y56782403D01*
X41148800Y56797890D01*
X41148800Y58046257D01*
X41167707Y58104448D01*
X41177790Y58116255D01*
X41278820Y58217284D01*
X41357877Y58354216D01*
X41398800Y58506943D01*
X41398800Y58665057D01*
X41357877Y58817784D01*
X41278820Y58954716D01*
X41167016Y59066520D01*
X41030084Y59145577D01*
X40877357Y59186500D01*
X40719243Y59186500D01*
X40566516Y59145577D01*
X40429584Y59066520D01*
X40317780Y58954716D01*
X40238723Y58817784D01*
X40197800Y58665057D01*
X40197800Y58506943D01*
X40238723Y58354216D01*
X40317780Y58217284D01*
X40418805Y58116259D01*
X40446581Y58061744D01*
X40447800Y58046257D01*
X40447800Y56565556D01*
X40453186Y56545457D01*
X40464708Y56502453D01*
X40468639Y56487784D01*
X40471686Y56476412D01*
X40517830Y56396488D01*
X45240787Y51673531D01*
X49816856Y47097462D01*
X49844633Y47042945D01*
X49835062Y46982513D01*
X49791797Y46939248D01*
X49731365Y46929677D01*
X49697354Y46941720D01*
X49631784Y46979577D01*
X49479057Y47020500D01*
X49320943Y47020500D01*
X49168216Y46979577D01*
X49031284Y46900520D01*
X48919480Y46788716D01*
X48868259Y46699999D01*
X48822791Y46659059D01*
X48782524Y46650500D01*
X39153856Y46650500D01*
X39064712Y46626614D01*
X39064711Y46626614D01*
X39064709Y46626613D01*
X38984790Y46580471D01*
X37283814Y44879496D01*
X37229297Y44851719D01*
X37213810Y44850500D01*
X22440441Y44850500D01*
X22382250Y44869407D01*
X22346286Y44918907D01*
X22344814Y44975120D01*
X22379600Y45104943D01*
X22379600Y45247811D01*
X22398507Y45306002D01*
X22408596Y45317815D01*
X24790285Y47699504D01*
X24844802Y47727281D01*
X24860289Y47728500D01*
X26041657Y47728500D01*
X26099848Y47709593D01*
X26111654Y47699510D01*
X26212684Y47598480D01*
X26349616Y47519423D01*
X26502343Y47478500D01*
X26502345Y47478500D01*
X26660455Y47478500D01*
X26660457Y47478500D01*
X26813184Y47519423D01*
X26950116Y47598480D01*
X27061920Y47710284D01*
X27140977Y47847216D01*
X27181900Y47999943D01*
X27181900Y48158057D01*
X27140977Y48310784D01*
X27061920Y48447716D01*
X26950116Y48559520D01*
X26813184Y48638577D01*
X26660457Y48679500D01*
X26502343Y48679500D01*
X26349616Y48638577D01*
X26212684Y48559520D01*
X26111658Y48458495D01*
X26057144Y48430719D01*
X26041657Y48429500D01*
X24627956Y48429500D01*
X24538812Y48405614D01*
X24538811Y48405614D01*
X24538809Y48405613D01*
X24458890Y48359471D01*
X21912913Y45813496D01*
X21858396Y45785719D01*
X21842909Y45784500D01*
X21700043Y45784500D01*
X21547316Y45743577D01*
X21410384Y45664520D01*
X21298580Y45552716D01*
X21219523Y45415784D01*
X21178600Y45263057D01*
X21178600Y45104943D01*
X21213385Y44975121D01*
X21210184Y44914022D01*
X21171678Y44866472D01*
X21117759Y44850500D01*
X19537190Y44850500D01*
X19478999Y44869407D01*
X19443035Y44918907D01*
X19443035Y44980093D01*
X19467186Y45019504D01*
X20866185Y46418504D01*
X20920702Y46446281D01*
X20936189Y46447500D01*
X21079055Y46447500D01*
X21079057Y46447500D01*
X21231784Y46488423D01*
X21368716Y46567480D01*
X21480520Y46679284D01*
X21559577Y46816216D01*
X21600500Y46968943D01*
X21600500Y47127057D01*
X21559577Y47279784D01*
X21480520Y47416716D01*
X21368716Y47528520D01*
X21231784Y47607577D01*
X21079057Y47648500D01*
X20920943Y47648500D01*
X20768216Y47607577D01*
X20631284Y47528520D01*
X20519480Y47416716D01*
X20440423Y47279784D01*
X20408858Y47161979D01*
X20399500Y47127056D01*
X20399500Y46984191D01*
X20380593Y46926000D01*
X20370504Y46914187D01*
X19111953Y45655637D01*
X19057436Y45627860D01*
X18997004Y45637431D01*
X18971945Y45655637D01*
X16649718Y47977864D01*
X16621941Y48032381D01*
X16631512Y48092813D01*
X16674777Y48136078D01*
X16719722Y48146868D01*
X16748764Y48146868D01*
X16748765Y48146868D01*
X16837909Y48170753D01*
X16917833Y48216897D01*
X18975440Y50274504D01*
X19029957Y50302281D01*
X19045444Y50303500D01*
X24210257Y50303500D01*
X24268448Y50284593D01*
X24280254Y50274510D01*
X24381284Y50173480D01*
X24518216Y50094423D01*
X24670943Y50053500D01*
X24670945Y50053500D01*
X24829055Y50053500D01*
X24829057Y50053500D01*
X24981784Y50094423D01*
X25118716Y50173480D01*
X25230520Y50285284D01*
X25309577Y50422216D01*
X25350500Y50574943D01*
X25350500Y50733057D01*
X25309577Y50885784D01*
X25230520Y51022716D01*
X25118716Y51134520D01*
X24981784Y51213577D01*
X24829057Y51254500D01*
X24670943Y51254500D01*
X24518216Y51213577D01*
X24381284Y51134520D01*
X24280258Y51033495D01*
X24225744Y51005719D01*
X24210257Y51004500D01*
X18813110Y51004500D01*
X18807590Y51003021D01*
X18786986Y50997501D01*
X18786986Y50997500D01*
X18755476Y50989057D01*
X18723965Y50980614D01*
X18644042Y50934470D01*
X16754947Y49045376D01*
X16700430Y49017599D01*
X16639998Y49027170D01*
X16614939Y49045376D01*
X16029496Y49630819D01*
X16001719Y49685336D01*
X16000500Y49700823D01*
X16000500Y49829056D01*
X15993158Y49856458D01*
X15959577Y49981784D01*
X15880520Y50118716D01*
X15768716Y50230520D01*
X15631784Y50309577D01*
X15479057Y50350500D01*
X15320943Y50350500D01*
X15168216Y50309577D01*
X15031284Y50230520D01*
X14919480Y50118716D01*
X14840423Y49981784D01*
X14840422Y49981783D01*
X14840416Y49981771D01*
X14840112Y49981037D01*
X14839743Y49980606D01*
X14837179Y49976164D01*
X14836355Y49976640D01*
X14800369Y49934517D01*
X14740872Y49920242D01*
X14684347Y49943665D01*
X14678650Y49948932D01*
X12689086Y51938496D01*
X12661309Y51993013D01*
X12670880Y52053445D01*
X12714145Y52096710D01*
X12759090Y52107500D01*
X26890310Y52107500D01*
X26948501Y52088593D01*
X26960314Y52078504D01*
X28829004Y50209815D01*
X28856781Y50155298D01*
X28858000Y50139811D01*
X28858000Y48325743D01*
X28839093Y48267552D01*
X28829009Y48255746D01*
X28727980Y48154716D01*
X28648923Y48017784D01*
X28608000Y47865057D01*
X28608000Y47706943D01*
X28648923Y47554216D01*
X28727980Y47417284D01*
X28839784Y47305480D01*
X28976716Y47226423D01*
X29129443Y47185500D01*
X29129445Y47185500D01*
X29287555Y47185500D01*
X29287557Y47185500D01*
X29440284Y47226423D01*
X29577216Y47305480D01*
X29689020Y47417284D01*
X29719772Y47470550D01*
X29765239Y47511488D01*
X29826089Y47517885D01*
X29855000Y47506788D01*
X29968216Y47441423D01*
X30120943Y47400500D01*
X30120945Y47400500D01*
X30279055Y47400500D01*
X30279057Y47400500D01*
X30431784Y47441423D01*
X30568716Y47520480D01*
X30680520Y47632284D01*
X30759577Y47769216D01*
X30800500Y47921943D01*
X30800500Y48080057D01*
X30759577Y48232784D01*
X30680520Y48369716D01*
X30568716Y48481520D01*
X30431784Y48560577D01*
X30279057Y48601500D01*
X30120943Y48601500D01*
X29968216Y48560577D01*
X29831284Y48481520D01*
X29728001Y48378238D01*
X29673487Y48350462D01*
X29613055Y48360033D01*
X29569790Y48403298D01*
X29559000Y48448243D01*
X29559000Y50139810D01*
X29577907Y50198001D01*
X29587996Y50209814D01*
X30139239Y50761057D01*
X33149500Y50761057D01*
X33149500Y50602943D01*
X33190423Y50450216D01*
X33269480Y50313284D01*
X33381284Y50201480D01*
X33518216Y50122423D01*
X33670943Y50081500D01*
X33670945Y50081500D01*
X33829055Y50081500D01*
X33829057Y50081500D01*
X33981784Y50122423D01*
X34118716Y50201480D01*
X34230520Y50313284D01*
X34309577Y50450216D01*
X34350500Y50602943D01*
X34350500Y50761057D01*
X34309577Y50913784D01*
X34230520Y51050716D01*
X34118716Y51162520D01*
X33981784Y51241577D01*
X33829057Y51282500D01*
X33670943Y51282500D01*
X33518216Y51241577D01*
X33381284Y51162520D01*
X33269480Y51050716D01*
X33190423Y50913784D01*
X33149500Y50761057D01*
X30139239Y50761057D01*
X37457239Y58079057D01*
X38449500Y58079057D01*
X38449500Y57920943D01*
X38490423Y57768216D01*
X38569480Y57631284D01*
X38681284Y57519480D01*
X38818216Y57440423D01*
X38970943Y57399500D01*
X38970945Y57399500D01*
X39129055Y57399500D01*
X39129057Y57399500D01*
X39281784Y57440423D01*
X39418716Y57519480D01*
X39530520Y57631284D01*
X39609577Y57768216D01*
X39650500Y57920943D01*
X39650500Y58079057D01*
X39609577Y58231784D01*
X39530520Y58368716D01*
X39418716Y58480520D01*
X39281784Y58559577D01*
X39129057Y58600500D01*
X38970943Y58600500D01*
X38818216Y58559577D01*
X38681284Y58480520D01*
X38569480Y58368716D01*
X38490423Y58231784D01*
X38449500Y58079057D01*
X37457239Y58079057D01*
X38744686Y59366504D01*
X38799203Y59394281D01*
X38814690Y59395500D01*
X49396842Y59395500D01*
X49396844Y59395500D01*
X49485988Y59419386D01*
X49565912Y59465530D01*
X50766185Y60665805D01*
X50820702Y60693581D01*
X50836189Y60694800D01*
X50979055Y60694800D01*
X50979057Y60694800D01*
X51131784Y60735723D01*
X51268716Y60814780D01*
X51380520Y60926584D01*
X51459577Y61063516D01*
X51500500Y61216243D01*
X51500500Y61374357D01*
X51459577Y61527084D01*
X51380520Y61664016D01*
X51268716Y61775820D01*
X51131784Y61854877D01*
X50979057Y61895800D01*
X50820943Y61895800D01*
X50692101Y61861277D01*
X50668216Y61854877D01*
X50531284Y61775820D01*
X50419480Y61664016D01*
X50340423Y61527084D01*
X50299500Y61374356D01*
X50299500Y61231491D01*
X50280593Y61173300D01*
X50270503Y61161487D01*
X50140543Y61031528D01*
X50086027Y61003751D01*
X50025595Y61013323D01*
X49982330Y61056587D01*
X49972759Y61117019D01*
X49974907Y61127132D01*
X50000500Y61222643D01*
X50000500Y61380757D01*
X49959577Y61533484D01*
X49880520Y61670416D01*
X49768716Y61782220D01*
X49631784Y61861277D01*
X49479057Y61902200D01*
X49320943Y61902200D01*
X49168216Y61861277D01*
X49031284Y61782220D01*
X48919480Y61670416D01*
X48840423Y61533484D01*
X48799500Y61380757D01*
X48799500Y61222643D01*
X48840423Y61069916D01*
X48919480Y60932984D01*
X49031284Y60821180D01*
X49168216Y60742123D01*
X49320943Y60701200D01*
X49320945Y60701200D01*
X49479055Y60701200D01*
X49479057Y60701200D01*
X49574548Y60726787D01*
X49635647Y60723585D01*
X49683197Y60685079D01*
X49699033Y60625979D01*
X49677107Y60568857D01*
X49670173Y60561157D01*
X49234514Y60125497D01*
X49179997Y60097719D01*
X49164510Y60096500D01*
X38582356Y60096500D01*
X38493212Y60072614D01*
X38413288Y60026470D01*
X29278503Y50891686D01*
X29223986Y50863909D01*
X29163554Y50873480D01*
X29138495Y50891686D01*
X28356650Y51673531D01*
X27291712Y52738470D01*
X27211788Y52784614D01*
X27122644Y52808500D01*
X27122642Y52808500D01*
X14471162Y52808500D01*
X14412971Y52827407D01*
X14377007Y52876907D01*
X14377007Y52938093D01*
X14379698Y52945386D01*
X14397163Y52987549D01*
X14421200Y53108394D01*
X14421200Y53231607D01*
X14397163Y53352451D01*
X14350011Y53466286D01*
X14281557Y53568733D01*
X14064005Y53786285D01*
X13844794Y54005497D01*
X13817017Y54060013D01*
X13826588Y54120445D01*
X13869853Y54163710D01*
X13914798Y54174500D01*
X15942715Y54174500D01*
X16000906Y54155593D01*
X16036870Y54106093D01*
X16036870Y54044907D01*
X16028451Y54026000D01*
X16002924Y53981787D01*
X16002924Y53981786D01*
X16002923Y53981784D01*
X15962000Y53829057D01*
X15962000Y53670943D01*
X16002923Y53518216D01*
X16081980Y53381284D01*
X16193784Y53269480D01*
X16330716Y53190423D01*
X16483443Y53149500D01*
X16483445Y53149500D01*
X16641555Y53149500D01*
X16641557Y53149500D01*
X16794284Y53190423D01*
X16931216Y53269480D01*
X17043020Y53381284D01*
X17122077Y53518216D01*
X17163000Y53670943D01*
X17163000Y53829057D01*
X17122077Y53981784D01*
X17096548Y54026001D01*
X17083827Y54085848D01*
X17108713Y54141744D01*
X17161701Y54172337D01*
X17182285Y54174500D01*
X17961604Y54174500D01*
X17961606Y54174500D01*
X18082452Y54198537D01*
X18196286Y54245689D01*
X18298733Y54314142D01*
X18385858Y54401267D01*
X18454311Y54503714D01*
X18501463Y54617548D01*
X18525500Y54738394D01*
X18525500Y54763011D01*
X18544407Y54821202D01*
X18593907Y54857166D01*
X18655093Y54857166D01*
X18694504Y54833015D01*
X18725731Y54801788D01*
X18725730Y54801788D01*
X18790987Y54736532D01*
X18790989Y54736530D01*
X18829013Y54714577D01*
X18870912Y54690386D01*
X18960056Y54666500D01*
X18960058Y54666500D01*
X26812742Y54666500D01*
X26812744Y54666500D01*
X26901888Y54690386D01*
X26981812Y54736530D01*
X28580339Y56335057D01*
X32266600Y56335057D01*
X32266600Y56176943D01*
X32307523Y56024216D01*
X32386580Y55887284D01*
X32498384Y55775480D01*
X32635316Y55696423D01*
X32788043Y55655500D01*
X32788045Y55655500D01*
X32946155Y55655500D01*
X32946157Y55655500D01*
X33098884Y55696423D01*
X33235816Y55775480D01*
X33347620Y55887284D01*
X33426677Y56024216D01*
X33467600Y56176943D01*
X33467600Y56335057D01*
X33426677Y56487784D01*
X33347620Y56624716D01*
X33235816Y56736520D01*
X33098884Y56815577D01*
X32946157Y56856500D01*
X32788043Y56856500D01*
X32635316Y56815577D01*
X32498384Y56736520D01*
X32386580Y56624716D01*
X32307523Y56487784D01*
X32266600Y56335057D01*
X28580339Y56335057D01*
X32599786Y60354504D01*
X32654303Y60382281D01*
X32669790Y60383500D01*
X43087542Y60383500D01*
X43087544Y60383500D01*
X43176688Y60407386D01*
X43193712Y60417215D01*
X43256612Y60453530D01*
X46095585Y63292505D01*
X46150102Y63320281D01*
X46165589Y63321500D01*
X46308455Y63321500D01*
X46308457Y63321500D01*
X46461184Y63362423D01*
X46598116Y63441480D01*
X46709920Y63553284D01*
X46788977Y63690216D01*
X46829900Y63842943D01*
X46829900Y64001057D01*
X46827087Y64011557D01*
X47299500Y64011557D01*
X47299500Y63853443D01*
X47340423Y63700716D01*
X47419480Y63563784D01*
X47531284Y63451980D01*
X47668216Y63372923D01*
X47820943Y63332000D01*
X47820945Y63332000D01*
X47979055Y63332000D01*
X47979057Y63332000D01*
X48131784Y63372923D01*
X48268716Y63451980D01*
X48380520Y63563784D01*
X48459577Y63700716D01*
X48500500Y63853443D01*
X48500500Y64011557D01*
X48459577Y64164284D01*
X48380520Y64301216D01*
X48268716Y64413020D01*
X48131784Y64492077D01*
X47979057Y64533000D01*
X47820943Y64533000D01*
X47668216Y64492077D01*
X47531284Y64413020D01*
X47419480Y64301216D01*
X47340423Y64164284D01*
X47299500Y64011557D01*
X46827087Y64011557D01*
X46788977Y64153784D01*
X46709920Y64290716D01*
X46598116Y64402520D01*
X46461184Y64481577D01*
X46308457Y64522500D01*
X46150343Y64522500D01*
X45997616Y64481577D01*
X45860684Y64402520D01*
X45748880Y64290716D01*
X45669821Y64153782D01*
X45669821Y64153781D01*
X45659535Y64115392D01*
X45626211Y64064078D01*
X45569089Y64042152D01*
X45509989Y64057988D01*
X45471484Y64105539D01*
X45468283Y64115392D01*
X45459577Y64147884D01*
X45380520Y64284816D01*
X45268716Y64396620D01*
X45131784Y64475677D01*
X44979057Y64516600D01*
X44820943Y64516600D01*
X44668216Y64475677D01*
X44531284Y64396620D01*
X44419480Y64284816D01*
X44340423Y64147884D01*
X44299500Y63995157D01*
X44299500Y63837043D01*
X44340423Y63684316D01*
X44419480Y63547384D01*
X44531284Y63435580D01*
X44668216Y63356523D01*
X44820943Y63315600D01*
X44820945Y63315600D01*
X44888309Y63315600D01*
X44946500Y63296693D01*
X44982464Y63247193D01*
X44982464Y63186007D01*
X44958313Y63146596D01*
X42925214Y61113496D01*
X42870697Y61085719D01*
X42855210Y61084500D01*
X41766164Y61084500D01*
X41707973Y61103407D01*
X41672009Y61152907D01*
X41670537Y61209120D01*
X41700500Y61320943D01*
X41700500Y61479057D01*
X41659577Y61631784D01*
X41580520Y61768716D01*
X41468716Y61880520D01*
X41331784Y61959577D01*
X41179057Y62000500D01*
X41020943Y62000500D01*
X41020941Y62000500D01*
X41015338Y61999762D01*
X40955177Y62010915D01*
X40932415Y62027912D01*
X39347896Y63612431D01*
X39320119Y63666948D01*
X39318900Y63682435D01*
X39318900Y65411020D01*
X39322273Y65436643D01*
X39333033Y65476800D01*
X39343900Y65517356D01*
X39343900Y65578658D01*
X39362807Y65636849D01*
X39372898Y65648663D01*
X39423916Y65699680D01*
X39423916Y65699681D01*
X39423920Y65699684D01*
X39502977Y65836616D01*
X39543900Y65989343D01*
X39543900Y66147457D01*
X39502977Y66300184D01*
X39473348Y66351503D01*
X39460628Y66411348D01*
X39485515Y66467244D01*
X39538503Y66497837D01*
X39559086Y66500000D01*
X40081475Y66500000D01*
X40139666Y66481093D01*
X40175630Y66431593D01*
X40175630Y66370407D01*
X40167212Y66351501D01*
X40142723Y66309086D01*
X40123332Y66236716D01*
X40101800Y66156357D01*
X40101800Y65998243D01*
X40142723Y65845516D01*
X40221780Y65708584D01*
X40333584Y65596780D01*
X40470516Y65517723D01*
X40623243Y65476800D01*
X40623245Y65476800D01*
X40781355Y65476800D01*
X40781357Y65476800D01*
X40934084Y65517723D01*
X41071016Y65596780D01*
X41182820Y65708584D01*
X41261877Y65845516D01*
X41302800Y65998243D01*
X41302800Y66156357D01*
X41261877Y66309084D01*
X41261876Y66309086D01*
X41237388Y66351501D01*
X41224667Y66411349D01*
X41249554Y66467245D01*
X41302543Y66497837D01*
X41323125Y66500000D01*
X42818778Y66500000D01*
X42876969Y66481093D01*
X42912933Y66431593D01*
X42912933Y66370407D01*
X42888782Y66330996D01*
X41368298Y64810514D01*
X41323918Y64784892D01*
X41235419Y64761179D01*
X41235418Y64761179D01*
X41098484Y64682120D01*
X40986680Y64570316D01*
X40907623Y64433384D01*
X40866700Y64280657D01*
X40866700Y64122543D01*
X40907623Y63969816D01*
X40986680Y63832884D01*
X41098484Y63721080D01*
X41235416Y63642023D01*
X41388143Y63601100D01*
X41388145Y63601100D01*
X41546255Y63601100D01*
X41546257Y63601100D01*
X41698984Y63642023D01*
X41835916Y63721080D01*
X41947720Y63832884D01*
X42026777Y63969816D01*
X42050491Y64058323D01*
X42076112Y64102700D01*
X44414318Y66440904D01*
X44468835Y66468681D01*
X44484322Y66469900D01*
X50309364Y66469900D01*
X50358863Y66456637D01*
X50422734Y66419761D01*
X50463676Y66374293D01*
X50470072Y66313443D01*
X50443240Y66264023D01*
X50419531Y66240314D01*
X50392321Y66193187D01*
X50392322Y66193186D01*
X50373386Y66160390D01*
X50357462Y66100959D01*
X50351986Y66080520D01*
X50349500Y66071243D01*
X50349500Y64491843D01*
X50330593Y64433652D01*
X50320509Y64421846D01*
X50219480Y64320816D01*
X50140423Y64183884D01*
X50099500Y64031157D01*
X50099500Y63873043D01*
X50140423Y63720316D01*
X50219480Y63583384D01*
X50331284Y63471580D01*
X50468216Y63392523D01*
X50620943Y63351600D01*
X50620945Y63351600D01*
X50779055Y63351600D01*
X50779057Y63351600D01*
X50931784Y63392523D01*
X51068716Y63471580D01*
X51180520Y63583384D01*
X51259577Y63720316D01*
X51300500Y63873043D01*
X51300500Y64031157D01*
X51259577Y64183884D01*
X51180520Y64320816D01*
X51079494Y64421842D01*
X51051719Y64476356D01*
X51050500Y64491843D01*
X51050500Y65838911D01*
X51069407Y65897102D01*
X51079496Y65908915D01*
X51641585Y66471004D01*
X51696102Y66498781D01*
X51711589Y66500000D01*
X53249999Y66500000D01*
X53250000Y66500000D01*
X53250000Y68038412D01*
X53268907Y68096603D01*
X53278996Y68108416D01*
X54580184Y69409604D01*
X54634701Y69437381D01*
X54650188Y69438600D01*
X54793055Y69438600D01*
X54793057Y69438600D01*
X54945784Y69479523D01*
X55082716Y69558580D01*
X55194520Y69670384D01*
X55273577Y69807316D01*
X55314500Y69960043D01*
X55314500Y70118157D01*
X55273577Y70270884D01*
X55194520Y70407816D01*
X55082716Y70519620D01*
X54945784Y70598677D01*
X54793057Y70639600D01*
X54634943Y70639600D01*
X54482216Y70598677D01*
X54345284Y70519620D01*
X54233480Y70407816D01*
X54154423Y70270884D01*
X54113500Y70118156D01*
X54113500Y69975291D01*
X54094593Y69917100D01*
X54084504Y69905287D01*
X53419004Y69239787D01*
X53364487Y69212010D01*
X53304055Y69221581D01*
X53260790Y69264846D01*
X53250000Y69309791D01*
X53250000Y71535157D01*
X56054500Y71535157D01*
X56054500Y71377043D01*
X56095423Y71224316D01*
X56174480Y71087384D01*
X56286284Y70975580D01*
X56423216Y70896523D01*
X56575943Y70855600D01*
X56575945Y70855600D01*
X56734055Y70855600D01*
X56734057Y70855600D01*
X56886784Y70896523D01*
X57023716Y70975580D01*
X57135520Y71087384D01*
X57214577Y71224316D01*
X57255500Y71377043D01*
X57255500Y71535157D01*
X57214577Y71687884D01*
X57135520Y71824816D01*
X57023716Y71936620D01*
X56886784Y72015677D01*
X56734057Y72056600D01*
X56575943Y72056600D01*
X56423216Y72015677D01*
X56286284Y71936620D01*
X56174480Y71824816D01*
X56095423Y71687884D01*
X56054500Y71535157D01*
X53250000Y71535157D01*
X53250000Y109400500D01*
X53268907Y109458691D01*
X53318407Y109494655D01*
X53349000Y109499500D01*
X55934108Y109499500D01*
X55997564Y109499500D01*
X56002421Y109499381D01*
X56031158Y109497970D01*
X56338173Y109482887D01*
X56347815Y109481937D01*
X56677915Y109432971D01*
X56687421Y109431081D01*
X57011144Y109349992D01*
X57020415Y109347180D01*
X57334625Y109234754D01*
X57343594Y109231039D01*
X57645263Y109088360D01*
X57653826Y109083782D01*
X57940049Y108912227D01*
X57948127Y108906829D01*
X58216150Y108708049D01*
X58223660Y108701886D01*
X58470921Y108477782D01*
X58477781Y108470922D01*
X58603484Y108332230D01*
X58701885Y108223661D01*
X58708048Y108216151D01*
X58906828Y107948128D01*
X58912226Y107940050D01*
X59083781Y107653827D01*
X59088361Y107645259D01*
X59231036Y107343598D01*
X59234754Y107334622D01*
X59347175Y107020429D01*
X59349995Y107011132D01*
X59431077Y106687433D01*
X59432972Y106677904D01*
X59481934Y106347830D01*
X59482887Y106338162D01*
X59499381Y106002423D01*
X59499500Y105997565D01*
X59499500Y67959000D01*
X59480593Y67900809D01*
X59431093Y67864845D01*
X59400500Y67860000D01*
X55000000Y67860000D01*
X55000000Y67859999D01*
X55000000Y66594121D01*
X54981093Y66535930D01*
X54931593Y66499966D01*
X54926637Y66498499D01*
X54891973Y66489210D01*
X54806809Y66466391D01*
X54692690Y66400504D01*
X54599496Y66307310D01*
X54533609Y66193191D01*
X54521355Y66147457D01*
X54499500Y66065892D01*
X54499500Y41565892D01*
X54499500Y41434108D01*
X54529579Y41321849D01*
X54533609Y41306810D01*
X54599496Y41192691D01*
X54599498Y41192689D01*
X54599500Y41192686D01*
X54692686Y41099500D01*
X54692688Y41099499D01*
X54692690Y41099497D01*
X54806810Y41033610D01*
X54806811Y41033610D01*
X54806814Y41033608D01*
X54926625Y41001506D01*
X54977937Y40968183D01*
X54999864Y40911062D01*
X55000000Y40905880D01*
X55000000Y39860000D01*
X59400500Y39860000D01*
X59458691Y39841093D01*
X59494655Y39791593D01*
X59499500Y39761000D01*
X59499500Y38199000D01*
X59480593Y38140809D01*
X59431093Y38104845D01*
X59400500Y38100000D01*
X599500Y38100000D01*
X541309Y38118907D01*
X505345Y38168407D01*
X500500Y38199000D01*
X500500Y43149057D01*
X11900900Y43149057D01*
X11900900Y42990943D01*
X11941823Y42838216D01*
X12020880Y42701284D01*
X12132684Y42589480D01*
X12269616Y42510423D01*
X12422343Y42469500D01*
X12422345Y42469500D01*
X12580455Y42469500D01*
X12580457Y42469500D01*
X12733184Y42510423D01*
X12870116Y42589480D01*
X12981920Y42701284D01*
X13060977Y42838216D01*
X13101900Y42990943D01*
X13101900Y43149057D01*
X13060977Y43301784D01*
X12981920Y43438716D01*
X12870116Y43550520D01*
X12733184Y43629577D01*
X12580457Y43670500D01*
X12422343Y43670500D01*
X12269616Y43629577D01*
X12132684Y43550520D01*
X12020880Y43438716D01*
X11941823Y43301784D01*
X11900900Y43149057D01*
X500500Y43149057D01*
X500500Y45295766D01*
X5424500Y45295766D01*
X5424500Y45144234D01*
X5435028Y45104943D01*
X5463720Y44997861D01*
X5539481Y44866640D01*
X5539483Y44866638D01*
X5539485Y44866635D01*
X5646635Y44759485D01*
X5646637Y44759484D01*
X5646639Y44759482D01*
X5777861Y44683721D01*
X5777859Y44683721D01*
X5777863Y44683720D01*
X5777865Y44683719D01*
X5924234Y44644500D01*
X5924236Y44644500D01*
X6075764Y44644500D01*
X6075766Y44644500D01*
X6222135Y44683719D01*
X6222137Y44683721D01*
X6222139Y44683721D01*
X6353360Y44759482D01*
X6353360Y44759483D01*
X6353365Y44759485D01*
X6460515Y44866635D01*
X6460518Y44866640D01*
X6536279Y44997861D01*
X6536279Y44997863D01*
X6536281Y44997865D01*
X6575500Y45144234D01*
X6575500Y45295766D01*
X6536281Y45442135D01*
X6536279Y45442138D01*
X6536279Y45442140D01*
X6460518Y45573361D01*
X6460516Y45573363D01*
X6460515Y45573365D01*
X6353365Y45680515D01*
X6353362Y45680517D01*
X6353360Y45680519D01*
X6222138Y45756280D01*
X6222140Y45756280D01*
X6165347Y45771497D01*
X6075766Y45795500D01*
X5924234Y45795500D01*
X5834652Y45771497D01*
X5777860Y45756280D01*
X5646639Y45680519D01*
X5539481Y45573361D01*
X5463720Y45442140D01*
X5444644Y45370945D01*
X5424500Y45295766D01*
X500500Y45295766D01*
X500500Y51075766D01*
X5424500Y51075766D01*
X5424500Y50924234D01*
X5459086Y50795153D01*
X5463720Y50777861D01*
X5539481Y50646640D01*
X5539483Y50646638D01*
X5539485Y50646635D01*
X5646635Y50539485D01*
X5646637Y50539484D01*
X5646639Y50539482D01*
X5777861Y50463721D01*
X5777859Y50463721D01*
X5777863Y50463720D01*
X5777865Y50463719D01*
X5924234Y50424500D01*
X5924236Y50424500D01*
X6075764Y50424500D01*
X6075766Y50424500D01*
X6222135Y50463719D01*
X6222137Y50463721D01*
X6222139Y50463721D01*
X6353360Y50539482D01*
X6353360Y50539483D01*
X6353365Y50539485D01*
X6460515Y50646635D01*
X6460518Y50646640D01*
X6536279Y50777861D01*
X6536279Y50777863D01*
X6536281Y50777865D01*
X6575500Y50924234D01*
X6575500Y51075766D01*
X6536281Y51222135D01*
X6536279Y51222138D01*
X6536279Y51222140D01*
X6460518Y51353361D01*
X6460516Y51353363D01*
X6460515Y51353365D01*
X6353365Y51460515D01*
X6353362Y51460517D01*
X6353360Y51460519D01*
X6222138Y51536280D01*
X6222140Y51536280D01*
X6165347Y51551497D01*
X6075766Y51575500D01*
X5924234Y51575500D01*
X5834652Y51551497D01*
X5777860Y51536280D01*
X5646639Y51460519D01*
X5539481Y51353361D01*
X5463720Y51222140D01*
X5463719Y51222135D01*
X5424500Y51075766D01*
X500500Y51075766D01*
X500500Y71678115D01*
X519407Y71736306D01*
X568907Y71772270D01*
X630093Y71772270D01*
X637392Y71769576D01*
X640411Y71768326D01*
X640416Y71768323D01*
X793143Y71727400D01*
X793145Y71727400D01*
X951255Y71727400D01*
X951257Y71727400D01*
X1103984Y71768323D01*
X1240916Y71847380D01*
X1352720Y71959184D01*
X1431777Y72096116D01*
X1472700Y72248843D01*
X1472700Y72406957D01*
X1431777Y72559684D01*
X1352720Y72696616D01*
X1240916Y72808420D01*
X1103984Y72887477D01*
X951257Y72928400D01*
X793143Y72928400D01*
X699670Y72903355D01*
X640411Y72887476D01*
X637383Y72886221D01*
X635043Y72886037D01*
X634148Y72885797D01*
X634103Y72885963D01*
X576386Y72881422D01*
X524218Y72913393D01*
X500805Y72969921D01*
X500500Y72977686D01*
X500500Y105997565D01*
X500619Y106002422D01*
X510153Y106196496D01*
X517113Y106338176D01*
X518063Y106347814D01*
X567029Y106677920D01*
X568918Y106687418D01*
X650009Y107011151D01*
X652818Y107020410D01*
X765249Y107334633D01*
X768958Y107343588D01*
X911644Y107645272D01*
X916211Y107653815D01*
X1087780Y107940062D01*
X1093163Y107948117D01*
X1291957Y108216159D01*
X1298107Y108223654D01*
X1522228Y108470933D01*
X1529067Y108477772D01*
X1776346Y108701893D01*
X1783841Y108708043D01*
X2051883Y108906837D01*
X2059938Y108912220D01*
X2346185Y109083789D01*
X2354728Y109088356D01*
X2656412Y109231042D01*
X2665367Y109234751D01*
X2979590Y109347182D01*
X2988849Y109349991D01*
X3312582Y109431082D01*
X3322080Y109432971D01*
X3652186Y109481937D01*
X3661824Y109482887D01*
X3970606Y109498056D01*
X3997579Y109499381D01*
X4002436Y109499500D01*
X4065892Y109499500D01*
X8151000Y109499500D01*
X8209191Y109480593D01*
G37*
%TD.AperFunction*%
%TA.AperFunction,Conductor*%
G36*
X14953899Y46447357D02*
G01*
X14969987Y46434331D01*
X15204488Y46199830D01*
X15232265Y46145313D01*
X15222694Y46084881D01*
X15179429Y46041616D01*
X15160107Y46034200D01*
X15068216Y46009577D01*
X14931284Y45930520D01*
X14819480Y45818716D01*
X14740423Y45681784D01*
X14699500Y45529057D01*
X14699500Y45370943D01*
X14740423Y45218216D01*
X14819480Y45081284D01*
X14931284Y44969480D01*
X15068216Y44890423D01*
X15220943Y44849500D01*
X15220945Y44849500D01*
X15379055Y44849500D01*
X15379057Y44849500D01*
X15531784Y44890423D01*
X15668716Y44969480D01*
X15780520Y45081284D01*
X15859577Y45218216D01*
X15884199Y45310110D01*
X15917522Y45361422D01*
X15974643Y45383349D01*
X16033744Y45367514D01*
X16049829Y45354489D01*
X17184788Y44219530D01*
X17264712Y44173386D01*
X17353856Y44149500D01*
X20691097Y44149500D01*
X20749288Y44130593D01*
X20785252Y44081093D01*
X20785252Y44019907D01*
X20749288Y43970407D01*
X20740602Y43964768D01*
X20708926Y43946480D01*
X20681285Y43930521D01*
X20681284Y43930520D01*
X20569480Y43818716D01*
X20490423Y43681784D01*
X20458075Y43561057D01*
X20449500Y43529056D01*
X20449500Y43421545D01*
X20430593Y43363354D01*
X20420504Y43351541D01*
X20207459Y43138496D01*
X20152942Y43110719D01*
X20137455Y43109500D01*
X16764744Y43109500D01*
X16706553Y43128407D01*
X16694741Y43138496D01*
X16618718Y43214518D01*
X16618716Y43214520D01*
X16481784Y43293577D01*
X16329057Y43334500D01*
X16170943Y43334500D01*
X16018216Y43293577D01*
X15881284Y43214520D01*
X15769480Y43102716D01*
X15690423Y42965784D01*
X15649500Y42813057D01*
X15649500Y42654943D01*
X15690423Y42502216D01*
X15769480Y42365284D01*
X15881284Y42253480D01*
X16018216Y42174423D01*
X16170943Y42133500D01*
X16170945Y42133500D01*
X16329055Y42133500D01*
X16329057Y42133500D01*
X16481784Y42174423D01*
X16618716Y42253480D01*
X16656729Y42291494D01*
X16694741Y42329504D01*
X16749258Y42357281D01*
X16764744Y42358500D01*
X20383436Y42358500D01*
X20431186Y42371295D01*
X20431187Y42371295D01*
X20478934Y42384089D01*
X20478933Y42384089D01*
X20478938Y42384090D01*
X20564562Y42433525D01*
X20634475Y42503438D01*
X20951541Y42820504D01*
X21006058Y42848281D01*
X21021545Y42849500D01*
X21129055Y42849500D01*
X21129057Y42849500D01*
X21281784Y42890423D01*
X21418716Y42969480D01*
X21530520Y43081284D01*
X21609577Y43218216D01*
X21650500Y43370943D01*
X21650500Y43529057D01*
X21609577Y43681784D01*
X21530520Y43818716D01*
X21418716Y43930520D01*
X21359403Y43964765D01*
X21318462Y44010233D01*
X21312066Y44071083D01*
X21342659Y44124071D01*
X21398554Y44148958D01*
X21408903Y44149500D01*
X24342626Y44149500D01*
X24400817Y44130593D01*
X24436781Y44081093D01*
X24438252Y44024880D01*
X24422145Y43964763D01*
X24419500Y43954891D01*
X24419500Y42199500D01*
X24400593Y42141309D01*
X24351093Y42105345D01*
X24320500Y42100500D01*
X24045326Y42100500D01*
X24045325Y42100500D01*
X24045315Y42100499D01*
X23972263Y42085967D01*
X23972257Y42085965D01*
X23889400Y42030603D01*
X23889397Y42030600D01*
X23834035Y41947743D01*
X23834033Y41947737D01*
X23819501Y41874685D01*
X23819500Y41874673D01*
X23819500Y40296800D01*
X23800593Y40238609D01*
X23751093Y40202645D01*
X23720500Y40197800D01*
X16558356Y40197800D01*
X16500165Y40216707D01*
X16488352Y40226796D01*
X14496896Y42218252D01*
X14469119Y42272769D01*
X14467900Y42288256D01*
X14467900Y42325056D01*
X14466708Y42329504D01*
X14426977Y42477784D01*
X14347920Y42614716D01*
X14347917Y42614719D01*
X14321895Y42640742D01*
X14294119Y42695259D01*
X14292900Y42710744D01*
X14292900Y43739518D01*
X14290435Y43748716D01*
X14290434Y43748720D01*
X14288932Y43754326D01*
X14263903Y43847737D01*
X14245820Y43879057D01*
X14245820Y43879058D01*
X14207886Y43944761D01*
X14207885Y43944763D01*
X14128663Y44023985D01*
X14128660Y44023987D01*
X12747951Y45404696D01*
X12720174Y45459213D01*
X12729745Y45519645D01*
X12747951Y45544704D01*
X13042748Y45839500D01*
X13351152Y46147904D01*
X13405669Y46175681D01*
X13421156Y46176900D01*
X13774856Y46176900D01*
X13833047Y46157993D01*
X13844858Y46147905D01*
X13857905Y46134859D01*
X13870884Y46121880D01*
X14007816Y46042823D01*
X14160543Y46001900D01*
X14160545Y46001900D01*
X14318655Y46001900D01*
X14318657Y46001900D01*
X14471384Y46042823D01*
X14608316Y46121880D01*
X14720120Y46233684D01*
X14799177Y46370616D01*
X14804357Y46389950D01*
X14837677Y46441262D01*
X14894798Y46463191D01*
X14953899Y46447357D01*
G37*
%TD.AperFunction*%
%TA.AperFunction,Conductor*%
G36*
X26714948Y43369593D02*
G01*
X26750912Y43320093D01*
X26750912Y43258907D01*
X26726762Y43219499D01*
X26619980Y43112716D01*
X26540923Y42975784D01*
X26500000Y42823057D01*
X26500000Y42664943D01*
X26540923Y42512216D01*
X26619980Y42375284D01*
X26731784Y42263480D01*
X26868716Y42184423D01*
X27021443Y42143500D01*
X27021445Y42143500D01*
X27179555Y42143500D01*
X27179557Y42143500D01*
X27332284Y42184423D01*
X27469216Y42263480D01*
X27570241Y42364506D01*
X27624756Y42392281D01*
X27640243Y42393500D01*
X34835510Y42393500D01*
X34893701Y42374593D01*
X34905514Y42364504D01*
X35008045Y42261973D01*
X35035822Y42207456D01*
X35026251Y42147024D01*
X34982986Y42103759D01*
X34953529Y42094188D01*
X34822296Y42073402D01*
X34822293Y42073402D01*
X34657561Y42019877D01*
X34657558Y42019875D01*
X34503214Y41941234D01*
X34363073Y41839415D01*
X34240585Y41716927D01*
X34138766Y41576786D01*
X34060125Y41422442D01*
X34060123Y41422439D01*
X34006598Y41257707D01*
X34006597Y41257703D01*
X33979500Y41086615D01*
X33979500Y40913386D01*
X34006597Y40742298D01*
X34006598Y40742294D01*
X34060123Y40577562D01*
X34060125Y40577559D01*
X34138766Y40423215D01*
X34188334Y40354991D01*
X34207241Y40296800D01*
X34188334Y40238609D01*
X34138834Y40202645D01*
X34108241Y40197800D01*
X33511759Y40197800D01*
X33453568Y40216707D01*
X33417604Y40266207D01*
X33417604Y40327393D01*
X33431666Y40354991D01*
X33440249Y40366804D01*
X33481232Y40423212D01*
X33559873Y40577555D01*
X33559874Y40577560D01*
X33559876Y40577562D01*
X33613401Y40742294D01*
X33613402Y40742298D01*
X33640500Y40913386D01*
X33640500Y41086615D01*
X33613402Y41257703D01*
X33613401Y41257707D01*
X33559876Y41422439D01*
X33559874Y41422442D01*
X33559873Y41422443D01*
X33559873Y41422445D01*
X33481232Y41576788D01*
X33379414Y41716928D01*
X33256928Y41839414D01*
X33116788Y41941232D01*
X33116787Y41941233D01*
X33116785Y41941234D01*
X32962441Y42019875D01*
X32962438Y42019877D01*
X32797706Y42073402D01*
X32797702Y42073403D01*
X32626614Y42100500D01*
X32626611Y42100500D01*
X32453389Y42100500D01*
X32453386Y42100500D01*
X32282297Y42073403D01*
X32282293Y42073402D01*
X32117561Y42019877D01*
X32117558Y42019875D01*
X31963214Y41941234D01*
X31823073Y41839415D01*
X31700585Y41716927D01*
X31598766Y41576786D01*
X31520125Y41422442D01*
X31520123Y41422439D01*
X31466598Y41257707D01*
X31466597Y41257703D01*
X31439500Y41086615D01*
X31439500Y40913386D01*
X31466597Y40742298D01*
X31466598Y40742294D01*
X31520123Y40577562D01*
X31520125Y40577559D01*
X31598766Y40423215D01*
X31648334Y40354991D01*
X31667241Y40296800D01*
X31648334Y40238609D01*
X31598834Y40202645D01*
X31568241Y40197800D01*
X30971759Y40197800D01*
X30913568Y40216707D01*
X30877604Y40266207D01*
X30877604Y40327393D01*
X30891666Y40354991D01*
X30900249Y40366804D01*
X30941232Y40423212D01*
X31019873Y40577555D01*
X31019874Y40577560D01*
X31019876Y40577562D01*
X31073401Y40742294D01*
X31073402Y40742298D01*
X31100500Y40913386D01*
X31100500Y41086615D01*
X31073402Y41257703D01*
X31073401Y41257707D01*
X31019876Y41422439D01*
X31019874Y41422442D01*
X31019873Y41422443D01*
X31019873Y41422445D01*
X30941232Y41576788D01*
X30839414Y41716928D01*
X30716928Y41839414D01*
X30576788Y41941232D01*
X30576787Y41941233D01*
X30576785Y41941234D01*
X30422441Y42019875D01*
X30422438Y42019877D01*
X30257706Y42073402D01*
X30257702Y42073403D01*
X30086614Y42100500D01*
X30086611Y42100500D01*
X29913389Y42100500D01*
X29913386Y42100500D01*
X29742297Y42073403D01*
X29742293Y42073402D01*
X29577561Y42019877D01*
X29577558Y42019875D01*
X29423214Y41941234D01*
X29283073Y41839415D01*
X29160585Y41716927D01*
X29058766Y41576786D01*
X28980125Y41422442D01*
X28980123Y41422439D01*
X28926598Y41257707D01*
X28926597Y41257703D01*
X28899500Y41086615D01*
X28899500Y40913386D01*
X28926597Y40742298D01*
X28926598Y40742294D01*
X28980123Y40577562D01*
X28980125Y40577559D01*
X29058766Y40423215D01*
X29108334Y40354991D01*
X29127241Y40296800D01*
X29108334Y40238609D01*
X29058834Y40202645D01*
X29028241Y40197800D01*
X26119500Y40197800D01*
X26061309Y40216707D01*
X26025345Y40266207D01*
X26020500Y40296800D01*
X26020500Y41874673D01*
X26020498Y41874685D01*
X26010209Y41926407D01*
X26005966Y41947740D01*
X25961549Y42014216D01*
X25950602Y42030600D01*
X25950599Y42030603D01*
X25867742Y42085965D01*
X25867740Y42085966D01*
X25867737Y42085967D01*
X25867736Y42085967D01*
X25794684Y42100499D01*
X25794674Y42100500D01*
X25794673Y42100500D01*
X25519500Y42100500D01*
X25461309Y42119407D01*
X25425345Y42168907D01*
X25420500Y42199500D01*
X25420500Y43289500D01*
X25439407Y43347691D01*
X25488907Y43383655D01*
X25519500Y43388500D01*
X26656757Y43388500D01*
X26714948Y43369593D01*
G37*
%TD.AperFunction*%
%TA.AperFunction,Conductor*%
G36*
X9684793Y56394593D02*
G01*
X9696606Y56384504D01*
X13103606Y52977504D01*
X13131383Y52922987D01*
X13121812Y52862555D01*
X13078547Y52819290D01*
X13033602Y52808500D01*
X12072190Y52808500D01*
X12013999Y52827407D01*
X12002186Y52837496D01*
X8595186Y56244496D01*
X8567409Y56299013D01*
X8576980Y56359445D01*
X8620245Y56402710D01*
X8665190Y56413500D01*
X9626602Y56413500D01*
X9684793Y56394593D01*
G37*
%TD.AperFunction*%
%TA.AperFunction,Conductor*%
G36*
X9552493Y66481093D02*
G01*
X9564306Y66471004D01*
X11469839Y64565471D01*
X11469839Y64565470D01*
X11556958Y64478350D01*
X11556962Y64478347D01*
X11556967Y64478342D01*
X11659414Y64409889D01*
X11773248Y64362737D01*
X11824212Y64352600D01*
X11894093Y64338700D01*
X11894094Y64338700D01*
X20500457Y64338700D01*
X20558648Y64319793D01*
X20594612Y64270293D01*
X20594612Y64209107D01*
X20570462Y64169699D01*
X20519480Y64118716D01*
X20440423Y63981784D01*
X20399500Y63829057D01*
X20399500Y63670943D01*
X20440423Y63518216D01*
X20519480Y63381284D01*
X20631284Y63269480D01*
X20768216Y63190423D01*
X20920943Y63149500D01*
X20920945Y63149500D01*
X21079055Y63149500D01*
X21079057Y63149500D01*
X21231784Y63190423D01*
X21368716Y63269480D01*
X21480520Y63381284D01*
X21559577Y63518216D01*
X21600500Y63670943D01*
X21600500Y63829057D01*
X21559577Y63981784D01*
X21480520Y64118716D01*
X21429537Y64169699D01*
X21401762Y64224213D01*
X21411333Y64284645D01*
X21454598Y64327910D01*
X21499543Y64338700D01*
X26821944Y64338700D01*
X26880135Y64319793D01*
X26891948Y64309704D01*
X29346504Y61855148D01*
X29374281Y61800631D01*
X29375500Y61785144D01*
X29375500Y61213599D01*
X29356593Y61155408D01*
X29346504Y61143595D01*
X24557406Y56354496D01*
X24502889Y56326719D01*
X24487402Y56325500D01*
X19679591Y56325500D01*
X19558749Y56301464D01*
X19444914Y56254312D01*
X19342467Y56185858D01*
X19342463Y56185855D01*
X19255345Y56098737D01*
X19255342Y56098733D01*
X19186888Y55996286D01*
X19139736Y55882451D01*
X19115700Y55761609D01*
X19115700Y55642190D01*
X19096793Y55583999D01*
X19047293Y55548035D01*
X18986107Y55548035D01*
X18946696Y55572186D01*
X14897101Y59621781D01*
X14869324Y59676298D01*
X14878895Y59736730D01*
X14917602Y59777520D01*
X15006216Y59828680D01*
X15118020Y59940484D01*
X15197077Y60077416D01*
X15238000Y60230143D01*
X15238000Y60388257D01*
X15197077Y60540984D01*
X15118020Y60677916D01*
X15006216Y60789720D01*
X14869284Y60868777D01*
X14716557Y60909700D01*
X14558443Y60909700D01*
X14405716Y60868777D01*
X14268784Y60789720D01*
X14156979Y60677915D01*
X14105820Y60589305D01*
X14060350Y60548365D01*
X13999500Y60541970D01*
X13950080Y60568802D01*
X8784696Y65734186D01*
X8756919Y65788703D01*
X8755700Y65804190D01*
X8755700Y65947056D01*
X8749896Y65968716D01*
X8714777Y66099784D01*
X8635720Y66236716D01*
X8541437Y66330999D01*
X8513662Y66385513D01*
X8523233Y66445945D01*
X8566498Y66489210D01*
X8611443Y66500000D01*
X9494302Y66500000D01*
X9552493Y66481093D01*
G37*
%TD.AperFunction*%
%TA.AperFunction,Conductor*%
G36*
X7917395Y65310842D02*
G01*
X7917422Y65310906D01*
X7923408Y65308428D01*
X7923416Y65308423D01*
X8076143Y65267500D01*
X8076145Y65267500D01*
X8219010Y65267500D01*
X8277201Y65248593D01*
X8289014Y65238504D01*
X13173014Y60354504D01*
X16816431Y56711088D01*
X16844208Y56656571D01*
X16834637Y56596139D01*
X16791372Y56552874D01*
X16730940Y56543303D01*
X16720804Y56545457D01*
X16693123Y56552874D01*
X16582557Y56582500D01*
X16439690Y56582500D01*
X16381499Y56601407D01*
X16369687Y56611496D01*
X15969714Y57011468D01*
X15969712Y57011470D01*
X15889788Y57057614D01*
X15800644Y57081500D01*
X15800642Y57081500D01*
X13645243Y57081500D01*
X13587052Y57100407D01*
X13575245Y57110491D01*
X13474216Y57211520D01*
X13337284Y57290577D01*
X13184557Y57331500D01*
X13026443Y57331500D01*
X12931226Y57305987D01*
X12877223Y57291517D01*
X12816121Y57294720D01*
X12768571Y57333225D01*
X12752600Y57387144D01*
X12752600Y58189790D01*
X12760135Y58227674D01*
X12797363Y58317549D01*
X12821400Y58438393D01*
X12821400Y58561607D01*
X12797363Y58682451D01*
X12750212Y58796286D01*
X12681757Y58898733D01*
X12594633Y58985857D01*
X12492186Y59054312D01*
X12492185Y59054313D01*
X12492183Y59054314D01*
X12378351Y59101463D01*
X12257509Y59125500D01*
X12257507Y59125500D01*
X12134293Y59125500D01*
X12134290Y59125500D01*
X12013449Y59101463D01*
X12013447Y59101463D01*
X11899617Y59054314D01*
X11797167Y58985858D01*
X11728370Y58917061D01*
X11728362Y58917055D01*
X11641239Y58829931D01*
X11641237Y58829929D01*
X11618760Y58796288D01*
X11618760Y58796287D01*
X11572789Y58727489D01*
X11572786Y58727482D01*
X11546930Y58665058D01*
X11546930Y58665057D01*
X11525638Y58613656D01*
X11525636Y58613650D01*
X11501600Y58492809D01*
X11501600Y56587698D01*
X11482693Y56529507D01*
X11433193Y56493543D01*
X11372007Y56493543D01*
X11332596Y56517694D01*
X10412560Y57437730D01*
X10412560Y57437731D01*
X10325435Y57524857D01*
X10274209Y57559085D01*
X10222983Y57593314D01*
X10131314Y57631283D01*
X10131309Y57631285D01*
X10109152Y57640463D01*
X10109150Y57640464D01*
X10048729Y57652482D01*
X10048729Y57652483D01*
X9988311Y57664500D01*
X9988307Y57664500D01*
X9988306Y57664500D01*
X8249194Y57664500D01*
X8249191Y57664500D01*
X8128349Y57640464D01*
X8014514Y57593312D01*
X7930902Y57537443D01*
X7872013Y57520834D01*
X7814610Y57542012D01*
X7780617Y57592885D01*
X7776900Y57619758D01*
X7776900Y65221542D01*
X7795807Y65279733D01*
X7845307Y65315697D01*
X7906493Y65315697D01*
X7917395Y65310842D01*
G37*
%TD.AperFunction*%
%TA.AperFunction,Conductor*%
G36*
X4367093Y78629881D02*
G01*
X4382625Y78597316D01*
X4390423Y78568216D01*
X4469480Y78431284D01*
X4581284Y78319480D01*
X4718216Y78240423D01*
X4870943Y78199500D01*
X4870945Y78199500D01*
X5029055Y78199500D01*
X5029057Y78199500D01*
X5181784Y78240423D01*
X5318716Y78319480D01*
X5430520Y78431284D01*
X5430523Y78431289D01*
X5433960Y78435767D01*
X5484384Y78470423D01*
X5512502Y78474500D01*
X8151000Y78474500D01*
X8209191Y78455593D01*
X8245155Y78406093D01*
X8250000Y78375500D01*
X8250000Y75599944D01*
X8231093Y75541753D01*
X8221006Y75529942D01*
X8208380Y75517316D01*
X8129323Y75380384D01*
X8088400Y75227657D01*
X8088400Y75069543D01*
X8129323Y74916816D01*
X8208380Y74779884D01*
X8221005Y74767259D01*
X8248781Y74712744D01*
X8250000Y74697257D01*
X8250000Y69793498D01*
X8231093Y69735307D01*
X8181593Y69699343D01*
X8120407Y69699343D01*
X8080996Y69723494D01*
X4216996Y73587494D01*
X4189219Y73642011D01*
X4188000Y73657498D01*
X4188000Y78571690D01*
X4206907Y78629881D01*
X4256407Y78665845D01*
X4317593Y78665845D01*
X4367093Y78629881D01*
G37*
%TD.AperFunction*%
%TA.AperFunction,Conductor*%
G36*
X8209191Y89520393D02*
G01*
X8245155Y89470893D01*
X8250000Y89440300D01*
X8250000Y88311503D01*
X8236737Y88262004D01*
X8190423Y88181786D01*
X8163141Y88079966D01*
X8149500Y88029057D01*
X8149500Y87870943D01*
X8190423Y87718216D01*
X8236737Y87637998D01*
X8250000Y87588498D01*
X8250000Y86624598D01*
X8242467Y86586719D01*
X8240424Y86581788D01*
X8240423Y86581784D01*
X8199500Y86429057D01*
X8199500Y86270943D01*
X8226782Y86169125D01*
X8240423Y86118215D01*
X8242463Y86113292D01*
X8250000Y86075404D01*
X8250000Y79290244D01*
X8231093Y79232053D01*
X8221009Y79220246D01*
X8219481Y79218719D01*
X8194240Y79174999D01*
X8148770Y79134059D01*
X8108504Y79125500D01*
X5512502Y79125500D01*
X5454311Y79144407D01*
X5433960Y79164233D01*
X5430523Y79168712D01*
X5430521Y79168714D01*
X5430520Y79168716D01*
X5318716Y79280520D01*
X5181784Y79359577D01*
X5029057Y79400500D01*
X4870943Y79400500D01*
X4718216Y79359577D01*
X4581284Y79280520D01*
X4469480Y79168716D01*
X4390421Y79031782D01*
X4390421Y79031781D01*
X4382626Y79002687D01*
X4349302Y78951373D01*
X4292181Y78929447D01*
X4233080Y78945283D01*
X4194575Y78992833D01*
X4188000Y79028311D01*
X4188000Y89440300D01*
X4206907Y89498491D01*
X4256407Y89534455D01*
X4287000Y89539300D01*
X8151000Y89539300D01*
X8209191Y89520393D01*
G37*
%TD.AperFunction*%
%TD*%
M02*
