%TF.GenerationSoftware,KiCad,Pcbnew,10.0.6*%
%TF.CreationDate,2026-09-22T21:18:05+02:00*%
%TF.ProjectId,nucula-v2,6e756375-6c61-42d7-9632-2e6b69636164,rev?*%
%TF.SameCoordinates,Original*%
%TF.FileFunction,Copper,L3,Inr*%
%TF.FilePolarity,Positive*%
%FSLAX46Y46*%
G04 Gerber Fmt 4.6, Leading zero omitted, Abs format (unit mm)*
G04 Created by KiCad (PCBNEW 10.0.6) date 2026-09-22 21:18:05*
%MOMM*%
%LPD*%
G01*
G04 APERTURE LIST*
%TA.AperFunction,ComponentPad*%
%ADD10R,1.700000X1.700000*%
%TD*%
%TA.AperFunction,ComponentPad*%
%ADD11C,1.700000*%
%TD*%
%TA.AperFunction,ComponentPad*%
%ADD12O,2.300000X1.300000*%
%TD*%
%TA.AperFunction,ComponentPad*%
%ADD13O,2.000000X1.300000*%
%TD*%
%TA.AperFunction,ComponentPad*%
%ADD14C,0.800000*%
%TD*%
%TA.AperFunction,ViaPad*%
%ADD15C,0.700000*%
%TD*%
%TA.AperFunction,Conductor*%
%ADD16C,0.150000*%
%TD*%
%TA.AperFunction,Conductor*%
%ADD17C,0.500000*%
%TD*%
%TA.AperFunction,Conductor*%
%ADD18C,0.350000*%
%TD*%
%TA.AperFunction,Conductor*%
%ADD19C,0.300000*%
%TD*%
%TA.AperFunction,Conductor*%
%ADD20C,0.250000*%
%TD*%
%TA.AperFunction,Conductor*%
%ADD21C,0.750000*%
%TD*%
%TA.AperFunction,Conductor*%
%ADD22C,0.200000*%
%TD*%
G04 APERTURE END LIST*
D10*
%TO.N,/+3V3*%
%TO.C,J4*%
X24920000Y41000000D03*
D11*
%TO.N,GND*%
X27460000Y41000000D03*
%TO.N,/I2C_SDA*%
X30000000Y41000000D03*
%TO.N,/I2C_SCL*%
X32540000Y41000000D03*
%TO.N,/KEY_INT_N*%
X35080000Y41000000D03*
%TD*%
D10*
%TO.N,unconnected-(J3-Pin_1-Pad1)*%
%TO.C,J3*%
X19840000Y2500000D03*
D11*
%TO.N,/Keyboard {slash} breakaway {slash} 0x20/KEY_P0*%
X22380000Y2500000D03*
%TO.N,/Keyboard {slash} breakaway {slash} 0x20/KEY_P1*%
X24920000Y2500000D03*
%TO.N,/Keyboard {slash} breakaway {slash} 0x20/KEY_P2*%
X27460000Y2500000D03*
%TO.N,/Keyboard {slash} breakaway {slash} 0x20/KEY_P3*%
X30000000Y2500000D03*
%TO.N,/Keyboard {slash} breakaway {slash} 0x20/KEY_P4*%
X32540000Y2500000D03*
%TO.N,/Keyboard {slash} breakaway {slash} 0x20/KEY_P5*%
X35080000Y2500000D03*
%TO.N,/Keyboard {slash} breakaway {slash} 0x20/KEY_P6*%
X37620000Y2500000D03*
%TO.N,unconnected-(J3-Pin_9-Pad9)*%
X40160000Y2500000D03*
%TD*%
D12*
%TO.N,GND*%
%TO.C,J1*%
X6500000Y52430000D03*
D13*
X2320000Y52430000D03*
D12*
X6500000Y43790000D03*
D13*
X2320000Y43790000D03*
%TD*%
D10*
%TO.N,/+3V3*%
%TO.C,J5*%
X24920000Y30000000D03*
D11*
%TO.N,GND*%
X27460000Y30000000D03*
%TO.N,/I2C_SDA*%
X30000000Y30000000D03*
%TO.N,/I2C_SCL*%
X32540000Y30000000D03*
%TO.N,/KEY_INT_N*%
X35080000Y30000000D03*
%TD*%
D14*
%TO.N,Net-(A1-LOOP_A)*%
%TO.C,A1*%
X51350000Y90500000D03*
X45250000Y90500000D03*
%TD*%
D15*
%TO.N,/+3V3*%
X39050000Y58000000D03*
X37687500Y43889000D03*
X1850000Y87500000D03*
X15850000Y89800000D03*
X21000000Y92100000D03*
X41467200Y64201600D03*
X20100000Y95980000D03*
X14945900Y17321000D03*
X17400000Y98750000D03*
X21000000Y63750000D03*
X19303800Y11552000D03*
X50670000Y66970400D03*
%TO.N,/Power + ESP32-C3/ESP_EN*%
X50700000Y63952100D03*
X54714000Y70039100D03*
%TO.N,GND*%
X6000000Y39000000D03*
X50000000Y19000000D03*
X34000000Y23000000D03*
X46000000Y3000000D03*
X58000000Y15000000D03*
X52600000Y65500000D03*
X54000000Y19000000D03*
X50000000Y3000000D03*
X45700000Y52900000D03*
X2000000Y19000000D03*
X38000000Y19000000D03*
X54000000Y31000000D03*
X54000000Y107000000D03*
X46000000Y59000000D03*
X42000000Y15000000D03*
X10000000Y11000000D03*
X58000000Y7000000D03*
X30000000Y23000000D03*
X28890300Y87312500D03*
X50000000Y7000000D03*
X2000000Y47000000D03*
X30000000Y19000000D03*
X10425000Y43500000D03*
X52725000Y69275000D03*
X43475000Y43025000D03*
X38000000Y15000000D03*
X38000000Y23000000D03*
X58000000Y31000000D03*
X10000000Y23000000D03*
X29620500Y79579200D03*
X2275000Y95050000D03*
X15950000Y85650000D03*
X38000000Y31000000D03*
X18725000Y49550000D03*
X27550000Y50500000D03*
X46000000Y15000000D03*
X2000000Y23000000D03*
X32850000Y79500000D03*
X42000000Y7000000D03*
X22000000Y27000000D03*
X8650000Y48100000D03*
X58000000Y23000000D03*
X52025000Y40275000D03*
X6600000Y73300000D03*
X14000000Y23000000D03*
X6000000Y3000000D03*
X30650000Y79500000D03*
X18225000Y46875000D03*
X2000000Y63000000D03*
X22000000Y15000000D03*
X4800000Y87000000D03*
X58000000Y103000000D03*
X2000000Y55000000D03*
X58000000Y99000000D03*
X50000000Y27000000D03*
X42000000Y11000000D03*
X46000000Y23000000D03*
X48825000Y40275000D03*
X2000000Y27000000D03*
X26000000Y11000000D03*
X15300000Y91600000D03*
X14000000Y27000000D03*
X6425000Y96775000D03*
X58000000Y39000000D03*
X38000000Y7000000D03*
X26310200Y78685200D03*
X31121600Y88861800D03*
X10400000Y55000000D03*
X38000000Y11000000D03*
X18900000Y21500000D03*
X2000000Y39000000D03*
X54000000Y59000000D03*
X54000000Y99000000D03*
X55100000Y82700000D03*
X3925000Y7460000D03*
X58000000Y91000000D03*
X46000000Y31000000D03*
X37100000Y45650000D03*
X50000000Y11000000D03*
X13225000Y45575000D03*
X6000000Y23000000D03*
X13300000Y62750000D03*
X46000000Y27000000D03*
X18000000Y31000000D03*
X55100000Y77700000D03*
X6000000Y103000000D03*
X3925000Y16350000D03*
X41350000Y79500000D03*
X10000000Y7000000D03*
X34000000Y19000000D03*
X46000000Y19000000D03*
X8200000Y51310000D03*
X58000000Y87000000D03*
X3925000Y15080000D03*
X14000000Y31000000D03*
X54000000Y3000000D03*
X10000000Y27000000D03*
X18000000Y27000000D03*
X54000000Y91000000D03*
X2000000Y3000000D03*
X46000000Y7000000D03*
X3925000Y13810000D03*
X54000000Y7000000D03*
X6000000Y31000000D03*
X18625000Y19050000D03*
X32525000Y48100000D03*
X42000000Y23000000D03*
X10000000Y63000000D03*
X10000000Y15000000D03*
X23550000Y49350000D03*
X58000000Y19000000D03*
X26000000Y19000000D03*
X40900000Y62560000D03*
X34000000Y11000000D03*
X13425000Y58500000D03*
X54000000Y23000000D03*
X54000000Y47000000D03*
X52725000Y40825000D03*
X42000000Y51000000D03*
X50511000Y40766000D03*
X34000000Y15000000D03*
X54000000Y15000000D03*
X54000000Y103000000D03*
X54000000Y87000000D03*
X58000000Y83000000D03*
X54000000Y27000000D03*
X10000000Y31000000D03*
X46000000Y11000000D03*
X54000000Y55000000D03*
X36450000Y49300000D03*
X58000000Y27000000D03*
X10000000Y19000000D03*
X38000000Y27000000D03*
X21120500Y76000100D03*
X8800000Y91600000D03*
X50000000Y31000000D03*
X3900000Y60100000D03*
X2000000Y103000000D03*
X22000000Y11000000D03*
X58000000Y3000000D03*
X2000000Y11000000D03*
X16500000Y60275000D03*
X6000000Y107000000D03*
X24275000Y46550000D03*
X30000000Y11000000D03*
X2000000Y67000000D03*
X14000000Y3000000D03*
X46000000Y47000000D03*
X42000000Y19000000D03*
X43225000Y67525000D03*
X58000000Y107000000D03*
X42000000Y27000000D03*
X2200000Y77450000D03*
X53475000Y73548400D03*
X54000000Y51000000D03*
X50000000Y23000000D03*
X18350000Y51750000D03*
X58000000Y11000000D03*
X6000000Y19000000D03*
X2000000Y31000000D03*
X50000000Y15000000D03*
X58000000Y95000000D03*
X37875000Y43000000D03*
X6550000Y66750000D03*
X34000000Y27000000D03*
X47400000Y64800000D03*
X6000000Y27000000D03*
X33150000Y46600000D03*
X30750000Y50700000D03*
X39150000Y79500000D03*
X30000000Y55000000D03*
X22000000Y31000000D03*
X34000000Y7050000D03*
X11825000Y51250000D03*
X41150000Y42150000D03*
X8200000Y44910000D03*
X42000000Y31000000D03*
X54000000Y95000000D03*
X30000000Y15000000D03*
X26000000Y15000000D03*
X54000000Y11000000D03*
X28375000Y46450000D03*
X2000000Y107000000D03*
%TO.N,/OLED {slash} SSD1309 {slash} 0x3C/OLED_FB*%
X872200Y72327900D03*
X4950000Y78800000D03*
X8700000Y78850000D03*
%TO.N,/VSYS*%
X3562500Y90164800D03*
X18883300Y86200000D03*
X21050000Y43450000D03*
X8800000Y90650000D03*
X22647500Y90900000D03*
X19741200Y55700000D03*
X15300000Y90650000D03*
X31400000Y98800000D03*
X28050000Y65850000D03*
X16250000Y42734000D03*
%TO.N,/Power + ESP32-C3/USB_5V*%
X17900000Y54800000D03*
X12195900Y58500000D03*
X12501400Y43070000D03*
%TO.N,/I2C_SDA*%
X29208500Y47786000D03*
X6843500Y67606900D03*
X50900000Y61295300D03*
X15200000Y88950000D03*
X20100000Y96920000D03*
X8850000Y88950000D03*
X19051100Y88724600D03*
X19325000Y16533000D03*
%TO.N,/I2C_SCL*%
X30200000Y48001000D03*
X16000000Y88000000D03*
X49400000Y61301700D03*
X21000000Y47048000D03*
X8750000Y87950000D03*
X20145500Y19461000D03*
X6673400Y57028000D03*
X18650000Y92200000D03*
X16050000Y84750000D03*
%TO.N,/KEY_INT_N*%
X42613200Y43380000D03*
X16765200Y11871000D03*
%TO.N,/NFC {slash} PN7160 {slash} 0x28/NFC_VMID*%
X24122300Y80423800D03*
X27347500Y90900000D03*
%TO.N,/NFC {slash} PN7160 {slash} 0x28/NFC_VDDUP*%
X23000000Y88250000D03*
X25000000Y86350000D03*
%TO.N,/OLED {slash} SSD1309 {slash} 0x3C/OLED_12V5*%
X8688900Y75148600D03*
X24750000Y50654000D03*
X15400000Y49750000D03*
%TO.N,/Power + ESP32-C3/VBUS*%
X13867400Y42246000D03*
X5900000Y49450000D03*
X45500000Y40674800D03*
X14239600Y46602400D03*
X8204000Y50397000D03*
%TO.N,/NFC {slash} PN7160 {slash} 0x28/NFC_VDD18*%
X28187500Y100700000D03*
X31400000Y97860000D03*
X31400000Y96920000D03*
X35292300Y91407700D03*
%TO.N,/+3V0*%
X32867100Y56256000D03*
X27100500Y42744000D03*
X33750000Y50682000D03*
X36458700Y41307000D03*
%TO.N,/Power + ESP32-C3/USB_PRESENT_N*%
X52250000Y43800000D03*
X40783600Y43482000D03*
%TO.N,/Power + ESP32-C3/VBAT*%
X13795700Y53170000D03*
X51050000Y43400000D03*
X8310800Y57039000D03*
X16562500Y53750000D03*
X14637500Y60309200D03*
%TO.N,Net-(U1-PROG)*%
X13105500Y56731000D03*
X16503500Y55982000D03*
%TO.N,/NFC {slash} PN7160 {slash} 0x28/NFC_XTAL2*%
X32050000Y90800000D03*
X31400000Y99740000D03*
%TO.N,/Keyboard {slash} breakaway {slash} 0x20/KEY_P0*%
X6916100Y11871000D03*
%TO.N,/Keyboard {slash} breakaway {slash} 0x20/KEY_P1*%
X6892100Y10625000D03*
%TO.N,/Keyboard {slash} breakaway {slash} 0x20/KEY_P2*%
X6897800Y9381000D03*
%TO.N,/Keyboard {slash} breakaway {slash} 0x20/KEY_P3*%
X7116800Y8061000D03*
%TO.N,/Keyboard {slash} breakaway {slash} 0x20/KEY_P4*%
X14800000Y6575000D03*
%TO.N,/Keyboard {slash} breakaway {slash} 0x20/KEY_P5*%
X16217500Y8061000D03*
%TO.N,/Keyboard {slash} breakaway {slash} 0x20/KEY_P6*%
X16201100Y9381000D03*
%TO.N,/Power + ESP32-C3/BOOT_N*%
X41100000Y61400000D03*
X56655000Y71456100D03*
X38943400Y66068400D03*
%TO.N,/OLED_PWR_EN*%
X3562500Y97815900D03*
X6014300Y54155000D03*
X49400000Y46420000D03*
X8288300Y95963300D03*
%TO.N,/NFC {slash} PN7160 {slash} 0x28/NFC_RXP*%
X21776400Y79721100D03*
X25800000Y87150000D03*
%TO.N,/NFC {slash} PN7160 {slash} 0x28/NFC_TVDD*%
X26050000Y102200000D03*
X30300000Y93350000D03*
X24527500Y90900000D03*
X27600000Y87500000D03*
X28287500Y90900000D03*
X33950000Y86594000D03*
%TO.N,/NFC {slash} PN7160 {slash} 0x28/NFC_ADR1*%
X20100000Y98800000D03*
X18600000Y98150000D03*
%TO.N,/NFC_IRQ*%
X20100000Y94100000D03*
X15250000Y87250000D03*
X47900000Y63932500D03*
%TO.N,/NFC_VEN*%
X8155200Y65868000D03*
X15300000Y86350000D03*
X23000000Y87310200D03*
X8800000Y86350000D03*
X21576000Y74801000D03*
X46229400Y63922000D03*
%TO.N,/NFC {slash} PN7160 {slash} 0x28/NFC_RXN*%
X23750000Y83100000D03*
X25467500Y90900000D03*
%TO.N,/NFC {slash} PN7160 {slash} 0x28/NFC_TX2*%
X23878900Y75225800D03*
X27687500Y86012500D03*
X29227500Y90900000D03*
%TO.N,/NFC {slash} PN7160 {slash} 0x28/NFC_TX1*%
X22044100Y83844100D03*
X30400000Y92400000D03*
X30082500Y87068800D03*
%TO.N,/OLED {slash} SSD1309 {slash} 0x3C/OLED_IREF*%
X21779100Y45184000D03*
X26581400Y48079000D03*
%TO.N,/Power + ESP32-C3/USB_ESD_D+*%
X47950000Y40700000D03*
X15300000Y45450000D03*
%TO.N,/Power + ESP32-C3/USB_ESD_D-*%
X46550000Y40700000D03*
X13200000Y49700000D03*
%TO.N,/Power + ESP32-C3/STRAP_GPIO8*%
X40702300Y66077300D03*
X44900000Y63916100D03*
%TO.N,/Power + ESP32-C3/BUCK_FB*%
X31350000Y63550000D03*
X33150000Y65600000D03*
%TO.N,/Power + ESP32-C3/STRAP_GPIO2*%
X50970000Y46440000D03*
X40798300Y58586000D03*
%TD*%
%TO.N,/+3V3*%
D16*
X21000000Y94250000D02*
X20950000Y94300000D01*
X20850000Y94500000D02*
X20850000Y94600000D01*
D17*
X41374200Y64201600D02*
X39983400Y62810800D01*
X24920000Y41000000D02*
X24920000Y42302000D01*
D16*
X20800000Y94700000D02*
X20750000Y94750000D01*
D17*
X23129700Y44092000D02*
X24920000Y42302000D01*
D16*
X20700000Y95350000D02*
X20650000Y95400000D01*
D17*
X20733000Y48931000D02*
X23129700Y46534000D01*
D18*
X39050000Y58000000D02*
X39600000Y58000000D01*
D16*
X20700000Y95300000D02*
X20700000Y95350000D01*
X20800000Y94650000D02*
X20800000Y94700000D01*
D17*
X41467200Y64201600D02*
X41374200Y64201600D01*
D16*
X20750000Y95250000D02*
X20700000Y95300000D01*
X20950000Y94300000D02*
X20950000Y94350000D01*
D17*
X14945900Y17321000D02*
X19303800Y12963000D01*
D16*
X20850000Y94600000D02*
X20800000Y94650000D01*
X20650000Y95450000D02*
X20400000Y95700000D01*
X20650000Y95400000D02*
X20650000Y95450000D01*
D17*
X20733000Y63467800D02*
X20733000Y48931000D01*
X23129700Y46534000D02*
X23129700Y44092000D01*
D16*
X20900000Y94450000D02*
X20850000Y94500000D01*
D17*
X39983400Y46235000D02*
X37687500Y43889000D01*
D16*
X20750000Y94750000D02*
X20750000Y95250000D01*
D17*
X39983400Y62810800D02*
X39983400Y46235000D01*
D16*
X21000000Y92100000D02*
X21000000Y94250000D01*
D17*
X19303800Y12963000D02*
X19303800Y11552000D01*
D16*
X20900000Y94400000D02*
X20900000Y94450000D01*
X20950000Y94350000D02*
X20900000Y94400000D01*
%TO.N,GND*%
X43100000Y67200000D02*
X43100000Y66500000D01*
D19*
X29620500Y86532300D02*
X28890300Y87312500D01*
X29620500Y79579200D02*
X29620500Y86532300D01*
%TO.N,/OLED {slash} SSD1309 {slash} 0x3C/OLED_FB*%
D16*
X4950000Y78700000D02*
X4950000Y78800000D01*
X4100000Y75750000D02*
X4100000Y77850000D01*
X1050000Y72700000D02*
X4100000Y75750000D01*
X4100000Y77850000D02*
X4950000Y78700000D01*
%TO.N,/VSYS*%
X16050000Y90450000D02*
X15900000Y90450000D01*
D20*
X19800000Y45700000D02*
X19800000Y44700000D01*
D16*
X18750000Y87850000D02*
X16200000Y90400000D01*
X22300000Y90700000D02*
X19250000Y87650000D01*
X22900000Y91200000D02*
X27000000Y95300000D01*
X15750000Y90500000D02*
X15700000Y90550000D01*
D21*
X19691200Y46176000D02*
X19741200Y55700000D01*
X18883300Y87434300D02*
X18883300Y86200000D01*
D20*
X19800000Y44700000D02*
X21050000Y43450000D01*
D16*
X15900000Y90450000D02*
X15850000Y90500000D01*
X16100000Y90400000D02*
X16050000Y90450000D01*
X27550000Y95300000D02*
X30300000Y98050000D01*
X15850000Y90500000D02*
X15750000Y90500000D01*
X27000000Y95300000D02*
X27550000Y95300000D01*
X30350000Y98050000D02*
X31000000Y98700000D01*
X30300000Y98050000D02*
X30350000Y98050000D01*
X16200000Y90400000D02*
X16100000Y90400000D01*
%TO.N,/Power + ESP32-C3/USB_5V*%
D21*
X12205200Y43070000D02*
X12501400Y43070000D01*
X10852800Y51736000D02*
X10852800Y44422000D01*
X12195900Y58500000D02*
X12020100Y58324000D01*
X10852800Y44422000D02*
X12205200Y43070000D01*
X12020100Y52903000D02*
X10852800Y51736000D01*
X12020100Y58324000D02*
X12020100Y52903000D01*
%TO.N,/I2C_SDA*%
D22*
X8850000Y88950000D02*
X8716000Y88900000D01*
X30000000Y47144000D02*
X29208500Y47786000D01*
X30000000Y41000000D02*
X30000000Y47144000D01*
%TO.N,/I2C_SCL*%
D16*
X6900000Y57450000D02*
X6850000Y57400000D01*
X7400000Y58650000D02*
X7400000Y58600000D01*
X16100000Y87600000D02*
X16100000Y87250000D01*
X7350000Y58450000D02*
X7300000Y58400000D01*
X7000000Y57750000D02*
X7000000Y57700000D01*
X7300000Y58350000D02*
X7250000Y58300000D01*
X7100000Y57900000D02*
X7050000Y57850000D01*
X7500000Y58800000D02*
X7450000Y58750000D01*
X6900000Y57550000D02*
X6900000Y57450000D01*
X16550000Y85900000D02*
X16600000Y85850000D01*
X7650000Y85800000D02*
X7650000Y85750000D01*
X7550000Y66100000D02*
X7500000Y66050000D01*
X16550000Y86000000D02*
X16550000Y85900000D01*
X8650000Y87550000D02*
X8050000Y86950000D01*
X7100000Y58000000D02*
X7100000Y57900000D01*
X16100000Y87250000D02*
X16400000Y86950000D01*
X7400000Y58600000D02*
X7350000Y58550000D01*
X7450000Y58700000D02*
X7400000Y58650000D01*
X6950000Y57650000D02*
X6950000Y57600000D01*
X7300000Y58400000D02*
X7300000Y58350000D01*
X7350000Y58550000D02*
X7350000Y58450000D01*
X7600000Y85700000D02*
X7600000Y66250000D01*
X7600000Y66250000D02*
X7550000Y66200000D01*
X8050000Y86950000D02*
X8050000Y86200000D01*
X7200000Y58150000D02*
X7150000Y58100000D01*
X6950000Y57600000D02*
X6900000Y57550000D01*
X16600000Y85850000D02*
X16600000Y85300000D01*
X7200000Y58200000D02*
X7200000Y58150000D01*
X16400000Y86150000D02*
X16550000Y86000000D01*
X8050000Y86200000D02*
X7650000Y85800000D01*
X7050000Y57850000D02*
X7050000Y57800000D01*
X7050000Y57800000D02*
X7000000Y57750000D01*
X7550000Y66200000D02*
X7550000Y66100000D01*
X7450000Y58750000D02*
X7450000Y58700000D01*
X7000000Y57700000D02*
X6950000Y57650000D01*
D22*
X32540000Y41000000D02*
X32540000Y45861000D01*
D16*
X16600000Y85300000D02*
X16050000Y84750000D01*
X7150000Y58050000D02*
X7100000Y58000000D01*
X16400000Y86950000D02*
X16400000Y86150000D01*
D22*
X32540000Y45861000D02*
X30200000Y48001000D01*
D16*
X7650000Y85750000D02*
X7600000Y85700000D01*
X7250000Y58300000D02*
X7250000Y58250000D01*
X7250000Y58250000D02*
X7200000Y58200000D01*
X7500000Y66050000D02*
X7500000Y58800000D01*
X7150000Y58100000D02*
X7150000Y58050000D01*
%TO.N,/NFC {slash} PN7160 {slash} 0x28/NFC_VMID*%
X27100000Y90150000D02*
X27100000Y90200000D01*
X26650000Y83150000D02*
X26650000Y87500000D01*
X27150000Y90300000D02*
X27200000Y90350000D01*
X27100000Y90200000D02*
X27150000Y90250000D01*
X27150000Y90250000D02*
X27150000Y90300000D01*
X26750000Y88000000D02*
X27050000Y88300000D01*
D22*
X26687500Y82989000D02*
X24122300Y80423800D01*
D16*
X27200000Y90350000D02*
X27200000Y90450000D01*
X26750000Y87600000D02*
X26750000Y88000000D01*
X27050000Y88300000D02*
X27050000Y90100000D01*
X27050000Y90100000D02*
X27100000Y90150000D01*
X27200000Y90450000D02*
X27250000Y90500000D01*
%TO.N,/OLED {slash} SSD1309 {slash} 0x3C/OLED_12V5*%
D22*
X8638900Y68670900D02*
X8688900Y75148600D01*
D16*
X15600000Y50350000D02*
X15550000Y50300000D01*
X15650000Y61450000D02*
X15650000Y50450000D01*
X15550000Y50300000D02*
X15550000Y50200000D01*
X15600000Y50400000D02*
X15600000Y50350000D01*
X15650000Y50450000D02*
X15600000Y50400000D01*
D22*
X15706700Y61603100D02*
X8638900Y68670900D01*
D16*
X15550000Y50200000D02*
X15500000Y50150000D01*
%TO.N,/+3V0*%
D22*
X34250000Y43516000D02*
X34250000Y49682000D01*
X34250000Y49682000D02*
X33750000Y50182000D01*
X36458700Y41307000D02*
X34250000Y43516000D01*
X32867100Y52065000D02*
X33750000Y51182100D01*
X33750000Y50182000D02*
X33750000Y50682000D01*
X33750000Y51182100D02*
X33750000Y50682000D01*
X32867100Y56256000D02*
X32867100Y52065000D01*
%TO.N,/Power + ESP32-C3/VBAT*%
D21*
X13795700Y53170000D02*
X14637500Y54012000D01*
X14637500Y54012000D02*
X14637500Y60309200D01*
%TO.N,/NFC {slash} PN7160 {slash} 0x28/NFC_XTAL2*%
D16*
X32050000Y99000000D02*
X32050000Y90800000D01*
X31700000Y99450000D02*
X32000000Y99150000D01*
X32000000Y99150000D02*
X32000000Y99050000D01*
X32000000Y99050000D02*
X32050000Y99000000D01*
%TO.N,/Power + ESP32-C3/BOOT_N*%
X43150000Y61850000D02*
X43200000Y61850000D01*
X53200000Y67600000D02*
X53100000Y67600000D01*
X52300000Y67200000D02*
X52200000Y67200000D01*
X55400000Y70100000D02*
X55400000Y69800000D01*
X41500000Y61500000D02*
X41900000Y61500000D01*
X42200000Y61800000D02*
X43100000Y61800000D01*
X46500000Y63300000D02*
X46400000Y63200000D01*
X56500000Y71200000D02*
X55400000Y70100000D01*
X52800000Y67500000D02*
X52700000Y67400000D01*
X44700000Y63200000D02*
X43600000Y62100000D01*
X48300000Y63300000D02*
X46500000Y63300000D01*
X52700000Y67400000D02*
X52600000Y67400000D01*
X43300000Y61900000D02*
X43350000Y61950000D01*
X41900000Y61500000D02*
X42200000Y61800000D01*
X43250000Y61900000D02*
X43300000Y61900000D01*
X53100000Y67600000D02*
X53000000Y67500000D01*
X53000000Y67500000D02*
X52800000Y67500000D01*
X52500000Y67300000D02*
X52400000Y67300000D01*
X43100000Y61800000D02*
X43150000Y61850000D01*
X52200000Y67200000D02*
X48300000Y63300000D01*
X43350000Y61950000D02*
X43450000Y61950000D01*
X52600000Y67400000D02*
X52500000Y67300000D01*
X46400000Y63200000D02*
X44700000Y63200000D01*
X52400000Y67300000D02*
X52300000Y67200000D01*
X43200000Y61850000D02*
X43250000Y61900000D01*
X55400000Y69800000D02*
X53200000Y67600000D01*
X43450000Y61950000D02*
X43500000Y62000000D01*
%TO.N,/OLED_PWR_EN*%
D22*
X5618100Y93293100D02*
X8288300Y95963300D01*
X6014300Y54155000D02*
X5618100Y54551000D01*
X5618100Y54551000D02*
X5618100Y93293100D01*
%TO.N,/NFC {slash} PN7160 {slash} 0x28/NFC_RXP*%
D16*
X22000000Y88050000D02*
X22000000Y88000000D01*
X22100000Y88250000D02*
X22100000Y88200000D01*
X21850000Y87700000D02*
X21850000Y87650000D01*
X22000000Y88000000D02*
X21950000Y87950000D01*
X22050000Y88150000D02*
X22050000Y88100000D01*
X21700000Y87400000D02*
X21700000Y87300000D01*
X22150000Y88350000D02*
X22150000Y88300000D01*
X21600000Y87100000D02*
X21550000Y87050000D01*
X23200000Y88900000D02*
X22800000Y88900000D01*
X21600000Y87150000D02*
X21600000Y87100000D01*
X22100000Y88200000D02*
X22050000Y88150000D01*
X23350000Y88850000D02*
X23250000Y88850000D01*
X21650000Y87200000D02*
X21600000Y87150000D01*
X25050000Y87150000D02*
X23350000Y88850000D01*
X21850000Y87650000D02*
X21800000Y87600000D01*
X21500000Y86850000D02*
X21450000Y86800000D01*
X21800000Y87600000D02*
X21800000Y87550000D01*
X21550000Y87050000D02*
X21550000Y87000000D01*
D22*
X21393500Y80104000D02*
X21776400Y79721100D01*
D16*
X21950000Y87950000D02*
X21950000Y87850000D01*
X25800000Y87150000D02*
X25050000Y87150000D01*
X21800000Y87550000D02*
X21750000Y87500000D01*
X21650000Y87250000D02*
X21650000Y87200000D01*
X21750000Y87500000D02*
X21750000Y87450000D01*
X21900000Y87800000D02*
X21900000Y87750000D01*
X21750000Y87450000D02*
X21700000Y87400000D01*
X21950000Y87850000D02*
X21900000Y87800000D01*
X23250000Y88850000D02*
X23200000Y88900000D01*
X21700000Y87300000D02*
X21650000Y87250000D01*
X21550000Y87000000D02*
X21500000Y86950000D01*
X22750000Y88850000D02*
X22650000Y88850000D01*
X22800000Y88900000D02*
X22750000Y88850000D01*
D22*
X21393500Y86649100D02*
X21393500Y80104000D01*
D16*
X22650000Y88850000D02*
X22150000Y88350000D01*
X21500000Y86950000D02*
X21500000Y86850000D01*
X22050000Y88100000D02*
X22000000Y88050000D01*
X21900000Y87750000D02*
X21850000Y87700000D01*
X22150000Y88300000D02*
X22100000Y88250000D01*
%TO.N,/NFC {slash} PN7160 {slash} 0x28/NFC_TVDD*%
X29400000Y88300000D02*
X29500000Y88400000D01*
X29600000Y88300000D02*
X30200000Y87700000D01*
X27900000Y87500000D02*
X28500000Y88100000D01*
X31500000Y86800000D02*
X32150000Y86800000D01*
X28750000Y88150000D02*
X28800000Y88200000D01*
X30600000Y87700000D02*
X31500000Y86800000D01*
X32200000Y86750000D02*
X33500000Y86750000D01*
X30200000Y87700000D02*
X30600000Y87700000D01*
X28900000Y88300000D02*
X29400000Y88300000D01*
X33500000Y86750000D02*
X33550000Y86700000D01*
X28600000Y88100000D02*
X28650000Y88150000D01*
X28650000Y88150000D02*
X28750000Y88150000D01*
X32150000Y86800000D02*
X32200000Y86750000D01*
X28500000Y88100000D02*
X28600000Y88100000D01*
%TO.N,/NFC_VEN*%
D22*
X8005100Y85555100D02*
X8005100Y66018100D01*
X8800000Y86350000D02*
X8005100Y85555100D01*
X23000000Y76175000D02*
X23000000Y87310200D01*
X21576000Y74801000D02*
X23000000Y76175000D01*
X8005100Y66018100D02*
X8155200Y65868000D01*
%TO.N,/NFC {slash} PN7160 {slash} 0x28/NFC_TX2*%
D18*
X27687500Y86012500D02*
X27882800Y79179700D01*
X27882800Y79179700D02*
X23878900Y75225800D01*
%TD*%
%TA.AperFunction,Conductor*%
%TO.N,GND*%
G36*
X59458691Y33881093D02*
G01*
X59494655Y33831593D01*
X59499500Y33801000D01*
X59499500Y4002436D01*
X59499381Y3997578D01*
X59482887Y3661839D01*
X59481934Y3652171D01*
X59432972Y3322097D01*
X59431077Y3312568D01*
X59349995Y2988869D01*
X59347175Y2979572D01*
X59234754Y2665379D01*
X59231036Y2656403D01*
X59088361Y2354742D01*
X59083781Y2346174D01*
X58912226Y2059951D01*
X58906828Y2051873D01*
X58708048Y1783850D01*
X58701885Y1776340D01*
X58477786Y1529084D01*
X58470916Y1522214D01*
X58223660Y1298115D01*
X58216150Y1291952D01*
X57948127Y1093172D01*
X57940049Y1087774D01*
X57653826Y916219D01*
X57645258Y911639D01*
X57343597Y768964D01*
X57334621Y765246D01*
X57020428Y652825D01*
X57011131Y650005D01*
X56687432Y568923D01*
X56677903Y567028D01*
X56347829Y518066D01*
X56338161Y517113D01*
X56002422Y500619D01*
X55997564Y500500D01*
X4002436Y500500D01*
X3997578Y500619D01*
X3661838Y517113D01*
X3652170Y518066D01*
X3322096Y567028D01*
X3312567Y568923D01*
X2988868Y650005D01*
X2979571Y652825D01*
X2665378Y765246D01*
X2656402Y768964D01*
X2354741Y911639D01*
X2346173Y916219D01*
X2059950Y1087774D01*
X2051872Y1093172D01*
X1783849Y1291952D01*
X1776339Y1298115D01*
X1648442Y1414034D01*
X1529078Y1522219D01*
X1522218Y1529079D01*
X1298114Y1776340D01*
X1291951Y1783850D01*
X1093171Y2051873D01*
X1087773Y2059951D01*
X1077217Y2077562D01*
X916216Y2346177D01*
X911638Y2354742D01*
X883901Y2413386D01*
X768961Y2656406D01*
X765245Y2665379D01*
X652820Y2979585D01*
X650008Y2988856D01*
X568919Y3312579D01*
X567029Y3322081D01*
X559228Y3374673D01*
X18739500Y3374673D01*
X18739500Y1625328D01*
X18739501Y1625316D01*
X18754033Y1552264D01*
X18754035Y1552258D01*
X18809397Y1469401D01*
X18809399Y1469399D01*
X18892260Y1414034D01*
X18947808Y1402985D01*
X18965315Y1399502D01*
X18965320Y1399502D01*
X18965326Y1399500D01*
X18965327Y1399500D01*
X20714673Y1399500D01*
X20714674Y1399500D01*
X20787740Y1414034D01*
X20870601Y1469399D01*
X20925966Y1552260D01*
X20940500Y1625326D01*
X20940500Y2586615D01*
X21279500Y2586615D01*
X21279500Y2413386D01*
X21306597Y2242298D01*
X21306598Y2242294D01*
X21360123Y2077562D01*
X21360125Y2077559D01*
X21373212Y2051873D01*
X21438768Y1923212D01*
X21540586Y1783072D01*
X21663072Y1660586D01*
X21803212Y1558768D01*
X21957555Y1480127D01*
X21957557Y1480127D01*
X21957558Y1480126D01*
X21957561Y1480124D01*
X22122293Y1426599D01*
X22122297Y1426598D01*
X22293386Y1399500D01*
X22293389Y1399500D01*
X22466614Y1399500D01*
X22637702Y1426598D01*
X22637706Y1426599D01*
X22802438Y1480124D01*
X22802440Y1480126D01*
X22802445Y1480127D01*
X22956788Y1558768D01*
X23096928Y1660586D01*
X23219414Y1783072D01*
X23321232Y1923212D01*
X23399873Y2077555D01*
X23399874Y2077560D01*
X23399876Y2077562D01*
X23453401Y2242294D01*
X23453402Y2242298D01*
X23480500Y2413386D01*
X23480500Y2586615D01*
X23819500Y2586615D01*
X23819500Y2413386D01*
X23846597Y2242298D01*
X23846598Y2242294D01*
X23900123Y2077562D01*
X23900125Y2077559D01*
X23913212Y2051873D01*
X23978768Y1923212D01*
X24080586Y1783072D01*
X24203072Y1660586D01*
X24343212Y1558768D01*
X24497555Y1480127D01*
X24497557Y1480127D01*
X24497558Y1480126D01*
X24497561Y1480124D01*
X24662293Y1426599D01*
X24662297Y1426598D01*
X24833386Y1399500D01*
X24833389Y1399500D01*
X25006614Y1399500D01*
X25177702Y1426598D01*
X25177706Y1426599D01*
X25342438Y1480124D01*
X25342440Y1480126D01*
X25342445Y1480127D01*
X25496788Y1558768D01*
X25636928Y1660586D01*
X25759414Y1783072D01*
X25861232Y1923212D01*
X25939873Y2077555D01*
X25939874Y2077560D01*
X25939876Y2077562D01*
X25993401Y2242294D01*
X25993402Y2242298D01*
X26020500Y2413386D01*
X26020500Y2586615D01*
X26359500Y2586615D01*
X26359500Y2413386D01*
X26386597Y2242298D01*
X26386598Y2242294D01*
X26440123Y2077562D01*
X26440125Y2077559D01*
X26453212Y2051873D01*
X26518768Y1923212D01*
X26620586Y1783072D01*
X26743072Y1660586D01*
X26883212Y1558768D01*
X27037555Y1480127D01*
X27037557Y1480127D01*
X27037558Y1480126D01*
X27037561Y1480124D01*
X27202293Y1426599D01*
X27202297Y1426598D01*
X27373386Y1399500D01*
X27373389Y1399500D01*
X27546614Y1399500D01*
X27717702Y1426598D01*
X27717706Y1426599D01*
X27882438Y1480124D01*
X27882440Y1480126D01*
X27882445Y1480127D01*
X28036788Y1558768D01*
X28176928Y1660586D01*
X28299414Y1783072D01*
X28401232Y1923212D01*
X28479873Y2077555D01*
X28479874Y2077560D01*
X28479876Y2077562D01*
X28533401Y2242294D01*
X28533402Y2242298D01*
X28560500Y2413386D01*
X28560500Y2586615D01*
X28899500Y2586615D01*
X28899500Y2413386D01*
X28926597Y2242298D01*
X28926598Y2242294D01*
X28980123Y2077562D01*
X28980125Y2077559D01*
X28993212Y2051873D01*
X29058768Y1923212D01*
X29160586Y1783072D01*
X29283072Y1660586D01*
X29423212Y1558768D01*
X29577555Y1480127D01*
X29577557Y1480127D01*
X29577558Y1480126D01*
X29577561Y1480124D01*
X29742293Y1426599D01*
X29742297Y1426598D01*
X29913386Y1399500D01*
X29913389Y1399500D01*
X30086614Y1399500D01*
X30257702Y1426598D01*
X30257706Y1426599D01*
X30422438Y1480124D01*
X30422440Y1480126D01*
X30422445Y1480127D01*
X30576788Y1558768D01*
X30716928Y1660586D01*
X30839414Y1783072D01*
X30941232Y1923212D01*
X31019873Y2077555D01*
X31019874Y2077560D01*
X31019876Y2077562D01*
X31073401Y2242294D01*
X31073402Y2242298D01*
X31100500Y2413386D01*
X31100500Y2586615D01*
X31439500Y2586615D01*
X31439500Y2413386D01*
X31466597Y2242298D01*
X31466598Y2242294D01*
X31520123Y2077562D01*
X31520125Y2077559D01*
X31533212Y2051873D01*
X31598768Y1923212D01*
X31700586Y1783072D01*
X31823072Y1660586D01*
X31963212Y1558768D01*
X32117555Y1480127D01*
X32117557Y1480127D01*
X32117558Y1480126D01*
X32117561Y1480124D01*
X32282293Y1426599D01*
X32282297Y1426598D01*
X32453386Y1399500D01*
X32453389Y1399500D01*
X32626614Y1399500D01*
X32797702Y1426598D01*
X32797706Y1426599D01*
X32962438Y1480124D01*
X32962440Y1480126D01*
X32962445Y1480127D01*
X33116788Y1558768D01*
X33256928Y1660586D01*
X33379414Y1783072D01*
X33481232Y1923212D01*
X33559873Y2077555D01*
X33559874Y2077560D01*
X33559876Y2077562D01*
X33613401Y2242294D01*
X33613402Y2242298D01*
X33640500Y2413386D01*
X33640500Y2586615D01*
X33979500Y2586615D01*
X33979500Y2413386D01*
X34006597Y2242298D01*
X34006598Y2242294D01*
X34060123Y2077562D01*
X34060125Y2077559D01*
X34073212Y2051873D01*
X34138768Y1923212D01*
X34240586Y1783072D01*
X34363072Y1660586D01*
X34503212Y1558768D01*
X34657555Y1480127D01*
X34657557Y1480127D01*
X34657558Y1480126D01*
X34657561Y1480124D01*
X34822293Y1426599D01*
X34822297Y1426598D01*
X34993386Y1399500D01*
X34993389Y1399500D01*
X35166614Y1399500D01*
X35337702Y1426598D01*
X35337706Y1426599D01*
X35502438Y1480124D01*
X35502440Y1480126D01*
X35502445Y1480127D01*
X35656788Y1558768D01*
X35796928Y1660586D01*
X35919414Y1783072D01*
X36021232Y1923212D01*
X36099873Y2077555D01*
X36099874Y2077560D01*
X36099876Y2077562D01*
X36153401Y2242294D01*
X36153402Y2242298D01*
X36180500Y2413386D01*
X36180500Y2586615D01*
X36519500Y2586615D01*
X36519500Y2413386D01*
X36546597Y2242298D01*
X36546598Y2242294D01*
X36600123Y2077562D01*
X36600125Y2077559D01*
X36613212Y2051873D01*
X36678768Y1923212D01*
X36780586Y1783072D01*
X36903072Y1660586D01*
X37043212Y1558768D01*
X37197555Y1480127D01*
X37197557Y1480127D01*
X37197558Y1480126D01*
X37197561Y1480124D01*
X37362293Y1426599D01*
X37362297Y1426598D01*
X37533386Y1399500D01*
X37533389Y1399500D01*
X37706614Y1399500D01*
X37877702Y1426598D01*
X37877706Y1426599D01*
X38042438Y1480124D01*
X38042440Y1480126D01*
X38042445Y1480127D01*
X38196788Y1558768D01*
X38336928Y1660586D01*
X38459414Y1783072D01*
X38561232Y1923212D01*
X38639873Y2077555D01*
X38639874Y2077560D01*
X38639876Y2077562D01*
X38693401Y2242294D01*
X38693402Y2242298D01*
X38720500Y2413386D01*
X38720500Y2586615D01*
X39059500Y2586615D01*
X39059500Y2413386D01*
X39086597Y2242298D01*
X39086598Y2242294D01*
X39140123Y2077562D01*
X39140125Y2077559D01*
X39153212Y2051873D01*
X39218768Y1923212D01*
X39320586Y1783072D01*
X39443072Y1660586D01*
X39583212Y1558768D01*
X39737555Y1480127D01*
X39737557Y1480127D01*
X39737558Y1480126D01*
X39737561Y1480124D01*
X39902293Y1426599D01*
X39902297Y1426598D01*
X40073386Y1399500D01*
X40073389Y1399500D01*
X40246614Y1399500D01*
X40417702Y1426598D01*
X40417706Y1426599D01*
X40582438Y1480124D01*
X40582440Y1480126D01*
X40582445Y1480127D01*
X40736788Y1558768D01*
X40876928Y1660586D01*
X40999414Y1783072D01*
X41101232Y1923212D01*
X41179873Y2077555D01*
X41179874Y2077560D01*
X41179876Y2077562D01*
X41233401Y2242294D01*
X41233402Y2242298D01*
X41260500Y2413386D01*
X41260500Y2586615D01*
X41233402Y2757703D01*
X41233401Y2757707D01*
X41179876Y2922439D01*
X41179874Y2922442D01*
X41179873Y2922443D01*
X41179873Y2922445D01*
X41101232Y3076788D01*
X40999414Y3216928D01*
X40876928Y3339414D01*
X40736788Y3441232D01*
X40736787Y3441233D01*
X40736785Y3441234D01*
X40582441Y3519875D01*
X40582438Y3519877D01*
X40417706Y3573402D01*
X40417702Y3573403D01*
X40246614Y3600500D01*
X40246611Y3600500D01*
X40073389Y3600500D01*
X40073386Y3600500D01*
X39902297Y3573403D01*
X39902293Y3573402D01*
X39737561Y3519877D01*
X39737558Y3519875D01*
X39583214Y3441234D01*
X39443073Y3339415D01*
X39320585Y3216927D01*
X39218766Y3076786D01*
X39140125Y2922442D01*
X39140123Y2922439D01*
X39086598Y2757707D01*
X39086597Y2757703D01*
X39059500Y2586615D01*
X38720500Y2586615D01*
X38693402Y2757703D01*
X38693401Y2757707D01*
X38639876Y2922439D01*
X38639874Y2922442D01*
X38639873Y2922443D01*
X38639873Y2922445D01*
X38561232Y3076788D01*
X38459414Y3216928D01*
X38336928Y3339414D01*
X38196788Y3441232D01*
X38196787Y3441233D01*
X38196785Y3441234D01*
X38042441Y3519875D01*
X38042438Y3519877D01*
X37877706Y3573402D01*
X37877702Y3573403D01*
X37706614Y3600500D01*
X37706611Y3600500D01*
X37533389Y3600500D01*
X37533386Y3600500D01*
X37362297Y3573403D01*
X37362293Y3573402D01*
X37197561Y3519877D01*
X37197558Y3519875D01*
X37043214Y3441234D01*
X36903073Y3339415D01*
X36780585Y3216927D01*
X36678766Y3076786D01*
X36600125Y2922442D01*
X36600123Y2922439D01*
X36546598Y2757707D01*
X36546597Y2757703D01*
X36519500Y2586615D01*
X36180500Y2586615D01*
X36153402Y2757703D01*
X36153401Y2757707D01*
X36099876Y2922439D01*
X36099874Y2922442D01*
X36099873Y2922443D01*
X36099873Y2922445D01*
X36021232Y3076788D01*
X35919414Y3216928D01*
X35796928Y3339414D01*
X35656788Y3441232D01*
X35656787Y3441233D01*
X35656785Y3441234D01*
X35502441Y3519875D01*
X35502438Y3519877D01*
X35337706Y3573402D01*
X35337702Y3573403D01*
X35166614Y3600500D01*
X35166611Y3600500D01*
X34993389Y3600500D01*
X34993386Y3600500D01*
X34822297Y3573403D01*
X34822293Y3573402D01*
X34657561Y3519877D01*
X34657558Y3519875D01*
X34503214Y3441234D01*
X34363073Y3339415D01*
X34240585Y3216927D01*
X34138766Y3076786D01*
X34060125Y2922442D01*
X34060123Y2922439D01*
X34006598Y2757707D01*
X34006597Y2757703D01*
X33979500Y2586615D01*
X33640500Y2586615D01*
X33613402Y2757703D01*
X33613401Y2757707D01*
X33559876Y2922439D01*
X33559874Y2922442D01*
X33559873Y2922443D01*
X33559873Y2922445D01*
X33481232Y3076788D01*
X33379414Y3216928D01*
X33256928Y3339414D01*
X33116788Y3441232D01*
X33116787Y3441233D01*
X33116785Y3441234D01*
X32962441Y3519875D01*
X32962438Y3519877D01*
X32797706Y3573402D01*
X32797702Y3573403D01*
X32626614Y3600500D01*
X32626611Y3600500D01*
X32453389Y3600500D01*
X32453386Y3600500D01*
X32282297Y3573403D01*
X32282293Y3573402D01*
X32117561Y3519877D01*
X32117558Y3519875D01*
X31963214Y3441234D01*
X31823073Y3339415D01*
X31700585Y3216927D01*
X31598766Y3076786D01*
X31520125Y2922442D01*
X31520123Y2922439D01*
X31466598Y2757707D01*
X31466597Y2757703D01*
X31439500Y2586615D01*
X31100500Y2586615D01*
X31073402Y2757703D01*
X31073401Y2757707D01*
X31019876Y2922439D01*
X31019874Y2922442D01*
X31019873Y2922443D01*
X31019873Y2922445D01*
X30941232Y3076788D01*
X30839414Y3216928D01*
X30716928Y3339414D01*
X30576788Y3441232D01*
X30576787Y3441233D01*
X30576785Y3441234D01*
X30422441Y3519875D01*
X30422438Y3519877D01*
X30257706Y3573402D01*
X30257702Y3573403D01*
X30086614Y3600500D01*
X30086611Y3600500D01*
X29913389Y3600500D01*
X29913386Y3600500D01*
X29742297Y3573403D01*
X29742293Y3573402D01*
X29577561Y3519877D01*
X29577558Y3519875D01*
X29423214Y3441234D01*
X29283073Y3339415D01*
X29160585Y3216927D01*
X29058766Y3076786D01*
X28980125Y2922442D01*
X28980123Y2922439D01*
X28926598Y2757707D01*
X28926597Y2757703D01*
X28899500Y2586615D01*
X28560500Y2586615D01*
X28533402Y2757703D01*
X28533401Y2757707D01*
X28479876Y2922439D01*
X28479874Y2922442D01*
X28479873Y2922443D01*
X28479873Y2922445D01*
X28401232Y3076788D01*
X28299414Y3216928D01*
X28176928Y3339414D01*
X28036788Y3441232D01*
X28036787Y3441233D01*
X28036785Y3441234D01*
X27882441Y3519875D01*
X27882438Y3519877D01*
X27717706Y3573402D01*
X27717702Y3573403D01*
X27546614Y3600500D01*
X27546611Y3600500D01*
X27373389Y3600500D01*
X27373386Y3600500D01*
X27202297Y3573403D01*
X27202293Y3573402D01*
X27037561Y3519877D01*
X27037558Y3519875D01*
X26883214Y3441234D01*
X26743073Y3339415D01*
X26620585Y3216927D01*
X26518766Y3076786D01*
X26440125Y2922442D01*
X26440123Y2922439D01*
X26386598Y2757707D01*
X26386597Y2757703D01*
X26359500Y2586615D01*
X26020500Y2586615D01*
X25993402Y2757703D01*
X25993401Y2757707D01*
X25939876Y2922439D01*
X25939874Y2922442D01*
X25939873Y2922443D01*
X25939873Y2922445D01*
X25861232Y3076788D01*
X25759414Y3216928D01*
X25636928Y3339414D01*
X25496788Y3441232D01*
X25496787Y3441233D01*
X25496785Y3441234D01*
X25342441Y3519875D01*
X25342438Y3519877D01*
X25177706Y3573402D01*
X25177702Y3573403D01*
X25006614Y3600500D01*
X25006611Y3600500D01*
X24833389Y3600500D01*
X24833386Y3600500D01*
X24662297Y3573403D01*
X24662293Y3573402D01*
X24497561Y3519877D01*
X24497558Y3519875D01*
X24343214Y3441234D01*
X24203073Y3339415D01*
X24080585Y3216927D01*
X23978766Y3076786D01*
X23900125Y2922442D01*
X23900123Y2922439D01*
X23846598Y2757707D01*
X23846597Y2757703D01*
X23819500Y2586615D01*
X23480500Y2586615D01*
X23453402Y2757703D01*
X23453401Y2757707D01*
X23399876Y2922439D01*
X23399874Y2922442D01*
X23399873Y2922443D01*
X23399873Y2922445D01*
X23321232Y3076788D01*
X23219414Y3216928D01*
X23096928Y3339414D01*
X22956788Y3441232D01*
X22956787Y3441233D01*
X22956785Y3441234D01*
X22802441Y3519875D01*
X22802438Y3519877D01*
X22637706Y3573402D01*
X22637702Y3573403D01*
X22466614Y3600500D01*
X22466611Y3600500D01*
X22293389Y3600500D01*
X22293386Y3600500D01*
X22122297Y3573403D01*
X22122293Y3573402D01*
X21957561Y3519877D01*
X21957558Y3519875D01*
X21803214Y3441234D01*
X21663073Y3339415D01*
X21540585Y3216927D01*
X21438766Y3076786D01*
X21360125Y2922442D01*
X21360123Y2922439D01*
X21306598Y2757707D01*
X21306597Y2757703D01*
X21279500Y2586615D01*
X20940500Y2586615D01*
X20940500Y3374674D01*
X20925966Y3447740D01*
X20877768Y3519875D01*
X20870602Y3530600D01*
X20870599Y3530603D01*
X20787742Y3585965D01*
X20787740Y3585966D01*
X20787737Y3585967D01*
X20787736Y3585967D01*
X20714684Y3600499D01*
X20714674Y3600500D01*
X18965326Y3600500D01*
X18965325Y3600500D01*
X18965315Y3600499D01*
X18892263Y3585967D01*
X18892257Y3585965D01*
X18809400Y3530603D01*
X18809397Y3530600D01*
X18754035Y3447743D01*
X18754033Y3447737D01*
X18739501Y3374685D01*
X18739500Y3374673D01*
X559228Y3374673D01*
X518063Y3652185D01*
X517113Y3661827D01*
X500619Y3997579D01*
X500500Y4002436D01*
X500500Y6654057D01*
X14199500Y6654057D01*
X14199500Y6495943D01*
X14240423Y6343216D01*
X14319480Y6206284D01*
X14431284Y6094480D01*
X14568216Y6015423D01*
X14720943Y5974500D01*
X14720945Y5974500D01*
X14879055Y5974500D01*
X14879057Y5974500D01*
X15031784Y6015423D01*
X15168716Y6094480D01*
X15280520Y6206284D01*
X15359577Y6343216D01*
X15400500Y6495943D01*
X15400500Y6654057D01*
X15359577Y6806784D01*
X15280520Y6943716D01*
X15168716Y7055520D01*
X15031784Y7134577D01*
X14879057Y7175500D01*
X14720943Y7175500D01*
X14568216Y7134577D01*
X14431284Y7055520D01*
X14319480Y6943716D01*
X14240423Y6806784D01*
X14199500Y6654057D01*
X500500Y6654057D01*
X500500Y10704057D01*
X6291600Y10704057D01*
X6291600Y10545943D01*
X6332523Y10393216D01*
X6411580Y10256284D01*
X6523384Y10144480D01*
X6622786Y10087091D01*
X6663726Y10041622D01*
X6670122Y9980772D01*
X6639529Y9927784D01*
X6622785Y9915619D01*
X6529086Y9861522D01*
X6529084Y9861520D01*
X6417280Y9749716D01*
X6338223Y9612784D01*
X6297300Y9460057D01*
X6297300Y9301943D01*
X6338223Y9149216D01*
X6417280Y9012284D01*
X6529084Y8900480D01*
X6666016Y8821423D01*
X6818743Y8780500D01*
X6818746Y8780500D01*
X6822336Y8779538D01*
X6873650Y8746214D01*
X6895577Y8689092D01*
X6879741Y8629992D01*
X6846213Y8598175D01*
X6748086Y8541522D01*
X6748084Y8541520D01*
X6636280Y8429716D01*
X6557223Y8292784D01*
X6516300Y8140057D01*
X6516300Y7981943D01*
X6557223Y7829216D01*
X6636280Y7692284D01*
X6748084Y7580480D01*
X6885016Y7501423D01*
X7037743Y7460500D01*
X7037745Y7460500D01*
X7195855Y7460500D01*
X7195857Y7460500D01*
X7348584Y7501423D01*
X7485516Y7580480D01*
X7597320Y7692284D01*
X7676377Y7829216D01*
X7717300Y7981943D01*
X7717300Y8140057D01*
X7676377Y8292784D01*
X7597320Y8429716D01*
X7485516Y8541520D01*
X7348584Y8620577D01*
X7195857Y8661500D01*
X7192263Y8662463D01*
X7140948Y8695787D01*
X7119022Y8752909D01*
X7134858Y8812009D01*
X7168383Y8843824D01*
X7266516Y8900480D01*
X7378320Y9012284D01*
X7457377Y9149216D01*
X7498300Y9301943D01*
X7498300Y9460057D01*
X15600600Y9460057D01*
X15600600Y9301943D01*
X15641523Y9149216D01*
X15720580Y9012284D01*
X15832384Y8900480D01*
X15969316Y8821423D01*
X15995417Y8814430D01*
X16046730Y8781106D01*
X16068657Y8723984D01*
X16052821Y8664884D01*
X16005271Y8626379D01*
X15995418Y8623177D01*
X15985718Y8620578D01*
X15985716Y8620578D01*
X15985716Y8620577D01*
X15848784Y8541520D01*
X15736980Y8429716D01*
X15657923Y8292784D01*
X15617000Y8140057D01*
X15617000Y7981943D01*
X15657923Y7829216D01*
X15736980Y7692284D01*
X15848784Y7580480D01*
X15985716Y7501423D01*
X16138443Y7460500D01*
X16138445Y7460500D01*
X16296555Y7460500D01*
X16296557Y7460500D01*
X16449284Y7501423D01*
X16586216Y7580480D01*
X16698020Y7692284D01*
X16777077Y7829216D01*
X16818000Y7981943D01*
X16818000Y8140057D01*
X16777077Y8292784D01*
X16698020Y8429716D01*
X16586216Y8541520D01*
X16449284Y8620577D01*
X16449281Y8620578D01*
X16423181Y8627572D01*
X16371867Y8660897D01*
X16349942Y8718019D01*
X16365779Y8777119D01*
X16413330Y8815623D01*
X16423169Y8818821D01*
X16432884Y8821423D01*
X16569816Y8900480D01*
X16681620Y9012284D01*
X16760677Y9149216D01*
X16801600Y9301943D01*
X16801600Y9460057D01*
X16760677Y9612784D01*
X16681620Y9749716D01*
X16569816Y9861520D01*
X16432884Y9940577D01*
X16280157Y9981500D01*
X16122043Y9981500D01*
X15969316Y9940577D01*
X15832384Y9861520D01*
X15720580Y9749716D01*
X15641523Y9612784D01*
X15600600Y9460057D01*
X7498300Y9460057D01*
X7457377Y9612784D01*
X7378320Y9749716D01*
X7266516Y9861520D01*
X7266513Y9861522D01*
X7167114Y9918910D01*
X7126173Y9964379D01*
X7119777Y10025229D01*
X7150370Y10078217D01*
X7167109Y10090380D01*
X7260816Y10144480D01*
X7372620Y10256284D01*
X7451677Y10393216D01*
X7492600Y10545943D01*
X7492600Y10704057D01*
X7451677Y10856784D01*
X7372620Y10993716D01*
X7260816Y11105520D01*
X7174530Y11155337D01*
X7133591Y11200805D01*
X7127195Y11261655D01*
X7157788Y11314643D01*
X7174525Y11326805D01*
X7284816Y11390480D01*
X7396620Y11502284D01*
X7475677Y11639216D01*
X7516600Y11791943D01*
X7516600Y11950057D01*
X16164700Y11950057D01*
X16164700Y11791943D01*
X16205623Y11639216D01*
X16284680Y11502284D01*
X16396484Y11390480D01*
X16533416Y11311423D01*
X16686143Y11270500D01*
X16686145Y11270500D01*
X16844255Y11270500D01*
X16844257Y11270500D01*
X16996984Y11311423D01*
X17133916Y11390480D01*
X17245720Y11502284D01*
X17324777Y11639216D01*
X17365700Y11791943D01*
X17365700Y11950057D01*
X17324777Y12102784D01*
X17245720Y12239716D01*
X17133916Y12351520D01*
X16996984Y12430577D01*
X16844257Y12471500D01*
X16686143Y12471500D01*
X16533416Y12430577D01*
X16396484Y12351520D01*
X16284680Y12239716D01*
X16205623Y12102784D01*
X16164700Y11950057D01*
X7516600Y11950057D01*
X7475677Y12102784D01*
X7396620Y12239716D01*
X7284816Y12351520D01*
X7147884Y12430577D01*
X6995157Y12471500D01*
X6837043Y12471500D01*
X6684316Y12430577D01*
X6547384Y12351520D01*
X6435580Y12239716D01*
X6356523Y12102784D01*
X6315600Y11950057D01*
X6315600Y11791943D01*
X6356523Y11639216D01*
X6435580Y11502284D01*
X6547384Y11390480D01*
X6633668Y11340664D01*
X6674608Y11295196D01*
X6681004Y11234346D01*
X6650411Y11181358D01*
X6633668Y11169193D01*
X6523385Y11105521D01*
X6523384Y11105520D01*
X6411580Y10993716D01*
X6332523Y10856784D01*
X6291600Y10704057D01*
X500500Y10704057D01*
X500500Y17400057D01*
X14345400Y17400057D01*
X14345400Y17241943D01*
X14386323Y17089216D01*
X14465380Y16952284D01*
X14577184Y16840480D01*
X14714116Y16761423D01*
X14802611Y16737711D01*
X14846992Y16712087D01*
X18774304Y12784687D01*
X18802081Y12730170D01*
X18803300Y12714684D01*
X18803300Y11912637D01*
X18790037Y11863138D01*
X18744223Y11783786D01*
X18716941Y11681966D01*
X18703300Y11631057D01*
X18703300Y11472943D01*
X18744223Y11320216D01*
X18823280Y11183284D01*
X18935084Y11071480D01*
X19072016Y10992423D01*
X19224743Y10951500D01*
X19224745Y10951500D01*
X19382855Y10951500D01*
X19382857Y10951500D01*
X19535584Y10992423D01*
X19672516Y11071480D01*
X19784320Y11183284D01*
X19863377Y11320216D01*
X19904300Y11472943D01*
X19904300Y11631057D01*
X19863377Y11783784D01*
X19863376Y11783786D01*
X19817563Y11863138D01*
X19804300Y11912637D01*
X19804300Y12962995D01*
X19804301Y13028887D01*
X19770398Y13155420D01*
X19770205Y13156163D01*
X19770192Y13156186D01*
X19725421Y13233731D01*
X19705770Y13267769D01*
X19704593Y13269958D01*
X19704407Y13270207D01*
X19660669Y13313946D01*
X19660663Y13313951D01*
X16426146Y16548543D01*
X16362633Y16612057D01*
X18724500Y16612057D01*
X18724500Y16453943D01*
X18765423Y16301216D01*
X18844480Y16164284D01*
X18956284Y16052480D01*
X19093216Y15973423D01*
X19245943Y15932500D01*
X19245945Y15932500D01*
X19404055Y15932500D01*
X19404057Y15932500D01*
X19556784Y15973423D01*
X19693716Y16052480D01*
X19805520Y16164284D01*
X19884577Y16301216D01*
X19925500Y16453943D01*
X19925500Y16612057D01*
X19884577Y16764784D01*
X19805520Y16901716D01*
X19693716Y17013520D01*
X19556784Y17092577D01*
X19404057Y17133500D01*
X19245943Y17133500D01*
X19093216Y17092577D01*
X18956284Y17013520D01*
X18844480Y16901716D01*
X18765423Y16764784D01*
X18724500Y16612057D01*
X16362633Y16612057D01*
X15554816Y17419893D01*
X15529193Y17464273D01*
X15505477Y17552784D01*
X15426420Y17689716D01*
X15314616Y17801520D01*
X15177684Y17880577D01*
X15024957Y17921500D01*
X14866843Y17921500D01*
X14714116Y17880577D01*
X14577184Y17801520D01*
X14465380Y17689716D01*
X14386323Y17552784D01*
X14345400Y17400057D01*
X500500Y17400057D01*
X500500Y19540057D01*
X19545000Y19540057D01*
X19545000Y19381943D01*
X19585923Y19229216D01*
X19664980Y19092284D01*
X19776784Y18980480D01*
X19913716Y18901423D01*
X20066443Y18860500D01*
X20066445Y18860500D01*
X20224555Y18860500D01*
X20224557Y18860500D01*
X20377284Y18901423D01*
X20514216Y18980480D01*
X20626020Y19092284D01*
X20705077Y19229216D01*
X20746000Y19381943D01*
X20746000Y19540057D01*
X20705077Y19692784D01*
X20626020Y19829716D01*
X20514216Y19941520D01*
X20377284Y20020577D01*
X20224557Y20061500D01*
X20066443Y20061500D01*
X19913716Y20020577D01*
X19776784Y19941520D01*
X19664980Y19829716D01*
X19585923Y19692784D01*
X19545000Y19540057D01*
X500500Y19540057D01*
X500500Y30874673D01*
X23819500Y30874673D01*
X23819500Y29125328D01*
X23819501Y29125316D01*
X23834033Y29052264D01*
X23834035Y29052258D01*
X23889397Y28969401D01*
X23889399Y28969399D01*
X23972260Y28914034D01*
X24027808Y28902985D01*
X24045315Y28899502D01*
X24045320Y28899502D01*
X24045326Y28899500D01*
X24045327Y28899500D01*
X25794673Y28899500D01*
X25794674Y28899500D01*
X25867740Y28914034D01*
X25950601Y28969399D01*
X26005966Y29052260D01*
X26020500Y29125326D01*
X26020500Y30086615D01*
X28899500Y30086615D01*
X28899500Y29913386D01*
X28926597Y29742298D01*
X28926598Y29742294D01*
X28980123Y29577562D01*
X28980125Y29577559D01*
X28980126Y29577556D01*
X28980127Y29577555D01*
X29058768Y29423212D01*
X29160586Y29283072D01*
X29283072Y29160586D01*
X29423212Y29058768D01*
X29577555Y28980127D01*
X29577557Y28980127D01*
X29577558Y28980126D01*
X29577561Y28980124D01*
X29742293Y28926599D01*
X29742297Y28926598D01*
X29913386Y28899500D01*
X29913389Y28899500D01*
X30086614Y28899500D01*
X30257702Y28926598D01*
X30257706Y28926599D01*
X30422438Y28980124D01*
X30422440Y28980126D01*
X30422445Y28980127D01*
X30576788Y29058768D01*
X30716928Y29160586D01*
X30839414Y29283072D01*
X30941232Y29423212D01*
X31019873Y29577555D01*
X31019874Y29577560D01*
X31019876Y29577562D01*
X31073401Y29742294D01*
X31073402Y29742298D01*
X31100500Y29913386D01*
X31100500Y30086615D01*
X31439500Y30086615D01*
X31439500Y29913386D01*
X31466597Y29742298D01*
X31466598Y29742294D01*
X31520123Y29577562D01*
X31520125Y29577559D01*
X31520126Y29577556D01*
X31520127Y29577555D01*
X31598768Y29423212D01*
X31700586Y29283072D01*
X31823072Y29160586D01*
X31963212Y29058768D01*
X32117555Y28980127D01*
X32117557Y28980127D01*
X32117558Y28980126D01*
X32117561Y28980124D01*
X32282293Y28926599D01*
X32282297Y28926598D01*
X32453386Y28899500D01*
X32453389Y28899500D01*
X32626614Y28899500D01*
X32797702Y28926598D01*
X32797706Y28926599D01*
X32962438Y28980124D01*
X32962440Y28980126D01*
X32962445Y28980127D01*
X33116788Y29058768D01*
X33256928Y29160586D01*
X33379414Y29283072D01*
X33481232Y29423212D01*
X33559873Y29577555D01*
X33559874Y29577560D01*
X33559876Y29577562D01*
X33613401Y29742294D01*
X33613402Y29742298D01*
X33640500Y29913386D01*
X33640500Y30086615D01*
X33979500Y30086615D01*
X33979500Y29913386D01*
X34006597Y29742298D01*
X34006598Y29742294D01*
X34060123Y29577562D01*
X34060125Y29577559D01*
X34060126Y29577556D01*
X34060127Y29577555D01*
X34138768Y29423212D01*
X34240586Y29283072D01*
X34363072Y29160586D01*
X34503212Y29058768D01*
X34657555Y28980127D01*
X34657557Y28980127D01*
X34657558Y28980126D01*
X34657561Y28980124D01*
X34822293Y28926599D01*
X34822297Y28926598D01*
X34993386Y28899500D01*
X34993389Y28899500D01*
X35166614Y28899500D01*
X35337702Y28926598D01*
X35337706Y28926599D01*
X35502438Y28980124D01*
X35502440Y28980126D01*
X35502445Y28980127D01*
X35656788Y29058768D01*
X35796928Y29160586D01*
X35919414Y29283072D01*
X36021232Y29423212D01*
X36099873Y29577555D01*
X36099874Y29577560D01*
X36099876Y29577562D01*
X36153401Y29742294D01*
X36153402Y29742298D01*
X36180500Y29913386D01*
X36180500Y30086615D01*
X36153402Y30257703D01*
X36153401Y30257707D01*
X36099876Y30422439D01*
X36099874Y30422442D01*
X36099873Y30422443D01*
X36099873Y30422445D01*
X36021232Y30576788D01*
X35919414Y30716928D01*
X35796928Y30839414D01*
X35656788Y30941232D01*
X35656787Y30941233D01*
X35656785Y30941234D01*
X35502441Y31019875D01*
X35502438Y31019877D01*
X35337706Y31073402D01*
X35337702Y31073403D01*
X35166614Y31100500D01*
X35166611Y31100500D01*
X34993389Y31100500D01*
X34993386Y31100500D01*
X34822297Y31073403D01*
X34822293Y31073402D01*
X34657561Y31019877D01*
X34657558Y31019875D01*
X34503214Y30941234D01*
X34363073Y30839415D01*
X34240585Y30716927D01*
X34138766Y30576786D01*
X34060125Y30422442D01*
X34060123Y30422439D01*
X34006598Y30257707D01*
X34006597Y30257703D01*
X33979500Y30086615D01*
X33640500Y30086615D01*
X33613402Y30257703D01*
X33613401Y30257707D01*
X33559876Y30422439D01*
X33559874Y30422442D01*
X33559873Y30422443D01*
X33559873Y30422445D01*
X33481232Y30576788D01*
X33379414Y30716928D01*
X33256928Y30839414D01*
X33116788Y30941232D01*
X33116787Y30941233D01*
X33116785Y30941234D01*
X32962441Y31019875D01*
X32962438Y31019877D01*
X32797706Y31073402D01*
X32797702Y31073403D01*
X32626614Y31100500D01*
X32626611Y31100500D01*
X32453389Y31100500D01*
X32453386Y31100500D01*
X32282297Y31073403D01*
X32282293Y31073402D01*
X32117561Y31019877D01*
X32117558Y31019875D01*
X31963214Y30941234D01*
X31823073Y30839415D01*
X31700585Y30716927D01*
X31598766Y30576786D01*
X31520125Y30422442D01*
X31520123Y30422439D01*
X31466598Y30257707D01*
X31466597Y30257703D01*
X31439500Y30086615D01*
X31100500Y30086615D01*
X31073402Y30257703D01*
X31073401Y30257707D01*
X31019876Y30422439D01*
X31019874Y30422442D01*
X31019873Y30422443D01*
X31019873Y30422445D01*
X30941232Y30576788D01*
X30839414Y30716928D01*
X30716928Y30839414D01*
X30576788Y30941232D01*
X30576787Y30941233D01*
X30576785Y30941234D01*
X30422441Y31019875D01*
X30422438Y31019877D01*
X30257706Y31073402D01*
X30257702Y31073403D01*
X30086614Y31100500D01*
X30086611Y31100500D01*
X29913389Y31100500D01*
X29913386Y31100500D01*
X29742297Y31073403D01*
X29742293Y31073402D01*
X29577561Y31019877D01*
X29577558Y31019875D01*
X29423214Y30941234D01*
X29283073Y30839415D01*
X29160585Y30716927D01*
X29058766Y30576786D01*
X28980125Y30422442D01*
X28980123Y30422439D01*
X28926598Y30257707D01*
X28926597Y30257703D01*
X28899500Y30086615D01*
X26020500Y30086615D01*
X26020500Y30874674D01*
X26005966Y30947740D01*
X25957768Y31019875D01*
X25950602Y31030600D01*
X25950599Y31030603D01*
X25867742Y31085965D01*
X25867740Y31085966D01*
X25867737Y31085967D01*
X25867736Y31085967D01*
X25794684Y31100499D01*
X25794674Y31100500D01*
X24045326Y31100500D01*
X24045325Y31100500D01*
X24045315Y31100499D01*
X23972263Y31085967D01*
X23972257Y31085965D01*
X23889400Y31030603D01*
X23889397Y31030600D01*
X23834035Y30947743D01*
X23834033Y30947737D01*
X23819501Y30874685D01*
X23819500Y30874673D01*
X500500Y30874673D01*
X500500Y33801000D01*
X519407Y33859191D01*
X568907Y33895155D01*
X599500Y33900000D01*
X59400500Y33900000D01*
X59458691Y33881093D01*
G37*
%TD.AperFunction*%
%TA.AperFunction,Conductor*%
G36*
X56002421Y109499381D02*
G01*
X56031158Y109497970D01*
X56338173Y109482887D01*
X56347815Y109481937D01*
X56677915Y109432971D01*
X56687421Y109431081D01*
X57011144Y109349992D01*
X57020415Y109347180D01*
X57334625Y109234754D01*
X57343594Y109231039D01*
X57645263Y109088360D01*
X57653826Y109083782D01*
X57940049Y108912227D01*
X57948127Y108906829D01*
X58216150Y108708049D01*
X58223660Y108701886D01*
X58470921Y108477782D01*
X58477781Y108470922D01*
X58603484Y108332230D01*
X58701885Y108223661D01*
X58708048Y108216151D01*
X58906828Y107948128D01*
X58912226Y107940050D01*
X59083781Y107653827D01*
X59088361Y107645259D01*
X59231036Y107343598D01*
X59234754Y107334622D01*
X59347175Y107020429D01*
X59349995Y107011132D01*
X59431077Y106687433D01*
X59432972Y106677904D01*
X59481934Y106347830D01*
X59482887Y106338162D01*
X59499381Y106002423D01*
X59499500Y105997565D01*
X59499500Y67959000D01*
X59480593Y67900809D01*
X59431093Y67864845D01*
X59400500Y67860000D01*
X55000000Y67860000D01*
X55000000Y67859999D01*
X55000000Y66594121D01*
X54981093Y66535930D01*
X54931593Y66499966D01*
X54926637Y66498499D01*
X54861679Y66481093D01*
X54806809Y66466391D01*
X54692690Y66400504D01*
X54599496Y66307310D01*
X54533609Y66193191D01*
X54521355Y66147457D01*
X54499500Y66065892D01*
X54499500Y41565892D01*
X54499500Y41434108D01*
X54529579Y41321849D01*
X54533609Y41306810D01*
X54599496Y41192691D01*
X54599498Y41192689D01*
X54599500Y41192686D01*
X54692686Y41099500D01*
X54692688Y41099499D01*
X54692690Y41099497D01*
X54806810Y41033610D01*
X54806811Y41033610D01*
X54806814Y41033608D01*
X54926625Y41001506D01*
X54977937Y40968183D01*
X54999864Y40911062D01*
X55000000Y40905880D01*
X55000000Y39860000D01*
X59400500Y39860000D01*
X59458691Y39841093D01*
X59494655Y39791593D01*
X59499500Y39761000D01*
X59499500Y38199000D01*
X59480593Y38140809D01*
X59431093Y38104845D01*
X59400500Y38100000D01*
X599500Y38100000D01*
X541309Y38118907D01*
X505345Y38168407D01*
X500500Y38199000D01*
X500500Y42325057D01*
X13266900Y42325057D01*
X13266900Y42166943D01*
X13307823Y42014216D01*
X13386880Y41877284D01*
X13498684Y41765480D01*
X13635616Y41686423D01*
X13788343Y41645500D01*
X13788345Y41645500D01*
X13946455Y41645500D01*
X13946457Y41645500D01*
X14099184Y41686423D01*
X14236116Y41765480D01*
X14347920Y41877284D01*
X14426977Y42014216D01*
X14467900Y42166943D01*
X14467900Y42325057D01*
X14426977Y42477784D01*
X14347920Y42614716D01*
X14236116Y42726520D01*
X14099184Y42805577D01*
X14071268Y42813057D01*
X15649500Y42813057D01*
X15649500Y42654943D01*
X15690423Y42502216D01*
X15769480Y42365284D01*
X15881284Y42253480D01*
X16018216Y42174423D01*
X16170943Y42133500D01*
X16170945Y42133500D01*
X16329055Y42133500D01*
X16329057Y42133500D01*
X16481784Y42174423D01*
X16618716Y42253480D01*
X16730520Y42365284D01*
X16809577Y42502216D01*
X16850500Y42654943D01*
X16850500Y42813057D01*
X16809577Y42965784D01*
X16730520Y43102716D01*
X16618716Y43214520D01*
X16481784Y43293577D01*
X16329057Y43334500D01*
X16170943Y43334500D01*
X16018216Y43293577D01*
X15881284Y43214520D01*
X15769480Y43102716D01*
X15690423Y42965784D01*
X15649500Y42813057D01*
X14071268Y42813057D01*
X13946457Y42846500D01*
X13788343Y42846500D01*
X13635616Y42805577D01*
X13498684Y42726520D01*
X13386880Y42614716D01*
X13307823Y42477784D01*
X13266900Y42325057D01*
X500500Y42325057D01*
X500500Y44488186D01*
X10227290Y44488186D01*
X10227300Y44421909D01*
X10227300Y44360347D01*
X10239334Y44299889D01*
X10239335Y44299876D01*
X10239337Y44299876D01*
X10251339Y44239539D01*
X10251362Y44239464D01*
X10275474Y44181275D01*
X10275476Y44181264D01*
X10275478Y44181264D01*
X10298496Y44125696D01*
X10298525Y44125642D01*
X10330936Y44077152D01*
X10330952Y44077129D01*
X10366940Y44023269D01*
X10366997Y44023200D01*
X10407636Y43982573D01*
X10407643Y43982560D01*
X10407646Y43982562D01*
X10457539Y43932670D01*
X10457694Y43932530D01*
X11762495Y42628114D01*
X11762502Y42628101D01*
X11762505Y42628103D01*
X11806462Y42584147D01*
X11806467Y42584142D01*
X11806472Y42584139D01*
X11806536Y42584086D01*
X11806539Y42584083D01*
X11858793Y42549179D01*
X11858801Y42549168D01*
X11858804Y42549171D01*
X11908916Y42515687D01*
X11908995Y42515645D01*
X11908997Y42515644D01*
X11966301Y42491919D01*
X11966312Y42491909D01*
X11966314Y42491913D01*
X12022750Y42468536D01*
X12022833Y42468512D01*
X12022838Y42468510D01*
X12058019Y42461518D01*
X12086038Y42455948D01*
X12086050Y42455947D01*
X12143594Y42444500D01*
X12143596Y42444500D01*
X12143601Y42444499D01*
X12143681Y42444491D01*
X12143686Y42444490D01*
X12143689Y42444491D01*
X12143690Y42444490D01*
X12195565Y42444498D01*
X12208535Y42444500D01*
X12563006Y42444500D01*
X12683852Y42468537D01*
X12797686Y42515689D01*
X12900133Y42584142D01*
X12987258Y42671267D01*
X13055711Y42773714D01*
X13102863Y42887548D01*
X13126900Y43008394D01*
X13126900Y43131606D01*
X13102863Y43252452D01*
X13055711Y43366286D01*
X12987258Y43468733D01*
X12900133Y43555858D01*
X12797686Y43624311D01*
X12797687Y43624311D01*
X12797685Y43624312D01*
X12683850Y43671464D01*
X12563008Y43695500D01*
X12563006Y43695500D01*
X12505235Y43695500D01*
X12447044Y43714407D01*
X12435242Y43724486D01*
X12422747Y43736977D01*
X11920028Y44239548D01*
X11507307Y44652147D01*
X11479521Y44706660D01*
X11478300Y44722161D01*
X11478300Y45529057D01*
X14699500Y45529057D01*
X14699500Y45370943D01*
X14740423Y45218216D01*
X14819480Y45081284D01*
X14931284Y44969480D01*
X15068216Y44890423D01*
X15220943Y44849500D01*
X15220945Y44849500D01*
X15379055Y44849500D01*
X15379057Y44849500D01*
X15531784Y44890423D01*
X15668716Y44969480D01*
X15780520Y45081284D01*
X15859577Y45218216D01*
X15900500Y45370943D01*
X15900500Y45529057D01*
X15859577Y45681784D01*
X15780520Y45818716D01*
X15668716Y45930520D01*
X15531784Y46009577D01*
X15379057Y46050500D01*
X15220943Y46050500D01*
X15068216Y46009577D01*
X14931284Y45930520D01*
X14819480Y45818716D01*
X14740423Y45681784D01*
X14699500Y45529057D01*
X11478300Y45529057D01*
X11478300Y46681457D01*
X13639100Y46681457D01*
X13639100Y46523343D01*
X13680023Y46370616D01*
X13759080Y46233684D01*
X13870884Y46121880D01*
X14007816Y46042823D01*
X14160543Y46001900D01*
X14160545Y46001900D01*
X14318655Y46001900D01*
X14318657Y46001900D01*
X14471384Y46042823D01*
X14601034Y46117676D01*
X19065385Y46117676D01*
X19088786Y45996711D01*
X19088787Y45996708D01*
X19135031Y45883387D01*
X19135342Y45882626D01*
X19189502Y45800642D01*
X19203255Y45779823D01*
X19289922Y45692242D01*
X19380933Y45630737D01*
X19418559Y45582490D01*
X19424500Y45548712D01*
X19424500Y44650565D01*
X19431505Y44624423D01*
X19450091Y44555058D01*
X19499525Y44469437D01*
X19499526Y44469437D01*
X20420504Y43548459D01*
X20448281Y43493942D01*
X20449500Y43478455D01*
X20449500Y43370943D01*
X20490423Y43218216D01*
X20569480Y43081284D01*
X20681284Y42969480D01*
X20818216Y42890423D01*
X20970943Y42849500D01*
X20970945Y42849500D01*
X21129055Y42849500D01*
X21129057Y42849500D01*
X21281784Y42890423D01*
X21418716Y42969480D01*
X21530520Y43081284D01*
X21609577Y43218216D01*
X21650500Y43370943D01*
X21650500Y43529057D01*
X21609577Y43681784D01*
X21530520Y43818716D01*
X21418716Y43930520D01*
X21281784Y44009577D01*
X21129057Y44050500D01*
X21129055Y44050500D01*
X21021545Y44050500D01*
X20963354Y44069407D01*
X20951541Y44079496D01*
X20204496Y44826541D01*
X20176719Y44881058D01*
X20175500Y44896545D01*
X20175500Y45263057D01*
X21178600Y45263057D01*
X21178600Y45104943D01*
X21219523Y44952216D01*
X21298580Y44815284D01*
X21410384Y44703480D01*
X21547316Y44624423D01*
X21700043Y44583500D01*
X21700045Y44583500D01*
X21858155Y44583500D01*
X21858157Y44583500D01*
X22010884Y44624423D01*
X22147816Y44703480D01*
X22259620Y44815284D01*
X22338677Y44952216D01*
X22379600Y45104943D01*
X22379600Y45263057D01*
X22338677Y45415784D01*
X22259620Y45552716D01*
X22147816Y45664520D01*
X22010884Y45743577D01*
X21858157Y45784500D01*
X21700043Y45784500D01*
X21547316Y45743577D01*
X21410384Y45664520D01*
X21298580Y45552716D01*
X21219523Y45415784D01*
X21178600Y45263057D01*
X20175500Y45263057D01*
X20175500Y45745209D01*
X20192475Y45800642D01*
X20243946Y45876805D01*
X20243946Y45876806D01*
X20243948Y45876808D01*
X20291697Y45990393D01*
X20316368Y46111111D01*
X20319234Y46657173D01*
X20338447Y46715260D01*
X20388135Y46750964D01*
X20449320Y46750643D01*
X20498630Y46714420D01*
X20503961Y46706164D01*
X20519480Y46679284D01*
X20631284Y46567480D01*
X20768216Y46488423D01*
X20920943Y46447500D01*
X20920945Y46447500D01*
X21079055Y46447500D01*
X21079057Y46447500D01*
X21231784Y46488423D01*
X21368716Y46567480D01*
X21480520Y46679284D01*
X21559577Y46816216D01*
X21600500Y46968943D01*
X21600500Y47116506D01*
X21619407Y47174697D01*
X21668907Y47210661D01*
X21730093Y47210661D01*
X21769506Y47186506D01*
X22600208Y46355701D01*
X22627982Y46301183D01*
X22629200Y46285702D01*
X22629200Y44164224D01*
X22629193Y44164114D01*
X22629200Y44085970D01*
X22629200Y44026084D01*
X22646235Y43962529D01*
X22646236Y43962520D01*
X22646238Y43962520D01*
X22663309Y43898809D01*
X22663323Y43898775D01*
X22695746Y43842629D01*
X22695755Y43842615D01*
X22729198Y43784688D01*
X22729223Y43784656D01*
X22729224Y43784655D01*
X22729226Y43784652D01*
X22776904Y43736982D01*
X22776907Y43736977D01*
X22776908Y43736977D01*
X22827227Y43686659D01*
X22827294Y43686600D01*
X23614546Y42899481D01*
X24189067Y42325056D01*
X24244624Y42269509D01*
X24272406Y42214995D01*
X24262839Y42154562D01*
X24219578Y42111294D01*
X24174626Y42100500D01*
X24045326Y42100500D01*
X24045325Y42100500D01*
X24045315Y42100499D01*
X23972263Y42085967D01*
X23972257Y42085965D01*
X23889400Y42030603D01*
X23889397Y42030600D01*
X23834035Y41947743D01*
X23834033Y41947737D01*
X23819501Y41874685D01*
X23819500Y41874673D01*
X23819500Y40125328D01*
X23819501Y40125316D01*
X23834033Y40052264D01*
X23834035Y40052258D01*
X23889397Y39969401D01*
X23889399Y39969399D01*
X23972260Y39914034D01*
X24027808Y39902985D01*
X24045315Y39899502D01*
X24045320Y39899502D01*
X24045326Y39899500D01*
X24045327Y39899500D01*
X25794673Y39899500D01*
X25794674Y39899500D01*
X25867740Y39914034D01*
X25950601Y39969399D01*
X26005966Y40052260D01*
X26020500Y40125326D01*
X26020500Y41874674D01*
X26005966Y41947740D01*
X25961549Y42014216D01*
X25950602Y42030600D01*
X25950599Y42030603D01*
X25867742Y42085965D01*
X25867740Y42085966D01*
X25867737Y42085967D01*
X25867736Y42085967D01*
X25794684Y42100499D01*
X25794674Y42100500D01*
X25794673Y42100500D01*
X25519500Y42100500D01*
X25461309Y42119407D01*
X25425345Y42168907D01*
X25420500Y42199500D01*
X25420500Y42229396D01*
X25420505Y42229485D01*
X25420503Y42253480D01*
X25420500Y42298727D01*
X25420500Y42367892D01*
X25420499Y42367896D01*
X25420496Y42367919D01*
X25420494Y42367932D01*
X25420494Y42367935D01*
X25403478Y42431417D01*
X25386685Y42494090D01*
X25386405Y42495198D01*
X25386404Y42495201D01*
X25385895Y42496058D01*
X25353049Y42552936D01*
X25353044Y42552946D01*
X25320708Y42608956D01*
X25320513Y42609300D01*
X25320486Y42609335D01*
X25320475Y42609346D01*
X25320474Y42609348D01*
X25272790Y42657024D01*
X25227314Y42702500D01*
X25227296Y42702510D01*
X25222720Y42707086D01*
X25222714Y42707091D01*
X25203281Y42726521D01*
X25170259Y42759538D01*
X25170258Y42759539D01*
X25106729Y42823057D01*
X26500000Y42823057D01*
X26500000Y42664943D01*
X26540923Y42512216D01*
X26619980Y42375284D01*
X26731784Y42263480D01*
X26868716Y42184423D01*
X27021443Y42143500D01*
X27021445Y42143500D01*
X27179555Y42143500D01*
X27179557Y42143500D01*
X27332284Y42184423D01*
X27469216Y42263480D01*
X27581020Y42375284D01*
X27660077Y42512216D01*
X27701000Y42664943D01*
X27701000Y42823057D01*
X27660077Y42975784D01*
X27581020Y43112716D01*
X27469216Y43224520D01*
X27332284Y43303577D01*
X27179557Y43344500D01*
X27021443Y43344500D01*
X26868716Y43303577D01*
X26731784Y43224520D01*
X26619980Y43112716D01*
X26540923Y42975784D01*
X26500000Y42823057D01*
X25106729Y42823057D01*
X23659202Y44270342D01*
X23631420Y44324856D01*
X23630200Y44340351D01*
X23630200Y46533968D01*
X23630202Y46567481D01*
X23630204Y46599861D01*
X23630201Y46599871D01*
X23630200Y46599882D01*
X23630200Y46599892D01*
X23610131Y46674793D01*
X23596451Y46725859D01*
X23596121Y46727169D01*
X23595499Y46728213D01*
X23557975Y46793207D01*
X23557973Y46793212D01*
X23530220Y46841288D01*
X23530200Y46841314D01*
X23482182Y46889333D01*
X23482177Y46889337D01*
X22277118Y48094547D01*
X22213616Y48158057D01*
X25980900Y48158057D01*
X25980900Y47999943D01*
X26021823Y47847216D01*
X26100880Y47710284D01*
X26212684Y47598480D01*
X26349616Y47519423D01*
X26502343Y47478500D01*
X26502345Y47478500D01*
X26660455Y47478500D01*
X26660457Y47478500D01*
X26813184Y47519423D01*
X26950116Y47598480D01*
X27061920Y47710284D01*
X27140977Y47847216D01*
X27145757Y47865057D01*
X28608000Y47865057D01*
X28608000Y47706943D01*
X28648923Y47554216D01*
X28727980Y47417284D01*
X28839784Y47305480D01*
X28976716Y47226423D01*
X29129443Y47185500D01*
X29129445Y47185500D01*
X29287557Y47185500D01*
X29317621Y47193556D01*
X29378721Y47190355D01*
X29405609Y47174817D01*
X29612864Y47006710D01*
X29646147Y46955369D01*
X29649500Y46929823D01*
X29649500Y42115177D01*
X29630593Y42056986D01*
X29581095Y42021024D01*
X29580117Y42020706D01*
X29577553Y42019873D01*
X29423214Y41941234D01*
X29283073Y41839415D01*
X29160585Y41716927D01*
X29058766Y41576786D01*
X28980125Y41422442D01*
X28980123Y41422439D01*
X28926598Y41257707D01*
X28926597Y41257703D01*
X28899500Y41086615D01*
X28899500Y40913386D01*
X28926597Y40742298D01*
X28926598Y40742294D01*
X28980123Y40577562D01*
X28980125Y40577559D01*
X29035837Y40468216D01*
X29058768Y40423212D01*
X29160586Y40283072D01*
X29283072Y40160586D01*
X29423212Y40058768D01*
X29577555Y39980127D01*
X29577557Y39980127D01*
X29577558Y39980126D01*
X29577561Y39980124D01*
X29742293Y39926599D01*
X29742297Y39926598D01*
X29913386Y39899500D01*
X29913389Y39899500D01*
X30086614Y39899500D01*
X30257702Y39926598D01*
X30257706Y39926599D01*
X30422438Y39980124D01*
X30422440Y39980126D01*
X30422445Y39980127D01*
X30576788Y40058768D01*
X30716928Y40160586D01*
X30839414Y40283072D01*
X30941232Y40423212D01*
X31019873Y40577555D01*
X31019874Y40577560D01*
X31019876Y40577562D01*
X31073401Y40742294D01*
X31073402Y40742298D01*
X31100500Y40913386D01*
X31100500Y41086615D01*
X31073402Y41257703D01*
X31073401Y41257707D01*
X31019876Y41422439D01*
X31019874Y41422442D01*
X31019873Y41422443D01*
X31019873Y41422445D01*
X30941232Y41576788D01*
X30839414Y41716928D01*
X30716928Y41839414D01*
X30576788Y41941232D01*
X30576787Y41941233D01*
X30576785Y41941234D01*
X30422446Y42019873D01*
X30420437Y42020526D01*
X30418904Y42021024D01*
X30369406Y42056989D01*
X30350500Y42115177D01*
X30350500Y47108446D01*
X30351731Y47124011D01*
X30352216Y47127057D01*
X30353395Y47134462D01*
X30351457Y47153041D01*
X30364226Y47212877D01*
X30409727Y47253782D01*
X30470583Y47260129D01*
X30516735Y47236365D01*
X30984351Y46808716D01*
X32135146Y45756280D01*
X32157312Y45736009D01*
X32187493Y45682786D01*
X32189500Y45662953D01*
X32189500Y42115177D01*
X32170593Y42056986D01*
X32121095Y42021024D01*
X32120117Y42020706D01*
X32117553Y42019873D01*
X31963214Y41941234D01*
X31823073Y41839415D01*
X31700585Y41716927D01*
X31598766Y41576786D01*
X31520125Y41422442D01*
X31520123Y41422439D01*
X31466598Y41257707D01*
X31466597Y41257703D01*
X31439500Y41086615D01*
X31439500Y40913386D01*
X31466597Y40742298D01*
X31466598Y40742294D01*
X31520123Y40577562D01*
X31520125Y40577559D01*
X31575837Y40468216D01*
X31598768Y40423212D01*
X31700586Y40283072D01*
X31823072Y40160586D01*
X31963212Y40058768D01*
X32117555Y39980127D01*
X32117557Y39980127D01*
X32117558Y39980126D01*
X32117561Y39980124D01*
X32282293Y39926599D01*
X32282297Y39926598D01*
X32453386Y39899500D01*
X32453389Y39899500D01*
X32626614Y39899500D01*
X32797702Y39926598D01*
X32797706Y39926599D01*
X32962438Y39980124D01*
X32962440Y39980126D01*
X32962445Y39980127D01*
X33116788Y40058768D01*
X33256928Y40160586D01*
X33379414Y40283072D01*
X33481232Y40423212D01*
X33559873Y40577555D01*
X33559874Y40577560D01*
X33559876Y40577562D01*
X33613401Y40742294D01*
X33613402Y40742298D01*
X33640500Y40913386D01*
X33640500Y41086615D01*
X33613402Y41257703D01*
X33613401Y41257707D01*
X33559876Y41422439D01*
X33559874Y41422442D01*
X33559873Y41422443D01*
X33559873Y41422445D01*
X33481232Y41576788D01*
X33379414Y41716928D01*
X33256928Y41839414D01*
X33116788Y41941232D01*
X33116787Y41941233D01*
X33116785Y41941234D01*
X32962446Y42019873D01*
X32960437Y42020526D01*
X32958904Y42021024D01*
X32909406Y42056989D01*
X32890500Y42115177D01*
X32890500Y45811997D01*
X32891814Y45824058D01*
X32891650Y45824072D01*
X32892209Y45830536D01*
X32890599Y45866598D01*
X32890500Y45871014D01*
X32890500Y45907145D01*
X32889653Y45913575D01*
X32889818Y45913597D01*
X32889390Y45916368D01*
X32889226Y45916338D01*
X32888093Y45922723D01*
X32888093Y45922729D01*
X32877201Y45957156D01*
X32875966Y45961389D01*
X32866616Y45996281D01*
X32866615Y45996282D01*
X32866614Y45996288D01*
X32866610Y45996294D01*
X32864130Y46002283D01*
X32864284Y46002347D01*
X32863155Y46004910D01*
X32863005Y46004839D01*
X32860257Y46010716D01*
X32860256Y46010717D01*
X32860256Y46010719D01*
X32840803Y46041189D01*
X32838538Y46044916D01*
X32820469Y46076212D01*
X32820467Y46076214D01*
X32820463Y46076221D01*
X32816518Y46081363D01*
X32816648Y46081464D01*
X32814895Y46083646D01*
X32814769Y46083539D01*
X32810590Y46088510D01*
X32783939Y46112883D01*
X32780749Y46115933D01*
X32755216Y46141465D01*
X32755212Y46141469D01*
X32755207Y46141472D01*
X32750063Y46145419D01*
X32750164Y46145551D01*
X32740378Y46152719D01*
X32716772Y46174307D01*
X32360732Y46499917D01*
X30832688Y47897361D01*
X30802507Y47950585D01*
X30800500Y47970417D01*
X30800500Y48080056D01*
X30779600Y48158056D01*
X30759577Y48232784D01*
X30680520Y48369716D01*
X30568716Y48481520D01*
X30431784Y48560577D01*
X30279057Y48601500D01*
X30120943Y48601500D01*
X29968216Y48560577D01*
X29831284Y48481520D01*
X29719479Y48369715D01*
X29688728Y48316452D01*
X29643258Y48275512D01*
X29582408Y48269117D01*
X29553496Y48280215D01*
X29440284Y48345577D01*
X29287557Y48386500D01*
X29129443Y48386500D01*
X28976716Y48345577D01*
X28839784Y48266520D01*
X28727980Y48154716D01*
X28648923Y48017784D01*
X28608000Y47865057D01*
X27145757Y47865057D01*
X27181900Y47999943D01*
X27181900Y48158057D01*
X27140977Y48310784D01*
X27061920Y48447716D01*
X26950116Y48559520D01*
X26813184Y48638577D01*
X26660457Y48679500D01*
X26502343Y48679500D01*
X26349616Y48638577D01*
X26212684Y48559520D01*
X26100880Y48447716D01*
X26021823Y48310784D01*
X25980900Y48158057D01*
X22213616Y48158057D01*
X21262492Y49109300D01*
X21234718Y49163818D01*
X21233500Y49179299D01*
X21233500Y50733057D01*
X24149500Y50733057D01*
X24149500Y50574943D01*
X24190423Y50422216D01*
X24269480Y50285284D01*
X24381284Y50173480D01*
X24518216Y50094423D01*
X24670943Y50053500D01*
X24670945Y50053500D01*
X24829055Y50053500D01*
X24829057Y50053500D01*
X24981784Y50094423D01*
X25118716Y50173480D01*
X25230520Y50285284D01*
X25309577Y50422216D01*
X25350500Y50574943D01*
X25350500Y50733057D01*
X25309577Y50885784D01*
X25230520Y51022716D01*
X25118716Y51134520D01*
X24981784Y51213577D01*
X24829057Y51254500D01*
X24670943Y51254500D01*
X24518216Y51213577D01*
X24381284Y51134520D01*
X24269480Y51022716D01*
X24190423Y50885784D01*
X24149500Y50733057D01*
X21233500Y50733057D01*
X21233500Y56335057D01*
X32266600Y56335057D01*
X32266600Y56176943D01*
X32307523Y56024216D01*
X32386580Y55887284D01*
X32487605Y55786259D01*
X32515381Y55731744D01*
X32516600Y55716257D01*
X32516600Y52018856D01*
X32540486Y51929712D01*
X32586630Y51849788D01*
X32930559Y51505859D01*
X33258549Y51177869D01*
X33286326Y51123352D01*
X33276755Y51062920D01*
X33272634Y51056388D01*
X33272725Y51056335D01*
X33269482Y51050719D01*
X33269480Y51050716D01*
X33190423Y50913784D01*
X33149500Y50761057D01*
X33149500Y50602943D01*
X33190423Y50450216D01*
X33269480Y50313284D01*
X33370505Y50212259D01*
X33398281Y50157744D01*
X33399500Y50142257D01*
X33399500Y50135857D01*
X33410601Y50094424D01*
X33417490Y50068716D01*
X33423386Y50046712D01*
X33469530Y49966788D01*
X33870505Y49565813D01*
X33898281Y49511298D01*
X33899500Y49495811D01*
X33899500Y43515787D01*
X33899497Y43469868D01*
X33899498Y43469861D01*
X33902394Y43459056D01*
X33911039Y43426793D01*
X33923136Y43381633D01*
X33923380Y43380723D01*
X33923385Y43380714D01*
X33923386Y43380712D01*
X33944293Y43344500D01*
X33945464Y43342473D01*
X33945466Y43342467D01*
X33969518Y43300802D01*
X33969529Y43300791D01*
X33969531Y43300788D01*
X33998952Y43271367D01*
X33998953Y43271366D01*
X33998952Y43271366D01*
X33998956Y43271363D01*
X35008192Y42261990D01*
X35035966Y42207471D01*
X35026391Y42147040D01*
X34983123Y42103778D01*
X34953671Y42094210D01*
X34822298Y42073403D01*
X34822293Y42073402D01*
X34657561Y42019877D01*
X34657558Y42019875D01*
X34503214Y41941234D01*
X34363073Y41839415D01*
X34240585Y41716927D01*
X34138766Y41576786D01*
X34060125Y41422442D01*
X34060123Y41422439D01*
X34006598Y41257707D01*
X34006597Y41257703D01*
X33979500Y41086615D01*
X33979500Y40913386D01*
X34006597Y40742298D01*
X34006598Y40742294D01*
X34060123Y40577562D01*
X34060125Y40577559D01*
X34115837Y40468216D01*
X34138768Y40423212D01*
X34240586Y40283072D01*
X34363072Y40160586D01*
X34503212Y40058768D01*
X34657555Y39980127D01*
X34657557Y39980127D01*
X34657558Y39980126D01*
X34657561Y39980124D01*
X34822293Y39926599D01*
X34822297Y39926598D01*
X34993386Y39899500D01*
X34993389Y39899500D01*
X35166614Y39899500D01*
X35337702Y39926598D01*
X35337706Y39926599D01*
X35502438Y39980124D01*
X35502440Y39980126D01*
X35502445Y39980127D01*
X35656788Y40058768D01*
X35796928Y40160586D01*
X35919414Y40283072D01*
X36021232Y40423212D01*
X36099873Y40577555D01*
X36131790Y40675786D01*
X36167753Y40725284D01*
X36225943Y40744192D01*
X36251557Y40740821D01*
X36379643Y40706500D01*
X36379646Y40706500D01*
X36537755Y40706500D01*
X36537757Y40706500D01*
X36690484Y40747423D01*
X36701628Y40753857D01*
X44899500Y40753857D01*
X44899500Y40595743D01*
X44940423Y40443016D01*
X45019480Y40306084D01*
X45131284Y40194280D01*
X45268216Y40115223D01*
X45420943Y40074300D01*
X45420945Y40074300D01*
X45579055Y40074300D01*
X45579057Y40074300D01*
X45731784Y40115223D01*
X45868716Y40194280D01*
X45967598Y40293163D01*
X46022113Y40320938D01*
X46082545Y40311367D01*
X46107600Y40293164D01*
X46181284Y40219480D01*
X46318216Y40140423D01*
X46470943Y40099500D01*
X46470945Y40099500D01*
X46629055Y40099500D01*
X46629057Y40099500D01*
X46781784Y40140423D01*
X46918716Y40219480D01*
X47030520Y40331284D01*
X47109577Y40468216D01*
X47150500Y40620943D01*
X47150500Y40779057D01*
X47349500Y40779057D01*
X47349500Y40620943D01*
X47390423Y40468216D01*
X47469480Y40331284D01*
X47581284Y40219480D01*
X47718216Y40140423D01*
X47870943Y40099500D01*
X47870945Y40099500D01*
X48029055Y40099500D01*
X48029057Y40099500D01*
X48181784Y40140423D01*
X48318716Y40219480D01*
X48430520Y40331284D01*
X48509577Y40468216D01*
X48550500Y40620943D01*
X48550500Y40779057D01*
X48509577Y40931784D01*
X48430520Y41068716D01*
X48318716Y41180520D01*
X48181784Y41259577D01*
X48029057Y41300500D01*
X47870943Y41300500D01*
X47718216Y41259577D01*
X47581284Y41180520D01*
X47469480Y41068716D01*
X47390423Y40931784D01*
X47349500Y40779057D01*
X47150500Y40779057D01*
X47109577Y40931784D01*
X47030520Y41068716D01*
X46918716Y41180520D01*
X46781784Y41259577D01*
X46629057Y41300500D01*
X46470943Y41300500D01*
X46318216Y41259577D01*
X46181284Y41180520D01*
X46082401Y41081638D01*
X46027887Y41053862D01*
X45967455Y41063433D01*
X45942399Y41081637D01*
X45868716Y41155320D01*
X45731784Y41234377D01*
X45579057Y41275300D01*
X45420943Y41275300D01*
X45268216Y41234377D01*
X45131284Y41155320D01*
X45019480Y41043516D01*
X44940423Y40906584D01*
X44899500Y40753857D01*
X36701628Y40753857D01*
X36827416Y40826480D01*
X36939220Y40938284D01*
X37018277Y41075216D01*
X37059200Y41227943D01*
X37059200Y41386057D01*
X37018277Y41538784D01*
X36939220Y41675716D01*
X36827416Y41787520D01*
X36690484Y41866577D01*
X36537757Y41907500D01*
X36394942Y41907500D01*
X36336751Y41926407D01*
X36324934Y41936501D01*
X34629492Y43632173D01*
X34601718Y43686692D01*
X34600500Y43702172D01*
X34600500Y49728143D01*
X34600500Y49728144D01*
X34576614Y49817288D01*
X34554618Y49855386D01*
X34530470Y49897212D01*
X34241491Y50186191D01*
X34213716Y50240705D01*
X34223287Y50301137D01*
X34227372Y50307609D01*
X34227275Y50307665D01*
X34230517Y50313282D01*
X34230520Y50313284D01*
X34309577Y50450216D01*
X34350500Y50602943D01*
X34350500Y50761057D01*
X34309577Y50913784D01*
X34230520Y51050716D01*
X34129494Y51151742D01*
X34101719Y51206256D01*
X34100500Y51221743D01*
X34100500Y51228243D01*
X34100500Y51228244D01*
X34076614Y51317388D01*
X34065101Y51337329D01*
X34030470Y51397312D01*
X33246596Y52181186D01*
X33218819Y52235703D01*
X33217600Y52251190D01*
X33217600Y55716257D01*
X33236507Y55774448D01*
X33246590Y55786255D01*
X33347620Y55887284D01*
X33426677Y56024216D01*
X33467600Y56176943D01*
X33467600Y56335057D01*
X33426677Y56487784D01*
X33347620Y56624716D01*
X33235816Y56736520D01*
X33098884Y56815577D01*
X32946157Y56856500D01*
X32788043Y56856500D01*
X32635316Y56815577D01*
X32498384Y56736520D01*
X32386580Y56624716D01*
X32307523Y56487784D01*
X32266600Y56335057D01*
X21233500Y56335057D01*
X21233500Y63134256D01*
X21252407Y63192447D01*
X21282998Y63219992D01*
X21368716Y63269480D01*
X21480520Y63381284D01*
X21559577Y63518216D01*
X21589277Y63629057D01*
X30749500Y63629057D01*
X30749500Y63470943D01*
X30790423Y63318216D01*
X30869480Y63181284D01*
X30981284Y63069480D01*
X31118216Y62990423D01*
X31270943Y62949500D01*
X31270945Y62949500D01*
X31429055Y62949500D01*
X31429057Y62949500D01*
X31581784Y62990423D01*
X31718716Y63069480D01*
X31830520Y63181284D01*
X31909577Y63318216D01*
X31950500Y63470943D01*
X31950500Y63629057D01*
X31909577Y63781784D01*
X31830520Y63918716D01*
X31718716Y64030520D01*
X31581784Y64109577D01*
X31429057Y64150500D01*
X31270943Y64150500D01*
X31118216Y64109577D01*
X30981284Y64030520D01*
X30869480Y63918716D01*
X30790423Y63781784D01*
X30749500Y63629057D01*
X21589277Y63629057D01*
X21600500Y63670943D01*
X21600500Y63829057D01*
X21559577Y63981784D01*
X21480520Y64118716D01*
X21368716Y64230520D01*
X21231784Y64309577D01*
X21079057Y64350500D01*
X20920943Y64350500D01*
X20810161Y64320816D01*
X20768216Y64309577D01*
X20631284Y64230520D01*
X20519480Y64118716D01*
X20440421Y63981782D01*
X20440421Y63981781D01*
X20411143Y63872516D01*
X20385522Y63828138D01*
X20332499Y63775114D01*
X20266609Y63660991D01*
X20232500Y63533691D01*
X20232500Y56309313D01*
X20213593Y56251122D01*
X20164093Y56215158D01*
X20102907Y56215158D01*
X20078067Y56227287D01*
X20040392Y56252748D01*
X19926807Y56300497D01*
X19917432Y56302413D01*
X19806092Y56325168D01*
X19753284Y56325446D01*
X19682879Y56325815D01*
X19682878Y56325815D01*
X19682875Y56325815D01*
X19561909Y56302413D01*
X19447825Y56255858D01*
X19345022Y56187944D01*
X19257445Y56101282D01*
X19257436Y56101271D01*
X19188453Y55999196D01*
X19140703Y55885609D01*
X19140703Y55885608D01*
X19116032Y55764893D01*
X19103317Y53342912D01*
X19067917Y46599876D01*
X19065385Y46117676D01*
X14601034Y46117676D01*
X14608316Y46121880D01*
X14720120Y46233684D01*
X14799177Y46370616D01*
X14840100Y46523343D01*
X14840100Y46681457D01*
X14799177Y46834184D01*
X14720120Y46971116D01*
X14608316Y47082920D01*
X14471384Y47161977D01*
X14318657Y47202900D01*
X14160543Y47202900D01*
X14007816Y47161977D01*
X13870884Y47082920D01*
X13759080Y46971116D01*
X13680023Y46834184D01*
X13639100Y46681457D01*
X11478300Y46681457D01*
X11478300Y49779057D01*
X12599500Y49779057D01*
X12599500Y49620943D01*
X12640423Y49468216D01*
X12719480Y49331284D01*
X12831284Y49219480D01*
X12968216Y49140423D01*
X13120943Y49099500D01*
X13120945Y49099500D01*
X13279055Y49099500D01*
X13279057Y49099500D01*
X13431784Y49140423D01*
X13568716Y49219480D01*
X13680520Y49331284D01*
X13759577Y49468216D01*
X13800500Y49620943D01*
X13800500Y49779057D01*
X13759577Y49931784D01*
X13680520Y50068716D01*
X13568716Y50180520D01*
X13431784Y50259577D01*
X13279057Y50300500D01*
X13120943Y50300500D01*
X12968216Y50259577D01*
X12831284Y50180520D01*
X12719480Y50068716D01*
X12640423Y49931784D01*
X12599500Y49779057D01*
X11478300Y49779057D01*
X11478300Y51435847D01*
X11497207Y51494038D01*
X11507305Y51505859D01*
X12414849Y52413172D01*
X12414972Y52413282D01*
X12418830Y52417141D01*
X12418833Y52417142D01*
X12463052Y52461362D01*
X12505850Y52504149D01*
X12505931Y52504228D01*
X12505932Y52504229D01*
X12505956Y52504266D01*
X12505958Y52504267D01*
X12532846Y52544508D01*
X12540953Y52556641D01*
X12540959Y52556651D01*
X12548888Y52568514D01*
X12574183Y52606360D01*
X12574393Y52606667D01*
X12574466Y52606849D01*
X12598951Y52665960D01*
X12621539Y52720471D01*
X12621541Y52720484D01*
X12621551Y52720507D01*
X12621559Y52720532D01*
X12621561Y52720545D01*
X12621563Y52720548D01*
X12633975Y52782953D01*
X12645592Y52841313D01*
X12645592Y52841327D01*
X12645598Y52841386D01*
X12645600Y52841394D01*
X12645600Y52902920D01*
X12645608Y52964526D01*
X12645607Y52964529D01*
X12645608Y52969196D01*
X12645600Y52969383D01*
X12645600Y56131653D01*
X12664507Y56189844D01*
X12714007Y56225808D01*
X12775193Y56225808D01*
X12794091Y56217394D01*
X12873716Y56171423D01*
X13026443Y56130500D01*
X13026445Y56130500D01*
X13184555Y56130500D01*
X13184557Y56130500D01*
X13337284Y56171423D01*
X13474216Y56250480D01*
X13586020Y56362284D01*
X13665077Y56499216D01*
X13706000Y56651943D01*
X13706000Y56810057D01*
X13665077Y56962784D01*
X13586020Y57099716D01*
X13474216Y57211520D01*
X13337284Y57290577D01*
X13184557Y57331500D01*
X13026443Y57331500D01*
X12975161Y57317759D01*
X12873714Y57290577D01*
X12794099Y57244611D01*
X12734251Y57231890D01*
X12678355Y57256777D01*
X12647763Y57309766D01*
X12645600Y57330348D01*
X12645600Y58024144D01*
X12664507Y58082335D01*
X12674558Y58094109D01*
X12681984Y58101543D01*
X12750380Y58204030D01*
X12797466Y58317891D01*
X12821435Y58438749D01*
X12821365Y58561962D01*
X12797259Y58682793D01*
X12750043Y58796600D01*
X12735871Y58817784D01*
X12681532Y58899007D01*
X12681531Y58899008D01*
X12594360Y58986081D01*
X12594357Y58986084D01*
X12491870Y59054480D01*
X12491867Y59054482D01*
X12491866Y59054482D01*
X12386922Y59097880D01*
X12378009Y59101566D01*
X12378007Y59101567D01*
X12378006Y59101567D01*
X12257148Y59125536D01*
X12134220Y59125466D01*
X12133938Y59125465D01*
X12133937Y59125465D01*
X12013107Y59101359D01*
X12013106Y59101359D01*
X11899299Y59054144D01*
X11796892Y58985633D01*
X11796891Y58985633D01*
X11578013Y58766505D01*
X11534231Y58722723D01*
X11534057Y58722509D01*
X11534024Y58722470D01*
X11500077Y58671603D01*
X11500047Y58671559D01*
X11465783Y58620279D01*
X11465644Y58620017D01*
X11465625Y58619983D01*
X11442086Y58563065D01*
X11442066Y58563018D01*
X11418628Y58506432D01*
X11418537Y58506129D01*
X11418533Y58506110D01*
X11418533Y58506109D01*
X11414698Y58486768D01*
X11406759Y58446737D01*
X11406748Y58446682D01*
X11394597Y58385595D01*
X11394577Y58385385D01*
X11394574Y58385349D01*
X11394564Y58385256D01*
X11394600Y58324500D01*
X11394600Y53203154D01*
X11375693Y53144963D01*
X11365595Y53133141D01*
X10457111Y52224892D01*
X10456978Y52224770D01*
X10409715Y52177507D01*
X10366962Y52134764D01*
X10333669Y52084937D01*
X10333662Y52084927D01*
X10298506Y52032329D01*
X10275410Y51976570D01*
X10275406Y51976562D01*
X10251344Y51918491D01*
X10238924Y51856048D01*
X10227308Y51797687D01*
X10227307Y51797684D01*
X10227300Y51797644D01*
X10227300Y51738373D01*
X10227291Y51669685D01*
X10227300Y51669504D01*
X10227300Y44488393D01*
X10227290Y44488186D01*
X500500Y44488186D01*
X500500Y45295766D01*
X5424500Y45295766D01*
X5424500Y45144234D01*
X5435028Y45104943D01*
X5463720Y44997861D01*
X5539481Y44866640D01*
X5539483Y44866638D01*
X5539485Y44866635D01*
X5646635Y44759485D01*
X5646637Y44759484D01*
X5646639Y44759482D01*
X5777861Y44683721D01*
X5777859Y44683721D01*
X5777863Y44683720D01*
X5777865Y44683719D01*
X5924234Y44644500D01*
X5924236Y44644500D01*
X6075764Y44644500D01*
X6075766Y44644500D01*
X6222135Y44683719D01*
X6222137Y44683721D01*
X6222139Y44683721D01*
X6353360Y44759482D01*
X6353360Y44759483D01*
X6353365Y44759485D01*
X6460515Y44866635D01*
X6477784Y44896545D01*
X6536279Y44997861D01*
X6536279Y44997863D01*
X6536281Y44997865D01*
X6575500Y45144234D01*
X6575500Y45295766D01*
X6536281Y45442135D01*
X6536279Y45442138D01*
X6536279Y45442140D01*
X6460518Y45573361D01*
X6460516Y45573363D01*
X6460515Y45573365D01*
X6353365Y45680515D01*
X6353362Y45680517D01*
X6353360Y45680519D01*
X6222138Y45756280D01*
X6222140Y45756280D01*
X6153311Y45774722D01*
X6075766Y45795500D01*
X5924234Y45795500D01*
X5846689Y45774722D01*
X5777860Y45756280D01*
X5646639Y45680519D01*
X5539481Y45573361D01*
X5463720Y45442140D01*
X5463719Y45442135D01*
X5424500Y45295766D01*
X500500Y45295766D01*
X500500Y49529057D01*
X5299500Y49529057D01*
X5299500Y49370943D01*
X5340423Y49218216D01*
X5419480Y49081284D01*
X5531284Y48969480D01*
X5668216Y48890423D01*
X5820943Y48849500D01*
X5820945Y48849500D01*
X5979055Y48849500D01*
X5979057Y48849500D01*
X6131784Y48890423D01*
X6268716Y48969480D01*
X6380520Y49081284D01*
X6459577Y49218216D01*
X6500500Y49370943D01*
X6500500Y49529057D01*
X6459577Y49681784D01*
X6380520Y49818716D01*
X6268716Y49930520D01*
X6131784Y50009577D01*
X5979057Y50050500D01*
X5820943Y50050500D01*
X5668216Y50009577D01*
X5531284Y49930520D01*
X5419480Y49818716D01*
X5340423Y49681784D01*
X5299500Y49529057D01*
X500500Y49529057D01*
X500500Y51075766D01*
X5424500Y51075766D01*
X5424500Y50924234D01*
X5434803Y50885784D01*
X5463720Y50777861D01*
X5539481Y50646640D01*
X5539483Y50646638D01*
X5539485Y50646635D01*
X5646635Y50539485D01*
X5646637Y50539484D01*
X5646639Y50539482D01*
X5777861Y50463721D01*
X5777859Y50463721D01*
X5777863Y50463720D01*
X5777865Y50463719D01*
X5924234Y50424500D01*
X5924236Y50424500D01*
X6075764Y50424500D01*
X6075766Y50424500D01*
X6222135Y50463719D01*
X6222137Y50463721D01*
X6222139Y50463721D01*
X6243505Y50476057D01*
X7603500Y50476057D01*
X7603500Y50317943D01*
X7644423Y50165216D01*
X7723480Y50028284D01*
X7835284Y49916480D01*
X7972216Y49837423D01*
X8124943Y49796500D01*
X8124945Y49796500D01*
X8283055Y49796500D01*
X8283057Y49796500D01*
X8435784Y49837423D01*
X8572716Y49916480D01*
X8684520Y50028284D01*
X8763577Y50165216D01*
X8804500Y50317943D01*
X8804500Y50476057D01*
X8763577Y50628784D01*
X8684520Y50765716D01*
X8572716Y50877520D01*
X8435784Y50956577D01*
X8283057Y50997500D01*
X8124943Y50997500D01*
X7972216Y50956577D01*
X7835284Y50877520D01*
X7723480Y50765716D01*
X7644423Y50628784D01*
X7603500Y50476057D01*
X6243505Y50476057D01*
X6353360Y50539482D01*
X6353360Y50539483D01*
X6353365Y50539485D01*
X6460515Y50646635D01*
X6460518Y50646640D01*
X6536279Y50777861D01*
X6536279Y50777863D01*
X6536281Y50777865D01*
X6575500Y50924234D01*
X6575500Y51075766D01*
X6536281Y51222135D01*
X6536279Y51222138D01*
X6536279Y51222140D01*
X6460518Y51353361D01*
X6460516Y51353363D01*
X6460515Y51353365D01*
X6353365Y51460515D01*
X6353362Y51460517D01*
X6353360Y51460519D01*
X6222138Y51536280D01*
X6222140Y51536280D01*
X6165347Y51551497D01*
X6075766Y51575500D01*
X5924234Y51575500D01*
X5834652Y51551497D01*
X5777860Y51536280D01*
X5646639Y51460519D01*
X5539481Y51353361D01*
X5463720Y51222140D01*
X5463719Y51222135D01*
X5424500Y51075766D01*
X500500Y51075766D01*
X500500Y71678115D01*
X519407Y71736306D01*
X568907Y71772270D01*
X630093Y71772270D01*
X637392Y71769576D01*
X640411Y71768326D01*
X640416Y71768323D01*
X793143Y71727400D01*
X793145Y71727400D01*
X951255Y71727400D01*
X951257Y71727400D01*
X1103984Y71768323D01*
X1240916Y71847380D01*
X1352720Y71959184D01*
X1431777Y72096116D01*
X1472700Y72248843D01*
X1472700Y72406957D01*
X1433517Y72553190D01*
X1436720Y72614289D01*
X1459138Y72648813D01*
X4360465Y75550138D01*
X4403318Y75624362D01*
X4425500Y75707147D01*
X4425500Y77674166D01*
X4444407Y77732357D01*
X4454496Y77744170D01*
X4880830Y78170504D01*
X4935347Y78198281D01*
X4950834Y78199500D01*
X5029054Y78199500D01*
X5029057Y78199500D01*
X5142980Y78230026D01*
X5204078Y78226824D01*
X5251628Y78188319D01*
X5267600Y78134399D01*
X5267600Y54603486D01*
X5267587Y54603282D01*
X5267600Y54554088D01*
X5267600Y54504813D01*
X5279338Y54461046D01*
X5279334Y54461046D01*
X5279343Y54461027D01*
X5291486Y54415712D01*
X5291521Y54415628D01*
X5314896Y54375164D01*
X5314903Y54375153D01*
X5337631Y54335788D01*
X5337632Y54335787D01*
X5337634Y54335784D01*
X5337684Y54335718D01*
X5371336Y54302083D01*
X5371346Y54302063D01*
X5371351Y54302067D01*
X5384801Y54288618D01*
X5412581Y54234103D01*
X5413800Y54218612D01*
X5413800Y54075943D01*
X5454723Y53923216D01*
X5533780Y53786284D01*
X5645584Y53674480D01*
X5782516Y53595423D01*
X5935243Y53554500D01*
X5935245Y53554500D01*
X6093355Y53554500D01*
X6093357Y53554500D01*
X6246084Y53595423D01*
X6383016Y53674480D01*
X6494820Y53786284D01*
X6573877Y53923216D01*
X6614800Y54075943D01*
X6614800Y54234057D01*
X6573877Y54386784D01*
X6494820Y54523716D01*
X6383016Y54635520D01*
X6246084Y54714577D01*
X6093357Y54755500D01*
X6093355Y54755500D01*
X6067600Y54755500D01*
X6009409Y54774407D01*
X5973445Y54823907D01*
X5968600Y54854500D01*
X5968600Y56678277D01*
X5987507Y56736468D01*
X6037007Y56772432D01*
X6098193Y56772432D01*
X6147693Y56736468D01*
X6153332Y56727784D01*
X6192880Y56659284D01*
X6304684Y56547480D01*
X6441616Y56468423D01*
X6594343Y56427500D01*
X6594345Y56427500D01*
X6752455Y56427500D01*
X6752457Y56427500D01*
X6905184Y56468423D01*
X7042116Y56547480D01*
X7153920Y56659284D01*
X7232977Y56796216D01*
X7273900Y56948943D01*
X7273900Y57107057D01*
X7270953Y57118057D01*
X7710300Y57118057D01*
X7710300Y56959943D01*
X7751223Y56807216D01*
X7830280Y56670284D01*
X7942084Y56558480D01*
X8079016Y56479423D01*
X8231743Y56438500D01*
X8231745Y56438500D01*
X8389855Y56438500D01*
X8389857Y56438500D01*
X8542584Y56479423D01*
X8679516Y56558480D01*
X8791320Y56670284D01*
X8870377Y56807216D01*
X8911300Y56959943D01*
X8911300Y57118057D01*
X8870377Y57270784D01*
X8791320Y57407716D01*
X8679516Y57519520D01*
X8542584Y57598577D01*
X8389857Y57639500D01*
X8231743Y57639500D01*
X8079016Y57598577D01*
X7942084Y57519520D01*
X7830280Y57407716D01*
X7751223Y57270784D01*
X7710300Y57118057D01*
X7270953Y57118057D01*
X7232977Y57259784D01*
X7221404Y57279828D01*
X7208683Y57339675D01*
X7211515Y57354952D01*
X7223452Y57399500D01*
X7225501Y57407147D01*
X7225501Y57407157D01*
X7226175Y57412273D01*
X7238594Y57448860D01*
X7253318Y57474361D01*
X7256644Y57486777D01*
X7266532Y57510648D01*
X7287337Y57546682D01*
X7303318Y57574361D01*
X7306644Y57586777D01*
X7316532Y57610648D01*
X7339173Y57649862D01*
X7353318Y57674361D01*
X7356644Y57686777D01*
X7366532Y57710648D01*
X7389173Y57749862D01*
X7403318Y57774361D01*
X7425501Y57857147D01*
X7425501Y57857156D01*
X7426175Y57862273D01*
X7438624Y57898912D01*
X7439173Y57899862D01*
X7453318Y57924361D01*
X7456644Y57936777D01*
X7466532Y57960648D01*
X7489173Y57999862D01*
X7503318Y58024361D01*
X7506644Y58036777D01*
X7516532Y58060648D01*
X7539173Y58099862D01*
X7553318Y58124361D01*
X7556644Y58136777D01*
X7566532Y58160648D01*
X7589173Y58199862D01*
X7603318Y58224361D01*
X7606644Y58236777D01*
X7616532Y58260648D01*
X7639173Y58299862D01*
X7653318Y58324361D01*
X7675501Y58407147D01*
X7675501Y58407156D01*
X7676175Y58412273D01*
X7688624Y58448912D01*
X7689173Y58449862D01*
X7703318Y58474361D01*
X7706644Y58486777D01*
X7716532Y58510648D01*
X7739173Y58549862D01*
X7753318Y58574361D01*
X7756644Y58586777D01*
X7766532Y58610648D01*
X7789173Y58649862D01*
X7803318Y58674361D01*
X7825501Y58757147D01*
X7825501Y58842853D01*
X7825501Y58848915D01*
X7825500Y58848933D01*
X7825500Y65205641D01*
X7844407Y65263832D01*
X7893907Y65299796D01*
X7950119Y65301268D01*
X8076143Y65267500D01*
X8076145Y65267500D01*
X8234255Y65267500D01*
X8234257Y65267500D01*
X8386984Y65308423D01*
X8523916Y65387480D01*
X8635720Y65499284D01*
X8714777Y65636216D01*
X8755700Y65788943D01*
X8755700Y65947057D01*
X8714777Y66099784D01*
X8635720Y66236716D01*
X8541437Y66330999D01*
X8513662Y66385513D01*
X8523233Y66445945D01*
X8566498Y66489210D01*
X8611443Y66500000D01*
X10273110Y66500000D01*
X10331301Y66481093D01*
X10343114Y66471004D01*
X15295504Y61518614D01*
X15323281Y61464097D01*
X15324500Y61448610D01*
X15324500Y60733262D01*
X15305593Y60675071D01*
X15256093Y60639107D01*
X15194907Y60639107D01*
X15145407Y60675071D01*
X15143198Y60678240D01*
X15123358Y60707933D01*
X15036233Y60795058D01*
X14933786Y60863511D01*
X14933787Y60863511D01*
X14933785Y60863512D01*
X14819950Y60910664D01*
X14699108Y60934700D01*
X14699106Y60934700D01*
X14575894Y60934700D01*
X14575891Y60934700D01*
X14455049Y60910664D01*
X14341214Y60863512D01*
X14238767Y60795058D01*
X14238763Y60795055D01*
X14151645Y60707937D01*
X14151642Y60707933D01*
X14083188Y60605486D01*
X14036036Y60491651D01*
X14012000Y60370809D01*
X14012000Y54312049D01*
X13993093Y54253858D01*
X13983012Y54242054D01*
X13309799Y53568681D01*
X13309797Y53568679D01*
X13309795Y53568676D01*
X13241354Y53466221D01*
X13241351Y53466217D01*
X13194215Y53352382D01*
X13194213Y53352373D01*
X13170192Y53231533D01*
X13170191Y53231526D01*
X13170207Y53108320D01*
X13170208Y53108310D01*
X13194257Y52987483D01*
X13194257Y52987482D01*
X13194258Y52987478D01*
X13194259Y52987477D01*
X13229295Y52902920D01*
X13241423Y52873652D01*
X13241424Y52873649D01*
X13309890Y52771208D01*
X13396919Y52684200D01*
X13397024Y52684095D01*
X13499480Y52615653D01*
X13613320Y52568515D01*
X13734168Y52544492D01*
X13734173Y52544493D01*
X13734174Y52544492D01*
X13734263Y52544493D01*
X13857381Y52544507D01*
X13978223Y52568559D01*
X14092051Y52615724D01*
X14194491Y52684190D01*
X15078760Y53568670D01*
X15078768Y53568674D01*
X15078767Y53568675D01*
X15122917Y53612826D01*
X15123363Y53613263D01*
X15123373Y53613276D01*
X15123503Y53613472D01*
X15128238Y53620561D01*
X15143178Y53642926D01*
X15191222Y53680811D01*
X15252359Y53683222D01*
X15303238Y53649236D01*
X15324423Y53591835D01*
X15324500Y53587935D01*
X15324500Y50600348D01*
X15311236Y50550848D01*
X15296683Y50525642D01*
X15296683Y50525641D01*
X15296682Y50525639D01*
X15296682Y50525638D01*
X15293356Y50513225D01*
X15283466Y50489352D01*
X15246683Y50425643D01*
X15246682Y50425641D01*
X15239774Y50399860D01*
X15239774Y50399858D01*
X15234039Y50378458D01*
X15200713Y50327145D01*
X15173672Y50313359D01*
X15174210Y50312060D01*
X15168218Y50309579D01*
X15064697Y50249811D01*
X15031284Y50230520D01*
X14919480Y50118716D01*
X14840423Y49981784D01*
X14799500Y49829057D01*
X14799500Y49670943D01*
X14840423Y49518216D01*
X14919480Y49381284D01*
X15031284Y49269480D01*
X15168216Y49190423D01*
X15320943Y49149500D01*
X15320945Y49149500D01*
X15479055Y49149500D01*
X15479057Y49149500D01*
X15631784Y49190423D01*
X15768716Y49269480D01*
X15880520Y49381284D01*
X15959577Y49518216D01*
X16000500Y49670943D01*
X16000500Y49829057D01*
X15959577Y49981784D01*
X15889999Y50102297D01*
X15877278Y50162143D01*
X15889999Y50201295D01*
X15903318Y50224361D01*
X15906643Y50236773D01*
X15916531Y50260645D01*
X15931891Y50287250D01*
X15953318Y50324361D01*
X15975501Y50407147D01*
X15975501Y50492853D01*
X15975501Y50498915D01*
X15975500Y50498933D01*
X15975500Y53248757D01*
X15994407Y53306948D01*
X16043907Y53342912D01*
X16105093Y53342912D01*
X16144501Y53318763D01*
X16193784Y53269480D01*
X16330716Y53190423D01*
X16483443Y53149500D01*
X16483445Y53149500D01*
X16641555Y53149500D01*
X16641557Y53149500D01*
X16794284Y53190423D01*
X16931216Y53269480D01*
X17043020Y53381284D01*
X17122077Y53518216D01*
X17163000Y53670943D01*
X17163000Y53829057D01*
X17122077Y53981784D01*
X17043020Y54118716D01*
X16931216Y54230520D01*
X16794284Y54309577D01*
X16641557Y54350500D01*
X16483443Y54350500D01*
X16330716Y54309577D01*
X16193784Y54230520D01*
X16144501Y54181238D01*
X16089987Y54153462D01*
X16029555Y54163033D01*
X15986290Y54206298D01*
X15975500Y54251243D01*
X15975500Y54879057D01*
X17299500Y54879057D01*
X17299500Y54720943D01*
X17340423Y54568216D01*
X17419480Y54431284D01*
X17531284Y54319480D01*
X17668216Y54240423D01*
X17820943Y54199500D01*
X17820945Y54199500D01*
X17979055Y54199500D01*
X17979057Y54199500D01*
X18131784Y54240423D01*
X18268716Y54319480D01*
X18380520Y54431284D01*
X18459577Y54568216D01*
X18500500Y54720943D01*
X18500500Y54879057D01*
X18459577Y55031784D01*
X18380520Y55168716D01*
X18268716Y55280520D01*
X18131784Y55359577D01*
X17979057Y55400500D01*
X17820943Y55400500D01*
X17668216Y55359577D01*
X17531284Y55280520D01*
X17419480Y55168716D01*
X17340423Y55031784D01*
X17299500Y54879057D01*
X15975500Y54879057D01*
X15975500Y55422952D01*
X15994407Y55481143D01*
X16043907Y55517107D01*
X16105093Y55517107D01*
X16129038Y55504507D01*
X16129165Y55504725D01*
X16134737Y55501508D01*
X16134775Y55501488D01*
X16134778Y55501486D01*
X16134784Y55501480D01*
X16271716Y55422423D01*
X16424443Y55381500D01*
X16424445Y55381500D01*
X16582555Y55381500D01*
X16582557Y55381500D01*
X16735284Y55422423D01*
X16872216Y55501480D01*
X16984020Y55613284D01*
X17063077Y55750216D01*
X17104000Y55902943D01*
X17104000Y56061057D01*
X17063077Y56213784D01*
X16984020Y56350716D01*
X16872216Y56462520D01*
X16735284Y56541577D01*
X16582557Y56582500D01*
X16424443Y56582500D01*
X16271716Y56541577D01*
X16145009Y56468423D01*
X16134781Y56462518D01*
X16134765Y56462505D01*
X16134750Y56462501D01*
X16129165Y56459275D01*
X16128567Y56460311D01*
X16077089Y56442083D01*
X16018423Y56459462D01*
X15981178Y56508005D01*
X15975500Y56541049D01*
X15975500Y61341149D01*
X15988764Y61390649D01*
X16033314Y61467812D01*
X16057200Y61556956D01*
X16057200Y61649243D01*
X16033314Y61738388D01*
X15987170Y61818312D01*
X11474486Y66330996D01*
X11446709Y66385513D01*
X11456280Y66445945D01*
X11499545Y66489210D01*
X11544490Y66500000D01*
X27611757Y66500000D01*
X27669948Y66481093D01*
X27705912Y66431593D01*
X27705912Y66370407D01*
X27681761Y66330996D01*
X27681286Y66330522D01*
X27681284Y66330520D01*
X27569480Y66218716D01*
X27490423Y66081784D01*
X27449500Y65929057D01*
X27449500Y65770943D01*
X27490423Y65618216D01*
X27569480Y65481284D01*
X27681284Y65369480D01*
X27818216Y65290423D01*
X27970943Y65249500D01*
X27970945Y65249500D01*
X28129055Y65249500D01*
X28129057Y65249500D01*
X28281784Y65290423D01*
X28418716Y65369480D01*
X28530520Y65481284D01*
X28609577Y65618216D01*
X28625879Y65679057D01*
X32549500Y65679057D01*
X32549500Y65520943D01*
X32590423Y65368216D01*
X32669480Y65231284D01*
X32781284Y65119480D01*
X32918216Y65040423D01*
X33070943Y64999500D01*
X33070945Y64999500D01*
X33229055Y64999500D01*
X33229057Y64999500D01*
X33381784Y65040423D01*
X33518716Y65119480D01*
X33630520Y65231284D01*
X33709577Y65368216D01*
X33750500Y65520943D01*
X33750500Y65679057D01*
X33709577Y65831784D01*
X33630520Y65968716D01*
X33518716Y66080520D01*
X33381784Y66159577D01*
X33229057Y66200500D01*
X33070943Y66200500D01*
X32918216Y66159577D01*
X32781284Y66080520D01*
X32669480Y65968716D01*
X32590423Y65831784D01*
X32549500Y65679057D01*
X28625879Y65679057D01*
X28650500Y65770943D01*
X28650500Y65929057D01*
X28609577Y66081784D01*
X28530520Y66218716D01*
X28418716Y66330520D01*
X28418713Y66330522D01*
X28418239Y66330996D01*
X28390462Y66385513D01*
X28400033Y66445945D01*
X28443298Y66489210D01*
X28488243Y66500000D01*
X38327714Y66500000D01*
X38385905Y66481093D01*
X38421869Y66431593D01*
X38421869Y66370407D01*
X38413454Y66351508D01*
X38383823Y66300184D01*
X38342900Y66147457D01*
X38342900Y65989343D01*
X38383823Y65836616D01*
X38462880Y65699684D01*
X38574684Y65587880D01*
X38711616Y65508823D01*
X38864343Y65467900D01*
X38864345Y65467900D01*
X39022455Y65467900D01*
X39022457Y65467900D01*
X39175184Y65508823D01*
X39312116Y65587880D01*
X39423920Y65699684D01*
X39502977Y65836616D01*
X39543900Y65989343D01*
X39543900Y66147457D01*
X39502977Y66300184D01*
X39473348Y66351503D01*
X39460628Y66411348D01*
X39485515Y66467244D01*
X39538503Y66497837D01*
X39559086Y66500000D01*
X40081475Y66500000D01*
X40139666Y66481093D01*
X40175630Y66431593D01*
X40175630Y66370407D01*
X40167212Y66351501D01*
X40142723Y66309086D01*
X40124976Y66242853D01*
X40101800Y66156357D01*
X40101800Y65998243D01*
X40142723Y65845516D01*
X40221780Y65708584D01*
X40333584Y65596780D01*
X40470516Y65517723D01*
X40623243Y65476800D01*
X40623245Y65476800D01*
X40781355Y65476800D01*
X40781357Y65476800D01*
X40934084Y65517723D01*
X41071016Y65596780D01*
X41182820Y65708584D01*
X41261877Y65845516D01*
X41302800Y65998243D01*
X41302800Y66156357D01*
X41261877Y66309084D01*
X41252319Y66325639D01*
X41237388Y66351501D01*
X41224667Y66411349D01*
X41249554Y66467245D01*
X41302543Y66497837D01*
X41323125Y66500000D01*
X50257229Y66500000D01*
X50306726Y66486738D01*
X50438216Y66410823D01*
X50590943Y66369900D01*
X50590945Y66369900D01*
X50670564Y66369900D01*
X50728755Y66350993D01*
X50764719Y66301493D01*
X50764719Y66240307D01*
X50740568Y66200896D01*
X48632470Y64092798D01*
X48577953Y64065021D01*
X48517521Y64074592D01*
X48474256Y64117857D01*
X48466839Y64137180D01*
X48463971Y64147883D01*
X48459577Y64164284D01*
X48380520Y64301216D01*
X48268716Y64413020D01*
X48131784Y64492077D01*
X47979057Y64533000D01*
X47820943Y64533000D01*
X47668216Y64492077D01*
X47531284Y64413020D01*
X47419480Y64301216D01*
X47340423Y64164284D01*
X47299500Y64011557D01*
X47299500Y63853443D01*
X47327184Y63750122D01*
X47323982Y63689022D01*
X47285477Y63641472D01*
X47231558Y63625500D01*
X46900656Y63625500D01*
X46842465Y63644407D01*
X46806501Y63693907D01*
X46805029Y63750123D01*
X46811725Y63775114D01*
X46829900Y63842943D01*
X46829900Y64001057D01*
X46788977Y64153784D01*
X46709920Y64290716D01*
X46598116Y64402520D01*
X46461184Y64481577D01*
X46308457Y64522500D01*
X46150343Y64522500D01*
X46036803Y64492077D01*
X45997616Y64481577D01*
X45860684Y64402520D01*
X45748880Y64290716D01*
X45669821Y64153782D01*
X45669821Y64153781D01*
X45659535Y64115392D01*
X45626211Y64064078D01*
X45569089Y64042152D01*
X45509989Y64057988D01*
X45471484Y64105539D01*
X45468283Y64115392D01*
X45459577Y64147884D01*
X45380520Y64284816D01*
X45268716Y64396620D01*
X45131784Y64475677D01*
X44979057Y64516600D01*
X44820943Y64516600D01*
X44668216Y64475677D01*
X44531284Y64396620D01*
X44419480Y64284816D01*
X44340423Y64147884D01*
X44299500Y63995157D01*
X44299500Y63837043D01*
X44340423Y63684316D01*
X44419480Y63547384D01*
X44433266Y63533598D01*
X44461042Y63479083D01*
X44451471Y63418651D01*
X44433265Y63393592D01*
X43336869Y62297196D01*
X43292489Y62271574D01*
X43224361Y62253319D01*
X43200834Y62239735D01*
X43187250Y62231892D01*
X43176968Y62225956D01*
X43160646Y62216533D01*
X43136783Y62206648D01*
X43124364Y62203320D01*
X43124357Y62203317D01*
X43098605Y62188449D01*
X43087250Y62181892D01*
X43076968Y62175956D01*
X43060646Y62166533D01*
X43036783Y62156648D01*
X43024364Y62153320D01*
X43024357Y62153316D01*
X42999153Y62138764D01*
X42949652Y62125500D01*
X42242853Y62125500D01*
X42157147Y62125500D01*
X42106478Y62111924D01*
X42074356Y62103317D01*
X42000142Y62060469D01*
X42000137Y62060465D01*
X41794168Y61854496D01*
X41739652Y61826719D01*
X41724165Y61825500D01*
X41564744Y61825500D01*
X41506553Y61844407D01*
X41494742Y61854495D01*
X41468718Y61880518D01*
X41468716Y61880520D01*
X41331784Y61959577D01*
X41179057Y62000500D01*
X41020943Y62000500D01*
X40868216Y61959577D01*
X40731284Y61880520D01*
X40652901Y61802138D01*
X40598387Y61774362D01*
X40537955Y61783933D01*
X40494690Y61827198D01*
X40483900Y61872143D01*
X40483900Y62562479D01*
X40502807Y62620670D01*
X40512896Y62632483D01*
X41452517Y63572104D01*
X41507034Y63599881D01*
X41522521Y63601100D01*
X41546255Y63601100D01*
X41546257Y63601100D01*
X41698984Y63642023D01*
X41835916Y63721080D01*
X41947720Y63832884D01*
X42026777Y63969816D01*
X42067700Y64122543D01*
X42067700Y64280657D01*
X42026777Y64433384D01*
X41947720Y64570316D01*
X41835916Y64682120D01*
X41698984Y64761177D01*
X41546257Y64802100D01*
X41388143Y64802100D01*
X41235416Y64761177D01*
X41098484Y64682120D01*
X40986676Y64570312D01*
X40927052Y64467039D01*
X40911320Y64446535D01*
X40297670Y63832885D01*
X39676086Y63211301D01*
X39676086Y63211300D01*
X39676085Y63211301D01*
X39582900Y63118115D01*
X39582896Y63118110D01*
X39517009Y63003991D01*
X39482900Y62876691D01*
X39482900Y58614936D01*
X39463993Y58556745D01*
X39414493Y58520781D01*
X39353307Y58520781D01*
X39334401Y58529199D01*
X39281785Y58559577D01*
X39226609Y58574361D01*
X39129057Y58600500D01*
X38970943Y58600500D01*
X38818216Y58559577D01*
X38681284Y58480520D01*
X38569480Y58368716D01*
X38490423Y58231784D01*
X38449500Y58079057D01*
X38449500Y57920943D01*
X38490423Y57768216D01*
X38569480Y57631284D01*
X38681284Y57519480D01*
X38818216Y57440423D01*
X38970943Y57399500D01*
X38970945Y57399500D01*
X39129055Y57399500D01*
X39129057Y57399500D01*
X39281784Y57440423D01*
X39334401Y57470802D01*
X39394248Y57483523D01*
X39450144Y57458637D01*
X39480736Y57405649D01*
X39482900Y57385065D01*
X39482900Y46479541D01*
X39463993Y46421350D01*
X39454655Y46410297D01*
X37581903Y44496679D01*
X37536772Y44470297D01*
X37455719Y44448579D01*
X37455718Y44448579D01*
X37372443Y44400500D01*
X37318784Y44369520D01*
X37206980Y44257716D01*
X37127923Y44120784D01*
X37087000Y43968057D01*
X37087000Y43809943D01*
X37127923Y43657216D01*
X37206980Y43520284D01*
X37318784Y43408480D01*
X37455716Y43329423D01*
X37608443Y43288500D01*
X37608445Y43288500D01*
X37766555Y43288500D01*
X37766557Y43288500D01*
X37919284Y43329423D01*
X38056216Y43408480D01*
X38168020Y43520284D01*
X38191560Y43561057D01*
X40183100Y43561057D01*
X40183100Y43402943D01*
X40224023Y43250216D01*
X40303080Y43113284D01*
X40414884Y43001480D01*
X40551816Y42922423D01*
X40704543Y42881500D01*
X40704545Y42881500D01*
X40862655Y42881500D01*
X40862657Y42881500D01*
X41015384Y42922423D01*
X41152316Y43001480D01*
X41264120Y43113284D01*
X41343177Y43250216D01*
X41384100Y43402943D01*
X41384100Y43459057D01*
X42012700Y43459057D01*
X42012700Y43300943D01*
X42053623Y43148216D01*
X42132680Y43011284D01*
X42244484Y42899480D01*
X42381416Y42820423D01*
X42534143Y42779500D01*
X42534145Y42779500D01*
X42692255Y42779500D01*
X42692257Y42779500D01*
X42844984Y42820423D01*
X42981916Y42899480D01*
X43093720Y43011284D01*
X43172777Y43148216D01*
X43213700Y43300943D01*
X43213700Y43459057D01*
X43208341Y43479057D01*
X50449500Y43479057D01*
X50449500Y43320943D01*
X50490423Y43168216D01*
X50569480Y43031284D01*
X50681284Y42919480D01*
X50818216Y42840423D01*
X50970943Y42799500D01*
X50970945Y42799500D01*
X51129055Y42799500D01*
X51129057Y42799500D01*
X51281784Y42840423D01*
X51418716Y42919480D01*
X51530520Y43031284D01*
X51609577Y43168216D01*
X51650500Y43320943D01*
X51650500Y43320946D01*
X51650975Y43324552D01*
X51652096Y43326904D01*
X51652179Y43327211D01*
X51652235Y43327196D01*
X51677316Y43379777D01*
X51731087Y43408971D01*
X51791749Y43400985D01*
X51819128Y43381636D01*
X51881284Y43319480D01*
X52018216Y43240423D01*
X52170943Y43199500D01*
X52170945Y43199500D01*
X52329055Y43199500D01*
X52329057Y43199500D01*
X52481784Y43240423D01*
X52618716Y43319480D01*
X52730520Y43431284D01*
X52809577Y43568216D01*
X52850500Y43720943D01*
X52850500Y43879057D01*
X52809577Y44031784D01*
X52730520Y44168716D01*
X52618716Y44280520D01*
X52481784Y44359577D01*
X52329057Y44400500D01*
X52170943Y44400500D01*
X52018216Y44359577D01*
X51881284Y44280520D01*
X51769480Y44168716D01*
X51690423Y44031784D01*
X51677234Y43982560D01*
X51649499Y43879053D01*
X51649023Y43875438D01*
X51647900Y43873085D01*
X51647821Y43872789D01*
X51647766Y43872804D01*
X51622675Y43820216D01*
X51568901Y43791028D01*
X51508240Y43799021D01*
X51480870Y43818366D01*
X51418716Y43880520D01*
X51281784Y43959577D01*
X51129057Y44000500D01*
X50970943Y44000500D01*
X50818216Y43959577D01*
X50681284Y43880520D01*
X50569480Y43768716D01*
X50490423Y43631784D01*
X50449500Y43479057D01*
X43208341Y43479057D01*
X43172777Y43611784D01*
X43093720Y43748716D01*
X42981916Y43860520D01*
X42844984Y43939577D01*
X42692257Y43980500D01*
X42534143Y43980500D01*
X42381416Y43939577D01*
X42244484Y43860520D01*
X42132680Y43748716D01*
X42053623Y43611784D01*
X42012700Y43459057D01*
X41384100Y43459057D01*
X41384100Y43561057D01*
X41343177Y43713784D01*
X41264120Y43850716D01*
X41152316Y43962520D01*
X41015384Y44041577D01*
X40862657Y44082500D01*
X40704543Y44082500D01*
X40551816Y44041577D01*
X40414884Y43962520D01*
X40303080Y43850716D01*
X40224023Y43713784D01*
X40183100Y43561057D01*
X38191560Y43561057D01*
X38247077Y43657216D01*
X38273984Y43757639D01*
X38275524Y43761830D01*
X38283375Y43771818D01*
X38297695Y43796934D01*
X40338936Y45882718D01*
X40339504Y45883292D01*
X40383900Y45927686D01*
X40383901Y45927689D01*
X40384041Y45927828D01*
X40385199Y45929371D01*
X40385873Y45930260D01*
X40387095Y45931852D01*
X40401339Y45957151D01*
X40418036Y45986808D01*
X40418328Y45987320D01*
X40449792Y46041814D01*
X40449793Y46041819D01*
X40449894Y46041993D01*
X40450622Y46043804D01*
X40451032Y46044810D01*
X40451800Y46046664D01*
X40452985Y46051285D01*
X40467441Y46107668D01*
X40467654Y46108482D01*
X40483900Y46169108D01*
X40483900Y46169110D01*
X40483952Y46169304D01*
X40484184Y46171224D01*
X40484321Y46172310D01*
X40484584Y46174307D01*
X40483906Y46237159D01*
X40483900Y46238227D01*
X40483900Y46499057D01*
X48799500Y46499057D01*
X48799500Y46340943D01*
X48840423Y46188216D01*
X48919480Y46051284D01*
X49031284Y45939480D01*
X49168216Y45860423D01*
X49320943Y45819500D01*
X49320945Y45819500D01*
X49479055Y45819500D01*
X49479057Y45819500D01*
X49631784Y45860423D01*
X49768716Y45939480D01*
X49880520Y46051284D01*
X49959577Y46188216D01*
X50000500Y46340943D01*
X50000500Y46499057D01*
X49995141Y46519057D01*
X50369500Y46519057D01*
X50369500Y46360943D01*
X50410423Y46208216D01*
X50489480Y46071284D01*
X50601284Y45959480D01*
X50738216Y45880423D01*
X50890943Y45839500D01*
X50890945Y45839500D01*
X51049055Y45839500D01*
X51049057Y45839500D01*
X51201784Y45880423D01*
X51338716Y45959480D01*
X51450520Y46071284D01*
X51529577Y46208216D01*
X51570500Y46360943D01*
X51570500Y46519057D01*
X51529577Y46671784D01*
X51450520Y46808716D01*
X51338716Y46920520D01*
X51201784Y46999577D01*
X51049057Y47040500D01*
X50890943Y47040500D01*
X50738216Y46999577D01*
X50601284Y46920520D01*
X50489480Y46808716D01*
X50410423Y46671784D01*
X50369500Y46519057D01*
X49995141Y46519057D01*
X49959577Y46651784D01*
X49880520Y46788716D01*
X49768716Y46900520D01*
X49631784Y46979577D01*
X49479057Y47020500D01*
X49320943Y47020500D01*
X49168216Y46979577D01*
X49031284Y46900520D01*
X48919480Y46788716D01*
X48840423Y46651784D01*
X48799500Y46499057D01*
X40483900Y46499057D01*
X40483900Y57919541D01*
X40502807Y57977732D01*
X40552307Y58013696D01*
X40608520Y58015168D01*
X40719243Y57985500D01*
X40719245Y57985500D01*
X40877355Y57985500D01*
X40877357Y57985500D01*
X41030084Y58026423D01*
X41167016Y58105480D01*
X41278820Y58217284D01*
X41357877Y58354216D01*
X41398800Y58506943D01*
X41398800Y58665057D01*
X41357877Y58817784D01*
X41278820Y58954716D01*
X41167016Y59066520D01*
X41030084Y59145577D01*
X40877357Y59186500D01*
X40719243Y59186500D01*
X40682848Y59176749D01*
X40608522Y59156833D01*
X40547421Y59160036D01*
X40499871Y59198541D01*
X40483900Y59252460D01*
X40483900Y60927857D01*
X40502807Y60986048D01*
X40552307Y61022012D01*
X40613493Y61022012D01*
X40652901Y60997863D01*
X40731284Y60919480D01*
X40868216Y60840423D01*
X41020943Y60799500D01*
X41020945Y60799500D01*
X41179055Y60799500D01*
X41179057Y60799500D01*
X41331784Y60840423D01*
X41468716Y60919480D01*
X41580520Y61031284D01*
X41634626Y61125001D01*
X41680096Y61165941D01*
X41720363Y61174500D01*
X41942851Y61174500D01*
X41942853Y61174500D01*
X42025639Y61196682D01*
X42025641Y61196684D01*
X42025643Y61196684D01*
X42099857Y61239532D01*
X42099857Y61239533D01*
X42099862Y61239535D01*
X42241084Y61380757D01*
X48799500Y61380757D01*
X48799500Y61222643D01*
X48840423Y61069916D01*
X48919480Y60932984D01*
X49031284Y60821180D01*
X49168216Y60742123D01*
X49320943Y60701200D01*
X49320945Y60701200D01*
X49479055Y60701200D01*
X49479057Y60701200D01*
X49631784Y60742123D01*
X49768716Y60821180D01*
X49880520Y60932984D01*
X49959577Y61069916D01*
X50000500Y61222643D01*
X50000500Y61374357D01*
X50299500Y61374357D01*
X50299500Y61216243D01*
X50340423Y61063516D01*
X50419480Y60926584D01*
X50531284Y60814780D01*
X50668216Y60735723D01*
X50820943Y60694800D01*
X50820945Y60694800D01*
X50979055Y60694800D01*
X50979057Y60694800D01*
X51131784Y60735723D01*
X51268716Y60814780D01*
X51380520Y60926584D01*
X51459577Y61063516D01*
X51500500Y61216243D01*
X51500500Y61374357D01*
X51459577Y61527084D01*
X51380520Y61664016D01*
X51268716Y61775820D01*
X51131784Y61854877D01*
X50979057Y61895800D01*
X50820943Y61895800D01*
X50668216Y61854877D01*
X50531284Y61775820D01*
X50419480Y61664016D01*
X50340423Y61527084D01*
X50299500Y61374357D01*
X50000500Y61374357D01*
X50000500Y61380757D01*
X49959577Y61533484D01*
X49880520Y61670416D01*
X49768716Y61782220D01*
X49631784Y61861277D01*
X49479057Y61902200D01*
X49320943Y61902200D01*
X49168216Y61861277D01*
X49031284Y61782220D01*
X48919480Y61670416D01*
X48840423Y61533484D01*
X48799500Y61380757D01*
X42241084Y61380757D01*
X42250976Y61390649D01*
X42305832Y61445504D01*
X42360348Y61473281D01*
X42375835Y61474500D01*
X43142851Y61474500D01*
X43142853Y61474500D01*
X43225639Y61496682D01*
X43294228Y61536283D01*
X43299380Y61538522D01*
X43302212Y61538795D01*
X43313231Y61543358D01*
X43325639Y61546682D01*
X43389357Y61583470D01*
X43413231Y61593358D01*
X43425639Y61596682D01*
X43451145Y61611409D01*
X43487725Y61623826D01*
X43492841Y61624500D01*
X43492853Y61624500D01*
X43575639Y61646682D01*
X43575641Y61646684D01*
X43575643Y61646684D01*
X43649857Y61689532D01*
X43649858Y61689533D01*
X43649862Y61689535D01*
X43649863Y61689536D01*
X43698716Y61738388D01*
X43724388Y61764061D01*
X43724391Y61764066D01*
X43734687Y61774362D01*
X43760465Y61800139D01*
X43761617Y61802136D01*
X43763244Y61803763D01*
X43764415Y61805288D01*
X43764615Y61805134D01*
X43794867Y61835385D01*
X43794713Y61835585D01*
X43796238Y61836756D01*
X43797865Y61838383D01*
X43799862Y61839535D01*
X44805831Y62845504D01*
X44860348Y62873281D01*
X44875835Y62874500D01*
X46442851Y62874500D01*
X46442853Y62874500D01*
X46525639Y62896682D01*
X46525641Y62896684D01*
X46525643Y62896684D01*
X46599857Y62939532D01*
X46599857Y62939533D01*
X46599862Y62939535D01*
X46605832Y62945506D01*
X46660347Y62973281D01*
X46675834Y62974500D01*
X48342851Y62974500D01*
X48342853Y62974500D01*
X48425639Y62996682D01*
X48425641Y62996684D01*
X48425643Y62996684D01*
X48499857Y63039532D01*
X48499857Y63039533D01*
X48499862Y63039535D01*
X49491484Y64031157D01*
X50099500Y64031157D01*
X50099500Y63873043D01*
X50140423Y63720316D01*
X50219480Y63583384D01*
X50331284Y63471580D01*
X50468216Y63392523D01*
X50620943Y63351600D01*
X50620945Y63351600D01*
X50779055Y63351600D01*
X50779057Y63351600D01*
X50931784Y63392523D01*
X51068716Y63471580D01*
X51180520Y63583384D01*
X51259577Y63720316D01*
X51300500Y63873043D01*
X51300500Y64031157D01*
X51259577Y64183884D01*
X51180520Y64320816D01*
X51068716Y64432620D01*
X50931784Y64511677D01*
X50779057Y64552600D01*
X50620943Y64552600D01*
X50468216Y64511677D01*
X50331284Y64432620D01*
X50219480Y64320816D01*
X50140423Y64183884D01*
X50099500Y64031157D01*
X49491484Y64031157D01*
X51931331Y66471004D01*
X51985848Y66498781D01*
X52001335Y66500000D01*
X53249999Y66500000D01*
X53250000Y66500000D01*
X53250000Y67200450D01*
X53268907Y67258641D01*
X53318407Y67294605D01*
X53323365Y67296073D01*
X53325639Y67296682D01*
X53399862Y67339535D01*
X55599859Y69539534D01*
X55599862Y69539535D01*
X55660465Y69600138D01*
X55682671Y69638600D01*
X55703318Y69674361D01*
X55725500Y69757147D01*
X55725500Y69842853D01*
X55725500Y69924165D01*
X55744407Y69982356D01*
X55754496Y69994169D01*
X56586931Y70826604D01*
X56641448Y70854381D01*
X56656935Y70855600D01*
X56734055Y70855600D01*
X56734057Y70855600D01*
X56886784Y70896523D01*
X57023716Y70975580D01*
X57135520Y71087384D01*
X57214577Y71224316D01*
X57255500Y71377043D01*
X57255500Y71535157D01*
X57214577Y71687884D01*
X57135520Y71824816D01*
X57023716Y71936620D01*
X56886784Y72015677D01*
X56734057Y72056600D01*
X56575943Y72056600D01*
X56423216Y72015677D01*
X56286284Y71936620D01*
X56174480Y71824816D01*
X56095423Y71687884D01*
X56054500Y71535156D01*
X56054500Y71377044D01*
X56073986Y71304318D01*
X56070783Y71243217D01*
X56048363Y71208692D01*
X55291007Y70451336D01*
X55236490Y70423559D01*
X55176058Y70433130D01*
X55151002Y70451334D01*
X55082716Y70519620D01*
X54945784Y70598677D01*
X54793057Y70639600D01*
X54634943Y70639600D01*
X54482216Y70598677D01*
X54345284Y70519620D01*
X54233480Y70407816D01*
X54154423Y70270884D01*
X54113500Y70118157D01*
X54113500Y69960043D01*
X54154423Y69807316D01*
X54233480Y69670384D01*
X54345284Y69558580D01*
X54457325Y69493894D01*
X54498264Y69448426D01*
X54504660Y69387576D01*
X54477827Y69338155D01*
X53419004Y68279331D01*
X53364487Y68251554D01*
X53304055Y68261125D01*
X53260790Y68304390D01*
X53250000Y68349335D01*
X53250000Y109400500D01*
X53268907Y109458691D01*
X53318407Y109494655D01*
X53349000Y109499500D01*
X55934108Y109499500D01*
X55997564Y109499500D01*
X56002421Y109499381D01*
G37*
%TD.AperFunction*%
%TA.AperFunction,Conductor*%
G36*
X8195945Y95278521D02*
G01*
X8239210Y95235256D01*
X8250000Y95190311D01*
X8250000Y90924598D01*
X8242467Y90886719D01*
X8240424Y90881788D01*
X8240423Y90881784D01*
X8199500Y90729057D01*
X8199500Y90570943D01*
X8209529Y90533516D01*
X8240423Y90418215D01*
X8242463Y90413292D01*
X8250000Y90375404D01*
X8250000Y89039344D01*
X8249500Y89031713D01*
X8249500Y88868287D01*
X8250000Y88860657D01*
X8250000Y88311503D01*
X8236737Y88262004D01*
X8190423Y88181786D01*
X8168643Y88100500D01*
X8149500Y88029057D01*
X8149500Y87870943D01*
X8190423Y87718216D01*
X8213737Y87677834D01*
X8226458Y87617988D01*
X8201571Y87562092D01*
X8198004Y87558333D01*
X7789535Y87149863D01*
X7789531Y87149858D01*
X7746683Y87075643D01*
X7746682Y87075642D01*
X7742615Y87060462D01*
X7724500Y86992853D01*
X7724500Y86375835D01*
X7705593Y86317644D01*
X7695504Y86305832D01*
X7389535Y85999863D01*
X7389531Y85999858D01*
X7346683Y85925643D01*
X7346681Y85925639D01*
X7343356Y85913228D01*
X7333466Y85889352D01*
X7296683Y85825644D01*
X7296682Y85825639D01*
X7280859Y85766587D01*
X7280859Y85766586D01*
X7280858Y85766587D01*
X7274500Y85742857D01*
X7274500Y68222933D01*
X7255593Y68164742D01*
X7206093Y68128778D01*
X7144907Y68128778D01*
X7126001Y68137196D01*
X7075285Y68166477D01*
X7024375Y68180118D01*
X6922557Y68207400D01*
X6764443Y68207400D01*
X6611716Y68166477D01*
X6474784Y68087420D01*
X6362980Y67975616D01*
X6283923Y67838684D01*
X6243000Y67685957D01*
X6243000Y67527843D01*
X6283923Y67375116D01*
X6362980Y67238184D01*
X6474784Y67126380D01*
X6611716Y67047323D01*
X6764443Y67006400D01*
X6764445Y67006400D01*
X6922555Y67006400D01*
X6922557Y67006400D01*
X7075284Y67047323D01*
X7126001Y67076605D01*
X7185848Y67089326D01*
X7241744Y67064440D01*
X7272337Y67011452D01*
X7274500Y66990868D01*
X7274500Y66400348D01*
X7261236Y66350847D01*
X7246682Y66325640D01*
X7239774Y66299864D01*
X7239775Y66299863D01*
X7224498Y66242849D01*
X7223823Y66237717D01*
X7211408Y66201145D01*
X7196681Y66175639D01*
X7191726Y66157149D01*
X7191727Y66157148D01*
X7174500Y66092853D01*
X7174500Y58950348D01*
X7161236Y58900847D01*
X7146681Y58875639D01*
X7143356Y58863228D01*
X7133467Y58839352D01*
X7096682Y58775640D01*
X7096682Y58775639D01*
X7096682Y58775638D01*
X7093356Y58763225D01*
X7083467Y58739352D01*
X7046681Y58675638D01*
X7024498Y58592848D01*
X7023823Y58587717D01*
X7011408Y58551145D01*
X6996681Y58525638D01*
X6993356Y58513228D01*
X6983466Y58489352D01*
X6946683Y58425643D01*
X6946681Y58425639D01*
X6943356Y58413228D01*
X6933466Y58389352D01*
X6896683Y58325643D01*
X6896681Y58325639D01*
X6893356Y58313228D01*
X6883466Y58289352D01*
X6846683Y58225643D01*
X6846682Y58225641D01*
X6843354Y58213222D01*
X6833466Y58189351D01*
X6796682Y58125641D01*
X6789775Y58099862D01*
X6777304Y58053318D01*
X6777304Y58053317D01*
X6777303Y58053318D01*
X6774499Y58042851D01*
X6773823Y58037717D01*
X6761408Y58001145D01*
X6746681Y57975638D01*
X6743356Y57963228D01*
X6733466Y57939352D01*
X6696683Y57875643D01*
X6696681Y57875639D01*
X6693356Y57863228D01*
X6683466Y57839352D01*
X6646683Y57775643D01*
X6646682Y57775642D01*
X6644692Y57768217D01*
X6644693Y57768216D01*
X6643357Y57763230D01*
X6633467Y57739353D01*
X6596680Y57675637D01*
X6594200Y57669647D01*
X6591559Y57670741D01*
X6564706Y57629410D01*
X6528046Y57610737D01*
X6441619Y57587579D01*
X6441618Y57587579D01*
X6323737Y57519520D01*
X6304684Y57508520D01*
X6192880Y57396716D01*
X6153335Y57328224D01*
X6107867Y57287283D01*
X6047017Y57280887D01*
X5994029Y57311480D01*
X5969142Y57367376D01*
X5968600Y57377724D01*
X5968600Y93106911D01*
X5987507Y93165102D01*
X5997590Y93176909D01*
X8080996Y95260316D01*
X8135513Y95288092D01*
X8195945Y95278521D01*
G37*
%TD.AperFunction*%
%TA.AperFunction,Conductor*%
G36*
X8209191Y109480593D02*
G01*
X8245155Y109431093D01*
X8250000Y109400500D01*
X8250000Y96650687D01*
X8231093Y96592496D01*
X8181593Y96556532D01*
X8176624Y96555061D01*
X8056519Y96522879D01*
X8056518Y96522879D01*
X7919584Y96443820D01*
X7807780Y96332016D01*
X7728723Y96195084D01*
X7687800Y96042356D01*
X7687800Y95899491D01*
X7668893Y95841300D01*
X7658803Y95829487D01*
X5337630Y93508312D01*
X5291872Y93429057D01*
X5291865Y93429046D01*
X5291486Y93428389D01*
X5267600Y93339243D01*
X5267600Y79465602D01*
X5248693Y79407411D01*
X5199193Y79371447D01*
X5142977Y79369976D01*
X5029057Y79400500D01*
X4870943Y79400500D01*
X4762516Y79371447D01*
X4718216Y79359577D01*
X4581284Y79280520D01*
X4469480Y79168716D01*
X4390423Y79031784D01*
X4349500Y78879056D01*
X4349500Y78720941D01*
X4368753Y78649084D01*
X4365550Y78587983D01*
X4343130Y78553460D01*
X3839535Y78049863D01*
X3839531Y78049858D01*
X3796682Y77975640D01*
X3796681Y77975640D01*
X3796682Y77975639D01*
X3774500Y77892853D01*
X3774500Y75925835D01*
X3755593Y75867644D01*
X3745504Y75855831D01*
X845615Y72955943D01*
X798863Y72932123D01*
X799411Y72930079D01*
X793145Y72928400D01*
X793143Y72928400D01*
X704555Y72904664D01*
X640411Y72887476D01*
X637383Y72886221D01*
X635043Y72886037D01*
X634148Y72885797D01*
X634103Y72885963D01*
X576386Y72881422D01*
X524218Y72913393D01*
X500805Y72969921D01*
X500500Y72977686D01*
X500500Y87579057D01*
X1249500Y87579057D01*
X1249500Y87420943D01*
X1290423Y87268216D01*
X1369480Y87131284D01*
X1481284Y87019480D01*
X1618216Y86940423D01*
X1770943Y86899500D01*
X1770945Y86899500D01*
X1929055Y86899500D01*
X1929057Y86899500D01*
X2081784Y86940423D01*
X2218716Y87019480D01*
X2330520Y87131284D01*
X2409577Y87268216D01*
X2450500Y87420943D01*
X2450500Y87579057D01*
X2409577Y87731784D01*
X2330520Y87868716D01*
X2218716Y87980520D01*
X2081784Y88059577D01*
X1929057Y88100500D01*
X1770943Y88100500D01*
X1618216Y88059577D01*
X1481284Y87980520D01*
X1369480Y87868716D01*
X1290423Y87731784D01*
X1249500Y87579057D01*
X500500Y87579057D01*
X500500Y90243857D01*
X2962000Y90243857D01*
X2962000Y90085743D01*
X3002923Y89933016D01*
X3081980Y89796084D01*
X3193784Y89684280D01*
X3330716Y89605223D01*
X3483443Y89564300D01*
X3483445Y89564300D01*
X3641555Y89564300D01*
X3641557Y89564300D01*
X3794284Y89605223D01*
X3931216Y89684280D01*
X4043020Y89796084D01*
X4122077Y89933016D01*
X4163000Y90085743D01*
X4163000Y90243857D01*
X4122077Y90396584D01*
X4043020Y90533516D01*
X3931216Y90645320D01*
X3794284Y90724377D01*
X3641557Y90765300D01*
X3483443Y90765300D01*
X3330716Y90724377D01*
X3193784Y90645320D01*
X3081980Y90533516D01*
X3002923Y90396584D01*
X2962000Y90243857D01*
X500500Y90243857D01*
X500500Y97894957D01*
X2962000Y97894957D01*
X2962000Y97736843D01*
X3002923Y97584116D01*
X3081980Y97447184D01*
X3193784Y97335380D01*
X3330716Y97256323D01*
X3483443Y97215400D01*
X3483445Y97215400D01*
X3641555Y97215400D01*
X3641557Y97215400D01*
X3794284Y97256323D01*
X3931216Y97335380D01*
X4043020Y97447184D01*
X4122077Y97584116D01*
X4163000Y97736843D01*
X4163000Y97894957D01*
X4122077Y98047684D01*
X4043020Y98184616D01*
X3931216Y98296420D01*
X3794284Y98375477D01*
X3641557Y98416400D01*
X3483443Y98416400D01*
X3330716Y98375477D01*
X3193784Y98296420D01*
X3081980Y98184616D01*
X3002923Y98047684D01*
X2962000Y97894957D01*
X500500Y97894957D01*
X500500Y105997565D01*
X500619Y106002422D01*
X510153Y106196496D01*
X517113Y106338176D01*
X518063Y106347814D01*
X567029Y106677920D01*
X568918Y106687418D01*
X650009Y107011151D01*
X652818Y107020410D01*
X765249Y107334633D01*
X768958Y107343588D01*
X911644Y107645272D01*
X916211Y107653815D01*
X1087780Y107940062D01*
X1093163Y107948117D01*
X1291957Y108216159D01*
X1298107Y108223654D01*
X1522228Y108470933D01*
X1529067Y108477772D01*
X1776346Y108701893D01*
X1783841Y108708043D01*
X2051883Y108906837D01*
X2059938Y108912220D01*
X2346185Y109083789D01*
X2354728Y109088356D01*
X2656412Y109231042D01*
X2665367Y109234751D01*
X2979590Y109347182D01*
X2988849Y109349991D01*
X3312582Y109431082D01*
X3322080Y109432971D01*
X3652186Y109481937D01*
X3661824Y109482887D01*
X3970606Y109498056D01*
X3997579Y109499381D01*
X4002436Y109499500D01*
X4065892Y109499500D01*
X8151000Y109499500D01*
X8209191Y109480593D01*
G37*
%TD.AperFunction*%
%TD*%
M02*
