M48
; DRILL file KiCad 10.0.6 date 2026-09-22T21:18:05
; FORMAT={-:-/ absolute / metric / decimal}
; #@! TF.CreationDate,2026-09-22T21:18:05+02:00
; #@! TF.GenerationSoftware,Kicad,Pcbnew,10.0.6
; #@! TF.FileFunction,Plated,1,4,PTH
FMAT,2
METRIC
; #@! TA.AperFunction,Plated,PTH,ViaDrill
T1C0.300
; #@! TA.AperFunction,Plated,PTH,ComponentDrill
T2C0.400
; #@! TA.AperFunction,Plated,PTH,ComponentDrill
T3C0.700
; #@! TA.AperFunction,Plated,PTH,ComponentDrill
T4C1.000
%
G90
G05
T1
X0.872Y72.328
X1.85Y87.5
X2.0Y107.0
X2.0Y103.0
X2.0Y67.0
X2.0Y63.0
X2.0Y55.0
X2.0Y47.0
X2.0Y39.0
X2.0Y31.0
X2.0Y27.0
X2.0Y23.0
X2.0Y19.0
X2.0Y11.0
X2.0Y3.0
X2.2Y77.45
X2.275Y95.05
X3.562Y97.816
X3.562Y90.165
X3.9Y60.1
X3.925Y16.35
X3.925Y15.08
X3.925Y13.81
X3.925Y7.46
X4.8Y87.0
X4.95Y78.8
X5.9Y49.45
X6.0Y107.0
X6.0Y103.0
X6.0Y39.0
X6.0Y31.0
X6.0Y27.0
X6.0Y23.0
X6.0Y19.0
X6.0Y3.0
X6.014Y54.155
X6.425Y96.775
X6.55Y66.75
X6.6Y73.3
X6.673Y57.028
X6.843Y67.607
X6.892Y10.625
X6.898Y9.381
X6.916Y11.871
X7.117Y8.061
X8.155Y65.868
X8.2Y51.31
X8.2Y44.91
X8.204Y50.397
X8.288Y95.963
X8.311Y57.039
X8.65Y48.1
X8.689Y75.149
X8.7Y78.85
X8.75Y87.95
X8.8Y91.6
X8.8Y90.65
X8.8Y86.35
X8.85Y88.95
X10.0Y63.0
X10.0Y31.0
X10.0Y27.0
X10.0Y23.0
X10.0Y19.0
X10.0Y15.0
X10.0Y11.0
X10.0Y7.0
X10.4Y55.0
X10.425Y43.5
X11.825Y51.25
X12.196Y58.5
X12.501Y43.07
X13.105Y56.731
X13.2Y49.7
X13.225Y45.575
X13.3Y62.75
X13.425Y58.5
X13.796Y53.17
X13.867Y42.246
X14.0Y31.0
X14.0Y27.0
X14.0Y23.0
X14.0Y3.0
X14.24Y46.602
X14.637Y60.309
X14.8Y6.575
X14.946Y17.321
X15.2Y88.95
X15.25Y87.25
X15.3Y91.6
X15.3Y90.65
X15.3Y86.35
X15.3Y45.45
X15.4Y49.75
X15.85Y89.8
X15.95Y85.65
X16.0Y88.0
X16.05Y84.75
X16.201Y9.381
X16.217Y8.061
X16.25Y42.734
X16.5Y60.275
X16.503Y55.982
X16.562Y53.75
X16.765Y11.871
X17.4Y98.75
X17.9Y54.8
X18.0Y31.0
X18.0Y27.0
X18.225Y46.875
X18.35Y51.75
X18.6Y98.15
X18.625Y19.05
X18.65Y92.2
X18.725Y49.55
X18.883Y86.2
X18.9Y21.5
X19.051Y88.725
X19.304Y11.552
X19.325Y16.533
X19.741Y55.7
X20.1Y98.8
X20.1Y96.92
X20.1Y95.98
X20.1Y94.1
X20.145Y19.461
X21.0Y92.1
X21.0Y63.75
X21.0Y47.048
X21.05Y43.45
X21.12Y76.0
X21.576Y74.801
X21.776Y79.721
X21.779Y45.184
X22.0Y31.0
X22.0Y27.0
X22.0Y15.0
X22.0Y11.0
X22.044Y83.844
X22.647Y90.9
X23.0Y88.25
X23.0Y87.31
X23.55Y49.35
X23.75Y83.1
X23.879Y75.226
X24.122Y80.424
X24.275Y46.55
X24.527Y90.9
X24.75Y50.654
X25.0Y86.35
X25.467Y90.9
X25.8Y87.15
X26.0Y19.0
X26.0Y15.0
X26.0Y11.0
X26.05Y102.2
X26.31Y78.685
X26.581Y48.079
X27.101Y42.744
X27.348Y90.9
X27.55Y50.5
X27.6Y87.5
X27.688Y86.013
X28.05Y65.85
X28.188Y100.7
X28.287Y90.9
X28.375Y46.45
X28.89Y87.312
X29.208Y47.786
X29.227Y90.9
X29.62Y79.579
X30.0Y55.0
X30.0Y23.0
X30.0Y19.0
X30.0Y15.0
X30.0Y11.0
X30.082Y87.069
X30.2Y48.001
X30.3Y93.35
X30.4Y92.4
X30.65Y79.5
X30.75Y50.7
X31.122Y88.862
X31.35Y63.55
X31.4Y99.74
X31.4Y98.8
X31.4Y97.86
X31.4Y96.92
X32.05Y90.8
X32.525Y48.1
X32.85Y79.5
X32.867Y56.256
X33.15Y65.6
X33.15Y46.6
X33.75Y50.682
X33.95Y86.594
X34.0Y27.0
X34.0Y23.0
X34.0Y19.0
X34.0Y15.0
X34.0Y11.0
X34.0Y7.05
X35.292Y91.408
X36.45Y49.3
X36.459Y41.307
X37.1Y45.65
X37.688Y43.889
X37.875Y43.0
X38.0Y31.0
X38.0Y27.0
X38.0Y23.0
X38.0Y19.0
X38.0Y15.0
X38.0Y11.0
X38.0Y7.0
X38.943Y66.068
X39.05Y58.0
X39.15Y79.5
X40.702Y66.077
X40.784Y43.482
X40.798Y58.586
X40.9Y62.56
X41.1Y61.4
X41.15Y42.15
X41.35Y79.5
X41.467Y64.202
X42.0Y51.0
X42.0Y31.0
X42.0Y27.0
X42.0Y23.0
X42.0Y19.0
X42.0Y15.0
X42.0Y11.0
X42.0Y7.0
X42.613Y43.38
X43.225Y67.525
X43.475Y43.025
X44.9Y63.916
X45.5Y40.675
X45.7Y52.9
X46.0Y59.0
X46.0Y47.0
X46.0Y31.0
X46.0Y27.0
X46.0Y23.0
X46.0Y19.0
X46.0Y15.0
X46.0Y11.0
X46.0Y7.0
X46.0Y3.0
X46.229Y63.922
X46.55Y40.7
X47.4Y64.8
X47.9Y63.932
X47.95Y40.7
X48.825Y40.275
X49.4Y61.302
X49.4Y46.42
X50.0Y31.0
X50.0Y27.0
X50.0Y23.0
X50.0Y19.0
X50.0Y15.0
X50.0Y11.0
X50.0Y7.0
X50.0Y3.0
X50.511Y40.766
X50.67Y66.97
X50.7Y63.952
X50.9Y61.295
X50.97Y46.44
X51.05Y43.4
X52.025Y40.275
X52.25Y43.8
X52.6Y65.5
X52.725Y69.275
X52.725Y40.825
X53.475Y73.548
X54.0Y107.0
X54.0Y103.0
X54.0Y99.0
X54.0Y95.0
X54.0Y91.0
X54.0Y87.0
X54.0Y59.0
X54.0Y55.0
X54.0Y51.0
X54.0Y47.0
X54.0Y31.0
X54.0Y27.0
X54.0Y23.0
X54.0Y19.0
X54.0Y15.0
X54.0Y11.0
X54.0Y7.0
X54.0Y3.0
X54.714Y70.039
X55.1Y82.7
X55.1Y77.7
X56.655Y71.456
X58.0Y107.0
X58.0Y103.0
X58.0Y99.0
X58.0Y95.0
X58.0Y91.0
X58.0Y87.0
X58.0Y83.0
X58.0Y39.0
X58.0Y31.0
X58.0Y27.0
X58.0Y23.0
X58.0Y19.0
X58.0Y15.0
X58.0Y11.0
X58.0Y7.0
X58.0Y3.0
T2
X45.25Y90.5
X51.35Y90.5
T4
X19.84Y2.5
X22.38Y2.5
X24.92Y41.0
X24.92Y30.0
X24.92Y2.5
X27.46Y41.0
X27.46Y30.0
X27.46Y2.5
X30.0Y41.0
X30.0Y30.0
X30.0Y2.5
X32.54Y41.0
X32.54Y30.0
X32.54Y2.5
X35.08Y41.0
X35.08Y30.0
X35.08Y2.5
X37.62Y2.5
X40.16Y2.5
T3
G00X2.67Y52.43
M15
G01X1.97Y52.43
M16
G05
G00X2.67Y43.79
M15
G01X1.97Y43.79
M16
G05
G00X7.0Y52.43
M15
G01X6.0Y52.43
M16
G05
G00X7.0Y43.79
M15
G01X6.0Y43.79
M16
G05
M30
