%TF.GenerationSoftware,KiCad,Pcbnew,10.0.6*%
%TF.CreationDate,2026-09-22T21:18:05+02:00*%
%TF.ProjectId,nucula-v2,6e756375-6c61-42d7-9632-2e6b69636164,rev?*%
%TF.SameCoordinates,Original*%
%TF.FileFunction,Paste,Top*%
%TF.FilePolarity,Positive*%
%FSLAX46Y46*%
G04 Gerber Fmt 4.6, Leading zero omitted, Abs format (unit mm)*
G04 Created by KiCad (PCBNEW 10.0.6) date 2026-09-22 21:18:05*
%MOMM*%
%LPD*%
G01*
G04 APERTURE LIST*
G04 Aperture macros list*
%AMRoundRect*
0 Rectangle with rounded corners*
0 $1 Rounding radius*
0 $2 $3 $4 $5 $6 $7 $8 $9 X,Y pos of 4 corners*
0 Add a 4 corners polygon primitive as box body*
4,1,4,$2,$3,$4,$5,$6,$7,$8,$9,$2,$3,0*
0 Add four circle primitives for the rounded corners*
1,1,$1+$1,$2,$3*
1,1,$1+$1,$4,$5*
1,1,$1+$1,$6,$7*
1,1,$1+$1,$8,$9*
0 Add four rect primitives between the rounded corners*
20,1,$1+$1,$2,$3,$4,$5,0*
20,1,$1+$1,$4,$5,$6,$7,0*
20,1,$1+$1,$6,$7,$8,$9,0*
20,1,$1+$1,$8,$9,$2,$3,0*%
%AMFreePoly0*
4,1,11,1.015000,1.170000,0.435000,0.575000,0.435000,-0.575000,1.015000,-1.170000,1.015000,-1.945000,0.125000,-1.945000,-0.435000,-1.395000,-0.435000,1.395000,0.125000,1.945000,1.015000,1.945000,1.015000,1.170000,1.015000,1.170000,$1*%
%AMFreePoly1*
4,1,11,0.435000,1.395000,0.435000,-1.395000,-0.125000,-1.945000,-1.015000,-1.945000,-1.015000,-1.170000,-0.435000,-0.575000,-0.435000,0.575000,-1.015000,1.170000,-1.015000,1.945000,-0.125000,1.945000,0.435000,1.395000,0.435000,1.395000,$1*%
G04 Aperture macros list end*
%ADD10RoundRect,0.200000X0.275000X-0.200000X0.275000X0.200000X-0.275000X0.200000X-0.275000X-0.200000X0*%
%ADD11RoundRect,0.250000X0.475000X-0.250000X0.475000X0.250000X-0.475000X0.250000X-0.475000X-0.250000X0*%
%ADD12RoundRect,0.225000X-0.225000X-0.250000X0.225000X-0.250000X0.225000X0.250000X-0.225000X0.250000X0*%
%ADD13RoundRect,0.150000X-0.512500X-0.150000X0.512500X-0.150000X0.512500X0.150000X-0.512500X0.150000X0*%
%ADD14RoundRect,0.225000X0.250000X-0.225000X0.250000X0.225000X-0.250000X0.225000X-0.250000X-0.225000X0*%
%ADD15RoundRect,0.250000X-1.000000X-0.650000X1.000000X-0.650000X1.000000X0.650000X-1.000000X0.650000X0*%
%ADD16RoundRect,0.250000X0.450000X-0.262500X0.450000X0.262500X-0.450000X0.262500X-0.450000X-0.262500X0*%
%ADD17RoundRect,0.225000X0.225000X0.250000X-0.225000X0.250000X-0.225000X-0.250000X0.225000X-0.250000X0*%
%ADD18RoundRect,0.250000X0.250000X0.475000X-0.250000X0.475000X-0.250000X-0.475000X0.250000X-0.475000X0*%
%ADD19R,1.020000X1.980000*%
%ADD20RoundRect,0.250000X-0.475000X0.337500X-0.475000X-0.337500X0.475000X-0.337500X0.475000X0.337500X0*%
%ADD21RoundRect,0.250000X2.500000X-0.250000X2.500000X0.250000X-2.500000X0.250000X-2.500000X-0.250000X0*%
%ADD22RoundRect,0.250000X1.250000X-0.550000X1.250000X0.550000X-1.250000X0.550000X-1.250000X-0.550000X0*%
%ADD23RoundRect,0.150000X0.512500X0.150000X-0.512500X0.150000X-0.512500X-0.150000X0.512500X-0.150000X0*%
%ADD24RoundRect,0.250000X-0.400000X-0.625000X0.400000X-0.625000X0.400000X0.625000X-0.400000X0.625000X0*%
%ADD25RoundRect,0.250000X0.325000X1.100000X-0.325000X1.100000X-0.325000X-1.100000X0.325000X-1.100000X0*%
%ADD26RoundRect,0.250000X0.650000X-0.325000X0.650000X0.325000X-0.650000X0.325000X-0.650000X-0.325000X0*%
%ADD27RoundRect,0.250000X-0.350000X-0.450000X0.350000X-0.450000X0.350000X0.450000X-0.350000X0.450000X0*%
%ADD28R,1.700000X0.900000*%
%ADD29RoundRect,0.150000X0.587500X0.150000X-0.587500X0.150000X-0.587500X-0.150000X0.587500X-0.150000X0*%
%ADD30RoundRect,0.200000X0.200000X0.275000X-0.200000X0.275000X-0.200000X-0.275000X0.200000X-0.275000X0*%
%ADD31RoundRect,0.200000X-0.200000X-0.275000X0.200000X-0.275000X0.200000X0.275000X-0.200000X0.275000X0*%
%ADD32RoundRect,0.250000X-0.250000X-0.475000X0.250000X-0.475000X0.250000X0.475000X-0.250000X0.475000X0*%
%ADD33FreePoly0,180.000000*%
%ADD34FreePoly1,180.000000*%
%ADD35RoundRect,0.150000X-0.587500X-0.150000X0.587500X-0.150000X0.587500X0.150000X-0.587500X0.150000X0*%
%ADD36RoundRect,0.150000X-0.375000X0.150000X-0.375000X-0.150000X0.375000X-0.150000X0.375000X0.150000X0*%
%ADD37RoundRect,0.150000X-0.425000X0.150000X-0.425000X-0.150000X0.425000X-0.150000X0.425000X0.150000X0*%
%ADD38RoundRect,0.075000X-0.500000X0.075000X-0.500000X-0.075000X0.500000X-0.075000X0.500000X0.075000X0*%
%ADD39O,2.300000X1.300000*%
%ADD40O,2.000000X1.300000*%
%ADD41RoundRect,0.250000X-0.337500X-0.475000X0.337500X-0.475000X0.337500X0.475000X-0.337500X0.475000X0*%
%ADD42RoundRect,0.250000X-0.475000X0.250000X-0.475000X-0.250000X0.475000X-0.250000X0.475000X0.250000X0*%
%ADD43RoundRect,0.250000X-0.300000X-0.300000X0.300000X-0.300000X0.300000X0.300000X-0.300000X0.300000X0*%
%ADD44RoundRect,0.062500X-0.375000X-0.062500X0.375000X-0.062500X0.375000X0.062500X-0.375000X0.062500X0*%
%ADD45RoundRect,0.062500X-0.062500X-0.375000X0.062500X-0.375000X0.062500X0.375000X-0.062500X0.375000X0*%
%ADD46R,1.800000X2.200000*%
%ADD47RoundRect,0.150000X-0.875000X-0.150000X0.875000X-0.150000X0.875000X0.150000X-0.875000X0.150000X0*%
%ADD48R,0.800000X2.700000*%
%ADD49RoundRect,0.250000X1.100000X-0.325000X1.100000X0.325000X-1.100000X0.325000X-1.100000X-0.325000X0*%
%ADD50R,0.900000X1.500000*%
%ADD51RoundRect,0.250000X-0.325000X-1.100000X0.325000X-1.100000X0.325000X1.100000X-0.325000X1.100000X0*%
%ADD52RoundRect,0.218750X0.256250X-0.218750X0.256250X0.218750X-0.256250X0.218750X-0.256250X-0.218750X0*%
%ADD53RoundRect,0.250000X-0.325000X-0.650000X0.325000X-0.650000X0.325000X0.650000X-0.325000X0.650000X0*%
%ADD54RoundRect,0.250000X0.650000X-1.000000X0.650000X1.000000X-0.650000X1.000000X-0.650000X-1.000000X0*%
%ADD55RoundRect,0.187500X-0.187500X0.237500X-0.187500X-0.237500X0.187500X-0.237500X0.187500X0.237500X0*%
G04 APERTURE END LIST*
%TO.C,DS1*%
G36*
X24125000Y49950000D02*
G01*
X24375000Y49950000D01*
X24375000Y48650000D01*
X24125000Y48650000D01*
X24125000Y49950000D01*
G37*
G36*
X24625000Y49950000D02*
G01*
X24875000Y49950000D01*
X24875000Y48650000D01*
X24625000Y48650000D01*
X24625000Y49950000D01*
G37*
G36*
X25125000Y49950000D02*
G01*
X25375000Y49950000D01*
X25375000Y48650000D01*
X25125000Y48650000D01*
X25125000Y49950000D01*
G37*
G36*
X25625000Y49950000D02*
G01*
X25875000Y49950000D01*
X25875000Y48650000D01*
X25625000Y48650000D01*
X25625000Y49950000D01*
G37*
G36*
X26125000Y49950000D02*
G01*
X26375000Y49950000D01*
X26375000Y48650000D01*
X26125000Y48650000D01*
X26125000Y49950000D01*
G37*
G36*
X26625000Y49950000D02*
G01*
X26875000Y49950000D01*
X26875000Y48650000D01*
X26625000Y48650000D01*
X26625000Y49950000D01*
G37*
G36*
X27125000Y49950000D02*
G01*
X27375000Y49950000D01*
X27375000Y48650000D01*
X27125000Y48650000D01*
X27125000Y49950000D01*
G37*
G36*
X27625000Y49950000D02*
G01*
X27875000Y49950000D01*
X27875000Y48650000D01*
X27625000Y48650000D01*
X27625000Y49950000D01*
G37*
G36*
X28125000Y49950000D02*
G01*
X28375000Y49950000D01*
X28375000Y48650000D01*
X28125000Y48650000D01*
X28125000Y49950000D01*
G37*
G36*
X28625000Y49950000D02*
G01*
X28875000Y49950000D01*
X28875000Y48650000D01*
X28625000Y48650000D01*
X28625000Y49950000D01*
G37*
G36*
X29125000Y49950000D02*
G01*
X29375000Y49950000D01*
X29375000Y48650000D01*
X29125000Y48650000D01*
X29125000Y49950000D01*
G37*
G36*
X29625000Y49950000D02*
G01*
X29875000Y49950000D01*
X29875000Y48650000D01*
X29625000Y48650000D01*
X29625000Y49950000D01*
G37*
G36*
X30125000Y49950000D02*
G01*
X30375000Y49950000D01*
X30375000Y48650000D01*
X30125000Y48650000D01*
X30125000Y49950000D01*
G37*
G36*
X30625000Y49950000D02*
G01*
X30875000Y49950000D01*
X30875000Y48650000D01*
X30625000Y48650000D01*
X30625000Y49950000D01*
G37*
G36*
X31125000Y49950000D02*
G01*
X31375000Y49950000D01*
X31375000Y48650000D01*
X31125000Y48650000D01*
X31125000Y49950000D01*
G37*
G36*
X31625000Y49950000D02*
G01*
X31875000Y49950000D01*
X31875000Y48650000D01*
X31625000Y48650000D01*
X31625000Y49950000D01*
G37*
G36*
X32125000Y49950000D02*
G01*
X32375000Y49950000D01*
X32375000Y48650000D01*
X32125000Y48650000D01*
X32125000Y49950000D01*
G37*
G36*
X32625000Y49950000D02*
G01*
X32875000Y49950000D01*
X32875000Y48650000D01*
X32625000Y48650000D01*
X32625000Y49950000D01*
G37*
G36*
X33125000Y49950000D02*
G01*
X33375000Y49950000D01*
X33375000Y48650000D01*
X33125000Y48650000D01*
X33125000Y49950000D01*
G37*
G36*
X33625000Y49950000D02*
G01*
X33875000Y49950000D01*
X33875000Y48650000D01*
X33625000Y48650000D01*
X33625000Y49950000D01*
G37*
G36*
X34125000Y49950000D02*
G01*
X34375000Y49950000D01*
X34375000Y48650000D01*
X34125000Y48650000D01*
X34125000Y49950000D01*
G37*
G36*
X34625000Y49950000D02*
G01*
X34875000Y49950000D01*
X34875000Y48650000D01*
X34625000Y48650000D01*
X34625000Y49950000D01*
G37*
G36*
X35125000Y49950000D02*
G01*
X35375000Y49950000D01*
X35375000Y48650000D01*
X35125000Y48650000D01*
X35125000Y49950000D01*
G37*
G36*
X35625000Y49950000D02*
G01*
X35875000Y49950000D01*
X35875000Y48650000D01*
X35625000Y48650000D01*
X35625000Y49950000D01*
G37*
%TD*%
D10*
%TO.C,R8*%
X55500000Y69175000D03*
X55500000Y70825000D03*
%TD*%
D11*
%TO.C,C49*%
X38250000Y40050000D03*
X38250000Y41950000D03*
%TD*%
D12*
%TO.C,C26*%
X31225000Y94900000D03*
X32775000Y94900000D03*
%TD*%
D13*
%TO.C,U7*%
X3362500Y77950000D03*
X3362500Y77000000D03*
X3362500Y76050000D03*
X5637500Y76050000D03*
X5637500Y77950000D03*
%TD*%
D14*
%TO.C,C18*%
X20200000Y85225000D03*
X20200000Y86775000D03*
%TD*%
%TO.C,C10*%
X53750000Y67725000D03*
X53750000Y69275000D03*
%TD*%
D15*
%TO.C,D2*%
X16250000Y41250000D03*
X20250000Y41250000D03*
%TD*%
D12*
%TO.C,C25*%
X25525000Y79500000D03*
X27075000Y79500000D03*
%TD*%
D10*
%TO.C,R29*%
X20300000Y82175000D03*
X20300000Y83825000D03*
%TD*%
D16*
%TO.C,R30*%
X7750000Y76087500D03*
X7750000Y77912500D03*
%TD*%
D14*
%TO.C,C14*%
X14250000Y48475000D03*
X14250000Y50025000D03*
%TD*%
D12*
%TO.C,C51*%
X16125000Y18500000D03*
X17675000Y18500000D03*
%TD*%
D17*
%TO.C,C11*%
X44775000Y66500000D03*
X43225000Y66500000D03*
%TD*%
D18*
%TO.C,C22*%
X36250000Y90500000D03*
X34350000Y90500000D03*
%TD*%
D19*
%TO.C,L2*%
X26930000Y84450000D03*
X29070000Y84450000D03*
%TD*%
D11*
%TO.C,C44*%
X27250000Y43800000D03*
X27250000Y45700000D03*
%TD*%
D20*
%TO.C,C36*%
X40000000Y82637500D03*
X40000000Y80562500D03*
%TD*%
D10*
%TO.C,R16*%
X53750000Y39175000D03*
X53750000Y40825000D03*
%TD*%
%TO.C,R17*%
X39750000Y43925000D03*
X39750000Y45575000D03*
%TD*%
D21*
%TO.C,J2*%
X7250000Y58100000D03*
X7250000Y60100000D03*
D22*
X5000000Y55700000D03*
X5000000Y62500000D03*
%TD*%
D20*
%TO.C,C53*%
X33700000Y82637500D03*
X33700000Y80562500D03*
%TD*%
D10*
%TO.C,R33*%
X7500000Y91175000D03*
X7500000Y92825000D03*
%TD*%
D23*
%TO.C,U1*%
X14637500Y57550000D03*
X14637500Y58500000D03*
X14637500Y59450000D03*
X12362500Y59450000D03*
X12362500Y57550000D03*
%TD*%
D24*
%TO.C,R28*%
X40450000Y74150000D03*
X43550000Y74150000D03*
%TD*%
D25*
%TO.C,C2*%
X14475000Y55000000D03*
X11525000Y55000000D03*
%TD*%
D10*
%TO.C,R36*%
X39750000Y47175000D03*
X39750000Y48825000D03*
%TD*%
D26*
%TO.C,C5*%
X22500000Y63775000D03*
X22500000Y66725000D03*
%TD*%
D10*
%TO.C,R20*%
X21000000Y44425000D03*
X21000000Y46075000D03*
%TD*%
D12*
%TO.C,C27*%
X31225000Y89900000D03*
X32775000Y89900000D03*
%TD*%
D27*
%TO.C,R25*%
X27000000Y81500000D03*
X29000000Y81500000D03*
%TD*%
D12*
%TO.C,C45*%
X16225000Y49000000D03*
X17775000Y49000000D03*
%TD*%
D28*
%TO.C,SW1*%
X56500000Y74300000D03*
X56500000Y77700000D03*
%TD*%
D29*
%TO.C,Q5*%
X33687500Y45550000D03*
X33687500Y47450000D03*
X31812500Y46500000D03*
%TD*%
D30*
%TO.C,R21*%
X18025000Y93200000D03*
X16375000Y93200000D03*
%TD*%
D31*
%TO.C,R18*%
X47175000Y39250000D03*
X48825000Y39250000D03*
%TD*%
D32*
%TO.C,C52*%
X15950000Y21500000D03*
X17850000Y21500000D03*
%TD*%
D33*
%TO.C,L4*%
X6265000Y82000000D03*
D34*
X2735000Y82000000D03*
%TD*%
D35*
%TO.C,U9*%
X35812500Y45700000D03*
X35812500Y43800000D03*
X37687500Y44750000D03*
%TD*%
D10*
%TO.C,R35*%
X39750000Y53675000D03*
X39750000Y55325000D03*
%TD*%
D31*
%TO.C,R14*%
X56675000Y72500000D03*
X58325000Y72500000D03*
%TD*%
D12*
%TO.C,C13*%
X50475000Y39250000D03*
X52025000Y39250000D03*
%TD*%
D17*
%TO.C,C12*%
X55025000Y72500000D03*
X53475000Y72500000D03*
%TD*%
D10*
%TO.C,R34*%
X7500000Y95175000D03*
X7500000Y96825000D03*
%TD*%
D36*
%TO.C,J1*%
X7125000Y51310000D03*
D37*
X7075000Y50510000D03*
D38*
X7075000Y49360000D03*
X7075000Y48360000D03*
X7075000Y47860000D03*
X7075000Y46860000D03*
D37*
X7075000Y45710000D03*
D36*
X7125000Y44910000D03*
X7125000Y44910000D03*
D37*
X7075000Y45710000D03*
D38*
X7075000Y46360000D03*
X7075000Y47360000D03*
X7075000Y48860000D03*
X7075000Y49860000D03*
D37*
X7075000Y50510000D03*
D36*
X7125000Y51310000D03*
D39*
X6500000Y52430000D03*
D40*
X2320000Y52430000D03*
D39*
X6500000Y43790000D03*
D40*
X2320000Y43790000D03*
%TD*%
D10*
%TO.C,R11*%
X39750000Y65175000D03*
X39750000Y66825000D03*
%TD*%
D41*
%TO.C,C29*%
X22962500Y77500000D03*
X25037500Y77500000D03*
%TD*%
D14*
%TO.C,C43*%
X20150000Y57475000D03*
X20150000Y59025000D03*
%TD*%
D18*
%TO.C,C24*%
X33950000Y87900000D03*
X32050000Y87900000D03*
%TD*%
D31*
%TO.C,R15*%
X51675000Y42500000D03*
X53325000Y42500000D03*
%TD*%
D30*
%TO.C,R24*%
X18025000Y97200000D03*
X16375000Y97200000D03*
%TD*%
D42*
%TO.C,C21*%
X29500000Y103350000D03*
X29500000Y101450000D03*
%TD*%
D43*
%TO.C,U6*%
X24567500Y97820000D03*
X24567500Y96450000D03*
X24567500Y95080000D03*
X25937500Y97820000D03*
X25937500Y96450000D03*
X25937500Y95080000D03*
X27307500Y97820000D03*
X27307500Y96450000D03*
X27307500Y95080000D03*
D44*
X23000000Y98700000D03*
X23000000Y98200000D03*
X23000000Y97700000D03*
X23000000Y97200000D03*
X23000000Y96700000D03*
X23000000Y96200000D03*
X23000000Y95700000D03*
X23000000Y95200000D03*
X23000000Y94700000D03*
X23000000Y94200000D03*
D45*
X23687500Y93512500D03*
X24187500Y93512500D03*
X24687500Y93512500D03*
X25187500Y93512500D03*
X25687500Y93512500D03*
X26187500Y93512500D03*
X26687500Y93512500D03*
X27187500Y93512500D03*
X27687500Y93512500D03*
X28187500Y93512500D03*
D44*
X28875000Y94200000D03*
X28875000Y94700000D03*
X28875000Y95200000D03*
X28875000Y95700000D03*
X28875000Y96200000D03*
X28875000Y96700000D03*
X28875000Y97200000D03*
X28875000Y97700000D03*
X28875000Y98200000D03*
X28875000Y98700000D03*
D45*
X28187500Y99387500D03*
X27687500Y99387500D03*
X27187500Y99387500D03*
X26687500Y99387500D03*
X26187500Y99387500D03*
X25687500Y99387500D03*
X25187500Y99387500D03*
X24687500Y99387500D03*
X24187500Y99387500D03*
X23687500Y99387500D03*
%TD*%
D10*
%TO.C,R19*%
X25250000Y44425000D03*
X25250000Y46075000D03*
%TD*%
D31*
%TO.C,R1*%
X9175000Y51250000D03*
X10825000Y51250000D03*
%TD*%
D35*
%TO.C,Q3*%
X3562500Y92950000D03*
X3562500Y91050000D03*
X5437500Y92000000D03*
%TD*%
D46*
%TO.C,DS1*%
X37650000Y52550000D03*
X22350000Y52550000D03*
%TD*%
D20*
%TO.C,C37*%
X40000000Y78437500D03*
X40000000Y76362500D03*
%TD*%
D15*
%TO.C,D1*%
X9000000Y40750000D03*
X13000000Y40750000D03*
%TD*%
D47*
%TO.C,U8*%
X5500000Y16350000D03*
X5500000Y15080000D03*
X5500000Y13810000D03*
X5500000Y12540000D03*
X5500000Y11270000D03*
X5500000Y10000000D03*
X5500000Y8730000D03*
X5500000Y7460000D03*
X14800000Y7460000D03*
X14800000Y8730000D03*
X14800000Y10000000D03*
X14800000Y11270000D03*
X14800000Y12540000D03*
X14800000Y13810000D03*
X14800000Y15080000D03*
X14800000Y16350000D03*
%TD*%
D48*
%TO.C,L1*%
X26700000Y63300000D03*
X24500000Y63300000D03*
%TD*%
D14*
%TO.C,C20*%
X20300000Y78725000D03*
X20300000Y80275000D03*
%TD*%
D49*
%TO.C,C4*%
X34250000Y63825000D03*
X34250000Y66775000D03*
%TD*%
D13*
%TO.C,U4*%
X9862500Y48950000D03*
X9862500Y48000000D03*
X9862500Y47050000D03*
X12137500Y47050000D03*
X12137500Y48000000D03*
X12137500Y48950000D03*
%TD*%
D10*
%TO.C,R10*%
X41500000Y65175000D03*
X41500000Y66825000D03*
%TD*%
D27*
%TO.C,R26*%
X27000000Y77500000D03*
X29000000Y77500000D03*
%TD*%
D31*
%TO.C,R2*%
X9175000Y44750000D03*
X10825000Y44750000D03*
%TD*%
D42*
%TO.C,C23*%
X25000000Y103050000D03*
X25000000Y101150000D03*
%TD*%
D10*
%TO.C,R3*%
X16500000Y57675000D03*
X16500000Y59325000D03*
%TD*%
D29*
%TO.C,U5*%
X48687500Y64800000D03*
X48687500Y66700000D03*
X46812500Y65750000D03*
%TD*%
D31*
%TO.C,R6*%
X29375000Y62500000D03*
X31025000Y62500000D03*
%TD*%
D10*
%TO.C,R12*%
X46400000Y41675000D03*
X46400000Y43325000D03*
%TD*%
D50*
%TO.C,U3*%
X53900000Y62610000D03*
X52400000Y62610000D03*
X50900000Y62610000D03*
X49400000Y62610000D03*
X47900000Y62610000D03*
X46400000Y62610000D03*
X44900000Y62610000D03*
X43400000Y62610000D03*
X41900000Y62610000D03*
X41900000Y45110000D03*
X43400000Y45110000D03*
X44900000Y45110000D03*
X46400000Y45110000D03*
X47900000Y45110000D03*
X49400000Y45110000D03*
X50900000Y45110000D03*
X52400000Y45110000D03*
X53900000Y45110000D03*
%TD*%
D11*
%TO.C,C50*%
X29500000Y43800000D03*
X29500000Y45700000D03*
%TD*%
D51*
%TO.C,C1*%
X11525000Y62750000D03*
X14475000Y62750000D03*
%TD*%
D28*
%TO.C,SW2*%
X56500000Y79300000D03*
X56500000Y82700000D03*
%TD*%
D41*
%TO.C,C32*%
X35962500Y84850000D03*
X38037500Y84850000D03*
%TD*%
D30*
%TO.C,R23*%
X18025000Y95200000D03*
X16375000Y95200000D03*
%TD*%
D10*
%TO.C,R32*%
X19250000Y45175000D03*
X19250000Y46825000D03*
%TD*%
%TO.C,R4*%
X18250000Y57425000D03*
X18250000Y59075000D03*
%TD*%
%TO.C,R13*%
X47900000Y41675000D03*
X47900000Y43325000D03*
%TD*%
D20*
%TO.C,C31*%
X31500000Y78437500D03*
X31500000Y76362500D03*
%TD*%
D19*
%TO.C,L3*%
X26930000Y74550000D03*
X29070000Y74550000D03*
%TD*%
D14*
%TO.C,C16*%
X20500000Y89225000D03*
X20500000Y90775000D03*
%TD*%
D52*
%TO.C,D3*%
X15500000Y65212500D03*
X15500000Y66787500D03*
%TD*%
D26*
%TO.C,C17*%
X18000000Y84725000D03*
X18000000Y87675000D03*
%TD*%
D53*
%TO.C,C46*%
X16525000Y51750000D03*
X19475000Y51750000D03*
%TD*%
D26*
%TO.C,C19*%
X17000000Y79525000D03*
X17000000Y82475000D03*
%TD*%
D54*
%TO.C,D4*%
X4500000Y69500000D03*
X4500000Y73500000D03*
%TD*%
D24*
%TO.C,R27*%
X40450000Y84850000D03*
X43550000Y84850000D03*
%TD*%
D20*
%TO.C,C30*%
X31500000Y82637500D03*
X31500000Y80562500D03*
%TD*%
D10*
%TO.C,R31*%
X7500000Y72675000D03*
X7500000Y74325000D03*
%TD*%
D26*
%TO.C,C6*%
X19500000Y61025000D03*
X19500000Y63975000D03*
%TD*%
D29*
%TO.C,Q1*%
X18437500Y53800000D03*
X18437500Y55700000D03*
X16562500Y54750000D03*
%TD*%
D27*
%TO.C,R42*%
X23000000Y74150000D03*
X25000000Y74150000D03*
%TD*%
D55*
%TO.C,Y1*%
X31475000Y93075000D03*
X31475000Y91725000D03*
X32525000Y91725000D03*
X32525000Y93075000D03*
%TD*%
D18*
%TO.C,C15*%
X17950000Y100000000D03*
X16050000Y100000000D03*
%TD*%
D10*
%TO.C,R5*%
X14250000Y43925000D03*
X14250000Y45575000D03*
%TD*%
D27*
%TO.C,R41*%
X23000000Y84850000D03*
X25000000Y84850000D03*
%TD*%
D35*
%TO.C,Q4*%
X3562500Y96950000D03*
X3562500Y95050000D03*
X5437500Y96000000D03*
%TD*%
D30*
%TO.C,R22*%
X20825000Y74000000D03*
X19175000Y74000000D03*
%TD*%
D41*
%TO.C,C33*%
X35962500Y74150000D03*
X38037500Y74150000D03*
%TD*%
D31*
%TO.C,R40*%
X32175000Y43750000D03*
X33825000Y43750000D03*
%TD*%
%TO.C,R37*%
X17675000Y10500000D03*
X19325000Y10500000D03*
%TD*%
D32*
%TO.C,C42*%
X3550000Y66750000D03*
X5450000Y66750000D03*
%TD*%
D53*
%TO.C,C40*%
X3025000Y87000000D03*
X5975000Y87000000D03*
%TD*%
D14*
%TO.C,C41*%
X1500000Y74225000D03*
X1500000Y75775000D03*
%TD*%
%TO.C,C48*%
X39750000Y50475000D03*
X39750000Y52025000D03*
%TD*%
D13*
%TO.C,U2*%
X29262500Y66450000D03*
X29262500Y65500000D03*
X29262500Y64550000D03*
X31537500Y64550000D03*
X31537500Y66450000D03*
%TD*%
D11*
%TO.C,C47*%
X23000000Y44550000D03*
X23000000Y46450000D03*
%TD*%
D41*
%TO.C,C28*%
X22962500Y81500000D03*
X25037500Y81500000D03*
%TD*%
D10*
%TO.C,R9*%
X39750000Y57175000D03*
X39750000Y58825000D03*
%TD*%
D14*
%TO.C,C3*%
X37000000Y62275000D03*
X37000000Y63825000D03*
%TD*%
D53*
%TO.C,C9*%
X50775000Y65500000D03*
X53725000Y65500000D03*
%TD*%
D20*
%TO.C,C54*%
X33700000Y78437500D03*
X33700000Y76362500D03*
%TD*%
D29*
%TO.C,Q2*%
X42437500Y40300000D03*
X42437500Y42200000D03*
X40562500Y41250000D03*
%TD*%
D10*
%TO.C,R7*%
X37000000Y65425000D03*
X37000000Y67075000D03*
%TD*%
M02*
