%TF.GenerationSoftware,KiCad,Pcbnew,10.0.6*%
%TF.CreationDate,2026-09-22T21:18:05+02:00*%
%TF.ProjectId,nucula-v2,6e756375-6c61-42d7-9632-2e6b69636164,rev?*%
%TF.SameCoordinates,Original*%
%TF.FileFunction,Copper,L2,Inr*%
%TF.FilePolarity,Positive*%
%FSLAX46Y46*%
G04 Gerber Fmt 4.6, Leading zero omitted, Abs format (unit mm)*
G04 Created by KiCad (PCBNEW 10.0.6) date 2026-09-22 21:18:05*
%MOMM*%
%LPD*%
G01*
G04 APERTURE LIST*
%TA.AperFunction,ComponentPad*%
%ADD10R,1.700000X1.700000*%
%TD*%
%TA.AperFunction,ComponentPad*%
%ADD11C,1.700000*%
%TD*%
%TA.AperFunction,ComponentPad*%
%ADD12O,2.300000X1.300000*%
%TD*%
%TA.AperFunction,ComponentPad*%
%ADD13O,2.000000X1.300000*%
%TD*%
%TA.AperFunction,ComponentPad*%
%ADD14C,0.800000*%
%TD*%
%TA.AperFunction,ViaPad*%
%ADD15C,0.700000*%
%TD*%
%TA.AperFunction,Conductor*%
%ADD16C,0.500000*%
%TD*%
%TA.AperFunction,Conductor*%
%ADD17C,0.150000*%
%TD*%
%TA.AperFunction,Conductor*%
%ADD18C,0.200000*%
%TD*%
%TA.AperFunction,Conductor*%
%ADD19C,0.350000*%
%TD*%
%TA.AperFunction,Conductor*%
%ADD20C,0.300000*%
%TD*%
%TA.AperFunction,Conductor*%
%ADD21C,0.750000*%
%TD*%
%TA.AperFunction,Conductor*%
%ADD22C,0.250000*%
%TD*%
G04 APERTURE END LIST*
D10*
%TO.N,/+3V3*%
%TO.C,J4*%
X24920000Y41000000D03*
D11*
%TO.N,GND*%
X27460000Y41000000D03*
%TO.N,/I2C_SDA*%
X30000000Y41000000D03*
%TO.N,/I2C_SCL*%
X32540000Y41000000D03*
%TO.N,/KEY_INT_N*%
X35080000Y41000000D03*
%TD*%
D10*
%TO.N,unconnected-(J3-Pin_1-Pad1)*%
%TO.C,J3*%
X19840000Y2500000D03*
D11*
%TO.N,/Keyboard {slash} breakaway {slash} 0x20/KEY_P0*%
X22380000Y2500000D03*
%TO.N,/Keyboard {slash} breakaway {slash} 0x20/KEY_P1*%
X24920000Y2500000D03*
%TO.N,/Keyboard {slash} breakaway {slash} 0x20/KEY_P2*%
X27460000Y2500000D03*
%TO.N,/Keyboard {slash} breakaway {slash} 0x20/KEY_P3*%
X30000000Y2500000D03*
%TO.N,/Keyboard {slash} breakaway {slash} 0x20/KEY_P4*%
X32540000Y2500000D03*
%TO.N,/Keyboard {slash} breakaway {slash} 0x20/KEY_P5*%
X35080000Y2500000D03*
%TO.N,/Keyboard {slash} breakaway {slash} 0x20/KEY_P6*%
X37620000Y2500000D03*
%TO.N,unconnected-(J3-Pin_9-Pad9)*%
X40160000Y2500000D03*
%TD*%
D12*
%TO.N,GND*%
%TO.C,J1*%
X6500000Y52430000D03*
D13*
X2320000Y52430000D03*
D12*
X6500000Y43790000D03*
D13*
X2320000Y43790000D03*
%TD*%
D10*
%TO.N,/+3V3*%
%TO.C,J5*%
X24920000Y30000000D03*
D11*
%TO.N,GND*%
X27460000Y30000000D03*
%TO.N,/I2C_SDA*%
X30000000Y30000000D03*
%TO.N,/I2C_SCL*%
X32540000Y30000000D03*
%TO.N,/KEY_INT_N*%
X35080000Y30000000D03*
%TD*%
D14*
%TO.N,Net-(A1-LOOP_A)*%
%TO.C,A1*%
X51350000Y90500000D03*
X45250000Y90500000D03*
%TD*%
D15*
%TO.N,/+3V3*%
X39050000Y58000000D03*
X37687500Y43889000D03*
X1850000Y87500000D03*
X15850000Y89800000D03*
X21000000Y92100000D03*
X41467200Y64201600D03*
X20100000Y95980000D03*
X14945900Y17321000D03*
X17400000Y98750000D03*
X21000000Y63750000D03*
X19303800Y11552000D03*
X50670000Y66970400D03*
%TO.N,/Power + ESP32-C3/ESP_EN*%
X50700000Y63952100D03*
X54714000Y70039100D03*
%TO.N,GND*%
X6000000Y39000000D03*
X50000000Y19000000D03*
X34000000Y23000000D03*
X46000000Y3000000D03*
X58000000Y15000000D03*
X52600000Y65500000D03*
X54000000Y19000000D03*
X50000000Y3000000D03*
X45700000Y52900000D03*
X2000000Y19000000D03*
X38000000Y19000000D03*
X54000000Y31000000D03*
X54000000Y107000000D03*
X46000000Y59000000D03*
X42000000Y15000000D03*
X10000000Y11000000D03*
X58000000Y7000000D03*
X30000000Y23000000D03*
X28890300Y87312500D03*
X50000000Y7000000D03*
X2000000Y47000000D03*
X30000000Y19000000D03*
X10425000Y43500000D03*
X52725000Y69275000D03*
X43475000Y43025000D03*
X38000000Y15000000D03*
X38000000Y23000000D03*
X58000000Y31000000D03*
X10000000Y23000000D03*
X29620500Y79579200D03*
X2275000Y95050000D03*
X15950000Y85650000D03*
X38000000Y31000000D03*
X18725000Y49550000D03*
X27550000Y50500000D03*
X46000000Y15000000D03*
X2000000Y23000000D03*
X32850000Y79500000D03*
X42000000Y7000000D03*
X22000000Y27000000D03*
X8650000Y48100000D03*
X58000000Y23000000D03*
X52025000Y40275000D03*
X6600000Y73300000D03*
X14000000Y23000000D03*
X6000000Y3000000D03*
X30650000Y79500000D03*
X18225000Y46875000D03*
X2000000Y63000000D03*
X22000000Y15000000D03*
X4800000Y87000000D03*
X58000000Y103000000D03*
X2000000Y55000000D03*
X58000000Y99000000D03*
X50000000Y27000000D03*
X42000000Y11000000D03*
X46000000Y23000000D03*
X48825000Y40275000D03*
X2000000Y27000000D03*
X26000000Y11000000D03*
X15300000Y91600000D03*
X14000000Y27000000D03*
X6425000Y96775000D03*
X58000000Y39000000D03*
X38000000Y7000000D03*
X26310200Y78685200D03*
X31121600Y88861800D03*
X10400000Y55000000D03*
X38000000Y11000000D03*
X18900000Y21500000D03*
X2000000Y39000000D03*
X54000000Y59000000D03*
X54000000Y99000000D03*
X55100000Y82700000D03*
X3925000Y7460000D03*
X58000000Y91000000D03*
X46000000Y31000000D03*
X37100000Y45650000D03*
X50000000Y11000000D03*
X13225000Y45575000D03*
X6000000Y23000000D03*
X13300000Y62750000D03*
X46000000Y27000000D03*
X18000000Y31000000D03*
X55100000Y77700000D03*
X6000000Y103000000D03*
X3925000Y16350000D03*
X41350000Y79500000D03*
X10000000Y7000000D03*
X34000000Y19000000D03*
X46000000Y19000000D03*
X8200000Y51310000D03*
X58000000Y87000000D03*
X3925000Y15080000D03*
X14000000Y31000000D03*
X54000000Y3000000D03*
X10000000Y27000000D03*
X18000000Y27000000D03*
X54000000Y91000000D03*
X2000000Y3000000D03*
X46000000Y7000000D03*
X3925000Y13810000D03*
X54000000Y7000000D03*
X6000000Y31000000D03*
X18625000Y19050000D03*
X32525000Y48100000D03*
X42000000Y23000000D03*
X10000000Y63000000D03*
X10000000Y15000000D03*
X23550000Y49350000D03*
X58000000Y19000000D03*
X26000000Y19000000D03*
X40900000Y62560000D03*
X34000000Y11000000D03*
X13425000Y58500000D03*
X54000000Y23000000D03*
X54000000Y47000000D03*
X52725000Y40825000D03*
X42000000Y51000000D03*
X50511000Y40766000D03*
X34000000Y15000000D03*
X54000000Y15000000D03*
X54000000Y103000000D03*
X54000000Y87000000D03*
X58000000Y83000000D03*
X54000000Y27000000D03*
X10000000Y31000000D03*
X46000000Y11000000D03*
X54000000Y55000000D03*
X36450000Y49300000D03*
X58000000Y27000000D03*
X10000000Y19000000D03*
X38000000Y27000000D03*
X21120500Y76000100D03*
X8800000Y91600000D03*
X50000000Y31000000D03*
X3900000Y60100000D03*
X2000000Y103000000D03*
X22000000Y11000000D03*
X58000000Y3000000D03*
X2000000Y11000000D03*
X16500000Y60275000D03*
X6000000Y107000000D03*
X24275000Y46550000D03*
X30000000Y11000000D03*
X2000000Y67000000D03*
X14000000Y3000000D03*
X46000000Y47000000D03*
X42000000Y19000000D03*
X43225000Y67525000D03*
X58000000Y107000000D03*
X42000000Y27000000D03*
X2200000Y77450000D03*
X53475000Y73548400D03*
X54000000Y51000000D03*
X50000000Y23000000D03*
X18350000Y51750000D03*
X58000000Y11000000D03*
X6000000Y19000000D03*
X2000000Y31000000D03*
X50000000Y15000000D03*
X58000000Y95000000D03*
X37875000Y43000000D03*
X6550000Y66750000D03*
X34000000Y27000000D03*
X47400000Y64800000D03*
X6000000Y27000000D03*
X33150000Y46600000D03*
X30750000Y50700000D03*
X39150000Y79500000D03*
X30000000Y55000000D03*
X22000000Y31000000D03*
X34000000Y7050000D03*
X11825000Y51250000D03*
X41150000Y42150000D03*
X8200000Y44910000D03*
X42000000Y31000000D03*
X54000000Y95000000D03*
X30000000Y15000000D03*
X26000000Y15000000D03*
X54000000Y11000000D03*
X28375000Y46450000D03*
X2000000Y107000000D03*
%TO.N,/OLED {slash} SSD1309 {slash} 0x3C/OLED_FB*%
X872200Y72327900D03*
X4950000Y78800000D03*
X8700000Y78850000D03*
%TO.N,/VSYS*%
X3562500Y90164800D03*
X18883300Y86200000D03*
X21050000Y43450000D03*
X8800000Y90650000D03*
X22647500Y90900000D03*
X19741200Y55700000D03*
X15300000Y90650000D03*
X31400000Y98800000D03*
X28050000Y65850000D03*
X16250000Y42734000D03*
%TO.N,/Power + ESP32-C3/USB_5V*%
X17900000Y54800000D03*
X12195900Y58500000D03*
X12501400Y43070000D03*
%TO.N,/I2C_SDA*%
X29208500Y47786000D03*
X6843500Y67606900D03*
X50900000Y61295300D03*
X15200000Y88950000D03*
X20100000Y96920000D03*
X8850000Y88950000D03*
X19051100Y88724600D03*
X19325000Y16533000D03*
%TO.N,/I2C_SCL*%
X30200000Y48001000D03*
X16000000Y88000000D03*
X49400000Y61301700D03*
X21000000Y47048000D03*
X8750000Y87950000D03*
X20145500Y19461000D03*
X6673400Y57028000D03*
X18650000Y92200000D03*
X16050000Y84750000D03*
%TO.N,/KEY_INT_N*%
X42613200Y43380000D03*
X16765200Y11871000D03*
%TO.N,/NFC {slash} PN7160 {slash} 0x28/NFC_VMID*%
X24122300Y80423800D03*
X27347500Y90900000D03*
%TO.N,/NFC {slash} PN7160 {slash} 0x28/NFC_VDDUP*%
X23000000Y88250000D03*
X25000000Y86350000D03*
%TO.N,/OLED {slash} SSD1309 {slash} 0x3C/OLED_12V5*%
X8688900Y75148600D03*
X24750000Y50654000D03*
X15400000Y49750000D03*
%TO.N,/Power + ESP32-C3/VBUS*%
X13867400Y42246000D03*
X5900000Y49450000D03*
X45500000Y40674800D03*
X14239600Y46602400D03*
X8204000Y50397000D03*
%TO.N,/NFC {slash} PN7160 {slash} 0x28/NFC_VDD18*%
X28187500Y100700000D03*
X31400000Y97860000D03*
X31400000Y96920000D03*
X35292300Y91407700D03*
%TO.N,/+3V0*%
X32867100Y56256000D03*
X27100500Y42744000D03*
X33750000Y50682000D03*
X36458700Y41307000D03*
%TO.N,/Power + ESP32-C3/USB_PRESENT_N*%
X52250000Y43800000D03*
X40783600Y43482000D03*
%TO.N,/Power + ESP32-C3/VBAT*%
X13795700Y53170000D03*
X51050000Y43400000D03*
X8310800Y57039000D03*
X16562500Y53750000D03*
X14637500Y60309200D03*
%TO.N,Net-(U1-PROG)*%
X13105500Y56731000D03*
X16503500Y55982000D03*
%TO.N,/NFC {slash} PN7160 {slash} 0x28/NFC_XTAL2*%
X32050000Y90800000D03*
X31400000Y99740000D03*
%TO.N,/Keyboard {slash} breakaway {slash} 0x20/KEY_P0*%
X6916100Y11871000D03*
%TO.N,/Keyboard {slash} breakaway {slash} 0x20/KEY_P1*%
X6892100Y10625000D03*
%TO.N,/Keyboard {slash} breakaway {slash} 0x20/KEY_P2*%
X6897800Y9381000D03*
%TO.N,/Keyboard {slash} breakaway {slash} 0x20/KEY_P3*%
X7116800Y8061000D03*
%TO.N,/Keyboard {slash} breakaway {slash} 0x20/KEY_P4*%
X14800000Y6575000D03*
%TO.N,/Keyboard {slash} breakaway {slash} 0x20/KEY_P5*%
X16217500Y8061000D03*
%TO.N,/Keyboard {slash} breakaway {slash} 0x20/KEY_P6*%
X16201100Y9381000D03*
%TO.N,/Power + ESP32-C3/BOOT_N*%
X41100000Y61400000D03*
X56655000Y71456100D03*
X38943400Y66068400D03*
%TO.N,/OLED_PWR_EN*%
X3562500Y97815900D03*
X6014300Y54155000D03*
X49400000Y46420000D03*
X8288300Y95963300D03*
%TO.N,/NFC {slash} PN7160 {slash} 0x28/NFC_RXP*%
X21776400Y79721100D03*
X25800000Y87150000D03*
%TO.N,/NFC {slash} PN7160 {slash} 0x28/NFC_TVDD*%
X26050000Y102200000D03*
X30300000Y93350000D03*
X24527500Y90900000D03*
X27600000Y87500000D03*
X28287500Y90900000D03*
X33950000Y86594000D03*
%TO.N,/NFC {slash} PN7160 {slash} 0x28/NFC_ADR1*%
X20100000Y98800000D03*
X18600000Y98150000D03*
%TO.N,/NFC_IRQ*%
X20100000Y94100000D03*
X15250000Y87250000D03*
X47900000Y63932500D03*
%TO.N,/NFC_VEN*%
X8155200Y65868000D03*
X15300000Y86350000D03*
X23000000Y87310200D03*
X8800000Y86350000D03*
X21576000Y74801000D03*
X46229400Y63922000D03*
%TO.N,/NFC {slash} PN7160 {slash} 0x28/NFC_RXN*%
X23750000Y83100000D03*
X25467500Y90900000D03*
%TO.N,/NFC {slash} PN7160 {slash} 0x28/NFC_TX2*%
X23878900Y75225800D03*
X27687500Y86012500D03*
X29227500Y90900000D03*
%TO.N,/NFC {slash} PN7160 {slash} 0x28/NFC_TX1*%
X22044100Y83844100D03*
X30400000Y92400000D03*
X30082500Y87068800D03*
%TO.N,/OLED {slash} SSD1309 {slash} 0x3C/OLED_IREF*%
X21779100Y45184000D03*
X26581400Y48079000D03*
%TO.N,/Power + ESP32-C3/USB_ESD_D+*%
X47950000Y40700000D03*
X15300000Y45450000D03*
%TO.N,/Power + ESP32-C3/USB_ESD_D-*%
X46550000Y40700000D03*
X13200000Y49700000D03*
%TO.N,/Power + ESP32-C3/STRAP_GPIO8*%
X40702300Y66077300D03*
X44900000Y63916100D03*
%TO.N,/Power + ESP32-C3/BUCK_FB*%
X31350000Y63550000D03*
X33150000Y65600000D03*
%TO.N,/Power + ESP32-C3/STRAP_GPIO2*%
X50970000Y46440000D03*
X40798300Y58586000D03*
%TD*%
%TO.N,/+3V3*%
D16*
X24920000Y41000000D02*
X24920000Y42302000D01*
D17*
X17950000Y97950000D02*
X17950000Y98200000D01*
D16*
X46331000Y66970400D02*
X43562200Y64201600D01*
X24920000Y42302000D02*
X26557700Y43939000D01*
D17*
X17950000Y98200000D02*
X17400000Y98750000D01*
X19700000Y96100000D02*
X18000000Y97800000D01*
D16*
X20133500Y64067300D02*
X11639500Y64067300D01*
X24920000Y28698000D02*
X14945900Y18724000D01*
D18*
X1650000Y87500000D02*
X1850000Y87500000D01*
D17*
X18000000Y97800000D02*
X18000000Y97900000D01*
D16*
X26557700Y43939000D02*
X37687500Y43889000D01*
X43562200Y64201600D02*
X41467200Y64201600D01*
X11639500Y64067300D02*
X1356200Y74350600D01*
D19*
X20850000Y63900000D02*
X21000000Y63750000D01*
D16*
X24920000Y30000000D02*
X24920000Y28698000D01*
D17*
X18000000Y97900000D02*
X17950000Y97950000D01*
D16*
X1356200Y74350600D02*
X1356200Y87331800D01*
X50670000Y66970400D02*
X46331000Y66970400D01*
D19*
X20500000Y63900000D02*
X20850000Y63900000D01*
D16*
X14945900Y18724000D02*
X14945900Y17321000D01*
%TO.N,/Power + ESP32-C3/ESP_EN*%
D18*
X50700000Y65930700D02*
X54764000Y69995300D01*
X50700000Y63952100D02*
X50700000Y65930700D01*
X54764000Y69995300D02*
X54714000Y70039100D01*
%TO.N,GND*%
D17*
X29300000Y87400000D02*
X29200000Y87300000D01*
D20*
X26310200Y78685200D02*
X27074900Y79499900D01*
D17*
X30300000Y88600000D02*
X30300000Y88200000D01*
X30400000Y88700000D02*
X30300000Y88600000D01*
D20*
X26310200Y78685200D02*
X23855600Y78735200D01*
X39150000Y79500000D02*
X41350000Y79500000D01*
X29620500Y79500000D02*
X29620500Y79579200D01*
X43225000Y65826800D02*
X43225000Y67525000D01*
X29620500Y79499900D02*
X29620500Y79500000D01*
X53507000Y70056700D02*
X52725000Y69275000D01*
X27074900Y79499900D02*
X29620500Y79499900D01*
X32850000Y79500000D02*
X30650000Y79500000D01*
D17*
X30300000Y88200000D02*
X29500000Y87400000D01*
D20*
X31121600Y88861800D02*
X30439600Y88911800D01*
X29620500Y79500000D02*
X30650000Y79500000D01*
X7754000Y92646000D02*
X8800000Y91600000D01*
X23855600Y78735200D02*
X21120500Y76000100D01*
D17*
X29500000Y87400000D02*
X29300000Y87400000D01*
%TO.N,/OLED {slash} SSD1309 {slash} 0x3C/OLED_FB*%
X4950000Y78800000D02*
X5000000Y78800000D01*
X5050000Y78850000D02*
X8700000Y78850000D01*
X5000000Y78800000D02*
X5050000Y78850000D01*
%TO.N,/VSYS*%
D21*
X11955700Y64964200D02*
X3562500Y73357400D01*
D22*
X16800000Y43000000D02*
X16700000Y42900000D01*
D19*
X29450000Y61550000D02*
X29450000Y61500000D01*
X29200000Y62100000D02*
X29200000Y62050000D01*
X27000000Y64450000D02*
X29100000Y62350000D01*
D21*
X29801000Y60713500D02*
X24787500Y55700000D01*
D19*
X27350000Y65150000D02*
X28050000Y65850000D01*
X29400000Y61600000D02*
X29450000Y61550000D01*
X29250000Y62000000D02*
X29250000Y61950000D01*
D22*
X17000000Y43000000D02*
X16800000Y43000000D01*
D19*
X29300000Y61900000D02*
X29300000Y61850000D01*
D22*
X21050000Y43450000D02*
X18900000Y43400000D01*
X17500000Y43300000D02*
X17400000Y43200000D01*
D19*
X29100000Y62350000D02*
X29100000Y62250000D01*
X29350000Y61700000D02*
X29400000Y61650000D01*
D21*
X4047700Y90650000D02*
X3562500Y90164800D01*
D19*
X29500000Y61450000D02*
X29500000Y61400000D01*
X29100000Y62250000D02*
X29150000Y62200000D01*
X29550000Y61350000D02*
X29550000Y61250000D01*
D22*
X17100000Y43100000D02*
X17000000Y43000000D01*
D19*
X29400000Y61650000D02*
X29400000Y61600000D01*
D22*
X16700000Y42900000D02*
X16600000Y42900000D01*
D21*
X3562500Y73357400D02*
X3562500Y90164800D01*
D19*
X29250000Y61950000D02*
X29300000Y61900000D01*
X29500000Y61400000D02*
X29550000Y61350000D01*
D22*
X17700000Y43400000D02*
X17600000Y43300000D01*
X17400000Y43200000D02*
X17300000Y43200000D01*
D21*
X8800000Y90650000D02*
X4047700Y90650000D01*
D22*
X17600000Y43300000D02*
X17500000Y43300000D01*
D21*
X26839200Y64964200D02*
X11955700Y64964200D01*
D19*
X29150000Y62150000D02*
X29200000Y62100000D01*
X29350000Y61800000D02*
X29350000Y61700000D01*
D22*
X17200000Y43100000D02*
X17100000Y43100000D01*
D19*
X29450000Y61500000D02*
X29500000Y61450000D01*
X29300000Y61850000D02*
X29350000Y61800000D01*
D22*
X18900000Y43400000D02*
X17700000Y43400000D01*
D19*
X29550000Y61250000D02*
X29600000Y61200000D01*
D21*
X24787500Y55700000D02*
X19741200Y55700000D01*
D19*
X29200000Y62050000D02*
X29250000Y62000000D01*
X29150000Y62200000D02*
X29150000Y62150000D01*
D22*
X17300000Y43200000D02*
X17200000Y43100000D01*
%TO.N,/Power + ESP32-C3/USB_5V*%
D21*
X18069900Y54687000D02*
X13759900Y54687000D01*
X12127100Y58431000D02*
X12195900Y58500000D01*
X12127100Y56320000D02*
X12127100Y58431000D01*
X13759900Y54687000D02*
X12127100Y56320000D01*
%TO.N,/I2C_SDA*%
D18*
X15525400Y88674600D02*
X15200000Y88950000D01*
X7426400Y56917000D02*
X7426400Y67024000D01*
X30000000Y30000000D02*
X29720800Y30000000D01*
X19051100Y88724600D02*
X15525400Y88674600D01*
X29720800Y30000000D02*
X19325000Y19604000D01*
X38629200Y59746000D02*
X29208500Y50326000D01*
X29208500Y50326000D02*
X27076200Y52458000D01*
X29208500Y50326000D02*
X29208500Y47786000D01*
X7426400Y67024000D02*
X6843500Y67606900D01*
X49300900Y59746000D02*
X38629200Y59746000D01*
X50900000Y61295300D02*
X49300900Y59746000D01*
X11886000Y52458000D02*
X7426400Y56917000D01*
X19325000Y19604000D02*
X19325000Y16533000D01*
X27076200Y52458000D02*
X11886000Y52458000D01*
%TO.N,/I2C_SCL*%
X20145500Y19461000D02*
X22051400Y19511000D01*
X12177900Y51954000D02*
X11797300Y51954000D01*
X22051400Y19511000D02*
X32540000Y30000000D01*
X20206500Y46204000D02*
X17142700Y46204000D01*
X21000000Y47048000D02*
X20206500Y46204000D01*
X11797300Y51954000D02*
X6673400Y57028000D01*
X14884700Y49247000D02*
X12177900Y51954000D01*
X17142700Y46204000D02*
X14884700Y48462000D01*
X14884700Y48462000D02*
X14884700Y49247000D01*
%TO.N,/KEY_INT_N*%
X35080000Y41000000D02*
X35458500Y40622000D01*
X35458500Y40622000D02*
X37412700Y40622000D01*
X42034900Y42802000D02*
X42613200Y43380000D01*
X35080000Y30000000D02*
X16950800Y11871000D01*
X39592900Y42802000D02*
X42034900Y42802000D01*
X16950800Y11871000D02*
X16765200Y11871000D01*
X37412700Y40622000D02*
X39592900Y42802000D01*
%TO.N,/NFC {slash} PN7160 {slash} 0x28/NFC_VDDUP*%
D17*
X24950000Y86350000D02*
X23500000Y87800000D01*
X25000000Y86350000D02*
X24950000Y86350000D01*
X23500000Y87800000D02*
X23450000Y87800000D01*
X23450000Y87800000D02*
X23000000Y88250000D01*
%TO.N,/OLED {slash} SSD1309 {slash} 0x3C/OLED_12V5*%
X16600000Y48600000D02*
X16000000Y49200000D01*
D18*
X18859500Y50654000D02*
X24750000Y50654000D01*
X16702621Y48497367D02*
X18859500Y50654000D01*
D17*
X15900000Y49300000D02*
X15700000Y49500000D01*
%TO.N,/Power + ESP32-C3/VBUS*%
D18*
X10800000Y45900000D02*
X10050000Y45900000D01*
D19*
X7900000Y46050000D02*
X7900000Y49700000D01*
X12076200Y45474700D02*
X13203900Y46602400D01*
D18*
X10000000Y45950000D02*
X8150000Y45950000D01*
D19*
X12076200Y45474700D02*
X11840800Y45710000D01*
X7900000Y49700000D02*
X8100000Y49900000D01*
X16291100Y39772300D02*
X13867400Y42246000D01*
D18*
X7650000Y49450000D02*
X5900000Y49450000D01*
D19*
X44647500Y39772300D02*
X16291100Y39772300D01*
D18*
X11600000Y45800000D02*
X10900000Y45800000D01*
D19*
X13867400Y43683400D02*
X12076200Y45474700D01*
X45500000Y40674800D02*
X44647500Y39772300D01*
D18*
X10900000Y45800000D02*
X10800000Y45900000D01*
D19*
X13867400Y42246000D02*
X13867400Y43683400D01*
D18*
X10050000Y45900000D02*
X10000000Y45950000D01*
D19*
X13203900Y46602400D02*
X14239600Y46602400D01*
%TO.N,/NFC {slash} PN7160 {slash} 0x28/NFC_VDD18*%
D17*
X31750000Y92750000D02*
X31800000Y92700000D01*
X31550000Y95850000D02*
X31650000Y95750000D01*
X33100000Y91550000D02*
X33150000Y91500000D01*
X31650000Y95750000D02*
X31650000Y95000000D01*
X31700000Y92900000D02*
X31750000Y92850000D01*
X31050000Y98050000D02*
X28650000Y100450000D01*
X31750000Y92850000D02*
X31750000Y92750000D01*
X31650000Y95000000D02*
X31700000Y94950000D01*
X32950000Y91600000D02*
X33000000Y91550000D01*
X31550000Y96550000D02*
X31550000Y95850000D01*
D18*
X33274400Y91407700D02*
X35292300Y91407700D01*
D17*
X32000000Y92500000D02*
X32900000Y91600000D01*
X28600000Y100450000D02*
X28550000Y100500000D01*
X31700000Y94950000D02*
X31700000Y92900000D01*
X31874243Y92574243D02*
X31892929Y92592929D01*
X32900000Y91600000D02*
X32950000Y91600000D01*
X33000000Y91550000D02*
X33100000Y91550000D01*
X28650000Y100450000D02*
X28600000Y100450000D01*
X31892929Y92592929D02*
X31800000Y92700000D01*
X31874243Y92574243D02*
X32000000Y92500000D01*
%TO.N,/+3V0*%
D18*
X37576700Y42199000D02*
X36982000Y42794000D01*
X36458700Y41307000D02*
X37183300Y41307000D01*
X37576700Y41701000D02*
X37576700Y42199000D01*
X36982000Y42794000D02*
X27100500Y42744000D01*
X37183300Y41307000D02*
X37576700Y41701000D01*
%TO.N,/Power + ESP32-C3/USB_PRESENT_N*%
X41374500Y44072000D02*
X40783600Y43482000D01*
X52369000Y43858000D02*
X52155000Y44072000D01*
X52155000Y44072000D02*
X41374500Y44072000D01*
%TO.N,/Power + ESP32-C3/VBAT*%
D21*
X9926900Y57039000D02*
X8310800Y57039000D01*
X13795700Y53170000D02*
X9926900Y57039000D01*
%TO.N,Net-(U1-PROG)*%
D18*
X13754100Y55982000D02*
X13105500Y56731000D01*
X16503500Y55982000D02*
X13754100Y55982000D01*
%TO.N,/Keyboard {slash} breakaway {slash} 0x20/KEY_P0*%
X11709400Y1348000D02*
X5571500Y7486000D01*
X5571500Y10576000D02*
X6916100Y11871000D01*
X5571500Y7486000D02*
X5571500Y10576000D01*
X22380000Y2500000D02*
X21228300Y1348000D01*
X21228300Y1348000D02*
X11709400Y1348000D01*
%TO.N,/Keyboard {slash} breakaway {slash} 0x20/KEY_P1*%
X6027700Y7601000D02*
X6027700Y9811000D01*
X6027700Y9811000D02*
X6892100Y10625000D01*
X24920000Y2500000D02*
X23768300Y3652000D01*
X23768300Y3652000D02*
X9976600Y3652000D01*
X9976600Y3652000D02*
X6027700Y7601000D01*
%TO.N,/Keyboard {slash} breakaway {slash} 0x20/KEY_P2*%
X10179400Y4078000D02*
X6457200Y7800000D01*
X25881800Y4078000D02*
X10179400Y4078000D01*
X27460000Y2500000D02*
X25881800Y4078000D01*
X6457200Y8940000D02*
X6897800Y9381000D01*
X6457200Y7800000D02*
X6457200Y8940000D01*
%TO.N,/Keyboard {slash} breakaway {slash} 0x20/KEY_P3*%
X27879600Y4620000D02*
X30000000Y2500000D01*
X10507200Y4620000D02*
X27879600Y4620000D01*
X7116800Y8061000D02*
X10507200Y4620000D01*
%TO.N,/Keyboard {slash} breakaway {slash} 0x20/KEY_P4*%
X14800000Y6575000D02*
X28414600Y6625000D01*
X28414600Y6625000D02*
X32540000Y2500000D01*
%TO.N,/Keyboard {slash} breakaway {slash} 0x20/KEY_P5*%
X29519200Y8061000D02*
X35080000Y2500000D01*
X16217500Y8061000D02*
X29519200Y8061000D01*
%TO.N,/Keyboard {slash} breakaway {slash} 0x20/KEY_P6*%
X16201100Y9381000D02*
X30789200Y9331000D01*
X30789200Y9331000D02*
X37620000Y2500000D01*
%TO.N,/Power + ESP32-C3/BOOT_N*%
D17*
X39100000Y65450000D02*
X41800000Y62750000D01*
X41900000Y62550000D02*
X41900000Y62450000D01*
X41850000Y62600000D02*
X41900000Y62550000D01*
X41850000Y62650000D02*
X41850000Y62600000D01*
X41400000Y61700000D02*
X41100000Y61400000D01*
X42050000Y62300000D02*
X41450000Y61700000D01*
X41450000Y61700000D02*
X41400000Y61700000D01*
X41800000Y62750000D02*
X41800000Y62700000D01*
X41900000Y62450000D02*
X41950000Y62400000D01*
X41800000Y62700000D02*
X41850000Y62650000D01*
D18*
X38943400Y66068400D02*
X38993400Y65563500D01*
%TO.N,/OLED_PWR_EN*%
D17*
X5400000Y48600000D02*
X5400000Y46800000D01*
X5300000Y48850000D02*
X5300000Y48750000D01*
X5400000Y46800000D02*
X7650000Y44550000D01*
X9800000Y42300000D02*
X9800000Y38850000D01*
D18*
X48070800Y41930000D02*
X47289200Y41148400D01*
X3562500Y97815900D02*
X6385700Y97765900D01*
D17*
X5350000Y48700000D02*
X5350000Y48650000D01*
D18*
X52511000Y44603000D02*
X53022000Y44092000D01*
D17*
X5350000Y48650000D02*
X5400000Y48600000D01*
X7700000Y44500000D02*
X7700000Y44450000D01*
D18*
X53022000Y44092000D02*
X53022000Y43607000D01*
D17*
X5100000Y49200000D02*
X5150000Y49150000D01*
X7700000Y44450000D02*
X7750000Y44450000D01*
D18*
X5089400Y53230000D02*
X6014300Y54155000D01*
D17*
X5050000Y49300000D02*
X5100000Y49250000D01*
D18*
X6385700Y97765900D02*
X8288300Y95963300D01*
D17*
X5250000Y48900000D02*
X5300000Y48850000D01*
X5150000Y49100000D02*
X5200000Y49050000D01*
D18*
X53022000Y43607000D02*
X51344000Y41930000D01*
D17*
X9800000Y38850000D02*
X9850000Y38800000D01*
X7750000Y44450000D02*
X7750000Y44400000D01*
X5300000Y48750000D02*
X5350000Y48700000D01*
D18*
X47289200Y40073000D02*
X45892200Y38676000D01*
D17*
X5150000Y49150000D02*
X5150000Y49100000D01*
D18*
X47289200Y41148400D02*
X47289200Y40073000D01*
D17*
X7850000Y44250000D02*
X9800000Y42300000D01*
X5250000Y48950000D02*
X5250000Y48900000D01*
X5200000Y49050000D02*
X5200000Y49000000D01*
D18*
X51167000Y44603000D02*
X52511000Y44603000D01*
D17*
X5050000Y53100000D02*
X5050000Y49300000D01*
X7850000Y44300000D02*
X7850000Y44250000D01*
X5200000Y49000000D02*
X5250000Y48950000D01*
D18*
X9929000Y38676000D02*
X15362200Y38676000D01*
D17*
X7650000Y44550000D02*
X7650000Y44500000D01*
D18*
X45892200Y38676000D02*
X15362200Y38676000D01*
D17*
X7750000Y44400000D02*
X7850000Y44300000D01*
D18*
X49400000Y46420000D02*
X51167000Y44603000D01*
D17*
X7650000Y44500000D02*
X7700000Y44500000D01*
X5100000Y49250000D02*
X5100000Y49200000D01*
D18*
X49145700Y41930000D02*
X48070800Y41930000D01*
X51344000Y41930000D02*
X49145700Y41930000D01*
%TO.N,/NFC {slash} PN7160 {slash} 0x28/NFC_TVDD*%
D17*
X26050000Y96250000D02*
X26000000Y96200000D01*
X23050000Y89750000D02*
X23000000Y89700000D01*
X22650000Y93300000D02*
X22600000Y93250000D01*
X23500000Y89950000D02*
X23450000Y89900000D01*
X25350000Y93750000D02*
X25050000Y93450000D01*
X22300000Y93100000D02*
X22250000Y93100000D01*
X26000000Y93500000D02*
X26000000Y93600000D01*
X22150000Y93050000D02*
X21550000Y92450000D01*
D18*
X25899200Y93797100D02*
X25899200Y95900800D01*
D17*
X23200000Y89800000D02*
X23150000Y89800000D01*
X26000000Y93600000D02*
X25950000Y93650000D01*
X21600000Y91850000D02*
X21650000Y91900000D01*
X22750000Y93350000D02*
X22700000Y93300000D01*
X23650000Y90000000D02*
X23600000Y90000000D01*
X23000000Y89700000D02*
X22950000Y89700000D01*
X26000000Y96200000D02*
X26000000Y96100000D01*
X22350000Y93150000D02*
X22300000Y93100000D01*
X21650000Y90400000D02*
X22150000Y89900000D01*
X23450000Y89900000D02*
X23400000Y89900000D01*
X22900000Y93400000D02*
X22850000Y93350000D01*
X22450000Y93200000D02*
X22400000Y93150000D01*
X22850000Y93350000D02*
X22750000Y93350000D01*
X23250000Y89850000D02*
X23200000Y89800000D01*
X22950000Y89700000D02*
X22900000Y89650000D01*
X22257071Y89892929D02*
X22675757Y89474243D01*
X23400000Y89900000D02*
X23350000Y89850000D01*
X28200000Y91300000D02*
X26000000Y93500000D01*
X23550000Y89950000D02*
X23500000Y89950000D01*
X22800000Y89650000D02*
X22750000Y89600000D01*
X28250000Y91450000D02*
X29950000Y93150000D01*
X22600000Y93250000D02*
X22550000Y93250000D01*
X26050000Y102200000D02*
X26050000Y96250000D01*
X22400000Y93150000D02*
X22350000Y93150000D01*
X21600000Y90550000D02*
X21600000Y90400000D01*
X21600000Y90550000D02*
X21600000Y91850000D01*
X23600000Y90000000D02*
X23550000Y89950000D01*
X22900000Y89650000D02*
X22800000Y89650000D01*
X22700000Y93300000D02*
X22650000Y93300000D01*
X24250000Y90600000D02*
X23650000Y90000000D01*
X25750000Y93750000D02*
X25350000Y93750000D01*
X23150000Y89800000D02*
X23100000Y89750000D01*
X22500000Y93200000D02*
X22450000Y93200000D01*
X21650000Y91900000D02*
X21650000Y92350000D01*
X23350000Y89850000D02*
X23250000Y89850000D01*
X22950000Y93400000D02*
X22900000Y93400000D01*
X26000000Y96100000D02*
X25950000Y96050000D01*
X23100000Y89750000D02*
X23050000Y89750000D01*
X23000000Y93450000D02*
X22950000Y93400000D01*
X25050000Y93450000D02*
X23000000Y93450000D01*
X22550000Y93250000D02*
X22500000Y93200000D01*
%TO.N,/NFC {slash} PN7160 {slash} 0x28/NFC_ADR1*%
X19150000Y98150000D02*
X18600000Y98150000D01*
X19700000Y98700000D02*
X19150000Y98150000D01*
%TO.N,/NFC_IRQ*%
X19600000Y93600000D02*
X19500000Y93500000D01*
X15650000Y87350000D02*
X19600000Y87350000D01*
X19500000Y93450000D02*
X19450000Y93400000D01*
X19450000Y93400000D02*
X19450000Y93200000D01*
X19200000Y91750000D02*
X19200000Y89550000D01*
X19250000Y91800000D02*
X19200000Y91750000D01*
X19600000Y93650000D02*
X19600000Y93600000D01*
X19450000Y93200000D02*
X19400000Y93150000D01*
X19200000Y89550000D02*
X19600000Y89150000D01*
X19300000Y91900000D02*
X19250000Y91850000D01*
X19500000Y93500000D02*
X19500000Y93450000D01*
X19250000Y91850000D02*
X19250000Y91800000D01*
X19650000Y89000000D02*
X19700000Y88950000D01*
X19400000Y93150000D02*
X19400000Y92050000D01*
X19650000Y89050000D02*
X19650000Y89000000D01*
X19700000Y88950000D02*
X19700000Y87300000D01*
X19800000Y93850000D02*
X19600000Y93650000D01*
X19400000Y92050000D02*
X19300000Y91950000D01*
X19600000Y89150000D02*
X19600000Y89100000D01*
X19600000Y89100000D02*
X19650000Y89050000D01*
D18*
X15250000Y87250000D02*
X15365300Y87134700D01*
D17*
X19300000Y91950000D02*
X19300000Y91900000D01*
%TO.N,/NFC_VEN*%
X22350000Y87100000D02*
X22400000Y87100000D01*
X18550000Y86800000D02*
X18600000Y86800000D01*
D18*
X46229400Y63528700D02*
X46229400Y63922000D01*
X19006400Y55017000D02*
X26766600Y55017000D01*
D17*
X22200000Y87000000D02*
X22250000Y87050000D01*
X22250000Y87050000D02*
X22300000Y87050000D01*
X21900000Y86900000D02*
X21950000Y86900000D01*
X16400000Y86750000D02*
X18500000Y86750000D01*
X18650000Y86850000D02*
X21850000Y86850000D01*
X22400000Y87100000D02*
X22450000Y87150000D01*
D18*
X32483800Y60734000D02*
X43434700Y60734000D01*
X8155200Y65868000D02*
X19006400Y55017000D01*
D17*
X16200000Y86600000D02*
X16250000Y86600000D01*
X22100000Y86950000D02*
X22150000Y87000000D01*
X21950000Y86900000D02*
X22000000Y86950000D01*
X16250000Y86600000D02*
X16400000Y86750000D01*
X22450000Y87150000D02*
X22550000Y87150000D01*
X22150000Y87000000D02*
X22200000Y87000000D01*
X18600000Y86800000D02*
X18650000Y86850000D01*
D18*
X43434700Y60734000D02*
X46229400Y63528700D01*
X26766600Y55017000D02*
X32483800Y60734000D01*
D17*
X16050000Y86450000D02*
X16200000Y86600000D01*
X22300000Y87050000D02*
X22350000Y87100000D01*
X22000000Y86950000D02*
X22100000Y86950000D01*
X21850000Y86850000D02*
X21900000Y86900000D01*
X15700000Y86450000D02*
X16050000Y86450000D01*
X18500000Y86750000D02*
X18550000Y86800000D01*
X22550000Y87150000D02*
X22600000Y87200000D01*
%TO.N,/NFC {slash} PN7160 {slash} 0x28/NFC_TX2*%
X27850000Y86450000D02*
X27800000Y86400000D01*
X28300000Y87600000D02*
X28250000Y87550000D01*
X28200000Y87250000D02*
X28200000Y87150000D01*
X28450000Y89100000D02*
X28450000Y87850000D01*
X28250000Y87300000D02*
X28200000Y87250000D01*
X29100000Y90500000D02*
X28500000Y89900000D01*
X28500000Y89900000D02*
X28500000Y89150000D01*
X28450000Y87850000D02*
X28350000Y87750000D01*
X28350000Y87750000D02*
X28350000Y87700000D01*
X27900000Y86600000D02*
X27850000Y86550000D01*
D19*
X27687500Y86012500D02*
X27687500Y86142100D01*
D17*
X28000000Y86800000D02*
X27950000Y86750000D01*
X28000000Y86850000D02*
X28000000Y86800000D01*
X28500000Y89150000D02*
X28450000Y89100000D01*
X28050000Y87000000D02*
X28050000Y86900000D01*
X28350000Y87700000D02*
X28300000Y87650000D01*
X27900000Y86650000D02*
X27900000Y86600000D01*
X28250000Y87550000D02*
X28250000Y87300000D01*
X28050000Y86900000D02*
X28000000Y86850000D01*
X27850000Y86550000D02*
X27850000Y86450000D01*
D19*
X27687500Y86142100D02*
X27687500Y86012500D01*
D17*
X27950000Y86700000D02*
X27900000Y86650000D01*
X28300000Y87650000D02*
X28300000Y87600000D01*
X28200000Y87150000D02*
X28050000Y87000000D01*
X27950000Y86750000D02*
X27950000Y86700000D01*
%TO.N,/NFC {slash} PN7160 {slash} 0x28/NFC_TX1*%
D19*
X26957800Y83894100D02*
X22044100Y83844100D01*
X30082500Y87068800D02*
X26957800Y83894100D01*
%TO.N,/OLED {slash} SSD1309 {slash} 0x3C/OLED_IREF*%
D18*
X26581400Y48012000D02*
X25987900Y47418000D01*
X24163200Y47418000D02*
X21779100Y45184000D01*
X25987900Y47418000D02*
X24163200Y47418000D01*
X26581400Y48079000D02*
X26581400Y48012000D01*
%TO.N,/Power + ESP32-C3/BUCK_FB*%
D17*
X31850000Y64100000D02*
X31850000Y64050000D01*
X33100000Y65550000D02*
X33100000Y65350000D01*
X33150000Y65600000D02*
X33100000Y65550000D01*
X31850000Y64050000D02*
X31350000Y63550000D01*
X33100000Y65350000D02*
X31850000Y64100000D01*
%TO.N,/Power + ESP32-C3/STRAP_GPIO2*%
D18*
X40748300Y56662000D02*
X50970000Y46440000D01*
X40798300Y58586000D02*
X40748300Y56662000D01*
%TD*%
%TA.AperFunction,Conductor*%
%TO.N,GND*%
G36*
X18698691Y3282593D02*
G01*
X18734655Y3233093D01*
X18739500Y3202500D01*
X18739500Y1797500D01*
X18720593Y1739309D01*
X18671093Y1703345D01*
X18640500Y1698500D01*
X11895590Y1698500D01*
X11837399Y1717407D01*
X11825586Y1727497D01*
X11813774Y1739309D01*
X10420608Y3132498D01*
X10392832Y3187014D01*
X10402404Y3247446D01*
X10445669Y3290710D01*
X10490613Y3301500D01*
X18640500Y3301500D01*
X18698691Y3282593D01*
G37*
%TD.AperFunction*%
%TA.AperFunction,Conductor*%
G36*
X59458691Y33881093D02*
G01*
X59494655Y33831593D01*
X59499500Y33801000D01*
X59499500Y4002436D01*
X59499381Y3997578D01*
X59482887Y3661839D01*
X59481934Y3652171D01*
X59432972Y3322097D01*
X59431077Y3312568D01*
X59349995Y2988869D01*
X59347175Y2979572D01*
X59234754Y2665379D01*
X59231036Y2656403D01*
X59088361Y2354742D01*
X59083781Y2346174D01*
X58912226Y2059951D01*
X58906828Y2051873D01*
X58708048Y1783850D01*
X58701885Y1776340D01*
X58477786Y1529084D01*
X58470916Y1522214D01*
X58223660Y1298115D01*
X58216150Y1291952D01*
X57948127Y1093172D01*
X57940049Y1087774D01*
X57653826Y916219D01*
X57645258Y911639D01*
X57343597Y768964D01*
X57334621Y765246D01*
X57020428Y652825D01*
X57011131Y650005D01*
X56687432Y568923D01*
X56677903Y567028D01*
X56347829Y518066D01*
X56338161Y517113D01*
X56002422Y500619D01*
X55997564Y500500D01*
X4002436Y500500D01*
X3997578Y500619D01*
X3661838Y517113D01*
X3652170Y518066D01*
X3322096Y567028D01*
X3312567Y568923D01*
X2988868Y650005D01*
X2979571Y652825D01*
X2665378Y765246D01*
X2656402Y768964D01*
X2354741Y911639D01*
X2346173Y916219D01*
X2059950Y1087774D01*
X2051872Y1093172D01*
X1783849Y1291952D01*
X1776339Y1298115D01*
X1593829Y1463532D01*
X1529078Y1522219D01*
X1522218Y1529079D01*
X1351528Y1717407D01*
X1298114Y1776340D01*
X1291951Y1783850D01*
X1093171Y2051873D01*
X1087773Y2059951D01*
X1077217Y2077562D01*
X916216Y2346177D01*
X911638Y2354742D01*
X883901Y2413386D01*
X768961Y2656406D01*
X765245Y2665379D01*
X652820Y2979585D01*
X650008Y2988856D01*
X568919Y3312579D01*
X567029Y3322085D01*
X518063Y3652185D01*
X517113Y3661827D01*
X500619Y3997579D01*
X500500Y4002436D01*
X500500Y10536444D01*
X5220196Y10536444D01*
X5220378Y10534833D01*
X5221000Y10523756D01*
X5221000Y7439856D01*
X5236924Y7380427D01*
X5244886Y7350711D01*
X5262310Y7320532D01*
X5291029Y7270789D01*
X11494185Y1067532D01*
X11494189Y1067529D01*
X11574106Y1021388D01*
X11574108Y1021388D01*
X11574109Y1021387D01*
X11574110Y1021387D01*
X11574111Y1021387D01*
X11574112Y1021386D01*
X11663256Y997500D01*
X11755541Y997500D01*
X21175788Y997500D01*
X21175880Y997495D01*
X21182199Y997496D01*
X21182202Y997495D01*
X21220655Y997500D01*
X21274444Y997500D01*
X21274446Y997501D01*
X21274473Y997505D01*
X21274480Y997507D01*
X21274489Y997507D01*
X21312683Y1007747D01*
X21362565Y1021112D01*
X21363624Y1021380D01*
X21363634Y1021385D01*
X21364726Y1022037D01*
X21405645Y1045669D01*
X21405646Y1045667D01*
X21405652Y1045674D01*
X21442640Y1067028D01*
X21443584Y1067556D01*
X21443594Y1067564D01*
X21444659Y1068669D01*
X21463759Y1087774D01*
X21481940Y1105959D01*
X21481944Y1105965D01*
X21508769Y1132788D01*
X21508770Y1132791D01*
X21513960Y1137980D01*
X21514013Y1138043D01*
X21839418Y1463533D01*
X21893931Y1491317D01*
X21954360Y1481755D01*
X21957555Y1480127D01*
X21957563Y1480125D01*
X21957566Y1480123D01*
X22122293Y1426599D01*
X22122297Y1426598D01*
X22293386Y1399500D01*
X22293389Y1399500D01*
X22466614Y1399500D01*
X22637702Y1426598D01*
X22637706Y1426599D01*
X22802438Y1480124D01*
X22802440Y1480126D01*
X22802445Y1480127D01*
X22956788Y1558768D01*
X23096928Y1660586D01*
X23219414Y1783072D01*
X23321232Y1923212D01*
X23399873Y2077555D01*
X23399874Y2077560D01*
X23399876Y2077562D01*
X23453401Y2242294D01*
X23453402Y2242298D01*
X23480500Y2413386D01*
X23480500Y2586615D01*
X23453402Y2757703D01*
X23453401Y2757707D01*
X23399876Y2922439D01*
X23399874Y2922442D01*
X23399873Y2922443D01*
X23399873Y2922445D01*
X23321232Y3076788D01*
X23272175Y3144309D01*
X23253267Y3202499D01*
X23272174Y3260690D01*
X23321674Y3296654D01*
X23352267Y3301500D01*
X23582076Y3301500D01*
X23640267Y3282593D01*
X23652084Y3272499D01*
X23883689Y3040833D01*
X23911458Y2986315D01*
X23901889Y2925905D01*
X23900129Y2922451D01*
X23900122Y2922436D01*
X23846598Y2757707D01*
X23846597Y2757703D01*
X23819500Y2586615D01*
X23819500Y2413386D01*
X23846597Y2242298D01*
X23846598Y2242294D01*
X23900123Y2077562D01*
X23900125Y2077559D01*
X23913212Y2051873D01*
X23978768Y1923212D01*
X24080586Y1783072D01*
X24203072Y1660586D01*
X24343212Y1558768D01*
X24497555Y1480127D01*
X24497557Y1480127D01*
X24497558Y1480126D01*
X24497561Y1480124D01*
X24662293Y1426599D01*
X24662297Y1426598D01*
X24833386Y1399500D01*
X24833389Y1399500D01*
X25006614Y1399500D01*
X25177702Y1426598D01*
X25177706Y1426599D01*
X25342438Y1480124D01*
X25342440Y1480126D01*
X25342445Y1480127D01*
X25496788Y1558768D01*
X25636928Y1660586D01*
X25759414Y1783072D01*
X25861232Y1923212D01*
X25939873Y2077555D01*
X25939874Y2077560D01*
X25939876Y2077562D01*
X25993401Y2242294D01*
X25993402Y2242298D01*
X26020500Y2413386D01*
X26020500Y2586615D01*
X25993402Y2757703D01*
X25993401Y2757707D01*
X25939876Y2922439D01*
X25939874Y2922442D01*
X25939873Y2922443D01*
X25939873Y2922445D01*
X25861232Y3076788D01*
X25759414Y3216928D01*
X25636928Y3339414D01*
X25496788Y3441232D01*
X25496787Y3441233D01*
X25496785Y3441234D01*
X25342441Y3519875D01*
X25342438Y3519877D01*
X25297905Y3534346D01*
X25248405Y3570310D01*
X25229498Y3628500D01*
X25248406Y3686691D01*
X25297906Y3722655D01*
X25328498Y3727500D01*
X25695628Y3727500D01*
X25753819Y3708593D01*
X25765624Y3698511D01*
X26277185Y3187014D01*
X26423571Y3040647D01*
X26451352Y2986132D01*
X26441784Y2925700D01*
X26441784Y2925699D01*
X26440128Y2922451D01*
X26440123Y2922439D01*
X26386598Y2757707D01*
X26386597Y2757703D01*
X26359500Y2586615D01*
X26359500Y2413386D01*
X26386597Y2242298D01*
X26386598Y2242294D01*
X26440123Y2077562D01*
X26440125Y2077559D01*
X26453212Y2051873D01*
X26518768Y1923212D01*
X26620586Y1783072D01*
X26743072Y1660586D01*
X26883212Y1558768D01*
X27037555Y1480127D01*
X27037557Y1480127D01*
X27037558Y1480126D01*
X27037561Y1480124D01*
X27202293Y1426599D01*
X27202297Y1426598D01*
X27373386Y1399500D01*
X27373389Y1399500D01*
X27546614Y1399500D01*
X27717702Y1426598D01*
X27717706Y1426599D01*
X27882438Y1480124D01*
X27882440Y1480126D01*
X27882445Y1480127D01*
X28036788Y1558768D01*
X28176928Y1660586D01*
X28299414Y1783072D01*
X28401232Y1923212D01*
X28479873Y2077555D01*
X28479874Y2077560D01*
X28479876Y2077562D01*
X28533401Y2242294D01*
X28533402Y2242298D01*
X28560500Y2413386D01*
X28560500Y2586615D01*
X28533402Y2757703D01*
X28533401Y2757707D01*
X28479876Y2922439D01*
X28479874Y2922442D01*
X28479873Y2922443D01*
X28479873Y2922445D01*
X28401232Y3076788D01*
X28299414Y3216928D01*
X28176928Y3339414D01*
X28036788Y3441232D01*
X28036787Y3441233D01*
X28036785Y3441234D01*
X27882441Y3519875D01*
X27882438Y3519877D01*
X27717706Y3573402D01*
X27717702Y3573403D01*
X27546614Y3600500D01*
X27546611Y3600500D01*
X27373389Y3600500D01*
X27373386Y3600500D01*
X27202297Y3573403D01*
X27202293Y3573402D01*
X27037564Y3519878D01*
X27037545Y3519870D01*
X27034165Y3518147D01*
X26973733Y3508580D01*
X26919230Y3536352D01*
X26457944Y3997579D01*
X26355018Y4100492D01*
X26327237Y4155007D01*
X26336805Y4215440D01*
X26380066Y4258707D01*
X26425017Y4269500D01*
X27693436Y4269500D01*
X27751627Y4250593D01*
X27763433Y4240510D01*
X28963553Y3040617D01*
X28991336Y2986103D01*
X28981770Y2925670D01*
X28981769Y2925669D01*
X28980128Y2922449D01*
X28980122Y2922436D01*
X28926598Y2757707D01*
X28926597Y2757703D01*
X28899500Y2586615D01*
X28899500Y2413386D01*
X28926597Y2242298D01*
X28926598Y2242294D01*
X28980123Y2077562D01*
X28980125Y2077559D01*
X28993212Y2051873D01*
X29058768Y1923212D01*
X29160586Y1783072D01*
X29283072Y1660586D01*
X29423212Y1558768D01*
X29577555Y1480127D01*
X29577557Y1480127D01*
X29577558Y1480126D01*
X29577561Y1480124D01*
X29742293Y1426599D01*
X29742297Y1426598D01*
X29913386Y1399500D01*
X29913389Y1399500D01*
X30086614Y1399500D01*
X30257702Y1426598D01*
X30257706Y1426599D01*
X30422438Y1480124D01*
X30422440Y1480126D01*
X30422445Y1480127D01*
X30576788Y1558768D01*
X30716928Y1660586D01*
X30839414Y1783072D01*
X30941232Y1923212D01*
X31019873Y2077555D01*
X31019874Y2077560D01*
X31019876Y2077562D01*
X31073401Y2242294D01*
X31073402Y2242298D01*
X31100500Y2413386D01*
X31100500Y2586615D01*
X31073402Y2757703D01*
X31073401Y2757707D01*
X31019876Y2922439D01*
X31019874Y2922442D01*
X31019873Y2922443D01*
X31019873Y2922445D01*
X30941232Y3076788D01*
X30839414Y3216928D01*
X30716928Y3339414D01*
X30576788Y3441232D01*
X30576787Y3441233D01*
X30576785Y3441234D01*
X30422441Y3519875D01*
X30422438Y3519877D01*
X30257706Y3573402D01*
X30257702Y3573403D01*
X30086614Y3600500D01*
X30086611Y3600500D01*
X29913389Y3600500D01*
X29913386Y3600500D01*
X29742297Y3573403D01*
X29742293Y3573402D01*
X29577561Y3519877D01*
X29577546Y3519870D01*
X29574129Y3518129D01*
X29513696Y3508565D01*
X29459198Y3536334D01*
X29343339Y3652171D01*
X28121316Y4873965D01*
X28121313Y4873970D01*
X28121313Y4873969D01*
X28094807Y4900474D01*
X28094782Y4900493D01*
X28050818Y4925871D01*
X28050812Y4925874D01*
X28014873Y4946623D01*
X27970979Y4958380D01*
X27970973Y4958382D01*
X27925740Y4970501D01*
X27925713Y4970505D01*
X27884694Y4970500D01*
X10695342Y4970500D01*
X10637151Y4989407D01*
X10624822Y5000017D01*
X9057173Y6591063D01*
X8995105Y6654057D01*
X14199500Y6654057D01*
X14199500Y6495943D01*
X14240423Y6343216D01*
X14319480Y6206284D01*
X14431284Y6094480D01*
X14568216Y6015423D01*
X14720943Y5974500D01*
X14720945Y5974500D01*
X14879055Y5974500D01*
X14879057Y5974500D01*
X15031784Y6015423D01*
X15168716Y6094480D01*
X15271728Y6197493D01*
X15326243Y6225269D01*
X15341353Y6226486D01*
X28228744Y6273816D01*
X28287003Y6255123D01*
X28299105Y6244825D01*
X28528529Y6015424D01*
X31503580Y3040662D01*
X31531360Y2986147D01*
X31521793Y2925716D01*
X31520126Y2922446D01*
X31520123Y2922439D01*
X31466598Y2757707D01*
X31466597Y2757703D01*
X31439500Y2586615D01*
X31439500Y2413386D01*
X31466597Y2242298D01*
X31466598Y2242294D01*
X31520123Y2077562D01*
X31520125Y2077559D01*
X31533212Y2051873D01*
X31598768Y1923212D01*
X31700586Y1783072D01*
X31823072Y1660586D01*
X31963212Y1558768D01*
X32117555Y1480127D01*
X32117557Y1480127D01*
X32117558Y1480126D01*
X32117561Y1480124D01*
X32282293Y1426599D01*
X32282297Y1426598D01*
X32453386Y1399500D01*
X32453389Y1399500D01*
X32626614Y1399500D01*
X32797702Y1426598D01*
X32797706Y1426599D01*
X32962438Y1480124D01*
X32962440Y1480126D01*
X32962445Y1480127D01*
X33116788Y1558768D01*
X33256928Y1660586D01*
X33379414Y1783072D01*
X33481232Y1923212D01*
X33559873Y2077555D01*
X33559874Y2077560D01*
X33559876Y2077562D01*
X33613401Y2242294D01*
X33613402Y2242298D01*
X33640500Y2413386D01*
X33640500Y2586615D01*
X33613402Y2757703D01*
X33613401Y2757707D01*
X33559876Y2922439D01*
X33559874Y2922442D01*
X33559873Y2922443D01*
X33559873Y2922445D01*
X33481232Y3076788D01*
X33379414Y3216928D01*
X33256928Y3339414D01*
X33116788Y3441232D01*
X33116787Y3441233D01*
X33116785Y3441234D01*
X32962441Y3519875D01*
X32962438Y3519877D01*
X32797706Y3573402D01*
X32797702Y3573403D01*
X32626614Y3600500D01*
X32626611Y3600500D01*
X32453389Y3600500D01*
X32453386Y3600500D01*
X32282297Y3573403D01*
X32282293Y3573402D01*
X32117561Y3519877D01*
X32117546Y3519870D01*
X32114178Y3518154D01*
X32053745Y3508590D01*
X31999244Y3536362D01*
X28699538Y6835748D01*
X28697650Y6837893D01*
X28662092Y6873191D01*
X28661837Y6873445D01*
X28629796Y6905483D01*
X28629728Y6905535D01*
X28629454Y6905744D01*
X28628804Y6906243D01*
X28628782Y6906256D01*
X28628781Y6906257D01*
X28589378Y6928815D01*
X28549872Y6951621D01*
X28549871Y6951622D01*
X28549856Y6951630D01*
X28549283Y6951865D01*
X28548981Y6951989D01*
X28548697Y6952107D01*
X28504746Y6963711D01*
X28504488Y6963780D01*
X28483165Y6969492D01*
X28460698Y6975510D01*
X28460160Y6975578D01*
X28459816Y6975622D01*
X28459471Y6975668D01*
X28414109Y6975501D01*
X28413752Y6975500D01*
X28363721Y6975498D01*
X28360866Y6975306D01*
X15338129Y6927479D01*
X15279869Y6946172D01*
X15267767Y6956469D01*
X15168716Y7055520D01*
X15031784Y7134577D01*
X14879057Y7175500D01*
X14720943Y7175500D01*
X14568216Y7134577D01*
X14431284Y7055520D01*
X14319480Y6943716D01*
X14240423Y6806784D01*
X14199500Y6654057D01*
X8995105Y6654057D01*
X7745780Y7922028D01*
X7718407Y7976749D01*
X7717300Y7991511D01*
X7717300Y8140056D01*
X7717300Y8140057D01*
X7676377Y8292784D01*
X7597320Y8429716D01*
X7485516Y8541520D01*
X7348584Y8620577D01*
X7195857Y8661500D01*
X7192263Y8662463D01*
X7140948Y8695787D01*
X7119022Y8752909D01*
X7134858Y8812009D01*
X7168383Y8843824D01*
X7266516Y8900480D01*
X7378320Y9012284D01*
X7457377Y9149216D01*
X7498300Y9301943D01*
X7498300Y9460057D01*
X15600600Y9460057D01*
X15600600Y9301943D01*
X15641523Y9149216D01*
X15720580Y9012284D01*
X15832384Y8900480D01*
X15969316Y8821423D01*
X15995417Y8814430D01*
X16046730Y8781106D01*
X16068657Y8723984D01*
X16052821Y8664884D01*
X16005271Y8626379D01*
X15995418Y8623177D01*
X15985718Y8620578D01*
X15985716Y8620578D01*
X15985716Y8620577D01*
X15848784Y8541520D01*
X15736980Y8429716D01*
X15657923Y8292784D01*
X15617000Y8140057D01*
X15617000Y7981943D01*
X15657923Y7829216D01*
X15736980Y7692284D01*
X15848784Y7580480D01*
X15985716Y7501423D01*
X16138443Y7460500D01*
X16138445Y7460500D01*
X16296555Y7460500D01*
X16296557Y7460500D01*
X16449284Y7501423D01*
X16586216Y7580480D01*
X16687241Y7681506D01*
X16741756Y7709281D01*
X16757243Y7710500D01*
X29333006Y7710500D01*
X29391197Y7691593D01*
X29403009Y7681504D01*
X33801762Y3282593D01*
X34043620Y3040727D01*
X34071396Y2986210D01*
X34061831Y2925793D01*
X34060130Y2922456D01*
X34060123Y2922439D01*
X34006598Y2757707D01*
X34006597Y2757703D01*
X33979500Y2586615D01*
X33979500Y2413386D01*
X34006597Y2242298D01*
X34006598Y2242294D01*
X34060123Y2077562D01*
X34060125Y2077559D01*
X34073212Y2051873D01*
X34138768Y1923212D01*
X34240586Y1783072D01*
X34363072Y1660586D01*
X34503212Y1558768D01*
X34657555Y1480127D01*
X34657557Y1480127D01*
X34657558Y1480126D01*
X34657561Y1480124D01*
X34822293Y1426599D01*
X34822297Y1426598D01*
X34993386Y1399500D01*
X34993389Y1399500D01*
X35166614Y1399500D01*
X35337702Y1426598D01*
X35337706Y1426599D01*
X35502438Y1480124D01*
X35502440Y1480126D01*
X35502445Y1480127D01*
X35656788Y1558768D01*
X35796928Y1660586D01*
X35919414Y1783072D01*
X36021232Y1923212D01*
X36099873Y2077555D01*
X36099874Y2077560D01*
X36099876Y2077562D01*
X36153401Y2242294D01*
X36153402Y2242298D01*
X36180500Y2413386D01*
X36180500Y2586615D01*
X36153402Y2757703D01*
X36153401Y2757707D01*
X36099876Y2922439D01*
X36099874Y2922442D01*
X36099873Y2922443D01*
X36099873Y2922445D01*
X36021232Y3076788D01*
X35919414Y3216928D01*
X35796928Y3339414D01*
X35656788Y3441232D01*
X35656787Y3441233D01*
X35656785Y3441234D01*
X35502441Y3519875D01*
X35502438Y3519877D01*
X35337706Y3573402D01*
X35337702Y3573403D01*
X35166614Y3600500D01*
X35166611Y3600500D01*
X34993389Y3600500D01*
X34993386Y3600500D01*
X34822297Y3573403D01*
X34822293Y3573402D01*
X34657561Y3519877D01*
X34657557Y3519875D01*
X34654249Y3518189D01*
X34593815Y3508625D01*
X34539308Y3536402D01*
X29734420Y8341464D01*
X29734417Y8341466D01*
X29654494Y8387612D01*
X29654489Y8387614D01*
X29654484Y8387616D01*
X29653723Y8387921D01*
X29651064Y8388532D01*
X29619522Y8396984D01*
X29568204Y8410735D01*
X29566014Y8411392D01*
X29565349Y8411500D01*
X29565347Y8411500D01*
X29565344Y8411500D01*
X16757243Y8411500D01*
X16699052Y8430407D01*
X16687245Y8440491D01*
X16586216Y8541520D01*
X16449284Y8620577D01*
X16449281Y8620578D01*
X16423181Y8627572D01*
X16371867Y8660897D01*
X16349942Y8718019D01*
X16365779Y8777119D01*
X16413330Y8815623D01*
X16423169Y8818821D01*
X16432884Y8821423D01*
X16569816Y8900480D01*
X16668995Y8999660D01*
X16723510Y9027436D01*
X16739334Y9028654D01*
X30602706Y8981138D01*
X30660832Y8962032D01*
X30672372Y8952142D01*
X36583618Y3040723D01*
X36611394Y2986206D01*
X36601829Y2925788D01*
X36600130Y2922453D01*
X36600122Y2922436D01*
X36546598Y2757707D01*
X36546597Y2757703D01*
X36519500Y2586615D01*
X36519500Y2413386D01*
X36546597Y2242298D01*
X36546598Y2242294D01*
X36600123Y2077562D01*
X36600125Y2077559D01*
X36613212Y2051873D01*
X36678768Y1923212D01*
X36780586Y1783072D01*
X36903072Y1660586D01*
X37043212Y1558768D01*
X37197555Y1480127D01*
X37197557Y1480127D01*
X37197558Y1480126D01*
X37197561Y1480124D01*
X37362293Y1426599D01*
X37362297Y1426598D01*
X37533386Y1399500D01*
X37533389Y1399500D01*
X37706614Y1399500D01*
X37877702Y1426598D01*
X37877706Y1426599D01*
X38042438Y1480124D01*
X38042440Y1480126D01*
X38042445Y1480127D01*
X38196788Y1558768D01*
X38336928Y1660586D01*
X38459414Y1783072D01*
X38561232Y1923212D01*
X38639873Y2077555D01*
X38639874Y2077560D01*
X38639876Y2077562D01*
X38693401Y2242294D01*
X38693402Y2242298D01*
X38720500Y2413386D01*
X38720500Y2586615D01*
X39059500Y2586615D01*
X39059500Y2413386D01*
X39086597Y2242298D01*
X39086598Y2242294D01*
X39140123Y2077562D01*
X39140125Y2077559D01*
X39153212Y2051873D01*
X39218768Y1923212D01*
X39320586Y1783072D01*
X39443072Y1660586D01*
X39583212Y1558768D01*
X39737555Y1480127D01*
X39737557Y1480127D01*
X39737558Y1480126D01*
X39737561Y1480124D01*
X39902293Y1426599D01*
X39902297Y1426598D01*
X40073386Y1399500D01*
X40073389Y1399500D01*
X40246614Y1399500D01*
X40417702Y1426598D01*
X40417706Y1426599D01*
X40582438Y1480124D01*
X40582440Y1480126D01*
X40582445Y1480127D01*
X40736788Y1558768D01*
X40876928Y1660586D01*
X40999414Y1783072D01*
X41101232Y1923212D01*
X41179873Y2077555D01*
X41179874Y2077560D01*
X41179876Y2077562D01*
X41233401Y2242294D01*
X41233402Y2242298D01*
X41260500Y2413386D01*
X41260500Y2586615D01*
X41233402Y2757703D01*
X41233401Y2757707D01*
X41179876Y2922439D01*
X41179874Y2922442D01*
X41179873Y2922443D01*
X41179873Y2922445D01*
X41101232Y3076788D01*
X40999414Y3216928D01*
X40876928Y3339414D01*
X40736788Y3441232D01*
X40736787Y3441233D01*
X40736785Y3441234D01*
X40582441Y3519875D01*
X40582438Y3519877D01*
X40417706Y3573402D01*
X40417702Y3573403D01*
X40246614Y3600500D01*
X40246611Y3600500D01*
X40073389Y3600500D01*
X40073386Y3600500D01*
X39902297Y3573403D01*
X39902293Y3573402D01*
X39737561Y3519877D01*
X39737558Y3519875D01*
X39583214Y3441234D01*
X39443073Y3339415D01*
X39320585Y3216927D01*
X39218766Y3076786D01*
X39140125Y2922442D01*
X39140123Y2922439D01*
X39086598Y2757707D01*
X39086597Y2757703D01*
X39059500Y2586615D01*
X38720500Y2586615D01*
X38693402Y2757703D01*
X38693401Y2757707D01*
X38639876Y2922439D01*
X38639874Y2922442D01*
X38639873Y2922443D01*
X38639873Y2922445D01*
X38561232Y3076788D01*
X38459414Y3216928D01*
X38336928Y3339414D01*
X38196788Y3441232D01*
X38196787Y3441233D01*
X38196785Y3441234D01*
X38042441Y3519875D01*
X38042438Y3519877D01*
X37877706Y3573402D01*
X37877702Y3573403D01*
X37706614Y3600500D01*
X37706611Y3600500D01*
X37533389Y3600500D01*
X37533386Y3600500D01*
X37362297Y3573403D01*
X37362293Y3573402D01*
X37197564Y3519878D01*
X37197552Y3519872D01*
X37194251Y3518190D01*
X37133819Y3508622D01*
X37079306Y3536399D01*
X37042304Y3573402D01*
X31037302Y9578580D01*
X31005372Y9610730D01*
X31005371Y9610731D01*
X31005350Y9610752D01*
X31004780Y9611189D01*
X31004515Y9611393D01*
X31004429Y9611459D01*
X31004417Y9611466D01*
X31004416Y9611467D01*
X30983095Y9623778D01*
X30964848Y9634313D01*
X30964893Y9634392D01*
X30964557Y9634482D01*
X30941847Y9647698D01*
X30925587Y9657160D01*
X30925267Y9657292D01*
X30924924Y9657435D01*
X30924517Y9657606D01*
X30880605Y9669373D01*
X30880280Y9669461D01*
X30836529Y9681345D01*
X30836360Y9681367D01*
X30835912Y9681426D01*
X30835373Y9681500D01*
X30790056Y9681500D01*
X30789719Y9681501D01*
X16742357Y9729648D01*
X16684231Y9748754D01*
X16672698Y9758638D01*
X16569816Y9861520D01*
X16432884Y9940577D01*
X16280157Y9981500D01*
X16122043Y9981500D01*
X15969316Y9940577D01*
X15832384Y9861520D01*
X15720580Y9749716D01*
X15641523Y9612784D01*
X15600600Y9460057D01*
X7498300Y9460057D01*
X7457377Y9612784D01*
X7378320Y9749716D01*
X7266516Y9861520D01*
X7266513Y9861522D01*
X7167114Y9918910D01*
X7126173Y9964379D01*
X7119777Y10025229D01*
X7150370Y10078217D01*
X7167109Y10090380D01*
X7260816Y10144480D01*
X7372620Y10256284D01*
X7451677Y10393216D01*
X7492600Y10545943D01*
X7492600Y10704057D01*
X7451677Y10856784D01*
X7372620Y10993716D01*
X7260816Y11105520D01*
X7174530Y11155337D01*
X7133591Y11200805D01*
X7127195Y11261655D01*
X7157788Y11314643D01*
X7174525Y11326805D01*
X7284816Y11390480D01*
X7396620Y11502284D01*
X7475677Y11639216D01*
X7516600Y11791943D01*
X7516600Y11950057D01*
X16164700Y11950057D01*
X16164700Y11791943D01*
X16205623Y11639216D01*
X16284680Y11502284D01*
X16396484Y11390480D01*
X16533416Y11311423D01*
X16686143Y11270500D01*
X16686145Y11270500D01*
X16844255Y11270500D01*
X16844257Y11270500D01*
X16996984Y11311423D01*
X17133916Y11390480D01*
X17245720Y11502284D01*
X17320066Y11631057D01*
X18703300Y11631057D01*
X18703300Y11472943D01*
X18744223Y11320216D01*
X18823280Y11183284D01*
X18935084Y11071480D01*
X19072016Y10992423D01*
X19224743Y10951500D01*
X19224745Y10951500D01*
X19382855Y10951500D01*
X19382857Y10951500D01*
X19535584Y10992423D01*
X19672516Y11071480D01*
X19784320Y11183284D01*
X19863377Y11320216D01*
X19904300Y11472943D01*
X19904300Y11631057D01*
X19863377Y11783784D01*
X19784320Y11920716D01*
X19672516Y12032520D01*
X19535584Y12111577D01*
X19382857Y12152500D01*
X19224743Y12152500D01*
X19072016Y12111577D01*
X18935084Y12032520D01*
X18823280Y11920716D01*
X18744223Y11783784D01*
X18703300Y11631057D01*
X17320066Y11631057D01*
X17324777Y11639216D01*
X17358202Y11763965D01*
X17383823Y11808341D01*
X34539287Y28963617D01*
X34593802Y28991392D01*
X34654231Y28981821D01*
X34657555Y28980127D01*
X34657560Y28980126D01*
X34657561Y28980125D01*
X34657563Y28980124D01*
X34822293Y28926599D01*
X34822297Y28926598D01*
X34993386Y28899500D01*
X34993389Y28899500D01*
X35166614Y28899500D01*
X35337702Y28926598D01*
X35337706Y28926599D01*
X35502438Y28980124D01*
X35502440Y28980126D01*
X35502445Y28980127D01*
X35656788Y29058768D01*
X35796928Y29160586D01*
X35919414Y29283072D01*
X36021232Y29423212D01*
X36099873Y29577555D01*
X36099874Y29577560D01*
X36099876Y29577562D01*
X36153401Y29742294D01*
X36153402Y29742298D01*
X36180500Y29913386D01*
X36180500Y30086615D01*
X36153402Y30257703D01*
X36153401Y30257707D01*
X36099876Y30422439D01*
X36099874Y30422442D01*
X36099873Y30422443D01*
X36099873Y30422445D01*
X36021232Y30576788D01*
X35919414Y30716928D01*
X35796928Y30839414D01*
X35656788Y30941232D01*
X35656787Y30941233D01*
X35656785Y30941234D01*
X35502441Y31019875D01*
X35502438Y31019877D01*
X35337706Y31073402D01*
X35337702Y31073403D01*
X35166614Y31100500D01*
X35166611Y31100500D01*
X34993389Y31100500D01*
X34993386Y31100500D01*
X34822297Y31073403D01*
X34822293Y31073402D01*
X34657561Y31019877D01*
X34657558Y31019875D01*
X34503214Y30941234D01*
X34363073Y30839415D01*
X34240585Y30716927D01*
X34138766Y30576786D01*
X34060125Y30422442D01*
X34060123Y30422439D01*
X34006598Y30257707D01*
X34006597Y30257703D01*
X33979500Y30086615D01*
X33979500Y29913386D01*
X34006597Y29742298D01*
X34006598Y29742294D01*
X34060123Y29577562D01*
X34060128Y29577550D01*
X34061814Y29574242D01*
X34071382Y29513809D01*
X34043605Y29459298D01*
X17051370Y12467251D01*
X16996853Y12439474D01*
X16955745Y12441628D01*
X16866686Y12465491D01*
X16844257Y12471500D01*
X16686143Y12471500D01*
X16533416Y12430577D01*
X16396484Y12351520D01*
X16284680Y12239716D01*
X16205623Y12102784D01*
X16164700Y11950057D01*
X7516600Y11950057D01*
X7475677Y12102784D01*
X7396620Y12239716D01*
X7284816Y12351520D01*
X7147884Y12430577D01*
X6995157Y12471500D01*
X6837043Y12471500D01*
X6684316Y12430577D01*
X6547384Y12351520D01*
X6435580Y12239716D01*
X6356523Y12102784D01*
X6315600Y11950056D01*
X6315600Y11821380D01*
X6296693Y11763189D01*
X6285276Y11750074D01*
X5365988Y10864697D01*
X5357594Y10857472D01*
X5356293Y10856474D01*
X5326674Y10826856D01*
X5325350Y10825558D01*
X5295120Y10796442D01*
X5294077Y10795134D01*
X5293803Y10794828D01*
X5293615Y10794582D01*
X5292503Y10793162D01*
X5292293Y10792900D01*
X5292045Y10792535D01*
X5291031Y10791214D01*
X5270091Y10754946D01*
X5269149Y10753348D01*
X5247483Y10717399D01*
X5246820Y10715877D01*
X5246629Y10715500D01*
X5246513Y10715218D01*
X5245799Y10713538D01*
X5245658Y10713215D01*
X5245521Y10712825D01*
X5244888Y10711297D01*
X5234034Y10670793D01*
X5233538Y10669008D01*
X5221928Y10628717D01*
X5221683Y10627090D01*
X5221594Y10626663D01*
X5221548Y10626313D01*
X5221294Y10624516D01*
X5221248Y10624212D01*
X5221216Y10623782D01*
X5221000Y10622141D01*
X5221000Y10580211D01*
X5220983Y10578354D01*
X5220196Y10536444D01*
X500500Y10536444D01*
X500500Y16612057D01*
X18724500Y16612057D01*
X18724500Y16453943D01*
X18765423Y16301216D01*
X18844480Y16164284D01*
X18956284Y16052480D01*
X19093216Y15973423D01*
X19245943Y15932500D01*
X19245945Y15932500D01*
X19404055Y15932500D01*
X19404057Y15932500D01*
X19556784Y15973423D01*
X19693716Y16052480D01*
X19805520Y16164284D01*
X19884577Y16301216D01*
X19925500Y16453943D01*
X19925500Y16612057D01*
X19884577Y16764784D01*
X19805520Y16901716D01*
X19704494Y17002742D01*
X19676719Y17057256D01*
X19675500Y17072743D01*
X19675500Y18867484D01*
X19694407Y18925675D01*
X19743907Y18961639D01*
X19805093Y18961639D01*
X19823993Y18953225D01*
X19913716Y18901423D01*
X20066443Y18860500D01*
X20066445Y18860500D01*
X20224555Y18860500D01*
X20224557Y18860500D01*
X20377284Y18901423D01*
X20514216Y18980480D01*
X20626020Y19092284D01*
X20626021Y19092287D01*
X20629621Y19095886D01*
X20684138Y19123664D01*
X20697025Y19124849D01*
X22054710Y19160468D01*
X22057306Y19160501D01*
X22097545Y19160501D01*
X22097550Y19160501D01*
X22097554Y19160503D01*
X22102137Y19161107D01*
X22106708Y19161831D01*
X22106720Y19161831D01*
X22145388Y19173288D01*
X22147762Y19173958D01*
X22186694Y19184389D01*
X22186700Y19184393D01*
X22191005Y19186177D01*
X22195201Y19188045D01*
X22195207Y19188046D01*
X22229519Y19209077D01*
X22231757Y19210408D01*
X22266616Y19230533D01*
X22266615Y19230533D01*
X22266618Y19230534D01*
X22266620Y19230537D01*
X22270255Y19233326D01*
X22273883Y19236265D01*
X22273894Y19236271D01*
X22301626Y19265500D01*
X22303364Y19267284D01*
X31999310Y28963600D01*
X32053825Y28991378D01*
X32114255Y28981809D01*
X32117555Y28980127D01*
X32117561Y28980124D01*
X32282293Y28926599D01*
X32282297Y28926598D01*
X32453386Y28899500D01*
X32453389Y28899500D01*
X32626614Y28899500D01*
X32797702Y28926598D01*
X32797706Y28926599D01*
X32962438Y28980124D01*
X32962440Y28980126D01*
X32962445Y28980127D01*
X33116788Y29058768D01*
X33256928Y29160586D01*
X33379414Y29283072D01*
X33481232Y29423212D01*
X33559873Y29577555D01*
X33559874Y29577560D01*
X33559876Y29577562D01*
X33613401Y29742294D01*
X33613402Y29742298D01*
X33640500Y29913386D01*
X33640500Y30086615D01*
X33613402Y30257703D01*
X33613401Y30257707D01*
X33559876Y30422439D01*
X33559874Y30422442D01*
X33559873Y30422443D01*
X33559873Y30422445D01*
X33481232Y30576788D01*
X33379414Y30716928D01*
X33256928Y30839414D01*
X33116788Y30941232D01*
X33116787Y30941233D01*
X33116785Y30941234D01*
X32962441Y31019875D01*
X32962438Y31019877D01*
X32797706Y31073402D01*
X32797702Y31073403D01*
X32626614Y31100500D01*
X32626611Y31100500D01*
X32453389Y31100500D01*
X32453386Y31100500D01*
X32282297Y31073403D01*
X32282293Y31073402D01*
X32117561Y31019877D01*
X32117558Y31019875D01*
X31963214Y30941234D01*
X31823073Y30839415D01*
X31700585Y30716927D01*
X31598766Y30576786D01*
X31520125Y30422442D01*
X31520123Y30422439D01*
X31466598Y30257707D01*
X31466597Y30257703D01*
X31439500Y30086615D01*
X31439500Y29913386D01*
X31466597Y29742298D01*
X31466598Y29742294D01*
X31520123Y29577562D01*
X31520127Y29577554D01*
X31521829Y29574213D01*
X31531395Y29513780D01*
X31503620Y29459274D01*
X21930353Y19885642D01*
X21875837Y19857863D01*
X21862944Y19856678D01*
X20673890Y19825483D01*
X20615224Y19842858D01*
X20601295Y19854441D01*
X20514216Y19941520D01*
X20400234Y20007327D01*
X20359294Y20052796D01*
X20352898Y20113646D01*
X20379730Y20163065D01*
X29277733Y29061240D01*
X29332247Y29089016D01*
X29392679Y29079445D01*
X29405920Y29071331D01*
X29423212Y29058768D01*
X29577555Y28980127D01*
X29577557Y28980127D01*
X29577558Y28980126D01*
X29577561Y28980124D01*
X29742293Y28926599D01*
X29742297Y28926598D01*
X29913386Y28899500D01*
X29913389Y28899500D01*
X30086614Y28899500D01*
X30257702Y28926598D01*
X30257706Y28926599D01*
X30422438Y28980124D01*
X30422440Y28980126D01*
X30422445Y28980127D01*
X30576788Y29058768D01*
X30716928Y29160586D01*
X30839414Y29283072D01*
X30941232Y29423212D01*
X31019873Y29577555D01*
X31019874Y29577560D01*
X31019876Y29577562D01*
X31073401Y29742294D01*
X31073402Y29742298D01*
X31100500Y29913386D01*
X31100500Y30086615D01*
X31073402Y30257703D01*
X31073401Y30257707D01*
X31019876Y30422439D01*
X31019874Y30422442D01*
X31019873Y30422443D01*
X31019873Y30422445D01*
X30941232Y30576788D01*
X30839414Y30716928D01*
X30716928Y30839414D01*
X30576788Y30941232D01*
X30576787Y30941233D01*
X30576785Y30941234D01*
X30422441Y31019875D01*
X30422438Y31019877D01*
X30257706Y31073402D01*
X30257702Y31073403D01*
X30086614Y31100500D01*
X30086611Y31100500D01*
X29913389Y31100500D01*
X29913386Y31100500D01*
X29742297Y31073403D01*
X29742293Y31073402D01*
X29577561Y31019877D01*
X29577558Y31019875D01*
X29423214Y30941234D01*
X29283073Y30839415D01*
X29160585Y30716927D01*
X29058766Y30576786D01*
X28980125Y30422442D01*
X28980123Y30422439D01*
X28926598Y30257707D01*
X28926597Y30257703D01*
X28899500Y30086615D01*
X28899500Y29913386D01*
X28924289Y29756875D01*
X28914718Y29696443D01*
X28896512Y29671385D01*
X19044527Y19819210D01*
X19033578Y19800243D01*
X19031716Y19797017D01*
X19017020Y19771564D01*
X18998387Y19739291D01*
X18974500Y19650143D01*
X18974500Y17072743D01*
X18955593Y17014552D01*
X18945509Y17002746D01*
X18844480Y16901716D01*
X18765423Y16764784D01*
X18724500Y16612057D01*
X500500Y16612057D01*
X500500Y17400057D01*
X14345400Y17400057D01*
X14345400Y17241943D01*
X14386323Y17089216D01*
X14465380Y16952284D01*
X14577184Y16840480D01*
X14714116Y16761423D01*
X14866843Y16720500D01*
X14866845Y16720500D01*
X15024955Y16720500D01*
X15024957Y16720500D01*
X15177684Y16761423D01*
X15314616Y16840480D01*
X15426420Y16952284D01*
X15505477Y17089216D01*
X15546400Y17241943D01*
X15546400Y17400057D01*
X15505477Y17552784D01*
X15459663Y17632138D01*
X15446400Y17681637D01*
X15446400Y18475679D01*
X15465307Y18533870D01*
X15475397Y18545683D01*
X25227311Y28297499D01*
X25227314Y28297500D01*
X25320500Y28390686D01*
X25386392Y28504814D01*
X25398875Y28551406D01*
X25420500Y28632105D01*
X25420501Y28763890D01*
X25420500Y28763894D01*
X25420500Y28800500D01*
X25439407Y28858691D01*
X25488907Y28894655D01*
X25519500Y28899500D01*
X25794673Y28899500D01*
X25794674Y28899500D01*
X25867740Y28914034D01*
X25950601Y28969399D01*
X26005966Y29052260D01*
X26020500Y29125326D01*
X26020500Y30874674D01*
X26005966Y30947740D01*
X25957768Y31019875D01*
X25950602Y31030600D01*
X25950599Y31030603D01*
X25867742Y31085965D01*
X25867740Y31085966D01*
X25867737Y31085967D01*
X25867736Y31085967D01*
X25794684Y31100499D01*
X25794674Y31100500D01*
X24045326Y31100500D01*
X24045325Y31100500D01*
X24045315Y31100499D01*
X23972263Y31085967D01*
X23972257Y31085965D01*
X23889400Y31030603D01*
X23889397Y31030600D01*
X23834035Y30947743D01*
X23834033Y30947737D01*
X23819501Y30874685D01*
X23819500Y30874673D01*
X23819500Y29125328D01*
X23819501Y29125316D01*
X23834033Y29052264D01*
X23834035Y29052258D01*
X23889397Y28969401D01*
X23889400Y28969398D01*
X23898079Y28963599D01*
X23972260Y28914034D01*
X24027808Y28902985D01*
X24045315Y28899502D01*
X24045320Y28899502D01*
X24045326Y28899500D01*
X24174676Y28899500D01*
X24232867Y28880593D01*
X24268831Y28831093D01*
X24268831Y28769907D01*
X24244679Y28730496D01*
X14638588Y19124502D01*
X14638582Y19124498D01*
X14545400Y19031315D01*
X14545396Y19031310D01*
X14479509Y18917190D01*
X14479507Y18917186D01*
X14467023Y18870597D01*
X14467024Y18870596D01*
X14445400Y18789895D01*
X14445400Y17681637D01*
X14432137Y17632138D01*
X14386323Y17552786D01*
X14359041Y17450966D01*
X14345400Y17400057D01*
X500500Y17400057D01*
X500500Y33801000D01*
X519407Y33859191D01*
X568907Y33895155D01*
X599500Y33900000D01*
X59400500Y33900000D01*
X59458691Y33881093D01*
G37*
%TD.AperFunction*%
%TA.AperFunction,Conductor*%
G36*
X7433691Y49080593D02*
G01*
X7469655Y49031093D01*
X7474500Y49000500D01*
X7474500Y45993982D01*
X7494065Y45920964D01*
X7503498Y45885759D01*
X7552670Y45800593D01*
X7559515Y45788737D01*
X7638737Y45709515D01*
X7638739Y45709514D01*
X7735759Y45653499D01*
X7735757Y45653499D01*
X7735761Y45653498D01*
X7735763Y45653497D01*
X7843982Y45624500D01*
X7843984Y45624500D01*
X7956014Y45624500D01*
X7956018Y45624500D01*
X7957656Y45624940D01*
X7959353Y45624940D01*
X7962452Y45625347D01*
X7962505Y45624940D01*
X8008910Y45624942D01*
X8014707Y45623389D01*
X8014712Y45623386D01*
X8103856Y45599500D01*
X9842953Y45599500D01*
X9892448Y45586240D01*
X9895462Y45584500D01*
X9914712Y45573386D01*
X10003856Y45549500D01*
X10003857Y45549500D01*
X10096144Y45549500D01*
X10613812Y45549500D01*
X10672003Y45530593D01*
X10683809Y45520510D01*
X10684788Y45519531D01*
X10764712Y45473386D01*
X10853856Y45449500D01*
X11458540Y45449500D01*
X11516731Y45430593D01*
X11528528Y45420519D01*
X11774697Y45174454D01*
X13399153Y43549909D01*
X13412905Y43536157D01*
X13440682Y43481639D01*
X13441900Y43466155D01*
X13441900Y42710744D01*
X13422993Y42652553D01*
X13412905Y42640742D01*
X13386882Y42614719D01*
X13386880Y42614717D01*
X13386880Y42614716D01*
X13307823Y42477784D01*
X13266900Y42325057D01*
X13266900Y42166943D01*
X13307823Y42014216D01*
X13386880Y41877284D01*
X13498684Y41765480D01*
X13635616Y41686423D01*
X13788343Y41645500D01*
X13818464Y41645500D01*
X13876655Y41626593D01*
X13889179Y41615785D01*
X15137676Y40341531D01*
X15611638Y39857791D01*
X15943655Y39518925D01*
X15949761Y39511891D01*
X15988337Y39473314D01*
X15989047Y39472597D01*
X16026374Y39434500D01*
X16026376Y39434499D01*
X16026484Y39434389D01*
X16027672Y39433477D01*
X16028495Y39432839D01*
X16029701Y39431894D01*
X16029835Y39431817D01*
X16029837Y39431815D01*
X16076156Y39405074D01*
X16076818Y39404686D01*
X16095150Y39393851D01*
X16122951Y39377418D01*
X16124340Y39376843D01*
X16125302Y39376439D01*
X16126711Y39375839D01*
X16126858Y39375800D01*
X16126863Y39375797D01*
X16178421Y39361983D01*
X16179370Y39361722D01*
X16230740Y39347394D01*
X16230741Y39347394D01*
X16230885Y39347354D01*
X16232385Y39347156D01*
X16233390Y39347019D01*
X16234932Y39346800D01*
X16235082Y39346800D01*
X16288389Y39346800D01*
X16289399Y39346795D01*
X16290364Y39346786D01*
X16342771Y39346250D01*
X16342772Y39346251D01*
X16343982Y39346238D01*
X16353287Y39346800D01*
X44586032Y39346800D01*
X44597113Y39345502D01*
X44597169Y39346040D01*
X44603621Y39345377D01*
X44603621Y39345378D01*
X44603622Y39345377D01*
X44652159Y39346761D01*
X44654979Y39346800D01*
X44703518Y39346800D01*
X44709584Y39347599D01*
X44715606Y39348567D01*
X44715608Y39348568D01*
X44715613Y39348568D01*
X44762211Y39362489D01*
X44764813Y39363225D01*
X44811737Y39375797D01*
X44811744Y39375802D01*
X44817395Y39378141D01*
X44822956Y39380633D01*
X44822956Y39380634D01*
X44822962Y39380635D01*
X44864324Y39406114D01*
X44866724Y39407544D01*
X44879184Y39414739D01*
X44908763Y39431815D01*
X44908767Y39431820D01*
X44913610Y39435536D01*
X44918347Y39439391D01*
X44918354Y39439394D01*
X44951687Y39474684D01*
X44953653Y39476706D01*
X44987985Y39511037D01*
X44987987Y39511042D01*
X44991941Y39516193D01*
X44992375Y39515860D01*
X44999027Y39524802D01*
X45488785Y40043283D01*
X45542489Y40072600D01*
X45560754Y40074300D01*
X45579055Y40074300D01*
X45579057Y40074300D01*
X45731784Y40115223D01*
X45868716Y40194280D01*
X45967598Y40293163D01*
X46022113Y40320938D01*
X46082545Y40311367D01*
X46107600Y40293164D01*
X46181284Y40219480D01*
X46318216Y40140423D01*
X46470943Y40099500D01*
X46470945Y40099500D01*
X46581010Y40099500D01*
X46639201Y40080593D01*
X46675165Y40031093D01*
X46675165Y39969907D01*
X46651014Y39930496D01*
X45776014Y39055496D01*
X45721497Y39027719D01*
X45706010Y39026500D01*
X10224500Y39026500D01*
X10166309Y39045407D01*
X10130345Y39094907D01*
X10125500Y39125500D01*
X10125500Y42342852D01*
X10125500Y42342853D01*
X10103318Y42425638D01*
X10060465Y42499862D01*
X10038796Y42521531D01*
X9999862Y42560466D01*
X9999862Y42560465D01*
X9411270Y43149057D01*
X11900900Y43149057D01*
X11900900Y42990943D01*
X11941823Y42838216D01*
X12020880Y42701284D01*
X12132684Y42589480D01*
X12269616Y42510423D01*
X12422343Y42469500D01*
X12422345Y42469500D01*
X12580455Y42469500D01*
X12580457Y42469500D01*
X12733184Y42510423D01*
X12870116Y42589480D01*
X12981920Y42701284D01*
X13060977Y42838216D01*
X13101900Y42990943D01*
X13101900Y43149057D01*
X13060977Y43301784D01*
X12981920Y43438716D01*
X12870116Y43550520D01*
X12733184Y43629577D01*
X12580457Y43670500D01*
X12422343Y43670500D01*
X12269616Y43629577D01*
X12132684Y43550520D01*
X12020880Y43438716D01*
X11941823Y43301784D01*
X11900900Y43149057D01*
X9411270Y43149057D01*
X8178893Y44381434D01*
X8156637Y44419987D01*
X8155802Y44419640D01*
X8153320Y44425629D01*
X8153318Y44425638D01*
X8110465Y44499862D01*
X8078892Y44531435D01*
X8056637Y44569987D01*
X8055802Y44569640D01*
X8053320Y44575629D01*
X8053318Y44575638D01*
X8010465Y44649862D01*
X8010462Y44649865D01*
X7949862Y44710466D01*
X7949862Y44710465D01*
X7899862Y44760465D01*
X7899862Y44760466D01*
X7846405Y44813922D01*
X7846404Y44813922D01*
X5754496Y46905831D01*
X5726719Y46960348D01*
X5725500Y46975835D01*
X5725500Y48549160D01*
X5725501Y48549173D01*
X5725501Y48642851D01*
X5725501Y48642853D01*
X5703318Y48725639D01*
X5703317Y48725641D01*
X5702844Y48727406D01*
X5706046Y48788508D01*
X5744551Y48836058D01*
X5803652Y48851894D01*
X5814488Y48850177D01*
X5814511Y48850347D01*
X5820942Y48849501D01*
X5820943Y48849500D01*
X5820944Y48849500D01*
X5979055Y48849500D01*
X5979057Y48849500D01*
X6131784Y48890423D01*
X6268716Y48969480D01*
X6369741Y49070506D01*
X6424256Y49098281D01*
X6439743Y49099500D01*
X7375500Y49099500D01*
X7433691Y49080593D01*
G37*
%TD.AperFunction*%
%TA.AperFunction,Conductor*%
G36*
X26482061Y43059010D02*
G01*
X26525316Y43015736D01*
X26534875Y42955302D01*
X26532724Y42945188D01*
X26507244Y42850093D01*
X26500000Y42823057D01*
X26500000Y42664943D01*
X26540923Y42512216D01*
X26619980Y42375284D01*
X26731784Y42263480D01*
X26868716Y42184423D01*
X27021443Y42143500D01*
X27021445Y42143500D01*
X27179555Y42143500D01*
X27179557Y42143500D01*
X27332284Y42184423D01*
X27469216Y42263480D01*
X27572980Y42367245D01*
X27627495Y42395021D01*
X27642474Y42396239D01*
X36796186Y42442556D01*
X36854472Y42423943D01*
X36866708Y42413543D01*
X36955150Y42325057D01*
X37194122Y42085965D01*
X37197221Y42082865D01*
X37224985Y42028342D01*
X37226200Y42012879D01*
X37226200Y41886989D01*
X37207293Y41828798D01*
X37197256Y41817038D01*
X37067731Y41687317D01*
X37013236Y41659499D01*
X36952797Y41669024D01*
X36927674Y41687262D01*
X36827416Y41787520D01*
X36690484Y41866577D01*
X36537757Y41907500D01*
X36379643Y41907500D01*
X36226916Y41866577D01*
X36089984Y41787520D01*
X36039404Y41736941D01*
X35984890Y41709165D01*
X35924458Y41718736D01*
X35899402Y41736940D01*
X35796928Y41839414D01*
X35656788Y41941232D01*
X35656787Y41941233D01*
X35656785Y41941234D01*
X35502441Y42019875D01*
X35502438Y42019877D01*
X35337706Y42073402D01*
X35337702Y42073403D01*
X35166614Y42100500D01*
X35166611Y42100500D01*
X34993389Y42100500D01*
X34993386Y42100500D01*
X34822297Y42073403D01*
X34822293Y42073402D01*
X34657561Y42019877D01*
X34657558Y42019875D01*
X34503214Y41941234D01*
X34363073Y41839415D01*
X34240585Y41716927D01*
X34138766Y41576786D01*
X34060125Y41422442D01*
X34060123Y41422439D01*
X34006598Y41257707D01*
X34006597Y41257703D01*
X33979500Y41086615D01*
X33979500Y40913386D01*
X34006597Y40742298D01*
X34006598Y40742294D01*
X34060123Y40577562D01*
X34060125Y40577559D01*
X34138766Y40423215D01*
X34188334Y40354991D01*
X34207241Y40296800D01*
X34188334Y40238609D01*
X34138834Y40202645D01*
X34108241Y40197800D01*
X33511759Y40197800D01*
X33453568Y40216707D01*
X33417604Y40266207D01*
X33417604Y40327393D01*
X33431666Y40354991D01*
X33440251Y40366807D01*
X33481232Y40423212D01*
X33559873Y40577555D01*
X33559874Y40577560D01*
X33559876Y40577562D01*
X33613401Y40742294D01*
X33613402Y40742298D01*
X33640500Y40913386D01*
X33640500Y41086615D01*
X33613402Y41257703D01*
X33613401Y41257707D01*
X33559876Y41422439D01*
X33559874Y41422442D01*
X33559873Y41422443D01*
X33559873Y41422445D01*
X33481232Y41576788D01*
X33379414Y41716928D01*
X33256928Y41839414D01*
X33116788Y41941232D01*
X33116787Y41941233D01*
X33116785Y41941234D01*
X32962441Y42019875D01*
X32962438Y42019877D01*
X32797706Y42073402D01*
X32797702Y42073403D01*
X32626614Y42100500D01*
X32626611Y42100500D01*
X32453389Y42100500D01*
X32453386Y42100500D01*
X32282297Y42073403D01*
X32282293Y42073402D01*
X32117561Y42019877D01*
X32117558Y42019875D01*
X31963214Y41941234D01*
X31823073Y41839415D01*
X31700585Y41716927D01*
X31598766Y41576786D01*
X31520125Y41422442D01*
X31520123Y41422439D01*
X31466598Y41257707D01*
X31466597Y41257703D01*
X31439500Y41086615D01*
X31439500Y40913386D01*
X31466597Y40742298D01*
X31466598Y40742294D01*
X31520123Y40577562D01*
X31520125Y40577559D01*
X31598766Y40423215D01*
X31648334Y40354991D01*
X31667241Y40296800D01*
X31648334Y40238609D01*
X31598834Y40202645D01*
X31568241Y40197800D01*
X30971759Y40197800D01*
X30913568Y40216707D01*
X30877604Y40266207D01*
X30877604Y40327393D01*
X30891666Y40354991D01*
X30900251Y40366807D01*
X30941232Y40423212D01*
X31019873Y40577555D01*
X31019874Y40577560D01*
X31019876Y40577562D01*
X31073401Y40742294D01*
X31073402Y40742298D01*
X31100500Y40913386D01*
X31100500Y41086615D01*
X31073402Y41257703D01*
X31073401Y41257707D01*
X31019876Y41422439D01*
X31019874Y41422442D01*
X31019873Y41422443D01*
X31019873Y41422445D01*
X30941232Y41576788D01*
X30839414Y41716928D01*
X30716928Y41839414D01*
X30576788Y41941232D01*
X30576787Y41941233D01*
X30576785Y41941234D01*
X30422441Y42019875D01*
X30422438Y42019877D01*
X30257706Y42073402D01*
X30257702Y42073403D01*
X30086614Y42100500D01*
X30086611Y42100500D01*
X29913389Y42100500D01*
X29913386Y42100500D01*
X29742297Y42073403D01*
X29742293Y42073402D01*
X29577561Y42019877D01*
X29577558Y42019875D01*
X29423214Y41941234D01*
X29283073Y41839415D01*
X29160585Y41716927D01*
X29058766Y41576786D01*
X28980125Y41422442D01*
X28980123Y41422439D01*
X28926598Y41257707D01*
X28926597Y41257703D01*
X28899500Y41086615D01*
X28899500Y40913386D01*
X28926597Y40742298D01*
X28926598Y40742294D01*
X28980123Y40577562D01*
X28980125Y40577559D01*
X29058766Y40423215D01*
X29108334Y40354991D01*
X29127241Y40296800D01*
X29108334Y40238609D01*
X29058834Y40202645D01*
X29028241Y40197800D01*
X26119500Y40197800D01*
X26061309Y40216707D01*
X26025345Y40266207D01*
X26020500Y40296800D01*
X26020500Y41874673D01*
X26020498Y41874685D01*
X26013970Y41907500D01*
X26005966Y41947740D01*
X26005964Y41947743D01*
X25950602Y42030600D01*
X25950599Y42030603D01*
X25867742Y42085965D01*
X25867740Y42085966D01*
X25867737Y42085967D01*
X25867736Y42085967D01*
X25794684Y42100499D01*
X25794674Y42100500D01*
X25794673Y42100500D01*
X25665459Y42100500D01*
X25607268Y42119407D01*
X25571304Y42168907D01*
X25571304Y42230093D01*
X25595470Y42269518D01*
X26111154Y42784983D01*
X26367109Y43040829D01*
X26421631Y43068594D01*
X26482061Y43059010D01*
G37*
%TD.AperFunction*%
%TA.AperFunction,Conductor*%
G36*
X50443634Y43702593D02*
G01*
X50479598Y43653093D01*
X50481069Y43596878D01*
X50449500Y43479057D01*
X50449500Y43320943D01*
X50490423Y43168216D01*
X50569480Y43031284D01*
X50681284Y42919480D01*
X50818216Y42840423D01*
X50970943Y42799500D01*
X50970945Y42799500D01*
X51129055Y42799500D01*
X51129057Y42799500D01*
X51281784Y42840423D01*
X51418716Y42919480D01*
X51530520Y43031284D01*
X51609577Y43168216D01*
X51650500Y43320943D01*
X51650500Y43320946D01*
X51650975Y43324552D01*
X51652096Y43326904D01*
X51652179Y43327211D01*
X51652235Y43327196D01*
X51677316Y43379777D01*
X51731087Y43408971D01*
X51791749Y43400985D01*
X51819128Y43381636D01*
X51881284Y43319480D01*
X51995918Y43253297D01*
X52036859Y43207829D01*
X52043255Y43146978D01*
X52016401Y43097537D01*
X51227872Y42309476D01*
X51173347Y42281714D01*
X51157889Y42280500D01*
X49191844Y42280500D01*
X48024656Y42280500D01*
X47996529Y42272964D01*
X47937512Y42257151D01*
X47937505Y42257148D01*
X47937089Y42257037D01*
X47935510Y42256614D01*
X47855590Y42210471D01*
X47855588Y42210469D01*
X47008730Y41363612D01*
X46962586Y41283688D01*
X46962585Y41283686D01*
X46959342Y41278068D01*
X46958125Y41278771D01*
X46923090Y41237756D01*
X46863594Y41223477D01*
X46821870Y41236434D01*
X46781785Y41259577D01*
X46722071Y41275577D01*
X46629057Y41300500D01*
X46470943Y41300500D01*
X46318216Y41259577D01*
X46181284Y41180520D01*
X46082401Y41081638D01*
X46027887Y41053862D01*
X45967455Y41063433D01*
X45942399Y41081637D01*
X45868716Y41155320D01*
X45731784Y41234377D01*
X45579057Y41275300D01*
X45420943Y41275300D01*
X45268216Y41234377D01*
X45131284Y41155320D01*
X45019480Y41043516D01*
X44940423Y40906584D01*
X44906253Y40779057D01*
X44899500Y40753856D01*
X44899500Y40698092D01*
X44880593Y40639901D01*
X44872469Y40630110D01*
X44822830Y40577559D01*
X44502659Y40238609D01*
X44493410Y40228818D01*
X44439706Y40199500D01*
X44421441Y40197800D01*
X37723187Y40197800D01*
X37664996Y40216707D01*
X37629032Y40266207D01*
X37629032Y40327393D01*
X37653187Y40366807D01*
X37709598Y40423212D01*
X39709077Y42422508D01*
X39763595Y42450282D01*
X39779077Y42451500D01*
X42038654Y42451500D01*
X42080953Y42451489D01*
X42080953Y42451490D01*
X42080958Y42451489D01*
X42081041Y42451500D01*
X42081044Y42451500D01*
X42127519Y42463953D01*
X42127543Y42463959D01*
X42140553Y42467442D01*
X42170103Y42475351D01*
X42170106Y42475353D01*
X42170114Y42475355D01*
X42170174Y42475380D01*
X42170181Y42475385D01*
X42170188Y42475386D01*
X42210367Y42498586D01*
X42210394Y42498591D01*
X42210390Y42498598D01*
X42216664Y42502218D01*
X42250039Y42521475D01*
X42250042Y42521479D01*
X42250064Y42521491D01*
X42250083Y42521505D01*
X42250105Y42521528D01*
X42250112Y42521531D01*
X42282698Y42554118D01*
X42479204Y42750523D01*
X42533727Y42778285D01*
X42549189Y42779500D01*
X42692255Y42779500D01*
X42692257Y42779500D01*
X42844984Y42820423D01*
X42981916Y42899480D01*
X43093720Y43011284D01*
X43172777Y43148216D01*
X43213700Y43300943D01*
X43213700Y43459057D01*
X43176771Y43596878D01*
X43179974Y43657979D01*
X43218479Y43705528D01*
X43272398Y43721500D01*
X50385443Y43721500D01*
X50443634Y43702593D01*
G37*
%TD.AperFunction*%
%TA.AperFunction,Conductor*%
G36*
X8209191Y109480593D02*
G01*
X8245155Y109431093D01*
X8250000Y109400500D01*
X8250000Y96712593D01*
X8231093Y96654402D01*
X8181593Y96618438D01*
X8120407Y96618438D01*
X8082911Y96640726D01*
X6634047Y98013438D01*
X6630904Y98016552D01*
X6605850Y98042510D01*
X6600771Y98046551D01*
X6600873Y98046680D01*
X6598617Y98048394D01*
X6598522Y98048262D01*
X6593269Y98052073D01*
X6593267Y98052074D01*
X6589780Y98053964D01*
X6561528Y98069275D01*
X6557692Y98071466D01*
X6526753Y98090066D01*
X6520802Y98092655D01*
X6520866Y98092805D01*
X6518239Y98093879D01*
X6518181Y98093726D01*
X6512120Y98096048D01*
X6477026Y98104443D01*
X6472749Y98105568D01*
X6438047Y98115528D01*
X6431631Y98116488D01*
X6431655Y98116649D01*
X6428842Y98117006D01*
X6428826Y98116844D01*
X6422371Y98117518D01*
X6386283Y98116544D01*
X6381861Y98116524D01*
X4110149Y98156757D01*
X4052302Y98176691D01*
X4041905Y98185731D01*
X3931216Y98296420D01*
X3794284Y98375477D01*
X3641557Y98416400D01*
X3483443Y98416400D01*
X3330716Y98375477D01*
X3193784Y98296420D01*
X3081980Y98184616D01*
X3002923Y98047684D01*
X2962000Y97894957D01*
X2962000Y97736843D01*
X3002923Y97584116D01*
X3081980Y97447184D01*
X3193784Y97335380D01*
X3330716Y97256323D01*
X3483443Y97215400D01*
X3483445Y97215400D01*
X3641555Y97215400D01*
X3641557Y97215400D01*
X3794284Y97256323D01*
X3931216Y97335380D01*
X4022780Y97426945D01*
X4077294Y97454721D01*
X4094527Y97455924D01*
X6204992Y97418546D01*
X6262839Y97398612D01*
X6271328Y97391429D01*
X6806309Y96884567D01*
X7656889Y96078693D01*
X7686128Y96024946D01*
X7687800Y96006827D01*
X7687800Y95884243D01*
X7728723Y95731516D01*
X7807780Y95594584D01*
X7919584Y95482780D01*
X8056516Y95403723D01*
X8176624Y95371541D01*
X8227937Y95338217D01*
X8249864Y95281095D01*
X8250000Y95275914D01*
X8250000Y91374500D01*
X8231093Y91316309D01*
X8181593Y91280345D01*
X8151000Y91275500D01*
X3986090Y91275500D01*
X3951987Y91268716D01*
X3865249Y91251464D01*
X3751414Y91204312D01*
X3664017Y91145914D01*
X3664016Y91145913D01*
X3648966Y91135858D01*
X3163768Y90650661D01*
X3163769Y90650660D01*
X3163767Y90650658D01*
X3163766Y90650659D01*
X3076641Y90563533D01*
X3055095Y90531285D01*
X3055094Y90531284D01*
X3008186Y90461084D01*
X2984578Y90404087D01*
X2961039Y90347260D01*
X2961036Y90347250D01*
X2955505Y90319442D01*
X2953678Y90310256D01*
X2953678Y90310255D01*
X2953677Y90310256D01*
X2941595Y90249504D01*
X2941594Y90249499D01*
X2937000Y90226410D01*
X2937000Y73716622D01*
X2918093Y73658431D01*
X2868593Y73622467D01*
X2807407Y73622467D01*
X2767996Y73646618D01*
X1885696Y74528918D01*
X1857919Y74583435D01*
X1856700Y74598922D01*
X1856700Y86804147D01*
X1875607Y86862338D01*
X1925107Y86898302D01*
X1930052Y86899767D01*
X2081784Y86940423D01*
X2218716Y87019480D01*
X2330520Y87131284D01*
X2409577Y87268216D01*
X2450500Y87420943D01*
X2450500Y87579057D01*
X2409577Y87731784D01*
X2330520Y87868716D01*
X2218716Y87980520D01*
X2081784Y88059577D01*
X1929057Y88100500D01*
X1770943Y88100500D01*
X1618216Y88059577D01*
X1481284Y87980520D01*
X1369480Y87868716D01*
X1369478Y87868714D01*
X1364892Y87864127D01*
X1363391Y87865628D01*
X1320840Y87836379D01*
X1292716Y87832300D01*
X1290308Y87832300D01*
X1212400Y87811425D01*
X1163009Y87798191D01*
X1048890Y87732304D01*
X955696Y87639110D01*
X889809Y87524991D01*
X889808Y87524986D01*
X855700Y87397692D01*
X855700Y74416492D01*
X855700Y74284708D01*
X885779Y74172449D01*
X889809Y74157410D01*
X955696Y74043291D01*
X955698Y74043289D01*
X955700Y74043286D01*
X3911602Y71087385D01*
X6664600Y68334387D01*
X6692377Y68279870D01*
X6682806Y68219438D01*
X6639541Y68176173D01*
X6620226Y68168758D01*
X6611718Y68166478D01*
X6611716Y68166478D01*
X6611716Y68166477D01*
X6474784Y68087420D01*
X6362980Y67975616D01*
X6283923Y67838684D01*
X6243000Y67685957D01*
X6243000Y67527843D01*
X6283923Y67375116D01*
X6362980Y67238184D01*
X6474784Y67126380D01*
X6611716Y67047323D01*
X6764443Y67006400D01*
X6764445Y67006400D01*
X6907310Y67006400D01*
X6965501Y66987493D01*
X6977314Y66977404D01*
X7046904Y66907814D01*
X7074681Y66853297D01*
X7075900Y66837810D01*
X7075900Y57660487D01*
X7056993Y57602296D01*
X7007493Y57566332D01*
X6946307Y57566332D01*
X6927405Y57574748D01*
X6905184Y57587577D01*
X6752457Y57628500D01*
X6594343Y57628500D01*
X6441616Y57587577D01*
X6304684Y57508520D01*
X6192880Y57396716D01*
X6113823Y57259784D01*
X6072900Y57107057D01*
X6072900Y56948943D01*
X6113823Y56796216D01*
X6192880Y56659284D01*
X6304684Y56547480D01*
X6441616Y56468423D01*
X6594343Y56427500D01*
X6594345Y56427500D01*
X6740957Y56427500D01*
X6799148Y56408593D01*
X6810617Y56398845D01*
X9141008Y54091149D01*
X11550193Y51705426D01*
X11582088Y51673531D01*
X11582090Y51673530D01*
X11582118Y51673502D01*
X11582839Y51672954D01*
X11583215Y51672667D01*
X11583447Y51672489D01*
X11583463Y51672480D01*
X11622780Y51650037D01*
X11623044Y51649885D01*
X11662034Y51627373D01*
X11662626Y51627131D01*
X11662986Y51626983D01*
X11663588Y51626734D01*
X11689969Y51619804D01*
X11707190Y51615280D01*
X11707373Y51615232D01*
X11751156Y51603500D01*
X11751160Y51603500D01*
X11751182Y51603494D01*
X11751699Y51603428D01*
X11752198Y51603363D01*
X11752838Y51603279D01*
X11752871Y51603280D01*
X11752872Y51603279D01*
X11797077Y51603496D01*
X11797890Y51603499D01*
X11798374Y51603500D01*
X11991701Y51603500D01*
X12049892Y51584593D01*
X12061706Y51574502D01*
X13160071Y50476056D01*
X13169011Y50467116D01*
X13196787Y50412598D01*
X13187213Y50352167D01*
X13143947Y50308904D01*
X13124629Y50301488D01*
X12968215Y50259577D01*
X12831786Y50180810D01*
X12831284Y50180520D01*
X12719480Y50068716D01*
X12640423Y49931784D01*
X12599500Y49779057D01*
X12599500Y49620943D01*
X12640423Y49468216D01*
X12719480Y49331284D01*
X12831284Y49219480D01*
X12968216Y49140423D01*
X13120943Y49099500D01*
X13120945Y49099500D01*
X13279055Y49099500D01*
X13279057Y49099500D01*
X13431784Y49140423D01*
X13568716Y49219480D01*
X13680520Y49331284D01*
X13759577Y49468216D01*
X13800500Y49620943D01*
X13800500Y49620947D01*
X13801474Y49624582D01*
X13834798Y49675896D01*
X13891919Y49697823D01*
X13951020Y49681988D01*
X13967107Y49668960D01*
X14011482Y49624582D01*
X14505206Y49130822D01*
X14532982Y49076306D01*
X14534200Y49060822D01*
X14534200Y48415857D01*
X14549309Y48359469D01*
X14549308Y48359469D01*
X14551722Y48350462D01*
X14558086Y48326712D01*
X14604230Y48246788D01*
X16927488Y45923530D01*
X16967899Y45900199D01*
X17007412Y45877386D01*
X17096556Y45853500D01*
X20154360Y45853500D01*
X20164662Y45852305D01*
X20164722Y45852893D01*
X20171179Y45852245D01*
X20171181Y45852246D01*
X20171182Y45852245D01*
X20210349Y45853454D01*
X20213401Y45853500D01*
X20252647Y45853500D01*
X20257968Y45854201D01*
X20263415Y45855090D01*
X20263426Y45855090D01*
X20301015Y45866415D01*
X20303833Y45867217D01*
X20341788Y45877386D01*
X20341790Y45877387D01*
X20346862Y45879489D01*
X20351789Y45881710D01*
X20351789Y45881711D01*
X20351792Y45881711D01*
X20385161Y45902375D01*
X20387757Y45903927D01*
X20421710Y45923530D01*
X20421709Y45923530D01*
X20421712Y45923531D01*
X20421714Y45923534D01*
X20426034Y45926848D01*
X20430250Y45930296D01*
X20430255Y45930298D01*
X20457142Y45958898D01*
X20459204Y45961025D01*
X20486969Y45988788D01*
X20486972Y45988795D01*
X20490918Y45993935D01*
X20491393Y45993571D01*
X20497574Y46001903D01*
X20887189Y46416314D01*
X20940822Y46445757D01*
X20959316Y46447500D01*
X21079055Y46447500D01*
X21079057Y46447500D01*
X21231784Y46488423D01*
X21368716Y46567480D01*
X21480520Y46679284D01*
X21559577Y46816216D01*
X21600500Y46968943D01*
X21600500Y47127057D01*
X21559577Y47279784D01*
X21480520Y47416716D01*
X21368716Y47528520D01*
X21231784Y47607577D01*
X21079057Y47648500D01*
X20920943Y47648500D01*
X20768216Y47607577D01*
X20631284Y47528520D01*
X20519480Y47416716D01*
X20440423Y47279784D01*
X20402307Y47137531D01*
X20399500Y47127056D01*
X20399500Y46962454D01*
X20396881Y46962454D01*
X20387763Y46913250D01*
X20372887Y46892675D01*
X20084270Y46585688D01*
X20030636Y46556243D01*
X20012142Y46554500D01*
X17328890Y46554500D01*
X17270699Y46573407D01*
X17258886Y46583496D01*
X15264196Y48578186D01*
X15236419Y48632703D01*
X15235200Y48648190D01*
X15235200Y49050500D01*
X15254107Y49108691D01*
X15303607Y49144655D01*
X15334200Y49149500D01*
X15479057Y49149500D01*
X15511480Y49158188D01*
X15572581Y49154987D01*
X15607107Y49132566D01*
X15700139Y49039535D01*
X15700143Y49039531D01*
X15702141Y49038378D01*
X15703773Y49036747D01*
X15705290Y49035582D01*
X15705136Y49035383D01*
X15735388Y49005133D01*
X15735586Y49005284D01*
X15736733Y49003789D01*
X15738373Y49002149D01*
X15739531Y49000143D01*
X15739533Y49000141D01*
X15739535Y49000138D01*
X16060173Y48679500D01*
X16364630Y48375043D01*
X16380365Y48354534D01*
X16422137Y48282173D01*
X16422139Y48282171D01*
X16487393Y48216910D01*
X16567314Y48170761D01*
X16656457Y48146870D01*
X16748745Y48146865D01*
X16837890Y48170745D01*
X16917817Y48216885D01*
X18516205Y49815090D01*
X18975676Y50274508D01*
X19030195Y50302282D01*
X19045676Y50303500D01*
X24210257Y50303500D01*
X24268448Y50284593D01*
X24280254Y50274510D01*
X24381284Y50173480D01*
X24518216Y50094423D01*
X24670943Y50053500D01*
X24670945Y50053500D01*
X24829055Y50053500D01*
X24829057Y50053500D01*
X24981784Y50094423D01*
X25118716Y50173480D01*
X25230520Y50285284D01*
X25309577Y50422216D01*
X25350500Y50574943D01*
X25350500Y50733057D01*
X25309577Y50885784D01*
X25230520Y51022716D01*
X25118716Y51134520D01*
X24981784Y51213577D01*
X24829057Y51254500D01*
X24670943Y51254500D01*
X24518216Y51213577D01*
X24381284Y51134520D01*
X24280258Y51033495D01*
X24225744Y51005719D01*
X24210257Y51004500D01*
X18850292Y51004500D01*
X18813377Y51004502D01*
X18813376Y51004502D01*
X18813360Y51004502D01*
X18813323Y51004497D01*
X18812772Y51004344D01*
X18787230Y50997500D01*
X18763907Y50991251D01*
X18724221Y50980620D01*
X18688974Y50960270D01*
X18688972Y50960269D01*
X18644297Y50934479D01*
X18644294Y50934477D01*
X18617955Y50908138D01*
X18617954Y50908136D01*
X16754965Y49045361D01*
X16700446Y49017587D01*
X16640015Y49027162D01*
X16614964Y49045363D01*
X16199862Y49460465D01*
X16199859Y49460467D01*
X16199857Y49460469D01*
X16197851Y49461627D01*
X16196211Y49463267D01*
X16194716Y49464414D01*
X16194867Y49464612D01*
X16164617Y49494864D01*
X16164418Y49494710D01*
X16163253Y49496227D01*
X16161622Y49497859D01*
X16160469Y49499857D01*
X16160465Y49499861D01*
X16029496Y49630831D01*
X16001719Y49685347D01*
X16000500Y49700834D01*
X16000500Y49829056D01*
X15996501Y49843982D01*
X15959577Y49981784D01*
X15880520Y50118716D01*
X15768716Y50230520D01*
X15631784Y50309577D01*
X15479057Y50350500D01*
X15320943Y50350500D01*
X15182051Y50313284D01*
X15168216Y50309577D01*
X15031284Y50230520D01*
X14919480Y50118716D01*
X14840421Y49981781D01*
X14840069Y49980929D01*
X14839640Y49980428D01*
X14837179Y49976164D01*
X14836388Y49976621D01*
X14800330Y49934405D01*
X14740835Y49920123D01*
X14684308Y49943540D01*
X14678600Y49948817D01*
X12689065Y51938499D01*
X12661289Y51993017D01*
X12670863Y52053448D01*
X12714129Y52096711D01*
X12759071Y52107500D01*
X26890028Y52107500D01*
X26948219Y52088593D01*
X26960027Y52078509D01*
X28152920Y50885784D01*
X28828999Y50209801D01*
X28856780Y50155286D01*
X28858000Y50139792D01*
X28858000Y48325743D01*
X28839093Y48267552D01*
X28829009Y48255746D01*
X28727980Y48154716D01*
X28648923Y48017784D01*
X28608000Y47865057D01*
X28608000Y47706943D01*
X28648923Y47554216D01*
X28727980Y47417284D01*
X28839784Y47305480D01*
X28976716Y47226423D01*
X29129443Y47185500D01*
X29129445Y47185500D01*
X29287555Y47185500D01*
X29287557Y47185500D01*
X29440284Y47226423D01*
X29577216Y47305480D01*
X29689020Y47417284D01*
X29719772Y47470550D01*
X29765239Y47511488D01*
X29826089Y47517885D01*
X29855000Y47506788D01*
X29968216Y47441423D01*
X30120943Y47400500D01*
X30120945Y47400500D01*
X30279055Y47400500D01*
X30279057Y47400500D01*
X30431784Y47441423D01*
X30568716Y47520480D01*
X30680520Y47632284D01*
X30759577Y47769216D01*
X30800500Y47921943D01*
X30800500Y48080057D01*
X30759577Y48232784D01*
X30680520Y48369716D01*
X30568716Y48481520D01*
X30431784Y48560577D01*
X30279057Y48601500D01*
X30120943Y48601500D01*
X29968216Y48560577D01*
X29831284Y48481520D01*
X29728001Y48378238D01*
X29673487Y48350462D01*
X29613055Y48360033D01*
X29569790Y48403298D01*
X29559000Y48448243D01*
X29559000Y50139801D01*
X29577907Y50197992D01*
X29587999Y50209807D01*
X29687104Y50308904D01*
X30139290Y50761057D01*
X33149500Y50761057D01*
X33149500Y50602943D01*
X33190423Y50450216D01*
X33269480Y50313284D01*
X33381284Y50201480D01*
X33518216Y50122423D01*
X33670943Y50081500D01*
X33670945Y50081500D01*
X33829055Y50081500D01*
X33829057Y50081500D01*
X33981784Y50122423D01*
X34118716Y50201480D01*
X34230520Y50313284D01*
X34309577Y50450216D01*
X34350500Y50602943D01*
X34350500Y50761057D01*
X34309577Y50913784D01*
X34230520Y51050716D01*
X34118716Y51162520D01*
X33981784Y51241577D01*
X33829057Y51282500D01*
X33670943Y51282500D01*
X33518216Y51241577D01*
X33381284Y51162520D01*
X33269480Y51050716D01*
X33190423Y50913784D01*
X33149500Y50761057D01*
X30139290Y50761057D01*
X30215791Y50837552D01*
X37457833Y58079057D01*
X38449500Y58079057D01*
X38449500Y57920943D01*
X38490423Y57768216D01*
X38569480Y57631284D01*
X38681284Y57519480D01*
X38818216Y57440423D01*
X38970943Y57399500D01*
X38970945Y57399500D01*
X39129055Y57399500D01*
X39129057Y57399500D01*
X39281784Y57440423D01*
X39418716Y57519480D01*
X39530520Y57631284D01*
X39609577Y57768216D01*
X39650500Y57920943D01*
X39650500Y58079057D01*
X39609577Y58231784D01*
X39530520Y58368716D01*
X39418716Y58480520D01*
X39281784Y58559577D01*
X39129057Y58600500D01*
X38970943Y58600500D01*
X38818216Y58559577D01*
X38681284Y58480520D01*
X38569480Y58368716D01*
X38490423Y58231784D01*
X38449500Y58079057D01*
X37457833Y58079057D01*
X37534334Y58155552D01*
X38745378Y59366506D01*
X38799896Y59394282D01*
X38815379Y59395500D01*
X49297366Y59395500D01*
X49298929Y59395489D01*
X49341495Y59394815D01*
X49341499Y59394817D01*
X49341501Y59394816D01*
X49341758Y59394845D01*
X49342303Y59394877D01*
X49343537Y59395039D01*
X49345116Y59395234D01*
X49346258Y59395366D01*
X49346785Y59395467D01*
X49347034Y59395500D01*
X49347044Y59395500D01*
X49388343Y59406567D01*
X49389574Y59406887D01*
X49431005Y59417287D01*
X49431016Y59417294D01*
X49431232Y59417378D01*
X49431744Y59417547D01*
X49432850Y59418005D01*
X49434357Y59418615D01*
X49435483Y59419061D01*
X49435967Y59419295D01*
X49436177Y59419384D01*
X49436188Y59419386D01*
X49473143Y59440723D01*
X49474387Y59441428D01*
X49511649Y59462162D01*
X49511658Y59462171D01*
X49511835Y59462301D01*
X49512293Y59462602D01*
X49513279Y59463358D01*
X49514534Y59464306D01*
X49515520Y59465039D01*
X49515918Y59465382D01*
X49516105Y59465527D01*
X49516104Y59465527D01*
X49516112Y59465531D01*
X49546330Y59495751D01*
X49547256Y59496662D01*
X50755113Y60666903D01*
X50810062Y60693814D01*
X50824001Y60694800D01*
X50979055Y60694800D01*
X50979057Y60694800D01*
X51131784Y60735723D01*
X51268716Y60814780D01*
X51380520Y60926584D01*
X51459577Y61063516D01*
X51500500Y61216243D01*
X51500500Y61374357D01*
X51459577Y61527084D01*
X51380520Y61664016D01*
X51268716Y61775820D01*
X51131784Y61854877D01*
X50979057Y61895800D01*
X50820943Y61895800D01*
X50668216Y61854877D01*
X50531284Y61775820D01*
X50419480Y61664016D01*
X50340423Y61527084D01*
X50319280Y61448175D01*
X50299500Y61374356D01*
X50299500Y61243455D01*
X50280593Y61185264D01*
X50269388Y61172353D01*
X50145222Y61052054D01*
X50090273Y61025142D01*
X50029999Y61035668D01*
X49987425Y61079612D01*
X49978810Y61140188D01*
X49980705Y61148770D01*
X50000500Y61222643D01*
X50000500Y61380757D01*
X49959577Y61533484D01*
X49880520Y61670416D01*
X49768716Y61782220D01*
X49631784Y61861277D01*
X49479057Y61902200D01*
X49320943Y61902200D01*
X49168216Y61861277D01*
X49031284Y61782220D01*
X48919480Y61670416D01*
X48840423Y61533484D01*
X48799500Y61380757D01*
X48799500Y61222643D01*
X48840423Y61069916D01*
X48919480Y60932984D01*
X49031284Y60821180D01*
X49168216Y60742123D01*
X49320943Y60701200D01*
X49320945Y60701200D01*
X49479056Y60701200D01*
X49479057Y60701200D01*
X49530805Y60715066D01*
X49591904Y60711865D01*
X49639455Y60673361D01*
X49655291Y60614260D01*
X49633365Y60557138D01*
X49625315Y60548338D01*
X49187750Y60124398D01*
X49132801Y60097486D01*
X49118862Y60096500D01*
X38613832Y60096500D01*
X38583070Y60096501D01*
X38583069Y60096501D01*
X38583059Y60096501D01*
X38528997Y60082016D01*
X38493918Y60072618D01*
X38464023Y60055360D01*
X38464024Y60055359D01*
X38414000Y60026480D01*
X38413998Y60026479D01*
X38413990Y60026472D01*
X38413958Y60026440D01*
X38400542Y60013024D01*
X29278490Y50891650D01*
X29223972Y50863874D01*
X29163541Y50873448D01*
X29138490Y50891648D01*
X27319839Y52710043D01*
X27319835Y52710046D01*
X27291412Y52738469D01*
X27291409Y52738471D01*
X27291399Y52738481D01*
X27291394Y52738485D01*
X27245363Y52765057D01*
X27245363Y52765058D01*
X27245356Y52765060D01*
X27211485Y52784616D01*
X27211470Y52784622D01*
X27211467Y52784623D01*
X27211465Y52784624D01*
X27166040Y52796792D01*
X27166034Y52796796D01*
X27166034Y52796794D01*
X27122340Y52808502D01*
X27122329Y52808504D01*
X27082771Y52808501D01*
X27082767Y52808500D01*
X14471163Y52808500D01*
X14412972Y52827407D01*
X14377008Y52876907D01*
X14377008Y52938093D01*
X14379699Y52945386D01*
X14397158Y52987533D01*
X14421199Y53108377D01*
X14421202Y53231590D01*
X14397168Y53352436D01*
X14350019Y53466271D01*
X14281568Y53568721D01*
X13957807Y53892499D01*
X13930031Y53947016D01*
X13939605Y54007447D01*
X13982870Y54050711D01*
X14027813Y54061500D01*
X15895264Y54061500D01*
X15953455Y54042593D01*
X15989419Y53993093D01*
X15990890Y53936880D01*
X15962000Y53829057D01*
X15962000Y53670943D01*
X16002923Y53518216D01*
X16081980Y53381284D01*
X16193784Y53269480D01*
X16330716Y53190423D01*
X16483443Y53149500D01*
X16483445Y53149500D01*
X16641555Y53149500D01*
X16641557Y53149500D01*
X16794284Y53190423D01*
X16931216Y53269480D01*
X17043020Y53381284D01*
X17122077Y53518216D01*
X17163000Y53670943D01*
X17163000Y53829057D01*
X17134109Y53936880D01*
X17137311Y53997978D01*
X17175817Y54045528D01*
X17229736Y54061500D01*
X18131504Y54061500D01*
X18131506Y54061500D01*
X18252352Y54085537D01*
X18366186Y54132689D01*
X18468633Y54201142D01*
X18555758Y54288267D01*
X18624211Y54390714D01*
X18671363Y54504548D01*
X18695400Y54625394D01*
X18695400Y54625405D01*
X18695860Y54630068D01*
X18720377Y54686127D01*
X18773162Y54717069D01*
X18834053Y54711075D01*
X18843885Y54706106D01*
X18859830Y54696900D01*
X18860452Y54696423D01*
X18870646Y54690651D01*
X18871130Y54690374D01*
X18871898Y54690175D01*
X18890639Y54685154D01*
X18960256Y54666500D01*
X18960257Y54666500D01*
X26812744Y54666500D01*
X26884389Y54685698D01*
X26884392Y54685698D01*
X26898822Y54689564D01*
X26901580Y54690209D01*
X26901885Y54690386D01*
X26901888Y54690386D01*
X26947286Y54716598D01*
X26973138Y54731523D01*
X26975227Y54732462D01*
X26980505Y54735724D01*
X26981834Y54736519D01*
X26982995Y54737642D01*
X26987205Y54741590D01*
X26988726Y54743446D01*
X27010292Y54765012D01*
X28580392Y56335057D01*
X32266600Y56335057D01*
X32266600Y56176943D01*
X32307523Y56024216D01*
X32386580Y55887284D01*
X32498384Y55775480D01*
X32635316Y55696423D01*
X32788043Y55655500D01*
X32788045Y55655500D01*
X32946155Y55655500D01*
X32946157Y55655500D01*
X33098884Y55696423D01*
X33235816Y55775480D01*
X33347620Y55887284D01*
X33426677Y56024216D01*
X33467600Y56176943D01*
X33467600Y56335057D01*
X33426677Y56487784D01*
X33347620Y56624716D01*
X33235816Y56736520D01*
X33098884Y56815577D01*
X32946157Y56856500D01*
X32788043Y56856500D01*
X32635316Y56815577D01*
X32498384Y56736520D01*
X32386580Y56624716D01*
X32307523Y56487784D01*
X32266600Y56335057D01*
X28580392Y56335057D01*
X32599982Y60354505D01*
X32654499Y60382281D01*
X32669984Y60383500D01*
X43480842Y60383500D01*
X43480844Y60383500D01*
X43569988Y60407386D01*
X43587012Y60417215D01*
X43649912Y60453530D01*
X46509870Y63313488D01*
X46556014Y63393412D01*
X46556017Y63393426D01*
X46556084Y63393583D01*
X46556170Y63393685D01*
X46559258Y63399032D01*
X46560248Y63398461D01*
X46593269Y63437131D01*
X46592965Y63437527D01*
X46594829Y63438958D01*
X46595816Y63440113D01*
X46598006Y63441417D01*
X46598116Y63441480D01*
X46709920Y63553284D01*
X46788977Y63690216D01*
X46829900Y63842943D01*
X46829900Y64001057D01*
X46827087Y64011557D01*
X47299500Y64011557D01*
X47299500Y63853443D01*
X47340423Y63700716D01*
X47419480Y63563784D01*
X47531284Y63451980D01*
X47668216Y63372923D01*
X47820943Y63332000D01*
X47820945Y63332000D01*
X47979055Y63332000D01*
X47979057Y63332000D01*
X48131784Y63372923D01*
X48268716Y63451980D01*
X48380520Y63563784D01*
X48459577Y63700716D01*
X48500500Y63853443D01*
X48500500Y64011557D01*
X48459577Y64164284D01*
X48380520Y64301216D01*
X48268716Y64413020D01*
X48131784Y64492077D01*
X47979057Y64533000D01*
X47820943Y64533000D01*
X47668216Y64492077D01*
X47531284Y64413020D01*
X47419480Y64301216D01*
X47340423Y64164284D01*
X47299500Y64011557D01*
X46827087Y64011557D01*
X46788977Y64153784D01*
X46709920Y64290716D01*
X46598116Y64402520D01*
X46461184Y64481577D01*
X46308457Y64522500D01*
X46150343Y64522500D01*
X45997616Y64481577D01*
X45860684Y64402520D01*
X45748880Y64290716D01*
X45669821Y64153782D01*
X45669821Y64153781D01*
X45659535Y64115392D01*
X45626211Y64064078D01*
X45569089Y64042152D01*
X45509989Y64057988D01*
X45471484Y64105539D01*
X45468283Y64115392D01*
X45459577Y64147884D01*
X45380520Y64284816D01*
X45268716Y64396620D01*
X45131784Y64475677D01*
X44979057Y64516600D01*
X44824021Y64516600D01*
X44765830Y64535507D01*
X44729866Y64585007D01*
X44729866Y64646193D01*
X44754015Y64685602D01*
X46509318Y66440904D01*
X46563835Y66468681D01*
X46579322Y66469900D01*
X50309364Y66469900D01*
X50330846Y66462921D01*
X50353199Y66459667D01*
X50358854Y66456642D01*
X50438216Y66410823D01*
X50466769Y66403173D01*
X50518083Y66369849D01*
X50540010Y66312728D01*
X50524175Y66253627D01*
X50511155Y66237548D01*
X50446591Y66172974D01*
X50419520Y66145903D01*
X50393755Y66101269D01*
X50393753Y66101266D01*
X50373378Y66065977D01*
X50362291Y66024581D01*
X50362289Y66024574D01*
X50349497Y65976834D01*
X50349500Y65937265D01*
X50349500Y64491843D01*
X50330593Y64433652D01*
X50320509Y64421846D01*
X50219480Y64320816D01*
X50140423Y64183884D01*
X50099500Y64031157D01*
X50099500Y63873043D01*
X50140423Y63720316D01*
X50219480Y63583384D01*
X50331284Y63471580D01*
X50468216Y63392523D01*
X50620943Y63351600D01*
X50620945Y63351600D01*
X50779055Y63351600D01*
X50779057Y63351600D01*
X50931784Y63392523D01*
X51068716Y63471580D01*
X51180520Y63583384D01*
X51259577Y63720316D01*
X51300500Y63873043D01*
X51300500Y64031157D01*
X51259577Y64183884D01*
X51180520Y64320816D01*
X51079494Y64421842D01*
X51051719Y64476356D01*
X51050500Y64491843D01*
X51050500Y65744531D01*
X51069407Y65802722D01*
X51079486Y65814525D01*
X51735863Y66470999D01*
X51790378Y66498780D01*
X51805872Y66500000D01*
X53249999Y66500000D01*
X53250000Y66500000D01*
X53250000Y67944357D01*
X53268907Y68002548D01*
X53278986Y68014350D01*
X54674029Y69409599D01*
X54728544Y69437380D01*
X54744038Y69438600D01*
X54793055Y69438600D01*
X54793057Y69438600D01*
X54945784Y69479523D01*
X55082716Y69558580D01*
X55194520Y69670384D01*
X55273577Y69807316D01*
X55314500Y69960043D01*
X55314500Y70118157D01*
X55273577Y70270884D01*
X55194520Y70407816D01*
X55082716Y70519620D01*
X54945784Y70598677D01*
X54793057Y70639600D01*
X54634943Y70639600D01*
X54482216Y70598677D01*
X54345284Y70519620D01*
X54233480Y70407816D01*
X54154423Y70270884D01*
X54113500Y70118156D01*
X54113500Y69960041D01*
X54123985Y69920909D01*
X54120782Y69859808D01*
X54098367Y69825290D01*
X53419009Y69145831D01*
X53364494Y69118049D01*
X53304061Y69127616D01*
X53260794Y69170877D01*
X53250000Y69215829D01*
X53250000Y71535157D01*
X56054500Y71535157D01*
X56054500Y71377043D01*
X56095423Y71224316D01*
X56174480Y71087384D01*
X56286284Y70975580D01*
X56423216Y70896523D01*
X56575943Y70855600D01*
X56575945Y70855600D01*
X56734055Y70855600D01*
X56734057Y70855600D01*
X56886784Y70896523D01*
X57023716Y70975580D01*
X57135520Y71087384D01*
X57214577Y71224316D01*
X57255500Y71377043D01*
X57255500Y71535157D01*
X57214577Y71687884D01*
X57135520Y71824816D01*
X57023716Y71936620D01*
X56886784Y72015677D01*
X56734057Y72056600D01*
X56575943Y72056600D01*
X56423216Y72015677D01*
X56286284Y71936620D01*
X56174480Y71824816D01*
X56095423Y71687884D01*
X56054500Y71535157D01*
X53250000Y71535157D01*
X53250000Y109400500D01*
X53268907Y109458691D01*
X53318407Y109494655D01*
X53349000Y109499500D01*
X55934108Y109499500D01*
X55997564Y109499500D01*
X56002421Y109499381D01*
X56031158Y109497970D01*
X56338173Y109482887D01*
X56347815Y109481937D01*
X56677915Y109432971D01*
X56687421Y109431081D01*
X57011144Y109349992D01*
X57020415Y109347180D01*
X57334625Y109234754D01*
X57343594Y109231039D01*
X57645263Y109088360D01*
X57653826Y109083782D01*
X57940049Y108912227D01*
X57948127Y108906829D01*
X58216150Y108708049D01*
X58223660Y108701886D01*
X58470921Y108477782D01*
X58477781Y108470922D01*
X58603484Y108332230D01*
X58701885Y108223661D01*
X58708048Y108216151D01*
X58906828Y107948128D01*
X58912226Y107940050D01*
X59083781Y107653827D01*
X59088361Y107645259D01*
X59231036Y107343598D01*
X59234754Y107334622D01*
X59347175Y107020429D01*
X59349995Y107011132D01*
X59431077Y106687433D01*
X59432972Y106677904D01*
X59481934Y106347830D01*
X59482887Y106338162D01*
X59499381Y106002423D01*
X59499500Y105997565D01*
X59499500Y67959000D01*
X59480593Y67900809D01*
X59431093Y67864845D01*
X59400500Y67860000D01*
X55000000Y67860000D01*
X55000000Y67859999D01*
X55000000Y66594121D01*
X54981093Y66535930D01*
X54931593Y66499966D01*
X54926637Y66498499D01*
X54891973Y66489210D01*
X54806809Y66466391D01*
X54692690Y66400504D01*
X54599496Y66307310D01*
X54533609Y66193191D01*
X54521355Y66147457D01*
X54499500Y66065892D01*
X54499500Y41565892D01*
X54499500Y41434108D01*
X54502626Y41422442D01*
X54533609Y41306810D01*
X54599496Y41192691D01*
X54599498Y41192689D01*
X54599500Y41192686D01*
X54692686Y41099500D01*
X54692688Y41099499D01*
X54692690Y41099497D01*
X54806810Y41033610D01*
X54806811Y41033610D01*
X54806814Y41033608D01*
X54926625Y41001506D01*
X54977937Y40968183D01*
X54999864Y40911062D01*
X55000000Y40905880D01*
X55000000Y39860000D01*
X59400500Y39860000D01*
X59458691Y39841093D01*
X59494655Y39791593D01*
X59499500Y39761000D01*
X59499500Y38199000D01*
X59480593Y38140809D01*
X59431093Y38104845D01*
X59400500Y38100000D01*
X599500Y38100000D01*
X541309Y38118907D01*
X505345Y38168407D01*
X500500Y38199000D01*
X500500Y53142853D01*
X4724500Y53142853D01*
X4724500Y49342853D01*
X4724500Y49257147D01*
X4734593Y49219480D01*
X4746683Y49174358D01*
X4766276Y49140423D01*
X4772571Y49129520D01*
X4783467Y49110648D01*
X4793355Y49086776D01*
X4796160Y49076306D01*
X4796682Y49074361D01*
X4816789Y49039535D01*
X4816789Y49039534D01*
X4816790Y49039533D01*
X4833466Y49010648D01*
X4843355Y48986776D01*
X4846682Y48974361D01*
X4866789Y48939535D01*
X4866789Y48939534D01*
X4866790Y48939533D01*
X4883466Y48910648D01*
X4893355Y48886776D01*
X4896682Y48874361D01*
X4925470Y48824499D01*
X4925471Y48824498D01*
X4933466Y48810650D01*
X4943355Y48786776D01*
X4946681Y48774361D01*
X4961407Y48748857D01*
X4973823Y48712283D01*
X4974498Y48707155D01*
X4974500Y48707148D01*
X4974500Y48707147D01*
X4991727Y48642853D01*
X4996683Y48624359D01*
X5025549Y48574363D01*
X5025550Y48574361D01*
X5033466Y48560650D01*
X5043355Y48536776D01*
X5046682Y48524360D01*
X5061235Y48499155D01*
X5074500Y48449653D01*
X5074500Y46842853D01*
X5074500Y46757147D01*
X5085150Y46717399D01*
X5096683Y46674357D01*
X5139531Y46600143D01*
X5139532Y46600142D01*
X5139533Y46600141D01*
X5139535Y46600138D01*
X5489173Y46250500D01*
X5818709Y45920964D01*
X5846486Y45866447D01*
X5836915Y45806015D01*
X5793650Y45762750D01*
X5783775Y45758960D01*
X5783857Y45758763D01*
X5777861Y45756280D01*
X5646639Y45680519D01*
X5539481Y45573361D01*
X5463720Y45442140D01*
X5456658Y45415784D01*
X5424500Y45295766D01*
X5424500Y45144234D01*
X5435028Y45104943D01*
X5463720Y44997861D01*
X5539481Y44866640D01*
X5539483Y44866638D01*
X5539485Y44866635D01*
X5646635Y44759485D01*
X5646637Y44759484D01*
X5646639Y44759482D01*
X5777861Y44683721D01*
X5777859Y44683721D01*
X5777863Y44683720D01*
X5777865Y44683719D01*
X5924234Y44644500D01*
X5924236Y44644500D01*
X6075764Y44644500D01*
X6075766Y44644500D01*
X6222135Y44683719D01*
X6222137Y44683721D01*
X6222139Y44683721D01*
X6353360Y44759482D01*
X6353360Y44759483D01*
X6353365Y44759485D01*
X6460515Y44866635D01*
X6536281Y44997865D01*
X6536282Y44997871D01*
X6538763Y45003857D01*
X6540936Y45002957D01*
X6568656Y45045643D01*
X6625777Y45067570D01*
X6684878Y45051735D01*
X6700964Y45038710D01*
X7321106Y44418568D01*
X7343367Y44380013D01*
X7344199Y44380357D01*
X7346680Y44374366D01*
X7346681Y44374364D01*
X7346682Y44374362D01*
X7389535Y44300138D01*
X7389537Y44300136D01*
X7439534Y44250138D01*
X7439535Y44250138D01*
X7521106Y44168567D01*
X7543368Y44130009D01*
X7544200Y44130353D01*
X7546683Y44124358D01*
X7589531Y44050143D01*
X7589533Y44050141D01*
X7589535Y44050138D01*
X9445505Y42194168D01*
X9473281Y42139653D01*
X9474500Y42124166D01*
X9474500Y38892853D01*
X9474500Y38807147D01*
X9496682Y38724361D01*
X9525550Y38674361D01*
X9539535Y38650138D01*
X9566582Y38623091D01*
X9592203Y38578713D01*
X9602385Y38540713D01*
X9602386Y38540712D01*
X9648531Y38460788D01*
X9713788Y38395531D01*
X9793712Y38349386D01*
X9882856Y38325500D01*
X9882858Y38325500D01*
X45938342Y38325500D01*
X45938344Y38325500D01*
X46027488Y38349386D01*
X46107412Y38395530D01*
X47569669Y39857788D01*
X47615814Y39937712D01*
X47624441Y39969907D01*
X47627180Y39980128D01*
X47631762Y39997232D01*
X47639700Y40026856D01*
X47639700Y40032443D01*
X47658607Y40090634D01*
X47708107Y40126598D01*
X47764322Y40128069D01*
X47870943Y40099500D01*
X47870944Y40099500D01*
X48029055Y40099500D01*
X48029057Y40099500D01*
X48181784Y40140423D01*
X48318716Y40219480D01*
X48430520Y40331284D01*
X48509577Y40468216D01*
X48550500Y40620943D01*
X48550500Y40779057D01*
X48509577Y40931784D01*
X48430520Y41068716D01*
X48318716Y41180520D01*
X48181784Y41259577D01*
X48122067Y41275578D01*
X48070755Y41308901D01*
X48048828Y41366023D01*
X48064664Y41425123D01*
X48077689Y41441208D01*
X48186986Y41550504D01*
X48241502Y41578281D01*
X48256989Y41579500D01*
X49099556Y41579500D01*
X51345605Y41579500D01*
X51390039Y41579487D01*
X51390039Y41579488D01*
X51390040Y41579487D01*
X51390138Y41579500D01*
X51390144Y41579500D01*
X51436305Y41591870D01*
X51436335Y41591869D01*
X51436333Y41591877D01*
X51439562Y41592742D01*
X51479191Y41603346D01*
X51479198Y41603351D01*
X51479238Y41603361D01*
X51479253Y41603367D01*
X51479284Y41603386D01*
X51479288Y41603386D01*
X51514626Y41623789D01*
X51517862Y41625657D01*
X51517865Y41625651D01*
X51517884Y41625671D01*
X51559129Y41649466D01*
X51559134Y41649472D01*
X51559154Y41649483D01*
X51559185Y41649506D01*
X51559207Y41649529D01*
X51559212Y41649531D01*
X51579655Y41669975D01*
X51589891Y41680209D01*
X51589892Y41680208D01*
X51589903Y41680223D01*
X53232269Y43321612D01*
X53232430Y43321751D01*
X53237207Y43326529D01*
X53237212Y43326531D01*
X53268815Y43358135D01*
X53302405Y43391704D01*
X53302407Y43391709D01*
X53302421Y43391722D01*
X53302455Y43391766D01*
X53302466Y43391786D01*
X53302469Y43391788D01*
X53325273Y43431284D01*
X53326094Y43432705D01*
X53326104Y43432724D01*
X53326106Y43432727D01*
X53348573Y43471614D01*
X53348575Y43471625D01*
X53348588Y43471646D01*
X53348605Y43471687D01*
X53348609Y43471705D01*
X53348614Y43471712D01*
X53361629Y43520284D01*
X53361630Y43520287D01*
X53361634Y43520286D01*
X53361635Y43520309D01*
X53372485Y43560752D01*
X53372485Y43560760D01*
X53372487Y43560767D01*
X53372500Y43560857D01*
X53372500Y43611784D01*
X53372501Y43615289D01*
X53372513Y43653039D01*
X53372512Y43653043D01*
X53372514Y43659327D01*
X53372500Y43659559D01*
X53372500Y44138143D01*
X53364348Y44168567D01*
X53348614Y44227288D01*
X53336592Y44248110D01*
X53302470Y44307212D01*
X52726212Y44883470D01*
X52646288Y44929614D01*
X52557144Y44953500D01*
X52557142Y44953500D01*
X51356872Y44953500D01*
X51298681Y44972407D01*
X51285899Y44983480D01*
X50495503Y45796242D01*
X50468488Y45851141D01*
X50478902Y45911433D01*
X50522766Y45954090D01*
X50583326Y45962818D01*
X50615969Y45951002D01*
X50738216Y45880423D01*
X50890943Y45839500D01*
X50890945Y45839500D01*
X51049055Y45839500D01*
X51049057Y45839500D01*
X51201784Y45880423D01*
X51338716Y45959480D01*
X51450520Y46071284D01*
X51529577Y46208216D01*
X51570500Y46360943D01*
X51570500Y46519057D01*
X51529577Y46671784D01*
X51450520Y46808716D01*
X51338716Y46920520D01*
X51201784Y46999577D01*
X51049057Y47040500D01*
X50906201Y47040500D01*
X50848010Y47059407D01*
X50836196Y47069497D01*
X49734963Y48170762D01*
X41132657Y56773321D01*
X41104882Y56827837D01*
X41103696Y56845888D01*
X41134587Y58034586D01*
X41155000Y58092264D01*
X41163551Y58102016D01*
X41167013Y58105479D01*
X41167016Y58105480D01*
X41278820Y58217284D01*
X41357877Y58354216D01*
X41398800Y58506943D01*
X41398800Y58665057D01*
X41357877Y58817784D01*
X41278820Y58954716D01*
X41167016Y59066520D01*
X41030084Y59145577D01*
X40877357Y59186500D01*
X40719243Y59186500D01*
X40566516Y59145577D01*
X40429584Y59066520D01*
X40317780Y58954716D01*
X40238723Y58817784D01*
X40197800Y58665057D01*
X40197800Y58506943D01*
X40238723Y58354216D01*
X40317780Y58217284D01*
X40404985Y58130079D01*
X40432761Y58075564D01*
X40433947Y58057505D01*
X40399281Y56723568D01*
X40398469Y56713231D01*
X40397800Y56708151D01*
X40397800Y56667857D01*
X40397767Y56665290D01*
X40396720Y56624975D01*
X40397203Y56620390D01*
X40397798Y56615864D01*
X40408230Y56576927D01*
X40408861Y56574443D01*
X40418281Y56535245D01*
X40419947Y56530909D01*
X40421682Y56526722D01*
X40421683Y56526720D01*
X40421684Y56526717D01*
X40426805Y56517847D01*
X40441857Y56491774D01*
X40443110Y56489536D01*
X40462333Y56454149D01*
X40465078Y56450374D01*
X40467821Y56446799D01*
X40467825Y56446795D01*
X40467827Y56446792D01*
X40496380Y56418238D01*
X40498138Y56416433D01*
X40518871Y56394593D01*
X40525874Y56387217D01*
X40525878Y56387215D01*
X40529824Y56384021D01*
X40537547Y56377070D01*
X43727887Y53186636D01*
X49816921Y47097424D01*
X49844697Y47042907D01*
X49835125Y46982475D01*
X49791860Y46939211D01*
X49731428Y46929640D01*
X49697419Y46941683D01*
X49631784Y46979577D01*
X49479057Y47020500D01*
X49320943Y47020500D01*
X49168216Y46979577D01*
X49031284Y46900520D01*
X48919480Y46788716D01*
X48840423Y46651784D01*
X48799500Y46499057D01*
X48799500Y46340943D01*
X48840423Y46188216D01*
X48919480Y46051284D01*
X49031284Y45939480D01*
X49168216Y45860423D01*
X49320943Y45819500D01*
X49320945Y45819500D01*
X49453248Y45819500D01*
X49511439Y45800593D01*
X49524221Y45789520D01*
X50004969Y45295169D01*
X50657257Y44624423D01*
X50690228Y44590520D01*
X50717243Y44535622D01*
X50706829Y44475329D01*
X50662965Y44432672D01*
X50619255Y44422500D01*
X41374118Y44422500D01*
X41328618Y44422536D01*
X41328360Y44422502D01*
X41283790Y44410559D01*
X41283718Y44410540D01*
X41239443Y44398713D01*
X41239231Y44398626D01*
X41199813Y44375867D01*
X41199749Y44375831D01*
X41159492Y44352629D01*
X41159302Y44352483D01*
X41159288Y44352469D01*
X41127347Y44320529D01*
X40930877Y44124358D01*
X40917942Y44111443D01*
X40863404Y44083707D01*
X40847992Y44082500D01*
X40704543Y44082500D01*
X40551816Y44041577D01*
X40414884Y43962520D01*
X40303080Y43850716D01*
X40224023Y43713784D01*
X40183100Y43561057D01*
X40183100Y43402943D01*
X40216813Y43277121D01*
X40213611Y43216022D01*
X40175106Y43168472D01*
X40121187Y43152500D01*
X39583687Y43152500D01*
X39546772Y43152502D01*
X39546771Y43152502D01*
X39546750Y43152502D01*
X39546728Y43152499D01*
X39546102Y43152325D01*
X39499001Y43139705D01*
X39475109Y43133304D01*
X39457627Y43128620D01*
X39457623Y43128619D01*
X39457615Y43128616D01*
X39457608Y43128612D01*
X39423282Y43108793D01*
X39423276Y43108790D01*
X39377706Y43082485D01*
X39377693Y43082475D01*
X39359695Y43064477D01*
X38096200Y41801098D01*
X38041683Y41773323D01*
X37981251Y41782897D01*
X37937988Y41826164D01*
X37927200Y41871105D01*
X37927200Y42200918D01*
X37927211Y42245054D01*
X37927210Y42245064D01*
X37927199Y42245148D01*
X37924966Y42253481D01*
X37914893Y42291073D01*
X37914894Y42291102D01*
X37914886Y42291099D01*
X37903348Y42334206D01*
X37903347Y42334208D01*
X37903342Y42334227D01*
X37903324Y42334271D01*
X37879645Y42375285D01*
X37879648Y42375288D01*
X37879632Y42375306D01*
X37868256Y42395021D01*
X37857224Y42414141D01*
X37857222Y42414143D01*
X37857220Y42414147D01*
X37857201Y42414172D01*
X37857177Y42414203D01*
X37857170Y42414210D01*
X37857169Y42414212D01*
X37825515Y42445866D01*
X37825514Y42445868D01*
X37825515Y42445869D01*
X37825497Y42445884D01*
X37266955Y43004708D01*
X37264210Y43007823D01*
X37229566Y43042118D01*
X37229480Y43042285D01*
X37229193Y43042489D01*
X37197258Y43074440D01*
X37196861Y43074741D01*
X37196410Y43075085D01*
X37195822Y43075537D01*
X37156807Y43097800D01*
X37156352Y43098061D01*
X37117344Y43120596D01*
X37116835Y43120803D01*
X37116349Y43121003D01*
X37115672Y43121284D01*
X37072184Y43132702D01*
X37071681Y43132835D01*
X37028184Y43144501D01*
X37027585Y43144576D01*
X37026994Y43144652D01*
X37026413Y43144729D01*
X37026369Y43144729D01*
X37017765Y43144686D01*
X36981273Y43144502D01*
X36980753Y43144501D01*
X36931981Y43144513D01*
X36927831Y43144231D01*
X27638020Y43097225D01*
X27579734Y43115838D01*
X27567521Y43126215D01*
X27469216Y43224520D01*
X27425710Y43249638D01*
X27384771Y43295106D01*
X27378375Y43355956D01*
X27408968Y43408944D01*
X27464863Y43433831D01*
X27475656Y43434372D01*
X37324493Y43390127D01*
X37354946Y43381894D01*
X37367308Y43380175D01*
X37369653Y43377918D01*
X37373542Y43376866D01*
X37455716Y43329423D01*
X37608443Y43288500D01*
X37608445Y43288500D01*
X37766555Y43288500D01*
X37766557Y43288500D01*
X37919284Y43329423D01*
X38056216Y43408480D01*
X38168020Y43520284D01*
X38247077Y43657216D01*
X38288000Y43809943D01*
X38288000Y43968057D01*
X38247077Y44120784D01*
X38168020Y44257716D01*
X38056216Y44369520D01*
X37919284Y44448577D01*
X37766557Y44489500D01*
X37608443Y44489500D01*
X37532079Y44469039D01*
X37455714Y44448577D01*
X37379158Y44404378D01*
X37329214Y44391116D01*
X26632152Y44439171D01*
X26627518Y44439486D01*
X26559093Y44439500D01*
X26558670Y44439501D01*
X26494021Y44439792D01*
X26493245Y44439689D01*
X26492806Y44439632D01*
X26491947Y44439524D01*
X26440082Y44425638D01*
X26429546Y44422818D01*
X26429235Y44422735D01*
X26366563Y44406243D01*
X26365749Y44405905D01*
X26365300Y44405721D01*
X26364657Y44405459D01*
X26364614Y44405434D01*
X26308464Y44373032D01*
X26252149Y44340855D01*
X26251587Y44340423D01*
X26251226Y44340148D01*
X26250508Y44339603D01*
X26204723Y44293840D01*
X26204428Y44293546D01*
X26155885Y44245435D01*
X26152821Y44241959D01*
X24616940Y42706736D01*
X24616764Y42706579D01*
X24566347Y42656162D01*
X24519538Y42609373D01*
X24519519Y42609348D01*
X24487003Y42553029D01*
X24486993Y42553012D01*
X24453639Y42495270D01*
X24453612Y42495205D01*
X24436855Y42432668D01*
X24436850Y42432670D01*
X24436851Y42432649D01*
X24419500Y42367948D01*
X24419500Y42367892D01*
X24419500Y42302107D01*
X24419491Y42256614D01*
X24419485Y42229826D01*
X24419500Y42229599D01*
X24419500Y42199500D01*
X24400593Y42141309D01*
X24351093Y42105345D01*
X24320500Y42100500D01*
X24045326Y42100500D01*
X24045325Y42100500D01*
X24045315Y42100499D01*
X23972263Y42085967D01*
X23972257Y42085965D01*
X23889400Y42030603D01*
X23889397Y42030600D01*
X23834035Y41947743D01*
X23834033Y41947737D01*
X23819501Y41874685D01*
X23819500Y41874673D01*
X23819500Y40296800D01*
X23800593Y40238609D01*
X23751093Y40202645D01*
X23720500Y40197800D01*
X16511499Y40197800D01*
X16453308Y40216707D01*
X16440784Y40227515D01*
X14496185Y42212232D01*
X14468966Y42267029D01*
X14467900Y42281517D01*
X14467900Y42325056D01*
X14467900Y42325057D01*
X14426977Y42477784D01*
X14347920Y42614716D01*
X14338136Y42624500D01*
X14321895Y42640742D01*
X14318269Y42647858D01*
X14311807Y42652553D01*
X14304641Y42674606D01*
X14294119Y42695259D01*
X14292900Y42710744D01*
X14292900Y42813057D01*
X15649500Y42813057D01*
X15649500Y42654943D01*
X15690423Y42502216D01*
X15769480Y42365284D01*
X15881284Y42253480D01*
X16018216Y42174423D01*
X16170943Y42133500D01*
X16170945Y42133500D01*
X16329055Y42133500D01*
X16329057Y42133500D01*
X16481784Y42174423D01*
X16618716Y42253480D01*
X16730520Y42365284D01*
X16809577Y42502216D01*
X16809580Y42502229D01*
X16811664Y42507256D01*
X16851400Y42553782D01*
X16853559Y42555068D01*
X16930562Y42599525D01*
X16930566Y42599530D01*
X16930569Y42599531D01*
X16935712Y42603476D01*
X16937531Y42601105D01*
X16981057Y42623281D01*
X16996544Y42624500D01*
X17049436Y42624500D01*
X17097186Y42637295D01*
X17097187Y42637295D01*
X17144934Y42650089D01*
X17144933Y42650089D01*
X17144938Y42650090D01*
X17230562Y42699525D01*
X17239011Y42707975D01*
X17283395Y42733600D01*
X17297186Y42737295D01*
X17344938Y42750090D01*
X17430562Y42799525D01*
X17439011Y42807975D01*
X17483394Y42833600D01*
X17500624Y42838216D01*
X17544938Y42850090D01*
X17630562Y42899525D01*
X17639011Y42907975D01*
X17683396Y42933601D01*
X17697478Y42937373D01*
X17744938Y42950090D01*
X17830562Y42999525D01*
X17830563Y42999526D01*
X17835712Y43003476D01*
X17837531Y43001105D01*
X17881057Y43023281D01*
X17896544Y43024500D01*
X18844278Y43024500D01*
X18854914Y43023927D01*
X18859308Y43023453D01*
X18859309Y43023452D01*
X18859309Y43023453D01*
X18859310Y43023452D01*
X18903212Y43024473D01*
X18905514Y43024500D01*
X18949431Y43024500D01*
X18949435Y43024500D01*
X18949438Y43024502D01*
X18953801Y43025076D01*
X18964422Y43025897D01*
X20544779Y43062651D01*
X20603392Y43045102D01*
X20617076Y43033688D01*
X20681284Y42969480D01*
X20818216Y42890423D01*
X20970943Y42849500D01*
X20970945Y42849500D01*
X21129055Y42849500D01*
X21129057Y42849500D01*
X21281784Y42890423D01*
X21418716Y42969480D01*
X21530520Y43081284D01*
X21609577Y43218216D01*
X21650500Y43370943D01*
X21650500Y43529057D01*
X21609577Y43681784D01*
X21530520Y43818716D01*
X21418716Y43930520D01*
X21281784Y44009577D01*
X21129057Y44050500D01*
X20970943Y44050500D01*
X20818216Y44009577D01*
X20701361Y43942111D01*
X20681281Y43930518D01*
X20593136Y43842373D01*
X20538619Y43814596D01*
X20525435Y43813404D01*
X18896802Y43775527D01*
X18894500Y43775500D01*
X17749436Y43775500D01*
X17650564Y43775500D01*
X17612819Y43765386D01*
X17612818Y43765387D01*
X17555062Y43749911D01*
X17555058Y43749909D01*
X17469436Y43700475D01*
X17469429Y43700467D01*
X17460981Y43692020D01*
X17416608Y43666402D01*
X17402816Y43662706D01*
X17402814Y43662706D01*
X17355062Y43649911D01*
X17355058Y43649909D01*
X17269436Y43600475D01*
X17269429Y43600467D01*
X17260981Y43592020D01*
X17216608Y43566402D01*
X17202816Y43562706D01*
X17202814Y43562706D01*
X17155062Y43549911D01*
X17155058Y43549909D01*
X17069436Y43500475D01*
X17069429Y43500467D01*
X17060981Y43492020D01*
X17016608Y43466402D01*
X17002816Y43462706D01*
X17002814Y43462706D01*
X16955062Y43449911D01*
X16955058Y43449909D01*
X16869436Y43400475D01*
X16864288Y43396524D01*
X16862468Y43398896D01*
X16818943Y43376719D01*
X16803456Y43375500D01*
X16750564Y43375500D01*
X16702813Y43362705D01*
X16702812Y43362706D01*
X16655063Y43349911D01*
X16568145Y43299729D01*
X16508296Y43287008D01*
X16488115Y43292133D01*
X16488052Y43291897D01*
X16481785Y43293577D01*
X16481784Y43293577D01*
X16329057Y43334500D01*
X16170943Y43334500D01*
X16018216Y43293577D01*
X15881284Y43214520D01*
X15769480Y43102716D01*
X15690423Y42965784D01*
X15649500Y42813057D01*
X14292900Y42813057D01*
X14292900Y43695912D01*
X14292900Y43705528D01*
X14292902Y43739407D01*
X14292900Y43739415D01*
X14292900Y43739418D01*
X14281892Y43780500D01*
X14264083Y43846973D01*
X14263923Y43847590D01*
X14263906Y43847632D01*
X14239921Y43889174D01*
X14239920Y43889176D01*
X14236129Y43895742D01*
X14209343Y43942139D01*
X14208178Y43944305D01*
X14207991Y43944557D01*
X14163013Y43989536D01*
X14163011Y43989537D01*
X13832037Y44320529D01*
X12747938Y45404689D01*
X12740821Y45418659D01*
X12729735Y45429745D01*
X12727282Y45445233D01*
X12720163Y45459206D01*
X12722616Y45474693D01*
X12720164Y45490177D01*
X12727283Y45504150D01*
X12729737Y45519638D01*
X12736580Y45529057D01*
X14699500Y45529057D01*
X14699500Y45370943D01*
X14740423Y45218216D01*
X14819480Y45081284D01*
X14931284Y44969480D01*
X15068216Y44890423D01*
X15220943Y44849500D01*
X15220945Y44849500D01*
X15379055Y44849500D01*
X15379057Y44849500D01*
X15531784Y44890423D01*
X15668716Y44969480D01*
X15780520Y45081284D01*
X15859577Y45218216D01*
X15871592Y45263057D01*
X21178600Y45263057D01*
X21178600Y45104943D01*
X21219523Y44952216D01*
X21298580Y44815284D01*
X21410384Y44703480D01*
X21547316Y44624423D01*
X21700043Y44583500D01*
X21700045Y44583500D01*
X21858155Y44583500D01*
X21858157Y44583500D01*
X22010884Y44624423D01*
X22147816Y44703480D01*
X22259620Y44815284D01*
X22338677Y44952216D01*
X22379600Y45104943D01*
X22379600Y45223458D01*
X22398507Y45281649D01*
X22410903Y45295696D01*
X24273198Y47040742D01*
X24328589Y47066733D01*
X24340891Y47067500D01*
X25935286Y47067500D01*
X25935622Y47067479D01*
X25941901Y47067482D01*
X25941904Y47067481D01*
X25986864Y47067500D01*
X26034044Y47067500D01*
X26034051Y47067503D01*
X26034181Y47067520D01*
X26034191Y47067520D01*
X26077744Y47079210D01*
X26077745Y47079206D01*
X26077782Y47079221D01*
X26123188Y47091386D01*
X26123190Y47091388D01*
X26123315Y47091439D01*
X26123319Y47091442D01*
X26123325Y47091443D01*
X26160249Y47112784D01*
X26163485Y47114653D01*
X26163491Y47114643D01*
X26163521Y47114674D01*
X26203112Y47137531D01*
X26203112Y47137532D01*
X26203115Y47137533D01*
X26203225Y47137618D01*
X26203225Y47137619D01*
X26203230Y47137621D01*
X26236463Y47170883D01*
X26268369Y47202788D01*
X26268371Y47202793D01*
X26273013Y47207434D01*
X26273217Y47207669D01*
X26514820Y47449475D01*
X26569325Y47477275D01*
X26584853Y47478500D01*
X26660455Y47478500D01*
X26660457Y47478500D01*
X26813184Y47519423D01*
X26950116Y47598480D01*
X27061920Y47710284D01*
X27140977Y47847216D01*
X27181900Y47999943D01*
X27181900Y48158057D01*
X27140977Y48310784D01*
X27061920Y48447716D01*
X26950116Y48559520D01*
X26813184Y48638577D01*
X26660457Y48679500D01*
X26502343Y48679500D01*
X26349616Y48638577D01*
X26212684Y48559520D01*
X26100880Y48447716D01*
X26021823Y48310784D01*
X25984305Y48170762D01*
X25980900Y48158056D01*
X25980900Y47999939D01*
X25985775Y47981745D01*
X25982571Y47920644D01*
X25960182Y47886152D01*
X25871634Y47797527D01*
X25817130Y47769726D01*
X25801600Y47768500D01*
X24170479Y47768500D01*
X24167264Y47768552D01*
X24165760Y47768601D01*
X24128465Y47769814D01*
X24122724Y47769247D01*
X24117054Y47768500D01*
X24079508Y47758440D01*
X24076390Y47757659D01*
X24038598Y47748838D01*
X24033231Y47746817D01*
X24027904Y47744611D01*
X23994288Y47725203D01*
X23991484Y47723644D01*
X23957214Y47705315D01*
X23952562Y47701980D01*
X23947986Y47698469D01*
X23920558Y47671041D01*
X23918250Y47668806D01*
X21935459Y45810848D01*
X21880068Y45784856D01*
X21864645Y45784905D01*
X21864645Y45784500D01*
X21858157Y45784500D01*
X21700043Y45784500D01*
X21547316Y45743577D01*
X21410384Y45664520D01*
X21298580Y45552716D01*
X21219523Y45415784D01*
X21178600Y45263057D01*
X15871592Y45263057D01*
X15900500Y45370943D01*
X15900500Y45529057D01*
X15859577Y45681784D01*
X15780520Y45818716D01*
X15668716Y45930520D01*
X15531784Y46009577D01*
X15379057Y46050500D01*
X15220943Y46050500D01*
X15068216Y46009577D01*
X14931284Y45930520D01*
X14819480Y45818716D01*
X14740423Y45681784D01*
X14699500Y45529057D01*
X12736580Y45529057D01*
X12747941Y45544694D01*
X12808797Y45605550D01*
X13042748Y45839500D01*
X13351152Y46147904D01*
X13405669Y46175681D01*
X13421156Y46176900D01*
X13774856Y46176900D01*
X13833047Y46157993D01*
X13844858Y46147905D01*
X13861463Y46131301D01*
X13870884Y46121880D01*
X14007816Y46042823D01*
X14160543Y46001900D01*
X14160545Y46001900D01*
X14318655Y46001900D01*
X14318657Y46001900D01*
X14471384Y46042823D01*
X14608316Y46121880D01*
X14720120Y46233684D01*
X14799177Y46370616D01*
X14840100Y46523343D01*
X14840100Y46681457D01*
X14799177Y46834184D01*
X14720120Y46971116D01*
X14608316Y47082920D01*
X14471384Y47161977D01*
X14318657Y47202900D01*
X14160543Y47202900D01*
X14007816Y47161977D01*
X13885614Y47091424D01*
X13870881Y47082918D01*
X13844858Y47056895D01*
X13790341Y47029119D01*
X13774856Y47027900D01*
X13259919Y47027900D01*
X13147882Y47027900D01*
X13081648Y47010153D01*
X13039658Y46998902D01*
X12942637Y46942886D01*
X12122911Y46123162D01*
X12068395Y46095385D01*
X12011113Y46104457D01*
X12010948Y46104056D01*
X12009276Y46104748D01*
X12007963Y46104956D01*
X12005360Y46106370D01*
X12004951Y46106539D01*
X11896729Y46135512D01*
X11896728Y46135512D01*
X11784694Y46135489D01*
X11779445Y46134082D01*
X11769077Y46131301D01*
X11717814Y46131296D01*
X11646144Y46150500D01*
X11646142Y46150500D01*
X11086189Y46150500D01*
X11027998Y46169407D01*
X11016191Y46179491D01*
X11015212Y46180470D01*
X10935288Y46226614D01*
X10935287Y46226615D01*
X10935286Y46226615D01*
X10925663Y46229194D01*
X10925663Y46229193D01*
X10846144Y46250500D01*
X10846142Y46250500D01*
X10207046Y46250500D01*
X10157547Y46263763D01*
X10135289Y46276614D01*
X10105573Y46284576D01*
X10046144Y46300500D01*
X10046142Y46300500D01*
X8424500Y46300500D01*
X8366309Y46319407D01*
X8330345Y46368907D01*
X8325500Y46399500D01*
X8325500Y49482745D01*
X8344407Y49540936D01*
X8354490Y49552743D01*
X8440485Y49638737D01*
X8496503Y49735763D01*
X8525500Y49843982D01*
X8525500Y49843987D01*
X8525573Y49844536D01*
X8525744Y49844895D01*
X8527179Y49850250D01*
X8528171Y49849985D01*
X8551913Y49899762D01*
X8567772Y49912263D01*
X8567567Y49912530D01*
X8572706Y49916475D01*
X8572716Y49916480D01*
X8684520Y50028284D01*
X8763577Y50165216D01*
X8804500Y50317943D01*
X8804500Y50476057D01*
X8763577Y50628784D01*
X8684520Y50765716D01*
X8572716Y50877520D01*
X8435784Y50956577D01*
X8283057Y50997500D01*
X8124943Y50997500D01*
X7972216Y50956577D01*
X7835284Y50877520D01*
X7723480Y50765716D01*
X7644423Y50628784D01*
X7603500Y50476057D01*
X7603500Y50317943D01*
X7619139Y50259577D01*
X7644423Y50165215D01*
X7650014Y50155532D01*
X7662735Y50095684D01*
X7637848Y50039788D01*
X7634281Y50036030D01*
X7559514Y49961263D01*
X7503498Y49864240D01*
X7502412Y49861617D01*
X7501091Y49860071D01*
X7500252Y49858617D01*
X7499982Y49858773D01*
X7462677Y49815090D01*
X7410947Y49800500D01*
X6439743Y49800500D01*
X6381552Y49819407D01*
X6369745Y49829491D01*
X6268716Y49930520D01*
X6131784Y50009577D01*
X5979057Y50050500D01*
X5820943Y50050500D01*
X5668216Y50009577D01*
X5531284Y49930520D01*
X5531281Y49930518D01*
X5525665Y49927275D01*
X5524375Y49929508D01*
X5477069Y49912768D01*
X5418407Y49930159D01*
X5381171Y49978709D01*
X5375500Y50011735D01*
X5375500Y50571613D01*
X5394407Y50629804D01*
X5443907Y50665768D01*
X5505093Y50665768D01*
X5544501Y50641619D01*
X5646635Y50539485D01*
X5646637Y50539484D01*
X5646639Y50539482D01*
X5777861Y50463721D01*
X5777859Y50463721D01*
X5777863Y50463720D01*
X5777865Y50463719D01*
X5924234Y50424500D01*
X5924236Y50424500D01*
X6075764Y50424500D01*
X6075766Y50424500D01*
X6222135Y50463719D01*
X6222137Y50463721D01*
X6222139Y50463721D01*
X6353360Y50539482D01*
X6353360Y50539483D01*
X6353365Y50539485D01*
X6460515Y50646635D01*
X6460518Y50646640D01*
X6536279Y50777861D01*
X6536279Y50777863D01*
X6536281Y50777865D01*
X6575500Y50924234D01*
X6575500Y51075766D01*
X6536281Y51222135D01*
X6536279Y51222138D01*
X6536279Y51222140D01*
X6460518Y51353361D01*
X6460516Y51353363D01*
X6460515Y51353365D01*
X6353365Y51460515D01*
X6353362Y51460517D01*
X6353360Y51460519D01*
X6222138Y51536280D01*
X6222140Y51536280D01*
X6165347Y51551497D01*
X6075766Y51575500D01*
X5924234Y51575500D01*
X5834652Y51551497D01*
X5777860Y51536280D01*
X5646639Y51460519D01*
X5646638Y51460518D01*
X5646635Y51460516D01*
X5646635Y51460515D01*
X5544501Y51358382D01*
X5489987Y51330606D01*
X5429555Y51340177D01*
X5386290Y51383442D01*
X5375500Y51428387D01*
X5375500Y52979420D01*
X5394407Y53037611D01*
X5404488Y53049415D01*
X5880522Y53525500D01*
X5935037Y53553280D01*
X5950529Y53554500D01*
X6093355Y53554500D01*
X6093357Y53554500D01*
X6246084Y53595423D01*
X6383016Y53674480D01*
X6494820Y53786284D01*
X6573877Y53923216D01*
X6614800Y54075943D01*
X6614800Y54234057D01*
X6573877Y54386784D01*
X6494820Y54523716D01*
X6383016Y54635520D01*
X6246084Y54714577D01*
X6093357Y54755500D01*
X5935243Y54755500D01*
X5782516Y54714577D01*
X5645584Y54635520D01*
X5533780Y54523716D01*
X5454723Y54386784D01*
X5428326Y54288267D01*
X5413800Y54234056D01*
X5413800Y54091149D01*
X5394893Y54032958D01*
X5384807Y54021149D01*
X4808917Y53445196D01*
X4762779Y53365271D01*
X4762778Y53365271D01*
X4738898Y53276127D01*
X4738898Y53276125D01*
X4738901Y53209639D01*
X4736071Y53188144D01*
X4736192Y53186636D01*
X4735870Y53185289D01*
X4724500Y53142853D01*
X500500Y53142853D01*
X500500Y71678115D01*
X519407Y71736306D01*
X568907Y71772270D01*
X630093Y71772270D01*
X637392Y71769576D01*
X640411Y71768326D01*
X640416Y71768323D01*
X793143Y71727400D01*
X793145Y71727400D01*
X951255Y71727400D01*
X951257Y71727400D01*
X1103984Y71768323D01*
X1240916Y71847380D01*
X1352720Y71959184D01*
X1431777Y72096116D01*
X1472700Y72248843D01*
X1472700Y72406957D01*
X1431777Y72559684D01*
X1352720Y72696616D01*
X1240916Y72808420D01*
X1103984Y72887477D01*
X951257Y72928400D01*
X793143Y72928400D01*
X699670Y72903355D01*
X640411Y72887476D01*
X637383Y72886221D01*
X635043Y72886037D01*
X634148Y72885797D01*
X634103Y72885963D01*
X576386Y72881422D01*
X524218Y72913393D01*
X500805Y72969921D01*
X500500Y72977686D01*
X500500Y105997565D01*
X500619Y106002422D01*
X510153Y106196496D01*
X517113Y106338176D01*
X518063Y106347814D01*
X567029Y106677920D01*
X568918Y106687418D01*
X650009Y107011151D01*
X652818Y107020410D01*
X765249Y107334633D01*
X768958Y107343588D01*
X911644Y107645272D01*
X916211Y107653815D01*
X1087780Y107940062D01*
X1093163Y107948117D01*
X1291957Y108216159D01*
X1298107Y108223654D01*
X1522228Y108470933D01*
X1529067Y108477772D01*
X1776346Y108701893D01*
X1783841Y108708043D01*
X2051883Y108906837D01*
X2059938Y108912220D01*
X2346185Y109083789D01*
X2354728Y109088356D01*
X2656412Y109231042D01*
X2665367Y109234751D01*
X2979590Y109347182D01*
X2988849Y109349991D01*
X3312582Y109431082D01*
X3322080Y109432971D01*
X3652186Y109481937D01*
X3661824Y109482887D01*
X3970606Y109498056D01*
X3997579Y109499381D01*
X4002436Y109499500D01*
X4065892Y109499500D01*
X8151000Y109499500D01*
X8209191Y109480593D01*
G37*
%TD.AperFunction*%
%TA.AperFunction,Conductor*%
G36*
X9684982Y56394593D02*
G01*
X9696792Y56384505D01*
X13101702Y52979420D01*
X13103620Y52977502D01*
X13131397Y52922984D01*
X13121823Y52862553D01*
X13078558Y52819289D01*
X13033615Y52808500D01*
X12072171Y52808500D01*
X12013980Y52827407D01*
X12002172Y52837492D01*
X11901557Y52938093D01*
X10777998Y54061501D01*
X8594714Y56244492D01*
X8566933Y56299006D01*
X8576500Y56359439D01*
X8619762Y56402707D01*
X8664713Y56413500D01*
X9626791Y56413500D01*
X9684982Y56394593D01*
G37*
%TD.AperFunction*%
%TA.AperFunction,Conductor*%
G36*
X38385905Y66481093D02*
G01*
X38421869Y66431593D01*
X38421869Y66370407D01*
X38413454Y66351508D01*
X38383823Y66300184D01*
X38342900Y66147457D01*
X38342900Y65989343D01*
X38383823Y65836616D01*
X38462880Y65699684D01*
X38574684Y65587880D01*
X38598382Y65574198D01*
X38598649Y65574044D01*
X38639589Y65528574D01*
X38647665Y65498070D01*
X38649154Y65483039D01*
X38681708Y65396683D01*
X38735505Y65321696D01*
X38735507Y65321694D01*
X38735510Y65321691D01*
X38801614Y65267500D01*
X38806875Y65263187D01*
X38826252Y65254420D01*
X38855446Y65234227D01*
X40165312Y63924361D01*
X41471105Y62618569D01*
X41493368Y62580011D01*
X41494199Y62580355D01*
X41496681Y62574361D01*
X41524811Y62525641D01*
X41524812Y62525638D01*
X41533465Y62510650D01*
X41543355Y62486776D01*
X41546682Y62474361D01*
X41560407Y62450589D01*
X41561408Y62448855D01*
X41573823Y62412283D01*
X41574498Y62407152D01*
X41585555Y62365887D01*
X41582352Y62304785D01*
X41559932Y62270261D01*
X41318565Y62028894D01*
X41280011Y62006633D01*
X41280356Y62005801D01*
X41268367Y62000835D01*
X41267634Y62002603D01*
X41216463Y61991736D01*
X41201209Y61994565D01*
X41179059Y62000500D01*
X41179057Y62000500D01*
X41020943Y62000500D01*
X40868216Y61959577D01*
X40731284Y61880520D01*
X40619480Y61768716D01*
X40540423Y61631784D01*
X40499500Y61479057D01*
X40499500Y61320943D01*
X40529462Y61209120D01*
X40526261Y61148022D01*
X40487756Y61100472D01*
X40433836Y61084500D01*
X32437656Y61084500D01*
X32419414Y61079612D01*
X32366003Y61065301D01*
X32366002Y61065302D01*
X32349969Y61061005D01*
X32348608Y61060663D01*
X32348519Y61060618D01*
X32348499Y61060608D01*
X32311423Y61039203D01*
X32311424Y61039202D01*
X32268590Y61014472D01*
X26650418Y55396495D01*
X26595901Y55368719D01*
X26580416Y55367500D01*
X25578598Y55367500D01*
X25520407Y55386407D01*
X25484443Y55435907D01*
X25484443Y55497093D01*
X25508594Y55536504D01*
X27740307Y57768217D01*
X30286858Y60314767D01*
X30355312Y60417215D01*
X30402463Y60531049D01*
X30426501Y60651894D01*
X30426501Y60775107D01*
X30402463Y60895951D01*
X30355312Y61009786D01*
X30286858Y61112233D01*
X30199733Y61199358D01*
X30199693Y61199385D01*
X30097285Y61267813D01*
X30058087Y61284049D01*
X30011561Y61323786D01*
X30000347Y61349889D01*
X29996503Y61364237D01*
X29984715Y61384655D01*
X29974829Y61408523D01*
X29946503Y61514237D01*
X29909718Y61577950D01*
X29899827Y61601830D01*
X29896503Y61614236D01*
X29896501Y61614240D01*
X29859719Y61677949D01*
X29849827Y61701830D01*
X29846503Y61714236D01*
X29846501Y61714240D01*
X29809719Y61777949D01*
X29799828Y61801828D01*
X29796504Y61814232D01*
X29796503Y61814237D01*
X29784715Y61834655D01*
X29774829Y61858523D01*
X29746503Y61964237D01*
X29709718Y62027950D01*
X29699827Y62051830D01*
X29696503Y62064236D01*
X29696501Y62064240D01*
X29659719Y62127949D01*
X29649827Y62151830D01*
X29646503Y62164236D01*
X29646501Y62164240D01*
X29609719Y62227949D01*
X29599827Y62251830D01*
X29596503Y62264237D01*
X29568141Y62313361D01*
X29559719Y62327949D01*
X29549828Y62351828D01*
X29546504Y62364232D01*
X29546503Y62364237D01*
X29534715Y62384655D01*
X29524827Y62408527D01*
X29516519Y62439535D01*
X29496503Y62514237D01*
X29496501Y62514240D01*
X29496501Y62514242D01*
X29477875Y62546501D01*
X29477875Y62546502D01*
X29458528Y62580011D01*
X29440485Y62611263D01*
X29433179Y62618569D01*
X29361263Y62690486D01*
X29361263Y62690485D01*
X28422691Y63629057D01*
X30749500Y63629057D01*
X30749500Y63470943D01*
X30790423Y63318216D01*
X30869480Y63181284D01*
X30981284Y63069480D01*
X31118216Y62990423D01*
X31270943Y62949500D01*
X31270945Y62949500D01*
X31429055Y62949500D01*
X31429057Y62949500D01*
X31581784Y62990423D01*
X31718716Y63069480D01*
X31830520Y63181284D01*
X31909577Y63318216D01*
X31950500Y63470943D01*
X31950500Y63629057D01*
X31950499Y63629061D01*
X31949762Y63634659D01*
X31960911Y63694820D01*
X31977908Y63717584D01*
X32049859Y63789534D01*
X32049862Y63789535D01*
X32110465Y63850138D01*
X32138891Y63899373D01*
X32153318Y63924361D01*
X32153319Y63924368D01*
X32155801Y63930357D01*
X32156636Y63930011D01*
X32178891Y63968566D01*
X33184033Y64973707D01*
X33228412Y64999328D01*
X33229054Y64999500D01*
X33229057Y64999500D01*
X33381784Y65040423D01*
X33518716Y65119480D01*
X33630520Y65231284D01*
X33709577Y65368216D01*
X33750500Y65520943D01*
X33750500Y65679057D01*
X33709577Y65831784D01*
X33630520Y65968716D01*
X33518716Y66080520D01*
X33381784Y66159577D01*
X33229057Y66200500D01*
X33070943Y66200500D01*
X32918216Y66159577D01*
X32781284Y66080520D01*
X32669480Y65968716D01*
X32590423Y65831784D01*
X32549500Y65679057D01*
X32549500Y65520943D01*
X32560127Y65481284D01*
X32589886Y65370219D01*
X32586683Y65309117D01*
X32564263Y65274593D01*
X31589535Y64299863D01*
X31589531Y64299858D01*
X31540165Y64214352D01*
X31540124Y64214376D01*
X31521106Y64181434D01*
X31517584Y64177912D01*
X31463067Y64150135D01*
X31434660Y64149763D01*
X31429061Y64150500D01*
X31429057Y64150500D01*
X31270943Y64150500D01*
X31118216Y64109577D01*
X30981284Y64030520D01*
X30869480Y63918716D01*
X30790423Y63781784D01*
X30749500Y63629057D01*
X28422691Y63629057D01*
X27465143Y64586605D01*
X27437366Y64641122D01*
X27446937Y64701554D01*
X27490202Y64744819D01*
X27509520Y64752234D01*
X27514237Y64753497D01*
X27611263Y64809515D01*
X27842172Y65040424D01*
X28022253Y65220504D01*
X28076769Y65248281D01*
X28092256Y65249500D01*
X28129055Y65249500D01*
X28129057Y65249500D01*
X28281784Y65290423D01*
X28418716Y65369480D01*
X28530520Y65481284D01*
X28609577Y65618216D01*
X28650500Y65770943D01*
X28650500Y65929057D01*
X28609577Y66081784D01*
X28530520Y66218716D01*
X28418716Y66330520D01*
X28418713Y66330522D01*
X28418239Y66330996D01*
X28390462Y66385513D01*
X28400033Y66445945D01*
X28443298Y66489210D01*
X28488243Y66500000D01*
X38327714Y66500000D01*
X38385905Y66481093D01*
G37*
%TD.AperFunction*%
%TA.AperFunction,Conductor*%
G36*
X8900827Y66097392D02*
G01*
X8908529Y66090458D01*
X11238998Y63759989D01*
X11239000Y63759986D01*
X11332186Y63666800D01*
X11397559Y63629057D01*
X11446314Y63600908D01*
X11573607Y63566800D01*
X11573608Y63566800D01*
X11573609Y63566800D01*
X20199593Y63566800D01*
X20249092Y63553537D01*
X20335763Y63503497D01*
X20430020Y63478241D01*
X20481333Y63444918D01*
X20490132Y63432116D01*
X20519480Y63381284D01*
X20631284Y63269480D01*
X20768216Y63190423D01*
X20920943Y63149500D01*
X20920945Y63149500D01*
X21079055Y63149500D01*
X21079057Y63149500D01*
X21231784Y63190423D01*
X21368716Y63269480D01*
X21480520Y63381284D01*
X21559577Y63518216D01*
X21600500Y63670943D01*
X21600500Y63829057D01*
X21559577Y63981784D01*
X21480520Y64118716D01*
X21429537Y64169699D01*
X21401762Y64224213D01*
X21411333Y64284645D01*
X21454598Y64327910D01*
X21499543Y64338700D01*
X26515776Y64338700D01*
X26573967Y64319793D01*
X26601512Y64289200D01*
X26659513Y64188740D01*
X26659515Y64188737D01*
X27666967Y63181285D01*
X28663147Y62185105D01*
X28688769Y62140725D01*
X28703495Y62085767D01*
X28703497Y62085762D01*
X28740282Y62022047D01*
X28750171Y61998175D01*
X28751896Y61991736D01*
X28753498Y61985761D01*
X28790282Y61922047D01*
X28800171Y61898175D01*
X28800807Y61895800D01*
X28803498Y61885761D01*
X28840282Y61822047D01*
X28850171Y61798175D01*
X28853497Y61785763D01*
X28890282Y61722049D01*
X28900171Y61698173D01*
X28903495Y61685766D01*
X28903496Y61685764D01*
X28915281Y61665353D01*
X28925171Y61641477D01*
X28953497Y61535763D01*
X28953498Y61535762D01*
X28953497Y61535762D01*
X28990282Y61472047D01*
X29000171Y61448175D01*
X29003498Y61435761D01*
X29040282Y61372047D01*
X29050171Y61348175D01*
X29053497Y61335763D01*
X29090282Y61272049D01*
X29100171Y61248173D01*
X29103495Y61235766D01*
X29103496Y61235764D01*
X29115281Y61215353D01*
X29125171Y61191477D01*
X29153497Y61085763D01*
X29153498Y61085762D01*
X29153499Y61085759D01*
X29164991Y61065853D01*
X29177711Y61006005D01*
X29152824Y60950110D01*
X29149258Y60946351D01*
X24557406Y56354496D01*
X24502889Y56326719D01*
X24487402Y56325500D01*
X19679591Y56325500D01*
X19558749Y56301464D01*
X19444914Y56254312D01*
X19342467Y56185858D01*
X19342463Y56185855D01*
X19255345Y56098737D01*
X19255342Y56098733D01*
X19186888Y55996286D01*
X19139736Y55882451D01*
X19115700Y55761609D01*
X19115700Y55642385D01*
X19096793Y55584194D01*
X19047293Y55548230D01*
X18986107Y55548230D01*
X18946697Y55572381D01*
X14897177Y59621825D01*
X14869399Y59676341D01*
X14878970Y59736773D01*
X14917678Y59777564D01*
X15006216Y59828680D01*
X15118020Y59940484D01*
X15197077Y60077416D01*
X15238000Y60230143D01*
X15238000Y60388257D01*
X15197077Y60540984D01*
X15118020Y60677916D01*
X15006216Y60789720D01*
X14869284Y60868777D01*
X14716557Y60909700D01*
X14558443Y60909700D01*
X14405716Y60868777D01*
X14268784Y60789720D01*
X14156980Y60677916D01*
X14105857Y60589369D01*
X14060389Y60548429D01*
X13999539Y60542033D01*
X13950119Y60568866D01*
X8784697Y65734193D01*
X8756919Y65788709D01*
X8755700Y65804197D01*
X8755700Y65947056D01*
X8755699Y65947060D01*
X8749896Y65968716D01*
X8742899Y65994831D01*
X8746100Y66055932D01*
X8784605Y66103482D01*
X8843705Y66119318D01*
X8900827Y66097392D01*
G37*
%TD.AperFunction*%
%TA.AperFunction,Conductor*%
G36*
X7917395Y65310842D02*
G01*
X7917422Y65310906D01*
X7923408Y65308428D01*
X7923416Y65308423D01*
X8076143Y65267500D01*
X8076145Y65267500D01*
X8219018Y65267500D01*
X8277209Y65248593D01*
X8289018Y65238507D01*
X16816655Y56711027D01*
X16844433Y56656512D01*
X16834862Y56596080D01*
X16791598Y56552815D01*
X16731166Y56543243D01*
X16721030Y56545397D01*
X16607998Y56575683D01*
X16582557Y56582500D01*
X16424443Y56582500D01*
X16271716Y56541577D01*
X16134784Y56462520D01*
X16033758Y56361495D01*
X15979244Y56333719D01*
X15963757Y56332500D01*
X13959466Y56332500D01*
X13901275Y56351407D01*
X13884626Y56366692D01*
X13869620Y56384021D01*
X13724217Y56551931D01*
X13700419Y56608297D01*
X13703432Y56642361D01*
X13706000Y56651943D01*
X13706000Y56810057D01*
X13665077Y56962784D01*
X13586020Y57099716D01*
X13474216Y57211520D01*
X13337284Y57290577D01*
X13184557Y57331500D01*
X13026443Y57331500D01*
X12931226Y57305987D01*
X12877223Y57291517D01*
X12816121Y57294720D01*
X12768571Y57333225D01*
X12752600Y57387144D01*
X12752600Y58189652D01*
X12760080Y58227402D01*
X12797627Y58318422D01*
X12821489Y58439301D01*
X12821310Y58562514D01*
X12797097Y58683324D01*
X12749781Y58797089D01*
X12735909Y58817784D01*
X12681182Y58899432D01*
X12681178Y58899438D01*
X12625739Y58954716D01*
X12593928Y58986435D01*
X12542653Y59020588D01*
X12491380Y59054741D01*
X12459527Y59067881D01*
X12377483Y59101726D01*
X12377478Y59101727D01*
X12256598Y59125589D01*
X12133391Y59125411D01*
X12133387Y59125411D01*
X12133385Y59125410D01*
X12015220Y59101727D01*
X12012576Y59101197D01*
X12012572Y59101196D01*
X11898813Y59053883D01*
X11898810Y59053881D01*
X11796462Y58985278D01*
X11796459Y58985276D01*
X11796455Y58985272D01*
X11684540Y58873032D01*
X11641226Y58829718D01*
X11641029Y58829476D01*
X11640864Y58829274D01*
X11640671Y58829040D01*
X11619389Y58797089D01*
X11606662Y58777982D01*
X11589371Y58752105D01*
X11572777Y58727269D01*
X11572605Y58726944D01*
X11572491Y58726732D01*
X11572370Y58726508D01*
X11549043Y58669959D01*
X11548988Y58669827D01*
X11525633Y58613445D01*
X11525584Y58613280D01*
X11525531Y58613106D01*
X11525376Y58612599D01*
X11513586Y58552867D01*
X11513558Y58552727D01*
X11501598Y58492601D01*
X11501552Y58492120D01*
X11501540Y58491997D01*
X11501511Y58491703D01*
X11501600Y58430437D01*
X11501600Y56587849D01*
X11482693Y56529658D01*
X11433193Y56493694D01*
X11372007Y56493694D01*
X11332595Y56517847D01*
X11022621Y56827837D01*
X10415652Y57434837D01*
X10415635Y57434856D01*
X10364433Y57486059D01*
X10364427Y57486064D01*
X10325640Y57524853D01*
X10274870Y57558777D01*
X10274868Y57558778D01*
X10231770Y57587577D01*
X10225388Y57591842D01*
X10223557Y57593139D01*
X10223382Y57593235D01*
X10222701Y57593512D01*
X10166573Y57616761D01*
X10166571Y57616762D01*
X10109390Y57640450D01*
X10109358Y57640462D01*
X10109352Y57640463D01*
X10053959Y57651481D01*
X10053958Y57651482D01*
X10053954Y57651482D01*
X9988530Y57664498D01*
X9988516Y57664500D01*
X9988511Y57664500D01*
X9988506Y57664500D01*
X9947452Y57664500D01*
X9865309Y57664502D01*
X9865308Y57664502D01*
X9860441Y57664502D01*
X9860401Y57664500D01*
X8249191Y57664500D01*
X8128349Y57640464D01*
X8014514Y57593312D01*
X7930902Y57537443D01*
X7872013Y57520834D01*
X7814610Y57542012D01*
X7780617Y57592885D01*
X7776900Y57619758D01*
X7776900Y65221542D01*
X7795807Y65279733D01*
X7845307Y65315697D01*
X7906493Y65315697D01*
X7917395Y65310842D01*
G37*
%TD.AperFunction*%
%TA.AperFunction,Conductor*%
G36*
X40139666Y66481093D02*
G01*
X40175630Y66431593D01*
X40175630Y66370407D01*
X40167212Y66351501D01*
X40142723Y66309086D01*
X40140338Y66300184D01*
X40101800Y66156357D01*
X40101800Y65998243D01*
X40142723Y65845516D01*
X40221780Y65708584D01*
X40333584Y65596780D01*
X40470516Y65517723D01*
X40623243Y65476800D01*
X40623245Y65476800D01*
X40781355Y65476800D01*
X40781357Y65476800D01*
X40934084Y65517723D01*
X41071016Y65596780D01*
X41182820Y65708584D01*
X41261877Y65845516D01*
X41302800Y65998243D01*
X41302800Y66156357D01*
X41261877Y66309084D01*
X41239109Y66348520D01*
X41237388Y66351501D01*
X41224667Y66411349D01*
X41249554Y66467245D01*
X41302543Y66497837D01*
X41323125Y66500000D01*
X44913778Y66500000D01*
X44971969Y66481093D01*
X45007933Y66431593D01*
X45007933Y66370407D01*
X44983782Y66330996D01*
X43383882Y64731096D01*
X43329365Y64703319D01*
X43313878Y64702100D01*
X41827836Y64702100D01*
X41778337Y64715363D01*
X41698984Y64761177D01*
X41546257Y64802100D01*
X41388143Y64802100D01*
X41235416Y64761177D01*
X41098484Y64682120D01*
X40986680Y64570316D01*
X40907623Y64433384D01*
X40902167Y64413020D01*
X40882123Y64338216D01*
X40848799Y64286901D01*
X40791677Y64264975D01*
X40732577Y64280811D01*
X40716492Y64293835D01*
X39436129Y65574198D01*
X39408352Y65628715D01*
X39417923Y65689147D01*
X39420934Y65693916D01*
X39420675Y65694065D01*
X39423917Y65699682D01*
X39423920Y65699684D01*
X39502977Y65836616D01*
X39543900Y65989343D01*
X39543900Y66147457D01*
X39502977Y66300184D01*
X39473348Y66351503D01*
X39460628Y66411348D01*
X39485515Y66467244D01*
X39538503Y66497837D01*
X39559086Y66500000D01*
X40081475Y66500000D01*
X40139666Y66481093D01*
G37*
%TD.AperFunction*%
%TA.AperFunction,Conductor*%
G36*
X4367093Y78629881D02*
G01*
X4382625Y78597316D01*
X4390423Y78568216D01*
X4469480Y78431284D01*
X4581284Y78319480D01*
X4718216Y78240423D01*
X4870943Y78199500D01*
X4870945Y78199500D01*
X5029055Y78199500D01*
X5029057Y78199500D01*
X5181784Y78240423D01*
X5318716Y78319480D01*
X5430520Y78431284D01*
X5455760Y78475001D01*
X5501230Y78515941D01*
X5541496Y78524500D01*
X8137498Y78524500D01*
X8195689Y78505593D01*
X8216040Y78485767D01*
X8219476Y78481289D01*
X8219478Y78481287D01*
X8219480Y78481284D01*
X8221005Y78479759D01*
X8221706Y78478382D01*
X8223430Y78476136D01*
X8223013Y78475817D01*
X8248781Y78425244D01*
X8250000Y78409757D01*
X8250000Y75599944D01*
X8231093Y75541753D01*
X8221006Y75529942D01*
X8208380Y75517316D01*
X8129323Y75380384D01*
X8088400Y75227657D01*
X8088400Y75069543D01*
X8129323Y74916816D01*
X8208380Y74779884D01*
X8221005Y74767259D01*
X8248781Y74712744D01*
X8250000Y74697257D01*
X8250000Y69793498D01*
X8231093Y69735307D01*
X8181593Y69699343D01*
X8120407Y69699343D01*
X8080996Y69723494D01*
X4216996Y73587494D01*
X4189219Y73642011D01*
X4188000Y73657498D01*
X4188000Y78571690D01*
X4206907Y78629881D01*
X4256407Y78665845D01*
X4317593Y78665845D01*
X4367093Y78629881D01*
G37*
%TD.AperFunction*%
%TA.AperFunction,Conductor*%
G36*
X8209191Y90005593D02*
G01*
X8245155Y89956093D01*
X8250000Y89925500D01*
X8250000Y89039344D01*
X8249500Y89031713D01*
X8249500Y88868287D01*
X8250000Y88860657D01*
X8250000Y88311503D01*
X8236737Y88262004D01*
X8190423Y88181786D01*
X8168643Y88100500D01*
X8149500Y88029057D01*
X8149500Y87870943D01*
X8190423Y87718216D01*
X8236095Y87639110D01*
X8236737Y87637998D01*
X8250000Y87588498D01*
X8250000Y86624598D01*
X8242467Y86586719D01*
X8240424Y86581788D01*
X8240423Y86581784D01*
X8199500Y86429057D01*
X8199500Y86270943D01*
X8226782Y86169125D01*
X8240423Y86118215D01*
X8242463Y86113292D01*
X8250000Y86075404D01*
X8250000Y79290244D01*
X8231093Y79232053D01*
X8221009Y79220246D01*
X8219481Y79218719D01*
X8216040Y79214233D01*
X8165616Y79179577D01*
X8137498Y79175500D01*
X5464744Y79175500D01*
X5406553Y79194407D01*
X5394741Y79204496D01*
X5318718Y79280518D01*
X5318716Y79280520D01*
X5181784Y79359577D01*
X5029057Y79400500D01*
X4870943Y79400500D01*
X4718216Y79359577D01*
X4581284Y79280520D01*
X4469480Y79168716D01*
X4390421Y79031782D01*
X4390421Y79031781D01*
X4382626Y79002687D01*
X4349302Y78951373D01*
X4292181Y78929447D01*
X4233080Y78945283D01*
X4194575Y78992833D01*
X4188000Y79028311D01*
X4188000Y89864703D01*
X4206907Y89922894D01*
X4216997Y89934707D01*
X4277795Y89995504D01*
X4332312Y90023281D01*
X4347798Y90024500D01*
X8151000Y90024500D01*
X8209191Y90005593D01*
G37*
%TD.AperFunction*%
%TD*%
M02*
