%TF.GenerationSoftware,KiCad,Pcbnew,10.0.6*%
%TF.CreationDate,2026-09-22T21:18:05+02:00*%
%TF.ProjectId,nucula-v2,6e756375-6c61-42d7-9632-2e6b69636164,rev?*%
%TF.SameCoordinates,Original*%
%TF.FileFunction,Legend,Bot*%
%TF.FilePolarity,Positive*%
%FSLAX46Y46*%
G04 Gerber Fmt 4.6, Leading zero omitted, Abs format (unit mm)*
G04 Created by KiCad (PCBNEW 10.0.6) date 2026-09-22 21:18:05*
%MOMM*%
%LPD*%
G01*
G04 APERTURE LIST*
%ADD10C,0.000000*%
%ADD11C,0.100000*%
%ADD12C,0.600000*%
%ADD13R,1.700000X1.700000*%
%ADD14C,1.700000*%
%ADD15C,0.650000*%
%ADD16O,2.300000X1.300000*%
%ADD17O,2.000000X1.300000*%
%ADD18C,0.700000*%
G04 APERTURE END LIST*
D10*
G36*
X49034683Y94747459D02*
G01*
X48694958Y94747459D01*
X48694958Y95741234D01*
X47717058Y95741234D01*
X47717058Y96058734D01*
X48701308Y96058734D01*
X48701308Y96750884D01*
X47634508Y96750884D01*
X47634508Y97068383D01*
X49034683Y97068383D01*
X49034683Y94747459D01*
G37*
G36*
X34924137Y103785625D02*
G01*
X34955093Y103682438D01*
X34984463Y103582425D01*
X35009862Y103497494D01*
X35028912Y103433200D01*
X35036254Y103462767D01*
X35045581Y103497494D01*
X35056891Y103537380D01*
X35070186Y103582425D01*
X35084871Y103632035D01*
X35100349Y103682438D01*
X35116621Y103733634D01*
X35133687Y103785625D01*
X35521037Y104960375D01*
X35813137Y104960375D01*
X35228937Y103214125D01*
X34841587Y103214125D01*
X34257387Y104960375D01*
X34546312Y104960375D01*
X34924137Y103785625D01*
G37*
G36*
X14408138Y96493709D02*
G01*
X14890735Y96493709D01*
X14890735Y96182559D01*
X14408138Y96182559D01*
X14408138Y95239584D01*
X14407617Y95211009D01*
X14406054Y95183228D01*
X14403450Y95156240D01*
X14399803Y95130046D01*
X14395115Y95104646D01*
X14389385Y95080040D01*
X14382613Y95056228D01*
X14374799Y95033209D01*
X14365943Y95010984D01*
X14356046Y94989553D01*
X14345107Y94968915D01*
X14333126Y94949071D01*
X14320103Y94930021D01*
X14306038Y94911765D01*
X14290932Y94894302D01*
X14274784Y94877634D01*
X14257706Y94861870D01*
X14239809Y94847124D01*
X14221094Y94833395D01*
X14201560Y94820682D01*
X14181208Y94808987D01*
X14160037Y94798308D01*
X14138048Y94788647D01*
X14115240Y94780003D01*
X14091614Y94772375D01*
X14067169Y94765765D01*
X14041906Y94760171D01*
X14015824Y94755595D01*
X13988923Y94752036D01*
X13961203Y94749493D01*
X13932665Y94747968D01*
X13903309Y94747459D01*
X13414360Y94747459D01*
X13414360Y95058610D01*
X13890610Y95058610D01*
X13901353Y95058786D01*
X13911756Y95059317D01*
X13921817Y95060200D01*
X13931537Y95061437D01*
X13940917Y95063028D01*
X13949955Y95064972D01*
X13958652Y95067269D01*
X13967008Y95069920D01*
X13975023Y95072925D01*
X13982697Y95076283D01*
X13990030Y95079994D01*
X13997022Y95084059D01*
X14003673Y95088477D01*
X14009982Y95093249D01*
X14015951Y95098374D01*
X14021579Y95103853D01*
X14026865Y95109685D01*
X14031811Y95115871D01*
X14036415Y95122410D01*
X14040678Y95129302D01*
X14044600Y95136548D01*
X14048182Y95144148D01*
X14051422Y95152101D01*
X14054321Y95160407D01*
X14056879Y95169067D01*
X14059096Y95178080D01*
X14060972Y95187447D01*
X14062506Y95197168D01*
X14063700Y95207241D01*
X14064553Y95217669D01*
X14065235Y95239584D01*
X14065235Y96182559D01*
X13382610Y96182559D01*
X13382610Y96493709D01*
X14065235Y96493709D01*
X14065235Y96985835D01*
X14408138Y96985835D01*
X14408138Y96493709D01*
G37*
G36*
X27734562Y96493709D02*
G01*
X28217163Y96493709D01*
X28217163Y96182559D01*
X27734562Y96182559D01*
X27734562Y95239584D01*
X27734041Y95211009D01*
X27732478Y95183228D01*
X27729874Y95156240D01*
X27726227Y95130046D01*
X27721539Y95104646D01*
X27715809Y95080040D01*
X27709037Y95056228D01*
X27701224Y95033209D01*
X27692369Y95010984D01*
X27682471Y94989553D01*
X27671533Y94968915D01*
X27659552Y94949071D01*
X27646529Y94930021D01*
X27632465Y94911765D01*
X27617359Y94894302D01*
X27601211Y94877634D01*
X27584133Y94861870D01*
X27566237Y94847124D01*
X27547522Y94833395D01*
X27527988Y94820682D01*
X27507636Y94808987D01*
X27486465Y94798308D01*
X27464476Y94788647D01*
X27441668Y94780003D01*
X27418041Y94772375D01*
X27393596Y94765765D01*
X27368333Y94760171D01*
X27342250Y94755595D01*
X27315350Y94752036D01*
X27287630Y94749493D01*
X27259093Y94747968D01*
X27229736Y94747459D01*
X26740787Y94747459D01*
X26740787Y95058610D01*
X27217035Y95058610D01*
X27227779Y95058786D01*
X27238181Y95059317D01*
X27248243Y95060200D01*
X27257964Y95061437D01*
X27267343Y95063028D01*
X27276381Y95064972D01*
X27285079Y95067269D01*
X27293435Y95069920D01*
X27301450Y95072925D01*
X27309124Y95076283D01*
X27316457Y95079994D01*
X27323449Y95084059D01*
X27330100Y95088477D01*
X27336409Y95093249D01*
X27342378Y95098374D01*
X27348006Y95103853D01*
X27353292Y95109685D01*
X27358238Y95115871D01*
X27362842Y95122410D01*
X27367106Y95129302D01*
X27371028Y95136548D01*
X27374609Y95144148D01*
X27377849Y95152101D01*
X27380748Y95160407D01*
X27383306Y95169067D01*
X27385523Y95178080D01*
X27387399Y95187447D01*
X27388934Y95197168D01*
X27390128Y95207241D01*
X27390980Y95217669D01*
X27391662Y95239584D01*
X27391662Y96182559D01*
X26709036Y96182559D01*
X26709036Y96493709D01*
X27391662Y96493709D01*
X27391662Y96985835D01*
X27734562Y96985835D01*
X27734562Y96493709D01*
G37*
G36*
X33445831Y96493709D02*
G01*
X33928430Y96493709D01*
X33928430Y96182559D01*
X33445831Y96182559D01*
X33445831Y95239584D01*
X33445310Y95211009D01*
X33443747Y95183228D01*
X33441143Y95156240D01*
X33437497Y95130046D01*
X33432809Y95104646D01*
X33427079Y95080040D01*
X33420307Y95056228D01*
X33412494Y95033209D01*
X33403638Y95010984D01*
X33393741Y94989553D01*
X33382802Y94968915D01*
X33370822Y94949071D01*
X33357799Y94930021D01*
X33343735Y94911765D01*
X33328629Y94894302D01*
X33312481Y94877634D01*
X33295403Y94861870D01*
X33277506Y94847124D01*
X33258791Y94833395D01*
X33239257Y94820682D01*
X33218905Y94808987D01*
X33197734Y94798308D01*
X33175745Y94788647D01*
X33152937Y94780003D01*
X33129310Y94772375D01*
X33104865Y94765765D01*
X33079602Y94760171D01*
X33053519Y94755595D01*
X33026619Y94752036D01*
X32998900Y94749493D01*
X32970362Y94747968D01*
X32941005Y94747459D01*
X32452057Y94747459D01*
X32452057Y95058610D01*
X32928306Y95058610D01*
X32939050Y95058786D01*
X32949452Y95059317D01*
X32959514Y95060200D01*
X32969234Y95061437D01*
X32978613Y95063028D01*
X32987651Y95064972D01*
X32996348Y95067269D01*
X33004704Y95069920D01*
X33012719Y95072925D01*
X33020393Y95076283D01*
X33027726Y95079994D01*
X33034718Y95084059D01*
X33041369Y95088477D01*
X33047678Y95093249D01*
X33053647Y95098374D01*
X33059275Y95103853D01*
X33064561Y95109685D01*
X33069506Y95115871D01*
X33074111Y95122410D01*
X33078374Y95129302D01*
X33082296Y95136548D01*
X33085878Y95144148D01*
X33089118Y95152101D01*
X33092017Y95160407D01*
X33094575Y95169067D01*
X33096792Y95178080D01*
X33098667Y95187447D01*
X33100202Y95197168D01*
X33101396Y95207241D01*
X33102249Y95217669D01*
X33102931Y95239584D01*
X33102931Y96182559D01*
X32420307Y96182559D01*
X32420307Y96493709D01*
X33102931Y96493709D01*
X33102931Y96985835D01*
X33445831Y96985835D01*
X33445831Y96493709D01*
G37*
G36*
X41603781Y105271525D02*
G01*
X41016406Y105271525D01*
X41016406Y103706250D01*
X41016158Y103687746D01*
X41015414Y103669539D01*
X41014173Y103651630D01*
X41012437Y103634019D01*
X41010205Y103616705D01*
X41007476Y103599689D01*
X41004252Y103582971D01*
X41000531Y103566550D01*
X40996314Y103550427D01*
X40991602Y103534602D01*
X40986393Y103519074D01*
X40980688Y103503844D01*
X40974487Y103488911D01*
X40967789Y103474277D01*
X40960596Y103459940D01*
X40952906Y103445900D01*
X40944770Y103432208D01*
X40936238Y103418913D01*
X40927308Y103406014D01*
X40917981Y103393513D01*
X40908258Y103381408D01*
X40898137Y103369700D01*
X40887620Y103358389D01*
X40876706Y103347475D01*
X40865395Y103336958D01*
X40853687Y103326838D01*
X40841583Y103317114D01*
X40829081Y103307788D01*
X40816183Y103298858D01*
X40802887Y103290325D01*
X40789195Y103282189D01*
X40775106Y103274450D01*
X40760670Y103267145D01*
X40745936Y103260311D01*
X40730904Y103253949D01*
X40715575Y103248058D01*
X40699948Y103242638D01*
X40684023Y103237690D01*
X40667801Y103233212D01*
X40651281Y103229206D01*
X40634463Y103225672D01*
X40617348Y103222608D01*
X40599935Y103220016D01*
X40582225Y103217895D01*
X40564217Y103216246D01*
X40545911Y103215068D01*
X40527308Y103214361D01*
X40508406Y103214125D01*
X39952781Y103214125D01*
X39952781Y103474475D01*
X40508406Y103474475D01*
X40520945Y103474711D01*
X40533161Y103475418D01*
X40545055Y103476596D01*
X40556626Y103478245D01*
X40567875Y103480366D01*
X40578802Y103482958D01*
X40589406Y103486022D01*
X40599687Y103489556D01*
X40609646Y103493562D01*
X40619283Y103498040D01*
X40628597Y103502988D01*
X40637589Y103508408D01*
X40646258Y103514299D01*
X40654605Y103520661D01*
X40662629Y103527495D01*
X40670331Y103534800D01*
X40677636Y103542911D01*
X40684470Y103551370D01*
X40690832Y103560175D01*
X40696723Y103569328D01*
X40702143Y103578828D01*
X40707092Y103588676D01*
X40711569Y103598871D01*
X40715575Y103609413D01*
X40719110Y103620302D01*
X40722173Y103631538D01*
X40724765Y103643122D01*
X40726886Y103655053D01*
X40728536Y103667332D01*
X40729714Y103679957D01*
X40730421Y103692930D01*
X40730656Y103706250D01*
X40730656Y105531875D01*
X41603781Y105531875D01*
X41603781Y105271525D01*
G37*
G36*
X12205809Y95277374D02*
G01*
X12221088Y95276444D01*
X12235971Y95274893D01*
X12250457Y95272723D01*
X12264546Y95269932D01*
X12278239Y95266522D01*
X12291534Y95262491D01*
X12304433Y95257840D01*
X12316934Y95252569D01*
X12329039Y95246678D01*
X12340747Y95240167D01*
X12352058Y95233036D01*
X12362972Y95225284D01*
X12373489Y95216913D01*
X12383610Y95207921D01*
X12393333Y95198310D01*
X12402561Y95188574D01*
X12411193Y95178416D01*
X12419229Y95167837D01*
X12426671Y95156836D01*
X12433517Y95145413D01*
X12439767Y95133569D01*
X12445423Y95121303D01*
X12450483Y95108616D01*
X12454947Y95095506D01*
X12458817Y95081975D01*
X12462091Y95068023D01*
X12464770Y95053648D01*
X12466853Y95038852D01*
X12468341Y95023634D01*
X12469234Y95007995D01*
X12469532Y94991933D01*
X12469234Y94976257D01*
X12468341Y94960977D01*
X12466853Y94946095D01*
X12464770Y94931609D01*
X12462091Y94917520D01*
X12458817Y94903827D01*
X12454947Y94890532D01*
X12450483Y94877634D01*
X12445423Y94865132D01*
X12439767Y94853028D01*
X12433517Y94841320D01*
X12426671Y94830009D01*
X12419229Y94819095D01*
X12411193Y94808578D01*
X12402561Y94798457D01*
X12393333Y94788734D01*
X12383610Y94779891D01*
X12373489Y94771619D01*
X12362972Y94763917D01*
X12352058Y94756785D01*
X12340747Y94750225D01*
X12329039Y94744234D01*
X12316934Y94738814D01*
X12304433Y94733965D01*
X12291534Y94729686D01*
X12278239Y94725978D01*
X12264546Y94722840D01*
X12250457Y94720273D01*
X12235971Y94718277D01*
X12221088Y94716850D01*
X12205809Y94715995D01*
X12190132Y94715709D01*
X12174084Y94715995D01*
X12158482Y94716850D01*
X12143326Y94718277D01*
X12128617Y94720273D01*
X12114355Y94722840D01*
X12100538Y94725978D01*
X12087169Y94729686D01*
X12074245Y94733965D01*
X12061768Y94738814D01*
X12049738Y94744234D01*
X12038154Y94750225D01*
X12027017Y94756785D01*
X12016327Y94763917D01*
X12006083Y94771619D01*
X11996285Y94779891D01*
X11986934Y94788734D01*
X11977707Y94798457D01*
X11969075Y94808578D01*
X11961038Y94819095D01*
X11953596Y94830009D01*
X11946750Y94841320D01*
X11940499Y94853028D01*
X11934843Y94865132D01*
X11929783Y94877634D01*
X11925318Y94890532D01*
X11921448Y94903827D01*
X11918174Y94917520D01*
X11915495Y94931609D01*
X11913411Y94946095D01*
X11911923Y94960977D01*
X11911030Y94976257D01*
X11910732Y94991933D01*
X11911030Y95007995D01*
X11911923Y95023634D01*
X11913411Y95038852D01*
X11915495Y95053648D01*
X11918174Y95068023D01*
X11921448Y95081975D01*
X11925318Y95095506D01*
X11929783Y95108616D01*
X11934843Y95121303D01*
X11940499Y95133569D01*
X11946750Y95145413D01*
X11953596Y95156836D01*
X11961038Y95167837D01*
X11969075Y95178416D01*
X11977707Y95188574D01*
X11986934Y95198310D01*
X11996285Y95207921D01*
X12006083Y95216913D01*
X12016327Y95225284D01*
X12027017Y95233036D01*
X12038154Y95240167D01*
X12049738Y95246678D01*
X12061768Y95252569D01*
X12074245Y95257840D01*
X12087169Y95262491D01*
X12100538Y95266522D01*
X12114355Y95269932D01*
X12128617Y95272723D01*
X12143326Y95274893D01*
X12158482Y95276444D01*
X12174084Y95277374D01*
X12190132Y95277684D01*
X12205809Y95277374D01*
G37*
G36*
X31242644Y103709140D02*
G01*
X31257167Y103708284D01*
X31271318Y103706858D01*
X31285097Y103704861D01*
X31298504Y103702294D01*
X31311539Y103699156D01*
X31324202Y103695448D01*
X31336493Y103691169D01*
X31348412Y103686320D01*
X31359958Y103680900D01*
X31371133Y103674909D01*
X31381935Y103668349D01*
X31392366Y103661217D01*
X31402424Y103653515D01*
X31412110Y103645243D01*
X31421425Y103636400D01*
X31429883Y103627074D01*
X31437796Y103617350D01*
X31445162Y103607230D01*
X31451984Y103596713D01*
X31458259Y103585799D01*
X31463989Y103574488D01*
X31469173Y103562780D01*
X31473811Y103550675D01*
X31477904Y103538174D01*
X31481451Y103525275D01*
X31484452Y103511980D01*
X31486908Y103498288D01*
X31488818Y103484199D01*
X31490182Y103469713D01*
X31491001Y103454830D01*
X31491274Y103439550D01*
X31491001Y103425052D01*
X31490182Y103410925D01*
X31488818Y103397171D01*
X31486908Y103383789D01*
X31484452Y103370779D01*
X31481451Y103358141D01*
X31477904Y103345875D01*
X31473811Y103333981D01*
X31469173Y103322460D01*
X31463989Y103311310D01*
X31458259Y103300532D01*
X31451984Y103290127D01*
X31445162Y103280093D01*
X31437796Y103270432D01*
X31429883Y103261142D01*
X31421425Y103252225D01*
X31412110Y103243767D01*
X31402424Y103235854D01*
X31392366Y103228487D01*
X31381935Y103221666D01*
X31371133Y103215390D01*
X31359958Y103209660D01*
X31348412Y103204476D01*
X31336493Y103199838D01*
X31324202Y103195745D01*
X31311539Y103192198D01*
X31298504Y103189196D01*
X31285097Y103186741D01*
X31271318Y103184831D01*
X31257167Y103183467D01*
X31242644Y103182648D01*
X31227749Y103182375D01*
X31212866Y103182648D01*
X31198381Y103183467D01*
X31184292Y103184831D01*
X31170600Y103186741D01*
X31157305Y103189196D01*
X31144406Y103192198D01*
X31131905Y103195745D01*
X31119800Y103199838D01*
X31108092Y103204476D01*
X31096781Y103209660D01*
X31085867Y103215390D01*
X31075350Y103221666D01*
X31065230Y103228487D01*
X31055506Y103235854D01*
X31046180Y103243767D01*
X31037250Y103252225D01*
X31028407Y103261142D01*
X31020135Y103270432D01*
X31012433Y103280093D01*
X31005301Y103290127D01*
X30998740Y103300532D01*
X30992750Y103311310D01*
X30987330Y103322460D01*
X30982481Y103333981D01*
X30978202Y103345875D01*
X30974494Y103358141D01*
X30971356Y103370779D01*
X30968789Y103383789D01*
X30966793Y103397171D01*
X30965366Y103410925D01*
X30964511Y103425052D01*
X30964226Y103439550D01*
X30964511Y103454830D01*
X30965366Y103469713D01*
X30966793Y103484199D01*
X30968789Y103498288D01*
X30971356Y103511980D01*
X30974494Y103525275D01*
X30978202Y103538174D01*
X30982481Y103550675D01*
X30987330Y103562780D01*
X30992750Y103574488D01*
X30998740Y103585799D01*
X31005301Y103596713D01*
X31012433Y103607230D01*
X31020135Y103617350D01*
X31028407Y103627074D01*
X31037250Y103636400D01*
X31046180Y103645243D01*
X31055506Y103653515D01*
X31065230Y103661217D01*
X31075350Y103668349D01*
X31085867Y103674909D01*
X31096781Y103680900D01*
X31108092Y103686320D01*
X31119800Y103691169D01*
X31131905Y103695448D01*
X31144406Y103699156D01*
X31157305Y103702294D01*
X31170600Y103704861D01*
X31184292Y103706858D01*
X31198381Y103708284D01*
X31212866Y103709140D01*
X31227749Y103709425D01*
X31242644Y103709140D01*
G37*
G36*
X33142097Y104572814D02*
G01*
X33152441Y104572182D01*
X33162536Y104571128D01*
X33172384Y104569652D01*
X33181983Y104567754D01*
X33191335Y104565435D01*
X33200438Y104562694D01*
X33209293Y104559531D01*
X33217901Y104555947D01*
X33226260Y104551941D01*
X33234371Y104547513D01*
X33242234Y104542664D01*
X33249849Y104537393D01*
X33257216Y104531700D01*
X33264335Y104525586D01*
X33271206Y104519050D01*
X33277357Y104512564D01*
X33283112Y104505804D01*
X33288470Y104498772D01*
X33293431Y104491467D01*
X33297995Y104483889D01*
X33302162Y104476039D01*
X33305932Y104467915D01*
X33309305Y104459519D01*
X33312282Y104450850D01*
X33314862Y104441907D01*
X33317044Y104432692D01*
X33318830Y104423205D01*
X33320219Y104413444D01*
X33321211Y104403411D01*
X33321807Y104393104D01*
X33322005Y104382525D01*
X33321807Y104371549D01*
X33321211Y104360846D01*
X33320219Y104350415D01*
X33318830Y104340258D01*
X33317044Y104330373D01*
X33314862Y104320761D01*
X33312282Y104311422D01*
X33309305Y104302356D01*
X33305932Y104293563D01*
X33302162Y104285043D01*
X33297995Y104276795D01*
X33293431Y104268820D01*
X33288470Y104261118D01*
X33283112Y104253689D01*
X33277357Y104246533D01*
X33271206Y104239650D01*
X33264335Y104233114D01*
X33257216Y104227000D01*
X33249849Y104221307D01*
X33242234Y104216036D01*
X33234371Y104211187D01*
X33226260Y104206759D01*
X33217901Y104202753D01*
X33209293Y104199169D01*
X33200438Y104196006D01*
X33191335Y104193265D01*
X33181983Y104190946D01*
X33172384Y104189049D01*
X33162536Y104187573D01*
X33152441Y104186518D01*
X33142097Y104185886D01*
X33131506Y104185675D01*
X33120927Y104185886D01*
X33110620Y104186518D01*
X33100587Y104187573D01*
X33090826Y104189049D01*
X33081338Y104190946D01*
X33072124Y104193265D01*
X33063182Y104196006D01*
X33054512Y104199169D01*
X33046116Y104202753D01*
X33037992Y104206759D01*
X33030141Y104211187D01*
X33022564Y104216036D01*
X33015258Y104221307D01*
X33008226Y104227000D01*
X33001466Y104233114D01*
X32994980Y104239650D01*
X32988444Y104246533D01*
X32982330Y104253689D01*
X32976637Y104261118D01*
X32971366Y104268820D01*
X32966517Y104276795D01*
X32962089Y104285043D01*
X32958083Y104293563D01*
X32954499Y104302356D01*
X32951337Y104311422D01*
X32948596Y104320761D01*
X32946277Y104330373D01*
X32944379Y104340258D01*
X32942903Y104350415D01*
X32941849Y104360846D01*
X32941216Y104371549D01*
X32941005Y104382525D01*
X32941216Y104393104D01*
X32941849Y104403411D01*
X32942903Y104413444D01*
X32944379Y104423205D01*
X32946277Y104432692D01*
X32948596Y104441907D01*
X32951337Y104450850D01*
X32954499Y104459519D01*
X32958083Y104467915D01*
X32962089Y104476039D01*
X32966517Y104483889D01*
X32971366Y104491467D01*
X32976637Y104498772D01*
X32982330Y104505804D01*
X32988444Y104512564D01*
X32994980Y104519050D01*
X33001466Y104525586D01*
X33008226Y104531700D01*
X33015258Y104537393D01*
X33022564Y104542664D01*
X33030141Y104547513D01*
X33037992Y104551941D01*
X33046116Y104555947D01*
X33054512Y104559531D01*
X33063182Y104562694D01*
X33072124Y104565435D01*
X33081338Y104567754D01*
X33090826Y104569652D01*
X33100587Y104571128D01*
X33110620Y104572182D01*
X33120927Y104572814D01*
X33131506Y104573025D01*
X33142097Y104572814D01*
G37*
G36*
X25375093Y96524888D02*
G01*
X25404238Y96523177D01*
X25432441Y96520324D01*
X25459701Y96516331D01*
X25486019Y96511196D01*
X25511394Y96504920D01*
X25535826Y96497504D01*
X25559316Y96488946D01*
X25581864Y96479247D01*
X25603468Y96468408D01*
X25624131Y96456427D01*
X25643850Y96443305D01*
X25662628Y96429043D01*
X25680462Y96413639D01*
X25697355Y96397094D01*
X25713304Y96379409D01*
X25728298Y96361004D01*
X25742325Y96341507D01*
X25755385Y96320919D01*
X25767477Y96299240D01*
X25778602Y96276469D01*
X25788759Y96252607D01*
X25797950Y96227654D01*
X25806172Y96201609D01*
X25813428Y96174472D01*
X25814903Y96167850D01*
X25814903Y96493709D01*
X26145103Y96493709D01*
X26145103Y94747459D01*
X25802204Y94747459D01*
X25802204Y95849184D01*
X25801844Y95871880D01*
X25800765Y95893932D01*
X25798967Y95915338D01*
X25796449Y95936100D01*
X25793212Y95956216D01*
X25789256Y95975688D01*
X25784580Y95994515D01*
X25779185Y96012697D01*
X25773071Y96030234D01*
X25766237Y96047126D01*
X25758684Y96063373D01*
X25750412Y96078975D01*
X25741420Y96093932D01*
X25731709Y96108244D01*
X25721278Y96121911D01*
X25710129Y96134933D01*
X25697937Y96147236D01*
X25685175Y96158746D01*
X25671843Y96169461D01*
X25657940Y96179383D01*
X25643466Y96188512D01*
X25628422Y96196846D01*
X25612808Y96204387D01*
X25596623Y96211134D01*
X25579867Y96217087D01*
X25562541Y96222246D01*
X25544645Y96226612D01*
X25526178Y96230184D01*
X25507140Y96232962D01*
X25487532Y96234946D01*
X25467353Y96236137D01*
X25446604Y96236534D01*
X25425867Y96236137D01*
X25405726Y96234946D01*
X25386180Y96232962D01*
X25367229Y96230184D01*
X25348873Y96226612D01*
X25331113Y96222246D01*
X25313948Y96217087D01*
X25297379Y96211134D01*
X25281404Y96204387D01*
X25266025Y96196846D01*
X25251241Y96188512D01*
X25237053Y96179383D01*
X25223460Y96169461D01*
X25210462Y96158746D01*
X25198060Y96147236D01*
X25186252Y96134933D01*
X25174718Y96122283D01*
X25163928Y96108938D01*
X25153883Y96094899D01*
X25144581Y96080165D01*
X25136024Y96064737D01*
X25128210Y96048614D01*
X25121141Y96031796D01*
X25114816Y96014284D01*
X25109236Y95996077D01*
X25104399Y95977176D01*
X25100306Y95957580D01*
X25096958Y95937290D01*
X25094354Y95916305D01*
X25092493Y95894626D01*
X25091377Y95872252D01*
X25091005Y95849184D01*
X25091005Y95760284D01*
X24738580Y95760284D01*
X24738580Y95877759D01*
X24739225Y95914953D01*
X24741160Y95951131D01*
X24744385Y95986292D01*
X24748899Y96020435D01*
X24754703Y96053562D01*
X24761798Y96085671D01*
X24770181Y96116764D01*
X24779855Y96146840D01*
X24790819Y96175899D01*
X24803072Y96203940D01*
X24816616Y96230965D01*
X24831449Y96256973D01*
X24847572Y96281963D01*
X24864985Y96305937D01*
X24883688Y96328894D01*
X24903681Y96350834D01*
X24924380Y96371980D01*
X24945997Y96391761D01*
X24968532Y96410179D01*
X24991984Y96427232D01*
X25016355Y96442921D01*
X25041643Y96457246D01*
X25067849Y96470206D01*
X25094973Y96481803D01*
X25123015Y96492035D01*
X25151974Y96500902D01*
X25181851Y96508406D01*
X25212646Y96514545D01*
X25244359Y96519320D01*
X25276990Y96522730D01*
X25310539Y96524777D01*
X25345005Y96525459D01*
X25375093Y96524888D01*
G37*
G36*
X46316464Y96524888D02*
G01*
X46345609Y96523177D01*
X46373812Y96520324D01*
X46401072Y96516331D01*
X46427390Y96511196D01*
X46452765Y96504920D01*
X46477197Y96497504D01*
X46500687Y96488946D01*
X46523234Y96479247D01*
X46544839Y96468408D01*
X46565501Y96456427D01*
X46585221Y96443305D01*
X46603998Y96429043D01*
X46621833Y96413639D01*
X46638725Y96397094D01*
X46654674Y96379409D01*
X46669669Y96361004D01*
X46683696Y96341507D01*
X46696755Y96320919D01*
X46708847Y96299240D01*
X46719972Y96276469D01*
X46730130Y96252607D01*
X46739320Y96227654D01*
X46747543Y96201609D01*
X46754798Y96174472D01*
X46756274Y96167847D01*
X46756274Y96493709D01*
X47086474Y96493709D01*
X47086474Y94747459D01*
X46743574Y94747459D01*
X46743574Y95849184D01*
X46743214Y95871880D01*
X46742135Y95893932D01*
X46740337Y95915338D01*
X46737819Y95936100D01*
X46734582Y95956216D01*
X46730626Y95975688D01*
X46725950Y95994515D01*
X46720555Y96012697D01*
X46714441Y96030234D01*
X46707607Y96047126D01*
X46700054Y96063373D01*
X46691782Y96078975D01*
X46682790Y96093932D01*
X46673079Y96108244D01*
X46662649Y96121911D01*
X46651499Y96134933D01*
X46639308Y96147236D01*
X46626546Y96158746D01*
X46613213Y96169461D01*
X46599310Y96179383D01*
X46584837Y96188512D01*
X46569793Y96196846D01*
X46554178Y96204387D01*
X46537993Y96211134D01*
X46521238Y96217087D01*
X46503912Y96222246D01*
X46486015Y96226612D01*
X46467549Y96230184D01*
X46448511Y96232962D01*
X46428904Y96234946D01*
X46408725Y96236137D01*
X46387977Y96236534D01*
X46367240Y96236137D01*
X46347099Y96234946D01*
X46327552Y96232962D01*
X46308602Y96230184D01*
X46290246Y96226612D01*
X46272486Y96222246D01*
X46255321Y96217087D01*
X46238752Y96211134D01*
X46222778Y96204387D01*
X46207399Y96196846D01*
X46192615Y96188512D01*
X46178427Y96179383D01*
X46164834Y96169461D01*
X46151836Y96158746D01*
X46139434Y96147236D01*
X46127627Y96134933D01*
X46116092Y96122283D01*
X46105302Y96108938D01*
X46095257Y96094899D01*
X46085955Y96080165D01*
X46077397Y96064737D01*
X46069584Y96048614D01*
X46062514Y96031796D01*
X46056189Y96014284D01*
X46050608Y95996077D01*
X46045771Y95977176D01*
X46041679Y95957580D01*
X46038330Y95937290D01*
X46035725Y95916305D01*
X46033865Y95894626D01*
X46032749Y95872252D01*
X46032377Y95849184D01*
X46032377Y95760284D01*
X45679952Y95760284D01*
X45679952Y95877759D01*
X45680597Y95914953D01*
X45682531Y95951131D01*
X45685756Y95986292D01*
X45690270Y96020435D01*
X45696075Y96053562D01*
X45703169Y96085671D01*
X45711553Y96116764D01*
X45721227Y96146840D01*
X45732190Y96175899D01*
X45744444Y96203940D01*
X45757987Y96230965D01*
X45772821Y96256973D01*
X45788944Y96281963D01*
X45806356Y96305937D01*
X45825059Y96328894D01*
X45845052Y96350834D01*
X45865751Y96371980D01*
X45887369Y96391761D01*
X45909904Y96410179D01*
X45933356Y96427232D01*
X45957727Y96442921D01*
X45983015Y96457246D01*
X46009222Y96470206D01*
X46036345Y96481803D01*
X46064387Y96492035D01*
X46093347Y96500902D01*
X46123224Y96508406D01*
X46154019Y96514545D01*
X46185732Y96519320D01*
X46218362Y96522730D01*
X46251911Y96524777D01*
X46286377Y96525459D01*
X46316464Y96524888D01*
G37*
G36*
X21615408Y96525000D02*
G01*
X21641677Y96523623D01*
X21667201Y96521329D01*
X21691981Y96518117D01*
X21716017Y96513987D01*
X21739308Y96508939D01*
X21761856Y96502974D01*
X21783659Y96496090D01*
X21804718Y96488289D01*
X21825033Y96479570D01*
X21844604Y96469934D01*
X21863431Y96459379D01*
X21881513Y96447907D01*
X21898851Y96435517D01*
X21915445Y96422209D01*
X21931295Y96407983D01*
X21946290Y96392939D01*
X21960317Y96377176D01*
X21973377Y96360693D01*
X21985470Y96343491D01*
X21996595Y96325570D01*
X22006753Y96306929D01*
X22015943Y96287569D01*
X22024166Y96267490D01*
X22031421Y96246691D01*
X22037709Y96225173D01*
X22043030Y96202936D01*
X22047383Y96179979D01*
X22050193Y96160333D01*
X22055122Y96160333D01*
X22055122Y96493709D01*
X22394848Y96493709D01*
X22394848Y94747459D01*
X22051946Y94747459D01*
X22051946Y95849184D01*
X22051587Y95871855D01*
X22050508Y95893832D01*
X22048709Y95915115D01*
X22046192Y95935703D01*
X22042955Y95955596D01*
X22038999Y95974795D01*
X22034323Y95993299D01*
X22028928Y96011109D01*
X22022813Y96028224D01*
X22015980Y96044645D01*
X22008427Y96060371D01*
X22000154Y96075402D01*
X21991163Y96089739D01*
X21981451Y96103382D01*
X21971021Y96116330D01*
X21959871Y96128584D01*
X21947704Y96140502D01*
X21935017Y96151652D01*
X21921809Y96162033D01*
X21908079Y96171645D01*
X21893829Y96180488D01*
X21879058Y96188562D01*
X21863766Y96195867D01*
X21847953Y96202403D01*
X21831619Y96208170D01*
X21814764Y96213168D01*
X21797389Y96217398D01*
X21779492Y96220858D01*
X21761074Y96223549D01*
X21742136Y96225472D01*
X21722676Y96226625D01*
X21702696Y96227009D01*
X21683112Y96226650D01*
X21664050Y96225571D01*
X21645509Y96223772D01*
X21627488Y96221255D01*
X21609989Y96218018D01*
X21593010Y96214061D01*
X21576552Y96209385D01*
X21560615Y96203990D01*
X21545199Y96197876D01*
X21530304Y96191042D01*
X21515930Y96183489D01*
X21502077Y96175217D01*
X21488744Y96166225D01*
X21475932Y96156514D01*
X21463642Y96146083D01*
X21451872Y96134933D01*
X21440722Y96123114D01*
X21430291Y96110674D01*
X21420580Y96097615D01*
X21411588Y96083935D01*
X21403316Y96069635D01*
X21395763Y96054715D01*
X21388929Y96039175D01*
X21382815Y96023015D01*
X21377420Y96006235D01*
X21372744Y95988834D01*
X21368788Y95970814D01*
X21365551Y95952173D01*
X21363033Y95932912D01*
X21361235Y95913031D01*
X21360156Y95892530D01*
X21359796Y95871409D01*
X21359796Y94747459D01*
X21016897Y94747459D01*
X21016897Y95909509D01*
X21017505Y95944372D01*
X21019328Y95978317D01*
X21022366Y96011344D01*
X21026620Y96043454D01*
X21032090Y96074646D01*
X21038775Y96104920D01*
X21046675Y96134276D01*
X21055791Y96162715D01*
X21066122Y96190235D01*
X21077669Y96216838D01*
X21090431Y96242524D01*
X21104408Y96267291D01*
X21119601Y96291141D01*
X21136009Y96314073D01*
X21153633Y96336087D01*
X21172472Y96357183D01*
X21192328Y96377560D01*
X21213002Y96396623D01*
X21234496Y96414370D01*
X21256807Y96430804D01*
X21279938Y96445922D01*
X21303887Y96459726D01*
X21328654Y96472215D01*
X21354240Y96483390D01*
X21380645Y96493250D01*
X21407868Y96501795D01*
X21435910Y96509026D01*
X21464770Y96514942D01*
X21494449Y96519543D01*
X21524946Y96522830D01*
X21556262Y96524802D01*
X21588396Y96525459D01*
X21615408Y96525000D01*
G37*
G36*
X42269314Y103849125D02*
G01*
X42269723Y103824854D01*
X42270951Y103801252D01*
X42272998Y103778320D01*
X42275862Y103756058D01*
X42279546Y103734465D01*
X42284048Y103713543D01*
X42289369Y103693290D01*
X42295508Y103673706D01*
X42302466Y103654793D01*
X42310242Y103636549D01*
X42318837Y103618975D01*
X42328250Y103602070D01*
X42338482Y103585836D01*
X42349532Y103570271D01*
X42361401Y103555376D01*
X42374089Y103541150D01*
X42387087Y103528078D01*
X42400680Y103515849D01*
X42414868Y103504464D01*
X42429651Y103493922D01*
X42445030Y103484223D01*
X42461004Y103475368D01*
X42477574Y103467356D01*
X42494739Y103460188D01*
X42512499Y103453862D01*
X42530854Y103448381D01*
X42549805Y103443742D01*
X42569351Y103439947D01*
X42589493Y103436995D01*
X42610229Y103434887D01*
X42631562Y103433622D01*
X42653489Y103433200D01*
X42675032Y103433622D01*
X42696004Y103434887D01*
X42716406Y103436995D01*
X42736237Y103439947D01*
X42755498Y103443742D01*
X42774188Y103448381D01*
X42792308Y103453862D01*
X42809857Y103460188D01*
X42826836Y103467356D01*
X42843245Y103475368D01*
X42859082Y103484223D01*
X42874350Y103493922D01*
X42889047Y103504464D01*
X42903173Y103515849D01*
X42916729Y103528078D01*
X42929714Y103541150D01*
X42942017Y103555376D01*
X42953526Y103570271D01*
X42964242Y103585836D01*
X42974164Y103602070D01*
X42983292Y103618975D01*
X42991627Y103636549D01*
X42999167Y103654793D01*
X43005914Y103673706D01*
X43011867Y103693290D01*
X43017027Y103713543D01*
X43021392Y103734465D01*
X43024964Y103756058D01*
X43027742Y103778320D01*
X43029727Y103801252D01*
X43030917Y103824854D01*
X43031314Y103849125D01*
X43031314Y104960375D01*
X43317064Y104960375D01*
X43317064Y103849125D01*
X43316357Y103811124D01*
X43314236Y103774116D01*
X43310702Y103738099D01*
X43305753Y103703075D01*
X43299391Y103669043D01*
X43291614Y103636003D01*
X43282424Y103603956D01*
X43271820Y103572900D01*
X43259802Y103542837D01*
X43246371Y103513766D01*
X43231525Y103485687D01*
X43215266Y103458600D01*
X43197592Y103432506D01*
X43178505Y103407403D01*
X43158004Y103383293D01*
X43136089Y103360175D01*
X43112996Y103338645D01*
X43088960Y103318503D01*
X43063982Y103299751D01*
X43038061Y103282388D01*
X43011197Y103266413D01*
X42983391Y103251828D01*
X42954643Y103238632D01*
X42924951Y103226825D01*
X42894318Y103216407D01*
X42862741Y103207378D01*
X42830222Y103199738D01*
X42796761Y103193488D01*
X42762357Y103188626D01*
X42727010Y103185153D01*
X42690721Y103183070D01*
X42653489Y103182375D01*
X42616245Y103183070D01*
X42579918Y103185153D01*
X42544510Y103188626D01*
X42510019Y103193488D01*
X42476445Y103199738D01*
X42443790Y103207378D01*
X42412053Y103216407D01*
X42381233Y103226825D01*
X42351331Y103238632D01*
X42322346Y103251828D01*
X42294280Y103266413D01*
X42267131Y103282388D01*
X42240900Y103299751D01*
X42215587Y103318503D01*
X42191192Y103338645D01*
X42167714Y103360175D01*
X42145415Y103383293D01*
X42124554Y103407403D01*
X42105132Y103432506D01*
X42087148Y103458600D01*
X42070604Y103485687D01*
X42055498Y103513766D01*
X42041830Y103542837D01*
X42029601Y103572900D01*
X42018811Y103603956D01*
X42009460Y103636003D01*
X42001547Y103669043D01*
X41995073Y103703075D01*
X41990038Y103738099D01*
X41986441Y103774116D01*
X41984283Y103811124D01*
X41983564Y103849125D01*
X41983564Y104960375D01*
X42269314Y104960375D01*
X42269314Y103849125D01*
G37*
G36*
X46076827Y103849125D02*
G01*
X46077236Y103824854D01*
X46078464Y103801252D01*
X46080510Y103778320D01*
X46083375Y103756058D01*
X46087059Y103734465D01*
X46091561Y103713543D01*
X46096881Y103693290D01*
X46103020Y103673706D01*
X46109978Y103654793D01*
X46117754Y103636549D01*
X46126349Y103618975D01*
X46135763Y103602070D01*
X46145994Y103585836D01*
X46157045Y103570271D01*
X46168914Y103555376D01*
X46181602Y103541150D01*
X46194599Y103528078D01*
X46208192Y103515849D01*
X46222381Y103504464D01*
X46237164Y103493922D01*
X46252543Y103484223D01*
X46268517Y103475368D01*
X46285087Y103467356D01*
X46302251Y103460188D01*
X46320011Y103453862D01*
X46338367Y103448381D01*
X46357317Y103443742D01*
X46376863Y103439947D01*
X46397004Y103436995D01*
X46417741Y103434887D01*
X46439072Y103433622D01*
X46460999Y103433200D01*
X46482542Y103433622D01*
X46503514Y103434887D01*
X46523916Y103436995D01*
X46543747Y103439947D01*
X46563008Y103443742D01*
X46581699Y103448381D01*
X46599818Y103453862D01*
X46617368Y103460188D01*
X46634347Y103467356D01*
X46650755Y103475368D01*
X46666593Y103484223D01*
X46681860Y103493922D01*
X46696557Y103504464D01*
X46710683Y103515849D01*
X46724239Y103528078D01*
X46737224Y103541150D01*
X46749527Y103555376D01*
X46761037Y103570271D01*
X46771752Y103585836D01*
X46781674Y103602070D01*
X46790802Y103618975D01*
X46799137Y103636549D01*
X46806677Y103654793D01*
X46813424Y103673706D01*
X46819377Y103693290D01*
X46824537Y103713543D01*
X46828902Y103734465D01*
X46832474Y103756058D01*
X46835252Y103778320D01*
X46837237Y103801252D01*
X46838427Y103824854D01*
X46838824Y103849125D01*
X46838824Y104960375D01*
X47124574Y104960375D01*
X47124574Y103849125D01*
X47123867Y103811124D01*
X47121746Y103774116D01*
X47118212Y103738099D01*
X47113263Y103703075D01*
X47106901Y103669043D01*
X47099124Y103636003D01*
X47089934Y103603956D01*
X47079330Y103572900D01*
X47067312Y103542837D01*
X47053881Y103513766D01*
X47039035Y103485687D01*
X47022776Y103458600D01*
X47005102Y103432506D01*
X46986015Y103407403D01*
X46965514Y103383293D01*
X46943599Y103360175D01*
X46920506Y103338645D01*
X46896470Y103318503D01*
X46871492Y103299751D01*
X46845571Y103282388D01*
X46818707Y103266413D01*
X46790901Y103251828D01*
X46762153Y103238632D01*
X46732462Y103226825D01*
X46701828Y103216407D01*
X46670251Y103207378D01*
X46637732Y103199738D01*
X46604271Y103193488D01*
X46569867Y103188626D01*
X46534520Y103185153D01*
X46498231Y103183070D01*
X46460999Y103182375D01*
X46423755Y103183070D01*
X46387429Y103185153D01*
X46352021Y103188626D01*
X46317530Y103193488D01*
X46283957Y103199738D01*
X46251302Y103207378D01*
X46219565Y103216407D01*
X46188745Y103226825D01*
X46158843Y103238632D01*
X46129859Y103251828D01*
X46101792Y103266413D01*
X46074644Y103282388D01*
X46048413Y103299751D01*
X46023100Y103318503D01*
X45998704Y103338645D01*
X45975227Y103360175D01*
X45952927Y103383293D01*
X45932067Y103407403D01*
X45912644Y103432506D01*
X45894661Y103458600D01*
X45878116Y103485687D01*
X45863010Y103513766D01*
X45849343Y103542837D01*
X45837114Y103572900D01*
X45826324Y103603956D01*
X45816973Y103636003D01*
X45809060Y103669043D01*
X45802586Y103703075D01*
X45797551Y103738099D01*
X45793954Y103774116D01*
X45791796Y103811124D01*
X45791077Y103849125D01*
X45791077Y104960375D01*
X46076827Y104960375D01*
X46076827Y103849125D01*
G37*
G36*
X48296520Y104991678D02*
G01*
X48322789Y104990339D01*
X48348313Y104988107D01*
X48373092Y104984981D01*
X48397128Y104980963D01*
X48420420Y104976052D01*
X48442967Y104970247D01*
X48464771Y104963550D01*
X48485830Y104955960D01*
X48506145Y104947477D01*
X48525716Y104938100D01*
X48544542Y104927831D01*
X48562625Y104916669D01*
X48579963Y104904614D01*
X48596558Y104891666D01*
X48612408Y104877825D01*
X48627402Y104863562D01*
X48641429Y104848556D01*
X48654489Y104832805D01*
X48666581Y104816309D01*
X48677706Y104799070D01*
X48687864Y104781087D01*
X48697054Y104762359D01*
X48705277Y104742888D01*
X48712532Y104722672D01*
X48718820Y104701712D01*
X48724141Y104680008D01*
X48728494Y104657559D01*
X48731880Y104634367D01*
X48732624Y104627000D01*
X48736233Y104627000D01*
X48736233Y104960375D01*
X49021983Y104960375D01*
X49021983Y103214125D01*
X48736233Y103214125D01*
X48736233Y104325375D01*
X48735836Y104350403D01*
X48734646Y104374687D01*
X48732661Y104398226D01*
X48729883Y104421022D01*
X48726311Y104443073D01*
X48721946Y104464381D01*
X48716786Y104484944D01*
X48710833Y104504763D01*
X48704086Y104523837D01*
X48696545Y104542168D01*
X48688211Y104559755D01*
X48679083Y104576597D01*
X48669161Y104592695D01*
X48658446Y104608049D01*
X48646936Y104622659D01*
X48634633Y104636525D01*
X48621251Y104649597D01*
X48607298Y104661826D01*
X48592775Y104673211D01*
X48577681Y104683753D01*
X48562017Y104693452D01*
X48545783Y104702307D01*
X48528977Y104710319D01*
X48511602Y104717488D01*
X48493656Y104723813D01*
X48475139Y104729295D01*
X48456052Y104733933D01*
X48436394Y104737728D01*
X48416166Y104740680D01*
X48395367Y104742788D01*
X48373998Y104744053D01*
X48352058Y104744475D01*
X48330912Y104744078D01*
X48310337Y104742888D01*
X48290332Y104740903D01*
X48270897Y104738125D01*
X48252033Y104734553D01*
X48233740Y104730188D01*
X48216017Y104725028D01*
X48198864Y104719075D01*
X48182282Y104712328D01*
X48166271Y104704788D01*
X48150830Y104696453D01*
X48135960Y104687325D01*
X48121660Y104677403D01*
X48107930Y104666688D01*
X48094771Y104655178D01*
X48082183Y104642875D01*
X48069880Y104630225D01*
X48058371Y104616880D01*
X48047655Y104602840D01*
X48037733Y104588106D01*
X48028605Y104572678D01*
X48020271Y104556555D01*
X48012730Y104539737D01*
X48005983Y104522225D01*
X48000030Y104504018D01*
X47994871Y104485117D01*
X47990505Y104465522D01*
X47986933Y104445231D01*
X47984155Y104424247D01*
X47982171Y104402567D01*
X47980980Y104380193D01*
X47980583Y104357125D01*
X47980583Y103214125D01*
X47694833Y103214125D01*
X47694833Y104388875D01*
X47695441Y104423341D01*
X47697264Y104456889D01*
X47700302Y104489520D01*
X47704556Y104521233D01*
X47710026Y104552028D01*
X47716711Y104581905D01*
X47724611Y104610865D01*
X47733727Y104638906D01*
X47744058Y104666030D01*
X47755605Y104692236D01*
X47768367Y104717525D01*
X47782344Y104741895D01*
X47797537Y104765348D01*
X47813945Y104787883D01*
X47831569Y104809501D01*
X47850408Y104830200D01*
X47870277Y104849808D01*
X47890989Y104868151D01*
X47912544Y104885229D01*
X47934942Y104901042D01*
X47958184Y104915590D01*
X47982270Y104928873D01*
X48007198Y104940891D01*
X48032971Y104951644D01*
X48059586Y104961132D01*
X48087045Y104969354D01*
X48115347Y104976312D01*
X48144492Y104982005D01*
X48174481Y104986432D01*
X48205314Y104989595D01*
X48236989Y104991492D01*
X48269508Y104992125D01*
X48296520Y104991678D01*
G37*
G36*
X29353560Y105563302D02*
G01*
X29379555Y105562335D01*
X29405154Y105560723D01*
X29430356Y105558465D01*
X29455161Y105555563D01*
X29479569Y105552016D01*
X29503580Y105547824D01*
X29527194Y105542987D01*
X29550411Y105537505D01*
X29573231Y105531379D01*
X29595654Y105524607D01*
X29617681Y105517190D01*
X29639310Y105509129D01*
X29660543Y105500422D01*
X29681379Y105491071D01*
X29701818Y105481075D01*
X29721401Y105470471D01*
X29740464Y105459296D01*
X29759005Y105447551D01*
X29777026Y105435236D01*
X29794525Y105422350D01*
X29811504Y105408893D01*
X29827962Y105394866D01*
X29843899Y105380269D01*
X29859315Y105365100D01*
X29874210Y105349362D01*
X29888584Y105333053D01*
X29902437Y105316173D01*
X29915770Y105298723D01*
X29928581Y105280703D01*
X29940872Y105262112D01*
X29952642Y105242950D01*
X29963432Y105223677D01*
X29973577Y105203957D01*
X29983078Y105183791D01*
X29991933Y105163178D01*
X30000143Y105142119D01*
X30007709Y105120613D01*
X30014629Y105098661D01*
X30020905Y105076263D01*
X30026536Y105053417D01*
X30031522Y105030126D01*
X30035862Y105006388D01*
X30039558Y104982203D01*
X30042609Y104957572D01*
X30045016Y104932495D01*
X30046777Y104906971D01*
X30047893Y104881000D01*
X29762142Y104881000D01*
X29761695Y104905668D01*
X29760356Y104929667D01*
X29758124Y104952996D01*
X29754998Y104975655D01*
X29750980Y104997644D01*
X29746069Y105018964D01*
X29740264Y105039614D01*
X29733567Y105059594D01*
X29725977Y105078904D01*
X29717494Y105097545D01*
X29708118Y105115516D01*
X29697849Y105132817D01*
X29686686Y105149449D01*
X29674631Y105165411D01*
X29661683Y105180703D01*
X29647842Y105195325D01*
X29632823Y105209166D01*
X29617134Y105222114D01*
X29600776Y105234169D01*
X29583747Y105245331D01*
X29566049Y105255600D01*
X29547682Y105264976D01*
X29528644Y105273460D01*
X29508937Y105281050D01*
X29488560Y105287747D01*
X29467513Y105293551D01*
X29445796Y105298463D01*
X29423410Y105302481D01*
X29400354Y105305606D01*
X29376628Y105307839D01*
X29352233Y105309178D01*
X29327167Y105309625D01*
X29304459Y105309191D01*
X29282371Y105307888D01*
X29260902Y105305718D01*
X29240054Y105302679D01*
X29219826Y105298773D01*
X29200218Y105293998D01*
X29181230Y105288355D01*
X29162862Y105281844D01*
X29145114Y105274464D01*
X29127986Y105266217D01*
X29111479Y105257101D01*
X29095591Y105247117D01*
X29080324Y105236265D01*
X29065676Y105224545D01*
X29051649Y105211957D01*
X29038242Y105198500D01*
X29025170Y105184287D01*
X29012942Y105169429D01*
X29001556Y105153926D01*
X28991014Y105137778D01*
X28981316Y105120985D01*
X28972461Y105103548D01*
X28964449Y105085465D01*
X28957281Y105066738D01*
X28950956Y105047365D01*
X28945474Y105027348D01*
X28940835Y105006685D01*
X28937041Y104985378D01*
X28934089Y104963426D01*
X28931980Y104940829D01*
X28930715Y104917587D01*
X28930294Y104893700D01*
X28930616Y104876188D01*
X28931584Y104858577D01*
X28933196Y104840866D01*
X28935453Y104823056D01*
X28938355Y104805147D01*
X28941902Y104787139D01*
X28946094Y104769032D01*
X28950931Y104750825D01*
X28956412Y104732519D01*
X28962539Y104714114D01*
X28969310Y104695610D01*
X28976727Y104677006D01*
X28984788Y104658304D01*
X28993495Y104639502D01*
X29002846Y104620600D01*
X29012842Y104601600D01*
X29023545Y104582773D01*
X29035017Y104563599D01*
X29060268Y104524209D01*
X29088595Y104483431D01*
X29119998Y104441263D01*
X29154477Y104397706D01*
X29192031Y104352759D01*
X29232661Y104306424D01*
X29276367Y104258700D01*
X29984394Y103506225D01*
X29984394Y103214125D01*
X28606443Y103214125D01*
X28606443Y103474475D01*
X29663719Y103474475D01*
X29092218Y104065025D01*
X29034770Y104126094D01*
X28981490Y104185477D01*
X28932376Y104243172D01*
X28887430Y104299181D01*
X28866520Y104326553D01*
X28846652Y104353504D01*
X28827825Y104380032D01*
X28810040Y104406139D01*
X28793297Y104431824D01*
X28777596Y104457088D01*
X28762936Y104481930D01*
X28749319Y104506350D01*
X28736631Y104530572D01*
X28724762Y104554818D01*
X28713711Y104579090D01*
X28703479Y104603386D01*
X28694066Y104627707D01*
X28685471Y104652053D01*
X28677694Y104676423D01*
X28670737Y104700819D01*
X28664597Y104725239D01*
X28659277Y104749684D01*
X28654775Y104774154D01*
X28651091Y104798648D01*
X28648226Y104823168D01*
X28646180Y104847712D01*
X28644952Y104872281D01*
X28644542Y104896875D01*
X28644865Y104922449D01*
X28645832Y104947576D01*
X28647445Y104972256D01*
X28649702Y104996491D01*
X28652604Y105020278D01*
X28656151Y105043620D01*
X28660343Y105066514D01*
X28665180Y105088963D01*
X28670662Y105110964D01*
X28676789Y105132520D01*
X28683561Y105153628D01*
X28690978Y105174291D01*
X28699040Y105194506D01*
X28707746Y105214276D01*
X28717098Y105233599D01*
X28727094Y105252475D01*
X28737698Y105270855D01*
X28748873Y105288690D01*
X28760618Y105305979D01*
X28772933Y105322722D01*
X28785819Y105338919D01*
X28799275Y105354571D01*
X28813302Y105369677D01*
X28827900Y105384237D01*
X28843068Y105398252D01*
X28858806Y105411721D01*
X28875115Y105424644D01*
X28891994Y105437022D01*
X28909444Y105448853D01*
X28927465Y105460140D01*
X28946056Y105470880D01*
X28965217Y105481075D01*
X28984491Y105491071D01*
X29004210Y105500422D01*
X29024377Y105509129D01*
X29044989Y105517190D01*
X29066049Y105524607D01*
X29087554Y105531379D01*
X29109506Y105537505D01*
X29131905Y105542987D01*
X29154750Y105547824D01*
X29178042Y105552016D01*
X29201780Y105555563D01*
X29225964Y105558465D01*
X29250595Y105560723D01*
X29275673Y105562335D01*
X29301197Y105563302D01*
X29327167Y105563625D01*
X29353560Y105563302D01*
G37*
G36*
X37126926Y96525112D02*
G01*
X37142962Y96524070D01*
X37158577Y96522334D01*
X37173770Y96519903D01*
X37188541Y96516777D01*
X37202890Y96512957D01*
X37216818Y96508443D01*
X37230325Y96503234D01*
X37243409Y96497330D01*
X37256072Y96490732D01*
X37268313Y96483440D01*
X37280132Y96475453D01*
X37291530Y96466771D01*
X37302506Y96457395D01*
X37313061Y96447324D01*
X37323193Y96436559D01*
X37332805Y96425608D01*
X37341797Y96414185D01*
X37350168Y96402291D01*
X37357920Y96389926D01*
X37365051Y96377090D01*
X37371562Y96363782D01*
X37377453Y96350003D01*
X37382724Y96335752D01*
X37387375Y96321031D01*
X37391406Y96305838D01*
X37394816Y96290174D01*
X37397607Y96274038D01*
X37397944Y96271459D01*
X37418443Y96271459D01*
X37418443Y96493709D01*
X37704194Y96493709D01*
X37704194Y94747459D01*
X37396218Y94747459D01*
X37396218Y96071434D01*
X37396069Y96083551D01*
X37395623Y96095296D01*
X37394879Y96106669D01*
X37393837Y96117670D01*
X37392497Y96128299D01*
X37390860Y96138556D01*
X37388925Y96148441D01*
X37386693Y96157953D01*
X37384163Y96167094D01*
X37381335Y96175862D01*
X37378210Y96184258D01*
X37374787Y96192283D01*
X37371066Y96199935D01*
X37367048Y96207215D01*
X37362732Y96214123D01*
X37358118Y96220659D01*
X37352810Y96227195D01*
X37347204Y96233309D01*
X37341300Y96239002D01*
X37335099Y96244273D01*
X37328601Y96249122D01*
X37321804Y96253550D01*
X37314710Y96257556D01*
X37307318Y96261140D01*
X37299629Y96264302D01*
X37291642Y96267043D01*
X37283357Y96269362D01*
X37274775Y96271260D01*
X37265895Y96272736D01*
X37256717Y96273790D01*
X37247242Y96274422D01*
X37237468Y96274633D01*
X37227299Y96274422D01*
X37217426Y96273790D01*
X37207852Y96272736D01*
X37198575Y96271260D01*
X37189596Y96269362D01*
X37180914Y96267043D01*
X37172530Y96264302D01*
X37164444Y96261140D01*
X37156655Y96257556D01*
X37149164Y96253550D01*
X37141970Y96249122D01*
X37135075Y96244273D01*
X37128476Y96239002D01*
X37122176Y96233309D01*
X37116173Y96227195D01*
X37110468Y96220659D01*
X37105085Y96214111D01*
X37100050Y96207165D01*
X37095362Y96199823D01*
X37091021Y96192084D01*
X37087028Y96183948D01*
X37083381Y96175415D01*
X37080082Y96166486D01*
X37077131Y96157159D01*
X37074526Y96147435D01*
X37072269Y96137315D01*
X37070359Y96126798D01*
X37068796Y96115884D01*
X37067581Y96104573D01*
X37066712Y96092865D01*
X37066192Y96080760D01*
X37066018Y96068259D01*
X37066018Y94747459D01*
X36808843Y94747459D01*
X36808843Y96071434D01*
X36808682Y96083551D01*
X36808198Y96095296D01*
X36807392Y96106669D01*
X36806264Y96117670D01*
X36804813Y96128299D01*
X36803039Y96138556D01*
X36800943Y96148441D01*
X36798525Y96157953D01*
X36795784Y96167094D01*
X36792721Y96175862D01*
X36789335Y96184258D01*
X36785626Y96192283D01*
X36781596Y96199935D01*
X36777242Y96207215D01*
X36772567Y96214123D01*
X36767568Y96220659D01*
X36761876Y96227195D01*
X36755910Y96233309D01*
X36749672Y96239002D01*
X36743161Y96244273D01*
X36736377Y96249122D01*
X36729320Y96253550D01*
X36721990Y96257556D01*
X36714387Y96261140D01*
X36706512Y96264302D01*
X36698363Y96267043D01*
X36689942Y96269362D01*
X36681248Y96271260D01*
X36672281Y96272736D01*
X36663041Y96273790D01*
X36653529Y96274422D01*
X36643743Y96274633D01*
X36633970Y96274422D01*
X36624495Y96273790D01*
X36615317Y96272736D01*
X36606437Y96271260D01*
X36597855Y96269362D01*
X36589570Y96267043D01*
X36581583Y96264302D01*
X36573894Y96261140D01*
X36566502Y96257556D01*
X36559408Y96253550D01*
X36552611Y96249122D01*
X36546112Y96244273D01*
X36539911Y96239002D01*
X36534008Y96233309D01*
X36528402Y96227195D01*
X36523094Y96220659D01*
X36517711Y96213738D01*
X36512676Y96206470D01*
X36507988Y96198855D01*
X36503647Y96190893D01*
X36499653Y96182583D01*
X36496007Y96173927D01*
X36492708Y96164922D01*
X36489756Y96155571D01*
X36487152Y96145873D01*
X36484895Y96135827D01*
X36482985Y96125434D01*
X36481422Y96114693D01*
X36480207Y96103606D01*
X36479339Y96092171D01*
X36478818Y96080388D01*
X36478644Y96068259D01*
X36478644Y94747459D01*
X36173844Y94747459D01*
X36173844Y96077783D01*
X36174204Y96102861D01*
X36175283Y96127294D01*
X36177081Y96151082D01*
X36179599Y96174224D01*
X36182836Y96196722D01*
X36186792Y96218575D01*
X36191467Y96239783D01*
X36196862Y96260347D01*
X36202977Y96280265D01*
X36209810Y96299538D01*
X36217363Y96318166D01*
X36225635Y96336150D01*
X36234627Y96353488D01*
X36244338Y96370182D01*
X36254769Y96386230D01*
X36265918Y96401634D01*
X36277701Y96416628D01*
X36290029Y96430655D01*
X36302902Y96443715D01*
X36316322Y96455807D01*
X36330287Y96466932D01*
X36344797Y96477089D01*
X36359854Y96486280D01*
X36375456Y96494502D01*
X36391604Y96501758D01*
X36408297Y96508046D01*
X36425536Y96513366D01*
X36443321Y96517720D01*
X36461652Y96521106D01*
X36480528Y96523524D01*
X36499950Y96524975D01*
X36519918Y96525459D01*
X36536773Y96525112D01*
X36553206Y96524070D01*
X36569218Y96522334D01*
X36584808Y96519903D01*
X36599976Y96516777D01*
X36614722Y96512957D01*
X36629047Y96508443D01*
X36642950Y96503234D01*
X36656431Y96497330D01*
X36669491Y96490732D01*
X36682129Y96483440D01*
X36694345Y96475453D01*
X36706140Y96466771D01*
X36717513Y96457395D01*
X36728464Y96447324D01*
X36738993Y96436559D01*
X36748605Y96425608D01*
X36757597Y96414185D01*
X36765968Y96402291D01*
X36773720Y96389926D01*
X36780851Y96377090D01*
X36787362Y96363782D01*
X36793253Y96350003D01*
X36798524Y96335752D01*
X36803175Y96321031D01*
X36807206Y96305838D01*
X36810616Y96290174D01*
X36813407Y96274038D01*
X36813744Y96271459D01*
X36829194Y96271459D01*
X36831862Y96282571D01*
X36837133Y96301299D01*
X36843024Y96319381D01*
X36849535Y96336819D01*
X36856666Y96353612D01*
X36864418Y96369759D01*
X36872790Y96385262D01*
X36881781Y96400120D01*
X36891393Y96414333D01*
X36901179Y96427790D01*
X36911485Y96440378D01*
X36922313Y96452099D01*
X36933661Y96462951D01*
X36945530Y96472935D01*
X36957920Y96482051D01*
X36970831Y96490298D01*
X36984262Y96497678D01*
X36998215Y96504189D01*
X37012688Y96509832D01*
X37027683Y96514607D01*
X37043198Y96518514D01*
X37059234Y96521552D01*
X37075791Y96523723D01*
X37092869Y96525025D01*
X37110468Y96525459D01*
X37126926Y96525112D01*
G37*
G36*
X41451381Y95372934D02*
G01*
X41450761Y95335714D01*
X41448901Y95299462D01*
X41445800Y95264178D01*
X41441459Y95229860D01*
X41435878Y95196510D01*
X41429057Y95164128D01*
X41420995Y95132713D01*
X41411694Y95102265D01*
X41401152Y95072784D01*
X41389369Y95044272D01*
X41376347Y95016726D01*
X41362084Y94990148D01*
X41346581Y94964537D01*
X41329838Y94939894D01*
X41311855Y94916218D01*
X41292631Y94893510D01*
X41272378Y94871979D01*
X41251307Y94851837D01*
X41229416Y94833085D01*
X41206708Y94815722D01*
X41183180Y94799747D01*
X41158835Y94785162D01*
X41133670Y94771966D01*
X41107687Y94760159D01*
X41080886Y94749741D01*
X41053266Y94740712D01*
X41024827Y94733073D01*
X40995570Y94726822D01*
X40965495Y94721960D01*
X40934600Y94718487D01*
X40902888Y94716404D01*
X40870356Y94715709D01*
X40843716Y94716168D01*
X40817770Y94717545D01*
X40792519Y94719839D01*
X40767963Y94723051D01*
X40744101Y94727181D01*
X40720933Y94732229D01*
X40698460Y94738195D01*
X40676681Y94745078D01*
X40655597Y94752879D01*
X40635208Y94761598D01*
X40615513Y94771234D01*
X40596513Y94781789D01*
X40578207Y94793261D01*
X40560595Y94805651D01*
X40543678Y94818958D01*
X40527456Y94833184D01*
X40512077Y94848600D01*
X40497690Y94864686D01*
X40484296Y94881442D01*
X40471893Y94898867D01*
X40460483Y94916962D01*
X40450065Y94935727D01*
X40440639Y94955161D01*
X40432206Y94975265D01*
X40424765Y94996039D01*
X40418315Y95017483D01*
X40412858Y95039596D01*
X40408394Y95062379D01*
X40405661Y95080834D01*
X40400456Y95080834D01*
X40400456Y94747459D01*
X40060731Y94747459D01*
X40060731Y95849184D01*
X40403631Y95849184D01*
X40403631Y95391984D01*
X40404003Y95370057D01*
X40405119Y95348725D01*
X40406980Y95327988D01*
X40409584Y95307847D01*
X40412933Y95288301D01*
X40417025Y95269350D01*
X40421862Y95250994D01*
X40427443Y95233234D01*
X40433769Y95216069D01*
X40440838Y95199500D01*
X40448651Y95183526D01*
X40457209Y95168147D01*
X40466511Y95153363D01*
X40476557Y95139175D01*
X40487347Y95125582D01*
X40498881Y95112584D01*
X40510663Y95100665D01*
X40522991Y95089515D01*
X40535865Y95079135D01*
X40549284Y95069523D01*
X40563249Y95060680D01*
X40577760Y95052606D01*
X40592817Y95045301D01*
X40608419Y95038765D01*
X40624567Y95032998D01*
X40641260Y95028000D01*
X40658499Y95023771D01*
X40676284Y95020310D01*
X40694615Y95017619D01*
X40713491Y95015697D01*
X40732913Y95014543D01*
X40752881Y95014159D01*
X40773630Y95014531D01*
X40793809Y95015647D01*
X40813417Y95017508D01*
X40832454Y95020112D01*
X40850922Y95023461D01*
X40868818Y95027554D01*
X40886144Y95032391D01*
X40902900Y95037972D01*
X40919085Y95044297D01*
X40934700Y95051366D01*
X40949744Y95059180D01*
X40964217Y95067737D01*
X40978120Y95077039D01*
X40991452Y95087085D01*
X41004214Y95097875D01*
X41016406Y95109409D01*
X41027940Y95122047D01*
X41038730Y95135355D01*
X41048776Y95149332D01*
X41058078Y95163979D01*
X41066636Y95179296D01*
X41074449Y95195283D01*
X41081519Y95211939D01*
X41087844Y95229265D01*
X41093425Y95247261D01*
X41098262Y95265926D01*
X41102355Y95285262D01*
X41105703Y95305267D01*
X41108308Y95325941D01*
X41110168Y95347286D01*
X41111284Y95369300D01*
X41111656Y95391984D01*
X41111656Y95849184D01*
X41111284Y95871855D01*
X41110168Y95893832D01*
X41108308Y95915115D01*
X41105703Y95935703D01*
X41102355Y95955596D01*
X41098262Y95974795D01*
X41093425Y95993299D01*
X41087844Y96011109D01*
X41081519Y96028224D01*
X41074449Y96044645D01*
X41066636Y96060371D01*
X41058078Y96075402D01*
X41048776Y96089739D01*
X41038730Y96103382D01*
X41027940Y96116330D01*
X41016406Y96128584D01*
X41004214Y96140502D01*
X40991452Y96151652D01*
X40978120Y96162033D01*
X40964217Y96171645D01*
X40949744Y96180488D01*
X40934700Y96188562D01*
X40919085Y96195867D01*
X40902900Y96202403D01*
X40886144Y96208170D01*
X40868818Y96213168D01*
X40850922Y96217398D01*
X40832454Y96220858D01*
X40813417Y96223549D01*
X40793809Y96225472D01*
X40773630Y96226625D01*
X40752881Y96227009D01*
X40732913Y96226613D01*
X40713491Y96225422D01*
X40694615Y96223437D01*
X40676284Y96220659D01*
X40658499Y96217087D01*
X40641260Y96212722D01*
X40624567Y96207562D01*
X40608419Y96201609D01*
X40592817Y96194862D01*
X40577760Y96187321D01*
X40563249Y96178987D01*
X40549284Y96169859D01*
X40535865Y96159937D01*
X40522991Y96149221D01*
X40510663Y96137712D01*
X40498881Y96125409D01*
X40487347Y96112796D01*
X40476557Y96099562D01*
X40466511Y96085709D01*
X40457209Y96071235D01*
X40448651Y96056142D01*
X40440838Y96040428D01*
X40433769Y96024094D01*
X40427443Y96007140D01*
X40421862Y95989566D01*
X40417025Y95971372D01*
X40412933Y95952557D01*
X40409584Y95933123D01*
X40406980Y95913068D01*
X40405119Y95892393D01*
X40404003Y95871099D01*
X40403631Y95849184D01*
X40060731Y95849184D01*
X40060731Y97065209D01*
X40403631Y97065209D01*
X40403631Y96566733D01*
X40394107Y96160333D01*
X40405680Y96160333D01*
X40408394Y96178590D01*
X40412858Y96201262D01*
X40418315Y96223239D01*
X40424765Y96244521D01*
X40432206Y96265109D01*
X40440639Y96285002D01*
X40450065Y96304201D01*
X40460483Y96322706D01*
X40471893Y96340515D01*
X40484296Y96357630D01*
X40497690Y96374051D01*
X40512077Y96389777D01*
X40527456Y96404809D01*
X40543678Y96419419D01*
X40560595Y96433086D01*
X40578207Y96445811D01*
X40596513Y96457593D01*
X40615513Y96468433D01*
X40635208Y96478330D01*
X40655597Y96487285D01*
X40676681Y96495296D01*
X40698460Y96502366D01*
X40720933Y96508493D01*
X40744101Y96513677D01*
X40767963Y96517918D01*
X40792519Y96521217D01*
X40817770Y96523574D01*
X40843716Y96524988D01*
X40870356Y96525459D01*
X40902888Y96524764D01*
X40934600Y96522681D01*
X40965495Y96519208D01*
X40995570Y96514347D01*
X41024827Y96508096D01*
X41053266Y96500456D01*
X41080886Y96491427D01*
X41107687Y96481009D01*
X41133670Y96469202D01*
X41158835Y96456006D01*
X41183180Y96441421D01*
X41206708Y96425447D01*
X41229416Y96408083D01*
X41251307Y96389331D01*
X41272378Y96369189D01*
X41292631Y96347659D01*
X41311855Y96324938D01*
X41329838Y96301224D01*
X41346581Y96276519D01*
X41362084Y96250821D01*
X41376347Y96224132D01*
X41389369Y96196450D01*
X41401152Y96167775D01*
X41411694Y96138109D01*
X41420995Y96107450D01*
X41429057Y96075800D01*
X41435878Y96043157D01*
X41441459Y96009522D01*
X41445800Y95974894D01*
X41448901Y95939275D01*
X41450761Y95902663D01*
X41451381Y95865060D01*
X41451381Y95849184D01*
X41451381Y95372934D01*
G37*
G36*
X16011840Y96525137D02*
G01*
X16038232Y96524169D01*
X16064228Y96522557D01*
X16089826Y96520300D01*
X16115028Y96517397D01*
X16139833Y96513850D01*
X16164241Y96509658D01*
X16188252Y96504822D01*
X16211866Y96499340D01*
X16235083Y96493213D01*
X16257903Y96486441D01*
X16280326Y96479025D01*
X16302353Y96470963D01*
X16323982Y96462257D01*
X16345215Y96452905D01*
X16366050Y96442909D01*
X16386006Y96432702D01*
X16405390Y96421924D01*
X16424204Y96410576D01*
X16442448Y96398657D01*
X16460122Y96386168D01*
X16477224Y96373108D01*
X16493757Y96359478D01*
X16509719Y96345277D01*
X16525110Y96330506D01*
X16539931Y96315164D01*
X16554181Y96299252D01*
X16567861Y96282769D01*
X16580970Y96265716D01*
X16593509Y96248093D01*
X16605477Y96229898D01*
X16616874Y96211134D01*
X16627256Y96191860D01*
X16636967Y96172141D01*
X16646008Y96151975D01*
X16654380Y96131362D01*
X16662082Y96110303D01*
X16669115Y96088797D01*
X16675477Y96066845D01*
X16681170Y96044446D01*
X16686193Y96021601D01*
X16690547Y95998310D01*
X16694230Y95974571D01*
X16697244Y95950387D01*
X16699588Y95925756D01*
X16701263Y95900678D01*
X16702267Y95875154D01*
X16702602Y95849184D01*
X16702602Y95391984D01*
X16702267Y95366385D01*
X16701263Y95341184D01*
X16699588Y95316379D01*
X16697244Y95291971D01*
X16694230Y95267960D01*
X16690547Y95244346D01*
X16686193Y95221129D01*
X16681170Y95198309D01*
X16675477Y95175885D01*
X16669115Y95153859D01*
X16662082Y95132229D01*
X16654380Y95110996D01*
X16646008Y95090160D01*
X16636967Y95069721D01*
X16627256Y95049679D01*
X16616874Y95030034D01*
X16605477Y95011257D01*
X16593509Y94993025D01*
X16580970Y94975340D01*
X16567861Y94958200D01*
X16554181Y94941605D01*
X16539931Y94925557D01*
X16525110Y94910054D01*
X16509719Y94895096D01*
X16493757Y94880685D01*
X16477224Y94866819D01*
X16460122Y94853499D01*
X16442448Y94840724D01*
X16424204Y94828496D01*
X16405390Y94816813D01*
X16386006Y94805675D01*
X16366050Y94795084D01*
X16345215Y94785472D01*
X16323982Y94776480D01*
X16302353Y94768109D01*
X16280326Y94760357D01*
X16257903Y94753226D01*
X16235083Y94746715D01*
X16211866Y94740824D01*
X16188252Y94735553D01*
X16164241Y94730902D01*
X16139833Y94726871D01*
X16115028Y94723461D01*
X16089826Y94720670D01*
X16064228Y94718500D01*
X16038232Y94716950D01*
X16011840Y94716019D01*
X15985050Y94715709D01*
X15946243Y94716354D01*
X15908404Y94718289D01*
X15871532Y94721514D01*
X15835627Y94726028D01*
X15800690Y94731832D01*
X15766720Y94738926D01*
X15733718Y94747310D01*
X15701683Y94756984D01*
X15670615Y94767948D01*
X15640515Y94780201D01*
X15611382Y94793745D01*
X15583216Y94808578D01*
X15556018Y94824701D01*
X15529788Y94842114D01*
X15504524Y94860817D01*
X15480228Y94880809D01*
X15457122Y94901918D01*
X15435430Y94923970D01*
X15415152Y94946963D01*
X15396288Y94970900D01*
X15378838Y94995779D01*
X15362801Y95021601D01*
X15348179Y95048365D01*
X15334970Y95076072D01*
X15323176Y95104721D01*
X15312795Y95134313D01*
X15303828Y95164848D01*
X15296275Y95196325D01*
X15290136Y95228745D01*
X15285410Y95262107D01*
X15282099Y95296412D01*
X15280201Y95331659D01*
X15623100Y95331659D01*
X15624626Y95313266D01*
X15626821Y95295394D01*
X15629686Y95278044D01*
X15633221Y95261214D01*
X15637425Y95244905D01*
X15642299Y95229116D01*
X15647843Y95213849D01*
X15654057Y95199103D01*
X15660940Y95184877D01*
X15668493Y95171173D01*
X15676716Y95157989D01*
X15685608Y95145326D01*
X15695170Y95133184D01*
X15705402Y95121563D01*
X15716303Y95110463D01*
X15727875Y95099884D01*
X15740042Y95089887D01*
X15752730Y95080536D01*
X15765939Y95071829D01*
X15779668Y95063768D01*
X15793919Y95056351D01*
X15808690Y95049580D01*
X15823982Y95043453D01*
X15839795Y95037971D01*
X15856129Y95033134D01*
X15872984Y95028942D01*
X15890359Y95025395D01*
X15908256Y95022493D01*
X15926673Y95020236D01*
X15945611Y95018623D01*
X15965070Y95017656D01*
X15985050Y95017334D01*
X16006593Y95017718D01*
X16027565Y95018872D01*
X16047967Y95020794D01*
X16067799Y95023485D01*
X16087060Y95026945D01*
X16105750Y95031175D01*
X16123870Y95036173D01*
X16141419Y95041940D01*
X16158398Y95048476D01*
X16174806Y95055781D01*
X16190644Y95063855D01*
X16205912Y95072698D01*
X16220608Y95082310D01*
X16234735Y95092691D01*
X16248291Y95103841D01*
X16261276Y95115760D01*
X16273579Y95128373D01*
X16285089Y95141606D01*
X16295804Y95155459D01*
X16305726Y95169933D01*
X16314854Y95185026D01*
X16323189Y95200740D01*
X16330730Y95217074D01*
X16337477Y95234028D01*
X16343430Y95251602D01*
X16348589Y95269796D01*
X16352955Y95288611D01*
X16356527Y95308045D01*
X16359305Y95328100D01*
X16361289Y95348774D01*
X16362480Y95370069D01*
X16362877Y95391984D01*
X16362877Y95852359D01*
X16362480Y95874262D01*
X16361289Y95895519D01*
X16359305Y95916132D01*
X16356527Y95936100D01*
X16352955Y95955422D01*
X16348589Y95974100D01*
X16343430Y95992133D01*
X16337477Y96009521D01*
X16330730Y96026265D01*
X16323189Y96042363D01*
X16314854Y96057816D01*
X16305726Y96072625D01*
X16295804Y96086788D01*
X16285089Y96100307D01*
X16273579Y96113180D01*
X16261276Y96125409D01*
X16248291Y96137327D01*
X16234735Y96148477D01*
X16220608Y96158858D01*
X16205912Y96168470D01*
X16190644Y96177313D01*
X16174806Y96185386D01*
X16158398Y96192691D01*
X16141419Y96199227D01*
X16123870Y96204995D01*
X16105750Y96209993D01*
X16087060Y96214222D01*
X16067799Y96217682D01*
X16047967Y96220373D01*
X16027565Y96222296D01*
X16006593Y96223449D01*
X15985050Y96223834D01*
X15965070Y96223511D01*
X15945611Y96222544D01*
X15926673Y96220932D01*
X15908256Y96218674D01*
X15890359Y96215772D01*
X15872984Y96212225D01*
X15856129Y96208033D01*
X15839795Y96203196D01*
X15823982Y96197714D01*
X15808690Y96191588D01*
X15793919Y96184816D01*
X15779668Y96177399D01*
X15765939Y96169338D01*
X15752730Y96160631D01*
X15740042Y96151280D01*
X15727875Y96141284D01*
X15716303Y96130705D01*
X15705402Y96119605D01*
X15695170Y96107984D01*
X15685608Y96095842D01*
X15676716Y96083179D01*
X15668493Y96069995D01*
X15660940Y96056291D01*
X15654057Y96042065D01*
X15647843Y96027319D01*
X15642299Y96012052D01*
X15637425Y95996263D01*
X15633221Y95979954D01*
X15629686Y95963124D01*
X15626821Y95945774D01*
X15624626Y95927902D01*
X15623100Y95909509D01*
X15280201Y95909509D01*
X15282099Y95944757D01*
X15285410Y95979061D01*
X15290136Y96012424D01*
X15296275Y96044843D01*
X15303828Y96076320D01*
X15312795Y96106855D01*
X15323176Y96136447D01*
X15334970Y96165096D01*
X15348179Y96192803D01*
X15362801Y96219567D01*
X15378838Y96245389D01*
X15396288Y96270268D01*
X15415152Y96294204D01*
X15435430Y96317198D01*
X15457122Y96339250D01*
X15480228Y96360359D01*
X15504524Y96380351D01*
X15529788Y96399054D01*
X15556018Y96416467D01*
X15583216Y96432590D01*
X15611382Y96447423D01*
X15640515Y96460967D01*
X15670615Y96473220D01*
X15701683Y96484184D01*
X15733718Y96493858D01*
X15766720Y96502242D01*
X15800690Y96509336D01*
X15835627Y96515140D01*
X15871532Y96519655D01*
X15908404Y96522879D01*
X15946243Y96524814D01*
X15985050Y96525459D01*
X16011840Y96525137D01*
G37*
G36*
X44567366Y104991815D02*
G01*
X44592964Y104990885D01*
X44618166Y104989334D01*
X44642971Y104987164D01*
X44667378Y104984374D01*
X44691389Y104980963D01*
X44715003Y104976932D01*
X44738220Y104972281D01*
X44761041Y104967010D01*
X44783464Y104961119D01*
X44805491Y104954608D01*
X44827120Y104947477D01*
X44848353Y104939725D01*
X44869189Y104931354D01*
X44889628Y104922362D01*
X44909670Y104912750D01*
X44928844Y104902555D01*
X44947473Y104891815D01*
X44965555Y104880529D01*
X44983092Y104868697D01*
X45000083Y104856319D01*
X45016529Y104843396D01*
X45032429Y104829927D01*
X45047783Y104815913D01*
X45062591Y104801352D01*
X45076854Y104786246D01*
X45090571Y104770594D01*
X45103742Y104754397D01*
X45116368Y104737654D01*
X45128448Y104720365D01*
X45139982Y104702530D01*
X45150970Y104684150D01*
X45161351Y104665261D01*
X45171062Y104645901D01*
X45180103Y104626070D01*
X45188475Y104605767D01*
X45196177Y104584993D01*
X45203209Y104563748D01*
X45209571Y104542032D01*
X45215264Y104519844D01*
X45220287Y104497185D01*
X45224640Y104474054D01*
X45228324Y104450453D01*
X45231337Y104426380D01*
X45233682Y104401836D01*
X45235356Y104376820D01*
X45236360Y104351333D01*
X45236695Y104325375D01*
X45236695Y103849125D01*
X45236360Y103823539D01*
X45235356Y103798375D01*
X45233682Y103773632D01*
X45231337Y103749311D01*
X45228324Y103725412D01*
X45224640Y103701934D01*
X45220287Y103678878D01*
X45215264Y103656244D01*
X45209571Y103634031D01*
X45203209Y103612240D01*
X45196177Y103590871D01*
X45188475Y103569924D01*
X45180103Y103549398D01*
X45171062Y103529293D01*
X45161351Y103509611D01*
X45150970Y103490350D01*
X45139982Y103471970D01*
X45128448Y103454135D01*
X45116368Y103436846D01*
X45103742Y103420103D01*
X45090571Y103403906D01*
X45076854Y103388254D01*
X45062591Y103373148D01*
X45047783Y103358588D01*
X45032429Y103344573D01*
X45016529Y103331104D01*
X45000083Y103318181D01*
X44983092Y103305803D01*
X44965555Y103293971D01*
X44947473Y103282685D01*
X44928844Y103271945D01*
X44909670Y103261750D01*
X44889628Y103252138D01*
X44869189Y103243147D01*
X44848353Y103234775D01*
X44827120Y103227024D01*
X44805491Y103219892D01*
X44783464Y103213381D01*
X44761041Y103207490D01*
X44738220Y103202219D01*
X44715003Y103197568D01*
X44691389Y103193537D01*
X44667378Y103190127D01*
X44642971Y103187336D01*
X44618166Y103185166D01*
X44592964Y103183615D01*
X44567366Y103182685D01*
X44541371Y103182375D01*
X44504126Y103183008D01*
X44467800Y103184905D01*
X44432391Y103188068D01*
X44397900Y103192495D01*
X44364327Y103198188D01*
X44331672Y103205146D01*
X44299934Y103213369D01*
X44269114Y103222856D01*
X44239212Y103233609D01*
X44210228Y103245627D01*
X44182161Y103258910D01*
X44155013Y103273458D01*
X44128782Y103289271D01*
X44103468Y103306349D01*
X44079073Y103324692D01*
X44055596Y103344300D01*
X44033259Y103365000D01*
X44012287Y103386617D01*
X43992678Y103409152D01*
X43974435Y103432605D01*
X43957555Y103456975D01*
X43942039Y103482264D01*
X43927888Y103508470D01*
X43915102Y103535594D01*
X43903679Y103563636D01*
X43893621Y103592595D01*
X43884927Y103622472D01*
X43877597Y103653267D01*
X43871631Y103684980D01*
X43867030Y103717611D01*
X43863793Y103751159D01*
X43861920Y103785625D01*
X44147671Y103785625D01*
X44149233Y103765273D01*
X44151540Y103745491D01*
X44154591Y103726280D01*
X44158386Y103707639D01*
X44162925Y103689569D01*
X44168209Y103672069D01*
X44174236Y103655140D01*
X44181008Y103638781D01*
X44188524Y103622993D01*
X44196784Y103607775D01*
X44205788Y103593128D01*
X44215536Y103579052D01*
X44226028Y103565546D01*
X44237265Y103552610D01*
X44249245Y103540245D01*
X44261970Y103528450D01*
X44274968Y103517300D01*
X44288561Y103506870D01*
X44302749Y103497159D01*
X44317533Y103488167D01*
X44332912Y103479895D01*
X44348886Y103472342D01*
X44365455Y103465508D01*
X44382620Y103459394D01*
X44400381Y103453999D01*
X44418736Y103449323D01*
X44437687Y103445367D01*
X44457233Y103442130D01*
X44477374Y103439612D01*
X44498111Y103437814D01*
X44519443Y103436735D01*
X44541371Y103436375D01*
X44564489Y103436797D01*
X44587011Y103438062D01*
X44608939Y103440170D01*
X44630271Y103443122D01*
X44651007Y103446917D01*
X44671149Y103451556D01*
X44690695Y103457037D01*
X44709645Y103463363D01*
X44728001Y103470531D01*
X44745761Y103478543D01*
X44762926Y103487398D01*
X44779495Y103497097D01*
X44795469Y103507639D01*
X44810848Y103519024D01*
X44825632Y103531253D01*
X44839820Y103544325D01*
X44853277Y103558166D01*
X44865865Y103572702D01*
X44877585Y103587932D01*
X44888437Y103603856D01*
X44898421Y103620475D01*
X44907537Y103637789D01*
X44915784Y103655797D01*
X44923164Y103674500D01*
X44929675Y103693897D01*
X44935318Y103713989D01*
X44940093Y103734775D01*
X44944000Y103756256D01*
X44947038Y103778432D01*
X44949209Y103801302D01*
X44950511Y103824866D01*
X44950945Y103849125D01*
X44950945Y104328550D01*
X44950511Y104352797D01*
X44949209Y104376324D01*
X44947038Y104399132D01*
X44944000Y104421220D01*
X44940093Y104442590D01*
X44935318Y104463240D01*
X44929675Y104483170D01*
X44923164Y104502381D01*
X44915784Y104520873D01*
X44907537Y104538646D01*
X44898421Y104555699D01*
X44888437Y104572033D01*
X44877585Y104587647D01*
X44865865Y104602543D01*
X44853277Y104616718D01*
X44839820Y104630175D01*
X44825632Y104643247D01*
X44810848Y104655476D01*
X44795469Y104666861D01*
X44779495Y104677403D01*
X44762926Y104687102D01*
X44745761Y104695957D01*
X44728001Y104703969D01*
X44709645Y104711138D01*
X44690695Y104717463D01*
X44671149Y104722945D01*
X44651007Y104727583D01*
X44630271Y104731378D01*
X44608939Y104734330D01*
X44587011Y104736438D01*
X44564489Y104737703D01*
X44541371Y104738125D01*
X44519443Y104737765D01*
X44498111Y104736686D01*
X44477374Y104734888D01*
X44457233Y104732370D01*
X44437687Y104729133D01*
X44418736Y104725177D01*
X44400381Y104720501D01*
X44382620Y104715106D01*
X44365455Y104708992D01*
X44348886Y104702158D01*
X44332912Y104694605D01*
X44317533Y104686333D01*
X44302749Y104677341D01*
X44288561Y104667630D01*
X44274968Y104657200D01*
X44261970Y104646050D01*
X44249245Y104634628D01*
X44237265Y104622585D01*
X44226028Y104609922D01*
X44215536Y104596639D01*
X44205788Y104582736D01*
X44196784Y104568213D01*
X44188524Y104553070D01*
X44181008Y104537306D01*
X44174236Y104520923D01*
X44168209Y104503919D01*
X44162925Y104486295D01*
X44158386Y104468052D01*
X44154591Y104449188D01*
X44151540Y104429704D01*
X44149233Y104409599D01*
X44147671Y104388875D01*
X43861920Y104388875D01*
X43863793Y104423341D01*
X43867030Y104456889D01*
X43871631Y104489520D01*
X43877597Y104521233D01*
X43884927Y104552028D01*
X43893621Y104581905D01*
X43903679Y104610865D01*
X43915102Y104638906D01*
X43927888Y104666030D01*
X43942039Y104692236D01*
X43957555Y104717525D01*
X43974435Y104741895D01*
X43992678Y104765348D01*
X44012287Y104787883D01*
X44033259Y104809501D01*
X44055596Y104830200D01*
X44079073Y104849808D01*
X44103468Y104868151D01*
X44128782Y104885229D01*
X44155013Y104901042D01*
X44182161Y104915590D01*
X44210228Y104928873D01*
X44239212Y104940891D01*
X44269114Y104951644D01*
X44299934Y104961132D01*
X44331672Y104969354D01*
X44364327Y104976312D01*
X44397900Y104982005D01*
X44432391Y104986432D01*
X44467800Y104989595D01*
X44504126Y104991492D01*
X44541371Y104992125D01*
X44567366Y104991815D01*
G37*
G36*
X43355164Y95391984D02*
G01*
X43354829Y95366782D01*
X43353824Y95341977D01*
X43352150Y95317570D01*
X43349806Y95293559D01*
X43346792Y95269945D01*
X43343109Y95246728D01*
X43338756Y95223907D01*
X43333733Y95201484D01*
X43328040Y95179457D01*
X43321678Y95157828D01*
X43314645Y95136595D01*
X43306944Y95115759D01*
X43298572Y95095320D01*
X43289531Y95075278D01*
X43279820Y95055633D01*
X43269439Y95036384D01*
X43258438Y95017595D01*
X43246867Y94999326D01*
X43234725Y94981578D01*
X43222012Y94964351D01*
X43208730Y94947645D01*
X43194876Y94931460D01*
X43180452Y94915796D01*
X43165458Y94900653D01*
X43149893Y94886030D01*
X43133757Y94871929D01*
X43117051Y94858349D01*
X43099775Y94845289D01*
X43081928Y94832750D01*
X43063511Y94820732D01*
X43044523Y94809235D01*
X43024964Y94798259D01*
X43004525Y94788263D01*
X42983689Y94778912D01*
X42962456Y94770205D01*
X42940826Y94762144D01*
X42918800Y94754727D01*
X42896376Y94747955D01*
X42873556Y94741829D01*
X42850339Y94736347D01*
X42826725Y94731510D01*
X42802714Y94727318D01*
X42778306Y94723771D01*
X42753501Y94720869D01*
X42728300Y94718611D01*
X42702701Y94716999D01*
X42676706Y94716032D01*
X42650314Y94715709D01*
X42615736Y94716218D01*
X42581853Y94717743D01*
X42548664Y94720286D01*
X42516170Y94723845D01*
X42484371Y94728422D01*
X42453266Y94734015D01*
X42422855Y94740625D01*
X42393139Y94748253D01*
X42364118Y94756897D01*
X42335791Y94766559D01*
X42308158Y94777237D01*
X42281221Y94788932D01*
X42254977Y94801645D01*
X42229428Y94815374D01*
X42204574Y94830121D01*
X42180414Y94845884D01*
X42157197Y94862900D01*
X42135170Y94880610D01*
X42114334Y94899016D01*
X42094689Y94918115D01*
X42076234Y94937909D01*
X42058970Y94958398D01*
X42042897Y94979581D01*
X42028014Y95001459D01*
X42014322Y95024031D01*
X42001820Y95047298D01*
X41990509Y95071259D01*
X41980389Y95095915D01*
X41971459Y95121265D01*
X41963720Y95147310D01*
X41957172Y95174050D01*
X41951814Y95201483D01*
X42291539Y95201483D01*
X42294590Y95188970D01*
X42298187Y95176828D01*
X42302329Y95165058D01*
X42307017Y95153660D01*
X42312251Y95142635D01*
X42318030Y95131981D01*
X42324356Y95121699D01*
X42331226Y95111790D01*
X42338643Y95102253D01*
X42346605Y95093087D01*
X42355113Y95084294D01*
X42364167Y95075873D01*
X42373767Y95067824D01*
X42383912Y95060147D01*
X42394603Y95052842D01*
X42405839Y95045910D01*
X42417572Y95039758D01*
X42429751Y95034003D01*
X42442376Y95028645D01*
X42455448Y95023684D01*
X42468967Y95019120D01*
X42482932Y95014953D01*
X42497343Y95011182D01*
X42512202Y95007809D01*
X42527506Y95004832D01*
X42543257Y95002253D01*
X42559454Y95000070D01*
X42576098Y94998284D01*
X42593189Y94996895D01*
X42610726Y94995903D01*
X42628709Y94995308D01*
X42647139Y94995109D01*
X42669823Y94995506D01*
X42691837Y94996697D01*
X42713182Y94998681D01*
X42733856Y95001459D01*
X42753861Y95005031D01*
X42773196Y95009397D01*
X42791862Y95014556D01*
X42809858Y95020509D01*
X42827184Y95027256D01*
X42843840Y95034796D01*
X42859827Y95043131D01*
X42875144Y95052259D01*
X42889791Y95062181D01*
X42903768Y95072896D01*
X42917076Y95084406D01*
X42929714Y95096709D01*
X42941248Y95109769D01*
X42952038Y95123547D01*
X42962084Y95138046D01*
X42971386Y95153263D01*
X42979943Y95169200D01*
X42987757Y95185857D01*
X42994826Y95203233D01*
X43001152Y95221328D01*
X43006733Y95240142D01*
X43011570Y95259676D01*
X43015662Y95279929D01*
X43019011Y95300901D01*
X43021615Y95322593D01*
X43023476Y95345004D01*
X43024592Y95368134D01*
X43024964Y95391984D01*
X43024964Y95538034D01*
X41945464Y95538034D01*
X41945464Y95849184D01*
X41945506Y95852359D01*
X42275664Y95852359D01*
X42275664Y95772879D01*
X43024964Y95769809D01*
X43024964Y95849184D01*
X43024592Y95873046D01*
X43023476Y95896213D01*
X43021615Y95918687D01*
X43019011Y95940465D01*
X43015662Y95961549D01*
X43011570Y95981938D01*
X43006733Y96001633D01*
X43001152Y96020634D01*
X42994826Y96038939D01*
X42987757Y96056551D01*
X42979943Y96073467D01*
X42971386Y96089690D01*
X42962084Y96105217D01*
X42952038Y96120050D01*
X42941248Y96134189D01*
X42929714Y96147633D01*
X42917088Y96160321D01*
X42903818Y96172190D01*
X42889902Y96183240D01*
X42875342Y96193472D01*
X42860137Y96202886D01*
X42844287Y96211481D01*
X42827792Y96219257D01*
X42810651Y96226215D01*
X42792867Y96232354D01*
X42774437Y96237675D01*
X42755362Y96242177D01*
X42735642Y96245860D01*
X42715277Y96248725D01*
X42694268Y96250772D01*
X42672613Y96251999D01*
X42650314Y96252409D01*
X42627643Y96251999D01*
X42605666Y96250772D01*
X42584383Y96248725D01*
X42563795Y96245860D01*
X42543902Y96242177D01*
X42524703Y96237675D01*
X42506199Y96232354D01*
X42488389Y96226215D01*
X42471274Y96219257D01*
X42454853Y96211481D01*
X42439127Y96202886D01*
X42424095Y96193472D01*
X42409758Y96183240D01*
X42396116Y96172190D01*
X42383168Y96160321D01*
X42370914Y96147633D01*
X42359380Y96134201D01*
X42348590Y96120100D01*
X42338544Y96105329D01*
X42329242Y96089888D01*
X42320685Y96073778D01*
X42312871Y96056997D01*
X42305802Y96039547D01*
X42299477Y96021428D01*
X42293896Y96002638D01*
X42289059Y95983179D01*
X42284966Y95963050D01*
X42281617Y95942251D01*
X42279013Y95920783D01*
X42277152Y95898645D01*
X42276036Y95875837D01*
X42275664Y95852359D01*
X41945506Y95852359D01*
X41945799Y95874757D01*
X41946803Y95899885D01*
X41948478Y95924565D01*
X41950822Y95948800D01*
X41953835Y95972587D01*
X41957519Y95995928D01*
X41961872Y96018823D01*
X41966895Y96041271D01*
X41972588Y96063273D01*
X41978950Y96084828D01*
X41985982Y96105937D01*
X41993684Y96126599D01*
X42002056Y96146815D01*
X42011097Y96166584D01*
X42020808Y96185907D01*
X42031189Y96204783D01*
X42042190Y96223560D01*
X42053761Y96241792D01*
X42065903Y96259478D01*
X42078615Y96276618D01*
X42091898Y96293212D01*
X42105752Y96309261D01*
X42120176Y96324764D01*
X42135170Y96339721D01*
X42150735Y96354133D01*
X42166871Y96367998D01*
X42183577Y96381319D01*
X42200853Y96394093D01*
X42218700Y96406322D01*
X42237118Y96418004D01*
X42256106Y96429142D01*
X42275664Y96439733D01*
X42295731Y96450114D01*
X42316244Y96459825D01*
X42337204Y96468866D01*
X42358611Y96477238D01*
X42380464Y96484940D01*
X42402763Y96491972D01*
X42425509Y96498334D01*
X42448701Y96504027D01*
X42472340Y96509050D01*
X42496426Y96513404D01*
X42520957Y96517087D01*
X42545936Y96520101D01*
X42571361Y96522445D01*
X42597232Y96524119D01*
X42623550Y96525124D01*
X42650314Y96525459D01*
X42676706Y96525124D01*
X42702701Y96524119D01*
X42728300Y96522445D01*
X42753501Y96520101D01*
X42778306Y96517087D01*
X42802714Y96513404D01*
X42826725Y96509050D01*
X42850339Y96504027D01*
X42873556Y96498334D01*
X42896376Y96491972D01*
X42918800Y96484940D01*
X42940826Y96477238D01*
X42962456Y96468866D01*
X42983689Y96459825D01*
X43004525Y96450114D01*
X43024964Y96439733D01*
X43044523Y96429142D01*
X43063511Y96418004D01*
X43081928Y96406322D01*
X43099775Y96394093D01*
X43117051Y96381319D01*
X43133757Y96367998D01*
X43149893Y96354133D01*
X43165458Y96339721D01*
X43180452Y96324764D01*
X43194876Y96309261D01*
X43208730Y96293212D01*
X43222012Y96276618D01*
X43234725Y96259478D01*
X43246867Y96241792D01*
X43258438Y96223560D01*
X43269439Y96204783D01*
X43279820Y96185907D01*
X43289531Y96166584D01*
X43298572Y96146815D01*
X43306944Y96126599D01*
X43314645Y96105937D01*
X43321678Y96084828D01*
X43328040Y96063273D01*
X43333733Y96041271D01*
X43338756Y96018823D01*
X43343109Y95995928D01*
X43346792Y95972587D01*
X43349806Y95948800D01*
X43352150Y95924565D01*
X43353824Y95899885D01*
X43354829Y95874757D01*
X43355164Y95849184D01*
X43355164Y95391984D01*
G37*
G36*
X45258920Y95391984D02*
G01*
X45258585Y95366782D01*
X45257581Y95341977D01*
X45255906Y95317570D01*
X45253562Y95293559D01*
X45250549Y95269945D01*
X45246865Y95246728D01*
X45242512Y95223907D01*
X45237489Y95201484D01*
X45231796Y95179457D01*
X45225434Y95157828D01*
X45218402Y95136595D01*
X45210700Y95115759D01*
X45202328Y95095320D01*
X45193287Y95075278D01*
X45183576Y95055633D01*
X45173195Y95036384D01*
X45162194Y95017595D01*
X45150623Y94999326D01*
X45138481Y94981578D01*
X45125769Y94964351D01*
X45112486Y94947645D01*
X45098632Y94931460D01*
X45084209Y94915796D01*
X45069214Y94900653D01*
X45053649Y94886030D01*
X45037514Y94871929D01*
X45020808Y94858349D01*
X45003531Y94845289D01*
X44985684Y94832750D01*
X44967267Y94820732D01*
X44948279Y94809235D01*
X44928720Y94798259D01*
X44908281Y94788263D01*
X44887445Y94778912D01*
X44866212Y94770205D01*
X44844583Y94762144D01*
X44822556Y94754727D01*
X44800133Y94747955D01*
X44777312Y94741829D01*
X44754095Y94736347D01*
X44730481Y94731510D01*
X44706470Y94727318D01*
X44682062Y94723771D01*
X44657258Y94720869D01*
X44632056Y94718611D01*
X44606458Y94716999D01*
X44580462Y94716032D01*
X44554070Y94715709D01*
X44519493Y94716218D01*
X44485609Y94717743D01*
X44452421Y94720286D01*
X44419927Y94723845D01*
X44388127Y94728422D01*
X44357022Y94734015D01*
X44326611Y94740625D01*
X44296895Y94748253D01*
X44267874Y94756897D01*
X44239547Y94766559D01*
X44211915Y94777237D01*
X44184977Y94788932D01*
X44158733Y94801645D01*
X44133185Y94815374D01*
X44108330Y94830121D01*
X44084171Y94845884D01*
X44060953Y94862900D01*
X44038927Y94880610D01*
X44018091Y94899016D01*
X43998446Y94918115D01*
X43979991Y94937909D01*
X43962727Y94958398D01*
X43946653Y94979581D01*
X43931770Y95001459D01*
X43918078Y95024031D01*
X43905577Y95047298D01*
X43894266Y95071259D01*
X43884145Y95095915D01*
X43875216Y95121265D01*
X43867476Y95147310D01*
X43860928Y95174050D01*
X43855570Y95201483D01*
X44195296Y95201483D01*
X44198346Y95188970D01*
X44201943Y95176828D01*
X44206085Y95165058D01*
X44210774Y95153660D01*
X44216007Y95142635D01*
X44221787Y95131981D01*
X44228112Y95121699D01*
X44234983Y95111790D01*
X44242399Y95102253D01*
X44250362Y95093087D01*
X44258870Y95084294D01*
X44267924Y95075873D01*
X44277523Y95067824D01*
X44287668Y95060147D01*
X44298359Y95052842D01*
X44309595Y95045910D01*
X44321328Y95039758D01*
X44333507Y95034003D01*
X44346133Y95028645D01*
X44359205Y95023684D01*
X44372723Y95019120D01*
X44386688Y95014953D01*
X44401100Y95011182D01*
X44415958Y95007809D01*
X44431262Y95004832D01*
X44447013Y95002253D01*
X44463211Y95000070D01*
X44479855Y94998284D01*
X44496945Y94996895D01*
X44514482Y94995903D01*
X44532466Y94995308D01*
X44550895Y94995109D01*
X44573579Y94995506D01*
X44595593Y94996697D01*
X44616938Y94998681D01*
X44637613Y95001459D01*
X44657617Y95005031D01*
X44676953Y95009397D01*
X44695618Y95014556D01*
X44713614Y95020509D01*
X44730940Y95027256D01*
X44747596Y95034796D01*
X44763583Y95043131D01*
X44778900Y95052259D01*
X44793547Y95062181D01*
X44807524Y95072896D01*
X44820832Y95084406D01*
X44833470Y95096709D01*
X44845004Y95109769D01*
X44855794Y95123547D01*
X44865840Y95138046D01*
X44875142Y95153263D01*
X44883700Y95169200D01*
X44891513Y95185857D01*
X44898582Y95203233D01*
X44904908Y95221328D01*
X44910489Y95240142D01*
X44915326Y95259676D01*
X44919418Y95279929D01*
X44922767Y95300901D01*
X44925372Y95322593D01*
X44927232Y95345004D01*
X44928348Y95368134D01*
X44928720Y95391984D01*
X44928720Y95538034D01*
X43849220Y95538034D01*
X43849220Y95849184D01*
X43849262Y95852359D01*
X44179421Y95852359D01*
X44179421Y95772879D01*
X44928720Y95769809D01*
X44928720Y95849184D01*
X44928348Y95873046D01*
X44927232Y95896213D01*
X44925372Y95918687D01*
X44922767Y95940465D01*
X44919418Y95961549D01*
X44915326Y95981938D01*
X44910489Y96001633D01*
X44904908Y96020634D01*
X44898582Y96038939D01*
X44891513Y96056551D01*
X44883700Y96073467D01*
X44875142Y96089690D01*
X44865840Y96105217D01*
X44855794Y96120050D01*
X44845004Y96134189D01*
X44833470Y96147633D01*
X44820845Y96160321D01*
X44807574Y96172190D01*
X44793659Y96183240D01*
X44779098Y96193472D01*
X44763893Y96202886D01*
X44748043Y96211481D01*
X44731548Y96219257D01*
X44714408Y96226215D01*
X44696623Y96232354D01*
X44678193Y96237675D01*
X44659118Y96242177D01*
X44639398Y96245860D01*
X44619034Y96248725D01*
X44598024Y96250772D01*
X44576370Y96251999D01*
X44554070Y96252409D01*
X44531399Y96251999D01*
X44509422Y96250772D01*
X44488139Y96248725D01*
X44467552Y96245860D01*
X44447658Y96242177D01*
X44428459Y96237675D01*
X44409955Y96232354D01*
X44392145Y96226215D01*
X44375030Y96219257D01*
X44358609Y96211481D01*
X44342883Y96202886D01*
X44327852Y96193472D01*
X44313514Y96183240D01*
X44299872Y96172190D01*
X44286924Y96160321D01*
X44274670Y96147633D01*
X44263136Y96134201D01*
X44252346Y96120100D01*
X44242300Y96105329D01*
X44232999Y96089888D01*
X44224441Y96073778D01*
X44216628Y96056997D01*
X44209558Y96039547D01*
X44203233Y96021428D01*
X44197652Y96002638D01*
X44192815Y95983179D01*
X44188722Y95963050D01*
X44185374Y95942251D01*
X44182769Y95920783D01*
X44180909Y95898645D01*
X44179793Y95875837D01*
X44179421Y95852359D01*
X43849262Y95852359D01*
X43849555Y95874757D01*
X43850560Y95899885D01*
X43852234Y95924565D01*
X43854578Y95948800D01*
X43857592Y95972587D01*
X43861275Y95995928D01*
X43865628Y96018823D01*
X43870651Y96041271D01*
X43876344Y96063273D01*
X43882707Y96084828D01*
X43889739Y96105937D01*
X43897441Y96126599D01*
X43905812Y96146815D01*
X43914854Y96166584D01*
X43924565Y96185907D01*
X43934946Y96204783D01*
X43945947Y96223560D01*
X43957518Y96241792D01*
X43969660Y96259478D01*
X43982372Y96276618D01*
X43995655Y96293212D01*
X44009508Y96309261D01*
X44023932Y96324764D01*
X44038927Y96339721D01*
X44054492Y96354133D01*
X44070627Y96367998D01*
X44087333Y96381319D01*
X44104610Y96394093D01*
X44122457Y96406322D01*
X44140874Y96418004D01*
X44159862Y96429142D01*
X44179421Y96439733D01*
X44199488Y96450114D01*
X44220001Y96459825D01*
X44240961Y96468866D01*
X44262367Y96477238D01*
X44284220Y96484940D01*
X44306520Y96491972D01*
X44329266Y96498334D01*
X44352458Y96504027D01*
X44376097Y96509050D01*
X44400182Y96513404D01*
X44424714Y96517087D01*
X44449692Y96520101D01*
X44475117Y96522445D01*
X44500988Y96524119D01*
X44527306Y96525124D01*
X44554070Y96525459D01*
X44580462Y96525124D01*
X44606458Y96524119D01*
X44632056Y96522445D01*
X44657258Y96520101D01*
X44682062Y96517087D01*
X44706470Y96513404D01*
X44730481Y96509050D01*
X44754095Y96504027D01*
X44777312Y96498334D01*
X44800133Y96491972D01*
X44822556Y96484940D01*
X44844583Y96477238D01*
X44866212Y96468866D01*
X44887445Y96459825D01*
X44908281Y96450114D01*
X44928720Y96439733D01*
X44948279Y96429142D01*
X44967267Y96418004D01*
X44985684Y96406322D01*
X45003531Y96394093D01*
X45020808Y96381319D01*
X45037514Y96367998D01*
X45053649Y96354133D01*
X45069214Y96339721D01*
X45084209Y96324764D01*
X45098632Y96309261D01*
X45112486Y96293212D01*
X45125769Y96276618D01*
X45138481Y96259478D01*
X45150623Y96241792D01*
X45162194Y96223560D01*
X45173195Y96204783D01*
X45183576Y96185907D01*
X45193287Y96166584D01*
X45202328Y96146815D01*
X45210700Y96126599D01*
X45218402Y96105937D01*
X45225434Y96084828D01*
X45231796Y96063273D01*
X45237489Y96041271D01*
X45242512Y96018823D01*
X45246865Y95995928D01*
X45250549Y95972587D01*
X45253562Y95948800D01*
X45255906Y95924565D01*
X45257581Y95899885D01*
X45258585Y95874757D01*
X45258920Y95849184D01*
X45258920Y95391984D01*
G37*
G36*
X31932598Y95395159D02*
G01*
X31932263Y95369573D01*
X31931259Y95344409D01*
X31929584Y95319666D01*
X31927241Y95295345D01*
X31924227Y95271446D01*
X31920544Y95247968D01*
X31916191Y95224912D01*
X31911168Y95202278D01*
X31905475Y95180065D01*
X31899113Y95158274D01*
X31892081Y95136905D01*
X31884379Y95115958D01*
X31876008Y95095432D01*
X31866966Y95075328D01*
X31857255Y95055645D01*
X31846874Y95036384D01*
X31835873Y95017607D01*
X31824302Y94999375D01*
X31812160Y94981690D01*
X31799448Y94964550D01*
X31786165Y94947955D01*
X31772311Y94931907D01*
X31757887Y94916404D01*
X31742893Y94901447D01*
X31727328Y94887035D01*
X31711192Y94873169D01*
X31694486Y94859849D01*
X31677210Y94847075D01*
X31659362Y94834846D01*
X31640945Y94823163D01*
X31621956Y94812026D01*
X31602398Y94801434D01*
X31582331Y94791438D01*
X31561818Y94782086D01*
X31540858Y94773380D01*
X31519452Y94765318D01*
X31497599Y94757902D01*
X31475300Y94751130D01*
X31452554Y94745003D01*
X31429362Y94739522D01*
X31405723Y94734685D01*
X31381638Y94730493D01*
X31357106Y94726946D01*
X31332127Y94724043D01*
X31306702Y94721786D01*
X31280831Y94720174D01*
X31254513Y94719207D01*
X31227749Y94718884D01*
X31200985Y94719207D01*
X31174667Y94720174D01*
X31148796Y94721786D01*
X31123371Y94724043D01*
X31098393Y94726946D01*
X31073861Y94730493D01*
X31049776Y94734685D01*
X31026137Y94739522D01*
X31002945Y94745003D01*
X30980199Y94751130D01*
X30957899Y94757902D01*
X30936046Y94765318D01*
X30914640Y94773380D01*
X30893680Y94782086D01*
X30873167Y94791438D01*
X30853100Y94801434D01*
X30833541Y94812026D01*
X30814553Y94823163D01*
X30796136Y94834846D01*
X30778289Y94847075D01*
X30761012Y94859849D01*
X30744307Y94873169D01*
X30728171Y94887035D01*
X30712606Y94901447D01*
X30697612Y94916404D01*
X30683188Y94931907D01*
X30669335Y94947955D01*
X30656052Y94964550D01*
X30643339Y94981690D01*
X30631197Y94999375D01*
X30619626Y95017607D01*
X30608625Y95036384D01*
X30598244Y95055645D01*
X30588533Y95075328D01*
X30579491Y95095432D01*
X30571120Y95115958D01*
X30563418Y95136905D01*
X30556385Y95158274D01*
X30550023Y95180065D01*
X30544330Y95202278D01*
X30539307Y95224912D01*
X30534954Y95247968D01*
X30531271Y95271446D01*
X30528257Y95295345D01*
X30525913Y95319666D01*
X30524239Y95344409D01*
X30523234Y95369573D01*
X30522899Y95395159D01*
X30522899Y95846009D01*
X30862625Y95846009D01*
X30862625Y95395159D01*
X30862997Y95372860D01*
X30864113Y95351205D01*
X30865973Y95330196D01*
X30868578Y95309831D01*
X30871927Y95290111D01*
X30876019Y95271036D01*
X30880856Y95252606D01*
X30886437Y95234821D01*
X30892762Y95217681D01*
X30899832Y95201186D01*
X30907645Y95185336D01*
X30916203Y95170131D01*
X30925504Y95155571D01*
X30935550Y95141655D01*
X30946340Y95128385D01*
X30957874Y95115760D01*
X30970090Y95104225D01*
X30982927Y95093435D01*
X30996383Y95083389D01*
X31010460Y95074087D01*
X31025157Y95065530D01*
X31040474Y95057716D01*
X31056411Y95050647D01*
X31072968Y95044322D01*
X31090145Y95038741D01*
X31107943Y95033904D01*
X31126360Y95029811D01*
X31145398Y95026462D01*
X31165055Y95023858D01*
X31185333Y95021998D01*
X31206231Y95020881D01*
X31227749Y95020509D01*
X31248895Y95020881D01*
X31269471Y95021998D01*
X31289476Y95023858D01*
X31308911Y95026462D01*
X31327775Y95029811D01*
X31346068Y95033904D01*
X31363791Y95038741D01*
X31380944Y95044322D01*
X31397526Y95050647D01*
X31413537Y95057716D01*
X31428978Y95065530D01*
X31443849Y95074087D01*
X31458148Y95083389D01*
X31471878Y95093435D01*
X31485037Y95104225D01*
X31497625Y95115760D01*
X31509159Y95128385D01*
X31519949Y95141655D01*
X31529995Y95155571D01*
X31539297Y95170131D01*
X31547854Y95185336D01*
X31555668Y95201186D01*
X31562737Y95217681D01*
X31569062Y95234821D01*
X31574643Y95252606D01*
X31579480Y95271036D01*
X31583573Y95290111D01*
X31586921Y95309831D01*
X31589526Y95330196D01*
X31591386Y95351205D01*
X31592502Y95372860D01*
X31592874Y95395159D01*
X31592874Y95846009D01*
X31592502Y95868680D01*
X31591386Y95890657D01*
X31589526Y95911940D01*
X31586921Y95932528D01*
X31583573Y95952421D01*
X31579480Y95971620D01*
X31574643Y95990124D01*
X31569062Y96007934D01*
X31562737Y96025049D01*
X31555668Y96041470D01*
X31547854Y96057196D01*
X31539297Y96072228D01*
X31529995Y96086565D01*
X31519949Y96100207D01*
X31509159Y96113155D01*
X31497625Y96125409D01*
X31485037Y96136943D01*
X31471878Y96147733D01*
X31458148Y96157779D01*
X31443849Y96167081D01*
X31428978Y96175638D01*
X31413537Y96183452D01*
X31397526Y96190521D01*
X31380944Y96196847D01*
X31363791Y96202428D01*
X31346068Y96207264D01*
X31327775Y96211357D01*
X31308911Y96214706D01*
X31289476Y96217310D01*
X31269471Y96219171D01*
X31248895Y96220287D01*
X31227749Y96220659D01*
X31206231Y96220287D01*
X31185333Y96219171D01*
X31165055Y96217310D01*
X31145398Y96214706D01*
X31126360Y96211357D01*
X31107943Y96207264D01*
X31090145Y96202428D01*
X31072968Y96196847D01*
X31056411Y96190521D01*
X31040474Y96183452D01*
X31025157Y96175638D01*
X31010460Y96167081D01*
X30996383Y96157779D01*
X30982927Y96147733D01*
X30970090Y96136943D01*
X30957874Y96125409D01*
X30946340Y96113155D01*
X30935550Y96100207D01*
X30925504Y96086565D01*
X30916203Y96072228D01*
X30907645Y96057196D01*
X30899832Y96041470D01*
X30892762Y96025049D01*
X30886437Y96007934D01*
X30880856Y95990124D01*
X30876019Y95971620D01*
X30871927Y95952421D01*
X30868578Y95932528D01*
X30865973Y95911940D01*
X30864113Y95890657D01*
X30862997Y95868680D01*
X30862625Y95846009D01*
X30522899Y95846009D01*
X30523234Y95871967D01*
X30524239Y95897454D01*
X30525913Y95922469D01*
X30528257Y95947014D01*
X30531271Y95971086D01*
X30534954Y95994688D01*
X30539307Y96017818D01*
X30544330Y96040478D01*
X30550023Y96062665D01*
X30556385Y96084382D01*
X30563418Y96105627D01*
X30571120Y96126401D01*
X30579491Y96146703D01*
X30588533Y96166535D01*
X30598244Y96185894D01*
X30608625Y96204783D01*
X30619626Y96223560D01*
X30631197Y96241792D01*
X30643339Y96259478D01*
X30656052Y96276618D01*
X30669335Y96293212D01*
X30683188Y96309261D01*
X30697612Y96324764D01*
X30712606Y96339721D01*
X30728171Y96354133D01*
X30744307Y96367998D01*
X30761012Y96381319D01*
X30778289Y96394093D01*
X30796136Y96406322D01*
X30814553Y96418004D01*
X30833541Y96429142D01*
X30853100Y96439733D01*
X30873167Y96449730D01*
X30893680Y96459081D01*
X30914640Y96467787D01*
X30936046Y96475849D01*
X30957899Y96483266D01*
X30980199Y96490037D01*
X31002945Y96496164D01*
X31026137Y96501646D01*
X31049776Y96506483D01*
X31073861Y96510675D01*
X31098393Y96514222D01*
X31123371Y96517124D01*
X31148796Y96519381D01*
X31174667Y96520993D01*
X31200985Y96521961D01*
X31227749Y96522283D01*
X31254513Y96521961D01*
X31280831Y96520993D01*
X31306702Y96519381D01*
X31332127Y96517124D01*
X31357106Y96514222D01*
X31381638Y96510675D01*
X31405723Y96506483D01*
X31429362Y96501646D01*
X31452554Y96496164D01*
X31475300Y96490037D01*
X31497599Y96483266D01*
X31519452Y96475849D01*
X31540858Y96467787D01*
X31561818Y96459081D01*
X31582331Y96449730D01*
X31602398Y96439733D01*
X31621956Y96429142D01*
X31640945Y96418004D01*
X31659362Y96406322D01*
X31677210Y96394093D01*
X31694486Y96381319D01*
X31711192Y96367998D01*
X31727328Y96354133D01*
X31742893Y96339721D01*
X31757887Y96324764D01*
X31772311Y96309261D01*
X31786165Y96293212D01*
X31799448Y96276618D01*
X31812160Y96259478D01*
X31824302Y96241792D01*
X31835873Y96223560D01*
X31846874Y96204783D01*
X31857255Y96185894D01*
X31866966Y96166535D01*
X31876008Y96146703D01*
X31884379Y96126401D01*
X31892081Y96105627D01*
X31899113Y96084382D01*
X31905475Y96062665D01*
X31911168Y96040478D01*
X31916191Y96017818D01*
X31920544Y95994688D01*
X31924227Y95971086D01*
X31927241Y95947014D01*
X31929584Y95922469D01*
X31931259Y95897454D01*
X31932263Y95871967D01*
X31932598Y95846009D01*
X31932598Y95395159D01*
G37*
G36*
X33830005Y103865000D02*
G01*
X33829671Y103839402D01*
X33828666Y103814200D01*
X33826992Y103789395D01*
X33824648Y103764988D01*
X33821634Y103740977D01*
X33817950Y103717363D01*
X33813597Y103694145D01*
X33808574Y103671325D01*
X33802882Y103648902D01*
X33796519Y103626875D01*
X33789487Y103605245D01*
X33781785Y103584013D01*
X33773414Y103563177D01*
X33764372Y103542738D01*
X33754661Y103522695D01*
X33744281Y103503050D01*
X33733292Y103484260D01*
X33721758Y103465992D01*
X33709678Y103448244D01*
X33697052Y103431017D01*
X33683881Y103414311D01*
X33670164Y103398126D01*
X33655901Y103382462D01*
X33641093Y103367319D01*
X33625739Y103352696D01*
X33609839Y103338595D01*
X33593394Y103325014D01*
X33576402Y103311955D01*
X33558866Y103299416D01*
X33540783Y103287398D01*
X33522155Y103275901D01*
X33502981Y103264925D01*
X33482926Y103254929D01*
X33462450Y103245577D01*
X33441552Y103236871D01*
X33420232Y103228809D01*
X33398491Y103221393D01*
X33376328Y103214621D01*
X33353743Y103208494D01*
X33330737Y103203013D01*
X33307309Y103198176D01*
X33283459Y103193984D01*
X33259188Y103190437D01*
X33234495Y103187534D01*
X33209380Y103185277D01*
X33183844Y103183665D01*
X33157886Y103182698D01*
X33131506Y103182375D01*
X33105138Y103182698D01*
X33079217Y103183665D01*
X33053743Y103185277D01*
X33028715Y103187534D01*
X33004133Y103190437D01*
X32979998Y103193984D01*
X32956310Y103198176D01*
X32933068Y103203013D01*
X32910273Y103208494D01*
X32887924Y103214621D01*
X32866021Y103221393D01*
X32844565Y103228809D01*
X32823556Y103236871D01*
X32802993Y103245577D01*
X32782876Y103254929D01*
X32763206Y103264925D01*
X32743648Y103275901D01*
X32724660Y103287398D01*
X32706242Y103299416D01*
X32688395Y103311955D01*
X32671119Y103325014D01*
X32654413Y103338595D01*
X32638277Y103352696D01*
X32622712Y103367319D01*
X32607717Y103382462D01*
X32593293Y103398126D01*
X32579440Y103414311D01*
X32566157Y103431017D01*
X32553444Y103448244D01*
X32541302Y103465992D01*
X32529731Y103484260D01*
X32518730Y103503050D01*
X32508349Y103522695D01*
X32498638Y103542738D01*
X32489597Y103563177D01*
X32481225Y103584013D01*
X32473524Y103605245D01*
X32466492Y103626875D01*
X32460129Y103648902D01*
X32454437Y103671325D01*
X32449414Y103694145D01*
X32445061Y103717363D01*
X32441377Y103740977D01*
X32438364Y103764988D01*
X32436020Y103789395D01*
X32434345Y103814200D01*
X32433341Y103839402D01*
X32433006Y103865000D01*
X32433006Y104881000D01*
X32709230Y104881000D01*
X32709230Y103865000D01*
X32709689Y103841064D01*
X32711066Y103817673D01*
X32713360Y103794828D01*
X32716572Y103772528D01*
X32720702Y103750774D01*
X32725750Y103729566D01*
X32731716Y103708904D01*
X32738599Y103688788D01*
X32746400Y103669217D01*
X32755119Y103650191D01*
X32764755Y103631712D01*
X32775310Y103613778D01*
X32786782Y103596390D01*
X32799172Y103579548D01*
X32812480Y103563251D01*
X32826706Y103547500D01*
X32841291Y103532890D01*
X32856472Y103519223D01*
X32872247Y103506498D01*
X32888619Y103494716D01*
X32905585Y103483876D01*
X32923147Y103473979D01*
X32941304Y103465025D01*
X32960056Y103457013D01*
X32979404Y103449943D01*
X32999347Y103443816D01*
X33019885Y103438632D01*
X33041019Y103434391D01*
X33062748Y103431092D01*
X33085072Y103428735D01*
X33107991Y103427321D01*
X33131506Y103426850D01*
X33155033Y103427321D01*
X33177990Y103428735D01*
X33200376Y103431092D01*
X33222192Y103434391D01*
X33243437Y103438632D01*
X33264112Y103443816D01*
X33284216Y103449943D01*
X33303750Y103457013D01*
X33322713Y103465025D01*
X33341106Y103473979D01*
X33358928Y103483876D01*
X33376179Y103494716D01*
X33392860Y103506498D01*
X33408971Y103519223D01*
X33424511Y103532890D01*
X33439481Y103547500D01*
X33453322Y103563251D01*
X33466270Y103579548D01*
X33478325Y103596390D01*
X33489487Y103613778D01*
X33499756Y103631712D01*
X33509132Y103650191D01*
X33517615Y103669217D01*
X33525206Y103688788D01*
X33531903Y103708904D01*
X33537707Y103729566D01*
X33542618Y103750774D01*
X33546637Y103772528D01*
X33549762Y103794828D01*
X33551994Y103817673D01*
X33553334Y103841064D01*
X33553780Y103865000D01*
X33553780Y104881000D01*
X33553334Y104904924D01*
X33551994Y104928278D01*
X33549762Y104951061D01*
X33546637Y104973273D01*
X33542618Y104994916D01*
X33537707Y105015987D01*
X33531903Y105036488D01*
X33525206Y105056419D01*
X33517615Y105075779D01*
X33509132Y105094568D01*
X33499756Y105112787D01*
X33489487Y105130436D01*
X33478325Y105147514D01*
X33466270Y105164022D01*
X33453322Y105179959D01*
X33439481Y105195325D01*
X33424511Y105210319D01*
X33408971Y105224347D01*
X33392860Y105237406D01*
X33376179Y105249498D01*
X33358928Y105260623D01*
X33341106Y105270781D01*
X33322713Y105279971D01*
X33303750Y105288194D01*
X33284216Y105295449D01*
X33264112Y105301737D01*
X33243437Y105307058D01*
X33222192Y105311411D01*
X33200376Y105314797D01*
X33177990Y105317215D01*
X33155033Y105318666D01*
X33131506Y105319150D01*
X33107991Y105318666D01*
X33085072Y105317215D01*
X33062748Y105314797D01*
X33041019Y105311411D01*
X33019885Y105307058D01*
X32999347Y105301737D01*
X32979404Y105295449D01*
X32960056Y105288194D01*
X32941304Y105279971D01*
X32923147Y105270781D01*
X32905585Y105260623D01*
X32888619Y105249498D01*
X32872247Y105237406D01*
X32856472Y105224347D01*
X32841291Y105210319D01*
X32826706Y105195325D01*
X32812480Y105179959D01*
X32799172Y105164022D01*
X32786782Y105147514D01*
X32775310Y105130436D01*
X32764755Y105112787D01*
X32755119Y105094568D01*
X32746400Y105075779D01*
X32738599Y105056419D01*
X32731716Y105036488D01*
X32725750Y105015987D01*
X32720702Y104994916D01*
X32716572Y104973273D01*
X32713360Y104951061D01*
X32711066Y104928278D01*
X32709689Y104904924D01*
X32709230Y104881000D01*
X32433006Y104881000D01*
X32433341Y104906971D01*
X32434345Y104932495D01*
X32436020Y104957572D01*
X32438364Y104982203D01*
X32441377Y105006388D01*
X32445061Y105030126D01*
X32449414Y105053417D01*
X32454437Y105076263D01*
X32460129Y105098661D01*
X32466492Y105120613D01*
X32473524Y105142119D01*
X32481225Y105163178D01*
X32489597Y105183791D01*
X32498638Y105203957D01*
X32508349Y105223677D01*
X32518730Y105242950D01*
X32529718Y105261727D01*
X32541253Y105279959D01*
X32553333Y105297644D01*
X32565958Y105314784D01*
X32579130Y105331379D01*
X32592847Y105347427D01*
X32607109Y105362930D01*
X32621918Y105377887D01*
X32637272Y105392299D01*
X32653172Y105406165D01*
X32669618Y105419485D01*
X32686609Y105432259D01*
X32704146Y105444488D01*
X32722228Y105456171D01*
X32740857Y105467308D01*
X32760031Y105477900D01*
X32779713Y105488281D01*
X32799867Y105497992D01*
X32820492Y105507033D01*
X32841589Y105515405D01*
X32863156Y105523106D01*
X32885195Y105530138D01*
X32907706Y105536501D01*
X32930687Y105542194D01*
X32954140Y105547216D01*
X32978064Y105551570D01*
X33002459Y105555253D01*
X33027326Y105558267D01*
X33052664Y105560611D01*
X33078473Y105562285D01*
X33104754Y105563290D01*
X33131506Y105563625D01*
X33157886Y105563290D01*
X33183844Y105562285D01*
X33209380Y105560611D01*
X33234495Y105558267D01*
X33259188Y105555253D01*
X33283459Y105551570D01*
X33307309Y105547216D01*
X33330737Y105542194D01*
X33353743Y105536501D01*
X33376328Y105530138D01*
X33398491Y105523106D01*
X33420232Y105515405D01*
X33441552Y105507033D01*
X33462450Y105497992D01*
X33482926Y105488281D01*
X33502981Y105477900D01*
X33522155Y105467308D01*
X33540783Y105456171D01*
X33558866Y105444488D01*
X33576402Y105432259D01*
X33593394Y105419485D01*
X33609839Y105406165D01*
X33625739Y105392299D01*
X33641093Y105377887D01*
X33655901Y105362930D01*
X33670164Y105347427D01*
X33683881Y105331379D01*
X33697052Y105314784D01*
X33709678Y105297644D01*
X33721758Y105279959D01*
X33733292Y105261727D01*
X33744281Y105242950D01*
X33754661Y105223677D01*
X33764372Y105203957D01*
X33773414Y105183791D01*
X33781785Y105163178D01*
X33789487Y105142119D01*
X33796519Y105120613D01*
X33802882Y105098661D01*
X33808574Y105076263D01*
X33813597Y105053417D01*
X33817950Y105030126D01*
X33821634Y105006388D01*
X33824648Y104982203D01*
X33826992Y104957572D01*
X33828666Y104932495D01*
X33829671Y104906971D01*
X33830005Y104881000D01*
X33830005Y103865000D01*
G37*
G36*
X39547624Y95395159D02*
G01*
X39547289Y95369573D01*
X39546285Y95344409D01*
X39544611Y95319666D01*
X39542267Y95295345D01*
X39539253Y95271446D01*
X39535569Y95247968D01*
X39531216Y95224912D01*
X39526193Y95202278D01*
X39520501Y95180065D01*
X39514138Y95158274D01*
X39507106Y95136905D01*
X39499404Y95115958D01*
X39491033Y95095432D01*
X39481991Y95075328D01*
X39472280Y95055645D01*
X39461900Y95036384D01*
X39450899Y95017607D01*
X39439327Y94999375D01*
X39427185Y94981690D01*
X39414473Y94964550D01*
X39401190Y94947955D01*
X39387337Y94931907D01*
X39372913Y94916404D01*
X39357918Y94901447D01*
X39342354Y94887035D01*
X39326218Y94873169D01*
X39309512Y94859849D01*
X39292236Y94847075D01*
X39274389Y94834846D01*
X39255971Y94823163D01*
X39236984Y94812026D01*
X39217425Y94801434D01*
X39197358Y94791438D01*
X39176844Y94782086D01*
X39155884Y94773380D01*
X39134478Y94765318D01*
X39112625Y94757902D01*
X39090326Y94751130D01*
X39067580Y94745003D01*
X39044387Y94739522D01*
X39020749Y94734685D01*
X38996663Y94730493D01*
X38972131Y94726946D01*
X38947153Y94724043D01*
X38921728Y94721786D01*
X38895857Y94720174D01*
X38869539Y94719207D01*
X38842775Y94718884D01*
X38816011Y94719207D01*
X38789693Y94720174D01*
X38763821Y94721786D01*
X38738397Y94724043D01*
X38713418Y94726946D01*
X38688886Y94730493D01*
X38664801Y94734685D01*
X38641162Y94739522D01*
X38617970Y94745003D01*
X38595224Y94751130D01*
X38572925Y94757902D01*
X38551072Y94765318D01*
X38529665Y94773380D01*
X38508705Y94782086D01*
X38488192Y94791438D01*
X38468125Y94801434D01*
X38448567Y94812026D01*
X38429578Y94823163D01*
X38411161Y94834846D01*
X38393314Y94847075D01*
X38376037Y94859849D01*
X38359331Y94873169D01*
X38343196Y94887035D01*
X38327631Y94901447D01*
X38312636Y94916404D01*
X38298213Y94931907D01*
X38284359Y94947955D01*
X38271076Y94964550D01*
X38258364Y94981690D01*
X38246222Y94999375D01*
X38234651Y95017607D01*
X38223650Y95036384D01*
X38213269Y95055645D01*
X38203558Y95075328D01*
X38194517Y95095432D01*
X38186145Y95115958D01*
X38178443Y95136905D01*
X38171411Y95158274D01*
X38165049Y95180065D01*
X38159356Y95202278D01*
X38154333Y95224912D01*
X38149980Y95247968D01*
X38146296Y95271446D01*
X38143283Y95295345D01*
X38140939Y95319666D01*
X38139264Y95344409D01*
X38138260Y95369573D01*
X38137925Y95395159D01*
X38137925Y95846009D01*
X38477649Y95846009D01*
X38477649Y95395159D01*
X38478022Y95372860D01*
X38479138Y95351205D01*
X38480998Y95330196D01*
X38483603Y95309831D01*
X38486951Y95290111D01*
X38491044Y95271036D01*
X38495881Y95252606D01*
X38501462Y95234821D01*
X38507787Y95217681D01*
X38514856Y95201186D01*
X38522670Y95185336D01*
X38531228Y95170131D01*
X38540529Y95155571D01*
X38550575Y95141655D01*
X38561365Y95128385D01*
X38572900Y95115760D01*
X38585116Y95104225D01*
X38597952Y95093435D01*
X38611409Y95083389D01*
X38625486Y95074087D01*
X38640182Y95065530D01*
X38655499Y95057716D01*
X38671436Y95050647D01*
X38687993Y95044322D01*
X38705171Y95038741D01*
X38722968Y95033904D01*
X38741385Y95029811D01*
X38760423Y95026462D01*
X38780081Y95023858D01*
X38800359Y95021998D01*
X38821257Y95020881D01*
X38842775Y95020509D01*
X38863921Y95020881D01*
X38884497Y95021998D01*
X38904501Y95023858D01*
X38923936Y95026462D01*
X38942800Y95029811D01*
X38961093Y95033904D01*
X38978816Y95038741D01*
X38995969Y95044322D01*
X39012550Y95050647D01*
X39028562Y95057716D01*
X39044003Y95065530D01*
X39058873Y95074087D01*
X39073173Y95083389D01*
X39086902Y95093435D01*
X39100061Y95104225D01*
X39112650Y95115760D01*
X39124184Y95128385D01*
X39134974Y95141655D01*
X39145020Y95155571D01*
X39154321Y95170131D01*
X39162879Y95185336D01*
X39170692Y95201186D01*
X39177762Y95217681D01*
X39184087Y95234821D01*
X39189668Y95252606D01*
X39194505Y95271036D01*
X39198598Y95290111D01*
X39201947Y95309831D01*
X39204551Y95330196D01*
X39206411Y95351205D01*
X39207528Y95372860D01*
X39207900Y95395159D01*
X39207900Y95846009D01*
X39207528Y95868680D01*
X39206411Y95890657D01*
X39204551Y95911940D01*
X39201947Y95932528D01*
X39198598Y95952421D01*
X39194505Y95971620D01*
X39189668Y95990124D01*
X39184087Y96007934D01*
X39177762Y96025049D01*
X39170692Y96041470D01*
X39162879Y96057196D01*
X39154321Y96072228D01*
X39145020Y96086565D01*
X39134974Y96100207D01*
X39124184Y96113155D01*
X39112650Y96125409D01*
X39100061Y96136943D01*
X39086902Y96147733D01*
X39073173Y96157779D01*
X39058873Y96167081D01*
X39044003Y96175638D01*
X39028562Y96183452D01*
X39012550Y96190521D01*
X38995969Y96196847D01*
X38978816Y96202428D01*
X38961093Y96207264D01*
X38942800Y96211357D01*
X38923936Y96214706D01*
X38904501Y96217310D01*
X38884497Y96219171D01*
X38863921Y96220287D01*
X38842775Y96220659D01*
X38821257Y96220287D01*
X38800359Y96219171D01*
X38780081Y96217310D01*
X38760423Y96214706D01*
X38741385Y96211357D01*
X38722968Y96207264D01*
X38705171Y96202428D01*
X38687993Y96196847D01*
X38671436Y96190521D01*
X38655499Y96183452D01*
X38640182Y96175638D01*
X38625486Y96167081D01*
X38611409Y96157779D01*
X38597952Y96147733D01*
X38585116Y96136943D01*
X38572900Y96125409D01*
X38561365Y96113155D01*
X38550575Y96100207D01*
X38540529Y96086565D01*
X38531228Y96072228D01*
X38522670Y96057196D01*
X38514856Y96041470D01*
X38507787Y96025049D01*
X38501462Y96007934D01*
X38495881Y95990124D01*
X38491044Y95971620D01*
X38486951Y95952421D01*
X38483603Y95932528D01*
X38480998Y95911940D01*
X38479138Y95890657D01*
X38478022Y95868680D01*
X38477649Y95846009D01*
X38137925Y95846009D01*
X38138260Y95871967D01*
X38139264Y95897454D01*
X38140939Y95922469D01*
X38143283Y95947014D01*
X38146296Y95971086D01*
X38149980Y95994688D01*
X38154333Y96017818D01*
X38159356Y96040478D01*
X38165049Y96062665D01*
X38171411Y96084382D01*
X38178443Y96105627D01*
X38186145Y96126401D01*
X38194517Y96146703D01*
X38203558Y96166535D01*
X38213269Y96185894D01*
X38223650Y96204783D01*
X38234651Y96223560D01*
X38246222Y96241792D01*
X38258364Y96259478D01*
X38271076Y96276618D01*
X38284359Y96293212D01*
X38298213Y96309261D01*
X38312636Y96324764D01*
X38327631Y96339721D01*
X38343196Y96354133D01*
X38359331Y96367998D01*
X38376037Y96381319D01*
X38393314Y96394093D01*
X38411161Y96406322D01*
X38429578Y96418004D01*
X38448567Y96429142D01*
X38468125Y96439733D01*
X38488192Y96449730D01*
X38508705Y96459081D01*
X38529665Y96467787D01*
X38551072Y96475849D01*
X38572925Y96483266D01*
X38595224Y96490037D01*
X38617970Y96496164D01*
X38641162Y96501646D01*
X38664801Y96506483D01*
X38688886Y96510675D01*
X38713418Y96514222D01*
X38738397Y96517124D01*
X38763821Y96519381D01*
X38789693Y96520993D01*
X38816011Y96521961D01*
X38842775Y96522283D01*
X38869539Y96521961D01*
X38895857Y96520993D01*
X38921728Y96519381D01*
X38947153Y96517124D01*
X38972131Y96514222D01*
X38996663Y96510675D01*
X39020749Y96506483D01*
X39044387Y96501646D01*
X39067580Y96496164D01*
X39090326Y96490037D01*
X39112625Y96483266D01*
X39134478Y96475849D01*
X39155884Y96467787D01*
X39176844Y96459081D01*
X39197358Y96449730D01*
X39217425Y96439733D01*
X39236984Y96429142D01*
X39255971Y96418004D01*
X39274389Y96406322D01*
X39292236Y96394093D01*
X39309512Y96381319D01*
X39326218Y96367998D01*
X39342354Y96354133D01*
X39357918Y96339721D01*
X39372913Y96324764D01*
X39387337Y96309261D01*
X39401190Y96293212D01*
X39414473Y96276618D01*
X39427185Y96259478D01*
X39439327Y96241792D01*
X39450899Y96223560D01*
X39461900Y96204783D01*
X39472280Y96185894D01*
X39481991Y96166535D01*
X39491033Y96146703D01*
X39499404Y96126401D01*
X39507106Y96105627D01*
X39514138Y96084382D01*
X39520501Y96062665D01*
X39526193Y96040478D01*
X39531216Y96017818D01*
X39535569Y95994688D01*
X39539253Y95971086D01*
X39542267Y95947014D01*
X39544611Y95922469D01*
X39546285Y95897454D01*
X39547289Y95871967D01*
X39547624Y95846009D01*
X39547624Y95395159D01*
G37*
G36*
X18663427Y95242759D02*
G01*
X18662819Y95212597D01*
X18660996Y95183228D01*
X18657958Y95154653D01*
X18653704Y95126872D01*
X18648235Y95099884D01*
X18641550Y95073690D01*
X18633650Y95048290D01*
X18624534Y95023684D01*
X18614203Y94999872D01*
X18602657Y94976853D01*
X18589895Y94954628D01*
X18575918Y94933197D01*
X18560725Y94912559D01*
X18544317Y94892716D01*
X18526693Y94873666D01*
X18507854Y94855409D01*
X18487564Y94838492D01*
X18466380Y94822667D01*
X18444304Y94807933D01*
X18421335Y94794290D01*
X18397473Y94781739D01*
X18372717Y94770279D01*
X18347069Y94759911D01*
X18320528Y94750634D01*
X18293094Y94742449D01*
X18264767Y94735354D01*
X18235547Y94729352D01*
X18205435Y94724440D01*
X18174429Y94720621D01*
X18142530Y94717892D01*
X18109738Y94716255D01*
X18076053Y94715709D01*
X18046263Y94716143D01*
X18017217Y94717446D01*
X17988915Y94719616D01*
X17961357Y94722654D01*
X17934543Y94726561D01*
X17908473Y94731336D01*
X17883148Y94736979D01*
X17858566Y94743490D01*
X17834729Y94750869D01*
X17811635Y94759117D01*
X17789286Y94768233D01*
X17767681Y94778216D01*
X17746821Y94789068D01*
X17726704Y94800788D01*
X17707332Y94813377D01*
X17688703Y94826833D01*
X17671017Y94841419D01*
X17654472Y94856599D01*
X17639069Y94872375D01*
X17624806Y94888746D01*
X17611684Y94905713D01*
X17599704Y94923274D01*
X17588864Y94941431D01*
X17579165Y94960184D01*
X17570608Y94979531D01*
X17563192Y94999474D01*
X17556916Y95020012D01*
X17551782Y95041146D01*
X17547788Y95062875D01*
X17547116Y95068134D01*
X17542654Y95068134D01*
X17542654Y94747459D01*
X17209278Y94747459D01*
X17209278Y95541209D01*
X17552179Y95541209D01*
X17552179Y95312609D01*
X17552650Y95294551D01*
X17554064Y95276890D01*
X17556421Y95259626D01*
X17559720Y95242759D01*
X17563961Y95226289D01*
X17569145Y95210215D01*
X17575272Y95194539D01*
X17582341Y95179259D01*
X17590353Y95164376D01*
X17599308Y95149890D01*
X17609205Y95135801D01*
X17620044Y95122109D01*
X17631827Y95108814D01*
X17644551Y95095916D01*
X17658219Y95083414D01*
X17672828Y95071310D01*
X17687773Y95060160D01*
X17703239Y95049729D01*
X17719226Y95040018D01*
X17735733Y95031026D01*
X17752762Y95022754D01*
X17770311Y95015201D01*
X17788381Y95008367D01*
X17806973Y95002252D01*
X17826084Y94996857D01*
X17845717Y94992182D01*
X17865871Y94988225D01*
X17886546Y94984988D01*
X17907742Y94982470D01*
X17929458Y94980672D01*
X17951696Y94979593D01*
X17974455Y94979233D01*
X17994422Y94979531D01*
X18013844Y94980424D01*
X18032720Y94981912D01*
X18051051Y94983996D01*
X18068835Y94986675D01*
X18086075Y94989949D01*
X18102768Y94993819D01*
X18118916Y94998284D01*
X18134518Y95003344D01*
X18149575Y95008999D01*
X18164086Y95015250D01*
X18178051Y95022096D01*
X18191470Y95029538D01*
X18204344Y95037574D01*
X18216672Y95046206D01*
X18228454Y95055434D01*
X18239604Y95065567D01*
X18250035Y95076121D01*
X18259746Y95087097D01*
X18268737Y95098495D01*
X18277010Y95110314D01*
X18284562Y95122555D01*
X18291396Y95135218D01*
X18297510Y95148303D01*
X18302905Y95161809D01*
X18307580Y95175737D01*
X18311537Y95190086D01*
X18314773Y95204858D01*
X18317291Y95220051D01*
X18319089Y95235665D01*
X18320168Y95251702D01*
X18320528Y95268160D01*
X18320230Y95283824D01*
X18319337Y95299066D01*
X18317849Y95313887D01*
X18315765Y95328286D01*
X18313086Y95342263D01*
X18309812Y95355819D01*
X18305943Y95368953D01*
X18301478Y95381666D01*
X18296417Y95393956D01*
X18290762Y95405825D01*
X18284511Y95417273D01*
X18277665Y95428298D01*
X18270224Y95438902D01*
X18262187Y95449085D01*
X18253555Y95458845D01*
X18244327Y95468184D01*
X18234195Y95477027D01*
X18223641Y95485299D01*
X18212665Y95493001D01*
X18201267Y95500132D01*
X18189447Y95506693D01*
X18177206Y95512684D01*
X18164543Y95518103D01*
X18151459Y95522953D01*
X18137953Y95527231D01*
X18124025Y95530940D01*
X18109675Y95534078D01*
X18094904Y95536645D01*
X18079711Y95538642D01*
X18064097Y95540068D01*
X18048060Y95540924D01*
X18031603Y95541209D01*
X17552179Y95541209D01*
X17209278Y95541209D01*
X17209278Y95941259D01*
X17209985Y95974547D01*
X17212106Y96006942D01*
X17215640Y96038444D01*
X17220589Y96069053D01*
X17226951Y96098769D01*
X17234728Y96127592D01*
X17243918Y96155522D01*
X17254522Y96182559D01*
X17266540Y96208703D01*
X17279972Y96233954D01*
X17294818Y96258312D01*
X17311077Y96281778D01*
X17328751Y96304350D01*
X17347838Y96326029D01*
X17368340Y96346816D01*
X17390255Y96366709D01*
X17413385Y96385933D01*
X17437532Y96403916D01*
X17462697Y96420659D01*
X17488878Y96436162D01*
X17516076Y96450425D01*
X17544291Y96463447D01*
X17573524Y96475230D01*
X17603773Y96485772D01*
X17635039Y96495073D01*
X17667322Y96503135D01*
X17700623Y96509956D01*
X17734940Y96515537D01*
X17770274Y96519878D01*
X17806626Y96522978D01*
X17843994Y96524839D01*
X17882379Y96525459D01*
X17918110Y96524913D01*
X17953072Y96523276D01*
X17987265Y96520548D01*
X18020690Y96516728D01*
X18053345Y96511817D01*
X18085231Y96505814D01*
X18116349Y96498720D01*
X18146697Y96490534D01*
X18176277Y96481257D01*
X18205087Y96470889D01*
X18233129Y96459429D01*
X18260402Y96446878D01*
X18286906Y96433235D01*
X18312640Y96418501D01*
X18337606Y96402676D01*
X18361803Y96385759D01*
X18384598Y96367924D01*
X18406154Y96349346D01*
X18426469Y96330023D01*
X18445544Y96309956D01*
X18463379Y96289144D01*
X18479973Y96267589D01*
X18495327Y96245290D01*
X18509441Y96222246D01*
X18522315Y96198458D01*
X18533948Y96173926D01*
X18544341Y96148650D01*
X18553494Y96122630D01*
X18561407Y96095866D01*
X18568079Y96068358D01*
X18573511Y96040106D01*
X18577703Y96011109D01*
X18241153Y96011109D01*
X18238859Y96023648D01*
X18235944Y96035864D01*
X18232409Y96047758D01*
X18228255Y96059329D01*
X18223480Y96070578D01*
X18218084Y96081504D01*
X18212069Y96092108D01*
X18205434Y96102390D01*
X18198178Y96112349D01*
X18190303Y96121986D01*
X18181807Y96131300D01*
X18172691Y96140291D01*
X18162956Y96148961D01*
X18152600Y96157307D01*
X18141624Y96165332D01*
X18130028Y96173033D01*
X18117935Y96180723D01*
X18105471Y96187916D01*
X18092635Y96194614D01*
X18079426Y96200815D01*
X18065846Y96206520D01*
X18051893Y96211729D01*
X18037569Y96216442D01*
X18022872Y96220659D01*
X18007803Y96224379D01*
X17992362Y96227604D01*
X17976549Y96230333D01*
X17960364Y96232565D01*
X17943807Y96234301D01*
X17926878Y96235542D01*
X17909576Y96236286D01*
X17891903Y96236534D01*
X17871948Y96236224D01*
X17852563Y96235294D01*
X17833749Y96233743D01*
X17815505Y96231573D01*
X17797832Y96228782D01*
X17780729Y96225372D01*
X17764197Y96221341D01*
X17748235Y96216690D01*
X17732844Y96211419D01*
X17718023Y96205528D01*
X17703773Y96199017D01*
X17690093Y96191885D01*
X17676984Y96184134D01*
X17664445Y96175763D01*
X17652477Y96166771D01*
X17641079Y96157159D01*
X17630313Y96146989D01*
X17620243Y96136323D01*
X17610867Y96125161D01*
X17602185Y96113503D01*
X17594198Y96101348D01*
X17586905Y96088698D01*
X17580307Y96075551D01*
X17574404Y96061909D01*
X17569195Y96047770D01*
X17564680Y96033135D01*
X17560861Y96018005D01*
X17557735Y96002378D01*
X17555304Y95986255D01*
X17553568Y95969636D01*
X17552526Y95952521D01*
X17552179Y95934909D01*
X17552179Y95772983D01*
X18037954Y95772983D01*
X18073983Y95772425D01*
X18109044Y95770751D01*
X18143138Y95767960D01*
X18176265Y95764054D01*
X18208424Y95759031D01*
X18239616Y95752892D01*
X18269840Y95745637D01*
X18299098Y95737265D01*
X18327387Y95727777D01*
X18354710Y95717174D01*
X18381064Y95705453D01*
X18406452Y95692617D01*
X18430872Y95678665D01*
X18454324Y95663596D01*
X18476809Y95647411D01*
X18498327Y95630109D01*
X18518320Y95612225D01*
X18537023Y95593498D01*
X18554436Y95573927D01*
X18570559Y95553512D01*
X18585392Y95532255D01*
X18598935Y95510154D01*
X18611189Y95487209D01*
X18622152Y95463422D01*
X18631826Y95438791D01*
X18640210Y95413316D01*
X18647304Y95386999D01*
X18653108Y95359837D01*
X18657623Y95331833D01*
X18660847Y95302985D01*
X18662782Y95273294D01*
X18662891Y95268160D01*
X18663427Y95242759D01*
G37*
G36*
X24374696Y95242759D02*
G01*
X24374089Y95212597D01*
X24372266Y95183228D01*
X24369227Y95154653D01*
X24364973Y95126872D01*
X24359504Y95099884D01*
X24352819Y95073690D01*
X24344919Y95048290D01*
X24335803Y95023684D01*
X24325472Y94999872D01*
X24313926Y94976853D01*
X24301164Y94954628D01*
X24287186Y94933197D01*
X24271993Y94912559D01*
X24255585Y94892716D01*
X24237961Y94873666D01*
X24219122Y94855409D01*
X24198832Y94838492D01*
X24177648Y94822667D01*
X24155572Y94807933D01*
X24132603Y94794290D01*
X24108741Y94781739D01*
X24083986Y94770279D01*
X24058338Y94759911D01*
X24031797Y94750634D01*
X24004363Y94742449D01*
X23976036Y94735354D01*
X23946816Y94729352D01*
X23916703Y94724440D01*
X23885697Y94720621D01*
X23853798Y94717892D01*
X23821006Y94716255D01*
X23787321Y94715709D01*
X23757531Y94716143D01*
X23728485Y94717446D01*
X23700183Y94719616D01*
X23672626Y94722654D01*
X23645812Y94726561D01*
X23619743Y94731336D01*
X23594417Y94736979D01*
X23569836Y94743490D01*
X23545999Y94750869D01*
X23522906Y94759117D01*
X23500557Y94768233D01*
X23478952Y94778216D01*
X23458091Y94789068D01*
X23437974Y94800788D01*
X23418601Y94813377D01*
X23399973Y94826833D01*
X23382287Y94841419D01*
X23365742Y94856599D01*
X23350339Y94872375D01*
X23336076Y94888746D01*
X23322954Y94905713D01*
X23310973Y94923274D01*
X23300133Y94941431D01*
X23290435Y94960184D01*
X23281877Y94979531D01*
X23274460Y94999474D01*
X23268184Y95020012D01*
X23263050Y95041146D01*
X23259056Y95062875D01*
X23258384Y95068134D01*
X23253921Y95068134D01*
X23253921Y94747459D01*
X22920549Y94747459D01*
X22920549Y95541209D01*
X23263448Y95541209D01*
X23263448Y95312609D01*
X23263920Y95294551D01*
X23265334Y95276890D01*
X23267690Y95259626D01*
X23270989Y95242759D01*
X23275231Y95226289D01*
X23280415Y95210215D01*
X23286542Y95194539D01*
X23293611Y95179259D01*
X23301623Y95164376D01*
X23310577Y95149890D01*
X23320474Y95135801D01*
X23331314Y95122109D01*
X23343096Y95108814D01*
X23355821Y95095916D01*
X23369488Y95083414D01*
X23384098Y95071310D01*
X23399042Y95060160D01*
X23414508Y95049729D01*
X23430495Y95040018D01*
X23447002Y95031026D01*
X23464030Y95022754D01*
X23481580Y95015201D01*
X23499650Y95008367D01*
X23518241Y95002252D01*
X23537353Y94996857D01*
X23556986Y94992182D01*
X23577140Y94988225D01*
X23597814Y94984988D01*
X23619010Y94982470D01*
X23640726Y94980672D01*
X23662964Y94979593D01*
X23685722Y94979233D01*
X23705690Y94979531D01*
X23725112Y94980424D01*
X23743988Y94981912D01*
X23762319Y94983996D01*
X23780104Y94986675D01*
X23797343Y94989949D01*
X23814037Y94993819D01*
X23830185Y94998284D01*
X23845787Y95003344D01*
X23860844Y95008999D01*
X23875354Y95015250D01*
X23889319Y95022096D01*
X23902738Y95029538D01*
X23915612Y95037574D01*
X23927940Y95046206D01*
X23939722Y95055434D01*
X23950872Y95065567D01*
X23961302Y95076121D01*
X23971013Y95087097D01*
X23980005Y95098495D01*
X23988277Y95110314D01*
X23995831Y95122555D01*
X24002664Y95135218D01*
X24008779Y95148303D01*
X24014174Y95161809D01*
X24018849Y95175737D01*
X24022806Y95190086D01*
X24026043Y95204858D01*
X24028560Y95220051D01*
X24030359Y95235665D01*
X24031438Y95251702D01*
X24031797Y95268160D01*
X24031500Y95283824D01*
X24030607Y95299066D01*
X24029118Y95313887D01*
X24027035Y95328286D01*
X24024356Y95342263D01*
X24021081Y95355819D01*
X24017212Y95368953D01*
X24012747Y95381666D01*
X24007687Y95393956D01*
X24002031Y95405825D01*
X23995781Y95417273D01*
X23988934Y95428298D01*
X23981493Y95438902D01*
X23973456Y95449085D01*
X23964824Y95458845D01*
X23955597Y95468184D01*
X23945464Y95477027D01*
X23934910Y95485299D01*
X23923934Y95493001D01*
X23912536Y95500132D01*
X23900717Y95506693D01*
X23888476Y95512684D01*
X23875813Y95518103D01*
X23862729Y95522953D01*
X23849223Y95527231D01*
X23835295Y95530940D01*
X23820946Y95534078D01*
X23806174Y95536645D01*
X23790981Y95538642D01*
X23775367Y95540068D01*
X23759330Y95540924D01*
X23742872Y95541209D01*
X23263448Y95541209D01*
X22920549Y95541209D01*
X22920549Y95941259D01*
X22921256Y95974547D01*
X22923377Y96006942D01*
X22926911Y96038444D01*
X22931860Y96069053D01*
X22938222Y96098769D01*
X22945998Y96127592D01*
X22955188Y96155522D01*
X22965792Y96182559D01*
X22977810Y96208703D01*
X22991241Y96233954D01*
X23006087Y96258312D01*
X23022346Y96281778D01*
X23040019Y96304350D01*
X23059106Y96326029D01*
X23079607Y96346816D01*
X23101522Y96366709D01*
X23124653Y96385933D01*
X23148800Y96403916D01*
X23173965Y96420659D01*
X23200146Y96436162D01*
X23227344Y96450425D01*
X23255560Y96463447D01*
X23284792Y96475230D01*
X23315041Y96485772D01*
X23346308Y96495073D01*
X23378591Y96503135D01*
X23411891Y96509956D01*
X23446209Y96515537D01*
X23481543Y96519878D01*
X23517894Y96522978D01*
X23555263Y96524839D01*
X23593649Y96525459D01*
X23629380Y96524913D01*
X23664342Y96523276D01*
X23698535Y96520548D01*
X23731959Y96516728D01*
X23764614Y96511817D01*
X23796501Y96505814D01*
X23827618Y96498720D01*
X23857967Y96490534D01*
X23887546Y96481257D01*
X23916357Y96470889D01*
X23944398Y96459429D01*
X23971671Y96446878D01*
X23998175Y96433235D01*
X24023910Y96418501D01*
X24048875Y96402676D01*
X24073072Y96385759D01*
X24095868Y96367924D01*
X24117423Y96349346D01*
X24137738Y96330023D01*
X24156813Y96309956D01*
X24174648Y96289144D01*
X24191242Y96267589D01*
X24206596Y96245290D01*
X24220710Y96222246D01*
X24233583Y96198458D01*
X24245217Y96173926D01*
X24255610Y96148650D01*
X24264763Y96122630D01*
X24272676Y96095866D01*
X24279348Y96068358D01*
X24284781Y96040106D01*
X24288973Y96011109D01*
X23952421Y96011109D01*
X23950127Y96023648D01*
X23947212Y96035864D01*
X23943678Y96047758D01*
X23939523Y96059329D01*
X23934748Y96070578D01*
X23929353Y96081504D01*
X23923338Y96092108D01*
X23916703Y96102390D01*
X23909448Y96112349D01*
X23901572Y96121986D01*
X23893077Y96131300D01*
X23883961Y96140291D01*
X23874225Y96148961D01*
X23863869Y96157307D01*
X23852893Y96165332D01*
X23841297Y96173033D01*
X23829205Y96180723D01*
X23816740Y96187916D01*
X23803904Y96194614D01*
X23790696Y96200815D01*
X23777115Y96206520D01*
X23763162Y96211729D01*
X23748837Y96216442D01*
X23734141Y96220659D01*
X23719072Y96224379D01*
X23703631Y96227604D01*
X23687818Y96230333D01*
X23671633Y96232565D01*
X23655076Y96234301D01*
X23638146Y96235542D01*
X23620845Y96236286D01*
X23603172Y96236534D01*
X23583217Y96236224D01*
X23563832Y96235294D01*
X23545017Y96233743D01*
X23526774Y96231573D01*
X23509100Y96228782D01*
X23491997Y96225372D01*
X23475465Y96221341D01*
X23459503Y96216690D01*
X23444112Y96211419D01*
X23429291Y96205528D01*
X23415041Y96199017D01*
X23401361Y96191885D01*
X23388252Y96184134D01*
X23375714Y96175763D01*
X23363746Y96166771D01*
X23352348Y96157159D01*
X23341583Y96146989D01*
X23331512Y96136323D01*
X23322136Y96125161D01*
X23313454Y96113503D01*
X23305467Y96101348D01*
X23298175Y96088698D01*
X23291577Y96075551D01*
X23285673Y96061909D01*
X23280464Y96047770D01*
X23275950Y96033135D01*
X23272130Y96018005D01*
X23269005Y96002378D01*
X23266574Y95986255D01*
X23264838Y95969636D01*
X23263796Y95952521D01*
X23263448Y95934909D01*
X23263448Y95772983D01*
X23749222Y95772983D01*
X23785251Y95772425D01*
X23820312Y95770751D01*
X23854406Y95767960D01*
X23887533Y95764054D01*
X23919692Y95759031D01*
X23950884Y95752892D01*
X23981109Y95745637D01*
X24010366Y95737265D01*
X24038656Y95727777D01*
X24065978Y95717174D01*
X24092333Y95705453D01*
X24117720Y95692617D01*
X24142140Y95678665D01*
X24165593Y95663596D01*
X24188078Y95647411D01*
X24209596Y95630109D01*
X24229589Y95612225D01*
X24248292Y95593498D01*
X24265705Y95573927D01*
X24281828Y95553512D01*
X24296661Y95532255D01*
X24310205Y95510154D01*
X24322458Y95487209D01*
X24333422Y95463422D01*
X24343096Y95438791D01*
X24351479Y95413316D01*
X24358574Y95386999D01*
X24364378Y95359837D01*
X24368892Y95331833D01*
X24372117Y95302985D01*
X24374052Y95273294D01*
X24374160Y95268160D01*
X24374696Y95242759D01*
G37*
G36*
X39588899Y103706250D02*
G01*
X39588279Y103676472D01*
X39586419Y103647463D01*
X39583318Y103619223D01*
X39578978Y103591752D01*
X39573396Y103565049D01*
X39566575Y103539116D01*
X39558514Y103513952D01*
X39549212Y103489556D01*
X39538670Y103465930D01*
X39526888Y103443072D01*
X39513865Y103420984D01*
X39499603Y103399664D01*
X39484100Y103379113D01*
X39467357Y103359332D01*
X39449373Y103340319D01*
X39430150Y103322075D01*
X39409847Y103305158D01*
X39388627Y103289333D01*
X39366489Y103274599D01*
X39343433Y103260956D01*
X39319459Y103248405D01*
X39294568Y103236945D01*
X39268758Y103226577D01*
X39242031Y103217300D01*
X39214386Y103209114D01*
X39185824Y103202020D01*
X39156343Y103196018D01*
X39125945Y103191106D01*
X39094629Y103187286D01*
X39062396Y103184558D01*
X39029244Y103182921D01*
X38995175Y103182375D01*
X38965000Y103182809D01*
X38935594Y103184111D01*
X38906957Y103186282D01*
X38879089Y103189320D01*
X38851990Y103193227D01*
X38825660Y103198002D01*
X38800098Y103203645D01*
X38775306Y103210156D01*
X38751283Y103217536D01*
X38728028Y103225783D01*
X38705543Y103234899D01*
X38683826Y103244883D01*
X38662879Y103255735D01*
X38642700Y103267455D01*
X38623290Y103280044D01*
X38604649Y103293500D01*
X38586579Y103307701D01*
X38569675Y103322522D01*
X38553936Y103337962D01*
X38539364Y103354024D01*
X38525957Y103370705D01*
X38513716Y103388006D01*
X38502641Y103405927D01*
X38492731Y103424469D01*
X38483988Y103443630D01*
X38476410Y103463412D01*
X38469998Y103483814D01*
X38464752Y103504836D01*
X38460671Y103526478D01*
X38457919Y103547500D01*
X38455425Y103547500D01*
X38455425Y103214125D01*
X38176025Y103214125D01*
X38176025Y104017400D01*
X38461775Y104017400D01*
X38461775Y103769750D01*
X38462283Y103750130D01*
X38463809Y103730956D01*
X38466351Y103712228D01*
X38469911Y103693947D01*
X38474487Y103676112D01*
X38480081Y103658724D01*
X38486691Y103641783D01*
X38494319Y103625288D01*
X38502963Y103609239D01*
X38512624Y103593637D01*
X38523303Y103578481D01*
X38534998Y103563772D01*
X38547710Y103549509D01*
X38561440Y103535693D01*
X38576186Y103522323D01*
X38591949Y103509400D01*
X38608507Y103497097D01*
X38625634Y103485588D01*
X38643333Y103474872D01*
X38661601Y103464950D01*
X38680440Y103455822D01*
X38699850Y103447488D01*
X38719830Y103439947D01*
X38740381Y103433200D01*
X38761502Y103427247D01*
X38783194Y103422088D01*
X38805456Y103417722D01*
X38828289Y103414150D01*
X38851692Y103411372D01*
X38875666Y103409388D01*
X38900210Y103408197D01*
X38925325Y103407800D01*
X38947252Y103408123D01*
X38968584Y103409090D01*
X38989321Y103410702D01*
X39009463Y103412960D01*
X39029009Y103415862D01*
X39047959Y103419409D01*
X39066315Y103423601D01*
X39084075Y103428438D01*
X39101240Y103433920D01*
X39117809Y103440046D01*
X39133783Y103446818D01*
X39149162Y103454235D01*
X39163946Y103462296D01*
X39178134Y103471003D01*
X39191727Y103480354D01*
X39204725Y103490350D01*
X39216644Y103501301D01*
X39227793Y103512724D01*
X39238174Y103524618D01*
X39247786Y103536983D01*
X39256629Y103549819D01*
X39264702Y103563127D01*
X39272007Y103576906D01*
X39278543Y103591156D01*
X39284310Y103605878D01*
X39289308Y103621071D01*
X39293537Y103636735D01*
X39296998Y103652870D01*
X39299689Y103669477D01*
X39301611Y103686555D01*
X39302765Y103704104D01*
X39303149Y103722125D01*
X39302827Y103738967D01*
X39301859Y103755363D01*
X39300247Y103771313D01*
X39297990Y103786816D01*
X39295088Y103801872D01*
X39291540Y103816482D01*
X39287349Y103830646D01*
X39282512Y103844363D01*
X39277030Y103857633D01*
X39270903Y103870457D01*
X39264131Y103882835D01*
X39256715Y103894766D01*
X39248653Y103906250D01*
X39239947Y103917288D01*
X39230595Y103927880D01*
X39220599Y103938025D01*
X39210045Y103947637D01*
X39199019Y103956629D01*
X39187523Y103965000D01*
X39175554Y103972752D01*
X39163115Y103979883D01*
X39150204Y103986394D01*
X39136822Y103992285D01*
X39122969Y103997556D01*
X39108644Y104002207D01*
X39093848Y104006238D01*
X39078581Y104009649D01*
X39062842Y104012439D01*
X39046633Y104014610D01*
X39029951Y104016160D01*
X39012799Y104017090D01*
X38995175Y104017400D01*
X38461775Y104017400D01*
X38176025Y104017400D01*
X38176025Y104414275D01*
X38176707Y104447179D01*
X38178754Y104479214D01*
X38182164Y104510381D01*
X38186939Y104540680D01*
X38193078Y104570110D01*
X38200582Y104598673D01*
X38209449Y104626368D01*
X38219681Y104653194D01*
X38231278Y104679152D01*
X38244238Y104704242D01*
X38258563Y104728464D01*
X38274252Y104751817D01*
X38291305Y104774303D01*
X38309722Y104795920D01*
X38329504Y104816669D01*
X38350650Y104836550D01*
X38372974Y104855389D01*
X38396290Y104873013D01*
X38420599Y104889421D01*
X38445900Y104904614D01*
X38472193Y104918592D01*
X38499478Y104931354D01*
X38527755Y104942900D01*
X38557025Y104953231D01*
X38587287Y104962347D01*
X38618541Y104970247D01*
X38650787Y104976932D01*
X38684025Y104982402D01*
X38718255Y104986656D01*
X38753478Y104989694D01*
X38789692Y104991517D01*
X38826899Y104992125D01*
X38861068Y104991604D01*
X38894517Y104990041D01*
X38927247Y104987437D01*
X38959257Y104983791D01*
X38990548Y104979103D01*
X39021120Y104973373D01*
X39050973Y104966601D01*
X39080106Y104958787D01*
X39108520Y104949932D01*
X39136214Y104940035D01*
X39163189Y104929096D01*
X39189445Y104917116D01*
X39214982Y104904093D01*
X39239799Y104890029D01*
X39263897Y104874923D01*
X39287275Y104858775D01*
X39309686Y104841747D01*
X39330882Y104823999D01*
X39350862Y104805532D01*
X39369626Y104786345D01*
X39387176Y104766440D01*
X39403510Y104745815D01*
X39418628Y104724470D01*
X39432531Y104702406D01*
X39445218Y104679623D01*
X39456691Y104656121D01*
X39466947Y104631899D01*
X39475989Y104606958D01*
X39483815Y104581297D01*
X39490425Y104554918D01*
X39495820Y104527818D01*
X39500000Y104500000D01*
X39214249Y104500000D01*
X39211918Y104513705D01*
X39208892Y104527037D01*
X39205171Y104539998D01*
X39200756Y104552586D01*
X39195646Y104564802D01*
X39189842Y104576647D01*
X39183343Y104588119D01*
X39176149Y104599219D01*
X39168261Y104609947D01*
X39159679Y104620303D01*
X39150402Y104630287D01*
X39140430Y104639898D01*
X39129764Y104649138D01*
X39118404Y104658006D01*
X39106349Y104666502D01*
X39093599Y104674625D01*
X39080304Y104682699D01*
X39066612Y104690252D01*
X39052523Y104697284D01*
X39038037Y104703795D01*
X39023154Y104709786D01*
X39007874Y104715255D01*
X38992198Y104720204D01*
X38976125Y104724631D01*
X38959654Y104728538D01*
X38942787Y104731924D01*
X38925523Y104734789D01*
X38907862Y104737133D01*
X38889805Y104738956D01*
X38871350Y104740258D01*
X38852498Y104741040D01*
X38833250Y104741300D01*
X38811347Y104740953D01*
X38790090Y104739911D01*
X38769477Y104738175D01*
X38749509Y104735744D01*
X38730186Y104732618D01*
X38711509Y104728798D01*
X38693475Y104724284D01*
X38676087Y104719075D01*
X38659344Y104713172D01*
X38643246Y104706573D01*
X38627793Y104699281D01*
X38612984Y104691294D01*
X38598821Y104682612D01*
X38585302Y104673236D01*
X38572428Y104663165D01*
X38560200Y104652400D01*
X38548281Y104641387D01*
X38537131Y104629778D01*
X38526750Y104617574D01*
X38517139Y104604775D01*
X38508296Y104591381D01*
X38500222Y104577391D01*
X38492917Y104562806D01*
X38486381Y104547625D01*
X38480614Y104531849D01*
X38475616Y104515478D01*
X38471386Y104498512D01*
X38467926Y104480950D01*
X38465235Y104462793D01*
X38463312Y104444041D01*
X38462159Y104424693D01*
X38461775Y104404750D01*
X38461775Y104230125D01*
X39001525Y104230125D01*
X39034825Y104229579D01*
X39067257Y104227942D01*
X39098821Y104225214D01*
X39129517Y104221394D01*
X39159344Y104216483D01*
X39188304Y104210480D01*
X39216395Y104203386D01*
X39243618Y104195200D01*
X39269974Y104185923D01*
X39295460Y104175555D01*
X39320079Y104164095D01*
X39343830Y104151544D01*
X39366712Y104137901D01*
X39388726Y104123167D01*
X39409872Y104107342D01*
X39430150Y104090425D01*
X39449373Y104072553D01*
X39467357Y104053863D01*
X39484100Y104034354D01*
X39499603Y104014027D01*
X39513865Y103992881D01*
X39526888Y103970916D01*
X39538670Y103948133D01*
X39549212Y103924531D01*
X39558514Y103900111D01*
X39566575Y103874872D01*
X39573396Y103848815D01*
X39578978Y103821939D01*
X39583318Y103794245D01*
X39586419Y103765732D01*
X39588279Y103736400D01*
X39588573Y103722125D01*
X39588899Y103706250D01*
G37*
G36*
X19881119Y96521762D02*
G01*
X19917867Y96520200D01*
X19953449Y96517595D01*
X19987866Y96513949D01*
X20021117Y96509261D01*
X20053202Y96503531D01*
X20084121Y96496759D01*
X20113874Y96488946D01*
X20142461Y96480091D01*
X20169883Y96470194D01*
X20196138Y96459255D01*
X20221228Y96447274D01*
X20245153Y96434252D01*
X20267911Y96420188D01*
X20289504Y96405082D01*
X20309931Y96388934D01*
X20328770Y96372228D01*
X20346393Y96354654D01*
X20362801Y96336211D01*
X20377994Y96316901D01*
X20391972Y96296722D01*
X20404734Y96275676D01*
X20416280Y96253761D01*
X20426611Y96230977D01*
X20435727Y96207326D01*
X20443627Y96182807D01*
X20450312Y96157419D01*
X20455782Y96131163D01*
X20460036Y96104039D01*
X20463074Y96076047D01*
X20464898Y96047187D01*
X20465505Y96017459D01*
X20464997Y95989318D01*
X20463471Y95962045D01*
X20460929Y95935641D01*
X20457369Y95910104D01*
X20452793Y95885436D01*
X20447199Y95861636D01*
X20440589Y95838704D01*
X20432961Y95816641D01*
X20424317Y95795445D01*
X20414656Y95775117D01*
X20403977Y95755658D01*
X20392282Y95737067D01*
X20379570Y95719344D01*
X20365840Y95702489D01*
X20351094Y95686502D01*
X20335331Y95671384D01*
X20318092Y95657369D01*
X20299711Y95643900D01*
X20280190Y95630977D01*
X20259528Y95618599D01*
X20237725Y95606768D01*
X20214780Y95595482D01*
X20190695Y95584741D01*
X20165469Y95574546D01*
X20139101Y95564897D01*
X20111593Y95555794D01*
X20082943Y95547237D01*
X20053153Y95539225D01*
X20022221Y95531758D01*
X19990149Y95524838D01*
X19956935Y95518463D01*
X19922580Y95512634D01*
X19697155Y95477709D01*
X19679965Y95475167D01*
X19663321Y95472302D01*
X19647223Y95469114D01*
X19631670Y95465605D01*
X19616663Y95461772D01*
X19602202Y95457617D01*
X19588287Y95453140D01*
X19574917Y95448340D01*
X19562093Y95443218D01*
X19549815Y95437773D01*
X19538082Y95432006D01*
X19526895Y95425917D01*
X19516254Y95419505D01*
X19506158Y95412770D01*
X19496608Y95405713D01*
X19487604Y95398334D01*
X19478761Y95391017D01*
X19470489Y95383352D01*
X19462787Y95375340D01*
X19455656Y95366981D01*
X19449095Y95358274D01*
X19443105Y95349221D01*
X19437685Y95339820D01*
X19432836Y95330071D01*
X19428558Y95319976D01*
X19424850Y95309533D01*
X19421712Y95298743D01*
X19419145Y95287606D01*
X19417148Y95276121D01*
X19415722Y95264289D01*
X19414866Y95252110D01*
X19414581Y95239584D01*
X19414891Y95226648D01*
X19415821Y95214035D01*
X19417372Y95201744D01*
X19419542Y95189776D01*
X19422333Y95178130D01*
X19425743Y95166807D01*
X19429774Y95155806D01*
X19434425Y95145128D01*
X19439696Y95134772D01*
X19445587Y95124738D01*
X19452098Y95115027D01*
X19459229Y95105639D01*
X19466981Y95096573D01*
X19475352Y95087829D01*
X19484344Y95079408D01*
X19493955Y95071310D01*
X19504175Y95063620D01*
X19514990Y95056427D01*
X19526400Y95049729D01*
X19538406Y95043528D01*
X19551006Y95037823D01*
X19564203Y95032614D01*
X19577994Y95027901D01*
X19592381Y95023684D01*
X19607362Y95019963D01*
X19622940Y95016739D01*
X19639112Y95014010D01*
X19655880Y95011778D01*
X19673243Y95010042D01*
X19691202Y95008801D01*
X19709755Y95008057D01*
X19728904Y95007809D01*
X19865431Y95007809D01*
X19881504Y95008008D01*
X19897180Y95008603D01*
X19912460Y95009595D01*
X19927343Y95010984D01*
X19941829Y95012770D01*
X19955918Y95014953D01*
X19969610Y95017532D01*
X19982905Y95020509D01*
X19995804Y95023882D01*
X20008305Y95027653D01*
X20020410Y95031820D01*
X20032118Y95036384D01*
X20043428Y95041345D01*
X20054342Y95046703D01*
X20064859Y95052458D01*
X20074980Y95058610D01*
X20084641Y95065480D01*
X20093782Y95072599D01*
X20102401Y95079966D01*
X20110500Y95087581D01*
X20118078Y95095444D01*
X20125135Y95103555D01*
X20131671Y95111914D01*
X20137686Y95120522D01*
X20143180Y95129377D01*
X20148154Y95138480D01*
X20152606Y95147832D01*
X20156538Y95157431D01*
X20159948Y95167279D01*
X20162838Y95177374D01*
X20165207Y95187718D01*
X20167055Y95198310D01*
X20509956Y95198310D01*
X20508108Y95180202D01*
X20505739Y95162392D01*
X20502849Y95144880D01*
X20499438Y95127666D01*
X20495506Y95110749D01*
X20491054Y95094130D01*
X20486080Y95077808D01*
X20480586Y95061784D01*
X20474571Y95046058D01*
X20468035Y95030629D01*
X20460978Y95015499D01*
X20453400Y95000665D01*
X20445302Y94986130D01*
X20436682Y94971892D01*
X20427542Y94957952D01*
X20417881Y94944309D01*
X20407339Y94931386D01*
X20396350Y94918810D01*
X20384915Y94906581D01*
X20373034Y94894700D01*
X20360706Y94883165D01*
X20347931Y94871978D01*
X20334710Y94861139D01*
X20321043Y94850646D01*
X20306929Y94840501D01*
X20292369Y94830703D01*
X20277362Y94821253D01*
X20261908Y94812150D01*
X20246009Y94803394D01*
X20229662Y94794985D01*
X20212870Y94786924D01*
X20195631Y94779210D01*
X20177598Y94771905D01*
X20159217Y94765071D01*
X20140489Y94758708D01*
X20121414Y94752817D01*
X20101992Y94747397D01*
X20082223Y94742449D01*
X20062106Y94737971D01*
X20041642Y94733965D01*
X20020831Y94730431D01*
X19999673Y94727367D01*
X19978167Y94724775D01*
X19956314Y94722654D01*
X19934114Y94721005D01*
X19911567Y94719827D01*
X19888672Y94719120D01*
X19865431Y94718884D01*
X19728904Y94718884D01*
X19689056Y94719430D01*
X19650472Y94721067D01*
X19613153Y94723795D01*
X19577100Y94727615D01*
X19542311Y94732527D01*
X19508788Y94738529D01*
X19476529Y94745623D01*
X19445536Y94753809D01*
X19415808Y94763086D01*
X19387344Y94773454D01*
X19360146Y94784914D01*
X19334213Y94797465D01*
X19309545Y94811108D01*
X19286142Y94825842D01*
X19264004Y94841667D01*
X19243131Y94858584D01*
X19223139Y94876481D01*
X19204436Y94895245D01*
X19187023Y94914878D01*
X19170900Y94935379D01*
X19156067Y94956748D01*
X19142523Y94978986D01*
X19130270Y95002091D01*
X19119306Y95026065D01*
X19109632Y95050907D01*
X19101248Y95076617D01*
X19094154Y95103195D01*
X19088350Y95130641D01*
X19083836Y95158956D01*
X19080611Y95188139D01*
X19078676Y95218190D01*
X19078031Y95249109D01*
X19078577Y95277647D01*
X19080214Y95305316D01*
X19082943Y95332118D01*
X19086762Y95358051D01*
X19091674Y95383116D01*
X19097676Y95407313D01*
X19104771Y95430642D01*
X19112956Y95453102D01*
X19122233Y95474695D01*
X19132601Y95495419D01*
X19144061Y95515275D01*
X19156612Y95534263D01*
X19170255Y95552383D01*
X19184989Y95569635D01*
X19200814Y95586018D01*
X19217731Y95601534D01*
X19235417Y95616689D01*
X19254343Y95631200D01*
X19274509Y95645066D01*
X19295916Y95658287D01*
X19318562Y95670863D01*
X19342449Y95682794D01*
X19367576Y95694080D01*
X19393944Y95704721D01*
X19421551Y95714718D01*
X19450399Y95724069D01*
X19480487Y95732775D01*
X19511816Y95740837D01*
X19544384Y95748253D01*
X19578193Y95755025D01*
X19613243Y95761152D01*
X19649532Y95766634D01*
X19881305Y95804734D01*
X19896920Y95807227D01*
X19912014Y95809943D01*
X19926587Y95812882D01*
X19940638Y95816045D01*
X19954169Y95819431D01*
X19967180Y95823040D01*
X19979669Y95826872D01*
X19991637Y95830928D01*
X20003084Y95835207D01*
X20014011Y95839709D01*
X20024417Y95844434D01*
X20034301Y95849383D01*
X20043665Y95854554D01*
X20052508Y95859949D01*
X20060831Y95865568D01*
X20068632Y95871409D01*
X20075937Y95877548D01*
X20082770Y95884059D01*
X20089133Y95890943D01*
X20095024Y95898198D01*
X20100444Y95905825D01*
X20105392Y95913825D01*
X20109869Y95922196D01*
X20113875Y95930940D01*
X20117409Y95940056D01*
X20120473Y95949543D01*
X20123065Y95959403D01*
X20125185Y95969635D01*
X20126835Y95980239D01*
X20128013Y95991215D01*
X20128720Y96002564D01*
X20128956Y96014284D01*
X20128695Y96027567D01*
X20127914Y96040428D01*
X20126612Y96052868D01*
X20124789Y96064885D01*
X20122445Y96076482D01*
X20119580Y96087656D01*
X20116194Y96098409D01*
X20112287Y96108740D01*
X20107859Y96118650D01*
X20102911Y96128137D01*
X20097441Y96137203D01*
X20091451Y96145848D01*
X20084940Y96154071D01*
X20077908Y96161872D01*
X20070354Y96169251D01*
X20062280Y96176209D01*
X20053239Y96183130D01*
X20043577Y96189604D01*
X20033296Y96195631D01*
X20022394Y96201212D01*
X20010872Y96206347D01*
X19998730Y96211035D01*
X19985968Y96215277D01*
X19972586Y96219072D01*
X19958583Y96222420D01*
X19943961Y96225322D01*
X19928719Y96227778D01*
X19912856Y96229787D01*
X19896373Y96231350D01*
X19879270Y96232466D01*
X19861547Y96233136D01*
X19843204Y96233359D01*
X19722555Y96233359D01*
X19707288Y96233173D01*
X19692442Y96232615D01*
X19678018Y96231685D01*
X19664016Y96230382D01*
X19650435Y96228708D01*
X19637277Y96226661D01*
X19624539Y96224243D01*
X19612224Y96221452D01*
X19600330Y96218290D01*
X19588858Y96214755D01*
X19577808Y96210848D01*
X19567179Y96206569D01*
X19556972Y96201918D01*
X19547186Y96196896D01*
X19537823Y96191501D01*
X19528881Y96185733D01*
X19519988Y96179669D01*
X19511567Y96173381D01*
X19503617Y96166870D01*
X19496138Y96160135D01*
X19489130Y96153177D01*
X19482594Y96145997D01*
X19476530Y96138592D01*
X19470936Y96130965D01*
X19465814Y96123114D01*
X19461163Y96115041D01*
X19456984Y96106743D01*
X19453275Y96098223D01*
X19450038Y96089479D01*
X19447273Y96080513D01*
X19444978Y96071323D01*
X19443155Y96061909D01*
X19100256Y96061909D01*
X19103592Y96087768D01*
X19108044Y96112957D01*
X19113613Y96137477D01*
X19120298Y96161326D01*
X19128099Y96184506D01*
X19137016Y96207016D01*
X19147049Y96228857D01*
X19158199Y96250028D01*
X19170465Y96270529D01*
X19183847Y96290360D01*
X19198345Y96309521D01*
X19213960Y96328013D01*
X19230690Y96345835D01*
X19248537Y96362988D01*
X19267501Y96379470D01*
X19287580Y96395283D01*
X19308255Y96410662D01*
X19329798Y96425049D01*
X19352209Y96438444D01*
X19375488Y96450846D01*
X19399635Y96462256D01*
X19424651Y96472674D01*
X19450535Y96482100D01*
X19477286Y96490533D01*
X19504906Y96497975D01*
X19533394Y96504424D01*
X19562751Y96509881D01*
X19592975Y96514346D01*
X19624068Y96517818D01*
X19656029Y96520299D01*
X19688858Y96521787D01*
X19722555Y96522283D01*
X19843204Y96522283D01*
X19881119Y96521762D01*
G37*
D11*
X19958020Y70749962D02*
X19958020Y72083296D01*
X19958020Y71702343D02*
X19862782Y71892820D01*
X19862782Y71892820D02*
X19767544Y71988058D01*
X19767544Y71988058D02*
X19577068Y72083296D01*
X19577068Y72083296D02*
X19386591Y72083296D01*
X17958020Y70845200D02*
X18148496Y70749962D01*
X18148496Y70749962D02*
X18529449Y70749962D01*
X18529449Y70749962D02*
X18719925Y70845200D01*
X18719925Y70845200D02*
X18815163Y71035677D01*
X18815163Y71035677D02*
X18815163Y71797581D01*
X18815163Y71797581D02*
X18719925Y71988058D01*
X18719925Y71988058D02*
X18529449Y72083296D01*
X18529449Y72083296D02*
X18148496Y72083296D01*
X18148496Y72083296D02*
X17958020Y71988058D01*
X17958020Y71988058D02*
X17862782Y71797581D01*
X17862782Y71797581D02*
X17862782Y71607105D01*
X17862782Y71607105D02*
X18815163Y71416629D01*
X17196115Y72083296D02*
X16719925Y70749962D01*
X16719925Y70749962D02*
X16243734Y72083296D01*
X13291352Y71797581D02*
X13005638Y71702343D01*
X13005638Y71702343D02*
X12910400Y71607105D01*
X12910400Y71607105D02*
X12815162Y71416629D01*
X12815162Y71416629D02*
X12815162Y71130915D01*
X12815162Y71130915D02*
X12910400Y70940439D01*
X12910400Y70940439D02*
X13005638Y70845200D01*
X13005638Y70845200D02*
X13196114Y70749962D01*
X13196114Y70749962D02*
X13958019Y70749962D01*
X13958019Y70749962D02*
X13958019Y72749962D01*
X13958019Y72749962D02*
X13291352Y72749962D01*
X13291352Y72749962D02*
X13100876Y72654724D01*
X13100876Y72654724D02*
X13005638Y72559486D01*
X13005638Y72559486D02*
X12910400Y72369010D01*
X12910400Y72369010D02*
X12910400Y72178534D01*
X12910400Y72178534D02*
X13005638Y71988058D01*
X13005638Y71988058D02*
X13100876Y71892820D01*
X13100876Y71892820D02*
X13291352Y71797581D01*
X13291352Y71797581D02*
X13958019Y71797581D01*
%LPC*%
D12*
%TO.C,MB2*%
X45000000Y37300000D03*
X45000000Y34700000D03*
X46000000Y37300000D03*
X46000000Y34700000D03*
X47000000Y37300000D03*
X47000000Y34700000D03*
X48000000Y37300000D03*
X48000000Y34700000D03*
X49000000Y37300000D03*
X49000000Y34700000D03*
X50000000Y37300000D03*
X50000000Y34700000D03*
X51000000Y37300000D03*
X51000000Y34700000D03*
%TD*%
D13*
%TO.C,J4*%
X24920000Y41000000D03*
D14*
X27460000Y41000000D03*
X30000000Y41000000D03*
X32540000Y41000000D03*
X35080000Y41000000D03*
%TD*%
D13*
%TO.C,J3*%
X19840000Y2500000D03*
D14*
X22380000Y2500000D03*
X24920000Y2500000D03*
X27460000Y2500000D03*
X30000000Y2500000D03*
X32540000Y2500000D03*
X35080000Y2500000D03*
X37620000Y2500000D03*
X40160000Y2500000D03*
%TD*%
D15*
%TO.C,J1*%
X6000000Y51000000D03*
X6000000Y45220000D03*
D16*
X6500000Y52430000D03*
D17*
X2320000Y52430000D03*
D16*
X6500000Y43790000D03*
D17*
X2320000Y43790000D03*
%TD*%
D13*
%TO.C,J5*%
X24920000Y30000000D03*
D14*
X27460000Y30000000D03*
X30000000Y30000000D03*
X32540000Y30000000D03*
X35080000Y30000000D03*
%TD*%
D12*
%TO.C,MB1*%
X9000000Y37300000D03*
X9000000Y34700000D03*
X10000000Y37300000D03*
X10000000Y34700000D03*
X11000000Y37300000D03*
X11000000Y34700000D03*
X12000000Y37300000D03*
X12000000Y34700000D03*
X13000000Y37300000D03*
X13000000Y34700000D03*
X14000000Y37300000D03*
X14000000Y34700000D03*
X15000000Y37300000D03*
X15000000Y34700000D03*
%TD*%
D18*
X39050000Y58000000D03*
X37687500Y43889000D03*
X1850000Y87500000D03*
X15850000Y89800000D03*
X21000000Y92100000D03*
X41467200Y64201600D03*
X20100000Y95980000D03*
X14945900Y17321000D03*
X17400000Y98750000D03*
X21000000Y63750000D03*
X19303800Y11552000D03*
X50670000Y66970400D03*
X50700000Y63952100D03*
X54714000Y70039100D03*
X6000000Y39000000D03*
X50000000Y19000000D03*
X34000000Y23000000D03*
X46000000Y3000000D03*
X58000000Y15000000D03*
X52600000Y65500000D03*
X54000000Y19000000D03*
X50000000Y3000000D03*
X45700000Y52900000D03*
X2000000Y19000000D03*
X38000000Y19000000D03*
X54000000Y31000000D03*
X54000000Y107000000D03*
X46000000Y59000000D03*
X42000000Y15000000D03*
X10000000Y11000000D03*
X58000000Y7000000D03*
X30000000Y23000000D03*
X28890300Y87312500D03*
X50000000Y7000000D03*
X2000000Y47000000D03*
X30000000Y19000000D03*
X10425000Y43500000D03*
X52725000Y69275000D03*
X43475000Y43025000D03*
X38000000Y15000000D03*
X38000000Y23000000D03*
X58000000Y31000000D03*
X10000000Y23000000D03*
X29620500Y79579200D03*
X2275000Y95050000D03*
X15950000Y85650000D03*
X38000000Y31000000D03*
X18725000Y49550000D03*
X27550000Y50500000D03*
X46000000Y15000000D03*
X2000000Y23000000D03*
X32850000Y79500000D03*
X42000000Y7000000D03*
X22000000Y27000000D03*
X8650000Y48100000D03*
X58000000Y23000000D03*
X52025000Y40275000D03*
X6600000Y73300000D03*
X14000000Y23000000D03*
X6000000Y3000000D03*
X30650000Y79500000D03*
X18225000Y46875000D03*
X2000000Y63000000D03*
X22000000Y15000000D03*
X4800000Y87000000D03*
X58000000Y103000000D03*
X2000000Y55000000D03*
X58000000Y99000000D03*
X50000000Y27000000D03*
X42000000Y11000000D03*
X46000000Y23000000D03*
X48825000Y40275000D03*
X2000000Y27000000D03*
X26000000Y11000000D03*
X15300000Y91600000D03*
X14000000Y27000000D03*
X6425000Y96775000D03*
X58000000Y39000000D03*
X38000000Y7000000D03*
X26310200Y78685200D03*
X31121600Y88861800D03*
X10400000Y55000000D03*
X38000000Y11000000D03*
X18900000Y21500000D03*
X2000000Y39000000D03*
X54000000Y59000000D03*
X54000000Y99000000D03*
X55100000Y82700000D03*
X3925000Y7460000D03*
X58000000Y91000000D03*
X46000000Y31000000D03*
X37100000Y45650000D03*
X50000000Y11000000D03*
X13225000Y45575000D03*
X6000000Y23000000D03*
X13300000Y62750000D03*
X46000000Y27000000D03*
X18000000Y31000000D03*
X55100000Y77700000D03*
X6000000Y103000000D03*
X3925000Y16350000D03*
X41350000Y79500000D03*
X10000000Y7000000D03*
X34000000Y19000000D03*
X46000000Y19000000D03*
X8200000Y51310000D03*
X58000000Y87000000D03*
X3925000Y15080000D03*
X14000000Y31000000D03*
X54000000Y3000000D03*
X10000000Y27000000D03*
X18000000Y27000000D03*
X54000000Y91000000D03*
X2000000Y3000000D03*
X46000000Y7000000D03*
X3925000Y13810000D03*
X54000000Y7000000D03*
X6000000Y31000000D03*
X18625000Y19050000D03*
X32525000Y48100000D03*
X42000000Y23000000D03*
X10000000Y63000000D03*
X10000000Y15000000D03*
X23550000Y49350000D03*
X58000000Y19000000D03*
X26000000Y19000000D03*
X40900000Y62560000D03*
X34000000Y11000000D03*
X13425000Y58500000D03*
X54000000Y23000000D03*
X54000000Y47000000D03*
X52725000Y40825000D03*
X42000000Y51000000D03*
X50511000Y40766000D03*
X34000000Y15000000D03*
X54000000Y15000000D03*
X54000000Y103000000D03*
X54000000Y87000000D03*
X58000000Y83000000D03*
X54000000Y27000000D03*
X10000000Y31000000D03*
X46000000Y11000000D03*
X54000000Y55000000D03*
X36450000Y49300000D03*
X58000000Y27000000D03*
X10000000Y19000000D03*
X38000000Y27000000D03*
X21120500Y76000100D03*
X8800000Y91600000D03*
X50000000Y31000000D03*
X3900000Y60100000D03*
X2000000Y103000000D03*
X22000000Y11000000D03*
X58000000Y3000000D03*
X2000000Y11000000D03*
X16500000Y60275000D03*
X6000000Y107000000D03*
X24275000Y46550000D03*
X30000000Y11000000D03*
X2000000Y67000000D03*
X14000000Y3000000D03*
X46000000Y47000000D03*
X42000000Y19000000D03*
X43225000Y67525000D03*
X58000000Y107000000D03*
X42000000Y27000000D03*
X2200000Y77450000D03*
X53475000Y73548400D03*
X54000000Y51000000D03*
X50000000Y23000000D03*
X18350000Y51750000D03*
X58000000Y11000000D03*
X6000000Y19000000D03*
X2000000Y31000000D03*
X50000000Y15000000D03*
X58000000Y95000000D03*
X37875000Y43000000D03*
X6550000Y66750000D03*
X34000000Y27000000D03*
X47400000Y64800000D03*
X6000000Y27000000D03*
X33150000Y46600000D03*
X30750000Y50700000D03*
X39150000Y79500000D03*
X30000000Y55000000D03*
X22000000Y31000000D03*
X34000000Y7050000D03*
X11825000Y51250000D03*
X41150000Y42150000D03*
X8200000Y44910000D03*
X42000000Y31000000D03*
X54000000Y95000000D03*
X30000000Y15000000D03*
X26000000Y15000000D03*
X54000000Y11000000D03*
X28375000Y46450000D03*
X2000000Y107000000D03*
X872200Y72327900D03*
X4950000Y78800000D03*
X8700000Y78850000D03*
X3562500Y90164800D03*
X18883300Y86200000D03*
X21050000Y43450000D03*
X8800000Y90650000D03*
X22647500Y90900000D03*
X19741200Y55700000D03*
X15300000Y90650000D03*
X31400000Y98800000D03*
X28050000Y65850000D03*
X16250000Y42734000D03*
X17900000Y54800000D03*
X12195900Y58500000D03*
X12501400Y43070000D03*
X29208500Y47786000D03*
X6843500Y67606900D03*
X50900000Y61295300D03*
X15200000Y88950000D03*
X20100000Y96920000D03*
X8850000Y88950000D03*
X19051100Y88724600D03*
X19325000Y16533000D03*
X30200000Y48001000D03*
X16000000Y88000000D03*
X49400000Y61301700D03*
X21000000Y47048000D03*
X8750000Y87950000D03*
X20145500Y19461000D03*
X6673400Y57028000D03*
X18650000Y92200000D03*
X16050000Y84750000D03*
X42613200Y43380000D03*
X16765200Y11871000D03*
X24122300Y80423800D03*
X27347500Y90900000D03*
X23000000Y88250000D03*
X25000000Y86350000D03*
X8688900Y75148600D03*
X24750000Y50654000D03*
X15400000Y49750000D03*
X13867400Y42246000D03*
X5900000Y49450000D03*
X45500000Y40674800D03*
X14239600Y46602400D03*
X8204000Y50397000D03*
X28187500Y100700000D03*
X31400000Y97860000D03*
X31400000Y96920000D03*
X35292300Y91407700D03*
X32867100Y56256000D03*
X27100500Y42744000D03*
X33750000Y50682000D03*
X36458700Y41307000D03*
X52250000Y43800000D03*
X40783600Y43482000D03*
X13795700Y53170000D03*
X51050000Y43400000D03*
X8310800Y57039000D03*
X16562500Y53750000D03*
X14637500Y60309200D03*
X13105500Y56731000D03*
X16503500Y55982000D03*
X32050000Y90800000D03*
X31400000Y99740000D03*
X6916100Y11871000D03*
X6892100Y10625000D03*
X6897800Y9381000D03*
X7116800Y8061000D03*
X14800000Y6575000D03*
X16217500Y8061000D03*
X16201100Y9381000D03*
X41100000Y61400000D03*
X56655000Y71456100D03*
X38943400Y66068400D03*
X3562500Y97815900D03*
X6014300Y54155000D03*
X49400000Y46420000D03*
X8288300Y95963300D03*
X21776400Y79721100D03*
X25800000Y87150000D03*
X26050000Y102200000D03*
X30300000Y93350000D03*
X24527500Y90900000D03*
X27600000Y87500000D03*
X28287500Y90900000D03*
X33950000Y86594000D03*
X20100000Y98800000D03*
X18600000Y98150000D03*
X20100000Y94100000D03*
X15250000Y87250000D03*
X47900000Y63932500D03*
X8155200Y65868000D03*
X15300000Y86350000D03*
X23000000Y87310200D03*
X8800000Y86350000D03*
X21576000Y74801000D03*
X46229400Y63922000D03*
X23750000Y83100000D03*
X25467500Y90900000D03*
X23878900Y75225800D03*
X27687500Y86012500D03*
X29227500Y90900000D03*
X22044100Y83844100D03*
X30400000Y92400000D03*
X30082500Y87068800D03*
X21779100Y45184000D03*
X26581400Y48079000D03*
X47950000Y40700000D03*
X15300000Y45450000D03*
X46550000Y40700000D03*
X13200000Y49700000D03*
X40702300Y66077300D03*
X44900000Y63916100D03*
X31350000Y63550000D03*
X33150000Y65600000D03*
X50970000Y46440000D03*
X40798300Y58586000D03*
%LPD*%
M02*
