M48
; DRILL file KiCad 10.0.6 date 2026-10-08T21:59:24
; FORMAT={-:-/ absolute / metric / decimal}
; #@! TF.CreationDate,2026-10-08T21:59:24+02:00
; #@! TF.GenerationSoftware,Kicad,Pcbnew,10.0.6
; #@! TF.FileFunction,Plated,1,4,PTH
FMAT,2
METRIC
; #@! TA.AperFunction,Plated,PTH,ViaDrill
T1C0.200
; #@! TA.AperFunction,Plated,PTH,ViaDrill
T2C0.300
; #@! TA.AperFunction,Plated,PTH,ComponentDrill
T3C0.400
; #@! TA.AperFunction,Plated,PTH,ComponentDrill
T4C0.700
; #@! TA.AperFunction,Plated,PTH,ComponentDrill
T5C1.000
%
G90
G05
T1
X19.8Y89.225
X21.4Y90.0
X22.0Y89.4
X22.1Y90.5
X24.188Y86.612
X25.188Y86.612
X25.688Y86.013
X26.188Y86.612
X26.688Y86.013
X27.188Y86.612
X27.688Y86.013
X29.775Y88.5
X29.85Y91.35
X30.0Y90.7
T2
X0.872Y72.328
X1.0Y64.2
X1.0Y54.0
X2.0Y103.0
X2.0Y67.0
X2.0Y47.0
X2.0Y31.0
X2.0Y27.0
X2.0Y23.0
X2.0Y19.0
X2.0Y11.0
X2.2Y77.45
X2.275Y95.05
X3.562Y97.816
X3.562Y90.165
X3.925Y16.35
X3.925Y15.08
X3.925Y13.81
X3.925Y7.46
X4.8Y87.0
X4.95Y78.8
X5.9Y49.45
X6.0Y103.0
X6.0Y31.0
X6.0Y27.0
X6.0Y23.0
X6.0Y19.0
X6.014Y54.155
X6.425Y96.775
X6.55Y66.75
X6.6Y73.3
X6.673Y56.0
X6.843Y67.607
X6.892Y10.625
X6.898Y9.381
X6.916Y11.871
X7.117Y8.061
X8.155Y65.868
X8.2Y51.31
X8.2Y44.91
X8.204Y50.397
X8.288Y95.963
X8.3Y57.6
X8.4Y58.6
X8.65Y48.1
X8.689Y75.149
X8.7Y78.85
X8.75Y87.95
X8.8Y91.6
X8.8Y90.65
X8.8Y86.35
X10.0Y63.0
X10.0Y31.0
X10.0Y27.0
X10.0Y23.0
X10.0Y19.0
X10.0Y15.0
X10.0Y11.0
X10.0Y7.0
X10.4Y55.0
X10.425Y43.5
X11.825Y51.25
X12.196Y58.5
X12.25Y47.25
X12.501Y43.07
X13.105Y56.731
X13.2Y49.7
X13.225Y45.575
X13.3Y62.75
X13.425Y58.5
X13.796Y53.17
X13.867Y42.246
X14.0Y31.0
X14.0Y27.0
X14.0Y23.0
X14.0Y3.0
X14.24Y46.602
X14.637Y60.309
X14.8Y6.575
X14.946Y17.321
X15.3Y91.6
X15.3Y90.65
X15.3Y89.75
X15.3Y88.9
X15.3Y88.05
X15.3Y87.2
X15.3Y86.35
X15.3Y45.45
X15.4Y49.75
X16.201Y9.381
X16.217Y8.061
X16.25Y42.734
X16.5Y60.275
X16.503Y55.982
X16.562Y53.75
X16.765Y11.871
X17.25Y48.1
X17.9Y54.8
X18.0Y31.0
X18.0Y27.0
X18.225Y46.875
X18.35Y51.75
X18.625Y19.05
X18.725Y49.55
X18.883Y85.225
X18.9Y21.5
X19.101Y88.675
X19.304Y11.552
X19.325Y16.533
X19.741Y55.7
X20.145Y19.461
X20.2Y93.853
X20.51Y91.769
X20.695Y87.736
X21.0Y63.75
X21.0Y47.048
X21.05Y43.45
X21.12Y76.0
X21.576Y74.751
X21.772Y96.453
X21.776Y79.721
X21.779Y45.184
X22.0Y31.0
X22.0Y27.0
X22.0Y15.0
X22.0Y11.0
X22.044Y83.894
X22.06Y88.594
X22.8Y58.7
X23.0Y87.36
X23.25Y43.5
X23.55Y49.35
X23.671Y82.678
X23.879Y75.176
X24.172Y80.474
X24.275Y46.55
X24.75Y50.75
X25.75Y43.0
X25.899Y95.951
X26.0Y19.0
X26.0Y15.0
X26.0Y11.0
X26.31Y78.735
X26.75Y50.5
X27.25Y42.75
X28.05Y65.85
X28.25Y48.0
X28.349Y96.333
X28.375Y46.45
X28.84Y87.312
X29.208Y47.786
X29.62Y79.579
X30.0Y55.0
X30.0Y23.0
X30.0Y19.0
X30.0Y15.0
X30.0Y11.0
X30.133Y87.069
X30.2Y48.001
X30.5Y50.5
X31.0Y45.75
X31.25Y48.0
X31.35Y63.55
X31.5Y79.5
X31.75Y51.75
X32.25Y48.0
X32.75Y52.5
X32.867Y56.256
X32.872Y88.912
X33.15Y65.6
X33.15Y46.6
X33.7Y79.5
X33.75Y50.682
X33.75Y41.75
X33.95Y86.644
X34.0Y27.0
X34.0Y23.0
X34.0Y19.0
X34.0Y15.0
X34.0Y11.0
X34.0Y7.05
X34.75Y50.75
X35.342Y91.408
X36.45Y49.3
X36.459Y41.307
X36.75Y48.0
X36.75Y42.25
X37.1Y45.65
X37.688Y43.889
X37.875Y43.0
X38.0Y31.0
X38.0Y27.0
X38.0Y23.0
X38.0Y19.0
X38.0Y15.0
X38.0Y11.0
X38.0Y7.0
X38.943Y66.068
X39.05Y58.0
X39.25Y41.0
X40.0Y79.5
X40.702Y66.077
X40.784Y43.482
X40.798Y58.586
X40.9Y62.56
X41.1Y61.4
X41.15Y42.15
X41.467Y64.202
X41.7Y54.6
X42.0Y51.0
X42.0Y31.0
X42.0Y27.0
X42.0Y23.0
X42.0Y19.0
X42.0Y15.0
X42.0Y11.0
X42.0Y7.0
X42.2Y79.5
X42.613Y43.38
X43.1Y48.2
X43.2Y50.7
X43.225Y67.525
X43.55Y74.15
X44.9Y63.916
X45.0Y57.9
X45.0Y43.25
X45.1Y51.3
X45.25Y93.9
X45.4Y53.8
X45.7Y56.1
X45.7Y55.1
X45.7Y52.9
X45.9Y38.9
X46.0Y31.0
X46.0Y27.0
X46.0Y23.0
X46.0Y19.0
X46.0Y15.0
X46.0Y11.0
X46.0Y7.0
X46.0Y3.0
X46.229Y63.922
X46.55Y40.7
X46.8Y57.2
X47.4Y64.8
X47.5Y39.25
X47.9Y63.932
X49.1Y57.2
X49.4Y46.42
X49.9Y57.7
X50.0Y41.75
X50.0Y31.0
X50.0Y27.0
X50.0Y23.0
X50.0Y19.0
X50.0Y15.0
X50.0Y11.0
X50.0Y7.0
X50.0Y3.0
X50.67Y66.97
X50.7Y63.952
X50.9Y61.295
X50.9Y41.65
X50.97Y46.44
X51.05Y43.4
X52.25Y41.35
X52.6Y65.5
X52.8Y56.5
X53.2Y46.5
X53.475Y73.548
X54.0Y103.0
X54.0Y99.0
X54.0Y95.0
X54.0Y91.0
X54.0Y87.0
X54.0Y31.0
X54.0Y27.0
X54.0Y23.0
X54.0Y19.0
X54.0Y15.0
X54.0Y11.0
X54.0Y7.0
X54.714Y70.039
X55.1Y82.7
X55.1Y77.7
X56.655Y71.456
X58.0Y103.0
X58.0Y99.0
X58.0Y95.0
X58.0Y91.0
X58.0Y87.0
X58.0Y83.0
X58.0Y31.0
X58.0Y27.0
X58.0Y23.0
X58.0Y19.0
X58.0Y15.0
X58.0Y11.0
X58.0Y7.0
T3
X45.25Y90.5
X51.35Y90.5
T5
X19.84Y2.5
X22.38Y2.5
X24.92Y41.0
X24.92Y30.0
X24.92Y2.5
X27.46Y41.0
X27.46Y30.0
X27.46Y2.5
X30.0Y41.0
X30.0Y30.0
X30.0Y2.5
X32.54Y41.0
X32.54Y30.0
X32.54Y2.5
X35.08Y41.0
X35.08Y30.0
X35.08Y2.5
X37.62Y2.5
X40.16Y2.5
T4
G00X2.67Y52.43
M15
G01X1.97Y52.43
M16
G05
G00X2.67Y43.79
M15
G01X1.97Y43.79
M16
G05
G00X7.0Y52.43
M15
G01X6.0Y52.43
M16
G05
G00X7.0Y43.79
M15
G01X6.0Y43.79
M16
G05
M30
