M48
; DRILL file KiCad 10.0.6 date 2026-09-21T20:23:55
; FORMAT={-:-/ absolute / metric / decimal}
; #@! TF.CreationDate,2026-09-21T20:23:55+02:00
; #@! TF.GenerationSoftware,Kicad,Pcbnew,10.0.6
; #@! TF.FileFunction,Plated,1,4,PTH
FMAT,2
METRIC
; #@! TA.AperFunction,Plated,PTH,ViaDrill
T1C0.200
; #@! TA.AperFunction,Plated,PTH,ComponentDrill
T2C0.200
; #@! TA.AperFunction,Plated,PTH,ViaDrill
T3C0.300
; #@! TA.AperFunction,Plated,PTH,ComponentDrill
T4C0.400
; #@! TA.AperFunction,Plated,PTH,ComponentDrill
T5C0.600
; #@! TA.AperFunction,Plated,PTH,ComponentDrill
T6C1.000
%
G90
G05
T1
X7.775Y45.71
X15.8Y49.4
X16.562Y53.85
X19.8Y89.225
X20.0Y44.5
X21.4Y90.0
X22.0Y89.4
X22.1Y90.5
X24.188Y86.612
X25.188Y86.612
X25.688Y86.013
X26.188Y86.612
X26.688Y86.013
X27.188Y86.612
X27.688Y86.013
X29.775Y88.5
X29.85Y91.35
X30.0Y90.7
X43.4Y61.91
X51.675Y43.2
T2
X46.6Y53.45
X46.6Y52.35
X47.15Y54.0
X47.15Y52.9
X47.15Y51.8
X47.7Y53.45
X47.7Y52.35
X48.25Y54.0
X48.25Y52.9
X48.25Y51.8
X48.8Y53.45
X48.8Y52.35
T3
X0.822Y72.528
X2.0Y107.0
X2.0Y103.0
X2.0Y67.0
X2.0Y63.0
X2.0Y55.0
X2.0Y47.0
X2.0Y39.0
X2.0Y31.0
X2.0Y27.0
X2.0Y23.0
X2.0Y19.0
X2.0Y11.0
X2.0Y3.0
X2.15Y77.0
X2.275Y95.05
X2.651Y88.626
X3.562Y97.766
X3.562Y90.165
X3.925Y16.35
X3.925Y15.08
X3.925Y13.81
X3.925Y7.46
X3.95Y60.1
X4.85Y87.0
X6.0Y107.0
X6.0Y103.0
X6.0Y39.0
X6.0Y31.0
X6.0Y27.0
X6.0Y23.0
X6.0Y19.0
X6.0Y3.0
X6.014Y54.155
X6.335Y68.287
X6.475Y96.825
X6.475Y74.325
X6.5Y66.75
X6.673Y57.078
X6.842Y10.625
X6.843Y67.607
X6.848Y9.331
X6.866Y11.871
X7.067Y8.061
X8.105Y65.918
X8.154Y50.397
X8.2Y51.31
X8.2Y44.91
X8.238Y95.913
X8.311Y57.039
X8.639Y75.199
X8.65Y48.0
X8.8Y91.6
X8.8Y90.65
X8.8Y88.9
X8.8Y88.05
X8.8Y86.35
X10.0Y63.0
X10.0Y31.0
X10.0Y27.0
X10.0Y23.0
X10.0Y19.0
X10.0Y15.0
X10.0Y11.0
X10.0Y7.0
X10.4Y55.0
X11.775Y51.25
X11.775Y44.75
X12.196Y58.5
X12.501Y43.07
X13.005Y56.731
X13.2Y49.7
X13.2Y47.35
X13.225Y45.575
X13.35Y62.75
X13.425Y58.5
X13.796Y53.17
X13.867Y42.196
X14.0Y31.0
X14.0Y27.0
X14.0Y23.0
X14.0Y3.0
X14.24Y46.602
X14.637Y60.259
X14.8Y6.625
X14.946Y17.321
X15.3Y91.6
X15.3Y90.65
X15.3Y89.75
X15.3Y88.9
X15.3Y88.05
X15.3Y87.2
X15.3Y86.35
X16.151Y9.331
X16.168Y8.061
X16.25Y42.734
X16.5Y60.275
X16.503Y55.982
X16.765Y11.871
X18.0Y31.0
X18.0Y27.0
X18.07Y54.687
X18.225Y46.825
X18.35Y51.75
X18.4Y60.5
X18.675Y18.5
X18.775Y49.0
X18.883Y85.225
X18.9Y21.5
X19.101Y88.675
X19.304Y11.502
X19.325Y16.483
X19.691Y55.7
X20.095Y19.511
X20.2Y93.853
X20.51Y91.769
X20.695Y87.736
X20.733Y63.468
X21.0Y46.998
X21.12Y76.0
X21.576Y74.751
X21.729Y45.184
X21.772Y96.453
X21.776Y79.721
X22.0Y59.0
X22.0Y31.0
X22.0Y27.0
X22.0Y15.0
X22.0Y11.0
X22.044Y83.894
X22.06Y88.594
X23.0Y87.36
X23.55Y49.3
X23.671Y82.678
X23.879Y75.176
X23.9Y66.1
X24.172Y80.474
X24.275Y46.45
X24.75Y50.654
X25.25Y48.08
X25.899Y95.951
X26.0Y19.0
X26.0Y15.0
X26.0Y11.0
X26.23Y46.486
X26.31Y78.735
X26.581Y48.129
X26.839Y64.964
X27.101Y42.794
X27.15Y62.5
X27.55Y49.3
X28.349Y96.333
X28.525Y45.7
X28.84Y87.312
X29.208Y47.736
X29.62Y79.579
X29.801Y60.713
X30.0Y55.0
X30.0Y23.0
X30.0Y19.0
X30.0Y15.0
X30.0Y11.0
X30.133Y87.069
X30.25Y47.951
X30.75Y50.7
X31.025Y58.275
X31.475Y65.325
X31.5Y79.5
X32.4Y47.45
X32.525Y48.1
X32.867Y56.256
X32.872Y88.912
X33.7Y79.5
X33.75Y50.682
X33.95Y86.644
X34.0Y63.0
X34.0Y27.0
X34.0Y23.0
X34.0Y19.0
X34.0Y15.0
X34.0Y11.0
X34.0Y7.0
X35.342Y91.408
X35.525Y58.775
X35.55Y49.3
X36.425Y56.268
X36.459Y41.307
X36.975Y41.95
X37.1Y45.7
X37.688Y43.939
X38.0Y63.0
X38.0Y31.0
X38.0Y27.0
X38.0Y23.0
X38.0Y19.0
X38.0Y15.0
X38.0Y11.0
X38.0Y7.0
X38.075Y58.275
X38.993Y66.068
X40.0Y79.5
X40.734Y43.432
X40.748Y58.586
X40.752Y66.077
X40.9Y62.61
X41.15Y42.2
X41.467Y64.202
X41.9Y46.37
X42.0Y51.0
X42.0Y31.0
X42.0Y27.0
X42.0Y23.0
X42.0Y19.0
X42.0Y15.0
X42.0Y11.0
X42.0Y7.0
X42.2Y79.5
X42.663Y43.43
X43.199Y61.358
X43.225Y67.525
X43.475Y43.275
X43.55Y74.15
X44.9Y63.866
X45.25Y93.9
X45.55Y40.675
X45.7Y52.9
X46.0Y59.0
X46.0Y47.0
X46.0Y31.0
X46.0Y27.0
X46.0Y23.0
X46.0Y19.0
X46.0Y15.0
X46.0Y11.0
X46.0Y7.0
X46.0Y3.0
X46.229Y63.872
X46.4Y40.9
X47.4Y64.8
X47.9Y63.883
X47.9Y40.9
X48.825Y40.275
X49.4Y61.352
X49.4Y46.37
X50.0Y31.0
X50.0Y27.0
X50.0Y23.0
X50.0Y19.0
X50.0Y15.0
X50.0Y11.0
X50.0Y7.0
X50.0Y3.0
X50.67Y66.97
X50.7Y63.952
X50.811Y40.966
X50.9Y61.345
X50.97Y46.44
X52.025Y40.275
X52.369Y43.858
X52.6Y65.5
X52.725Y69.275
X52.725Y40.825
X53.475Y73.498
X54.0Y107.0
X54.0Y103.0
X54.0Y99.0
X54.0Y95.0
X54.0Y91.0
X54.0Y87.0
X54.0Y59.0
X54.0Y55.0
X54.0Y51.0
X54.0Y47.0
X54.0Y31.0
X54.0Y27.0
X54.0Y23.0
X54.0Y19.0
X54.0Y15.0
X54.0Y11.0
X54.0Y7.0
X54.0Y3.0
X54.764Y70.089
X55.1Y82.7
X55.1Y77.7
X56.655Y71.506
X58.0Y107.0
X58.0Y103.0
X58.0Y99.0
X58.0Y95.0
X58.0Y91.0
X58.0Y87.0
X58.0Y83.0
X58.0Y39.0
X58.0Y31.0
X58.0Y27.0
X58.0Y23.0
X58.0Y19.0
X58.0Y15.0
X58.0Y11.0
X58.0Y7.0
X58.0Y3.0
T4
X45.25Y90.5
X51.35Y90.5
T6
X19.84Y2.5
X22.38Y2.5
X24.92Y41.0
X24.92Y30.0
X24.92Y2.5
X27.46Y41.0
X27.46Y30.0
X27.46Y2.5
X30.0Y41.0
X30.0Y30.0
X30.0Y2.5
X32.54Y41.0
X32.54Y30.0
X32.54Y2.5
X35.08Y41.0
X35.08Y30.0
X35.08Y2.5
X37.62Y2.5
X40.16Y2.5
T5
G00X2.72Y52.43
M15
G01X1.92Y52.43
M16
G05
G00X2.72Y43.79
M15
G01X1.92Y43.79
M16
G05
G00X7.05Y52.43
M15
G01X5.95Y52.43
M16
G05
G00X7.05Y43.79
M15
G01X5.95Y43.79
M16
G05
M30
